VERSION 0.7
FIELDS x y z intensity
SIZE 4 4 4 4
TYPE F F F F
COUNT 1 1 1 1
WIDTH 1308
HEIGHT 1
VIEWPOINT 0.0 0.0 0.0 1.0 0.0 0.0 0.0
POINTS 1308
DATA ascii
0.0121780001 0.0000000000 0.0817620009 1.0000000000
0.0121660000 0.0000000000 0.0817679986 1.0000000000
0.0121550001 0.0000000000 0.0817629993 1.0000000000
0.0121419998 0.0000000000 0.0817580000 1.0000000000
0.0121320002 0.0000000000 0.0817700028 1.0000000000
0.0121200001 0.0000000000 0.0817769989 1.0000000000
0.0121080000 0.0000000000 0.0817700028 1.0000000000
0.0120959999 0.0000000000 0.0817629993 1.0000000000
0.0120839998 0.0000000000 0.0817629993 1.0000000000
0.0120700002 0.0000000000 0.0817589983 1.0000000000
0.0120599996 0.0000000000 0.0817589983 1.0000000000
0.0120470002 0.0000000000 0.0817580000 1.0000000000
0.0120360004 0.0000000000 0.0817580000 1.0000000000
0.0120249996 0.0000000000 0.0817629993 1.0000000000
0.0120139997 0.0000000000 0.0817700028 1.0000000000
0.0120000001 0.0000000000 0.0817660019 1.0000000000
0.0119890003 0.0000000000 0.0817620009 1.0000000000
0.0119780004 0.0000000000 0.0817639977 1.0000000000
0.0119669996 0.0000000000 0.0817729980 1.0000000000
0.0119550005 0.0000000000 0.0817729980 1.0000000000
0.0119430004 0.0000000000 0.0817660019 1.0000000000
0.0119289998 0.0000000000 0.0817650035 1.0000000000
0.0119200004 0.0000000000 0.0817729980 1.0000000000
0.0119070001 0.0000000000 0.0817750022 1.0000000000
0.0118960002 0.0000000000 0.0817700028 1.0000000000
0.0118819997 0.0000000000 0.0817650035 1.0000000000
0.0118720001 0.0000000000 0.0817710012 1.0000000000
0.0118600000 0.0000000000 0.0817750022 1.0000000000
0.0118490001 0.0000000000 0.0817750022 1.0000000000
0.0118370000 0.0000000000 0.0817700028 1.0000000000
0.0118249999 0.0000000000 0.0817679986 1.0000000000
0.0118110003 0.0000000000 0.0817650035 1.0000000000
0.0118000004 0.0000000000 0.0817629993 1.0000000000
0.0117889997 0.0000000000 0.0817629993 1.0000000000
0.0117769996 0.0000000000 0.0817670003 1.0000000000
0.0117650004 0.0000000000 0.0817750022 1.0000000000
0.0117549999 0.0000000000 0.0817790031 1.0000000000
0.0117419995 0.0000000000 0.0817750022 1.0000000000
0.0117309997 0.0000000000 0.0817750022 1.0000000000
0.0117180003 0.0000000000 0.0817750022 1.0000000000
0.0117070004 0.0000000000 0.0817760006 1.0000000000
0.0116940001 0.0000000000 0.0817650035 1.0000000000
0.0116809998 0.0000000000 0.0817520022 1.0000000000
0.0116680004 0.0000000000 0.0817570016 1.0000000000
0.0116590001 0.0000000000 0.0817660019 1.0000000000
0.0116459997 0.0000000000 0.0817679986 1.0000000000
0.0116349999 0.0000000000 0.0817670003 1.0000000000
0.0116229998 0.0000000000 0.0817639977 1.0000000000
0.0116119999 0.0000000000 0.0817650035 1.0000000000
0.0116010001 0.0000000000 0.0817729980 1.0000000000
0.0115890000 0.0000000000 0.0817729980 1.0000000000
0.0115759997 0.0000000000 0.0817639977 1.0000000000
0.0115639996 0.0000000000 0.0817599967 1.0000000000
0.0115520004 0.0000000000 0.0817599967 1.0000000000
0.0115400003 0.0000000000 0.0817589983 1.0000000000
0.0115280002 0.0000000000 0.0817610025 1.0000000000
0.0115179997 0.0000000000 0.0817700028 1.0000000000
0.0115050003 0.0000000000 0.0817729980 1.0000000000
0.0114949998 0.0000000000 0.0817760006 1.0000000000
0.0114820004 0.0000000000 0.0817750022 1.0000000000
0.0114700003 0.0000000000 0.0817710012 1.0000000000
0.0114569999 0.0000000000 0.0817660019 1.0000000000
0.0114470003 0.0000000000 0.0817700028 1.0000000000
0.0114359995 0.0000000000 0.0817779973 1.0000000000
0.0114240004 0.0000000000 0.0817779973 1.0000000000
0.0114110000 0.0000000000 0.0817750022 1.0000000000
0.0114000002 0.0000000000 0.0817750022 1.0000000000
0.0113869999 0.0000000000 0.0817739964 1.0000000000
0.0113760000 0.0000000000 0.0817750022 1.0000000000
0.0113639999 0.0000000000 0.0817829967 1.0000000000
0.0113549996 0.0000000000 0.0817909986 1.0000000000
0.0113420002 0.0000000000 0.0817850009 1.0000000000
0.0113300001 0.0000000000 0.0817779973 1.0000000000
0.0113169998 0.0000000000 0.0817769989 1.0000000000
0.0113059999 0.0000000000 0.0817809999 1.0000000000
0.0112950001 0.0000000000 0.0817869976 1.0000000000
0.0112830000 0.0000000000 0.0817819983 1.0000000000
0.0112690004 0.0000000000 0.0817729980 1.0000000000
0.0112579996 0.0000000000 0.0817760006 1.0000000000
0.0112469997 0.0000000000 0.0817769989 1.0000000000
0.0112340003 0.0000000000 0.0817739964 1.0000000000
0.0112210000 0.0000000000 0.0817719996 1.0000000000
0.0112110004 0.0000000000 0.0817760006 1.0000000000
0.0111980001 0.0000000000 0.0817790031 1.0000000000
0.0111880004 0.0000000000 0.0817819983 1.0000000000
0.0111760003 0.0000000000 0.0817779973 1.0000000000
0.0111630000 0.0000000000 0.0817710012 1.0000000000
0.0111499997 0.0000000000 0.0817700028 1.0000000000
0.0111400001 0.0000000000 0.0817750022 1.0000000000
0.0111269997 0.0000000000 0.0817719996 1.0000000000
0.0111159999 0.0000000000 0.0817679986 1.0000000000
0.0111039998 0.0000000000 0.0817679986 1.0000000000
0.0110930000 0.0000000000 0.0817729980 1.0000000000
0.0110790003 0.0000000000 0.0817729980 1.0000000000
0.0110689998 0.0000000000 0.0817739964 1.0000000000
0.0110569997 0.0000000000 0.0817800015 1.0000000000
0.0110480003 0.0000000000 0.0817959979 1.0000000000
0.0110370005 0.0000000000 0.0818039998 1.0000000000
0.0110250004 0.0000000000 0.0818039998 1.0000000000
0.0110120000 0.0000000000 0.0818039998 1.0000000000
0.0110020004 0.0000000000 0.0818099976 1.0000000000
0.0109900003 0.0000000000 0.0818139985 1.0000000000
0.0109799998 0.0000000000 0.0818220004 1.0000000000
0.0109689999 0.0000000000 0.0818379968 1.0000000000
0.0109599996 0.0000000000 0.0818549991 1.0000000000
0.0109479995 0.0000000000 0.0818580016 1.0000000000
0.0109369997 0.0000000000 0.0818599984 1.0000000000
0.0109249996 0.0000000000 0.0818680003 1.0000000000
0.0109160002 0.0000000000 0.0818789974 1.0000000000
0.0109050004 0.0000000000 0.0818890035 1.0000000000
0.0108949998 0.0000000000 0.0819030032 1.0000000000
0.0108859995 0.0000000000 0.0819239989 1.0000000000
0.0108749997 0.0000000000 0.0819370002 1.0000000000
0.0108639998 0.0000000000 0.0819400027 1.0000000000
0.0108519997 0.0000000000 0.0819410011 1.0000000000
0.0108430004 0.0000000000 0.0819630027 1.0000000000
0.0108329998 0.0000000000 0.0819810033 1.0000000000
0.0108220000 0.0000000000 0.0819879994 1.0000000000
0.0108120004 0.0000000000 0.0820019990 1.0000000000
0.0108000003 0.0000000000 0.0820119977 1.0000000000
0.0107910000 0.0000000000 0.0820219964 1.0000000000
0.0107779996 0.0000000000 0.0820280015 1.0000000000
0.0107690003 0.0000000000 0.0820349976 1.0000000000
0.0107570002 0.0000000000 0.0820449963 1.0000000000
0.0107469996 0.0000000000 0.0820550025 1.0000000000
0.0107349996 0.0000000000 0.0820600018 1.0000000000
0.0107249999 0.0000000000 0.0820669979 1.0000000000
0.0107119996 0.0000000000 0.0820700005 1.0000000000
0.0107020000 0.0000000000 0.0820769966 1.0000000000
0.0106899999 0.0000000000 0.0820870027 1.0000000000
0.0106809996 0.0000000000 0.0820999965 1.0000000000
0.0106690004 0.0000000000 0.0821070001 1.0000000000
0.0106589999 0.0000000000 0.0821119994 1.0000000000
0.0106480001 0.0000000000 0.0821319968 1.0000000000
0.0106400000 0.0000000000 0.0821560025 1.0000000000
0.0106279999 0.0000000000 0.0821629986 1.0000000000
0.0106170001 0.0000000000 0.0821629986 1.0000000000
0.0106060002 0.0000000000 0.0821719989 1.0000000000
0.0105940001 0.0000000000 0.0821790025 1.0000000000
0.0105830003 0.0000000000 0.0821909979 1.0000000000
0.0105750002 0.0000000000 0.0822160020 1.0000000000
0.0105630001 0.0000000000 0.0822250023 1.0000000000
0.0105520003 0.0000000000 0.0822290033 1.0000000000
0.0105400002 0.0000000000 0.0822340026 1.0000000000
0.0105299996 0.0000000000 0.0822449997 1.0000000000
0.0105180005 0.0000000000 0.0822520033 1.0000000000
0.0105079999 0.0000000000 0.0822549984 1.0000000000
0.0104959998 0.0000000000 0.0822620019 1.0000000000
0.0104860002 0.0000000000 0.0822750032 1.0000000000
0.0104740001 0.0000000000 0.0822840035 1.0000000000
0.0104639996 0.0000000000 0.0822940022 1.0000000000
0.0104529997 0.0000000000 0.0823059976 1.0000000000
0.0104430001 0.0000000000 0.0823170021 1.0000000000
0.0104320003 0.0000000000 0.0823249966 1.0000000000
0.0104210004 0.0000000000 0.0823350027 1.0000000000
0.0104090003 0.0000000000 0.0823429972 1.0000000000
0.0103979995 0.0000000000 0.0823490024 1.0000000000
0.0103869997 0.0000000000 0.0823569968 1.0000000000
0.0103770001 0.0000000000 0.0823720023 1.0000000000
0.0103669995 0.0000000000 0.0823860019 1.0000000000
0.0103559997 0.0000000000 0.0824000016 1.0000000000
0.0103449998 0.0000000000 0.0824130028 1.0000000000
0.0103350002 0.0000000000 0.0824209973 1.0000000000
0.0103219999 0.0000000000 0.0824209973 1.0000000000
0.0103120003 0.0000000000 0.0824280009 1.0000000000
0.0103010004 0.0000000000 0.0824389979 1.0000000000
0.0102899997 0.0000000000 0.0824479982 1.0000000000
0.0102789998 0.0000000000 0.0824609995 1.0000000000
0.0102680000 0.0000000000 0.0824680030 1.0000000000
0.0102549996 0.0000000000 0.0824659988 1.0000000000
0.0102450000 0.0000000000 0.0824780017 1.0000000000
0.0102340002 0.0000000000 0.0824939981 1.0000000000
0.0102239996 0.0000000000 0.0824989974 1.0000000000
0.0102120005 0.0000000000 0.0825050026 1.0000000000
0.0102019999 0.0000000000 0.0825200006 1.0000000000
0.0101910001 0.0000000000 0.0825309977 1.0000000000
0.0101800002 0.0000000000 0.0825370029 1.0000000000
0.0101680001 0.0000000000 0.0825529993 1.0000000000
0.0101600001 0.0000000000 0.0825719982 1.0000000000
0.0101490002 0.0000000000 0.0825849995 1.0000000000
0.0101380004 0.0000000000 0.0825959966 1.0000000000
0.0101260003 0.0000000000 0.0826030001 1.0000000000
0.0101159997 0.0000000000 0.0826100037 1.0000000000
0.0101030003 0.0000000000 0.0826120004 1.0000000000
0.0100929998 0.0000000000 0.0826189965 1.0000000000
0.0100819999 0.0000000000 0.0826279968 1.0000000000
0.0100699998 0.0000000000 0.0826300010 1.0000000000
0.0100579998 0.0000000000 0.0826369971 1.0000000000
0.0100499997 0.0000000000 0.0826620013 1.0000000000
0.0100400001 0.0000000000 0.0826810002 1.0000000000
0.0100280000 0.0000000000 0.0826869980 1.0000000000
0.0100149997 0.0000000000 0.0826900005 1.0000000000
0.0100050000 0.0000000000 0.0826969966 1.0000000000
0.0099940002 0.0000000000 0.0827059969 1.0000000000
0.0099830003 0.0000000000 0.0827149972 1.0000000000
0.0099719996 0.0000000000 0.0827239975 1.0000000000
0.0099609997 0.0000000000 0.0827329978 1.0000000000
0.0099489996 0.0000000000 0.0827450007 1.0000000000
0.0099390000 0.0000000000 0.0827509984 1.0000000000
0.0099269999 0.0000000000 0.0827630013 1.0000000000
0.0099179996 0.0000000000 0.0827800035 1.0000000000
0.0099060005 0.0000000000 0.0827829987 1.0000000000
0.0098949997 0.0000000000 0.0827860013 1.0000000000
0.0098829996 0.0000000000 0.0827910006 1.0000000000
0.0098730000 0.0000000000 0.0828059986 1.0000000000
0.0098609999 0.0000000000 0.0828149989 1.0000000000
0.0098510003 0.0000000000 0.0828220025 1.0000000000
0.0098379999 0.0000000000 0.0828310028 1.0000000000
0.0098289996 0.0000000000 0.0828410015 1.0000000000
0.0098160002 0.0000000000 0.0828479975 1.0000000000
0.0098050004 0.0000000000 0.0828490034 1.0000000000
0.0097920001 0.0000000000 0.0828469992 1.0000000000
0.0097820004 0.0000000000 0.0828510001 1.0000000000
0.0097700004 0.0000000000 0.0828529969 1.0000000000
0.0097570000 0.0000000000 0.0828439966 1.0000000000
0.0076649999 0.0000000000 0.0829000026 1.0000000000
0.0076520001 0.0000000000 0.0828970000 1.0000000000
0.0076410002 0.0000000000 0.0828960016 1.0000000000
0.0076279999 0.0000000000 0.0828929991 1.0000000000
0.0076150000 0.0000000000 0.0828820020 1.0000000000
0.0076029999 0.0000000000 0.0828749985 1.0000000000
0.0075909998 0.0000000000 0.0828740001 1.0000000000
0.0075770002 0.0000000000 0.0828699991 1.0000000000
0.0075659999 0.0000000000 0.0828659981 1.0000000000
0.0075520002 0.0000000000 0.0828600004 1.0000000000
0.0075400001 0.0000000000 0.0828500018 1.0000000000
0.0075249998 0.0000000000 0.0828239992 1.0000000000
0.0075119999 0.0000000000 0.0828059986 1.0000000000
0.0074990001 0.0000000000 0.0827979967 1.0000000000
0.0074870000 0.0000000000 0.0827929974 1.0000000000
0.0074740001 0.0000000000 0.0827789977 1.0000000000
0.0074609998 0.0000000000 0.0827649981 1.0000000000
0.0074470001 0.0000000000 0.0827530026 1.0000000000
0.0074350000 0.0000000000 0.0827459991 1.0000000000
0.0074209999 0.0000000000 0.0827379972 1.0000000000
0.0074100001 0.0000000000 0.0827319995 1.0000000000
0.0073970002 0.0000000000 0.0827270001 1.0000000000
0.0073839999 0.0000000000 0.0827160031 1.0000000000
0.0073699998 0.0000000000 0.0827030018 1.0000000000
0.0073589999 0.0000000000 0.0826940015 1.0000000000
0.0073460001 0.0000000000 0.0826829970 1.0000000000
0.0073320000 0.0000000000 0.0826679990 1.0000000000
0.0073190001 0.0000000000 0.0826549977 1.0000000000
0.0073070000 0.0000000000 0.0826490000 1.0000000000
0.0072929999 0.0000000000 0.0826390013 1.0000000000
0.0072809998 0.0000000000 0.0826319978 1.0000000000
0.0072679999 0.0000000000 0.0826200023 1.0000000000
0.0072550001 0.0000000000 0.0826060027 1.0000000000
0.0072410000 0.0000000000 0.0825959966 1.0000000000
0.0072300001 0.0000000000 0.0825870037 1.0000000000
0.0072169998 0.0000000000 0.0825759992 1.0000000000
0.0072039999 0.0000000000 0.0825669989 1.0000000000
0.0071899998 0.0000000000 0.0825539976 1.0000000000
0.0071780002 0.0000000000 0.0825449973 1.0000000000
0.0071640001 0.0000000000 0.0825359970 1.0000000000
0.0071520000 0.0000000000 0.0825230032 1.0000000000
0.0071390001 0.0000000000 0.0825079978 1.0000000000
0.0071270000 0.0000000000 0.0825090036 1.0000000000
0.0071140002 0.0000000000 0.0824949965 1.0000000000
0.0071000000 0.0000000000 0.0824680030 1.0000000000
0.0070880000 0.0000000000 0.0824619979 1.0000000000
0.0070750001 0.0000000000 0.0824540034 1.0000000000
0.0070610000 0.0000000000 0.0824420005 1.0000000000
0.0070489999 0.0000000000 0.0824310035 1.0000000000
0.0070349998 0.0000000000 0.0824159980 1.0000000000
0.0070230002 0.0000000000 0.0824059993 1.0000000000
0.0070090001 0.0000000000 0.0823950022 1.0000000000
0.0069980002 0.0000000000 0.0823910013 1.0000000000
0.0069840001 0.0000000000 0.0823770016 1.0000000000
0.0069710002 0.0000000000 0.0823440030 1.0000000000
0.0069579999 0.0000000000 0.0823320001 1.0000000000
0.0069450000 0.0000000000 0.0823279992 1.0000000000
0.0069320002 0.0000000000 0.0823239982 1.0000000000
0.0069209998 0.0000000000 0.0823249966 1.0000000000
0.0069070002 0.0000000000 0.0823189989 1.0000000000
0.0068950001 0.0000000000 0.0822959989 1.0000000000
0.0068799998 0.0000000000 0.0822729990 1.0000000000
0.0068689999 0.0000000000 0.0822750032 1.0000000000
0.0068549998 0.0000000000 0.0822530016 1.0000000000
0.0068430002 0.0000000000 0.0822520033 1.0000000000
0.0068279998 0.0000000000 0.0822290033 1.0000000000
0.0068160002 0.0000000000 0.0822120011 1.0000000000
0.0068029999 0.0000000000 0.0822120011 1.0000000000
0.0067929998 0.0000000000 0.0822179988 1.0000000000
0.0067790002 0.0000000000 0.0822110027 1.0000000000
0.0067670001 0.0000000000 0.0821940005 1.0000000000
0.0067530000 0.0000000000 0.0821679980 1.0000000000
0.0067389999 0.0000000000 0.0821480006 1.0000000000
0.0067260000 0.0000000000 0.0821420029 1.0000000000
0.0067150001 0.0000000000 0.0821430013 1.0000000000
0.0067030001 0.0000000000 0.0821390003 1.0000000000
0.0066889999 0.0000000000 0.0821250007 1.0000000000
0.0066749998 0.0000000000 0.0821110010 1.0000000000
0.0066640000 0.0000000000 0.0821020007 1.0000000000
0.0066499999 0.0000000000 0.0820939988 1.0000000000
0.0066390000 0.0000000000 0.0820880011 1.0000000000
0.0066240001 0.0000000000 0.0820659995 1.0000000000
0.0066129998 0.0000000000 0.0820600018 1.0000000000
0.0065990002 0.0000000000 0.0820429996 1.0000000000
0.0065870001 0.0000000000 0.0820330009 1.0000000000
0.0065730000 0.0000000000 0.0820320025 1.0000000000
0.0065620001 0.0000000000 0.0820259973 1.0000000000
0.0065489998 0.0000000000 0.0820100009 1.0000000000
0.0065359999 0.0000000000 0.0820000023 1.0000000000
0.0065219998 0.0000000000 0.0819810033 1.0000000000
0.0065100002 0.0000000000 0.0819670036 1.0000000000
0.0064969999 0.0000000000 0.0819630027 1.0000000000
0.0064860000 0.0000000000 0.0819600001 1.0000000000
0.0064730002 0.0000000000 0.0819490030 1.0000000000
0.0064599998 0.0000000000 0.0819329992 1.0000000000
0.0064460002 0.0000000000 0.0819199979 1.0000000000
0.0064340001 0.0000000000 0.0819080025 1.0000000000
0.0064200000 0.0000000000 0.0819019973 1.0000000000
0.0064090001 0.0000000000 0.0818990022 1.0000000000
0.0063970000 0.0000000000 0.0818900019 1.0000000000
0.0063840002 0.0000000000 0.0818810016 1.0000000000
0.0063700001 0.0000000000 0.0818729997 1.0000000000
0.0063590002 0.0000000000 0.0818660036 1.0000000000
0.0063459999 0.0000000000 0.0818530023 1.0000000000
0.0063339998 0.0000000000 0.0818440020 1.0000000000
0.0063220002 0.0000000000 0.0818469971 1.0000000000
0.0063100001 0.0000000000 0.0818549991 1.0000000000
0.0062970002 0.0000000000 0.0818499997 1.0000000000
0.0062859999 0.0000000000 0.0818409994 1.0000000000
0.0062719998 0.0000000000 0.0818329975 1.0000000000
0.0062609999 0.0000000000 0.0818340033 1.0000000000
0.0062489999 0.0000000000 0.0818369985 1.0000000000
0.0062380000 0.0000000000 0.0818419978 1.0000000000
0.0062239999 0.0000000000 0.0818400010 1.0000000000
0.0062130000 0.0000000000 0.0818350017 1.0000000000
0.0062010000 0.0000000000 0.0818369985 1.0000000000
0.0061900001 0.0000000000 0.0818469971 1.0000000000
0.0061789998 0.0000000000 0.0818549991 1.0000000000
0.0061670002 0.0000000000 0.0818530023 1.0000000000
0.0061530001 0.0000000000 0.0818490013 1.0000000000
0.0061420002 0.0000000000 0.0818469971 1.0000000000
0.0061300001 0.0000000000 0.0818459988 1.0000000000
0.0061180000 0.0000000000 0.0818419978 1.0000000000
0.0061059999 0.0000000000 0.0818369985 1.0000000000
0.0060930001 0.0000000000 0.0818329975 1.0000000000
0.0060810000 0.0000000000 0.0818360001 1.0000000000
0.0060700001 0.0000000000 0.0818409994 1.0000000000
0.0060580000 0.0000000000 0.0818440020 1.0000000000
0.0060459999 0.0000000000 0.0818430036 1.0000000000
0.0060339998 0.0000000000 0.0818459988 1.0000000000
0.0060220002 0.0000000000 0.0818509981 1.0000000000
0.0060100001 0.0000000000 0.0818540007 1.0000000000
0.0059980000 0.0000000000 0.0818519965 1.0000000000
0.0059850002 0.0000000000 0.0818480030 1.0000000000
0.0059739999 0.0000000000 0.0818519965 1.0000000000
0.0059610000 0.0000000000 0.0818570033 1.0000000000
0.0059500001 0.0000000000 0.0818559974 1.0000000000
0.0059380000 0.0000000000 0.0818530023 1.0000000000
0.0059260000 0.0000000000 0.0818499997 1.0000000000
0.0059139999 0.0000000000 0.0818469971 1.0000000000
0.0059019998 0.0000000000 0.0818499997 1.0000000000
0.0058900001 0.0000000000 0.0818530023 1.0000000000
0.0058780001 0.0000000000 0.0818480030 1.0000000000
0.0058639999 0.0000000000 0.0818390027 1.0000000000
0.0058530001 0.0000000000 0.0818400010 1.0000000000
0.0058410000 0.0000000000 0.0818469971 1.0000000000
0.0058300002 0.0000000000 0.0818540007 1.0000000000
0.0058180001 0.0000000000 0.0818519965 1.0000000000
0.0058060000 0.0000000000 0.0818499997 1.0000000000
0.0057930001 0.0000000000 0.0818499997 1.0000000000
0.0057819998 0.0000000000 0.0818540007 1.0000000000
0.0057689999 0.0000000000 0.0818570033 1.0000000000
0.0057580001 0.0000000000 0.0818609968 1.0000000000
0.0057450002 0.0000000000 0.0818590000 1.0000000000
0.0057339999 0.0000000000 0.0818530023 1.0000000000
0.0057199998 0.0000000000 0.0818459988 1.0000000000
0.0057089999 0.0000000000 0.0818430036 1.0000000000
0.0056969998 0.0000000000 0.0818440020 1.0000000000
0.0056860000 0.0000000000 0.0818490013 1.0000000000
0.0056739999 0.0000000000 0.0818509981 1.0000000000
0.0056619998 0.0000000000 0.0818499997 1.0000000000
0.0056489999 0.0000000000 0.0818440020 1.0000000000
0.0056369998 0.0000000000 0.0818369985 1.0000000000
0.0056240000 0.0000000000 0.0818390027 1.0000000000
0.0056130001 0.0000000000 0.0818490013 1.0000000000
0.0055999998 0.0000000000 0.0818499997 1.0000000000
0.0055889999 0.0000000000 0.0818459988 1.0000000000
0.0055760001 0.0000000000 0.0818490013 1.0000000000
0.0055650002 0.0000000000 0.0818519965 1.0000000000
0.0055519999 0.0000000000 0.0818480030 1.0000000000
0.0055410000 0.0000000000 0.0818519965 1.0000000000
0.0055290000 0.0000000000 0.0818580016 1.0000000000
0.0055180001 0.0000000000 0.0818599984 1.0000000000
0.0055060000 0.0000000000 0.0818599984 1.0000000000
0.0054939999 0.0000000000 0.0818580016 1.0000000000
0.0054799998 0.0000000000 0.0818480030 1.0000000000
0.0054690000 0.0000000000 0.0818430036 1.0000000000
0.0054560001 0.0000000000 0.0818480030 1.0000000000
0.0054460000 0.0000000000 0.0818570033 1.0000000000
0.0054339999 0.0000000000 0.0818599984 1.0000000000
0.0054210001 0.0000000000 0.0818559974 1.0000000000
0.0054090000 0.0000000000 0.0818519965 1.0000000000
0.0053969999 0.0000000000 0.0818549991 1.0000000000
0.0053860000 0.0000000000 0.0818609968 1.0000000000
0.0053739999 0.0000000000 0.0818649977 1.0000000000
0.0053610001 0.0000000000 0.0818639994 1.0000000000
0.0053490000 0.0000000000 0.0818549991 1.0000000000
0.0053360001 0.0000000000 0.0818469971 1.0000000000
0.0053249998 0.0000000000 0.0818519965 1.0000000000
0.0053119999 0.0000000000 0.0818570033 1.0000000000
0.0053010001 0.0000000000 0.0818609968 1.0000000000
0.0052890000 0.0000000000 0.0818660036 1.0000000000
0.0052780001 0.0000000000 0.0818649977 1.0000000000
0.0052649998 0.0000000000 0.0818609968 1.0000000000
0.0052530002 0.0000000000 0.0818559974 1.0000000000
0.0052399999 0.0000000000 0.0818540007 1.0000000000
0.0052290000 0.0000000000 0.0818570033 1.0000000000
0.0052160001 0.0000000000 0.0818549991 1.0000000000
0.0052049998 0.0000000000 0.0818499997 1.0000000000
0.0051910002 0.0000000000 0.0818480030 1.0000000000
0.0051810001 0.0000000000 0.0818580016 1.0000000000
0.0051679998 0.0000000000 0.0818620026 1.0000000000
0.0051569999 0.0000000000 0.0818649977 1.0000000000
0.0051460001 0.0000000000 0.0818689987 1.0000000000
0.0051340000 0.0000000000 0.0818689987 1.0000000000
0.0051210001 0.0000000000 0.0818670020 1.0000000000
0.0051090000 0.0000000000 0.0818660036 1.0000000000
0.0050969999 0.0000000000 0.0818620026 1.0000000000
0.0050849998 0.0000000000 0.0818599984 1.0000000000
0.0050720000 0.0000000000 0.0818639994 1.0000000000
0.0050610001 0.0000000000 0.0818599984 1.0000000000
0.0050470000 0.0000000000 0.0818530023 1.0000000000
0.0050369999 0.0000000000 0.0818540007 1.0000000000
0.0050240001 0.0000000000 0.0818530023 1.0000000000
0.0050120000 0.0000000000 0.0818509981 1.0000000000
0.0049999999 0.0000000000 0.0818530023 1.0000000000
0.0049879998 0.0000000000 0.0818540007 1.0000000000
0.0049769999 0.0000000000 0.0818590000 1.0000000000
0.0049649999 0.0000000000 0.0818620026 1.0000000000
0.0049520000 0.0000000000 0.0818609968 1.0000000000
0.0049410001 0.0000000000 0.0818630010 1.0000000000
0.0049279998 0.0000000000 0.0818630010 1.0000000000
0.0049170000 0.0000000000 0.0818630010 1.0000000000
0.0049049999 0.0000000000 0.0818609968 1.0000000000
0.0048929998 0.0000000000 0.0818609968 1.0000000000
0.0048799999 0.0000000000 0.0818639994 1.0000000000
0.0048690001 0.0000000000 0.0818649977 1.0000000000
0.0048570000 0.0000000000 0.0818609968 1.0000000000
0.0048449999 0.0000000000 0.0818630010 1.0000000000
0.0048329998 0.0000000000 0.0818670020 1.0000000000
0.0048210002 0.0000000000 0.0818660036 1.0000000000
0.0048079998 0.0000000000 0.0818639994 1.0000000000
0.0047970000 0.0000000000 0.0818620026 1.0000000000
0.0047829999 0.0000000000 0.0818559974 1.0000000000
0.0047720000 0.0000000000 0.0818559974 1.0000000000
0.0047590001 0.0000000000 0.0818639994 1.0000000000
0.0047490001 0.0000000000 0.0818680003 1.0000000000
0.0047370000 0.0000000000 0.0818660036 1.0000000000
0.0047249999 0.0000000000 0.0818670020 1.0000000000
0.0047109998 0.0000000000 0.0818630010 1.0000000000
0.0046999999 0.0000000000 0.0818580016 1.0000000000
0.0046870001 0.0000000000 0.0818549991 1.0000000000
0.0046760002 0.0000000000 0.0818549991 1.0000000000
0.0046640001 0.0000000000 0.0818570033 1.0000000000
0.0046520000 0.0000000000 0.0818559974 1.0000000000
0.0046390002 0.0000000000 0.0818540007 1.0000000000
0.0046279998 0.0000000000 0.0818570033 1.0000000000
0.0046160002 0.0000000000 0.0818580016 1.0000000000
0.0046040001 0.0000000000 0.0818580016 1.0000000000
0.0045909998 0.0000000000 0.0818620026 1.0000000000
0.0045799999 0.0000000000 0.0818680003 1.0000000000
0.0045670001 0.0000000000 0.0818630010 1.0000000000
0.0045560002 0.0000000000 0.0818559974 1.0000000000
0.0045440001 0.0000000000 0.0818599984 1.0000000000
0.0045320000 0.0000000000 0.0818689987 1.0000000000
0.0045190002 0.0000000000 0.0818720013 1.0000000000
0.0045079999 0.0000000000 0.0818689987 1.0000000000
0.0044959998 0.0000000000 0.0818670020 1.0000000000
0.0044840002 0.0000000000 0.0818689987 1.0000000000
0.0044709998 0.0000000000 0.0818699971 1.0000000000
0.0044600000 0.0000000000 0.0818729997 1.0000000000
0.0044470001 0.0000000000 0.0818720013 1.0000000000
0.0044359998 0.0000000000 0.0818710029 1.0000000000
0.0044220001 0.0000000000 0.0818689987 1.0000000000
0.0044120001 0.0000000000 0.0818689987 1.0000000000
0.0043990002 0.0000000000 0.0818660036 1.0000000000
0.0043870001 0.0000000000 0.0818689987 1.0000000000
0.0043759998 0.0000000000 0.0818749964 1.0000000000
0.0043629999 0.0000000000 0.0818739980 1.0000000000
0.0043500001 0.0000000000 0.0818680003 1.0000000000
0.0043390002 0.0000000000 0.0818710029 1.0000000000
0.0043270001 0.0000000000 0.0818739980 1.0000000000
0.0043150000 0.0000000000 0.0818800032 1.0000000000
0.0043040002 0.0000000000 0.0818850026 1.0000000000
0.0042909998 0.0000000000 0.0818810016 1.0000000000
0.0042780000 0.0000000000 0.0818770006 1.0000000000
0.0042670001 0.0000000000 0.0818739980 1.0000000000
0.0042550000 0.0000000000 0.0818680003 1.0000000000
0.0042420002 0.0000000000 0.0818649977 1.0000000000
0.0042289998 0.0000000000 0.0818609968 1.0000000000
0.0042180000 0.0000000000 0.0818620026 1.0000000000
0.0042059999 0.0000000000 0.0818649977 1.0000000000
0.0041939998 0.0000000000 0.0818710029 1.0000000000
0.0041809999 0.0000000000 0.0818720013 1.0000000000
0.0041700001 0.0000000000 0.0818649977 1.0000000000
0.0041570002 0.0000000000 0.0818639994 1.0000000000
0.0041459999 0.0000000000 0.0818680003 1.0000000000
0.0041330000 0.0000000000 0.0818710029 1.0000000000
0.0041220002 0.0000000000 0.0818749964 1.0000000000
0.0041100001 0.0000000000 0.0818760023 1.0000000000
0.0040980000 0.0000000000 0.0818789974 1.0000000000
0.0040850001 0.0000000000 0.0818789974 1.0000000000
0.0040739998 0.0000000000 0.0818770006 1.0000000000
0.0040620002 0.0000000000 0.0818770006 1.0000000000
0.0040500001 0.0000000000 0.0818779990 1.0000000000
0.0040369998 0.0000000000 0.0818779990 1.0000000000
0.0040259999 0.0000000000 0.0818789974 1.0000000000
0.0040139998 0.0000000000 0.0818820000 1.0000000000
0.0040020002 0.0000000000 0.0818810016 1.0000000000
0.0039900001 0.0000000000 0.0818760023 1.0000000000
0.0039769998 0.0000000000 0.0818729997 1.0000000000
0.0039650002 0.0000000000 0.0818749964 1.0000000000
0.0039530001 0.0000000000 0.0818779990 1.0000000000
0.0039400002 0.0000000000 0.0818760023 1.0000000000
0.0039289999 0.0000000000 0.0818749964 1.0000000000
0.0039160000 0.0000000000 0.0818710029 1.0000000000
0.0039049999 0.0000000000 0.0818680003 1.0000000000
0.0038930001 0.0000000000 0.0818739980 1.0000000000
0.0038810000 0.0000000000 0.0818800032 1.0000000000
0.0038680001 0.0000000000 0.0818770006 1.0000000000
0.0038570000 0.0000000000 0.0818720013 1.0000000000
0.0038449999 0.0000000000 0.0818739980 1.0000000000
0.0038330001 0.0000000000 0.0818820000 1.0000000000
0.0038210000 0.0000000000 0.0818829983 1.0000000000
0.0038089999 0.0000000000 0.0818779990 1.0000000000
0.0037970000 0.0000000000 0.0818760023 1.0000000000
0.0037839999 0.0000000000 0.0818699971 1.0000000000
0.0037710001 0.0000000000 0.0818630010 1.0000000000
0.0037600000 0.0000000000 0.0818670020 1.0000000000
0.0037469999 0.0000000000 0.0818760023 1.0000000000
0.0037370001 0.0000000000 0.0818839967 1.0000000000
0.0037240000 0.0000000000 0.0818760023 1.0000000000
0.0037120001 0.0000000000 0.0818720013 1.0000000000
0.0037000000 0.0000000000 0.0818729997 1.0000000000
0.0036879999 0.0000000000 0.0818660036 1.0000000000
0.0036740000 0.0000000000 0.0818620026 1.0000000000
0.0036640000 0.0000000000 0.0818729997 1.0000000000
0.0036520001 0.0000000000 0.0818820000 1.0000000000
0.0036400000 0.0000000000 0.0818820000 1.0000000000
0.0036269999 0.0000000000 0.0818760023 1.0000000000
0.0036160001 0.0000000000 0.0818789974 1.0000000000
0.0036030000 0.0000000000 0.0818770006 1.0000000000
0.0035920001 0.0000000000 0.0818770006 1.0000000000
0.0035780000 0.0000000000 0.0818770006 1.0000000000
0.0035669999 0.0000000000 0.0818789974 1.0000000000
0.0035540001 0.0000000000 0.0818760023 1.0000000000
0.0035430000 0.0000000000 0.0818820000 1.0000000000
0.0035300001 0.0000000000 0.0818869993 1.0000000000
0.0035190000 0.0000000000 0.0818860009 1.0000000000
0.0035059999 0.0000000000 0.0818850026 1.0000000000
0.0034950001 0.0000000000 0.0818850026 1.0000000000
0.0034820000 0.0000000000 0.0818789974 1.0000000000
0.0034709999 0.0000000000 0.0818760023 1.0000000000
0.0034580000 0.0000000000 0.0818770006 1.0000000000
0.0034469999 0.0000000000 0.0818810016 1.0000000000
0.0034350001 0.0000000000 0.0818829983 1.0000000000
0.0034230000 0.0000000000 0.0818860009 1.0000000000
0.0034099999 0.0000000000 0.0818869993 1.0000000000
0.0033990000 0.0000000000 0.0818869993 1.0000000000
0.0033859999 0.0000000000 0.0818850026 1.0000000000
0.0033750001 0.0000000000 0.0818850026 1.0000000000
0.0033610000 0.0000000000 0.0818789974 1.0000000000
0.0033499999 0.0000000000 0.0818779990 1.0000000000
0.0033370000 0.0000000000 0.0818879977 1.0000000000
0.0033270000 0.0000000000 0.0818969980 1.0000000000
0.0033140001 0.0000000000 0.0818940029 1.0000000000
0.0033020000 0.0000000000 0.0818910003 1.0000000000
0.0032899999 0.0000000000 0.0818829983 1.0000000000
0.0032780000 0.0000000000 0.0818789974 1.0000000000
0.0032649999 0.0000000000 0.0818779990 1.0000000000
0.0032540001 0.0000000000 0.0818770006 1.0000000000
0.0032410000 0.0000000000 0.0818789974 1.0000000000
0.0032299999 0.0000000000 0.0818800032 1.0000000000
0.0032160000 0.0000000000 0.0818789974 1.0000000000
0.0032060000 0.0000000000 0.0818879977 1.0000000000
0.0031940001 0.0000000000 0.0818979964 1.0000000000
0.0031820000 0.0000000000 0.0818979964 1.0000000000
0.0031699999 0.0000000000 0.0818979964 1.0000000000
0.0031580001 0.0000000000 0.0818979964 1.0000000000
0.0031450000 0.0000000000 0.0818940029 1.0000000000
0.0031330001 0.0000000000 0.0818879977 1.0000000000
0.0031210000 0.0000000000 0.0818820000 1.0000000000
0.0031089999 0.0000000000 0.0818810016 1.0000000000
0.0030960001 0.0000000000 0.0818779990 1.0000000000
0.0030850000 0.0000000000 0.0818789974 1.0000000000
0.0030720001 0.0000000000 0.0818850026 1.0000000000
0.0030610000 0.0000000000 0.0818890035 1.0000000000
0.0030479999 0.0000000000 0.0818869993 1.0000000000
0.0030370001 0.0000000000 0.0818839967 1.0000000000
0.0030250000 0.0000000000 0.0818820000 1.0000000000
0.0030129999 0.0000000000 0.0818839967 1.0000000000
0.0030000000 0.0000000000 0.0818829983 1.0000000000
0.0029879999 0.0000000000 0.0818810016 1.0000000000
0.0029750001 0.0000000000 0.0818829983 1.0000000000
0.0029640000 0.0000000000 0.0818879977 1.0000000000
0.0029519999 0.0000000000 0.0818910003 1.0000000000
0.0029400000 0.0000000000 0.0818910003 1.0000000000
0.0029279999 0.0000000000 0.0818919986 1.0000000000
0.0029160001 0.0000000000 0.0818910003 1.0000000000
0.0029030000 0.0000000000 0.0818839967 1.0000000000
0.0028919999 0.0000000000 0.0818800032 1.0000000000
0.0028800000 0.0000000000 0.0818839967 1.0000000000
0.0028680000 0.0000000000 0.0818929970 1.0000000000
0.0028560001 0.0000000000 0.0819000006 1.0000000000
0.0028440000 0.0000000000 0.0818959996 1.0000000000
0.0028299999 0.0000000000 0.0818850026 1.0000000000
0.0028190000 0.0000000000 0.0818839967 1.0000000000
0.0028059999 0.0000000000 0.0818869993 1.0000000000
0.0027950001 0.0000000000 0.0818929970 1.0000000000
0.0027830000 0.0000000000 0.0818990022 1.0000000000
0.0027709999 0.0000000000 0.0818969980 1.0000000000
0.0027590001 0.0000000000 0.0818910003 1.0000000000
0.0027470000 0.0000000000 0.0818950012 1.0000000000
0.0027340001 0.0000000000 0.0818959996 1.0000000000
0.0027230000 0.0000000000 0.0818910003 1.0000000000
0.0027109999 0.0000000000 0.0818910003 1.0000000000
0.0026990001 0.0000000000 0.0818969980 1.0000000000
0.0026870000 0.0000000000 0.0819000006 1.0000000000
0.0026750001 0.0000000000 0.0818990022 1.0000000000
0.0026610000 0.0000000000 0.0818919986 1.0000000000
0.0026499999 0.0000000000 0.0818919986 1.0000000000
0.0026380001 0.0000000000 0.0818919986 1.0000000000
0.0026260000 0.0000000000 0.0818860009 1.0000000000
0.0026140001 0.0000000000 0.0818829983 1.0000000000
0.0026020000 0.0000000000 0.0818850026 1.0000000000
0.0025899999 0.0000000000 0.0818879977 1.0000000000
0.0025780001 0.0000000000 0.0818829983 1.0000000000
0.0025650000 0.0000000000 0.0818800032 1.0000000000
0.0025530001 0.0000000000 0.0818810016 1.0000000000
0.0025400000 0.0000000000 0.0818860009 1.0000000000
0.0025289999 0.0000000000 0.0818919986 1.0000000000
0.0025160001 0.0000000000 0.0818869993 1.0000000000
0.0025050000 0.0000000000 0.0818850026 1.0000000000
0.0024929999 0.0000000000 0.0818890035 1.0000000000
0.0024810000 0.0000000000 0.0818890035 1.0000000000
0.0024679999 0.0000000000 0.0818829983 1.0000000000
0.0024570001 0.0000000000 0.0818879977 1.0000000000
0.0024450000 0.0000000000 0.0819069967 1.0000000000
0.0024120000 0.0000000000 0.0820219964 1.0000000000
0.0024000001 0.0000000000 0.0820259973 1.0000000000
0.0023880000 0.0000000000 0.0820280015 1.0000000000
0.0023749999 0.0000000000 0.0820219964 1.0000000000
0.0023630001 0.0000000000 0.0820219964 1.0000000000
0.0023510000 0.0000000000 0.0820299983 1.0000000000
0.0023399999 0.0000000000 0.0820429996 1.0000000000
0.0023270000 0.0000000000 0.0820569992 1.0000000000
0.0023159999 0.0000000000 0.0820690021 1.0000000000
0.0023040001 0.0000000000 0.0820550025 1.0000000000
0.0022910000 0.0000000000 0.0820410028 1.0000000000
-0.0025190001 0.0000000000 0.0821349993 1.0000000000
-0.0025309999 0.0000000000 0.0821319968 1.0000000000
-0.0025430000 0.0000000000 0.0821050033 1.0000000000
-0.0025539999 0.0000000000 0.0820970014 1.0000000000
-0.0025670000 0.0000000000 0.0820769966 1.0000000000
-0.0025780001 0.0000000000 0.0820629969 1.0000000000
-0.0025889999 0.0000000000 0.0820489973 1.0000000000
-0.0026010000 0.0000000000 0.0820370018 1.0000000000
-0.0026140001 0.0000000000 0.0820330009 1.0000000000
-0.0026250000 0.0000000000 0.0820280015 1.0000000000
-0.0026370001 0.0000000000 0.0820230022 1.0000000000
-0.0026489999 0.0000000000 0.0820159987 1.0000000000
-0.0026620000 0.0000000000 0.0820000023 1.0000000000
-0.0026730001 0.0000000000 0.0819889978 1.0000000000
-0.0026850000 0.0000000000 0.0819860026 1.0000000000
-0.0026970000 0.0000000000 0.0819839984 1.0000000000
-0.0027099999 0.0000000000 0.0819820017 1.0000000000
-0.0027210000 0.0000000000 0.0819799975 1.0000000000
-0.0027340001 0.0000000000 0.0819709972 1.0000000000
-0.0027449999 0.0000000000 0.0819690004 1.0000000000
-0.0027570000 0.0000000000 0.0819690004 1.0000000000
-0.0027689999 0.0000000000 0.0819670036 1.0000000000
-0.0027810000 0.0000000000 0.0819720030 1.0000000000
-0.0027930001 0.0000000000 0.0819759965 1.0000000000
-0.0028049999 0.0000000000 0.0819709972 1.0000000000
-0.0028170000 0.0000000000 0.0819659978 1.0000000000
-0.0028299999 0.0000000000 0.0819640011 1.0000000000
-0.0028410000 0.0000000000 0.0819640011 1.0000000000
-0.0028530001 0.0000000000 0.0819619969 1.0000000000
-0.0028659999 0.0000000000 0.0819649994 1.0000000000
-0.0028780000 0.0000000000 0.0819699988 1.0000000000
-0.0028899999 0.0000000000 0.0819730014 1.0000000000
-0.0029030000 0.0000000000 0.0819720030 1.0000000000
-0.0029140001 0.0000000000 0.0819680020 1.0000000000
-0.0029259999 0.0000000000 0.0819609985 1.0000000000
-0.0029380000 0.0000000000 0.0819609985 1.0000000000
-0.0029500001 0.0000000000 0.0819630027 1.0000000000
-0.0029620000 0.0000000000 0.0819630027 1.0000000000
-0.0029750001 0.0000000000 0.0819670036 1.0000000000
-0.0029869999 0.0000000000 0.0819680020 1.0000000000
-0.0029990000 0.0000000000 0.0819630027 1.0000000000
-0.0030110001 0.0000000000 0.0819630027 1.0000000000
-0.0030240000 0.0000000000 0.0819640011 1.0000000000
-0.0030350001 0.0000000000 0.0819670036 1.0000000000
-0.0030479999 0.0000000000 0.0819640011 1.0000000000
-0.0030590000 0.0000000000 0.0819630027 1.0000000000
-0.0030710001 0.0000000000 0.0819699988 1.0000000000
-0.0030840000 0.0000000000 0.0819770023 1.0000000000
-0.0030960001 0.0000000000 0.0819730014 1.0000000000
-0.0031069999 0.0000000000 0.0819690004 1.0000000000
-0.0031200000 0.0000000000 0.0819680020 1.0000000000
-0.0031320001 0.0000000000 0.0819699988 1.0000000000
-0.0031440000 0.0000000000 0.0819690004 1.0000000000
-0.0031560000 0.0000000000 0.0819680020 1.0000000000
-0.0031689999 0.0000000000 0.0819649994 1.0000000000
-0.0031800000 0.0000000000 0.0819630027 1.0000000000
-0.0031930001 0.0000000000 0.0819580033 1.0000000000
-0.0032039999 0.0000000000 0.0819580033 1.0000000000
-0.0032170000 0.0000000000 0.0819630027 1.0000000000
-0.0032279999 0.0000000000 0.0819670036 1.0000000000
-0.0032410000 0.0000000000 0.0819649994 1.0000000000
-0.0032520001 0.0000000000 0.0819640011 1.0000000000
-0.0032639999 0.0000000000 0.0819640011 1.0000000000
-0.0032760000 0.0000000000 0.0819630027 1.0000000000
-0.0032879999 0.0000000000 0.0819630027 1.0000000000
-0.0033010000 0.0000000000 0.0819659978 1.0000000000
-0.0033130001 0.0000000000 0.0819709972 1.0000000000
-0.0033249999 0.0000000000 0.0819680020 1.0000000000
-0.0033380000 0.0000000000 0.0819649994 1.0000000000
-0.0033489999 0.0000000000 0.0819699988 1.0000000000
-0.0033620000 0.0000000000 0.0819670036 1.0000000000
-0.0033730001 0.0000000000 0.0819630027 1.0000000000
-0.0033849999 0.0000000000 0.0819640011 1.0000000000
-0.0033970000 0.0000000000 0.0819699988 1.0000000000
-0.0034090001 0.0000000000 0.0819709972 1.0000000000
-0.0034210000 0.0000000000 0.0819709972 1.0000000000
-0.0034350001 0.0000000000 0.0819739997 1.0000000000
-0.0034459999 0.0000000000 0.0819759965 1.0000000000
-0.0034590000 0.0000000000 0.0819759965 1.0000000000
-0.0034700001 0.0000000000 0.0819780007 1.0000000000
-0.0034820000 0.0000000000 0.0819799975 1.0000000000
-0.0034940001 0.0000000000 0.0819789991 1.0000000000
-0.0035059999 0.0000000000 0.0819780007 1.0000000000
-0.0035180000 0.0000000000 0.0819770023 1.0000000000
-0.0035310001 0.0000000000 0.0819739997 1.0000000000
-0.0035420000 0.0000000000 0.0819730014 1.0000000000
-0.0035550001 0.0000000000 0.0819659978 1.0000000000
-0.0035659999 0.0000000000 0.0819580033 1.0000000000
-0.0035780000 0.0000000000 0.0819609985 1.0000000000
-0.0035900001 0.0000000000 0.0819670036 1.0000000000
-0.0036030000 0.0000000000 0.0819680020 1.0000000000
-0.0036150001 0.0000000000 0.0819730014 1.0000000000
-0.0036269999 0.0000000000 0.0819799975 1.0000000000
-0.0036390000 0.0000000000 0.0819839984 1.0000000000
-0.0036510001 0.0000000000 0.0819879994 1.0000000000
-0.0036640000 0.0000000000 0.0819879994 1.0000000000
-0.0036760001 0.0000000000 0.0819839984 1.0000000000
-0.0036869999 0.0000000000 0.0819820017 1.0000000000
-0.0036990000 0.0000000000 0.0819799975 1.0000000000
-0.0037120001 0.0000000000 0.0819799975 1.0000000000
-0.0037250000 0.0000000000 0.0819820017 1.0000000000
-0.0037360000 0.0000000000 0.0819820017 1.0000000000
-0.0037489999 0.0000000000 0.0819770023 1.0000000000
-0.0037600000 0.0000000000 0.0819730014 1.0000000000
-0.0037720001 0.0000000000 0.0819690004 1.0000000000
-0.0037839999 0.0000000000 0.0819720030 1.0000000000
-0.0037960000 0.0000000000 0.0819720030 1.0000000000
-0.0038079999 0.0000000000 0.0819699988 1.0000000000
-0.0038210000 0.0000000000 0.0819690004 1.0000000000
-0.0038320001 0.0000000000 0.0819670036 1.0000000000
-0.0038449999 0.0000000000 0.0819670036 1.0000000000
-0.0038560000 0.0000000000 0.0819799975 1.0000000000
-0.0038699999 0.0000000000 0.0819900036 1.0000000000
-0.0038810000 0.0000000000 0.0819889978 1.0000000000
-0.0038930001 0.0000000000 0.0819799975 1.0000000000
-0.0039049999 0.0000000000 0.0819759965 1.0000000000
-0.0039169998 0.0000000000 0.0819799975 1.0000000000
-0.0039289999 0.0000000000 0.0819810033 1.0000000000
-0.0039420002 0.0000000000 0.0819759965 1.0000000000
-0.0039530001 0.0000000000 0.0819770023 1.0000000000
-0.0039659999 0.0000000000 0.0819860026 1.0000000000
-0.0039780000 0.0000000000 0.0819939971 1.0000000000
-0.0039900001 0.0000000000 0.0819900036 1.0000000000
-0.0040010000 0.0000000000 0.0819830000 1.0000000000
-0.0040130001 0.0000000000 0.0819810033 1.0000000000
-0.0040250001 0.0000000000 0.0819789991 1.0000000000
-0.0040380000 0.0000000000 0.0819810033 1.0000000000
-0.0040500001 0.0000000000 0.0819799975 1.0000000000
-0.0040620002 0.0000000000 0.0819799975 1.0000000000
-0.0040739998 0.0000000000 0.0819839984 1.0000000000
-0.0040870002 0.0000000000 0.0819839984 1.0000000000
-0.0040980000 0.0000000000 0.0819789991 1.0000000000
-0.0041109999 0.0000000000 0.0819739997 1.0000000000
-0.0041220002 0.0000000000 0.0819789991 1.0000000000
-0.0041339998 0.0000000000 0.0819820017 1.0000000000
-0.0041459999 0.0000000000 0.0819870010 1.0000000000
-0.0041589998 0.0000000000 0.0819870010 1.0000000000
-0.0041709999 0.0000000000 0.0819860026 1.0000000000
-0.0041820002 0.0000000000 0.0819810033 1.0000000000
-0.0041939998 0.0000000000 0.0819720030 1.0000000000
-0.0042059999 0.0000000000 0.0819659978 1.0000000000
-0.0042180000 0.0000000000 0.0819709972 1.0000000000
-0.0042300001 0.0000000000 0.0819749981 1.0000000000
-0.0042429999 0.0000000000 0.0819810033 1.0000000000
-0.0042550000 0.0000000000 0.0819830000 1.0000000000
-0.0042670001 0.0000000000 0.0819770023 1.0000000000
-0.0042800000 0.0000000000 0.0819770023 1.0000000000
-0.0042909998 0.0000000000 0.0819830000 1.0000000000
-0.0043029999 0.0000000000 0.0819810033 1.0000000000
-0.0043150000 0.0000000000 0.0819759965 1.0000000000
-0.0043270001 0.0000000000 0.0819739997 1.0000000000
-0.0043390002 0.0000000000 0.0819749981 1.0000000000
-0.0043520001 0.0000000000 0.0819789991 1.0000000000
-0.0043640002 0.0000000000 0.0819900036 1.0000000000
-0.0043759998 0.0000000000 0.0819979981 1.0000000000
-0.0043879999 0.0000000000 0.0819960013 1.0000000000
-0.0044010002 0.0000000000 0.0819870010 1.0000000000
-0.0044120001 0.0000000000 0.0819789991 1.0000000000
-0.0044249999 0.0000000000 0.0819749981 1.0000000000
-0.0044359998 0.0000000000 0.0819799975 1.0000000000
-0.0044479999 0.0000000000 0.0819820017 1.0000000000
-0.0044600000 0.0000000000 0.0819810033 1.0000000000
-0.0044720001 0.0000000000 0.0819830000 1.0000000000
-0.0044840002 0.0000000000 0.0819820017 1.0000000000
-0.0044970000 0.0000000000 0.0819759965 1.0000000000
-0.0045079999 0.0000000000 0.0819780007 1.0000000000
-0.0045210002 0.0000000000 0.0819820017 1.0000000000
-0.0045329998 0.0000000000 0.0819860026 1.0000000000
-0.0045460002 0.0000000000 0.0819870010 1.0000000000
-0.0045570000 0.0000000000 0.0819879994 1.0000000000
-0.0045699999 0.0000000000 0.0819860026 1.0000000000
-0.0045810002 0.0000000000 0.0819860026 1.0000000000
-0.0045940001 0.0000000000 0.0819849968 1.0000000000
-0.0046049999 0.0000000000 0.0819820017 1.0000000000
-0.0046170000 0.0000000000 0.0819830000 1.0000000000
-0.0046290001 0.0000000000 0.0819849968 1.0000000000
-0.0046420000 0.0000000000 0.0819870010 1.0000000000
-0.0046540000 0.0000000000 0.0819920003 1.0000000000
-0.0046669999 0.0000000000 0.0819939971 1.0000000000
-0.0046780002 0.0000000000 0.0819939971 1.0000000000
-0.0046910001 0.0000000000 0.0819929987 1.0000000000
-0.0047019999 0.0000000000 0.0819960013 1.0000000000
-0.0047140000 0.0000000000 0.0819979981 1.0000000000
-0.0047260001 0.0000000000 0.0820000023 1.0000000000
-0.0047380002 0.0000000000 0.0819929987 1.0000000000
-0.0047499998 0.0000000000 0.0819870010 1.0000000000
-0.0047619999 0.0000000000 0.0819920003 1.0000000000
-0.0047749998 0.0000000000 0.0819969997 1.0000000000
-0.0047869999 0.0000000000 0.0819969997 1.0000000000
-0.0047990000 0.0000000000 0.0819950029 1.0000000000
-0.0048099998 0.0000000000 0.0819920003 1.0000000000
-0.0048219999 0.0000000000 0.0819900036 1.0000000000
-0.0048349998 0.0000000000 0.0819920003 1.0000000000
-0.0048469999 0.0000000000 0.0819969997 1.0000000000
-0.0048600002 0.0000000000 0.0819960013 1.0000000000
-0.0048710001 0.0000000000 0.0819929987 1.0000000000
-0.0048830002 0.0000000000 0.0819920003 1.0000000000
-0.0048949998 0.0000000000 0.0819929987 1.0000000000
-0.0049080001 0.0000000000 0.0819969997 1.0000000000
-0.0049190000 0.0000000000 0.0819969997 1.0000000000
-0.0049319998 0.0000000000 0.0819879994 1.0000000000
-0.0049419999 0.0000000000 0.0819820017 1.0000000000
-0.0049540000 0.0000000000 0.0819810033 1.0000000000
-0.0049669999 0.0000000000 0.0819839984 1.0000000000
-0.0049800002 0.0000000000 0.0819870010 1.0000000000
-0.0049910001 0.0000000000 0.0819960013 1.0000000000
-0.0050039999 0.0000000000 0.0819939971 1.0000000000
-0.0050149998 0.0000000000 0.0819900036 1.0000000000
-0.0050280001 0.0000000000 0.0819849968 1.0000000000
-0.0050390000 0.0000000000 0.0819889978 1.0000000000
-0.0050519998 0.0000000000 0.0819960013 1.0000000000
-0.0050639999 0.0000000000 0.0819979981 1.0000000000
-0.0050760000 0.0000000000 0.0819960013 1.0000000000
-0.0050880001 0.0000000000 0.0819960013 1.0000000000
-0.0051010000 0.0000000000 0.0819960013 1.0000000000
-0.0051119998 0.0000000000 0.0820000023 1.0000000000
-0.0051250001 0.0000000000 0.0819979981 1.0000000000
-0.0051360000 0.0000000000 0.0819960013 1.0000000000
-0.0051489999 0.0000000000 0.0819969997 1.0000000000
-0.0051600002 0.0000000000 0.0820000023 1.0000000000
-0.0051719998 0.0000000000 0.0820010006 1.0000000000
-0.0051850001 0.0000000000 0.0820060000 1.0000000000
-0.0051970002 0.0000000000 0.0820050016 1.0000000000
-0.0052080001 0.0000000000 0.0820019990 1.0000000000
-0.0052209999 0.0000000000 0.0819979981 1.0000000000
-0.0052319998 0.0000000000 0.0819920003 1.0000000000
-0.0052439999 0.0000000000 0.0819860026 1.0000000000
-0.0052560000 0.0000000000 0.0819860026 1.0000000000
-0.0052689998 0.0000000000 0.0819900036 1.0000000000
-0.0052800002 0.0000000000 0.0819950029 1.0000000000
-0.0052930000 0.0000000000 0.0819950029 1.0000000000
-0.0053039999 0.0000000000 0.0819939971 1.0000000000
-0.0053160000 0.0000000000 0.0819929987 1.0000000000
-0.0053280001 0.0000000000 0.0819910020 1.0000000000
-0.0053400001 0.0000000000 0.0819939971 1.0000000000
-0.0053530000 0.0000000000 0.0820000023 1.0000000000
-0.0053659999 0.0000000000 0.0819969997 1.0000000000
-0.0053770002 0.0000000000 0.0820000023 1.0000000000
-0.0053900001 0.0000000000 0.0820069984 1.0000000000
-0.0054009999 0.0000000000 0.0820079967 1.0000000000
-0.0054139998 0.0000000000 0.0820060000 1.0000000000
-0.0054250001 0.0000000000 0.0820060000 1.0000000000
-0.0054380000 0.0000000000 0.0819979981 1.0000000000
-0.0054489998 0.0000000000 0.0819910020 1.0000000000
-0.0054609999 0.0000000000 0.0819889978 1.0000000000
-0.0054730000 0.0000000000 0.0819950029 1.0000000000
-0.0054850001 0.0000000000 0.0820000023 1.0000000000
-0.0054970002 0.0000000000 0.0819989964 1.0000000000
-0.0055100000 0.0000000000 0.0819950029 1.0000000000
-0.0055209999 0.0000000000 0.0819960013 1.0000000000
-0.0055330000 0.0000000000 0.0819939971 1.0000000000
-0.0055450001 0.0000000000 0.0819989964 1.0000000000
-0.0055590002 0.0000000000 0.0820060000 1.0000000000
-0.0055700000 0.0000000000 0.0820069984 1.0000000000
-0.0055820001 0.0000000000 0.0820040032 1.0000000000
-0.0055940002 0.0000000000 0.0820000023 1.0000000000
-0.0056059998 0.0000000000 0.0820000023 1.0000000000
-0.0056179999 0.0000000000 0.0820019990 1.0000000000
-0.0056300000 0.0000000000 0.0819969997 1.0000000000
-0.0056420001 0.0000000000 0.0819960013 1.0000000000
-0.0056550000 0.0000000000 0.0819979981 1.0000000000
-0.0056659998 0.0000000000 0.0820019990 1.0000000000
-0.0056790002 0.0000000000 0.0820060000 1.0000000000
-0.0056909998 0.0000000000 0.0820130035 1.0000000000
-0.0057040001 0.0000000000 0.0820130035 1.0000000000
-0.0057150000 0.0000000000 0.0820090026 1.0000000000
-0.0057259998 0.0000000000 0.0820019990 1.0000000000
-0.0057379999 0.0000000000 0.0820010006 1.0000000000
-0.0057509998 0.0000000000 0.0820040032 1.0000000000
-0.0057629999 0.0000000000 0.0820109993 1.0000000000
-0.0057760002 0.0000000000 0.0820060000 1.0000000000
-0.0057859998 0.0000000000 0.0820000023 1.0000000000
-0.0057990002 0.0000000000 0.0819960013 1.0000000000
-0.0058100000 0.0000000000 0.0819950029 1.0000000000
-0.0058229999 0.0000000000 0.0819969997 1.0000000000
-0.0058350000 0.0000000000 0.0820029974 1.0000000000
-0.0058470001 0.0000000000 0.0820040032 1.0000000000
-0.0058590001 0.0000000000 0.0820019990 1.0000000000
-0.0058709998 0.0000000000 0.0820029974 1.0000000000
-0.0058829999 0.0000000000 0.0820029974 1.0000000000
-0.0058950000 0.0000000000 0.0820019990 1.0000000000
-0.0059070000 0.0000000000 0.0820100009 1.0000000000
-0.0059210001 0.0000000000 0.0820159987 1.0000000000
-0.0059320000 0.0000000000 0.0820140019 1.0000000000
-0.0059429999 0.0000000000 0.0820050016 1.0000000000
-0.0059549999 0.0000000000 0.0820019990 1.0000000000
-0.0059670000 0.0000000000 0.0820029974 1.0000000000
-0.0059790001 0.0000000000 0.0820050016 1.0000000000
-0.0059920000 0.0000000000 0.0820060000 1.0000000000
-0.0060029998 0.0000000000 0.0820040032 1.0000000000
-0.0060160002 0.0000000000 0.0819969997 1.0000000000
-0.0060270000 0.0000000000 0.0820000023 1.0000000000
-0.0060399999 0.0000000000 0.0820100009 1.0000000000
-0.0060520000 0.0000000000 0.0820169970 1.0000000000
-0.0060649998 0.0000000000 0.0820090026 1.0000000000
-0.0060749999 0.0000000000 0.0819969997 1.0000000000
-0.0060870000 0.0000000000 0.0819969997 1.0000000000
-0.0060999999 0.0000000000 0.0820029974 1.0000000000
-0.0061130002 0.0000000000 0.0820079967 1.0000000000
-0.0061240001 0.0000000000 0.0820119977 1.0000000000
-0.0061360002 0.0000000000 0.0820140019 1.0000000000
-0.0061490000 0.0000000000 0.0820140019 1.0000000000
-0.0061610001 0.0000000000 0.0820130035 1.0000000000
-0.0061720000 0.0000000000 0.0820109993 1.0000000000
-0.0061840001 0.0000000000 0.0820050016 1.0000000000
-0.0061960001 0.0000000000 0.0820040032 1.0000000000
-0.0062090000 0.0000000000 0.0820109993 1.0000000000
-0.0062210001 0.0000000000 0.0820140019 1.0000000000
-0.0062330002 0.0000000000 0.0820119977 1.0000000000
-0.0062449998 0.0000000000 0.0820109993 1.0000000000
-0.0062569999 0.0000000000 0.0820130035 1.0000000000
-0.0062690000 0.0000000000 0.0820119977 1.0000000000
-0.0062819999 0.0000000000 0.0820150003 1.0000000000
-0.0062930002 0.0000000000 0.0820209980 1.0000000000
-0.0063049998 0.0000000000 0.0820209980 1.0000000000
-0.0063169999 0.0000000000 0.0820199996 1.0000000000
-0.0063299998 0.0000000000 0.0820230022 1.0000000000
-0.0063419999 0.0000000000 0.0820280015 1.0000000000
-0.0063540000 0.0000000000 0.0820299983 1.0000000000
-0.0063660000 0.0000000000 0.0820299983 1.0000000000
-0.0063789999 0.0000000000 0.0820270032 1.0000000000
-0.0063900002 0.0000000000 0.0820240006 1.0000000000
-0.0064030001 0.0000000000 0.0820240006 1.0000000000
-0.0064139999 0.0000000000 0.0820280015 1.0000000000
-0.0064260000 0.0000000000 0.0820289999 1.0000000000
-0.0064380001 0.0000000000 0.0820230022 1.0000000000
-0.0064500002 0.0000000000 0.0820219964 1.0000000000
-0.0064619998 0.0000000000 0.0820259973 1.0000000000
-0.0064739999 0.0000000000 0.0820219964 1.0000000000
-0.0064860000 0.0000000000 0.0820190012 1.0000000000
-0.0064969999 0.0000000000 0.0820150003 1.0000000000
-0.0065090000 0.0000000000 0.0820109993 1.0000000000
-0.0065210001 0.0000000000 0.0820150003 1.0000000000
-0.0065339999 0.0000000000 0.0820230022 1.0000000000
-0.0065469998 0.0000000000 0.0820240006 1.0000000000
-0.0065580001 0.0000000000 0.0820259973 1.0000000000
-0.0065700002 0.0000000000 0.0820230022 1.0000000000
-0.0065819998 0.0000000000 0.0820169970 1.0000000000
-0.0065939999 0.0000000000 0.0820169970 1.0000000000
-0.0066060000 0.0000000000 0.0820249990 1.0000000000
-0.0066189999 0.0000000000 0.0820320025 1.0000000000
-0.0066310000 0.0000000000 0.0820309967 1.0000000000
-0.0066439998 0.0000000000 0.0820439979 1.0000000000
-0.0066610002 0.0000000000 0.0821179971 1.0000000000
-0.0066729998 0.0000000000 0.0821269974 1.0000000000
-0.0066860002 0.0000000000 0.0821370035 1.0000000000
-0.0066979998 0.0000000000 0.0821439996 1.0000000000
-0.0067110001 0.0000000000 0.0821510032 1.0000000000
-0.0067230002 0.0000000000 0.0821529999 1.0000000000
-0.0067360001 0.0000000000 0.0821710005 1.0000000000
-0.0067500002 0.0000000000 0.0821940005 1.0000000000
-0.0067619998 0.0000000000 0.0821999982 1.0000000000
-0.0067750001 0.0000000000 0.0822060034 1.0000000000
-0.0067880000 0.0000000000 0.0822150037 1.0000000000
-0.0068009999 0.0000000000 0.0822269991 1.0000000000
-0.0068130000 0.0000000000 0.0822369978 1.0000000000
-0.0068270001 0.0000000000 0.0822430030 1.0000000000
-0.0068390002 0.0000000000 0.0822549984 1.0000000000
-0.0068509998 0.0000000000 0.0822639987 1.0000000000
-0.0068640001 0.0000000000 0.0822750032 1.0000000000
-0.0068770000 0.0000000000 0.0822850019 1.0000000000
-0.0068899998 0.0000000000 0.0823030025 1.0000000000
-0.0069030002 0.0000000000 0.0823159963 1.0000000000
-0.0069160000 0.0000000000 0.0823329985 1.0000000000
-0.0069289999 0.0000000000 0.0823419988 1.0000000000
-0.0069419998 0.0000000000 0.0823479965 1.0000000000
-0.0069539999 0.0000000000 0.0823609978 1.0000000000
-0.0069670002 0.0000000000 0.0823680013 1.0000000000
-0.0069789998 0.0000000000 0.0823720023 1.0000000000
-0.0069920002 0.0000000000 0.0823739991 1.0000000000
-0.0070039998 0.0000000000 0.0823770016 1.0000000000
-0.0070159999 0.0000000000 0.0823789984 1.0000000000
-0.0070280000 0.0000000000 0.0823810026 1.0000000000
-0.0070409998 0.0000000000 0.0823900029 1.0000000000
-0.0070549999 0.0000000000 0.0824080035 1.0000000000
-0.0070679998 0.0000000000 0.0824330002 1.0000000000
-0.0070819999 0.0000000000 0.0824569985 1.0000000000
-0.0070949998 0.0000000000 0.0824630037 1.0000000000
-0.0071069999 0.0000000000 0.0824669972 1.0000000000
-0.0071200002 0.0000000000 0.0824740008 1.0000000000
-0.0071319998 0.0000000000 0.0824839994 1.0000000000
-0.0071459999 0.0000000000 0.0825010017 1.0000000000
-0.0071589998 0.0000000000 0.0825069994 1.0000000000
-0.0071709999 0.0000000000 0.0825200006 1.0000000000
-0.0071840002 0.0000000000 0.0825340003 1.0000000000
-0.0071970001 0.0000000000 0.0825430006 1.0000000000
-0.0072130002 0.0000000000 0.0825759992 1.0000000000
-0.0072249998 0.0000000000 0.0825890005 1.0000000000
-0.0072369999 0.0000000000 0.0825959966 1.0000000000
-0.0072499998 0.0000000000 0.0826070011 1.0000000000
-0.0072639999 0.0000000000 0.0826219991 1.0000000000
-0.0072770002 0.0000000000 0.0826380029 1.0000000000
-0.0072900001 0.0000000000 0.0826440006 1.0000000000
-0.0073020002 0.0000000000 0.0826449990 1.0000000000
-0.0073139998 0.0000000000 0.0826480016 1.0000000000
-0.0073259999 0.0000000000 0.0826520026 1.0000000000
-0.0073389998 0.0000000000 0.0826660022 1.0000000000
-0.0073529999 0.0000000000 0.0826829970 1.0000000000
-0.0073670000 0.0000000000 0.0826980025 1.0000000000
-0.0073790001 0.0000000000 0.0827020034 1.0000000000
-0.0073919999 0.0000000000 0.0827059969 1.0000000000
-0.0074040000 0.0000000000 0.0827179998 1.0000000000
-0.0074180001 0.0000000000 0.0827260017 1.0000000000
-0.0074339998 0.0000000000 0.0827850029 1.0000000000
-0.0074459999 0.0000000000 0.0827789977 1.0000000000
-0.0074570002 0.0000000000 0.0827730000 1.0000000000
-0.0074689998 0.0000000000 0.0827730000 1.0000000000
-0.0074820002 0.0000000000 0.0827800035 1.0000000000
-0.0074950000 0.0000000000 0.0827869996 1.0000000000
-0.0075079999 0.0000000000 0.0828140005 1.0000000000
-0.0075220000 0.0000000000 0.0828360021 1.0000000000
-0.0075349999 0.0000000000 0.0828460008 1.0000000000
-0.0075490000 0.0000000000 0.0828559995 1.0000000000
-0.0075610001 0.0000000000 0.0828649998 1.0000000000
-0.0075750002 0.0000000000 0.0828830004 1.0000000000
-0.0075880000 0.0000000000 0.0829029977 1.0000000000
-0.0076000001 0.0000000000 0.0829029977 1.0000000000
-0.0076130000 0.0000000000 0.0829079971 1.0000000000
-0.0076259999 0.0000000000 0.0829230025 1.0000000000
-0.0076390002 0.0000000000 0.0829339996 1.0000000000
-0.0076529998 0.0000000000 0.0829500034 1.0000000000
-0.0076660002 0.0000000000 0.0829700008 1.0000000000
-0.0076790000 0.0000000000 0.0829820037 1.0000000000
-0.0076919999 0.0000000000 0.0829859972 1.0000000000
-0.0077040000 0.0000000000 0.0829859972 1.0000000000
-0.0077169999 0.0000000000 0.0829989985 1.0000000000
-0.0077300002 0.0000000000 0.0830119997 1.0000000000
-0.0077430001 0.0000000000 0.0830169991 1.0000000000
-0.0077559999 0.0000000000 0.0830300003 1.0000000000
-0.0077689998 0.0000000000 0.0830459967 1.0000000000
-0.0077820001 0.0000000000 0.0830530003 1.0000000000
-0.0077960002 0.0000000000 0.0830719993 1.0000000000
-0.0078110001 0.0000000000 0.0831080005 1.0000000000
-0.0078229997 0.0000000000 0.0831099972 1.0000000000
-0.0078360001 0.0000000000 0.0831039995 1.0000000000
-0.0078469999 0.0000000000 0.0831060037 1.0000000000
-0.0078600002 0.0000000000 0.0831179991 1.0000000000
-0.0078729996 0.0000000000 0.0831239969 1.0000000000
-0.0078849997 0.0000000000 0.0831250027 1.0000000000
-0.0078980001 0.0000000000 0.0831350014 1.0000000000
-0.0079130000 0.0000000000 0.0831549987 1.0000000000
-0.0099020004 0.0000000000 0.0831900015 1.0000000000
-0.0099149998 0.0000000000 0.0832090005 1.0000000000
-0.0099259997 0.0000000000 0.0832019970 1.0000000000
-0.0099370005 0.0000000000 0.0831929967 1.0000000000
-0.0099489996 0.0000000000 0.0831850022 1.0000000000
-0.0099600004 0.0000000000 0.0831810012 1.0000000000
-0.0099719996 0.0000000000 0.0831729993 1.0000000000
-0.0099830003 0.0000000000 0.0831670016 1.0000000000
-0.0099940002 0.0000000000 0.0831580013 1.0000000000
-0.0100050000 0.0000000000 0.0831480026 1.0000000000
-0.0100170001 0.0000000000 0.0831359997 1.0000000000
-0.0100269997 0.0000000000 0.0831239969 1.0000000000
-0.0100389998 0.0000000000 0.0831200033 1.0000000000
-0.0100509999 0.0000000000 0.0831220001 1.0000000000
-0.0100630000 0.0000000000 0.0831120014 1.0000000000
-0.0100729996 0.0000000000 0.0830999985 1.0000000000
-0.0100819999 0.0000000000 0.0830790028 1.0000000000
-0.0100929998 0.0000000000 0.0830650032 1.0000000000
-0.0101049999 0.0000000000 0.0830620006 1.0000000000
-0.0101170000 0.0000000000 0.0830620006 1.0000000000
-0.0101279998 0.0000000000 0.0830549970 1.0000000000
-0.0101389997 0.0000000000 0.0830449983 1.0000000000
-0.0101509998 0.0000000000 0.0830330029 1.0000000000
-0.0101610003 0.0000000000 0.0830200016 1.0000000000
-0.0101730004 0.0000000000 0.0830190033 1.0000000000
-0.0101849996 0.0000000000 0.0830190033 1.0000000000
-0.0101960003 0.0000000000 0.0830119997 1.0000000000
-0.0102070002 0.0000000000 0.0830060020 1.0000000000
-0.0102190003 0.0000000000 0.0829980001 1.0000000000
-0.0102300001 0.0000000000 0.0829870030 1.0000000000
-0.0102399997 0.0000000000 0.0829679966 1.0000000000
-0.0102509996 0.0000000000 0.0829579979 1.0000000000
-0.0102629997 0.0000000000 0.0829529986 1.0000000000
-0.0102730002 0.0000000000 0.0829429999 1.0000000000
-0.0102840001 0.0000000000 0.0829259977 1.0000000000
-0.0102939997 0.0000000000 0.0829169974 1.0000000000
-0.0103059998 0.0000000000 0.0829140022 1.0000000000
-0.0103179999 0.0000000000 0.0829100013 1.0000000000
-0.0103280004 0.0000000000 0.0828960016 1.0000000000
-0.0103390003 0.0000000000 0.0828849971 1.0000000000
-0.0103500001 0.0000000000 0.0828780010 1.0000000000
-0.0103620002 0.0000000000 0.0828720033 1.0000000000
-0.0103730001 0.0000000000 0.0828690007 1.0000000000
-0.0103850001 0.0000000000 0.0828640014 1.0000000000
-0.0103960000 0.0000000000 0.0828479975 1.0000000000
-0.0104059996 0.0000000000 0.0828349963 1.0000000000
-0.0104179997 0.0000000000 0.0828239992 1.0000000000
-0.0104289996 0.0000000000 0.0828209966 1.0000000000
-0.0104400003 0.0000000000 0.0828199983 1.0000000000
-0.0104510002 0.0000000000 0.0828059986 1.0000000000
-0.0104630003 0.0000000000 0.0827950016 1.0000000000
-0.0104740001 0.0000000000 0.0827929974 1.0000000000
-0.0104860002 0.0000000000 0.0827850029 1.0000000000
-0.0104959998 0.0000000000 0.0827779993 1.0000000000
-0.0105069997 0.0000000000 0.0827639997 1.0000000000
-0.0105170002 0.0000000000 0.0827469975 1.0000000000
-0.0105280001 0.0000000000 0.0827369988 1.0000000000
-0.0105389999 0.0000000000 0.0827329978 1.0000000000
-0.0105510000 0.0000000000 0.0827250034 1.0000000000
-0.0105609996 0.0000000000 0.0827170014 1.0000000000
-0.0105740000 0.0000000000 0.0827110037 1.0000000000
-0.0105839996 0.0000000000 0.0827049986 1.0000000000
-0.0105950003 0.0000000000 0.0826969966 1.0000000000
-0.0106060002 0.0000000000 0.0826890022 1.0000000000
-0.0106170001 0.0000000000 0.0826779976 1.0000000000
-0.0106279999 0.0000000000 0.0826639980 1.0000000000
-0.0106380004 0.0000000000 0.0826470032 1.0000000000
-0.0106480001 0.0000000000 0.0826350003 1.0000000000
-0.0106610004 0.0000000000 0.0826350003 1.0000000000
-0.0106720002 0.0000000000 0.0826319978 1.0000000000
-0.0106830001 0.0000000000 0.0826150030 1.0000000000
-0.0106929997 0.0000000000 0.0826049969 1.0000000000
-0.0107049998 0.0000000000 0.0826030001 1.0000000000
-0.0107169999 0.0000000000 0.0825999975 1.0000000000
-0.0107279997 0.0000000000 0.0825920030 1.0000000000
-0.0107380003 0.0000000000 0.0825780034 1.0000000000
-0.0107490001 0.0000000000 0.0825669989 1.0000000000
-0.0107600000 0.0000000000 0.0825619996 1.0000000000
-0.0107720001 0.0000000000 0.0825539976 1.0000000000
-0.0107819997 0.0000000000 0.0825399980 1.0000000000
-0.0107930005 0.0000000000 0.0825269967 1.0000000000
-0.0108040003 0.0000000000 0.0825219974 1.0000000000
-0.0108150002 0.0000000000 0.0825100020 1.0000000000
-0.0108249998 0.0000000000 0.0824960023 1.0000000000
-0.0108359996 0.0000000000 0.0824870020 1.0000000000
-0.0108470004 0.0000000000 0.0824849978 1.0000000000
-0.0108599998 0.0000000000 0.0824830011 1.0000000000
-0.0108700003 0.0000000000 0.0824749991 1.0000000000
-0.0108810002 0.0000000000 0.0824609995 1.0000000000
-0.0108909998 0.0000000000 0.0824500024 1.0000000000
-0.0109029999 0.0000000000 0.0824450031 1.0000000000
-0.0109150000 0.0000000000 0.0824429989 1.0000000000
-0.0109270001 0.0000000000 0.0824379995 1.0000000000
-0.0109369997 0.0000000000 0.0824270025 1.0000000000
-0.0109479995 0.0000000000 0.0824119970 1.0000000000
-0.0109569998 0.0000000000 0.0823979974 1.0000000000
-0.0109679997 0.0000000000 0.0823820010 1.0000000000
-0.0109799998 0.0000000000 0.0823889971 1.0000000000
-0.0109930001 0.0000000000 0.0823889971 1.0000000000
-0.0110020004 0.0000000000 0.0823720023 1.0000000000
-0.0110130003 0.0000000000 0.0823620036 1.0000000000
-0.0110240001 0.0000000000 0.0823590010 1.0000000000
-0.0110360002 0.0000000000 0.0823469982 1.0000000000
-0.0110449996 0.0000000000 0.0823300034 1.0000000000
-0.0110550001 0.0000000000 0.0823149979 1.0000000000
-0.0110660000 0.0000000000 0.0823099986 1.0000000000
-0.0110769998 0.0000000000 0.0822990015 1.0000000000
-0.0110879997 0.0000000000 0.0822879970 1.0000000000
-0.0110999998 0.0000000000 0.0822850019 1.0000000000
-0.0111100003 0.0000000000 0.0822779983 1.0000000000
-0.0111210002 0.0000000000 0.0822670013 1.0000000000
-0.0111309998 0.0000000000 0.0822509974 1.0000000000
-0.0111429999 0.0000000000 0.0822409987 1.0000000000
-0.0111539997 0.0000000000 0.0822419971 1.0000000000
-0.0111659998 0.0000000000 0.0822350010 1.0000000000
-0.0111769997 0.0000000000 0.0822310001 1.0000000000
-0.0111889997 0.0000000000 0.0822260007 1.0000000000
-0.0111990003 0.0000000000 0.0822150037 1.0000000000
-0.0112089999 0.0000000000 0.0822039992 1.0000000000
-0.0112199998 0.0000000000 0.0821909979 1.0000000000
-0.0112279998 0.0000000000 0.0821620002 1.0000000000
-0.0112359999 0.0000000000 0.0821240023 1.0000000000
-0.0112460004 0.0000000000 0.0821039975 1.0000000000
-0.0112560000 0.0000000000 0.0820979998 1.0000000000
-0.0112680001 0.0000000000 0.0820870027 1.0000000000
-0.0112790000 0.0000000000 0.0820849985 1.0000000000
-0.0112920003 0.0000000000 0.0820899978 1.0000000000
-0.0113030002 0.0000000000 0.0820880011 1.0000000000
-0.0113140000 0.0000000000 0.0820840001 1.0000000000
-0.0113260001 0.0000000000 0.0820849985 1.0000000000
-0.0113380002 0.0000000000 0.0820870027 1.0000000000
-0.0113500003 0.0000000000 0.0820820034 1.0000000000
-0.0113610001 0.0000000000 0.0820769966 1.0000000000
-0.0113730002 0.0000000000 0.0820809975 1.0000000000
-0.0113850003 0.0000000000 0.0820840001 1.0000000000
-0.0113970004 0.0000000000 0.0820820034 1.0000000000
-0.0114099998 0.0000000000 0.0820809975 1.0000000000
-0.0114209997 0.0000000000 0.0820859969 1.0000000000
-0.0114329997 0.0000000000 0.0820840001 1.0000000000
-0.0114449998 0.0000000000 0.0820799991 1.0000000000
-0.0114569999 0.0000000000 0.0820809975 1.0000000000
-0.0114690000 0.0000000000 0.0820880011 1.0000000000
-0.0114820004 0.0000000000 0.0820920020 1.0000000000
-0.0114940004 0.0000000000 0.0820920020 1.0000000000
-0.0115050003 0.0000000000 0.0820870027 1.0000000000
-0.0115170004 0.0000000000 0.0820880011 1.0000000000
-0.0115289995 0.0000000000 0.0820930004 1.0000000000
-0.0115409996 0.0000000000 0.0820920020 1.0000000000
-0.0115520004 0.0000000000 0.0820859969 1.0000000000
-0.0115639996 0.0000000000 0.0820840001 1.0000000000
-0.0115759997 0.0000000000 0.0820849985 1.0000000000
-0.0115890000 0.0000000000 0.0820910037 1.0000000000
-0.0116020003 0.0000000000 0.0820979998 1.0000000000
-0.0116140004 0.0000000000 0.0820999965 1.0000000000
-0.0116250003 0.0000000000 0.0820960030 1.0000000000
-0.0116370004 0.0000000000 0.0820989981 1.0000000000
-0.0116490005 0.0000000000 0.0820970014 1.0000000000
-0.0116600003 0.0000000000 0.0820889995 1.0000000000
-0.0116720004 0.0000000000 0.0820880011 1.0000000000
-0.0116839996 0.0000000000 0.0820960030 1.0000000000
-0.0116959997 0.0000000000 0.0820960030 1.0000000000
-0.0117090000 0.0000000000 0.0820979998 1.0000000000
-0.0117210001 0.0000000000 0.0821060017 1.0000000000
-0.0117330002 0.0000000000 0.0821070001 1.0000000000
-0.0117450003 0.0000000000 0.0821039975 1.0000000000
-0.0117570003 0.0000000000 0.0821050033 1.0000000000
-0.0117690004 0.0000000000 0.0821050033 1.0000000000
-0.0117800003 0.0000000000 0.0820970014 1.0000000000
-0.0117910001 0.0000000000 0.0820949972 1.0000000000
-0.0118039995 0.0000000000 0.0820999965 1.0000000000
-0.0118169999 0.0000000000 0.0821060017 1.0000000000
-0.0118279997 0.0000000000 0.0821039975 1.0000000000
-0.0118389996 0.0000000000 0.0820979998 1.0000000000
-0.0118519999 0.0000000000 0.0821039975 1.0000000000
-0.0118650002 0.0000000000 0.0821079984 1.0000000000
-0.0118760001 0.0000000000 0.0821029991 1.0000000000
-0.0118880002 0.0000000000 0.0820979998 1.0000000000
-0.0119000003 0.0000000000 0.0821039975 1.0000000000
-0.0119120004 0.0000000000 0.0821039975 1.0000000000
-0.0119230002 0.0000000000 0.0820989981 1.0000000000
-0.0119350003 0.0000000000 0.0820979998 1.0000000000
-0.0119460002 0.0000000000 0.0820979998 1.0000000000
-0.0119580003 0.0000000000 0.0820949972 1.0000000000
-0.0119700003 0.0000000000 0.0820989981 1.0000000000
-0.0119829997 0.0000000000 0.0820979998 1.0000000000
-0.0119939996 0.0000000000 0.0820999965 1.0000000000
-0.0120069999 0.0000000000 0.0821070001 1.0000000000
-0.0120190000 0.0000000000 0.0821039975 1.0000000000
-0.0120299999 0.0000000000 0.0820939988 1.0000000000
-0.0120409997 0.0000000000 0.0820920020 1.0000000000
-0.0120540000 0.0000000000 0.0820939988 1.0000000000
-0.0120660001 0.0000000000 0.0820989981 1.0000000000
-0.0120789995 0.0000000000 0.0821020007 1.0000000000
-0.0120900003 0.0000000000 0.0821060017 1.0000000000
-0.0121029997 0.0000000000 0.0821070001 1.0000000000
-0.0121149998 0.0000000000 0.0821140036 1.0000000000
-0.0121269999 0.0000000000 0.0821160004 1.0000000000
-0.0121390000 0.0000000000 0.0821119994 1.0000000000
-0.0121499998 0.0000000000 0.0821029991 1.0000000000
-0.0121609997 0.0000000000 0.0821020007 1.0000000000
-0.0121740000 0.0000000000 0.0821029991 1.0000000000
-0.0121849999 0.0000000000 0.0820989981 1.0000000000
-0.0121970000 0.0000000000 0.0820939988 1.0000000000
-0.0122079998 0.0000000000 0.0820930004 1.0000000000
-0.0122189997 0.0000000000 0.0820910037 1.0000000000
-0.0122320000 0.0000000000 0.0820939988 1.0000000000
-0.0122440001 0.0000000000 0.0820979998 1.0000000000
-0.0122560002 0.0000000000 0.0821010023 1.0000000000
-0.0122689996 0.0000000000 0.0821020007 1.0000000000
-0.0122809997 0.0000000000 0.0821050033 1.0000000000
-0.0122929998 0.0000000000 0.0821020007 1.0000000000
-0.0123030003 0.0000000000 0.0820979998 1.0000000000
-0.0123159997 0.0000000000 0.0820930004 1.0000000000
