VERSION 0.7
FIELDS x y z intensity
SIZE 4 4 4 4
TYPE F F F F
COUNT 1 1 1 1
WIDTH 1242
HEIGHT 1
VIEWPOINT 0.0 0.0 0.0 1.0 0.0 0.0 0.0
POINTS 1242
DATA ascii
0.0121799996 0.0000000000 0.0817739964 1.0000000000
0.0121680005 0.0000000000 0.0817739964 1.0000000000
0.0121560004 0.0000000000 0.0817750022 1.0000000000
0.0121440003 0.0000000000 0.0817769989 1.0000000000
0.0121330004 0.0000000000 0.0817750022 1.0000000000
0.0121210003 0.0000000000 0.0817729980 1.0000000000
0.0121080000 0.0000000000 0.0817700028 1.0000000000
0.0120949997 0.0000000000 0.0817670003 1.0000000000
0.0120850001 0.0000000000 0.0817710012 1.0000000000
0.0120719997 0.0000000000 0.0817750022 1.0000000000
0.0120620001 0.0000000000 0.0817760006 1.0000000000
0.0120489998 0.0000000000 0.0817660019 1.0000000000
0.0120369997 0.0000000000 0.0817629993 1.0000000000
0.0120259998 0.0000000000 0.0817710012 1.0000000000
0.0120139997 0.0000000000 0.0817719996 1.0000000000
0.0120010003 0.0000000000 0.0817670003 1.0000000000
0.0119909998 0.0000000000 0.0817760006 1.0000000000
0.0119789997 0.0000000000 0.0817869976 1.0000000000
0.0119690001 0.0000000000 0.0817850009 1.0000000000
0.0119550005 0.0000000000 0.0817769989 1.0000000000
0.0119439997 0.0000000000 0.0817750022 1.0000000000
0.0119310003 0.0000000000 0.0817719996 1.0000000000
0.0119190002 0.0000000000 0.0817700028 1.0000000000
0.0119080003 0.0000000000 0.0817700028 1.0000000000
0.0118960002 0.0000000000 0.0817700028 1.0000000000
0.0118829999 0.0000000000 0.0817650035 1.0000000000
0.0118709998 0.0000000000 0.0817629993 1.0000000000
0.0118600000 0.0000000000 0.0817650035 1.0000000000
0.0118479999 0.0000000000 0.0817670003 1.0000000000
0.0118349995 0.0000000000 0.0817679986 1.0000000000
0.0118239997 0.0000000000 0.0817660019 1.0000000000
0.0118119996 0.0000000000 0.0817679986 1.0000000000
0.0118020000 0.0000000000 0.0817779973 1.0000000000
0.0117910001 0.0000000000 0.0817809999 1.0000000000
0.0117779998 0.0000000000 0.0817769989 1.0000000000
0.0117650004 0.0000000000 0.0817760006 1.0000000000
0.0117549999 0.0000000000 0.0817779973 1.0000000000
0.0117410002 0.0000000000 0.0817729980 1.0000000000
0.0117309997 0.0000000000 0.0817729980 1.0000000000
0.0117180003 0.0000000000 0.0817739964 1.0000000000
0.0117079997 0.0000000000 0.0817769989 1.0000000000
0.0116959997 0.0000000000 0.0817800015 1.0000000000
0.0116849998 0.0000000000 0.0817819983 1.0000000000
0.0116729997 0.0000000000 0.0817819983 1.0000000000
0.0116609996 0.0000000000 0.0817809999 1.0000000000
0.0116490005 0.0000000000 0.0817779973 1.0000000000
0.0116370004 0.0000000000 0.0817790031 1.0000000000
0.0116229998 0.0000000000 0.0817760006 1.0000000000
0.0116119999 0.0000000000 0.0817679986 1.0000000000
0.0116010001 0.0000000000 0.0817729980 1.0000000000
0.0115900002 0.0000000000 0.0817829967 1.0000000000
0.0115769999 0.0000000000 0.0817829967 1.0000000000
0.0115660001 0.0000000000 0.0817769989 1.0000000000
0.0115529997 0.0000000000 0.0817729980 1.0000000000
0.0115409996 0.0000000000 0.0817700028 1.0000000000
0.0115299998 0.0000000000 0.0817719996 1.0000000000
0.0115189999 0.0000000000 0.0817800015 1.0000000000
0.0115080001 0.0000000000 0.0817859992 1.0000000000
0.0114949998 0.0000000000 0.0817819983 1.0000000000
0.0114820004 0.0000000000 0.0817760006 1.0000000000
0.0114709996 0.0000000000 0.0817760006 1.0000000000
0.0114590004 0.0000000000 0.0817719996 1.0000000000
0.0114470003 0.0000000000 0.0817689970 1.0000000000
0.0114340000 0.0000000000 0.0817729980 1.0000000000
0.0114240004 0.0000000000 0.0817769989 1.0000000000
0.0114129996 0.0000000000 0.0817809999 1.0000000000
0.0114010004 0.0000000000 0.0817829967 1.0000000000
0.0113890003 0.0000000000 0.0817779973 1.0000000000
0.0113760000 0.0000000000 0.0817729980 1.0000000000
0.0113639999 0.0000000000 0.0817710012 1.0000000000
0.0113519998 0.0000000000 0.0817700028 1.0000000000
0.0113399997 0.0000000000 0.0817729980 1.0000000000
0.0113289999 0.0000000000 0.0817779973 1.0000000000
0.0113180000 0.0000000000 0.0817800015 1.0000000000
0.0113070002 0.0000000000 0.0817840025 1.0000000000
0.0112950001 0.0000000000 0.0817869976 1.0000000000
0.0112819998 0.0000000000 0.0817790031 1.0000000000
0.0112690004 0.0000000000 0.0817729980 1.0000000000
0.0112589998 0.0000000000 0.0817790031 1.0000000000
0.0112480000 0.0000000000 0.0817880034 1.0000000000
0.0112359999 0.0000000000 0.0817900002 1.0000000000
0.0112229995 0.0000000000 0.0817880034 1.0000000000
0.0112129999 0.0000000000 0.0817880034 1.0000000000
0.0111999996 0.0000000000 0.0817890018 1.0000000000
0.0111900000 0.0000000000 0.0817949995 1.0000000000
0.0111790001 0.0000000000 0.0818039998 1.0000000000
0.0111670000 0.0000000000 0.0818009973 1.0000000000
0.0111520002 0.0000000000 0.0817900002 1.0000000000
0.0111410003 0.0000000000 0.0817869976 1.0000000000
0.0111309998 0.0000000000 0.0817949995 1.0000000000
0.0111199999 0.0000000000 0.0818020031 1.0000000000
0.0111069996 0.0000000000 0.0818080008 1.0000000000
0.0110980002 0.0000000000 0.0818160027 1.0000000000
0.0110860001 0.0000000000 0.0818250030 1.0000000000
0.0110759996 0.0000000000 0.0818340033 1.0000000000
0.0110660000 0.0000000000 0.0818450004 1.0000000000
0.0110550001 0.0000000000 0.0818540007 1.0000000000
0.0110419998 0.0000000000 0.0818590000 1.0000000000
0.0110330004 0.0000000000 0.0818699971 1.0000000000
0.0110219996 0.0000000000 0.0818829983 1.0000000000
0.0110130003 0.0000000000 0.0818990022 1.0000000000
0.0110029997 0.0000000000 0.0819140002 1.0000000000
0.0109909996 0.0000000000 0.0819159970 1.0000000000
0.0109780002 0.0000000000 0.0819149986 1.0000000000
0.0109689999 0.0000000000 0.0819310024 1.0000000000
0.0109580001 0.0000000000 0.0819429979 1.0000000000
0.0109489998 0.0000000000 0.0819550008 1.0000000000
0.0109379999 0.0000000000 0.0819640011 1.0000000000
0.0109270001 0.0000000000 0.0819709972 1.0000000000
0.0109150000 0.0000000000 0.0819749981 1.0000000000
0.0109029999 0.0000000000 0.0819730014 1.0000000000
0.0108939996 0.0000000000 0.0819900036 1.0000000000
0.0108859995 0.0000000000 0.0820249990 1.0000000000
0.0108740004 0.0000000000 0.0820380002 1.0000000000
0.0108629996 0.0000000000 0.0820360035 1.0000000000
0.0108519997 0.0000000000 0.0820399970 1.0000000000
0.0108430004 0.0000000000 0.0820629969 1.0000000000
0.0108319996 0.0000000000 0.0820809975 1.0000000000
0.0108220000 0.0000000000 0.0820859969 1.0000000000
0.0108080003 0.0000000000 0.0820790008 1.0000000000
0.0107969996 0.0000000000 0.0820780024 1.0000000000
0.0107869999 0.0000000000 0.0820920020 1.0000000000
0.0107770003 0.0000000000 0.0821050033 1.0000000000
0.0107650002 0.0000000000 0.0821200013 1.0000000000
0.0107570002 0.0000000000 0.0821380019 1.0000000000
0.0107460003 0.0000000000 0.0821449980 1.0000000000
0.0107349996 0.0000000000 0.0821520016 1.0000000000
0.0107239997 0.0000000000 0.0821620002 1.0000000000
0.0107129999 0.0000000000 0.0821769983 1.0000000000
0.0107030002 0.0000000000 0.0821880028 1.0000000000
0.0106920004 0.0000000000 0.0821980014 1.0000000000
0.0106809996 0.0000000000 0.0822049975 1.0000000000
0.0106670000 0.0000000000 0.0821850002 1.0000000000
0.0106549999 0.0000000000 0.0821869969 1.0000000000
0.0106440000 0.0000000000 0.0821940005 1.0000000000
0.0106319999 0.0000000000 0.0822089985 1.0000000000
0.0106229996 0.0000000000 0.0822239965 1.0000000000
0.0106119998 0.0000000000 0.0822419971 1.0000000000
0.0106039997 0.0000000000 0.0822649971 1.0000000000
0.0105940001 0.0000000000 0.0822940022 1.0000000000
0.0105799995 0.0000000000 0.0822620019 1.0000000000
0.0105729997 0.0000000000 0.0823070034 1.0000000000
0.0105619999 0.0000000000 0.0823139995 1.0000000000
0.0105450004 0.0000000000 0.0822770000 1.0000000000
0.0105370004 0.0000000000 0.0823080018 1.0000000000
0.0105280001 0.0000000000 0.0823350027 1.0000000000
0.0105189998 0.0000000000 0.0823580027 1.0000000000
0.0105060004 0.0000000000 0.0823649988 1.0000000000
0.0104970001 0.0000000000 0.0823749974 1.0000000000
0.0104850000 0.0000000000 0.0823820010 1.0000000000
0.0104750004 0.0000000000 0.0823889971 1.0000000000
0.0104620000 0.0000000000 0.0823950022 1.0000000000
0.0104529997 0.0000000000 0.0824059993 1.0000000000
0.0104400003 0.0000000000 0.0824130028 1.0000000000
0.0104310000 0.0000000000 0.0824239999 1.0000000000
0.0104189999 0.0000000000 0.0824289992 1.0000000000
0.0104080001 0.0000000000 0.0824330002 1.0000000000
0.0103970002 0.0000000000 0.0824450031 1.0000000000
0.0103869997 0.0000000000 0.0824590027 1.0000000000
0.0103749996 0.0000000000 0.0824759975 1.0000000000
0.0103660002 0.0000000000 0.0824889988 1.0000000000
0.0103550004 0.0000000000 0.0824989974 1.0000000000
0.0103439996 0.0000000000 0.0825069994 1.0000000000
0.0103320004 0.0000000000 0.0825159997 1.0000000000
0.0103230001 0.0000000000 0.0825349987 1.0000000000
0.0103129996 0.0000000000 0.0825629979 1.0000000000
0.0103030000 0.0000000000 0.0825669989 1.0000000000
0.0102899997 0.0000000000 0.0825690031 1.0000000000
0.0102800000 0.0000000000 0.0825780034 1.0000000000
0.0102700004 0.0000000000 0.0825930014 1.0000000000
0.0102589997 0.0000000000 0.0826060027 1.0000000000
0.0102469996 0.0000000000 0.0826129988 1.0000000000
0.0102370000 0.0000000000 0.0826200023 1.0000000000
0.0102239996 0.0000000000 0.0826200023 1.0000000000
0.0102140000 0.0000000000 0.0826260000 1.0000000000
0.0102019999 0.0000000000 0.0826380029 1.0000000000
0.0101929996 0.0000000000 0.0826599970 1.0000000000
0.0101819998 0.0000000000 0.0826639980 1.0000000000
0.0101709999 0.0000000000 0.0826739967 1.0000000000
0.0101589998 0.0000000000 0.0826829970 1.0000000000
0.0101490002 0.0000000000 0.0826949999 1.0000000000
0.0101380004 0.0000000000 0.0827179998 1.0000000000
0.0101269996 0.0000000000 0.0827170014 1.0000000000
0.0101159997 0.0000000000 0.0827220008 1.0000000000
0.0101060001 0.0000000000 0.0827400014 1.0000000000
0.0100959996 0.0000000000 0.0827689990 1.0000000000
0.0100870002 0.0000000000 0.0827869996 1.0000000000
0.0100750001 0.0000000000 0.0827950016 1.0000000000
0.0100649996 0.0000000000 0.0828050002 1.0000000000
0.0100539997 0.0000000000 0.0828199983 1.0000000000
0.0100440001 0.0000000000 0.0828320011 1.0000000000
0.0100320000 0.0000000000 0.0828370005 1.0000000000
0.0100210002 0.0000000000 0.0828450024 1.0000000000
0.0100090001 0.0000000000 0.0828569978 1.0000000000
0.0099989995 0.0000000000 0.0828669965 1.0000000000
0.0099870004 0.0000000000 0.0828749985 1.0000000000
0.0099769998 0.0000000000 0.0828799978 1.0000000000
0.0099649997 0.0000000000 0.0828810036 1.0000000000
0.0099529997 0.0000000000 0.0828860030 1.0000000000
0.0099430000 0.0000000000 0.0829100013 1.0000000000
0.0099259997 0.0000000000 0.0828559995 1.0000000000
0.0077240001 0.0000000000 0.0814300030 1.0000000000
0.0075969999 0.0000000000 0.0816180035 1.0000000000
0.0075090001 0.0000000000 0.0829240009 1.0000000000
0.0074970000 0.0000000000 0.0829169974 1.0000000000
0.0074840002 0.0000000000 0.0829109997 1.0000000000
0.0074720001 0.0000000000 0.0829069987 1.0000000000
0.0074590002 0.0000000000 0.0829050019 1.0000000000
0.0074470001 0.0000000000 0.0829019994 1.0000000000
0.0074339998 0.0000000000 0.0828960016 1.0000000000
0.0074220002 0.0000000000 0.0828860030 1.0000000000
0.0074069998 0.0000000000 0.0828709975 1.0000000000
0.0073960000 0.0000000000 0.0828619972 1.0000000000
0.0073830001 0.0000000000 0.0828469992 1.0000000000
0.0073690000 0.0000000000 0.0828310028 1.0000000000
0.0073560001 0.0000000000 0.0828230008 1.0000000000
0.0073440000 0.0000000000 0.0828140005 1.0000000000
0.0073290002 0.0000000000 0.0827990025 1.0000000000
0.0073179998 0.0000000000 0.0827900022 1.0000000000
0.0073050000 0.0000000000 0.0827789977 1.0000000000
0.0072909999 0.0000000000 0.0827580020 1.0000000000
0.0072780000 0.0000000000 0.0827440023 1.0000000000
0.0072650001 0.0000000000 0.0827319995 1.0000000000
0.0072499998 0.0000000000 0.0827179998 1.0000000000
0.0072389999 0.0000000000 0.0827099979 1.0000000000
0.0072249998 0.0000000000 0.0827030018 1.0000000000
0.0072130002 0.0000000000 0.0826930031 1.0000000000
0.0071999999 0.0000000000 0.0826800019 1.0000000000
0.0071870000 0.0000000000 0.0826670006 1.0000000000
0.0071729999 0.0000000000 0.0826470032 1.0000000000
0.0071600000 0.0000000000 0.0826319978 1.0000000000
0.0071459999 0.0000000000 0.0826219991 1.0000000000
0.0071350001 0.0000000000 0.0826129988 1.0000000000
0.0071220002 0.0000000000 0.0826039985 1.0000000000
0.0071089999 0.0000000000 0.0825909972 1.0000000000
0.0070949998 0.0000000000 0.0825800002 1.0000000000
0.0070839999 0.0000000000 0.0825719982 1.0000000000
0.0070710001 0.0000000000 0.0825579986 1.0000000000
0.0070580002 0.0000000000 0.0825460032 1.0000000000
0.0070440001 0.0000000000 0.0825370029 1.0000000000
0.0070320000 0.0000000000 0.0825280026 1.0000000000
0.0070179999 0.0000000000 0.0825159997 1.0000000000
0.0070059998 0.0000000000 0.0825060010 1.0000000000
0.0069929999 0.0000000000 0.0824820027 1.0000000000
0.0069789998 0.0000000000 0.0824669972 1.0000000000
0.0069670002 0.0000000000 0.0824550018 1.0000000000
0.0069539999 0.0000000000 0.0824479982 1.0000000000
0.0069419998 0.0000000000 0.0824469998 1.0000000000
0.0069289999 0.0000000000 0.0824420005 1.0000000000
0.0069160000 0.0000000000 0.0824330002 1.0000000000
0.0069040000 0.0000000000 0.0824259967 1.0000000000
0.0068910001 0.0000000000 0.0824119970 1.0000000000
0.0068780002 0.0000000000 0.0823919997 1.0000000000
0.0068629999 0.0000000000 0.0823770016 1.0000000000
0.0068509998 0.0000000000 0.0823599994 1.0000000000
0.0068359999 0.0000000000 0.0823369995 1.0000000000
0.0068239998 0.0000000000 0.0823210031 1.0000000000
0.0068100002 0.0000000000 0.0823080018 1.0000000000
0.0067989998 0.0000000000 0.0822980031 1.0000000000
0.0067860000 0.0000000000 0.0822860003 1.0000000000
0.0067730001 0.0000000000 0.0822770000 1.0000000000
0.0067590000 0.0000000000 0.0822649971 1.0000000000
0.0067469999 0.0000000000 0.0822490007 1.0000000000
0.0067329998 0.0000000000 0.0822409987 1.0000000000
0.0067220000 0.0000000000 0.0822430030 1.0000000000
0.0067099999 0.0000000000 0.0822340026 1.0000000000
0.0066960002 0.0000000000 0.0822129995 1.0000000000
0.0066809999 0.0000000000 0.0821959972 1.0000000000
0.0066709998 0.0000000000 0.0821940005 1.0000000000
0.0066579999 0.0000000000 0.0821909979 1.0000000000
0.0066450001 0.0000000000 0.0821779966 1.0000000000
0.0066320002 0.0000000000 0.0821650028 1.0000000000
0.0066189999 0.0000000000 0.0821480006 1.0000000000
0.0066060000 0.0000000000 0.0821319968 1.0000000000
0.0065930001 0.0000000000 0.0821160004 1.0000000000
0.0065779998 0.0000000000 0.0820989981 1.0000000000
0.0065669999 0.0000000000 0.0820899978 1.0000000000
0.0065529998 0.0000000000 0.0820809975 1.0000000000
0.0065410002 0.0000000000 0.0820659995 1.0000000000
0.0065279999 0.0000000000 0.0820510015 1.0000000000
0.0065150000 0.0000000000 0.0820410028 1.0000000000
0.0065009999 0.0000000000 0.0820330009 1.0000000000
0.0064909998 0.0000000000 0.0820339993 1.0000000000
0.0064770002 0.0000000000 0.0820289999 1.0000000000
0.0064659999 0.0000000000 0.0820180029 1.0000000000
0.0064510000 0.0000000000 0.0819939971 1.0000000000
0.0064389999 0.0000000000 0.0819849968 1.0000000000
0.0064269998 0.0000000000 0.0819770023 1.0000000000
0.0064139999 0.0000000000 0.0819659978 1.0000000000
0.0063999998 0.0000000000 0.0819550008 1.0000000000
0.0063880002 0.0000000000 0.0819419995 1.0000000000
0.0063749999 0.0000000000 0.0819350034 1.0000000000
0.0063629998 0.0000000000 0.0819239989 1.0000000000
0.0063479999 0.0000000000 0.0819019973 1.0000000000
0.0063370001 0.0000000000 0.0818950012 1.0000000000
0.0063250000 0.0000000000 0.0818900019 1.0000000000
0.0063120001 0.0000000000 0.0818829983 1.0000000000
0.0062989998 0.0000000000 0.0818760023 1.0000000000
0.0062879999 0.0000000000 0.0818720013 1.0000000000
0.0062739998 0.0000000000 0.0818649977 1.0000000000
0.0062630000 0.0000000000 0.0818590000 1.0000000000
0.0062489999 0.0000000000 0.0818480030 1.0000000000
0.0062380000 0.0000000000 0.0818490013 1.0000000000
0.0062250001 0.0000000000 0.0818499997 1.0000000000
0.0062139998 0.0000000000 0.0818440020 1.0000000000
0.0062010000 0.0000000000 0.0818419978 1.0000000000
0.0061900001 0.0000000000 0.0818499997 1.0000000000
0.0061789998 0.0000000000 0.0818559974 1.0000000000
0.0061670002 0.0000000000 0.0818590000 1.0000000000
0.0061539998 0.0000000000 0.0818559974 1.0000000000
0.0061420002 0.0000000000 0.0818480030 1.0000000000
0.0061289999 0.0000000000 0.0818419978 1.0000000000
0.0061180000 0.0000000000 0.0818430036 1.0000000000
0.0061050002 0.0000000000 0.0818409994 1.0000000000
0.0060939998 0.0000000000 0.0818450004 1.0000000000
0.0060810000 0.0000000000 0.0818480030 1.0000000000
0.0060700001 0.0000000000 0.0818490013 1.0000000000
0.0060580000 0.0000000000 0.0818440020 1.0000000000
0.0060459999 0.0000000000 0.0818409994 1.0000000000
0.0060339998 0.0000000000 0.0818459988 1.0000000000
0.0060220002 0.0000000000 0.0818469971 1.0000000000
0.0060100001 0.0000000000 0.0818469971 1.0000000000
0.0059980000 0.0000000000 0.0818499997 1.0000000000
0.0059850002 0.0000000000 0.0818549991 1.0000000000
0.0059750001 0.0000000000 0.0818559974 1.0000000000
0.0059610000 0.0000000000 0.0818499997 1.0000000000
0.0059500001 0.0000000000 0.0818450004 1.0000000000
0.0059380000 0.0000000000 0.0818450004 1.0000000000
0.0059260000 0.0000000000 0.0818559974 1.0000000000
0.0059130001 0.0000000000 0.0818580016 1.0000000000
0.0059019998 0.0000000000 0.0818549991 1.0000000000
0.0058889999 0.0000000000 0.0818559974 1.0000000000
0.0058789998 0.0000000000 0.0818590000 1.0000000000
0.0058650002 0.0000000000 0.0818559974 1.0000000000
0.0058539999 0.0000000000 0.0818549991 1.0000000000
0.0058419998 0.0000000000 0.0818530023 1.0000000000
0.0058300002 0.0000000000 0.0818549991 1.0000000000
0.0058169998 0.0000000000 0.0818559974 1.0000000000
0.0058060000 0.0000000000 0.0818519965 1.0000000000
0.0057939999 0.0000000000 0.0818459988 1.0000000000
0.0057819998 0.0000000000 0.0818499997 1.0000000000
0.0057689999 0.0000000000 0.0818570033 1.0000000000
0.0057580001 0.0000000000 0.0818559974 1.0000000000
0.0057440000 0.0000000000 0.0818469971 1.0000000000
0.0057339999 0.0000000000 0.0818490013 1.0000000000
0.0057219998 0.0000000000 0.0818549991 1.0000000000
0.0057100002 0.0000000000 0.0818590000 1.0000000000
0.0056969998 0.0000000000 0.0818570033 1.0000000000
0.0056860000 0.0000000000 0.0818559974 1.0000000000
0.0056730001 0.0000000000 0.0818580016 1.0000000000
0.0056619998 0.0000000000 0.0818590000 1.0000000000
0.0056489999 0.0000000000 0.0818559974 1.0000000000
0.0056380001 0.0000000000 0.0818540007 1.0000000000
0.0056260000 0.0000000000 0.0818530023 1.0000000000
0.0056139999 0.0000000000 0.0818540007 1.0000000000
0.0056010000 0.0000000000 0.0818549991 1.0000000000
0.0055900002 0.0000000000 0.0818549991 1.0000000000
0.0055780001 0.0000000000 0.0818540007 1.0000000000
0.0055660000 0.0000000000 0.0818549991 1.0000000000
0.0055530001 0.0000000000 0.0818559974 1.0000000000
0.0055419998 0.0000000000 0.0818590000 1.0000000000
0.0055300002 0.0000000000 0.0818620026 1.0000000000
0.0055180001 0.0000000000 0.0818630010 1.0000000000
0.0055049998 0.0000000000 0.0818660036 1.0000000000
0.0054939999 0.0000000000 0.0818680003 1.0000000000
0.0054810001 0.0000000000 0.0818639994 1.0000000000
0.0054700002 0.0000000000 0.0818620026 1.0000000000
0.0054580001 0.0000000000 0.0818599984 1.0000000000
0.0054460000 0.0000000000 0.0818580016 1.0000000000
0.0054330002 0.0000000000 0.0818530023 1.0000000000
0.0054210001 0.0000000000 0.0818499997 1.0000000000
0.0054080002 0.0000000000 0.0818540007 1.0000000000
0.0053980001 0.0000000000 0.0818599984 1.0000000000
0.0053860000 0.0000000000 0.0818599984 1.0000000000
0.0053739999 0.0000000000 0.0818630010 1.0000000000
0.0053619999 0.0000000000 0.0818689987 1.0000000000
0.0053500002 0.0000000000 0.0818680003 1.0000000000
0.0053369999 0.0000000000 0.0818660036 1.0000000000
0.0053260000 0.0000000000 0.0818729997 1.0000000000
0.0053130002 0.0000000000 0.0818710029 1.0000000000
0.0053019999 0.0000000000 0.0818670020 1.0000000000
0.0052880002 0.0000000000 0.0818630010 1.0000000000
0.0052780001 0.0000000000 0.0818670020 1.0000000000
0.0052649998 0.0000000000 0.0818739980 1.0000000000
0.0052540000 0.0000000000 0.0818739980 1.0000000000
0.0052419999 0.0000000000 0.0818680003 1.0000000000
0.0052299998 0.0000000000 0.0818670020 1.0000000000
0.0052160001 0.0000000000 0.0818639994 1.0000000000
0.0052049998 0.0000000000 0.0818620026 1.0000000000
0.0051930002 0.0000000000 0.0818609968 1.0000000000
0.0051810001 0.0000000000 0.0818590000 1.0000000000
0.0051690000 0.0000000000 0.0818609968 1.0000000000
0.0051569999 0.0000000000 0.0818630010 1.0000000000
0.0051440001 0.0000000000 0.0818620026 1.0000000000
0.0051330002 0.0000000000 0.0818680003 1.0000000000
0.0051199999 0.0000000000 0.0818699971 1.0000000000
0.0051090000 0.0000000000 0.0818620026 1.0000000000
0.0050960002 0.0000000000 0.0818530023 1.0000000000
0.0050849998 0.0000000000 0.0818580016 1.0000000000
0.0050720000 0.0000000000 0.0818639994 1.0000000000
0.0050610001 0.0000000000 0.0818670020 1.0000000000
0.0050479998 0.0000000000 0.0818639994 1.0000000000
0.0050369999 0.0000000000 0.0818670020 1.0000000000
0.0050240001 0.0000000000 0.0818649977 1.0000000000
0.0050130002 0.0000000000 0.0818609968 1.0000000000
0.0050010001 0.0000000000 0.0818590000 1.0000000000
0.0049890000 0.0000000000 0.0818570033 1.0000000000
0.0049749999 0.0000000000 0.0818559974 1.0000000000
0.0049649999 0.0000000000 0.0818559974 1.0000000000
0.0049510002 0.0000000000 0.0818540007 1.0000000000
0.0049410001 0.0000000000 0.0818590000 1.0000000000
0.0049279998 0.0000000000 0.0818649977 1.0000000000
0.0049170000 0.0000000000 0.0818680003 1.0000000000
0.0049040001 0.0000000000 0.0818620026 1.0000000000
0.0048929998 0.0000000000 0.0818649977 1.0000000000
0.0048799999 0.0000000000 0.0818789974 1.0000000000
0.0048699998 0.0000000000 0.0818869993 1.0000000000
0.0048560002 0.0000000000 0.0818789974 1.0000000000
0.0048449999 0.0000000000 0.0818720013 1.0000000000
0.0048320000 0.0000000000 0.0818689987 1.0000000000
0.0048210002 0.0000000000 0.0818670020 1.0000000000
0.0048070000 0.0000000000 0.0818620026 1.0000000000
0.0047960002 0.0000000000 0.0818609968 1.0000000000
0.0047840001 0.0000000000 0.0818599984 1.0000000000
0.0047729998 0.0000000000 0.0818649977 1.0000000000
0.0047599999 0.0000000000 0.0818729997 1.0000000000
0.0047490001 0.0000000000 0.0818749964 1.0000000000
0.0047360002 0.0000000000 0.0818689987 1.0000000000
0.0047249999 0.0000000000 0.0818729997 1.0000000000
0.0047120000 0.0000000000 0.0818729997 1.0000000000
0.0047010002 0.0000000000 0.0818689987 1.0000000000
0.0046890001 0.0000000000 0.0818689987 1.0000000000
0.0046770000 0.0000000000 0.0818699971 1.0000000000
0.0046629999 0.0000000000 0.0818689987 1.0000000000
0.0046529998 0.0000000000 0.0818699971 1.0000000000
0.0046390002 0.0000000000 0.0818689987 1.0000000000
0.0046290001 0.0000000000 0.0818710029 1.0000000000
0.0046170000 0.0000000000 0.0818770006 1.0000000000
0.0046049999 0.0000000000 0.0818829983 1.0000000000
0.0045920000 0.0000000000 0.0818810016 1.0000000000
0.0045810002 0.0000000000 0.0818760023 1.0000000000
0.0045670001 0.0000000000 0.0818699971 1.0000000000
0.0045560002 0.0000000000 0.0818680003 1.0000000000
0.0045429999 0.0000000000 0.0818689987 1.0000000000
0.0045320000 0.0000000000 0.0818739980 1.0000000000
0.0045200000 0.0000000000 0.0818749964 1.0000000000
0.0045079999 0.0000000000 0.0818749964 1.0000000000
0.0044959998 0.0000000000 0.0818749964 1.0000000000
0.0044840002 0.0000000000 0.0818770006 1.0000000000
0.0044720001 0.0000000000 0.0818779990 1.0000000000
0.0044600000 0.0000000000 0.0818800032 1.0000000000
0.0044479999 0.0000000000 0.0818839967 1.0000000000
0.0044359998 0.0000000000 0.0818789974 1.0000000000
0.0044229999 0.0000000000 0.0818699971 1.0000000000
0.0044109998 0.0000000000 0.0818680003 1.0000000000
0.0043990002 0.0000000000 0.0818720013 1.0000000000
0.0043879999 0.0000000000 0.0818839967 1.0000000000
0.0043750000 0.0000000000 0.0818860009 1.0000000000
0.0043640002 0.0000000000 0.0818839967 1.0000000000
0.0043520001 0.0000000000 0.0818770006 1.0000000000
0.0043390002 0.0000000000 0.0818729997 1.0000000000
0.0043270001 0.0000000000 0.0818749964 1.0000000000
0.0043159998 0.0000000000 0.0818829983 1.0000000000
0.0043029999 0.0000000000 0.0818869993 1.0000000000
0.0042909998 0.0000000000 0.0818829983 1.0000000000
0.0042790002 0.0000000000 0.0818820000 1.0000000000
0.0042670001 0.0000000000 0.0818860009 1.0000000000
0.0042550000 0.0000000000 0.0818860009 1.0000000000
0.0042429999 0.0000000000 0.0818839967 1.0000000000
0.0042309999 0.0000000000 0.0818770006 1.0000000000
0.0042190002 0.0000000000 0.0818720013 1.0000000000
0.0042070001 0.0000000000 0.0818770006 1.0000000000
0.0041950000 0.0000000000 0.0818820000 1.0000000000
0.0041830000 0.0000000000 0.0818860009 1.0000000000
0.0041709999 0.0000000000 0.0818869993 1.0000000000
0.0041589998 0.0000000000 0.0818829983 1.0000000000
0.0041470001 0.0000000000 0.0818810016 1.0000000000
0.0041330000 0.0000000000 0.0818800032 1.0000000000
0.0041220002 0.0000000000 0.0818779990 1.0000000000
0.0041100001 0.0000000000 0.0818739980 1.0000000000
0.0040980000 0.0000000000 0.0818710029 1.0000000000
0.0040859999 0.0000000000 0.0818739980 1.0000000000
0.0040739998 0.0000000000 0.0818760023 1.0000000000
0.0040610000 0.0000000000 0.0818720013 1.0000000000
0.0040500001 0.0000000000 0.0818729997 1.0000000000
0.0040380000 0.0000000000 0.0818770006 1.0000000000
0.0040259999 0.0000000000 0.0818749964 1.0000000000
0.0040130001 0.0000000000 0.0818770006 1.0000000000
0.0040020002 0.0000000000 0.0818820000 1.0000000000
0.0039889999 0.0000000000 0.0818800032 1.0000000000
0.0039780000 0.0000000000 0.0818800032 1.0000000000
0.0039659999 0.0000000000 0.0818839967 1.0000000000
0.0039539998 0.0000000000 0.0818890035 1.0000000000
0.0039410000 0.0000000000 0.0818879977 1.0000000000
0.0039300001 0.0000000000 0.0818829983 1.0000000000
0.0039160000 0.0000000000 0.0818800032 1.0000000000
0.0039049999 0.0000000000 0.0818820000 1.0000000000
0.0038920001 0.0000000000 0.0818779990 1.0000000000
0.0038810000 0.0000000000 0.0818789974 1.0000000000
0.0038689999 0.0000000000 0.0818820000 1.0000000000
0.0038570000 0.0000000000 0.0818789974 1.0000000000
0.0038449999 0.0000000000 0.0818770006 1.0000000000
0.0038330001 0.0000000000 0.0818800032 1.0000000000
0.0038200000 0.0000000000 0.0818789974 1.0000000000
0.0038089999 0.0000000000 0.0818770006 1.0000000000
0.0037970000 0.0000000000 0.0818829983 1.0000000000
0.0037849999 0.0000000000 0.0818879977 1.0000000000
0.0037730001 0.0000000000 0.0818910003 1.0000000000
0.0037610000 0.0000000000 0.0818879977 1.0000000000
0.0037489999 0.0000000000 0.0818850026 1.0000000000
0.0037370001 0.0000000000 0.0818860009 1.0000000000
0.0037229999 0.0000000000 0.0818839967 1.0000000000
0.0037120001 0.0000000000 0.0818850026 1.0000000000
0.0036990000 0.0000000000 0.0818800032 1.0000000000
0.0036879999 0.0000000000 0.0818779990 1.0000000000
0.0036750000 0.0000000000 0.0818779990 1.0000000000
0.0036640000 0.0000000000 0.0818820000 1.0000000000
0.0036510001 0.0000000000 0.0818779990 1.0000000000
0.0036400000 0.0000000000 0.0818770006 1.0000000000
0.0036269999 0.0000000000 0.0818779990 1.0000000000
0.0036160001 0.0000000000 0.0818829983 1.0000000000
0.0036040000 0.0000000000 0.0818820000 1.0000000000
0.0035920001 0.0000000000 0.0818779990 1.0000000000
0.0035780000 0.0000000000 0.0818770006 1.0000000000
0.0035679999 0.0000000000 0.0818879977 1.0000000000
0.0035550001 0.0000000000 0.0818929970 1.0000000000
0.0035440000 0.0000000000 0.0818860009 1.0000000000
0.0035310001 0.0000000000 0.0818839967 1.0000000000
0.0035200000 0.0000000000 0.0818879977 1.0000000000
0.0035059999 0.0000000000 0.0818869993 1.0000000000
0.0034950001 0.0000000000 0.0818900019 1.0000000000
0.0034820000 0.0000000000 0.0818929970 1.0000000000
0.0034709999 0.0000000000 0.0818929970 1.0000000000
0.0034580000 0.0000000000 0.0818860009 1.0000000000
0.0034469999 0.0000000000 0.0818829983 1.0000000000
0.0034350001 0.0000000000 0.0818890035 1.0000000000
0.0034230000 0.0000000000 0.0818979964 1.0000000000
0.0034099999 0.0000000000 0.0818950012 1.0000000000
0.0033990000 0.0000000000 0.0818919986 1.0000000000
0.0033859999 0.0000000000 0.0818940029 1.0000000000
0.0033750001 0.0000000000 0.0818929970 1.0000000000
0.0033630000 0.0000000000 0.0818929970 1.0000000000
0.0033509999 0.0000000000 0.0818950012 1.0000000000
0.0033380000 0.0000000000 0.0818929970 1.0000000000
0.0033270000 0.0000000000 0.0818910003 1.0000000000
0.0033140001 0.0000000000 0.0818890035 1.0000000000
0.0033020000 0.0000000000 0.0818910003 1.0000000000
0.0032899999 0.0000000000 0.0818910003 1.0000000000
0.0032780000 0.0000000000 0.0818869993 1.0000000000
0.0032649999 0.0000000000 0.0818850026 1.0000000000
0.0032540001 0.0000000000 0.0818869993 1.0000000000
0.0032410000 0.0000000000 0.0818860009 1.0000000000
0.0032299999 0.0000000000 0.0818850026 1.0000000000
0.0032180001 0.0000000000 0.0818810016 1.0000000000
0.0032060000 0.0000000000 0.0818829983 1.0000000000
0.0031930001 0.0000000000 0.0818869993 1.0000000000
0.0031820000 0.0000000000 0.0818869993 1.0000000000
0.0031679999 0.0000000000 0.0818860009 1.0000000000
0.0031580001 0.0000000000 0.0818890035 1.0000000000
0.0031460000 0.0000000000 0.0818890035 1.0000000000
0.0031330001 0.0000000000 0.0818860009 1.0000000000
0.0031200000 0.0000000000 0.0818869993 1.0000000000
0.0031089999 0.0000000000 0.0818929970 1.0000000000
0.0030970001 0.0000000000 0.0818919986 1.0000000000
0.0030850000 0.0000000000 0.0818890035 1.0000000000
0.0030720001 0.0000000000 0.0818850026 1.0000000000
0.0030610000 0.0000000000 0.0818919986 1.0000000000
0.0030479999 0.0000000000 0.0819019973 1.0000000000
0.0030370001 0.0000000000 0.0819059983 1.0000000000
0.0030240000 0.0000000000 0.0819009990 1.0000000000
0.0030129999 0.0000000000 0.0819000006 1.0000000000
0.0030010000 0.0000000000 0.0818979964 1.0000000000
0.0029889999 0.0000000000 0.0818950012 1.0000000000
0.0029760001 0.0000000000 0.0818950012 1.0000000000
0.0029650000 0.0000000000 0.0818979964 1.0000000000
0.0029509999 0.0000000000 0.0818929970 1.0000000000
0.0029400000 0.0000000000 0.0818929970 1.0000000000
0.0029269999 0.0000000000 0.0818919986 1.0000000000
0.0029160001 0.0000000000 0.0818940029 1.0000000000
0.0029030000 0.0000000000 0.0818919986 1.0000000000
0.0028919999 0.0000000000 0.0818890035 1.0000000000
0.0028800000 0.0000000000 0.0818900019 1.0000000000
0.0028680000 0.0000000000 0.0818959996 1.0000000000
0.0028560001 0.0000000000 0.0818969980 1.0000000000
0.0028440000 0.0000000000 0.0818919986 1.0000000000
0.0028319999 0.0000000000 0.0818910003 1.0000000000
0.0028200001 0.0000000000 0.0818959996 1.0000000000
0.0028070000 0.0000000000 0.0819030032 1.0000000000
0.0027960001 0.0000000000 0.0819080025 1.0000000000
0.0027830000 0.0000000000 0.0819090009 1.0000000000
0.0027719999 0.0000000000 0.0819159970 1.0000000000
0.0027590001 0.0000000000 0.0819109976 1.0000000000
0.0027470000 0.0000000000 0.0819009990 1.0000000000
0.0027340001 0.0000000000 0.0818940029 1.0000000000
0.0027230000 0.0000000000 0.0818919986 1.0000000000
0.0027099999 0.0000000000 0.0818919986 1.0000000000
0.0026990001 0.0000000000 0.0818929970 1.0000000000
0.0026870000 0.0000000000 0.0818990022 1.0000000000
0.0026750001 0.0000000000 0.0819040015 1.0000000000
0.0026630000 0.0000000000 0.0819000006 1.0000000000
0.0026499999 0.0000000000 0.0818990022 1.0000000000
0.0026390001 0.0000000000 0.0819090009 1.0000000000
0.0026270000 0.0000000000 0.0819099993 1.0000000000
0.0026130001 0.0000000000 0.0818950012 1.0000000000
0.0026020000 0.0000000000 0.0818919986 1.0000000000
0.0025899999 0.0000000000 0.0818990022 1.0000000000
0.0025780001 0.0000000000 0.0819030032 1.0000000000
0.0025650000 0.0000000000 0.0819009990 1.0000000000
0.0025539999 0.0000000000 0.0818990022 1.0000000000
0.0025410000 0.0000000000 0.0819030032 1.0000000000
0.0025299999 0.0000000000 0.0819310024 1.0000000000
0.0025180001 0.0000000000 0.0819440037 1.0000000000
0.0025070000 0.0000000000 0.0819640011 1.0000000000
0.0024949999 0.0000000000 0.0820060000 1.0000000000
0.0024840001 0.0000000000 0.0820150003 1.0000000000
0.0024720000 0.0000000000 0.0820100009 1.0000000000
0.0024600001 0.0000000000 0.0820150003 1.0000000000
0.0024470000 0.0000000000 0.0820309967 1.0000000000
0.0024369999 0.0000000000 0.0820460021 1.0000000000
0.0024250001 0.0000000000 0.0820550025 1.0000000000
0.0024130000 0.0000000000 0.0820780024 1.0000000000
0.0024019999 0.0000000000 0.0820979998 1.0000000000
0.0023900000 0.0000000000 0.0821039975 1.0000000000
0.0023769999 0.0000000000 0.0821100026 1.0000000000
0.0023660001 0.0000000000 0.0821140036 1.0000000000
-0.0025549999 0.0000000000 0.0821319968 1.0000000000
-0.0025670000 0.0000000000 0.0821330026 1.0000000000
-0.0025790001 0.0000000000 0.0821280032 1.0000000000
-0.0025909999 0.0000000000 0.0821150020 1.0000000000
-0.0026030000 0.0000000000 0.0821129978 1.0000000000
-0.0026149999 0.0000000000 0.0821079984 1.0000000000
-0.0026270000 0.0000000000 0.0820899978 1.0000000000
-0.0026390001 0.0000000000 0.0820809975 1.0000000000
-0.0026509999 0.0000000000 0.0820759982 1.0000000000
-0.0026620000 0.0000000000 0.0820619985 1.0000000000
-0.0026740001 0.0000000000 0.0820539966 1.0000000000
-0.0026860000 0.0000000000 0.0820479989 1.0000000000
-0.0026980001 0.0000000000 0.0820360035 1.0000000000
-0.0027109999 0.0000000000 0.0820249990 1.0000000000
-0.0027220000 0.0000000000 0.0820199996 1.0000000000
-0.0027350001 0.0000000000 0.0820069984 1.0000000000
-0.0027449999 0.0000000000 0.0819969997 1.0000000000
-0.0027580000 0.0000000000 0.0819910020 1.0000000000
-0.0027689999 0.0000000000 0.0819830000 1.0000000000
-0.0027810000 0.0000000000 0.0819699988 1.0000000000
-0.0027930001 0.0000000000 0.0819690004 1.0000000000
-0.0028059999 0.0000000000 0.0819659978 1.0000000000
-0.0028170000 0.0000000000 0.0819640011 1.0000000000
-0.0028299999 0.0000000000 0.0819630027 1.0000000000
-0.0028410000 0.0000000000 0.0819630027 1.0000000000
-0.0028530001 0.0000000000 0.0819600001 1.0000000000
-0.0028649999 0.0000000000 0.0819590017 1.0000000000
-0.0028790000 0.0000000000 0.0819619969 1.0000000000
-0.0028899999 0.0000000000 0.0819699988 1.0000000000
-0.0029020000 0.0000000000 0.0819720030 1.0000000000
-0.0029140001 0.0000000000 0.0819640011 1.0000000000
-0.0029269999 0.0000000000 0.0819550008 1.0000000000
-0.0029380000 0.0000000000 0.0819600001 1.0000000000
-0.0029509999 0.0000000000 0.0819709972 1.0000000000
-0.0029630000 0.0000000000 0.0819759965 1.0000000000
-0.0029750001 0.0000000000 0.0819720030 1.0000000000
-0.0029869999 0.0000000000 0.0819690004 1.0000000000
-0.0029990000 0.0000000000 0.0819690004 1.0000000000
-0.0030110001 0.0000000000 0.0819699988 1.0000000000
-0.0030230000 0.0000000000 0.0819709972 1.0000000000
-0.0030350001 0.0000000000 0.0819739997 1.0000000000
-0.0030479999 0.0000000000 0.0819730014 1.0000000000
-0.0030590000 0.0000000000 0.0819699988 1.0000000000
-0.0030710001 0.0000000000 0.0819709972 1.0000000000
-0.0030830000 0.0000000000 0.0819770023 1.0000000000
-0.0030960001 0.0000000000 0.0819770023 1.0000000000
-0.0031079999 0.0000000000 0.0819749981 1.0000000000
-0.0031200000 0.0000000000 0.0819770023 1.0000000000
-0.0031320001 0.0000000000 0.0819770023 1.0000000000
-0.0031440000 0.0000000000 0.0819709972 1.0000000000
-0.0031560000 0.0000000000 0.0819709972 1.0000000000
-0.0031689999 0.0000000000 0.0819709972 1.0000000000
-0.0031800000 0.0000000000 0.0819720030 1.0000000000
-0.0031930001 0.0000000000 0.0819749981 1.0000000000
-0.0032039999 0.0000000000 0.0819810033 1.0000000000
-0.0032170000 0.0000000000 0.0819799975 1.0000000000
-0.0032279999 0.0000000000 0.0819749981 1.0000000000
-0.0032400000 0.0000000000 0.0819709972 1.0000000000
-0.0032530001 0.0000000000 0.0819730014 1.0000000000
-0.0032649999 0.0000000000 0.0819770023 1.0000000000
-0.0032770000 0.0000000000 0.0819789991 1.0000000000
-0.0032899999 0.0000000000 0.0819799975 1.0000000000
-0.0033010000 0.0000000000 0.0819810033 1.0000000000
-0.0033130001 0.0000000000 0.0819780007 1.0000000000
-0.0033249999 0.0000000000 0.0819759965 1.0000000000
-0.0033370000 0.0000000000 0.0819780007 1.0000000000
-0.0033489999 0.0000000000 0.0819770023 1.0000000000
-0.0033610000 0.0000000000 0.0819770023 1.0000000000
-0.0033730001 0.0000000000 0.0819799975 1.0000000000
-0.0033869999 0.0000000000 0.0819820017 1.0000000000
-0.0033980000 0.0000000000 0.0819830000 1.0000000000
-0.0034109999 0.0000000000 0.0819810033 1.0000000000
-0.0034220000 0.0000000000 0.0819799975 1.0000000000
-0.0034340001 0.0000000000 0.0819789991 1.0000000000
-0.0034459999 0.0000000000 0.0819780007 1.0000000000
-0.0034590000 0.0000000000 0.0819730014 1.0000000000
-0.0034700001 0.0000000000 0.0819720030 1.0000000000
-0.0034830000 0.0000000000 0.0819759965 1.0000000000
-0.0034940001 0.0000000000 0.0819820017 1.0000000000
-0.0035069999 0.0000000000 0.0819849968 1.0000000000
-0.0035180000 0.0000000000 0.0819839984 1.0000000000
-0.0035300001 0.0000000000 0.0819799975 1.0000000000
-0.0035420000 0.0000000000 0.0819780007 1.0000000000
-0.0035550001 0.0000000000 0.0819789991 1.0000000000
-0.0035669999 0.0000000000 0.0819780007 1.0000000000
-0.0035780000 0.0000000000 0.0819730014 1.0000000000
-0.0035900001 0.0000000000 0.0819699988 1.0000000000
-0.0036030000 0.0000000000 0.0819709972 1.0000000000
-0.0036150001 0.0000000000 0.0819699988 1.0000000000
-0.0036269999 0.0000000000 0.0819640011 1.0000000000
-0.0036380000 0.0000000000 0.0819630027 1.0000000000
-0.0036510001 0.0000000000 0.0819619969 1.0000000000
-0.0036630000 0.0000000000 0.0819659978 1.0000000000
-0.0036750000 0.0000000000 0.0819720030 1.0000000000
-0.0036869999 0.0000000000 0.0819720030 1.0000000000
-0.0036990000 0.0000000000 0.0819720030 1.0000000000
-0.0037110001 0.0000000000 0.0819749981 1.0000000000
-0.0037240000 0.0000000000 0.0819749981 1.0000000000
-0.0037350000 0.0000000000 0.0819699988 1.0000000000
-0.0037469999 0.0000000000 0.0819699988 1.0000000000
-0.0037600000 0.0000000000 0.0819780007 1.0000000000
-0.0037720001 0.0000000000 0.0819820017 1.0000000000
-0.0037839999 0.0000000000 0.0819789991 1.0000000000
-0.0037960000 0.0000000000 0.0819799975 1.0000000000
-0.0038079999 0.0000000000 0.0819839984 1.0000000000
-0.0038210000 0.0000000000 0.0819839984 1.0000000000
-0.0038320001 0.0000000000 0.0819849968 1.0000000000
-0.0038449999 0.0000000000 0.0819830000 1.0000000000
-0.0038570000 0.0000000000 0.0819839984 1.0000000000
-0.0038699999 0.0000000000 0.0819860026 1.0000000000
-0.0038810000 0.0000000000 0.0819889978 1.0000000000
-0.0038930001 0.0000000000 0.0819889978 1.0000000000
-0.0039049999 0.0000000000 0.0819860026 1.0000000000
-0.0039180000 0.0000000000 0.0819820017 1.0000000000
-0.0039289999 0.0000000000 0.0819839984 1.0000000000
-0.0039410000 0.0000000000 0.0819879994 1.0000000000
-0.0039530001 0.0000000000 0.0819900036 1.0000000000
-0.0039650002 0.0000000000 0.0819870010 1.0000000000
-0.0039769998 0.0000000000 0.0819879994 1.0000000000
-0.0039900001 0.0000000000 0.0819889978 1.0000000000
-0.0040020002 0.0000000000 0.0819870010 1.0000000000
-0.0040139998 0.0000000000 0.0819839984 1.0000000000
-0.0040259999 0.0000000000 0.0819849968 1.0000000000
-0.0040380000 0.0000000000 0.0819820017 1.0000000000
-0.0040489999 0.0000000000 0.0819770023 1.0000000000
-0.0040620002 0.0000000000 0.0819799975 1.0000000000
-0.0040739998 0.0000000000 0.0819820017 1.0000000000
-0.0040870002 0.0000000000 0.0819780007 1.0000000000
-0.0040980000 0.0000000000 0.0819789991 1.0000000000
-0.0041109999 0.0000000000 0.0819839984 1.0000000000
-0.0041220002 0.0000000000 0.0819860026 1.0000000000
-0.0041350001 0.0000000000 0.0819820017 1.0000000000
-0.0041459999 0.0000000000 0.0819820017 1.0000000000
-0.0041589998 0.0000000000 0.0819770023 1.0000000000
-0.0041700001 0.0000000000 0.0819770023 1.0000000000
-0.0041830000 0.0000000000 0.0819879994 1.0000000000
-0.0041950000 0.0000000000 0.0819910020 1.0000000000
-0.0042079999 0.0000000000 0.0819830000 1.0000000000
-0.0042190002 0.0000000000 0.0819830000 1.0000000000
-0.0042320001 0.0000000000 0.0819860026 1.0000000000
-0.0042429999 0.0000000000 0.0819879994 1.0000000000
-0.0042550000 0.0000000000 0.0819900036 1.0000000000
-0.0042670001 0.0000000000 0.0819910020 1.0000000000
-0.0042800000 0.0000000000 0.0819860026 1.0000000000
-0.0042909998 0.0000000000 0.0819789991 1.0000000000
-0.0043040002 0.0000000000 0.0819759965 1.0000000000
-0.0043150000 0.0000000000 0.0819820017 1.0000000000
-0.0043279999 0.0000000000 0.0819860026 1.0000000000
-0.0043400000 0.0000000000 0.0819849968 1.0000000000
-0.0043509998 0.0000000000 0.0819799975 1.0000000000
-0.0043629999 0.0000000000 0.0819799975 1.0000000000
-0.0043770000 0.0000000000 0.0819830000 1.0000000000
-0.0043879999 0.0000000000 0.0819870010 1.0000000000
-0.0044010002 0.0000000000 0.0819870010 1.0000000000
-0.0044120001 0.0000000000 0.0819860026 1.0000000000
-0.0044240002 0.0000000000 0.0819839984 1.0000000000
-0.0044359998 0.0000000000 0.0819849968 1.0000000000
-0.0044490001 0.0000000000 0.0819860026 1.0000000000
-0.0044600000 0.0000000000 0.0819900036 1.0000000000
-0.0044729998 0.0000000000 0.0819870010 1.0000000000
-0.0044849999 0.0000000000 0.0819889978 1.0000000000
-0.0044979998 0.0000000000 0.0819920003 1.0000000000
-0.0045090001 0.0000000000 0.0819969997 1.0000000000
-0.0045210002 0.0000000000 0.0819979981 1.0000000000
-0.0045329998 0.0000000000 0.0819969997 1.0000000000
-0.0045449999 0.0000000000 0.0819989964 1.0000000000
-0.0045579998 0.0000000000 0.0820010006 1.0000000000
-0.0045699999 0.0000000000 0.0819979981 1.0000000000
-0.0045820000 0.0000000000 0.0820000023 1.0000000000
-0.0045949998 0.0000000000 0.0820019990 1.0000000000
-0.0046060001 0.0000000000 0.0819979981 1.0000000000
-0.0046170000 0.0000000000 0.0819900036 1.0000000000
-0.0046290001 0.0000000000 0.0819879994 1.0000000000
-0.0046420000 0.0000000000 0.0819889978 1.0000000000
-0.0046540000 0.0000000000 0.0819870010 1.0000000000
-0.0046649999 0.0000000000 0.0819830000 1.0000000000
-0.0046770000 0.0000000000 0.0819820017 1.0000000000
-0.0046910001 0.0000000000 0.0819839984 1.0000000000
-0.0047019999 0.0000000000 0.0819910020 1.0000000000
-0.0047149998 0.0000000000 0.0819960013 1.0000000000
-0.0047260001 0.0000000000 0.0819979981 1.0000000000
-0.0047390000 0.0000000000 0.0819960013 1.0000000000
-0.0047499998 0.0000000000 0.0819969997 1.0000000000
-0.0047630002 0.0000000000 0.0820010006 1.0000000000
-0.0047749998 0.0000000000 0.0820010006 1.0000000000
-0.0047869999 0.0000000000 0.0819969997 1.0000000000
-0.0047990000 0.0000000000 0.0820000023 1.0000000000
-0.0048110001 0.0000000000 0.0820019990 1.0000000000
-0.0048230002 0.0000000000 0.0819989964 1.0000000000
-0.0048360000 0.0000000000 0.0819950029 1.0000000000
-0.0048469999 0.0000000000 0.0820000023 1.0000000000
-0.0048600002 0.0000000000 0.0820050016 1.0000000000
-0.0048710001 0.0000000000 0.0820050016 1.0000000000
-0.0048830002 0.0000000000 0.0820019990 1.0000000000
-0.0048949998 0.0000000000 0.0820050016 1.0000000000
-0.0049080001 0.0000000000 0.0820040032 1.0000000000
-0.0049190000 0.0000000000 0.0820019990 1.0000000000
-0.0049310001 0.0000000000 0.0820019990 1.0000000000
-0.0049439999 0.0000000000 0.0820040032 1.0000000000
-0.0049560000 0.0000000000 0.0820060000 1.0000000000
-0.0049680001 0.0000000000 0.0820069984 1.0000000000
-0.0049800002 0.0000000000 0.0820019990 1.0000000000
-0.0049910001 0.0000000000 0.0819920003 1.0000000000
-0.0050039999 0.0000000000 0.0819860026 1.0000000000
-0.0050149998 0.0000000000 0.0819939971 1.0000000000
-0.0050289999 0.0000000000 0.0820019990 1.0000000000
-0.0050400002 0.0000000000 0.0820000023 1.0000000000
-0.0050519998 0.0000000000 0.0819939971 1.0000000000
-0.0050639999 0.0000000000 0.0819989964 1.0000000000
-0.0050769998 0.0000000000 0.0820060000 1.0000000000
-0.0050880001 0.0000000000 0.0820119977 1.0000000000
-0.0051010000 0.0000000000 0.0820140019 1.0000000000
-0.0051130001 0.0000000000 0.0820119977 1.0000000000
-0.0051239999 0.0000000000 0.0820100009 1.0000000000
-0.0051369998 0.0000000000 0.0820109993 1.0000000000
-0.0051489999 0.0000000000 0.0820069984 1.0000000000
-0.0051600002 0.0000000000 0.0820050016 1.0000000000
-0.0051730000 0.0000000000 0.0820069984 1.0000000000
-0.0051850001 0.0000000000 0.0820069984 1.0000000000
-0.0051970002 0.0000000000 0.0820050016 1.0000000000
-0.0052089998 0.0000000000 0.0820069984 1.0000000000
-0.0052209999 0.0000000000 0.0820050016 1.0000000000
-0.0052319998 0.0000000000 0.0820010006 1.0000000000
-0.0052439999 0.0000000000 0.0820019990 1.0000000000
-0.0052570002 0.0000000000 0.0820069984 1.0000000000
-0.0052689998 0.0000000000 0.0820090026 1.0000000000
-0.0052809999 0.0000000000 0.0820100009 1.0000000000
-0.0052930000 0.0000000000 0.0820119977 1.0000000000
-0.0053050001 0.0000000000 0.0820100009 1.0000000000
-0.0053180000 0.0000000000 0.0820029974 1.0000000000
-0.0053289998 0.0000000000 0.0819979981 1.0000000000
-0.0053409999 0.0000000000 0.0819960013 1.0000000000
-0.0053530000 0.0000000000 0.0820000023 1.0000000000
-0.0053650001 0.0000000000 0.0820029974 1.0000000000
-0.0053770002 0.0000000000 0.0820019990 1.0000000000
-0.0053889998 0.0000000000 0.0820040032 1.0000000000
-0.0054020002 0.0000000000 0.0820100009 1.0000000000
-0.0054130000 0.0000000000 0.0820090026 1.0000000000
-0.0054250001 0.0000000000 0.0820069984 1.0000000000
-0.0054380000 0.0000000000 0.0820109993 1.0000000000
-0.0054500001 0.0000000000 0.0820140019 1.0000000000
-0.0054629999 0.0000000000 0.0820130035 1.0000000000
-0.0054739998 0.0000000000 0.0820140019 1.0000000000
-0.0054870001 0.0000000000 0.0820150003 1.0000000000
-0.0054980000 0.0000000000 0.0820119977 1.0000000000
-0.0055100000 0.0000000000 0.0820040032 1.0000000000
-0.0055220001 0.0000000000 0.0820069984 1.0000000000
-0.0055350000 0.0000000000 0.0820119977 1.0000000000
-0.0055470001 0.0000000000 0.0820180029 1.0000000000
-0.0055590002 0.0000000000 0.0820199996 1.0000000000
-0.0055700000 0.0000000000 0.0820159987 1.0000000000
-0.0055820001 0.0000000000 0.0820119977 1.0000000000
-0.0055940002 0.0000000000 0.0820130035 1.0000000000
-0.0056070001 0.0000000000 0.0820040032 1.0000000000
-0.0056179999 0.0000000000 0.0819989964 1.0000000000
-0.0056300000 0.0000000000 0.0820040032 1.0000000000
-0.0056420001 0.0000000000 0.0820090026 1.0000000000
-0.0056550000 0.0000000000 0.0820050016 1.0000000000
-0.0056659998 0.0000000000 0.0820069984 1.0000000000
-0.0056799999 0.0000000000 0.0820150003 1.0000000000
-0.0056909998 0.0000000000 0.0820219964 1.0000000000
-0.0057029999 0.0000000000 0.0820199996 1.0000000000
-0.0057150000 0.0000000000 0.0820130035 1.0000000000
-0.0057270001 0.0000000000 0.0820060000 1.0000000000
-0.0057379999 0.0000000000 0.0820050016 1.0000000000
-0.0057500000 0.0000000000 0.0820029974 1.0000000000
-0.0057629999 0.0000000000 0.0820069984 1.0000000000
-0.0057750000 0.0000000000 0.0820130035 1.0000000000
-0.0057870001 0.0000000000 0.0820140019 1.0000000000
-0.0057990002 0.0000000000 0.0820130035 1.0000000000
-0.0058109998 0.0000000000 0.0820119977 1.0000000000
-0.0058240001 0.0000000000 0.0820050016 1.0000000000
-0.0058350000 0.0000000000 0.0820029974 1.0000000000
-0.0058479998 0.0000000000 0.0820060000 1.0000000000
-0.0058590001 0.0000000000 0.0820109993 1.0000000000
-0.0058709998 0.0000000000 0.0820119977 1.0000000000
-0.0058840001 0.0000000000 0.0820140019 1.0000000000
-0.0058950000 0.0000000000 0.0820100009 1.0000000000
-0.0059070000 0.0000000000 0.0820060000 1.0000000000
-0.0059190001 0.0000000000 0.0820100009 1.0000000000
-0.0059320000 0.0000000000 0.0820150003 1.0000000000
-0.0059449999 0.0000000000 0.0820140019 1.0000000000
-0.0059560002 0.0000000000 0.0820140019 1.0000000000
-0.0059690000 0.0000000000 0.0820130035 1.0000000000
-0.0059799999 0.0000000000 0.0820150003 1.0000000000
-0.0059930002 0.0000000000 0.0820159987 1.0000000000
-0.0060040001 0.0000000000 0.0820190012 1.0000000000
-0.0060160002 0.0000000000 0.0820199996 1.0000000000
-0.0060290000 0.0000000000 0.0820209980 1.0000000000
-0.0060419999 0.0000000000 0.0820219964 1.0000000000
-0.0060530002 0.0000000000 0.0820209980 1.0000000000
-0.0060640001 0.0000000000 0.0820140019 1.0000000000
-0.0060760002 0.0000000000 0.0820090026 1.0000000000
-0.0060890000 0.0000000000 0.0820069984 1.0000000000
-0.0060999999 0.0000000000 0.0820090026 1.0000000000
-0.0061130002 0.0000000000 0.0820090026 1.0000000000
-0.0061240001 0.0000000000 0.0820130035 1.0000000000
-0.0061369999 0.0000000000 0.0820150003 1.0000000000
-0.0061490000 0.0000000000 0.0820169970 1.0000000000
-0.0061610001 0.0000000000 0.0820199996 1.0000000000
-0.0061730002 0.0000000000 0.0820219964 1.0000000000
-0.0061849998 0.0000000000 0.0820219964 1.0000000000
-0.0061969999 0.0000000000 0.0820180029 1.0000000000
-0.0062099998 0.0000000000 0.0820150003 1.0000000000
-0.0062210001 0.0000000000 0.0820169970 1.0000000000
-0.0062340000 0.0000000000 0.0820169970 1.0000000000
-0.0062449998 0.0000000000 0.0820190012 1.0000000000
-0.0062580002 0.0000000000 0.0820169970 1.0000000000
-0.0062690000 0.0000000000 0.0820140019 1.0000000000
-0.0062810001 0.0000000000 0.0820109993 1.0000000000
-0.0062930002 0.0000000000 0.0820150003 1.0000000000
-0.0063060001 0.0000000000 0.0820140019 1.0000000000
-0.0063169999 0.0000000000 0.0820069984 1.0000000000
-0.0063280002 0.0000000000 0.0820050016 1.0000000000
-0.0063410001 0.0000000000 0.0820069984 1.0000000000
-0.0063530002 0.0000000000 0.0820079967 1.0000000000
-0.0063649998 0.0000000000 0.0820119977 1.0000000000
-0.0063780001 0.0000000000 0.0820150003 1.0000000000
-0.0063890000 0.0000000000 0.0820140019 1.0000000000
-0.0064010001 0.0000000000 0.0820069984 1.0000000000
-0.0064130002 0.0000000000 0.0820130035 1.0000000000
-0.0064260000 0.0000000000 0.0820230022 1.0000000000
-0.0064380001 0.0000000000 0.0820230022 1.0000000000
-0.0064500002 0.0000000000 0.0820150003 1.0000000000
-0.0064610001 0.0000000000 0.0820150003 1.0000000000
-0.0064750002 0.0000000000 0.0820230022 1.0000000000
-0.0064860000 0.0000000000 0.0820289999 1.0000000000
-0.0064989999 0.0000000000 0.0820270032 1.0000000000
-0.0065100002 0.0000000000 0.0820299983 1.0000000000
-0.0065239999 0.0000000000 0.0820550025 1.0000000000
-0.0065380000 0.0000000000 0.0820830017 1.0000000000
-0.0065520001 0.0000000000 0.0821169987 1.0000000000
-0.0065660002 0.0000000000 0.0821480006 1.0000000000
-0.0065790000 0.0000000000 0.0821600035 1.0000000000
-0.0065919999 0.0000000000 0.0821740031 1.0000000000
-0.0066060000 0.0000000000 0.0821880028 1.0000000000
-0.0066180001 0.0000000000 0.0821940005 1.0000000000
-0.0066310000 0.0000000000 0.0821999982 1.0000000000
-0.0066430001 0.0000000000 0.0822099969 1.0000000000
-0.0066559999 0.0000000000 0.0822089985 1.0000000000
-0.0066669998 0.0000000000 0.0822089985 1.0000000000
-0.0066800001 0.0000000000 0.0822200030 1.0000000000
-0.0066920002 0.0000000000 0.0822319984 1.0000000000
-0.0067059998 0.0000000000 0.0822449997 1.0000000000
-0.0067190002 0.0000000000 0.0822689980 1.0000000000
-0.0067329998 0.0000000000 0.0822779983 1.0000000000
-0.0067449999 0.0000000000 0.0822919980 1.0000000000
-0.0067579998 0.0000000000 0.0823009983 1.0000000000
-0.0067699999 0.0000000000 0.0823090002 1.0000000000
-0.0067830002 0.0000000000 0.0823180005 1.0000000000
-0.0067949998 0.0000000000 0.0823239982 1.0000000000
-0.0068080002 0.0000000000 0.0823289976 1.0000000000
-0.0068210000 0.0000000000 0.0823429972 1.0000000000
-0.0068339999 0.0000000000 0.0823469982 1.0000000000
-0.0068450002 0.0000000000 0.0823490024 1.0000000000
-0.0068580001 0.0000000000 0.0823540017 1.0000000000
-0.0068709999 0.0000000000 0.0823749974 1.0000000000
-0.0069180001 0.0000000000 0.0825140029 1.0000000000
-0.0069289999 0.0000000000 0.0825050026 1.0000000000
-0.0069410000 0.0000000000 0.0825090036 1.0000000000
-0.0069530001 0.0000000000 0.0825069994 1.0000000000
-0.0069660000 0.0000000000 0.0825119987 1.0000000000
-0.0069780000 0.0000000000 0.0825179964 1.0000000000
-0.0069909999 0.0000000000 0.0825200006 1.0000000000
-0.0070030000 0.0000000000 0.0825230032 1.0000000000
-0.0070159999 0.0000000000 0.0825359970 1.0000000000
-0.0070290002 0.0000000000 0.0825589970 1.0000000000
-0.0070429998 0.0000000000 0.0825639963 1.0000000000
-0.0070540002 0.0000000000 0.0825690031 1.0000000000
-0.0070690000 0.0000000000 0.0825909972 1.0000000000
-0.0070819999 0.0000000000 0.0826129988 1.0000000000
-0.0070940000 0.0000000000 0.0826219991 1.0000000000
-0.0071069999 0.0000000000 0.0826290026 1.0000000000
-0.0071210000 0.0000000000 0.0826369971 1.0000000000
-0.0071319998 0.0000000000 0.0826470032 1.0000000000
-0.0071450002 0.0000000000 0.0826570019 1.0000000000
-0.0071580000 0.0000000000 0.0826689973 1.0000000000
-0.0071709999 0.0000000000 0.0826750025 1.0000000000
-0.0071840002 0.0000000000 0.0826869980 1.0000000000
-0.0071979999 0.0000000000 0.0827099979 1.0000000000
-0.0072100000 0.0000000000 0.0827179998 1.0000000000
-0.0072240001 0.0000000000 0.0827310011 1.0000000000
-0.0072380002 0.0000000000 0.0827570036 1.0000000000
-0.0072499998 0.0000000000 0.0827630013 1.0000000000
-0.0072630001 0.0000000000 0.0827659965 1.0000000000
-0.0072760000 0.0000000000 0.0827810019 1.0000000000
-0.0072889999 0.0000000000 0.0827940032 1.0000000000
-0.0073030000 0.0000000000 0.0828040019 1.0000000000
-0.0073139998 0.0000000000 0.0828090012 1.0000000000
-0.0073279999 0.0000000000 0.0828249976 1.0000000000
-0.0073409998 0.0000000000 0.0828439966 1.0000000000
-0.0073540001 0.0000000000 0.0828500018 1.0000000000
-0.0073670000 0.0000000000 0.0828619972 1.0000000000
-0.0073799998 0.0000000000 0.0828789994 1.0000000000
-0.0073930002 0.0000000000 0.0828889981 1.0000000000
-0.0074060000 0.0000000000 0.0828920007 1.0000000000
-0.0074180001 0.0000000000 0.0829019994 1.0000000000
-0.0074319998 0.0000000000 0.0829230025 1.0000000000
-0.0074459999 0.0000000000 0.0829429999 1.0000000000
-0.0074590002 0.0000000000 0.0829500034 1.0000000000
-0.0074709998 0.0000000000 0.0829589963 1.0000000000
-0.0074860002 0.0000000000 0.0829870030 1.0000000000
-0.0074990001 0.0000000000 0.0830020010 1.0000000000
-0.0075119999 0.0000000000 0.0830100030 1.0000000000
-0.0075249998 0.0000000000 0.0830200016 1.0000000000
-0.0075380001 0.0000000000 0.0830349997 1.0000000000
-0.0075510000 0.0000000000 0.0830510035 1.0000000000
-0.0075650001 0.0000000000 0.0830660015 1.0000000000
-0.0075780000 0.0000000000 0.0830800012 1.0000000000
-0.0075909998 0.0000000000 0.0830829963 1.0000000000
-0.0076029999 0.0000000000 0.0830899999 1.0000000000
-0.0076170000 0.0000000000 0.0830999985 1.0000000000
-0.0076290001 0.0000000000 0.0831120014 1.0000000000
-0.0076420000 0.0000000000 0.0831229985 1.0000000000
-0.0076549998 0.0000000000 0.0831340030 1.0000000000
-0.0076680002 0.0000000000 0.0831359997 1.0000000000
-0.0076799998 0.0000000000 0.0831409991 1.0000000000
-0.0076910001 0.0000000000 0.0831340030 1.0000000000
-0.0079889996 0.0000000000 0.0814730003 1.0000000000
-0.0080019999 0.0000000000 0.0814910010 1.0000000000
-0.0096610002 0.0000000000 0.0816610008 1.0000000000
-0.0101070004 0.0000000000 0.0831980035 1.0000000000
-0.0101190004 0.0000000000 0.0831959993 1.0000000000
-0.0101309996 0.0000000000 0.0831940025 1.0000000000
-0.0101429997 0.0000000000 0.0831969976 1.0000000000
-0.0101549998 0.0000000000 0.0831909999 1.0000000000
-0.0101659996 0.0000000000 0.0831789970 1.0000000000
-0.0101770004 0.0000000000 0.0831729993 1.0000000000
-0.0101889996 0.0000000000 0.0831649974 1.0000000000
-0.0101990001 0.0000000000 0.0831570029 1.0000000000
-0.0102100000 0.0000000000 0.0831440017 1.0000000000
-0.0102209998 0.0000000000 0.0831310004 1.0000000000
-0.0102329999 0.0000000000 0.0831210017 1.0000000000
-0.0102430005 0.0000000000 0.0831149966 1.0000000000
-0.0102540003 0.0000000000 0.0831060037 1.0000000000
-0.0102650002 0.0000000000 0.0830930024 1.0000000000
-0.0102760000 0.0000000000 0.0830769986 1.0000000000
-0.0102859996 0.0000000000 0.0830679983 1.0000000000
-0.0102979997 0.0000000000 0.0830629990 1.0000000000
-0.0103099998 0.0000000000 0.0830589980 1.0000000000
-0.0103209997 0.0000000000 0.0830480009 1.0000000000
-0.0103310002 0.0000000000 0.0830359980 1.0000000000
-0.0103420001 0.0000000000 0.0830269977 1.0000000000
-0.0103529999 0.0000000000 0.0830179974 1.0000000000
-0.0103639998 0.0000000000 0.0830029994 1.0000000000
-0.0103749996 0.0000000000 0.0829939991 1.0000000000
-0.0103860004 0.0000000000 0.0829859972 1.0000000000
-0.0103970002 0.0000000000 0.0829719976 1.0000000000
-0.0104080001 0.0000000000 0.0829610005 1.0000000000
-0.0104189999 0.0000000000 0.0829569995 1.0000000000
-0.0104310000 0.0000000000 0.0829500034 1.0000000000
-0.0104409996 0.0000000000 0.0829370022 1.0000000000
-0.0104520004 0.0000000000 0.0829249993 1.0000000000
-0.0104630003 0.0000000000 0.0829169974 1.0000000000
-0.0104740001 0.0000000000 0.0829069987 1.0000000000
-0.0104850000 0.0000000000 0.0828950033 1.0000000000
-0.0104959998 0.0000000000 0.0828889981 1.0000000000
-0.0105079999 0.0000000000 0.0828870013 1.0000000000
-0.0105189998 0.0000000000 0.0828740001 1.0000000000
-0.0105290003 0.0000000000 0.0828640014 1.0000000000
-0.0105410004 0.0000000000 0.0828550011 1.0000000000
-0.0105520003 0.0000000000 0.0828460008 1.0000000000
-0.0105630001 0.0000000000 0.0828299969 1.0000000000
-0.0105729997 0.0000000000 0.0828189999 1.0000000000
-0.0105839996 0.0000000000 0.0828109980 1.0000000000
-0.0105950003 0.0000000000 0.0828009993 1.0000000000
-0.0106060002 0.0000000000 0.0827889964 1.0000000000
-0.0106170001 0.0000000000 0.0827839971 1.0000000000
-0.0106290001 0.0000000000 0.0827800035 1.0000000000
-0.0106400000 0.0000000000 0.0827739984 1.0000000000
-0.0106499996 0.0000000000 0.0827580020 1.0000000000
-0.0106600001 0.0000000000 0.0827419981 1.0000000000
-0.0106720002 0.0000000000 0.0827340037 1.0000000000
-0.0106830001 0.0000000000 0.0827310011 1.0000000000
-0.0106939999 0.0000000000 0.0827239975 1.0000000000
-0.0107049998 0.0000000000 0.0827149972 1.0000000000
-0.0107150003 0.0000000000 0.0826969966 1.0000000000
-0.0107260002 0.0000000000 0.0826819986 1.0000000000
-0.0107370000 0.0000000000 0.0826729983 1.0000000000
-0.0107479999 0.0000000000 0.0826660022 1.0000000000
-0.0107600000 0.0000000000 0.0826589987 1.0000000000
-0.0107709998 0.0000000000 0.0826599970 1.0000000000
-0.0107840002 0.0000000000 0.0826580003 1.0000000000
-0.0107930005 0.0000000000 0.0826430023 1.0000000000
-0.0108040003 0.0000000000 0.0826269984 1.0000000000
-0.0108139999 0.0000000000 0.0826120004 1.0000000000
-0.0108249998 0.0000000000 0.0826030001 1.0000000000
-0.0108369999 0.0000000000 0.0825989991 1.0000000000
-0.0108479997 0.0000000000 0.0825870037 1.0000000000
-0.0108580003 0.0000000000 0.0825790018 1.0000000000
-0.0108700003 0.0000000000 0.0825709999 1.0000000000
-0.0108810002 0.0000000000 0.0825650021 1.0000000000
-0.0108920000 0.0000000000 0.0825539976 1.0000000000
-0.0109010004 0.0000000000 0.0825370029 1.0000000000
-0.0109120002 0.0000000000 0.0825190023 1.0000000000
-0.0109230001 0.0000000000 0.0825129971 1.0000000000
-0.0109350001 0.0000000000 0.0825150013 1.0000000000
-0.0109470002 0.0000000000 0.0825159997 1.0000000000
-0.0109590003 0.0000000000 0.0825090036 1.0000000000
-0.0109679997 0.0000000000 0.0824899971 1.0000000000
-0.0109789995 0.0000000000 0.0824770033 1.0000000000
-0.0109890001 0.0000000000 0.0824690014 1.0000000000
-0.0109999999 0.0000000000 0.0824630037 1.0000000000
-0.0110109998 0.0000000000 0.0824489966 1.0000000000
-0.0110200001 0.0000000000 0.0824280009 1.0000000000
-0.0110299997 0.0000000000 0.0824130028 1.0000000000
-0.0110419998 0.0000000000 0.0824100003 1.0000000000
-0.0110539999 0.0000000000 0.0824080035 1.0000000000
-0.0110649997 0.0000000000 0.0824019983 1.0000000000
-0.0110769998 0.0000000000 0.0823979974 1.0000000000
-0.0110870004 0.0000000000 0.0823860019 1.0000000000
-0.0110970000 0.0000000000 0.0823659971 1.0000000000
-0.0111079998 0.0000000000 0.0823550001 1.0000000000
-0.0111180004 0.0000000000 0.0823429972 1.0000000000
-0.0111300005 0.0000000000 0.0823360011 1.0000000000
-0.0111410003 0.0000000000 0.0823360011 1.0000000000
-0.0111539997 0.0000000000 0.0823390037 1.0000000000
-0.0111640003 0.0000000000 0.0823320001 1.0000000000
-0.0111739999 0.0000000000 0.0823099986 1.0000000000
-0.0111840004 0.0000000000 0.0822940022 1.0000000000
-0.0111959996 0.0000000000 0.0822879970 1.0000000000
-0.0112060001 0.0000000000 0.0822760016 1.0000000000
-0.0112170000 0.0000000000 0.0822689980 1.0000000000
-0.0112279998 0.0000000000 0.0822630003 1.0000000000
-0.0112380004 0.0000000000 0.0822499990 1.0000000000
-0.0112500004 0.0000000000 0.0822459981 1.0000000000
-0.0112610003 0.0000000000 0.0822390020 1.0000000000
-0.0112720001 0.0000000000 0.0822329968 1.0000000000
-0.0112830000 0.0000000000 0.0822239965 1.0000000000
-0.0112929996 0.0000000000 0.0822089985 1.0000000000
-0.0113040004 0.0000000000 0.0821909979 1.0000000000
-0.0113129998 0.0000000000 0.0821779966 1.0000000000
-0.0113230003 0.0000000000 0.0821570009 1.0000000000
-0.0113310004 0.0000000000 0.0821269974 1.0000000000
-0.0113430005 0.0000000000 0.0821160004 1.0000000000
-0.0113530001 0.0000000000 0.0821110010 1.0000000000
-0.0113650002 0.0000000000 0.0821050033 1.0000000000
-0.0113760000 0.0000000000 0.0821010023 1.0000000000
-0.0113869999 0.0000000000 0.0820960030 1.0000000000
-0.0113979997 0.0000000000 0.0820920020 1.0000000000
-0.0114110000 0.0000000000 0.0820889995 1.0000000000
-0.0114219999 0.0000000000 0.0820899978 1.0000000000
-0.0114340000 0.0000000000 0.0820930004 1.0000000000
-0.0114460001 0.0000000000 0.0820910037 1.0000000000
-0.0114580002 0.0000000000 0.0820930004 1.0000000000
-0.0114709996 0.0000000000 0.0820999965 1.0000000000
-0.0114820004 0.0000000000 0.0820910037 1.0000000000
-0.0114930002 0.0000000000 0.0820880011 1.0000000000
-0.0115069998 0.0000000000 0.0820979998 1.0000000000
-0.0115189999 0.0000000000 0.0821029991 1.0000000000
-0.0115310000 0.0000000000 0.0820999965 1.0000000000
-0.0115419999 0.0000000000 0.0820989981 1.0000000000
-0.0115540000 0.0000000000 0.0820970014 1.0000000000
-0.0115660001 0.0000000000 0.0820970014 1.0000000000
-0.0115790004 0.0000000000 0.0821050033 1.0000000000
-0.0115909996 0.0000000000 0.0821140036 1.0000000000
-0.0116029996 0.0000000000 0.0821089968 1.0000000000
-0.0116140004 0.0000000000 0.0820999965 1.0000000000
-0.0116250003 0.0000000000 0.0820920020 1.0000000000
-0.0116360001 0.0000000000 0.0820920020 1.0000000000
-0.0116480002 0.0000000000 0.0820939988 1.0000000000
-0.0116600003 0.0000000000 0.0820899978 1.0000000000
-0.0116720004 0.0000000000 0.0820880011 1.0000000000
-0.0116849998 0.0000000000 0.0821010023 1.0000000000
-0.0116990004 0.0000000000 0.0821160004 1.0000000000
-0.0117110005 0.0000000000 0.0821190029 1.0000000000
-0.0117229996 0.0000000000 0.0821150020 1.0000000000
-0.0117349997 0.0000000000 0.0821169987 1.0000000000
-0.0117459996 0.0000000000 0.0821119994 1.0000000000
-0.0117570003 0.0000000000 0.0821020007 1.0000000000
-0.0117690004 0.0000000000 0.0820999965 1.0000000000
-0.0117800003 0.0000000000 0.0821029991 1.0000000000
-0.0117929997 0.0000000000 0.0821010023 1.0000000000
-0.0118049998 0.0000000000 0.0821050033 1.0000000000
-0.0118180001 0.0000000000 0.0821089968 1.0000000000
-0.0118290000 0.0000000000 0.0821089968 1.0000000000
-0.0118399998 0.0000000000 0.0820989981 1.0000000000
-0.0118509997 0.0000000000 0.0820920020 1.0000000000
-0.0118629998 0.0000000000 0.0820920020 1.0000000000
-0.0118760001 0.0000000000 0.0821029991 1.0000000000
-0.0118890004 0.0000000000 0.0821100026 1.0000000000
-0.0119009996 0.0000000000 0.0821119994 1.0000000000
-0.0119129997 0.0000000000 0.0821060017 1.0000000000
-0.0119240005 0.0000000000 0.0821100026 1.0000000000
-0.0119380001 0.0000000000 0.0821169987 1.0000000000
-0.0119489999 0.0000000000 0.0821200013 1.0000000000
-0.0119610000 0.0000000000 0.0821160004 1.0000000000
-0.0119719999 0.0000000000 0.0821100026 1.0000000000
-0.0119840000 0.0000000000 0.0821070001 1.0000000000
-0.0119960001 0.0000000000 0.0821160004 1.0000000000
-0.0120090004 0.0000000000 0.0821200013 1.0000000000
-0.0120209996 0.0000000000 0.0821190029 1.0000000000
-0.0120329997 0.0000000000 0.0821169987 1.0000000000
-0.0120440004 0.0000000000 0.0821160004 1.0000000000
-0.0120559996 0.0000000000 0.0821110010 1.0000000000
-0.0120670004 0.0000000000 0.0821070001 1.0000000000
-0.0120780002 0.0000000000 0.0821050033 1.0000000000
-0.0120909996 0.0000000000 0.0821089968 1.0000000000
-0.0121029997 0.0000000000 0.0821140036 1.0000000000
-0.0121149998 0.0000000000 0.0821150020 1.0000000000
-0.0121269999 0.0000000000 0.0821150020 1.0000000000
-0.0121390000 0.0000000000 0.0821140036 1.0000000000
-0.0121510001 0.0000000000 0.0821100026 1.0000000000
-0.0121619999 0.0000000000 0.0821079984 1.0000000000
-0.0121740000 0.0000000000 0.0821079984 1.0000000000
-0.0121860001 0.0000000000 0.0821110010 1.0000000000
-0.0121990005 0.0000000000 0.0821119994 1.0000000000
-0.0122100003 0.0000000000 0.0821110010 1.0000000000
-0.0122229997 0.0000000000 0.0821110010 1.0000000000
-0.0122349998 0.0000000000 0.0821169987 1.0000000000
-0.0122459996 0.0000000000 0.0821150020 1.0000000000
-0.0122570004 0.0000000000 0.0821079984 1.0000000000
-0.0122689996 0.0000000000 0.0821070001 1.0000000000
-0.0122809997 0.0000000000 0.0821100026 1.0000000000
-0.0122940000 0.0000000000 0.0821100026 1.0000000000
-0.0123049999 0.0000000000 0.0821129978 1.0000000000
-0.0123170000 0.0000000000 0.0821150020 1.0000000000
