VERSION 0.7
FIELDS x y z intensity
SIZE 4 4 4 4
TYPE F F F F
COUNT 1 1 1 1
WIDTH 1293
HEIGHT 1
VIEWPOINT 0.0 0.0 0.0 1.0 0.0 0.0 0.0
POINTS 1293
DATA ascii
0.0121440003 0.0000000000 0.0814979970 1.0000000000
0.0121330004 0.0000000000 0.0815009996 1.0000000000
0.0121229999 0.0000000000 0.0815130025 1.0000000000
0.0121099995 0.0000000000 0.0815140009 1.0000000000
0.0120989997 0.0000000000 0.0815090016 1.0000000000
0.0120850001 0.0000000000 0.0815019980 1.0000000000
0.0120740002 0.0000000000 0.0815019980 1.0000000000
0.0120630004 0.0000000000 0.0815029964 1.0000000000
0.0120510003 0.0000000000 0.0815069973 1.0000000000
0.0120400004 0.0000000000 0.0815099999 1.0000000000
0.0120280003 0.0000000000 0.0815090016 1.0000000000
0.0120160002 0.0000000000 0.0815109983 1.0000000000
0.0120050004 0.0000000000 0.0815119967 1.0000000000
0.0119909998 0.0000000000 0.0815059990 1.0000000000
0.0119800000 0.0000000000 0.0815019980 1.0000000000
0.0119669996 0.0000000000 0.0815029964 1.0000000000
0.0119580003 0.0000000000 0.0815109983 1.0000000000
0.0119460002 0.0000000000 0.0815099999 1.0000000000
0.0119340001 0.0000000000 0.0815080032 1.0000000000
0.0119220000 0.0000000000 0.0815099999 1.0000000000
0.0119110001 0.0000000000 0.0815119967 1.0000000000
0.0118979998 0.0000000000 0.0815080032 1.0000000000
0.0118859997 0.0000000000 0.0815080032 1.0000000000
0.0118739996 0.0000000000 0.0815099999 1.0000000000
0.0118620005 0.0000000000 0.0815019980 1.0000000000
0.0118479999 0.0000000000 0.0814950019 1.0000000000
0.0118389996 0.0000000000 0.0815040022 1.0000000000
0.0118279997 0.0000000000 0.0815090016 1.0000000000
0.0118159996 0.0000000000 0.0815090016 1.0000000000
0.0118039995 0.0000000000 0.0815080032 1.0000000000
0.0117920004 0.0000000000 0.0815090016 1.0000000000
0.0117800003 0.0000000000 0.0815090016 1.0000000000
0.0117690004 0.0000000000 0.0815109983 1.0000000000
0.0117560001 0.0000000000 0.0815109983 1.0000000000
0.0117450003 0.0000000000 0.0815090016 1.0000000000
0.0117319999 0.0000000000 0.0815090016 1.0000000000
0.0117220003 0.0000000000 0.0815130025 1.0000000000
0.0117090000 0.0000000000 0.0815099999 1.0000000000
0.0116980001 0.0000000000 0.0815069973 1.0000000000
0.0116860000 0.0000000000 0.0815090016 1.0000000000
0.0116740000 0.0000000000 0.0815090016 1.0000000000
0.0116619999 0.0000000000 0.0815059990 1.0000000000
0.0116510000 0.0000000000 0.0815109983 1.0000000000
0.0116389999 0.0000000000 0.0815180019 1.0000000000
0.0116290003 0.0000000000 0.0815220028 1.0000000000
0.0116160000 0.0000000000 0.0815199986 1.0000000000
0.0116050001 0.0000000000 0.0815190002 1.0000000000
0.0115919998 0.0000000000 0.0815199986 1.0000000000
0.0115809999 0.0000000000 0.0815170035 1.0000000000
0.0115689998 0.0000000000 0.0815159976 1.0000000000
0.0115580000 0.0000000000 0.0815220028 1.0000000000
0.0115449997 0.0000000000 0.0815209970 1.0000000000
0.0115329996 0.0000000000 0.0815130025 1.0000000000
0.0115200002 0.0000000000 0.0815090016 1.0000000000
0.0115090003 0.0000000000 0.0815069973 1.0000000000
0.0114960000 0.0000000000 0.0815029964 1.0000000000
0.0114860004 0.0000000000 0.0815090016 1.0000000000
0.0114749996 0.0000000000 0.0815130025 1.0000000000
0.0114630004 0.0000000000 0.0815119967 1.0000000000
0.0114479996 0.0000000000 0.0815009996 1.0000000000
0.0114380000 0.0000000000 0.0815000013 1.0000000000
0.0114249997 0.0000000000 0.0815019980 1.0000000000
0.0114150001 0.0000000000 0.0815069973 1.0000000000
0.0114030000 0.0000000000 0.0815059990 1.0000000000
0.0113899997 0.0000000000 0.0814979970 1.0000000000
0.0113779996 0.0000000000 0.0814979970 1.0000000000
0.0113679999 0.0000000000 0.0815069973 1.0000000000
0.0113570001 0.0000000000 0.0815159976 1.0000000000
0.0113450000 0.0000000000 0.0815130025 1.0000000000
0.0113310004 0.0000000000 0.0815090016 1.0000000000
0.0113220001 0.0000000000 0.0815170035 1.0000000000
0.0113100000 0.0000000000 0.0815249979 1.0000000000
0.0113000004 0.0000000000 0.0815289989 1.0000000000
0.0112859998 0.0000000000 0.0815280005 1.0000000000
0.0112760002 0.0000000000 0.0815310031 1.0000000000
0.0112659996 0.0000000000 0.0815469995 1.0000000000
0.0112570003 0.0000000000 0.0815680027 1.0000000000
0.0112450002 0.0000000000 0.0815789998 1.0000000000
0.0112359999 0.0000000000 0.0815899968 1.0000000000
0.0112239998 0.0000000000 0.0815960020 1.0000000000
0.0112140002 0.0000000000 0.0816029981 1.0000000000
0.0112020001 0.0000000000 0.0816100016 1.0000000000
0.0111919995 0.0000000000 0.0816169977 1.0000000000
0.0111800004 0.0000000000 0.0816259980 1.0000000000
0.0111720003 0.0000000000 0.0816470012 1.0000000000
0.0111619998 0.0000000000 0.0816600025 1.0000000000
0.0111509999 0.0000000000 0.0816640034 1.0000000000
0.0111379996 0.0000000000 0.0816690028 1.0000000000
0.0111290002 0.0000000000 0.0816809982 1.0000000000
0.0111189997 0.0000000000 0.0816939995 1.0000000000
0.0111079998 0.0000000000 0.0817039981 1.0000000000
0.0110970000 0.0000000000 0.0817110017 1.0000000000
0.0110860001 0.0000000000 0.0817179978 1.0000000000
0.0110740000 0.0000000000 0.0817279965 1.0000000000
0.0110660000 0.0000000000 0.0817459971 1.0000000000
0.0110539999 0.0000000000 0.0817570016 1.0000000000
0.0110440003 0.0000000000 0.0817629993 1.0000000000
0.0110309999 0.0000000000 0.0817660019 1.0000000000
0.0110210003 0.0000000000 0.0817719996 1.0000000000
0.0110090002 0.0000000000 0.0817790031 1.0000000000
0.0109999999 0.0000000000 0.0817930028 1.0000000000
0.0109890001 0.0000000000 0.0818070024 1.0000000000
0.0109799998 0.0000000000 0.0818179995 1.0000000000
0.0109679997 0.0000000000 0.0818300024 1.0000000000
0.0109590003 0.0000000000 0.0818400010 1.0000000000
0.0109470002 0.0000000000 0.0818459988 1.0000000000
0.0109369997 0.0000000000 0.0818559974 1.0000000000
0.0109259998 0.0000000000 0.0818609968 1.0000000000
0.0109150000 0.0000000000 0.0818699971 1.0000000000
0.0109019997 0.0000000000 0.0818760023 1.0000000000
0.0108930003 0.0000000000 0.0818820000 1.0000000000
0.0108810002 0.0000000000 0.0818990022 1.0000000000
0.0108730001 0.0000000000 0.0819149986 1.0000000000
0.0108610000 0.0000000000 0.0819270015 1.0000000000
0.0108519997 0.0000000000 0.0819389969 1.0000000000
0.0108409999 0.0000000000 0.0819469988 1.0000000000
0.0108300000 0.0000000000 0.0819529966 1.0000000000
0.0108180000 0.0000000000 0.0819609985 1.0000000000
0.0108089997 0.0000000000 0.0819759965 1.0000000000
0.0107969996 0.0000000000 0.0819870010 1.0000000000
0.0107869999 0.0000000000 0.0819939971 1.0000000000
0.0107749999 0.0000000000 0.0820019990 1.0000000000
0.0107669998 0.0000000000 0.0820199996 1.0000000000
0.0107559999 0.0000000000 0.0820309967 1.0000000000
0.0107450001 0.0000000000 0.0820320025 1.0000000000
0.0107340002 0.0000000000 0.0820399970 1.0000000000
0.0107230004 0.0000000000 0.0820539966 1.0000000000
0.0107129999 0.0000000000 0.0820659995 1.0000000000
0.0107030002 0.0000000000 0.0820799991 1.0000000000
0.0106910001 0.0000000000 0.0820889995 1.0000000000
0.0106809996 0.0000000000 0.0820989981 1.0000000000
0.0106699998 0.0000000000 0.0821089968 1.0000000000
0.0106589999 0.0000000000 0.0821200013 1.0000000000
0.0106469998 0.0000000000 0.0821300000 1.0000000000
0.0106370002 0.0000000000 0.0821330026 1.0000000000
0.0106260004 0.0000000000 0.0821359977 1.0000000000
0.0106149996 0.0000000000 0.0821449980 1.0000000000
0.0106020002 0.0000000000 0.0821539983 1.0000000000
0.0105929999 0.0000000000 0.0821639970 1.0000000000
0.0105809998 0.0000000000 0.0821719989 1.0000000000
0.0105710002 0.0000000000 0.0821840018 1.0000000000
0.0105609996 0.0000000000 0.0821949989 1.0000000000
0.0105499998 0.0000000000 0.0822070017 1.0000000000
0.0105379997 0.0000000000 0.0822170004 1.0000000000
0.0105290003 0.0000000000 0.0822319984 1.0000000000
0.0105170002 0.0000000000 0.0822440013 1.0000000000
0.0105069997 0.0000000000 0.0822490007 1.0000000000
0.0104959998 0.0000000000 0.0822549984 1.0000000000
0.0104839997 0.0000000000 0.0822620019 1.0000000000
0.0104719996 0.0000000000 0.0822689980 1.0000000000
0.0104630003 0.0000000000 0.0822860003 1.0000000000
0.0104529997 0.0000000000 0.0823049992 1.0000000000
0.0104430001 0.0000000000 0.0823210031 1.0000000000
0.0104310000 0.0000000000 0.0823300034 1.0000000000
0.0104210004 0.0000000000 0.0823369995 1.0000000000
0.0104090003 0.0000000000 0.0823429972 1.0000000000
0.0103989998 0.0000000000 0.0823519975 1.0000000000
0.0103869997 0.0000000000 0.0823630020 1.0000000000
0.0103780003 0.0000000000 0.0823789984 1.0000000000
0.0103660002 0.0000000000 0.0823900029 1.0000000000
0.0103559997 0.0000000000 0.0823960006 1.0000000000
0.0103449998 0.0000000000 0.0824019983 1.0000000000
0.0103340000 0.0000000000 0.0824119970 1.0000000000
0.0103219999 0.0000000000 0.0824220031 1.0000000000
0.0103120003 0.0000000000 0.0824299976 1.0000000000
0.0103000002 0.0000000000 0.0824410021 1.0000000000
0.0102909999 0.0000000000 0.0824540034 1.0000000000
0.0102789998 0.0000000000 0.0824640021 1.0000000000
0.0102690002 0.0000000000 0.0824749991 1.0000000000
0.0102580003 0.0000000000 0.0824870020 1.0000000000
0.0102479998 0.0000000000 0.0824989974 1.0000000000
0.0102359997 0.0000000000 0.0825100020 1.0000000000
0.0102260001 0.0000000000 0.0825219974 1.0000000000
0.0102159996 0.0000000000 0.0825340003 1.0000000000
0.0102049997 0.0000000000 0.0825439990 1.0000000000
0.0101929996 0.0000000000 0.0825499967 1.0000000000
0.0101819998 0.0000000000 0.0825560018 1.0000000000
0.0101709999 0.0000000000 0.0825660005 1.0000000000
0.0101600001 0.0000000000 0.0825719982 1.0000000000
0.0101469997 0.0000000000 0.0825719982 1.0000000000
0.0101349996 0.0000000000 0.0825669989 1.0000000000
0.0101210000 0.0000000000 0.0825539976 1.0000000000
0.0101060001 0.0000000000 0.0825200006 1.0000000000
0.0102279996 0.0000000000 0.0837809965 1.0000000000
0.0102169998 0.0000000000 0.0837849975 1.0000000000
0.0102049997 0.0000000000 0.0837910026 1.0000000000
0.0101939999 0.0000000000 0.0837950036 1.0000000000
0.0101819998 0.0000000000 0.0838010013 1.0000000000
0.0101699997 0.0000000000 0.0838050023 1.0000000000
0.0101570003 0.0000000000 0.0838039964 1.0000000000
0.0101460004 0.0000000000 0.0838079974 1.0000000000
0.0101340003 0.0000000000 0.0838129967 1.0000000000
0.0079690004 0.0000000000 0.0826490000 1.0000000000
0.0079570003 0.0000000000 0.0826340020 1.0000000000
0.0079429997 0.0000000000 0.0826309994 1.0000000000
0.0079330001 0.0000000000 0.0826319978 1.0000000000
0.0079199998 0.0000000000 0.0826279968 1.0000000000
0.0079070004 0.0000000000 0.0826150030 1.0000000000
0.0078929998 0.0000000000 0.0826049969 1.0000000000
0.0078819999 0.0000000000 0.0826020017 1.0000000000
0.0078680003 0.0000000000 0.0825970024 1.0000000000
0.0078570005 0.0000000000 0.0825909972 1.0000000000
0.0078440001 0.0000000000 0.0825759992 1.0000000000
0.0078299996 0.0000000000 0.0825579986 1.0000000000
0.0078159999 0.0000000000 0.0825439990 1.0000000000
0.0078039998 0.0000000000 0.0825349987 1.0000000000
0.0077920002 0.0000000000 0.0825269967 1.0000000000
0.0077789999 0.0000000000 0.0825179964 1.0000000000
0.0077660000 0.0000000000 0.0825079978 1.0000000000
0.0077530001 0.0000000000 0.0824929997 1.0000000000
0.0077399998 0.0000000000 0.0824809968 1.0000000000
0.0077269999 0.0000000000 0.0824730024 1.0000000000
0.0077149998 0.0000000000 0.0824640021 1.0000000000
0.0077020000 0.0000000000 0.0824540034 1.0000000000
0.0076879999 0.0000000000 0.0824399963 1.0000000000
0.0076759998 0.0000000000 0.0824310035 1.0000000000
0.0076629999 0.0000000000 0.0824199989 1.0000000000
0.0076500000 0.0000000000 0.0824059993 1.0000000000
0.0076370002 0.0000000000 0.0823939964 1.0000000000
0.0076239998 0.0000000000 0.0823810026 1.0000000000
0.0076100002 0.0000000000 0.0823730007 1.0000000000
0.0075989999 0.0000000000 0.0823709965 1.0000000000
0.0075860000 0.0000000000 0.0823580027 1.0000000000
0.0075719999 0.0000000000 0.0823410004 1.0000000000
0.0075579998 0.0000000000 0.0823260024 1.0000000000
0.0075470000 0.0000000000 0.0823229998 1.0000000000
0.0075340001 0.0000000000 0.0823149979 1.0000000000
0.0075210002 0.0000000000 0.0823009983 1.0000000000
0.0075090001 0.0000000000 0.0822969973 1.0000000000
0.0074970000 0.0000000000 0.0822950006 1.0000000000
0.0074820002 0.0000000000 0.0822819993 1.0000000000
0.0074709998 0.0000000000 0.0822710022 1.0000000000
0.0074580000 0.0000000000 0.0822620019 1.0000000000
0.0074450001 0.0000000000 0.0822530016 1.0000000000
0.0074319998 0.0000000000 0.0822390020 1.0000000000
0.0074189999 0.0000000000 0.0822250023 1.0000000000
0.0074049998 0.0000000000 0.0822150037 1.0000000000
0.0073930002 0.0000000000 0.0822039992 1.0000000000
0.0073790001 0.0000000000 0.0821840018 1.0000000000
0.0073660002 0.0000000000 0.0821700022 1.0000000000
0.0073520001 0.0000000000 0.0821620002 1.0000000000
0.0073409998 0.0000000000 0.0821510032 1.0000000000
0.0073270001 0.0000000000 0.0821349993 1.0000000000
0.0073139998 0.0000000000 0.0821229964 1.0000000000
0.0073000002 0.0000000000 0.0821129978 1.0000000000
0.0072889999 0.0000000000 0.0821029991 1.0000000000
0.0072750002 0.0000000000 0.0820949972 1.0000000000
0.0072639999 0.0000000000 0.0820920020 1.0000000000
0.0072499998 0.0000000000 0.0820849985 1.0000000000
0.0072380002 0.0000000000 0.0820740014 1.0000000000
0.0072240001 0.0000000000 0.0820579976 1.0000000000
0.0072130002 0.0000000000 0.0820529982 1.0000000000
0.0071990001 0.0000000000 0.0820420012 1.0000000000
0.0071870000 0.0000000000 0.0820299983 1.0000000000
0.0071740001 0.0000000000 0.0820140019 1.0000000000
0.0071600000 0.0000000000 0.0819939971 1.0000000000
0.0071459999 0.0000000000 0.0819810033 1.0000000000
0.0071350001 0.0000000000 0.0819770023 1.0000000000
0.0071220002 0.0000000000 0.0819680020 1.0000000000
0.0071089999 0.0000000000 0.0819550008 1.0000000000
0.0070949998 0.0000000000 0.0819460005 1.0000000000
0.0070830001 0.0000000000 0.0819350034 1.0000000000
0.0070690000 0.0000000000 0.0819199979 1.0000000000
0.0070570000 0.0000000000 0.0819059983 1.0000000000
0.0070429998 0.0000000000 0.0818950012 1.0000000000
0.0070329998 0.0000000000 0.0818969980 1.0000000000
0.0070199999 0.0000000000 0.0818919986 1.0000000000
0.0070070000 0.0000000000 0.0818710029 1.0000000000
0.0069940002 0.0000000000 0.0818559974 1.0000000000
0.0069809998 0.0000000000 0.0818469971 1.0000000000
0.0069670002 0.0000000000 0.0818329975 1.0000000000
0.0069550001 0.0000000000 0.0818160027 1.0000000000
0.0069419998 0.0000000000 0.0818030015 1.0000000000
0.0069289999 0.0000000000 0.0817900002 1.0000000000
0.0069149998 0.0000000000 0.0817819983 1.0000000000
0.0069040000 0.0000000000 0.0817760006 1.0000000000
0.0068899998 0.0000000000 0.0817639977 1.0000000000
0.0068780002 0.0000000000 0.0817539990 1.0000000000
0.0068649999 0.0000000000 0.0817440003 1.0000000000
0.0068529998 0.0000000000 0.0817319974 1.0000000000
0.0068390002 0.0000000000 0.0817229971 1.0000000000
0.0068279998 0.0000000000 0.0817169994 1.0000000000
0.0068140002 0.0000000000 0.0817070007 1.0000000000
0.0068020001 0.0000000000 0.0816989988 1.0000000000
0.0067900000 0.0000000000 0.0816930011 1.0000000000
0.0067770001 0.0000000000 0.0816769972 1.0000000000
0.0067630000 0.0000000000 0.0816499963 1.0000000000
0.0067500002 0.0000000000 0.0816349983 1.0000000000
0.0067360001 0.0000000000 0.0816269964 1.0000000000
0.0067250002 0.0000000000 0.0816190019 1.0000000000
0.0067119999 0.0000000000 0.0816069990 1.0000000000
0.0066990000 0.0000000000 0.0816000029 1.0000000000
0.0066869999 0.0000000000 0.0815989971 1.0000000000
0.0066749998 0.0000000000 0.0815989971 1.0000000000
0.0066620000 0.0000000000 0.0816010013 1.0000000000
0.0066519999 0.0000000000 0.0816050023 1.0000000000
0.0066390000 0.0000000000 0.0816079974 1.0000000000
0.0066290000 0.0000000000 0.0816200003 1.0000000000
0.0066169999 0.0000000000 0.0816230029 1.0000000000
0.0066049998 0.0000000000 0.0816140026 1.0000000000
0.0065910001 0.0000000000 0.0816019997 1.0000000000
0.0065799998 0.0000000000 0.0815970004 1.0000000000
0.0065660002 0.0000000000 0.0815939978 1.0000000000
0.0065560001 0.0000000000 0.0815929994 1.0000000000
0.0065420000 0.0000000000 0.0815910026 1.0000000000
0.0065319999 0.0000000000 0.0815950036 1.0000000000
0.0065199998 0.0000000000 0.0815979987 1.0000000000
0.0065080002 0.0000000000 0.0815970004 1.0000000000
0.0064949999 0.0000000000 0.0815920010 1.0000000000
0.0064840000 0.0000000000 0.0815910026 1.0000000000
0.0064710001 0.0000000000 0.0815929994 1.0000000000
0.0064599998 0.0000000000 0.0816010013 1.0000000000
0.0064490000 0.0000000000 0.0816069990 1.0000000000
0.0064369999 0.0000000000 0.0816069990 1.0000000000
0.0064240000 0.0000000000 0.0815979987 1.0000000000
0.0064119999 0.0000000000 0.0815939978 1.0000000000
0.0063990001 0.0000000000 0.0815929994 1.0000000000
0.0063890000 0.0000000000 0.0816029981 1.0000000000
0.0063760001 0.0000000000 0.0816090032 1.0000000000
0.0063649998 0.0000000000 0.0816069990 1.0000000000
0.0063519999 0.0000000000 0.0816010013 1.0000000000
0.0063410001 0.0000000000 0.0816000029 1.0000000000
0.0063290000 0.0000000000 0.0816000029 1.0000000000
0.0063169999 0.0000000000 0.0816019997 1.0000000000
0.0063040000 0.0000000000 0.0816010013 1.0000000000
0.0062930002 0.0000000000 0.0815910026 1.0000000000
0.0062790001 0.0000000000 0.0815860033 1.0000000000
0.0062680002 0.0000000000 0.0815870017 1.0000000000
0.0062569999 0.0000000000 0.0815889984 1.0000000000
0.0062449998 0.0000000000 0.0815910026 1.0000000000
0.0062330002 0.0000000000 0.0815970004 1.0000000000
0.0062219999 0.0000000000 0.0816029981 1.0000000000
0.0062099998 0.0000000000 0.0816050023 1.0000000000
0.0061980002 0.0000000000 0.0816079974 1.0000000000
0.0061849998 0.0000000000 0.0816079974 1.0000000000
0.0061740000 0.0000000000 0.0816029981 1.0000000000
0.0061610001 0.0000000000 0.0816029981 1.0000000000
0.0061510000 0.0000000000 0.0816150010 1.0000000000
0.0061389999 0.0000000000 0.0816209987 1.0000000000
0.0061269999 0.0000000000 0.0816100016 1.0000000000
0.0061130002 0.0000000000 0.0816000029 1.0000000000
0.0061019999 0.0000000000 0.0816000029 1.0000000000
0.0060890000 0.0000000000 0.0816000029 1.0000000000
0.0060780002 0.0000000000 0.0816050023 1.0000000000
0.0060649998 0.0000000000 0.0816069990 1.0000000000
0.0060549998 0.0000000000 0.0816100016 1.0000000000
0.0060410001 0.0000000000 0.0816090032 1.0000000000
0.0060310001 0.0000000000 0.0816090032 1.0000000000
0.0060180002 0.0000000000 0.0816090032 1.0000000000
0.0060060001 0.0000000000 0.0816029981 1.0000000000
0.0059940000 0.0000000000 0.0815979987 1.0000000000
0.0059819999 0.0000000000 0.0815979987 1.0000000000
0.0059690000 0.0000000000 0.0815989971 1.0000000000
0.0059580002 0.0000000000 0.0816029981 1.0000000000
0.0059460001 0.0000000000 0.0816050023 1.0000000000
0.0059340000 0.0000000000 0.0816019997 1.0000000000
0.0059219999 0.0000000000 0.0815970004 1.0000000000
0.0059099998 0.0000000000 0.0815970004 1.0000000000
0.0058970000 0.0000000000 0.0815979987 1.0000000000
0.0058860001 0.0000000000 0.0815979987 1.0000000000
0.0058729998 0.0000000000 0.0815989971 1.0000000000
0.0058630002 0.0000000000 0.0816069990 1.0000000000
0.0058510001 0.0000000000 0.0816119984 1.0000000000
0.0058390000 0.0000000000 0.0816090032 1.0000000000
0.0058269999 0.0000000000 0.0816060007 1.0000000000
0.0058149998 0.0000000000 0.0816050023 1.0000000000
0.0058010002 0.0000000000 0.0816000029 1.0000000000
0.0057899999 0.0000000000 0.0815950036 1.0000000000
0.0057780002 0.0000000000 0.0815970004 1.0000000000
0.0057660001 0.0000000000 0.0816019997 1.0000000000
0.0057540000 0.0000000000 0.0816069990 1.0000000000
0.0057430002 0.0000000000 0.0816090032 1.0000000000
0.0057299999 0.0000000000 0.0816079974 1.0000000000
0.0057190000 0.0000000000 0.0816039965 1.0000000000
0.0057069999 0.0000000000 0.0816060007 1.0000000000
0.0056949998 0.0000000000 0.0816090032 1.0000000000
0.0056820000 0.0000000000 0.0816069990 1.0000000000
0.0056710001 0.0000000000 0.0816060007 1.0000000000
0.0056570000 0.0000000000 0.0815989971 1.0000000000
0.0056460002 0.0000000000 0.0816000029 1.0000000000
0.0056349998 0.0000000000 0.0816060007 1.0000000000
0.0056230002 0.0000000000 0.0816110000 1.0000000000
0.0056099999 0.0000000000 0.0816150010 1.0000000000
0.0055990000 0.0000000000 0.0816169977 1.0000000000
0.0055869999 0.0000000000 0.0816129968 1.0000000000
0.0055749998 0.0000000000 0.0816100016 1.0000000000
0.0055630002 0.0000000000 0.0816129968 1.0000000000
0.0055510001 0.0000000000 0.0816180035 1.0000000000
0.0055379998 0.0000000000 0.0816169977 1.0000000000
0.0055269999 0.0000000000 0.0816090032 1.0000000000
0.0055129998 0.0000000000 0.0816010013 1.0000000000
0.0055030002 0.0000000000 0.0816060007 1.0000000000
0.0054899999 0.0000000000 0.0816100016 1.0000000000
0.0054790000 0.0000000000 0.0816100016 1.0000000000
0.0054660002 0.0000000000 0.0816140026 1.0000000000
0.0054549999 0.0000000000 0.0816159993 1.0000000000
0.0054420000 0.0000000000 0.0816140026 1.0000000000
0.0054319999 0.0000000000 0.0816180035 1.0000000000
0.0054199998 0.0000000000 0.0816209987 1.0000000000
0.0054070000 0.0000000000 0.0816140026 1.0000000000
0.0053929999 0.0000000000 0.0816010013 1.0000000000
0.0053829998 0.0000000000 0.0816060007 1.0000000000
0.0053699999 0.0000000000 0.0816050023 1.0000000000
0.0053590001 0.0000000000 0.0816050023 1.0000000000
0.0053470000 0.0000000000 0.0816119984 1.0000000000
0.0053349999 0.0000000000 0.0816129968 1.0000000000
0.0053220000 0.0000000000 0.0816090032 1.0000000000
0.0053110002 0.0000000000 0.0816129968 1.0000000000
0.0052979998 0.0000000000 0.0816180035 1.0000000000
0.0052870000 0.0000000000 0.0816150010 1.0000000000
0.0052749999 0.0000000000 0.0816110000 1.0000000000
0.0052629998 0.0000000000 0.0816110000 1.0000000000
0.0052510002 0.0000000000 0.0816100016 1.0000000000
0.0052390001 0.0000000000 0.0816079974 1.0000000000
0.0052270000 0.0000000000 0.0816119984 1.0000000000
0.0052149999 0.0000000000 0.0816150010 1.0000000000
0.0052029998 0.0000000000 0.0816119984 1.0000000000
0.0051910002 0.0000000000 0.0816079974 1.0000000000
0.0051790001 0.0000000000 0.0816119984 1.0000000000
0.0051679998 0.0000000000 0.0816190019 1.0000000000
0.0051560001 0.0000000000 0.0816219971 1.0000000000
0.0051440001 0.0000000000 0.0816180035 1.0000000000
0.0051299999 0.0000000000 0.0816079974 1.0000000000
0.0051190001 0.0000000000 0.0816060007 1.0000000000
0.0051070000 0.0000000000 0.0816129968 1.0000000000
0.0050960002 0.0000000000 0.0816180035 1.0000000000
0.0050840001 0.0000000000 0.0816180035 1.0000000000
0.0050720000 0.0000000000 0.0816159993 1.0000000000
0.0050590001 0.0000000000 0.0816129968 1.0000000000
0.0050479998 0.0000000000 0.0816169977 1.0000000000
0.0050349999 0.0000000000 0.0816230029 1.0000000000
0.0050240001 0.0000000000 0.0816240013 1.0000000000
0.0050120000 0.0000000000 0.0816190019 1.0000000000
0.0049990001 0.0000000000 0.0816140026 1.0000000000
0.0049879998 0.0000000000 0.0816180035 1.0000000000
0.0049760002 0.0000000000 0.0816290006 1.0000000000
0.0049629998 0.0000000000 0.0816339999 1.0000000000
0.0049520000 0.0000000000 0.0816320032 1.0000000000
0.0049399999 0.0000000000 0.0816259980 1.0000000000
0.0049279998 0.0000000000 0.0816240013 1.0000000000
0.0049149999 0.0000000000 0.0816209987 1.0000000000
0.0049040001 0.0000000000 0.0816290006 1.0000000000
0.0048910002 0.0000000000 0.0816299990 1.0000000000
0.0048799999 0.0000000000 0.0816240013 1.0000000000
0.0048670000 0.0000000000 0.0816219971 1.0000000000
0.0048560002 0.0000000000 0.0816299990 1.0000000000
0.0048429999 0.0000000000 0.0816299990 1.0000000000
0.0048320000 0.0000000000 0.0816249996 1.0000000000
0.0048199999 0.0000000000 0.0816200003 1.0000000000
0.0048079998 0.0000000000 0.0816230029 1.0000000000
0.0047950000 0.0000000000 0.0816240013 1.0000000000
0.0047840001 0.0000000000 0.0816230029 1.0000000000
0.0047709998 0.0000000000 0.0816219971 1.0000000000
0.0047599999 0.0000000000 0.0816240013 1.0000000000
0.0047479998 0.0000000000 0.0816290006 1.0000000000
0.0047370000 0.0000000000 0.0816359967 1.0000000000
0.0047249999 0.0000000000 0.0816380009 1.0000000000
0.0047129998 0.0000000000 0.0816389993 1.0000000000
0.0047010002 0.0000000000 0.0816339999 1.0000000000
0.0046879998 0.0000000000 0.0816240013 1.0000000000
0.0046760002 0.0000000000 0.0816169977 1.0000000000
0.0046640001 0.0000000000 0.0816169977 1.0000000000
0.0046520000 0.0000000000 0.0816209987 1.0000000000
0.0046399999 0.0000000000 0.0816240013 1.0000000000
0.0046270001 0.0000000000 0.0816240013 1.0000000000
0.0046160002 0.0000000000 0.0816259980 1.0000000000
0.0046029999 0.0000000000 0.0816219971 1.0000000000
0.0045920000 0.0000000000 0.0816240013 1.0000000000
0.0045790002 0.0000000000 0.0816240013 1.0000000000
0.0045679999 0.0000000000 0.0816169977 1.0000000000
0.0045560002 0.0000000000 0.0816110000 1.0000000000
0.0045440001 0.0000000000 0.0816180035 1.0000000000
0.0045320000 0.0000000000 0.0816259980 1.0000000000
0.0045210002 0.0000000000 0.0816339999 1.0000000000
0.0045079999 0.0000000000 0.0816380009 1.0000000000
0.0044970000 0.0000000000 0.0816389993 1.0000000000
0.0044849999 0.0000000000 0.0816359967 1.0000000000
0.0044720001 0.0000000000 0.0816320032 1.0000000000
0.0044590002 0.0000000000 0.0816290006 1.0000000000
0.0044479999 0.0000000000 0.0816320032 1.0000000000
0.0044350000 0.0000000000 0.0816309974 1.0000000000
0.0044240002 0.0000000000 0.0816309974 1.0000000000
0.0044109998 0.0000000000 0.0816290006 1.0000000000
0.0044000000 0.0000000000 0.0816339999 1.0000000000
0.0043879999 0.0000000000 0.0816359967 1.0000000000
0.0043759998 0.0000000000 0.0816359967 1.0000000000
0.0043629999 0.0000000000 0.0816389993 1.0000000000
0.0043529999 0.0000000000 0.0816430002 1.0000000000
0.0043390002 0.0000000000 0.0816380009 1.0000000000
0.0043279999 0.0000000000 0.0816299990 1.0000000000
0.0043159998 0.0000000000 0.0816249996 1.0000000000
0.0043040002 0.0000000000 0.0816240013 1.0000000000
0.0042920001 0.0000000000 0.0816269964 1.0000000000
0.0042800000 0.0000000000 0.0816290006 1.0000000000
0.0042670001 0.0000000000 0.0816299990 1.0000000000
0.0042559998 0.0000000000 0.0816370025 1.0000000000
0.0042429999 0.0000000000 0.0816389993 1.0000000000
0.0042320001 0.0000000000 0.0816389993 1.0000000000
0.0042190002 0.0000000000 0.0816370025 1.0000000000
0.0042079999 0.0000000000 0.0816380009 1.0000000000
0.0041959998 0.0000000000 0.0816330016 1.0000000000
0.0041830000 0.0000000000 0.0816290006 1.0000000000
0.0041700001 0.0000000000 0.0816309974 1.0000000000
0.0041600000 0.0000000000 0.0816359967 1.0000000000
0.0041470001 0.0000000000 0.0816380009 1.0000000000
0.0041359998 0.0000000000 0.0816399977 1.0000000000
0.0041240002 0.0000000000 0.0816420019 1.0000000000
0.0041120001 0.0000000000 0.0816470012 1.0000000000
0.0040989998 0.0000000000 0.0816470012 1.0000000000
0.0040879999 0.0000000000 0.0816449970 1.0000000000
0.0040750001 0.0000000000 0.0816399977 1.0000000000
0.0040630000 0.0000000000 0.0816359967 1.0000000000
0.0040509999 0.0000000000 0.0816330016 1.0000000000
0.0040389998 0.0000000000 0.0816330016 1.0000000000
0.0040259999 0.0000000000 0.0816380009 1.0000000000
0.0040159998 0.0000000000 0.0816479996 1.0000000000
0.0040030000 0.0000000000 0.0816479996 1.0000000000
0.0039920001 0.0000000000 0.0816410035 1.0000000000
0.0039789998 0.0000000000 0.0816370025 1.0000000000
0.0039670002 0.0000000000 0.0816370025 1.0000000000
0.0039550001 0.0000000000 0.0816420019 1.0000000000
0.0039440002 0.0000000000 0.0816460028 1.0000000000
0.0039309999 0.0000000000 0.0816449970 1.0000000000
0.0039189998 0.0000000000 0.0816439986 1.0000000000
0.0039059999 0.0000000000 0.0816449970 1.0000000000
0.0038960001 0.0000000000 0.0816520005 1.0000000000
0.0038840000 0.0000000000 0.0816589966 1.0000000000
0.0038719999 0.0000000000 0.0816589966 1.0000000000
0.0038580000 0.0000000000 0.0816439986 1.0000000000
0.0038470000 0.0000000000 0.0816330016 1.0000000000
0.0038350001 0.0000000000 0.0816339999 1.0000000000
0.0038230000 0.0000000000 0.0816389993 1.0000000000
0.0038099999 0.0000000000 0.0816439986 1.0000000000
0.0037990001 0.0000000000 0.0816460028 1.0000000000
0.0037870000 0.0000000000 0.0816449970 1.0000000000
0.0037750001 0.0000000000 0.0816510022 1.0000000000
0.0037630000 0.0000000000 0.0816510022 1.0000000000
0.0037509999 0.0000000000 0.0816399977 1.0000000000
0.0037380001 0.0000000000 0.0816370025 1.0000000000
0.0037270000 0.0000000000 0.0816399977 1.0000000000
0.0037140001 0.0000000000 0.0816380009 1.0000000000
0.0037030000 0.0000000000 0.0816439986 1.0000000000
0.0036899999 0.0000000000 0.0816539973 1.0000000000
0.0036790001 0.0000000000 0.0816600025 1.0000000000
0.0036670000 0.0000000000 0.0816529989 1.0000000000
0.0036549999 0.0000000000 0.0816510022 1.0000000000
0.0036430000 0.0000000000 0.0816510022 1.0000000000
0.0036309999 0.0000000000 0.0816499963 1.0000000000
0.0036190001 0.0000000000 0.0816510022 1.0000000000
0.0036070000 0.0000000000 0.0816510022 1.0000000000
0.0035949999 0.0000000000 0.0816489980 1.0000000000
0.0035830000 0.0000000000 0.0816449970 1.0000000000
0.0035689999 0.0000000000 0.0816449970 1.0000000000
0.0035590001 0.0000000000 0.0816499963 1.0000000000
0.0035450000 0.0000000000 0.0816470012 1.0000000000
0.0035339999 0.0000000000 0.0816420019 1.0000000000
0.0035210000 0.0000000000 0.0816460028 1.0000000000
0.0035110000 0.0000000000 0.0816589966 1.0000000000
0.0034990001 0.0000000000 0.0816610008 1.0000000000
0.0034860000 0.0000000000 0.0816489980 1.0000000000
0.0034739999 0.0000000000 0.0816430002 1.0000000000
0.0034620001 0.0000000000 0.0816410035 1.0000000000
0.0034500000 0.0000000000 0.0816420019 1.0000000000
0.0034380001 0.0000000000 0.0816449970 1.0000000000
0.0034250000 0.0000000000 0.0816460028 1.0000000000
0.0034139999 0.0000000000 0.0816529989 1.0000000000
0.0034030001 0.0000000000 0.0816589966 1.0000000000
0.0033900000 0.0000000000 0.0816550031 1.0000000000
0.0033780001 0.0000000000 0.0816499963 1.0000000000
0.0033660000 0.0000000000 0.0816529989 1.0000000000
0.0033529999 0.0000000000 0.0816529989 1.0000000000
0.0033420001 0.0000000000 0.0816520005 1.0000000000
0.0033290000 0.0000000000 0.0816539973 1.0000000000
0.0033179999 0.0000000000 0.0816589966 1.0000000000
0.0033060000 0.0000000000 0.0816579983 1.0000000000
0.0032939999 0.0000000000 0.0816529989 1.0000000000
0.0032810001 0.0000000000 0.0816529989 1.0000000000
0.0032700000 0.0000000000 0.0816579983 1.0000000000
0.0032579999 0.0000000000 0.0816579983 1.0000000000
0.0032460000 0.0000000000 0.0816610008 1.0000000000
0.0032329999 0.0000000000 0.0816610008 1.0000000000
0.0032220001 0.0000000000 0.0816610008 1.0000000000
0.0032090000 0.0000000000 0.0816640034 1.0000000000
0.0031979999 0.0000000000 0.0816640034 1.0000000000
0.0031850000 0.0000000000 0.0816550031 1.0000000000
0.0031740000 0.0000000000 0.0816520005 1.0000000000
0.0031600001 0.0000000000 0.0816520005 1.0000000000
0.0031500000 0.0000000000 0.0816560015 1.0000000000
0.0031359999 0.0000000000 0.0816529989 1.0000000000
0.0031250000 0.0000000000 0.0816499963 1.0000000000
0.0031119999 0.0000000000 0.0816520005 1.0000000000
0.0031020001 0.0000000000 0.0816569999 1.0000000000
0.0030900000 0.0000000000 0.0816569999 1.0000000000
0.0030769999 0.0000000000 0.0816550031 1.0000000000
0.0030640000 0.0000000000 0.0816550031 1.0000000000
0.0030530000 0.0000000000 0.0816569999 1.0000000000
0.0030400001 0.0000000000 0.0816600025 1.0000000000
0.0030300000 0.0000000000 0.0816690028 1.0000000000
0.0030179999 0.0000000000 0.0816690028 1.0000000000
0.0030050001 0.0000000000 0.0816640034 1.0000000000
0.0029920000 0.0000000000 0.0816600025 1.0000000000
0.0029810001 0.0000000000 0.0816629976 1.0000000000
0.0029690000 0.0000000000 0.0816660002 1.0000000000
0.0029569999 0.0000000000 0.0816660002 1.0000000000
0.0029440001 0.0000000000 0.0816619992 1.0000000000
0.0029330000 0.0000000000 0.0816560015 1.0000000000
0.0029200001 0.0000000000 0.0816529989 1.0000000000
0.0029090000 0.0000000000 0.0816569999 1.0000000000
0.0028959999 0.0000000000 0.0816539973 1.0000000000
0.0028850001 0.0000000000 0.0816569999 1.0000000000
0.0028730000 0.0000000000 0.0816660002 1.0000000000
0.0028609999 0.0000000000 0.0816690028 1.0000000000
0.0028490000 0.0000000000 0.0816669986 1.0000000000
0.0028369999 0.0000000000 0.0816669986 1.0000000000
0.0028250001 0.0000000000 0.0816650018 1.0000000000
0.0028120000 0.0000000000 0.0816589966 1.0000000000
0.0027999999 0.0000000000 0.0816560015 1.0000000000
0.0027880000 0.0000000000 0.0816569999 1.0000000000
0.0027749999 0.0000000000 0.0816539973 1.0000000000
0.0027640001 0.0000000000 0.0816520005 1.0000000000
0.0027520000 0.0000000000 0.0816499963 1.0000000000
0.0027399999 0.0000000000 0.0816529989 1.0000000000
0.0027270000 0.0000000000 0.0816610008 1.0000000000
0.0027160000 0.0000000000 0.0816740021 1.0000000000
0.0027030001 0.0000000000 0.0816790015 1.0000000000
0.0026920000 0.0000000000 0.0816769972 1.0000000000
0.0026789999 0.0000000000 0.0816719979 1.0000000000
0.0026680001 0.0000000000 0.0816799998 1.0000000000
0.0026550000 0.0000000000 0.0816859975 1.0000000000
0.0026449999 0.0000000000 0.0816930011 1.0000000000
0.0026320000 0.0000000000 0.0817020014 1.0000000000
0.0026209999 0.0000000000 0.0817179978 1.0000000000
0.0026100001 0.0000000000 0.0817369968 1.0000000000
0.0025980000 0.0000000000 0.0817650035 1.0000000000
0.0025859999 0.0000000000 0.0817840025 1.0000000000
0.0025750000 0.0000000000 0.0817930028 1.0000000000
0.0025630000 0.0000000000 0.0818160027 1.0000000000
0.0025520001 0.0000000000 0.0818390027 1.0000000000
0.0025400000 0.0000000000 0.0818590000 1.0000000000
0.0025289999 0.0000000000 0.0818680003 1.0000000000
0.0025160001 0.0000000000 0.0818749964 1.0000000000
0.0025050000 0.0000000000 0.0818900019 1.0000000000
0.0024939999 0.0000000000 0.0819069967 1.0000000000
0.0024820000 0.0000000000 0.0819279999 1.0000000000
0.0024689999 0.0000000000 0.0819440037 1.0000000000
0.0024580001 0.0000000000 0.0819440037 1.0000000000
0.0024450000 0.0000000000 0.0819339976 1.0000000000
0.0024339999 0.0000000000 0.0819389969 1.0000000000
0.0024210000 0.0000000000 0.0819429979 1.0000000000
-0.0023190000 0.0000000000 0.0824040025 1.0000000000
-0.0023310001 0.0000000000 0.0823680013 1.0000000000
-0.0023429999 0.0000000000 0.0823620036 1.0000000000
-0.0023550000 0.0000000000 0.0823609978 1.0000000000
-0.0023670001 0.0000000000 0.0823609978 1.0000000000
-0.0023800000 0.0000000000 0.0823609978 1.0000000000
-0.0023910000 0.0000000000 0.0823689997 1.0000000000
-0.0023960001 0.0000000000 0.0820479989 1.0000000000
-0.0024079999 0.0000000000 0.0820449963 1.0000000000
-0.0024210000 0.0000000000 0.0820429996 1.0000000000
-0.0024319999 0.0000000000 0.0820429996 1.0000000000
-0.0024440000 0.0000000000 0.0820389986 1.0000000000
-0.0024560001 0.0000000000 0.0820320025 1.0000000000
-0.0024679999 0.0000000000 0.0820199996 1.0000000000
-0.0024800000 0.0000000000 0.0820050016 1.0000000000
-0.0024910001 0.0000000000 0.0819860026 1.0000000000
-0.0025030000 0.0000000000 0.0819659978 1.0000000000
-0.0025140001 0.0000000000 0.0819440037 1.0000000000
-0.0025269999 0.0000000000 0.0819440037 1.0000000000
-0.0025400000 0.0000000000 0.0819460005 1.0000000000
-0.0025510001 0.0000000000 0.0819389969 1.0000000000
-0.0025630000 0.0000000000 0.0819220021 1.0000000000
-0.0025740000 0.0000000000 0.0819140002 1.0000000000
-0.0025859999 0.0000000000 0.0819009990 1.0000000000
-0.0025980000 0.0000000000 0.0818839967 1.0000000000
-0.0026090001 0.0000000000 0.0818739980 1.0000000000
-0.0026209999 0.0000000000 0.0818639994 1.0000000000
-0.0026340000 0.0000000000 0.0818509981 1.0000000000
-0.0026449999 0.0000000000 0.0818390027 1.0000000000
-0.0026570000 0.0000000000 0.0818200037 1.0000000000
-0.0026680001 0.0000000000 0.0817940012 1.0000000000
-0.0026799999 0.0000000000 0.0817769989 1.0000000000
-0.0026920000 0.0000000000 0.0817779973 1.0000000000
-0.0027050001 0.0000000000 0.0817840025 1.0000000000
-0.0027160000 0.0000000000 0.0817850009 1.0000000000
-0.0027290001 0.0000000000 0.0817729980 1.0000000000
-0.0027389999 0.0000000000 0.0817610025 1.0000000000
-0.0027520000 0.0000000000 0.0817570016 1.0000000000
-0.0027640001 0.0000000000 0.0817610025 1.0000000000
-0.0027770000 0.0000000000 0.0817589983 1.0000000000
-0.0027880000 0.0000000000 0.0817570016 1.0000000000
-0.0027999999 0.0000000000 0.0817499980 1.0000000000
-0.0028110000 0.0000000000 0.0817399994 1.0000000000
-0.0028230001 0.0000000000 0.0817440003 1.0000000000
-0.0028359999 0.0000000000 0.0817560032 1.0000000000
-0.0028480000 0.0000000000 0.0817539990 1.0000000000
-0.0028599999 0.0000000000 0.0817530006 1.0000000000
-0.0028730000 0.0000000000 0.0817599967 1.0000000000
-0.0028840001 0.0000000000 0.0817620009 1.0000000000
-0.0028969999 0.0000000000 0.0817660019 1.0000000000
-0.0029090000 0.0000000000 0.0817710012 1.0000000000
-0.0029209999 0.0000000000 0.0817639977 1.0000000000
-0.0029320000 0.0000000000 0.0817560032 1.0000000000
-0.0029440001 0.0000000000 0.0817560032 1.0000000000
-0.0029559999 0.0000000000 0.0817549974 1.0000000000
-0.0029700000 0.0000000000 0.0817570016 1.0000000000
-0.0029810001 0.0000000000 0.0817560032 1.0000000000
-0.0029930000 0.0000000000 0.0817509964 1.0000000000
-0.0030050001 0.0000000000 0.0817530006 1.0000000000
-0.0030169999 0.0000000000 0.0817549974 1.0000000000
-0.0030290000 0.0000000000 0.0817589983 1.0000000000
-0.0030410001 0.0000000000 0.0817629993 1.0000000000
-0.0030530000 0.0000000000 0.0817599967 1.0000000000
-0.0030650001 0.0000000000 0.0817560032 1.0000000000
-0.0030769999 0.0000000000 0.0817570016 1.0000000000
-0.0030900000 0.0000000000 0.0817560032 1.0000000000
-0.0031010001 0.0000000000 0.0817610025 1.0000000000
-0.0031140000 0.0000000000 0.0817570016 1.0000000000
-0.0031250000 0.0000000000 0.0817520022 1.0000000000
-0.0031379999 0.0000000000 0.0817480013 1.0000000000
-0.0031490000 0.0000000000 0.0817520022 1.0000000000
-0.0031620001 0.0000000000 0.0817560032 1.0000000000
-0.0031740000 0.0000000000 0.0817629993 1.0000000000
-0.0031870001 0.0000000000 0.0817650035 1.0000000000
-0.0031979999 0.0000000000 0.0817660019 1.0000000000
-0.0032110000 0.0000000000 0.0817660019 1.0000000000
-0.0032220001 0.0000000000 0.0817700028 1.0000000000
-0.0032350000 0.0000000000 0.0817739964 1.0000000000
-0.0032470000 0.0000000000 0.0817750022 1.0000000000
-0.0032589999 0.0000000000 0.0817679986 1.0000000000
-0.0032700000 0.0000000000 0.0817650035 1.0000000000
-0.0032830001 0.0000000000 0.0817689970 1.0000000000
-0.0032949999 0.0000000000 0.0817700028 1.0000000000
-0.0033070000 0.0000000000 0.0817599967 1.0000000000
-0.0033179999 0.0000000000 0.0817570016 1.0000000000
-0.0033300000 0.0000000000 0.0817639977 1.0000000000
-0.0033430001 0.0000000000 0.0817670003 1.0000000000
-0.0033559999 0.0000000000 0.0817679986 1.0000000000
-0.0033670000 0.0000000000 0.0817729980 1.0000000000
-0.0033789999 0.0000000000 0.0817729980 1.0000000000
-0.0033910000 0.0000000000 0.0817719996 1.0000000000
-0.0034040001 0.0000000000 0.0817679986 1.0000000000
-0.0034149999 0.0000000000 0.0817650035 1.0000000000
-0.0034280000 0.0000000000 0.0817689970 1.0000000000
-0.0034390001 0.0000000000 0.0817769989 1.0000000000
-0.0034520000 0.0000000000 0.0817750022 1.0000000000
-0.0034630001 0.0000000000 0.0817679986 1.0000000000
-0.0034749999 0.0000000000 0.0817639977 1.0000000000
-0.0034870000 0.0000000000 0.0817639977 1.0000000000
-0.0035000001 0.0000000000 0.0817660019 1.0000000000
-0.0035110000 0.0000000000 0.0817689970 1.0000000000
-0.0035230001 0.0000000000 0.0817629993 1.0000000000
-0.0035349999 0.0000000000 0.0817620009 1.0000000000
-0.0035480000 0.0000000000 0.0817660019 1.0000000000
-0.0035600001 0.0000000000 0.0817750022 1.0000000000
-0.0035730000 0.0000000000 0.0817819983 1.0000000000
-0.0035840000 0.0000000000 0.0817790031 1.0000000000
-0.0035969999 0.0000000000 0.0817689970 1.0000000000
-0.0036080000 0.0000000000 0.0817660019 1.0000000000
-0.0036210001 0.0000000000 0.0817670003 1.0000000000
-0.0036319999 0.0000000000 0.0817639977 1.0000000000
-0.0036440000 0.0000000000 0.0817629993 1.0000000000
-0.0036559999 0.0000000000 0.0817689970 1.0000000000
-0.0036690000 0.0000000000 0.0817760006 1.0000000000
-0.0036800001 0.0000000000 0.0817779973 1.0000000000
-0.0036929999 0.0000000000 0.0817750022 1.0000000000
-0.0037040000 0.0000000000 0.0817760006 1.0000000000
-0.0037169999 0.0000000000 0.0817760006 1.0000000000
-0.0037290000 0.0000000000 0.0817809999 1.0000000000
-0.0037410001 0.0000000000 0.0817790031 1.0000000000
-0.0037519999 0.0000000000 0.0817739964 1.0000000000
-0.0037640000 0.0000000000 0.0817729980 1.0000000000
-0.0037769999 0.0000000000 0.0817769989 1.0000000000
-0.0037900000 0.0000000000 0.0817760006 1.0000000000
-0.0038000001 0.0000000000 0.0817670003 1.0000000000
-0.0038129999 0.0000000000 0.0817670003 1.0000000000
-0.0038250000 0.0000000000 0.0817769989 1.0000000000
-0.0038370001 0.0000000000 0.0817809999 1.0000000000
-0.0038490000 0.0000000000 0.0817809999 1.0000000000
-0.0038610001 0.0000000000 0.0817800015 1.0000000000
-0.0038729999 0.0000000000 0.0817840025 1.0000000000
-0.0038860000 0.0000000000 0.0817829967 1.0000000000
-0.0038970001 0.0000000000 0.0817779973 1.0000000000
-0.0039090002 0.0000000000 0.0817739964 1.0000000000
-0.0039209998 0.0000000000 0.0817750022 1.0000000000
-0.0039329999 0.0000000000 0.0817719996 1.0000000000
-0.0039450000 0.0000000000 0.0817679986 1.0000000000
-0.0039579999 0.0000000000 0.0817689970 1.0000000000
-0.0039690002 0.0000000000 0.0817719996 1.0000000000
-0.0039820001 0.0000000000 0.0817779973 1.0000000000
-0.0039940001 0.0000000000 0.0817819983 1.0000000000
-0.0040059998 0.0000000000 0.0817790031 1.0000000000
-0.0040179999 0.0000000000 0.0817809999 1.0000000000
-0.0040300000 0.0000000000 0.0817819983 1.0000000000
-0.0040420000 0.0000000000 0.0817779973 1.0000000000
-0.0040549999 0.0000000000 0.0817769989 1.0000000000
-0.0040660002 0.0000000000 0.0817809999 1.0000000000
-0.0040790001 0.0000000000 0.0817790031 1.0000000000
-0.0040899999 0.0000000000 0.0817760006 1.0000000000
-0.0041029998 0.0000000000 0.0817769989 1.0000000000
-0.0041140001 0.0000000000 0.0817800015 1.0000000000
-0.0041270000 0.0000000000 0.0817790031 1.0000000000
-0.0041379998 0.0000000000 0.0817790031 1.0000000000
-0.0041510002 0.0000000000 0.0817850009 1.0000000000
-0.0041629998 0.0000000000 0.0817900002 1.0000000000
-0.0041740001 0.0000000000 0.0817840025 1.0000000000
-0.0041860002 0.0000000000 0.0817819983 1.0000000000
-0.0041990001 0.0000000000 0.0817840025 1.0000000000
-0.0042099999 0.0000000000 0.0817840025 1.0000000000
-0.0042220000 0.0000000000 0.0817819983 1.0000000000
-0.0042340001 0.0000000000 0.0817819983 1.0000000000
-0.0042470000 0.0000000000 0.0817800015 1.0000000000
-0.0042579998 0.0000000000 0.0817800015 1.0000000000
-0.0042710002 0.0000000000 0.0817819983 1.0000000000
-0.0042829998 0.0000000000 0.0817829967 1.0000000000
-0.0042949999 0.0000000000 0.0817840025 1.0000000000
-0.0043070000 0.0000000000 0.0817919970 1.0000000000
-0.0043199998 0.0000000000 0.0817930028 1.0000000000
-0.0043310001 0.0000000000 0.0817890018 1.0000000000
-0.0043429998 0.0000000000 0.0817909986 1.0000000000
-0.0043549999 0.0000000000 0.0817930028 1.0000000000
-0.0043670000 0.0000000000 0.0817909986 1.0000000000
-0.0043790000 0.0000000000 0.0817900002 1.0000000000
-0.0043910001 0.0000000000 0.0817900002 1.0000000000
-0.0044030002 0.0000000000 0.0817869976 1.0000000000
-0.0044160001 0.0000000000 0.0817790031 1.0000000000
-0.0044269999 0.0000000000 0.0817739964 1.0000000000
-0.0044399998 0.0000000000 0.0817710012 1.0000000000
-0.0044510001 0.0000000000 0.0817719996 1.0000000000
-0.0044630002 0.0000000000 0.0817760006 1.0000000000
-0.0044749998 0.0000000000 0.0817779973 1.0000000000
-0.0044880002 0.0000000000 0.0817760006 1.0000000000
-0.0044990000 0.0000000000 0.0817719996 1.0000000000
-0.0045119999 0.0000000000 0.0817700028 1.0000000000
-0.0045230002 0.0000000000 0.0817779973 1.0000000000
-0.0045369999 0.0000000000 0.0817850009 1.0000000000
-0.0045480002 0.0000000000 0.0817890018 1.0000000000
-0.0045599998 0.0000000000 0.0817900002 1.0000000000
-0.0045719999 0.0000000000 0.0817930028 1.0000000000
-0.0045850002 0.0000000000 0.0817930028 1.0000000000
-0.0045969998 0.0000000000 0.0817980021 1.0000000000
-0.0046089999 0.0000000000 0.0817990005 1.0000000000
-0.0046199998 0.0000000000 0.0817930028 1.0000000000
-0.0046330001 0.0000000000 0.0817869976 1.0000000000
-0.0046440000 0.0000000000 0.0817869976 1.0000000000
-0.0046569998 0.0000000000 0.0817880034 1.0000000000
-0.0046680002 0.0000000000 0.0817880034 1.0000000000
-0.0046799998 0.0000000000 0.0817819983 1.0000000000
-0.0046919999 0.0000000000 0.0817840025 1.0000000000
-0.0047050002 0.0000000000 0.0817940012 1.0000000000
-0.0047169998 0.0000000000 0.0817930028 1.0000000000
-0.0047289999 0.0000000000 0.0817919970 1.0000000000
-0.0047410000 0.0000000000 0.0817930028 1.0000000000
-0.0047530001 0.0000000000 0.0817919970 1.0000000000
-0.0047650002 0.0000000000 0.0817909986 1.0000000000
-0.0047769998 0.0000000000 0.0817859992 1.0000000000
-0.0047880001 0.0000000000 0.0817859992 1.0000000000
-0.0048010000 0.0000000000 0.0817880034 1.0000000000
-0.0048130001 0.0000000000 0.0817859992 1.0000000000
-0.0048239999 0.0000000000 0.0817850009 1.0000000000
-0.0048369998 0.0000000000 0.0817890018 1.0000000000
-0.0048489999 0.0000000000 0.0817919970 1.0000000000
-0.0048610000 0.0000000000 0.0817940012 1.0000000000
-0.0048739999 0.0000000000 0.0817980021 1.0000000000
-0.0048850002 0.0000000000 0.0818030015 1.0000000000
-0.0048969998 0.0000000000 0.0818030015 1.0000000000
-0.0049089999 0.0000000000 0.0817990005 1.0000000000
-0.0049210000 0.0000000000 0.0817999989 1.0000000000
-0.0049330001 0.0000000000 0.0817969963 1.0000000000
-0.0049459999 0.0000000000 0.0817949995 1.0000000000
-0.0049569998 0.0000000000 0.0817940012 1.0000000000
-0.0049700001 0.0000000000 0.0817869976 1.0000000000
-0.0049810000 0.0000000000 0.0817840025 1.0000000000
-0.0049930001 0.0000000000 0.0817859992 1.0000000000
-0.0050050002 0.0000000000 0.0817930028 1.0000000000
-0.0050180000 0.0000000000 0.0817959979 1.0000000000
-0.0050300001 0.0000000000 0.0818030015 1.0000000000
-0.0050430000 0.0000000000 0.0818070024 1.0000000000
-0.0050539998 0.0000000000 0.0818110034 1.0000000000
-0.0050670002 0.0000000000 0.0818149969 1.0000000000
-0.0050780000 0.0000000000 0.0818130001 1.0000000000
-0.0050900001 0.0000000000 0.0818089992 1.0000000000
-0.0051020002 0.0000000000 0.0818089992 1.0000000000
-0.0051150001 0.0000000000 0.0818049982 1.0000000000
-0.0051259999 0.0000000000 0.0818030015 1.0000000000
-0.0051380000 0.0000000000 0.0818009973 1.0000000000
-0.0051500001 0.0000000000 0.0818039998 1.0000000000
-0.0051620002 0.0000000000 0.0818089992 1.0000000000
-0.0051739998 0.0000000000 0.0818070024 1.0000000000
-0.0051859999 0.0000000000 0.0818039998 1.0000000000
-0.0051980000 0.0000000000 0.0818039998 1.0000000000
-0.0052100001 0.0000000000 0.0818039998 1.0000000000
-0.0052220002 0.0000000000 0.0818020031 1.0000000000
-0.0052339998 0.0000000000 0.0818020031 1.0000000000
-0.0052459999 0.0000000000 0.0818070024 1.0000000000
-0.0052580000 0.0000000000 0.0818089992 1.0000000000
-0.0052700001 0.0000000000 0.0818070024 1.0000000000
-0.0052820002 0.0000000000 0.0818120018 1.0000000000
-0.0052950000 0.0000000000 0.0818160027 1.0000000000
-0.0053059999 0.0000000000 0.0818089992 1.0000000000
-0.0053180000 0.0000000000 0.0817999989 1.0000000000
-0.0053300001 0.0000000000 0.0817959979 1.0000000000
-0.0053420002 0.0000000000 0.0817959979 1.0000000000
-0.0053539998 0.0000000000 0.0817959979 1.0000000000
-0.0053659999 0.0000000000 0.0818009973 1.0000000000
-0.0053780000 0.0000000000 0.0818030015 1.0000000000
-0.0053900001 0.0000000000 0.0818039998 1.0000000000
-0.0054020002 0.0000000000 0.0818039998 1.0000000000
-0.0054139998 0.0000000000 0.0817969963 1.0000000000
-0.0054259999 0.0000000000 0.0817900002 1.0000000000
-0.0054380000 0.0000000000 0.0817919970 1.0000000000
-0.0054500001 0.0000000000 0.0817949995 1.0000000000
-0.0054620001 0.0000000000 0.0817930028 1.0000000000
-0.0054739998 0.0000000000 0.0817900002 1.0000000000
-0.0054859999 0.0000000000 0.0817949995 1.0000000000
-0.0054980000 0.0000000000 0.0817969963 1.0000000000
-0.0055100000 0.0000000000 0.0817999989 1.0000000000
-0.0055220001 0.0000000000 0.0818049982 1.0000000000
-0.0055340002 0.0000000000 0.0818059966 1.0000000000
-0.0055470001 0.0000000000 0.0818070024 1.0000000000
-0.0055579999 0.0000000000 0.0818059966 1.0000000000
-0.0055709998 0.0000000000 0.0817999989 1.0000000000
-0.0055820001 0.0000000000 0.0817999989 1.0000000000
-0.0055950000 0.0000000000 0.0818049982 1.0000000000
-0.0056070001 0.0000000000 0.0818099976 1.0000000000
-0.0056190002 0.0000000000 0.0818049982 1.0000000000
-0.0056300000 0.0000000000 0.0818049982 1.0000000000
-0.0056429999 0.0000000000 0.0818120018 1.0000000000
-0.0056550000 0.0000000000 0.0818149969 1.0000000000
-0.0056679999 0.0000000000 0.0818139985 1.0000000000
-0.0056790002 0.0000000000 0.0818139985 1.0000000000
-0.0056909998 0.0000000000 0.0818130001 1.0000000000
-0.0057029999 0.0000000000 0.0818139985 1.0000000000
-0.0057160002 0.0000000000 0.0818179995 1.0000000000
-0.0057279998 0.0000000000 0.0818220004 1.0000000000
-0.0057390002 0.0000000000 0.0818139985 1.0000000000
-0.0057509998 0.0000000000 0.0818059966 1.0000000000
-0.0057640001 0.0000000000 0.0818049982 1.0000000000
-0.0057750000 0.0000000000 0.0818110034 1.0000000000
-0.0057879998 0.0000000000 0.0818170011 1.0000000000
-0.0057999999 0.0000000000 0.0818200037 1.0000000000
-0.0058120000 0.0000000000 0.0818149969 1.0000000000
-0.0058229999 0.0000000000 0.0818110034 1.0000000000
-0.0058360002 0.0000000000 0.0818080008 1.0000000000
-0.0058470001 0.0000000000 0.0818120018 1.0000000000
-0.0058599999 0.0000000000 0.0818160027 1.0000000000
-0.0058720000 0.0000000000 0.0818170011 1.0000000000
-0.0058829999 0.0000000000 0.0818120018 1.0000000000
-0.0058950000 0.0000000000 0.0818149969 1.0000000000
-0.0059090001 0.0000000000 0.0818179995 1.0000000000
-0.0059190001 0.0000000000 0.0818149969 1.0000000000
-0.0059310002 0.0000000000 0.0818039998 1.0000000000
-0.0059420001 0.0000000000 0.0817949995 1.0000000000
-0.0059540002 0.0000000000 0.0817980021 1.0000000000
-0.0059670000 0.0000000000 0.0818020031 1.0000000000
-0.0059799999 0.0000000000 0.0818070024 1.0000000000
-0.0059920000 0.0000000000 0.0818179995 1.0000000000
-0.0060040001 0.0000000000 0.0818210021 1.0000000000
-0.0060160002 0.0000000000 0.0818179995 1.0000000000
-0.0060279998 0.0000000000 0.0818139985 1.0000000000
-0.0060399999 0.0000000000 0.0818179995 1.0000000000
-0.0060520000 0.0000000000 0.0818200037 1.0000000000
-0.0060640001 0.0000000000 0.0818139985 1.0000000000
-0.0060760002 0.0000000000 0.0818110034 1.0000000000
-0.0060879998 0.0000000000 0.0818200037 1.0000000000
-0.0061010001 0.0000000000 0.0818179995 1.0000000000
-0.0061110002 0.0000000000 0.0818110034 1.0000000000
-0.0061240001 0.0000000000 0.0818080008 1.0000000000
-0.0061349999 0.0000000000 0.0818099976 1.0000000000
-0.0061470000 0.0000000000 0.0818049982 1.0000000000
-0.0061590001 0.0000000000 0.0818070024 1.0000000000
-0.0061720000 0.0000000000 0.0818130001 1.0000000000
-0.0061840001 0.0000000000 0.0818130001 1.0000000000
-0.0061960001 0.0000000000 0.0818139985 1.0000000000
-0.0062079998 0.0000000000 0.0818239972 1.0000000000
-0.0062210001 0.0000000000 0.0818390027 1.0000000000
-0.0062340000 0.0000000000 0.0818469971 1.0000000000
-0.0062469998 0.0000000000 0.0818519965 1.0000000000
-0.0062589999 0.0000000000 0.0818670020 1.0000000000
-0.0062730000 0.0000000000 0.0818869993 1.0000000000
-0.0062859999 0.0000000000 0.0819080025 1.0000000000
-0.0063000000 0.0000000000 0.0819209963 1.0000000000
-0.0063120001 0.0000000000 0.0819310024 1.0000000000
-0.0063250000 0.0000000000 0.0819469988 1.0000000000
-0.0063379998 0.0000000000 0.0819630027 1.0000000000
-0.0063499999 0.0000000000 0.0819690004 1.0000000000
-0.0063620000 0.0000000000 0.0819749981 1.0000000000
-0.0063749999 0.0000000000 0.0819870010 1.0000000000
-0.0063870000 0.0000000000 0.0819889978 1.0000000000
-0.0064010001 0.0000000000 0.0820060000 1.0000000000
-0.0064150002 0.0000000000 0.0820349976 1.0000000000
-0.0064269998 0.0000000000 0.0820389986 1.0000000000
-0.0064389999 0.0000000000 0.0820399970 1.0000000000
-0.0064510000 0.0000000000 0.0820470005 1.0000000000
-0.0064639999 0.0000000000 0.0820629969 1.0000000000
-0.0064780000 0.0000000000 0.0820749998 1.0000000000
-0.0064900001 0.0000000000 0.0820920020 1.0000000000
-0.0065040002 0.0000000000 0.0821089968 1.0000000000
-0.0065170000 0.0000000000 0.0821229964 1.0000000000
-0.0065299999 0.0000000000 0.0821309984 1.0000000000
-0.0065420000 0.0000000000 0.0821409971 1.0000000000
-0.0065549999 0.0000000000 0.0821520016 1.0000000000
-0.0065680002 0.0000000000 0.0821669996 1.0000000000
-0.0065810001 0.0000000000 0.0821800008 1.0000000000
-0.0065939999 0.0000000000 0.0821930021 1.0000000000
-0.0066060000 0.0000000000 0.0822030008 1.0000000000
-0.0066189999 0.0000000000 0.0822110027 1.0000000000
-0.0066330000 0.0000000000 0.0822250023 1.0000000000
-0.0066450001 0.0000000000 0.0822419971 1.0000000000
-0.0066579999 0.0000000000 0.0822570026 1.0000000000
-0.0066709998 0.0000000000 0.0822699964 1.0000000000
-0.0066840001 0.0000000000 0.0822750032 1.0000000000
-0.0066960002 0.0000000000 0.0822860003 1.0000000000
-0.0067090001 0.0000000000 0.0822999999 1.0000000000
-0.0067220000 0.0000000000 0.0823109969 1.0000000000
-0.0067360001 0.0000000000 0.0823270008 1.0000000000
-0.0067480002 0.0000000000 0.0823379979 1.0000000000
-0.0067610000 0.0000000000 0.0823379979 1.0000000000
-0.0067730001 0.0000000000 0.0823479965 1.0000000000
-0.0067870002 0.0000000000 0.0823659971 1.0000000000
-0.0068000001 0.0000000000 0.0823860019 1.0000000000
-0.0068130000 0.0000000000 0.0824050009 1.0000000000
-0.0068259998 0.0000000000 0.0824130028 1.0000000000
-0.0068390002 0.0000000000 0.0824249983 1.0000000000
-0.0068520000 0.0000000000 0.0824379995 1.0000000000
-0.0068640001 0.0000000000 0.0824479982 1.0000000000
-0.0068770000 0.0000000000 0.0824579969 1.0000000000
-0.0068910001 0.0000000000 0.0824669972 1.0000000000
-0.0069030002 0.0000000000 0.0824809968 1.0000000000
-0.0069160000 0.0000000000 0.0824979991 1.0000000000
-0.0069289999 0.0000000000 0.0825129971 1.0000000000
-0.0069430000 0.0000000000 0.0825309977 1.0000000000
-0.0069559999 0.0000000000 0.0825510025 1.0000000000
-0.0069700000 0.0000000000 0.0825570002 1.0000000000
-0.0069809998 0.0000000000 0.0825629979 1.0000000000
-0.0069940002 0.0000000000 0.0825719982 1.0000000000
-0.0070070000 0.0000000000 0.0825870037 1.0000000000
-0.0070210001 0.0000000000 0.0826060027 1.0000000000
-0.0070329998 0.0000000000 0.0826150030 1.0000000000
-0.0070469999 0.0000000000 0.0826260000 1.0000000000
-0.0070590000 0.0000000000 0.0826319978 1.0000000000
-0.0070730001 0.0000000000 0.0826449990 1.0000000000
-0.0070850002 0.0000000000 0.0826629996 1.0000000000
-0.0070989998 0.0000000000 0.0826719999 1.0000000000
-0.0071109999 0.0000000000 0.0826859996 1.0000000000
-0.0071240002 0.0000000000 0.0826999992 1.0000000000
-0.0071370001 0.0000000000 0.0827110037 1.0000000000
-0.0071510002 0.0000000000 0.0827220008 1.0000000000
-0.0071640001 0.0000000000 0.0827390030 1.0000000000
-0.0071769999 0.0000000000 0.0827500001 1.0000000000
-0.0071899998 0.0000000000 0.0827659965 1.0000000000
-0.0072030001 0.0000000000 0.0827820003 1.0000000000
-0.0072160000 0.0000000000 0.0827929974 1.0000000000
-0.0072289999 0.0000000000 0.0828059986 1.0000000000
-0.0072430000 0.0000000000 0.0828249976 1.0000000000
-0.0072559998 0.0000000000 0.0828419998 1.0000000000
-0.0072690002 0.0000000000 0.0828540027 1.0000000000
-0.0072829998 0.0000000000 0.0828690007 1.0000000000
-0.0072960001 0.0000000000 0.0828830004 1.0000000000
-0.0073090000 0.0000000000 0.0828939974 1.0000000000
-0.0073210001 0.0000000000 0.0829029977 1.0000000000
-0.0073340000 0.0000000000 0.0829050019 1.0000000000
-0.0073460001 0.0000000000 0.0829010010 1.0000000000
-0.0073580001 0.0000000000 0.0828979984 1.0000000000
-0.0073699998 0.0000000000 0.0829079971 1.0000000000
-0.0075759999 0.0000000000 0.0821430013 1.0000000000
-0.0095960004 0.0000000000 0.0824420005 1.0000000000
-0.0096079996 0.0000000000 0.0824410021 1.0000000000
-0.0098179998 0.0000000000 0.0841770023 1.0000000000
-0.0098299999 0.0000000000 0.0841670036 1.0000000000
-0.0098409997 0.0000000000 0.0841550007 1.0000000000
-0.0098230001 0.0000000000 0.0838560015 1.0000000000
-0.0098339999 0.0000000000 0.0838479996 1.0000000000
-0.0098449998 0.0000000000 0.0838280022 1.0000000000
-0.0097890003 0.0000000000 0.0829259977 1.0000000000
-0.0098040001 0.0000000000 0.0829569995 1.0000000000
-0.0098160002 0.0000000000 0.0829479992 1.0000000000
-0.0098280003 0.0000000000 0.0829410031 1.0000000000
-0.0098390002 0.0000000000 0.0829370022 1.0000000000
-0.0098500000 0.0000000000 0.0829299986 1.0000000000
-0.0098609999 0.0000000000 0.0829249993 1.0000000000
-0.0098730000 0.0000000000 0.0829230025 1.0000000000
-0.0098850001 0.0000000000 0.0829180032 1.0000000000
-0.0098970002 0.0000000000 0.0829090029 1.0000000000
-0.0099069998 0.0000000000 0.0828989968 1.0000000000
-0.0099189999 0.0000000000 0.0828879997 1.0000000000
-0.0099290004 0.0000000000 0.0828799978 1.0000000000
-0.0099400003 0.0000000000 0.0828680024 1.0000000000
-0.0099510001 0.0000000000 0.0828550011 1.0000000000
-0.0099620000 0.0000000000 0.0828450024 1.0000000000
-0.0099729998 0.0000000000 0.0828360021 1.0000000000
-0.0099849999 0.0000000000 0.0828270018 1.0000000000
-0.0099950004 0.0000000000 0.0828220025 1.0000000000
-0.0100069996 0.0000000000 0.0828159973 1.0000000000
-0.0100180004 0.0000000000 0.0828059986 1.0000000000
-0.0100290002 0.0000000000 0.0827929974 1.0000000000
-0.0100389998 0.0000000000 0.0827829987 1.0000000000
-0.0100499997 0.0000000000 0.0827659965 1.0000000000
-0.0100600002 0.0000000000 0.0827500001 1.0000000000
-0.0100720003 0.0000000000 0.0827400014 1.0000000000
-0.0100830002 0.0000000000 0.0827400014 1.0000000000
-0.0100940000 0.0000000000 0.0827289969 1.0000000000
-0.0101039996 0.0000000000 0.0827099979 1.0000000000
-0.0101150004 0.0000000000 0.0826980025 1.0000000000
-0.0101260003 0.0000000000 0.0826930031 1.0000000000
-0.0101389997 0.0000000000 0.0826890022 1.0000000000
-0.0101490002 0.0000000000 0.0826829970 1.0000000000
-0.0101600001 0.0000000000 0.0826620013 1.0000000000
-0.0101690004 0.0000000000 0.0826480016 1.0000000000
-0.0101810005 0.0000000000 0.0826440006 1.0000000000
-0.0101920003 0.0000000000 0.0826369971 1.0000000000
-0.0102030002 0.0000000000 0.0826269984 1.0000000000
-0.0102140000 0.0000000000 0.0826189965 1.0000000000
-0.0102260001 0.0000000000 0.0826110020 1.0000000000
-0.0102370000 0.0000000000 0.0826010033 1.0000000000
-0.0102469996 0.0000000000 0.0825890005 1.0000000000
-0.0102580003 0.0000000000 0.0825780034 1.0000000000
-0.0102700004 0.0000000000 0.0825679973 1.0000000000
-0.0102800000 0.0000000000 0.0825610012 1.0000000000
-0.0102920001 0.0000000000 0.0825520009 1.0000000000
-0.0103019997 0.0000000000 0.0825430006 1.0000000000
-0.0103139998 0.0000000000 0.0825330019 1.0000000000
-0.0103249997 0.0000000000 0.0825269967 1.0000000000
-0.0103359995 0.0000000000 0.0825200006 1.0000000000
-0.0103460001 0.0000000000 0.0825039968 1.0000000000
-0.0103559997 0.0000000000 0.0824849978 1.0000000000
-0.0103669995 0.0000000000 0.0824770033 1.0000000000
-0.0103789996 0.0000000000 0.0824659988 1.0000000000
-0.0103890002 0.0000000000 0.0824609995 1.0000000000
-0.0104010003 0.0000000000 0.0824550018 1.0000000000
-0.0104109999 0.0000000000 0.0824439973 1.0000000000
-0.0104219997 0.0000000000 0.0824330002 1.0000000000
-0.0104329996 0.0000000000 0.0824239999 1.0000000000
-0.0104440004 0.0000000000 0.0824169964 1.0000000000
-0.0104560005 0.0000000000 0.0824140012 1.0000000000
-0.0104679996 0.0000000000 0.0824029967 1.0000000000
-0.0104780002 0.0000000000 0.0823919997 1.0000000000
-0.0104890000 0.0000000000 0.0823850036 1.0000000000
-0.0104999999 0.0000000000 0.0823760033 1.0000000000
-0.0105109997 0.0000000000 0.0823659971 1.0000000000
-0.0105219996 0.0000000000 0.0823609978 1.0000000000
-0.0105339997 0.0000000000 0.0823530033 1.0000000000
-0.0105440002 0.0000000000 0.0823419988 1.0000000000
-0.0105539998 0.0000000000 0.0823239982 1.0000000000
-0.0105640003 0.0000000000 0.0823080018 1.0000000000
-0.0105750002 0.0000000000 0.0822980031 1.0000000000
-0.0105860000 0.0000000000 0.0822900012 1.0000000000
-0.0105980001 0.0000000000 0.0822819993 1.0000000000
-0.0106079997 0.0000000000 0.0822750032 1.0000000000
-0.0106199998 0.0000000000 0.0822660029 1.0000000000
-0.0106309997 0.0000000000 0.0822630003 1.0000000000
-0.0106419995 0.0000000000 0.0822520033 1.0000000000
-0.0106509998 0.0000000000 0.0822279975 1.0000000000
-0.0106610004 0.0000000000 0.0822120011 1.0000000000
-0.0106729995 0.0000000000 0.0822070017 1.0000000000
-0.0106840003 0.0000000000 0.0822039992 1.0000000000
-0.0106950002 0.0000000000 0.0821949989 1.0000000000
-0.0107060000 0.0000000000 0.0821869969 1.0000000000
-0.0107180001 0.0000000000 0.0821830034 1.0000000000
-0.0107290000 0.0000000000 0.0821759999 1.0000000000
-0.0107399998 0.0000000000 0.0821669996 1.0000000000
-0.0107509997 0.0000000000 0.0821579993 1.0000000000
-0.0107620005 0.0000000000 0.0821499974 1.0000000000
-0.0107730003 0.0000000000 0.0821370035 1.0000000000
-0.0107829999 0.0000000000 0.0821250007 1.0000000000
-0.0107939998 0.0000000000 0.0821179971 1.0000000000
-0.0108049996 0.0000000000 0.0821119994 1.0000000000
-0.0108169997 0.0000000000 0.0821029991 1.0000000000
-0.0108279996 0.0000000000 0.0820960030 1.0000000000
-0.0108390003 0.0000000000 0.0820870027 1.0000000000
-0.0108500002 0.0000000000 0.0820809975 1.0000000000
-0.0108610000 0.0000000000 0.0820690021 1.0000000000
-0.0108700003 0.0000000000 0.0820510015 1.0000000000
-0.0108810002 0.0000000000 0.0820370018 1.0000000000
-0.0108920000 0.0000000000 0.0820320025 1.0000000000
-0.0109019997 0.0000000000 0.0820230022 1.0000000000
-0.0109130004 0.0000000000 0.0820130035 1.0000000000
-0.0109240003 0.0000000000 0.0820069984 1.0000000000
-0.0109360004 0.0000000000 0.0820040032 1.0000000000
-0.0109479995 0.0000000000 0.0819979981 1.0000000000
-0.0109580001 0.0000000000 0.0819889978 1.0000000000
-0.0109679997 0.0000000000 0.0819730014 1.0000000000
-0.0109789995 0.0000000000 0.0819630027 1.0000000000
-0.0109900003 0.0000000000 0.0819509998 1.0000000000
-0.0109999999 0.0000000000 0.0819389969 1.0000000000
-0.0110099996 0.0000000000 0.0819299966 1.0000000000
-0.0110210003 0.0000000000 0.0819220021 1.0000000000
-0.0110330004 0.0000000000 0.0819159970 1.0000000000
-0.0110440003 0.0000000000 0.0819170028 1.0000000000
-0.0110560004 0.0000000000 0.0819130018 1.0000000000
-0.0110670002 0.0000000000 0.0819080025 1.0000000000
-0.0110790003 0.0000000000 0.0819049999 1.0000000000
-0.0110900002 0.0000000000 0.0819030032 1.0000000000
-0.0111020003 0.0000000000 0.0819049999 1.0000000000
-0.0111149997 0.0000000000 0.0819120035 1.0000000000
-0.0111280000 0.0000000000 0.0819189996 1.0000000000
-0.0111400001 0.0000000000 0.0819189996 1.0000000000
-0.0111509999 0.0000000000 0.0819120035 1.0000000000
-0.0111630000 0.0000000000 0.0819140002 1.0000000000
-0.0111750001 0.0000000000 0.0819140002 1.0000000000
-0.0111870002 0.0000000000 0.0819130018 1.0000000000
-0.0111990003 0.0000000000 0.0819090009 1.0000000000
-0.0112100001 0.0000000000 0.0819069967 1.0000000000
-0.0112220002 0.0000000000 0.0819090009 1.0000000000
-0.0112340003 0.0000000000 0.0819120035 1.0000000000
-0.0112469997 0.0000000000 0.0819159970 1.0000000000
-0.0112589998 0.0000000000 0.0819209963 1.0000000000
-0.0112709999 0.0000000000 0.0819199979 1.0000000000
-0.0112819998 0.0000000000 0.0819170028 1.0000000000
-0.0112929996 0.0000000000 0.0819120035 1.0000000000
-0.0113049997 0.0000000000 0.0819090009 1.0000000000
-0.0113180000 0.0000000000 0.0819099993 1.0000000000
-0.0113289999 0.0000000000 0.0819090009 1.0000000000
-0.0113399997 0.0000000000 0.0819069967 1.0000000000
-0.0113519998 0.0000000000 0.0819059983 1.0000000000
-0.0113650002 0.0000000000 0.0819069967 1.0000000000
-0.0113760000 0.0000000000 0.0819080025 1.0000000000
-0.0113890003 0.0000000000 0.0819069967 1.0000000000
-0.0114000002 0.0000000000 0.0819069967 1.0000000000
-0.0114110000 0.0000000000 0.0819040015 1.0000000000
-0.0114230001 0.0000000000 0.0819059983 1.0000000000
-0.0114350002 0.0000000000 0.0819059983 1.0000000000
-0.0114470003 0.0000000000 0.0819069967 1.0000000000
-0.0114610000 0.0000000000 0.0819159970 1.0000000000
-0.0114719998 0.0000000000 0.0819189996 1.0000000000
-0.0114839999 0.0000000000 0.0819149986 1.0000000000
-0.0114960000 0.0000000000 0.0819159970 1.0000000000
-0.0115080001 0.0000000000 0.0819159970 1.0000000000
-0.0115189999 0.0000000000 0.0819130018 1.0000000000
-0.0115320003 0.0000000000 0.0819109976 1.0000000000
-0.0115430001 0.0000000000 0.0819130018 1.0000000000
-0.0115560004 0.0000000000 0.0819180012 1.0000000000
-0.0115679996 0.0000000000 0.0819260031 1.0000000000
-0.0115799997 0.0000000000 0.0819220021 1.0000000000
-0.0115909996 0.0000000000 0.0819159970 1.0000000000
-0.0116029996 0.0000000000 0.0819159970 1.0000000000
-0.0116149997 0.0000000000 0.0819170028 1.0000000000
-0.0116259996 0.0000000000 0.0819099993 1.0000000000
-0.0116370004 0.0000000000 0.0819040015 1.0000000000
-0.0116490005 0.0000000000 0.0819069967 1.0000000000
-0.0116619999 0.0000000000 0.0819170028 1.0000000000
-0.0116750002 0.0000000000 0.0819189996 1.0000000000
-0.0116860000 0.0000000000 0.0819180012 1.0000000000
-0.0116969999 0.0000000000 0.0819149986 1.0000000000
-0.0117090000 0.0000000000 0.0819130018 1.0000000000
-0.0117220003 0.0000000000 0.0819109976 1.0000000000
-0.0117330002 0.0000000000 0.0819099993 1.0000000000
-0.0117440000 0.0000000000 0.0819069967 1.0000000000
-0.0117570003 0.0000000000 0.0819130018 1.0000000000
-0.0117699997 0.0000000000 0.0819249973 1.0000000000
-0.0117830001 0.0000000000 0.0819310024 1.0000000000
-0.0117950002 0.0000000000 0.0819279999 1.0000000000
-0.0118049998 0.0000000000 0.0819230005 1.0000000000
-0.0118180001 0.0000000000 0.0819220021 1.0000000000
-0.0118290000 0.0000000000 0.0819199979 1.0000000000
-0.0118410001 0.0000000000 0.0819199979 1.0000000000
-0.0118530001 0.0000000000 0.0819249973 1.0000000000
-0.0118650002 0.0000000000 0.0819230005 1.0000000000
-0.0118770003 0.0000000000 0.0819220021 1.0000000000
-0.0118890004 0.0000000000 0.0819260031 1.0000000000
-0.0119009996 0.0000000000 0.0819270015 1.0000000000
-0.0119129997 0.0000000000 0.0819199979 1.0000000000
-0.0119230002 0.0000000000 0.0819149986 1.0000000000
-0.0119359996 0.0000000000 0.0819130018 1.0000000000
-0.0119470004 0.0000000000 0.0819189996 1.0000000000
-0.0119599998 0.0000000000 0.0819239989 1.0000000000
-0.0119719999 0.0000000000 0.0819260031 1.0000000000
-0.0119840000 0.0000000000 0.0819199979 1.0000000000
-0.0119939996 0.0000000000 0.0819140002 1.0000000000
-0.0120059997 0.0000000000 0.0819159970 1.0000000000
-0.0120190000 0.0000000000 0.0819199979 1.0000000000
-0.0120310001 0.0000000000 0.0819189996 1.0000000000
-0.0120430002 0.0000000000 0.0819209963 1.0000000000
-0.0120550003 0.0000000000 0.0819249973 1.0000000000
-0.0120670004 0.0000000000 0.0819279999 1.0000000000
-0.0120789995 0.0000000000 0.0819249973 1.0000000000
-0.0120900003 0.0000000000 0.0819220021 1.0000000000
-0.0121029997 0.0000000000 0.0819260031 1.0000000000
-0.0121149998 0.0000000000 0.0819299966 1.0000000000
-0.0121280001 0.0000000000 0.0819310024 1.0000000000
-0.0121379998 0.0000000000 0.0819249973 1.0000000000
-0.0121510001 0.0000000000 0.0819220021 1.0000000000
-0.0121619999 0.0000000000 0.0819279999 1.0000000000
-0.0121750003 0.0000000000 0.0819289982 1.0000000000
-0.0121870004 0.0000000000 0.0819310024 1.0000000000
-0.0121980002 0.0000000000 0.0819289982 1.0000000000
-0.0122090001 0.0000000000 0.0819209963 1.0000000000
-0.0122210002 0.0000000000 0.0819249973 1.0000000000
-0.0122349998 0.0000000000 0.0819350034 1.0000000000
-0.0122459996 0.0000000000 0.0819339976 1.0000000000
-0.0122570004 0.0000000000 0.0819279999 1.0000000000
-0.0122689996 0.0000000000 0.0819209963 1.0000000000
-0.0122800004 0.0000000000 0.0819199979 1.0000000000
-0.0122929998 0.0000000000 0.0819199979 1.0000000000
