VERSION 0.7
FIELDS x y z intensity
SIZE 4 4 4 4
TYPE F F F F
COUNT 1 1 1 1
WIDTH 1286
HEIGHT 1
VIEWPOINT 0.0 0.0 0.0 1.0 0.0 0.0 0.0
POINTS 1286
DATA ascii
0.0121710002 0.0000000000 0.0817029998 1.0000000000
0.0121569997 0.0000000000 0.0816989988 1.0000000000
0.0121459998 0.0000000000 0.0816970021 1.0000000000
0.0121330004 0.0000000000 0.0816930011 1.0000000000
0.0121219996 0.0000000000 0.0816949978 1.0000000000
0.0121109998 0.0000000000 0.0816980004 1.0000000000
0.0120999999 0.0000000000 0.0817039981 1.0000000000
0.0120869996 0.0000000000 0.0817070007 1.0000000000
0.0120770000 0.0000000000 0.0817079991 1.0000000000
0.0120639997 0.0000000000 0.0817079991 1.0000000000
0.0120529998 0.0000000000 0.0817089975 1.0000000000
0.0120409997 0.0000000000 0.0817029998 1.0000000000
0.0120299999 0.0000000000 0.0817070007 1.0000000000
0.0120169995 0.0000000000 0.0817139968 1.0000000000
0.0120059997 0.0000000000 0.0817100033 1.0000000000
0.0119920000 0.0000000000 0.0816980004 1.0000000000
0.0119810002 0.0000000000 0.0816989988 1.0000000000
0.0119690001 0.0000000000 0.0817060024 1.0000000000
0.0119589996 0.0000000000 0.0817110017 1.0000000000
0.0119470004 0.0000000000 0.0817120001 1.0000000000
0.0119369999 0.0000000000 0.0817190036 1.0000000000
0.0119249998 0.0000000000 0.0817210004 1.0000000000
0.0119129997 0.0000000000 0.0817169994 1.0000000000
0.0118990000 0.0000000000 0.0817139968 1.0000000000
0.0118890004 0.0000000000 0.0817190036 1.0000000000
0.0118760001 0.0000000000 0.0817160010 1.0000000000
0.0118640000 0.0000000000 0.0817070007 1.0000000000
0.0118500004 0.0000000000 0.0816999972 1.0000000000
0.0118389996 0.0000000000 0.0816970021 1.0000000000
0.0118260002 0.0000000000 0.0816920027 1.0000000000
0.0118159996 0.0000000000 0.0817010030 1.0000000000
0.0118039995 0.0000000000 0.0817089975 1.0000000000
0.0117950002 0.0000000000 0.0817160010 1.0000000000
0.0117830001 0.0000000000 0.0817219988 1.0000000000
0.0117710000 0.0000000000 0.0817169994 1.0000000000
0.0117570003 0.0000000000 0.0817070007 1.0000000000
0.0117459996 0.0000000000 0.0817020014 1.0000000000
0.0117319999 0.0000000000 0.0816989988 1.0000000000
0.0117220003 0.0000000000 0.0817029998 1.0000000000
0.0117090000 0.0000000000 0.0817060024 1.0000000000
0.0116990004 0.0000000000 0.0817110017 1.0000000000
0.0116879996 0.0000000000 0.0817120001 1.0000000000
0.0116760004 0.0000000000 0.0817100033 1.0000000000
0.0116630001 0.0000000000 0.0817139968 1.0000000000
0.0116520002 0.0000000000 0.0817100033 1.0000000000
0.0116379997 0.0000000000 0.0816989988 1.0000000000
0.0116269998 0.0000000000 0.0816999972 1.0000000000
0.0116170002 0.0000000000 0.0817120001 1.0000000000
0.0116060004 0.0000000000 0.0817229971 1.0000000000
0.0115940003 0.0000000000 0.0817179978 1.0000000000
0.0115809999 0.0000000000 0.0817100033 1.0000000000
0.0115679996 0.0000000000 0.0817060024 1.0000000000
0.0115560004 0.0000000000 0.0817010030 1.0000000000
0.0115430001 0.0000000000 0.0816949978 1.0000000000
0.0115329996 0.0000000000 0.0817020014 1.0000000000
0.0115200002 0.0000000000 0.0817060024 1.0000000000
0.0115109999 0.0000000000 0.0817120001 1.0000000000
0.0114979995 0.0000000000 0.0817139968 1.0000000000
0.0114869997 0.0000000000 0.0817120001 1.0000000000
0.0114740003 0.0000000000 0.0817120001 1.0000000000
0.0114639997 0.0000000000 0.0817179978 1.0000000000
0.0114519997 0.0000000000 0.0817190036 1.0000000000
0.0114409998 0.0000000000 0.0817240030 1.0000000000
0.0114300000 0.0000000000 0.0817259997 1.0000000000
0.0114169996 0.0000000000 0.0817210004 1.0000000000
0.0114030000 0.0000000000 0.0817150027 1.0000000000
0.0113930004 0.0000000000 0.0817139968 1.0000000000
0.0113800000 0.0000000000 0.0817150027 1.0000000000
0.0113700004 0.0000000000 0.0817229971 1.0000000000
0.0113570001 0.0000000000 0.0817229971 1.0000000000
0.0113450000 0.0000000000 0.0817129984 1.0000000000
0.0113329999 0.0000000000 0.0817079991 1.0000000000
0.0113209998 0.0000000000 0.0817039981 1.0000000000
0.0113100000 0.0000000000 0.0817110017 1.0000000000
0.0112990001 0.0000000000 0.0817210004 1.0000000000
0.0112849995 0.0000000000 0.0817150027 1.0000000000
0.0112739997 0.0000000000 0.0817110017 1.0000000000
0.0112629998 0.0000000000 0.0817169994 1.0000000000
0.0112509998 0.0000000000 0.0817150027 1.0000000000
0.0112370001 0.0000000000 0.0817060024 1.0000000000
0.0112260003 0.0000000000 0.0817029998 1.0000000000
0.0112140002 0.0000000000 0.0817029998 1.0000000000
0.0112020001 0.0000000000 0.0817020014 1.0000000000
0.0111889997 0.0000000000 0.0817039981 1.0000000000
0.0111790001 0.0000000000 0.0817039981 1.0000000000
0.0111680003 0.0000000000 0.0817100033 1.0000000000
0.0111570004 0.0000000000 0.0817190036 1.0000000000
0.0111450003 0.0000000000 0.0817240030 1.0000000000
0.0111339996 0.0000000000 0.0817200020 1.0000000000
0.0111189997 0.0000000000 0.0817110017 1.0000000000
0.0111079998 0.0000000000 0.0817070007 1.0000000000
0.0110950004 0.0000000000 0.0817029998 1.0000000000
0.0110839996 0.0000000000 0.0817039981 1.0000000000
0.0110740000 0.0000000000 0.0817169994 1.0000000000
0.0110649997 0.0000000000 0.0817409977 1.0000000000
0.0110539999 0.0000000000 0.0817499980 1.0000000000
0.0110430000 0.0000000000 0.0817560032 1.0000000000
0.0110299997 0.0000000000 0.0817570016 1.0000000000
0.0110200001 0.0000000000 0.0817580000 1.0000000000
0.0110099996 0.0000000000 0.0817700028 1.0000000000
0.0109999999 0.0000000000 0.0817900002 1.0000000000
0.0109890001 0.0000000000 0.0818009973 1.0000000000
0.0109780002 0.0000000000 0.0818059966 1.0000000000
0.0109679997 0.0000000000 0.0818179995 1.0000000000
0.0109569998 0.0000000000 0.0818300024 1.0000000000
0.0109460000 0.0000000000 0.0818369985 1.0000000000
0.0109350001 0.0000000000 0.0818400010 1.0000000000
0.0109219998 0.0000000000 0.0818419978 1.0000000000
0.0109120002 0.0000000000 0.0818440020 1.0000000000
0.0109000001 0.0000000000 0.0818570033 1.0000000000
0.0108930003 0.0000000000 0.0818839967 1.0000000000
0.0108800000 0.0000000000 0.0818890035 1.0000000000
0.0108700003 0.0000000000 0.0818900019 1.0000000000
0.0108580003 0.0000000000 0.0819009990 1.0000000000
0.0108500002 0.0000000000 0.0819189996 1.0000000000
0.0108380001 0.0000000000 0.0819320008 1.0000000000
0.0108289998 0.0000000000 0.0819479972 1.0000000000
0.0108180000 0.0000000000 0.0819609985 1.0000000000
0.0108080003 0.0000000000 0.0819690004 1.0000000000
0.0107960002 0.0000000000 0.0819749981 1.0000000000
0.0107869999 0.0000000000 0.0819879994 1.0000000000
0.0107749999 0.0000000000 0.0820000023 1.0000000000
0.0107659996 0.0000000000 0.0820090026 1.0000000000
0.0107530002 0.0000000000 0.0820119977 1.0000000000
0.0107429996 0.0000000000 0.0820159987 1.0000000000
0.0107319998 0.0000000000 0.0820230022 1.0000000000
0.0107209999 0.0000000000 0.0820320025 1.0000000000
0.0107100001 0.0000000000 0.0820429996 1.0000000000
0.0107000005 0.0000000000 0.0820560008 1.0000000000
0.0106889997 0.0000000000 0.0820659995 1.0000000000
0.0106779998 0.0000000000 0.0820730031 1.0000000000
0.0106670000 0.0000000000 0.0820849985 1.0000000000
0.0106579997 0.0000000000 0.0821039975 1.0000000000
0.0106469998 0.0000000000 0.0821160004 1.0000000000
0.0106360000 0.0000000000 0.0821209997 1.0000000000
0.0106250001 0.0000000000 0.0821340010 1.0000000000
0.0106149996 0.0000000000 0.0821510032 1.0000000000
0.0106039997 0.0000000000 0.0821639970 1.0000000000
0.0105940001 0.0000000000 0.0821759999 1.0000000000
0.0105820000 0.0000000000 0.0821840018 1.0000000000
0.0105720004 0.0000000000 0.0821909979 1.0000000000
0.0105590001 0.0000000000 0.0821890011 1.0000000000
0.0105480002 0.0000000000 0.0821919963 1.0000000000
0.0105370004 0.0000000000 0.0822020024 1.0000000000
0.0105269998 0.0000000000 0.0822160020 1.0000000000
0.0105160000 0.0000000000 0.0822210014 1.0000000000
0.0105050001 0.0000000000 0.0822279975 1.0000000000
0.0104930000 0.0000000000 0.0822440013 1.0000000000
0.0104850000 0.0000000000 0.0822679996 1.0000000000
0.0104750004 0.0000000000 0.0822829977 1.0000000000
0.0104630003 0.0000000000 0.0822879970 1.0000000000
0.0104520004 0.0000000000 0.0822909996 1.0000000000
0.0104409996 0.0000000000 0.0822969973 1.0000000000
0.0104289996 0.0000000000 0.0823049992 1.0000000000
0.0104179997 0.0000000000 0.0823130012 1.0000000000
0.0104080001 0.0000000000 0.0823220015 1.0000000000
0.0103970002 0.0000000000 0.0823369995 1.0000000000
0.0103860004 0.0000000000 0.0823519975 1.0000000000
0.0103770001 0.0000000000 0.0823670030 1.0000000000
0.0103639998 0.0000000000 0.0823699981 1.0000000000
0.0103540001 0.0000000000 0.0823749974 1.0000000000
0.0103420001 0.0000000000 0.0823870003 1.0000000000
0.0103329998 0.0000000000 0.0824040025 1.0000000000
0.0103209997 0.0000000000 0.0824149996 1.0000000000
0.0103110000 0.0000000000 0.0824230015 1.0000000000
0.0102979997 0.0000000000 0.0824239999 1.0000000000
0.0102880001 0.0000000000 0.0824299976 1.0000000000
0.0102770003 0.0000000000 0.0824370012 1.0000000000
0.0102660004 0.0000000000 0.0824500024 1.0000000000
0.0102549996 0.0000000000 0.0824640021 1.0000000000
0.0102460003 0.0000000000 0.0824799985 1.0000000000
0.0102359997 0.0000000000 0.0824979991 1.0000000000
0.0102249999 0.0000000000 0.0825100020 1.0000000000
0.0102129998 0.0000000000 0.0825179964 1.0000000000
0.0102030002 0.0000000000 0.0825280026 1.0000000000
0.0101920003 0.0000000000 0.0825330019 1.0000000000
0.0101800002 0.0000000000 0.0825409964 1.0000000000
0.0101690004 0.0000000000 0.0825550035 1.0000000000
0.0101589998 0.0000000000 0.0825669989 1.0000000000
0.0101480000 0.0000000000 0.0825740024 1.0000000000
0.0101370001 0.0000000000 0.0825859979 1.0000000000
0.0101260003 0.0000000000 0.0826049969 1.0000000000
0.0101170000 0.0000000000 0.0826219991 1.0000000000
0.0101049999 0.0000000000 0.0826309994 1.0000000000
0.0100950003 0.0000000000 0.0826369971 1.0000000000
0.0100840004 0.0000000000 0.0826440006 1.0000000000
0.0100729996 0.0000000000 0.0826549977 1.0000000000
0.0100609995 0.0000000000 0.0826660022 1.0000000000
0.0100509999 0.0000000000 0.0826769993 1.0000000000
0.0100389998 0.0000000000 0.0826829970 1.0000000000
0.0100290002 0.0000000000 0.0826949999 1.0000000000
0.0100170001 0.0000000000 0.0827070028 1.0000000000
0.0100079998 0.0000000000 0.0827189982 1.0000000000
0.0099950004 0.0000000000 0.0827270001 1.0000000000
0.0099860001 0.0000000000 0.0827369988 1.0000000000
0.0099740000 0.0000000000 0.0827509984 1.0000000000
0.0099649997 0.0000000000 0.0827670023 1.0000000000
0.0099539999 0.0000000000 0.0827749968 1.0000000000
0.0099419998 0.0000000000 0.0827800035 1.0000000000
0.0099299997 0.0000000000 0.0827860013 1.0000000000
0.0099200001 0.0000000000 0.0828000009 1.0000000000
0.0099090002 0.0000000000 0.0828099996 1.0000000000
0.0098980004 0.0000000000 0.0828140005 1.0000000000
0.0098860003 0.0000000000 0.0828189999 1.0000000000
0.0098750005 0.0000000000 0.0828270018 1.0000000000
0.0098630004 0.0000000000 0.0828329995 1.0000000000
0.0098519996 0.0000000000 0.0828379989 1.0000000000
0.0098390002 0.0000000000 0.0828410015 1.0000000000
0.0099320002 0.0000000000 0.0838389993 1.0000000000
0.0099200001 0.0000000000 0.0838449970 1.0000000000
0.0099069998 0.0000000000 0.0838399976 1.0000000000
0.0098930001 0.0000000000 0.0838290006 1.0000000000
0.0098820003 0.0000000000 0.0838290006 1.0000000000
0.0098689999 0.0000000000 0.0838309973 1.0000000000
0.0098580001 0.0000000000 0.0838280022 1.0000000000
0.0075880000 0.0000000000 0.0828389972 1.0000000000
0.0075750002 0.0000000000 0.0828450024 1.0000000000
0.0075639999 0.0000000000 0.0828500018 1.0000000000
0.0075510000 0.0000000000 0.0828510001 1.0000000000
0.0075400001 0.0000000000 0.0828529969 1.0000000000
0.0075280000 0.0000000000 0.0828500018 1.0000000000
0.0075150002 0.0000000000 0.0828410015 1.0000000000
0.0075010001 0.0000000000 0.0828239992 1.0000000000
0.0074880002 0.0000000000 0.0828050002 1.0000000000
0.0074740001 0.0000000000 0.0827889964 1.0000000000
0.0074620000 0.0000000000 0.0827779993 1.0000000000
0.0074490001 0.0000000000 0.0827699974 1.0000000000
0.0074359998 0.0000000000 0.0827599987 1.0000000000
0.0074220002 0.0000000000 0.0827450007 1.0000000000
0.0074100001 0.0000000000 0.0827319995 1.0000000000
0.0073960000 0.0000000000 0.0827210024 1.0000000000
0.0073839999 0.0000000000 0.0827130005 1.0000000000
0.0073710000 0.0000000000 0.0826969966 1.0000000000
0.0073569999 0.0000000000 0.0826800019 1.0000000000
0.0073429998 0.0000000000 0.0826689973 1.0000000000
0.0073320000 0.0000000000 0.0826649964 1.0000000000
0.0073179998 0.0000000000 0.0826560035 1.0000000000
0.0073060002 0.0000000000 0.0826409981 1.0000000000
0.0072929999 0.0000000000 0.0826269984 1.0000000000
0.0072809998 0.0000000000 0.0826229975 1.0000000000
0.0072670002 0.0000000000 0.0826129988 1.0000000000
0.0072550001 0.0000000000 0.0826039985 1.0000000000
0.0072420002 0.0000000000 0.0825949982 1.0000000000
0.0072289999 0.0000000000 0.0825849995 1.0000000000
0.0072150002 0.0000000000 0.0825679973 1.0000000000
0.0072030001 0.0000000000 0.0825570002 1.0000000000
0.0071890000 0.0000000000 0.0825460032 1.0000000000
0.0071769999 0.0000000000 0.0825340003 1.0000000000
0.0071629998 0.0000000000 0.0825179964 1.0000000000
0.0071510002 0.0000000000 0.0825029984 1.0000000000
0.0071379999 0.0000000000 0.0824889988 1.0000000000
0.0071250000 0.0000000000 0.0824799985 1.0000000000
0.0071109999 0.0000000000 0.0824730024 1.0000000000
0.0071000000 0.0000000000 0.0824659988 1.0000000000
0.0070870002 0.0000000000 0.0824529976 1.0000000000
0.0070730001 0.0000000000 0.0824330002 1.0000000000
0.0070590000 0.0000000000 0.0824149996 1.0000000000
0.0070469999 0.0000000000 0.0824029967 1.0000000000
0.0070329998 0.0000000000 0.0823950022 1.0000000000
0.0070219999 0.0000000000 0.0823910013 1.0000000000
0.0070099998 0.0000000000 0.0823829994 1.0000000000
0.0069960002 0.0000000000 0.0823689997 1.0000000000
0.0069820001 0.0000000000 0.0823540017 1.0000000000
0.0069700000 0.0000000000 0.0823400021 1.0000000000
0.0069559999 0.0000000000 0.0823289976 1.0000000000
0.0069439998 0.0000000000 0.0823170021 1.0000000000
0.0069300001 0.0000000000 0.0822999999 1.0000000000
0.0069189998 0.0000000000 0.0822929963 1.0000000000
0.0069060000 0.0000000000 0.0822860003 1.0000000000
0.0068930001 0.0000000000 0.0822750032 1.0000000000
0.0068799998 0.0000000000 0.0822639987 1.0000000000
0.0068669999 0.0000000000 0.0822480023 1.0000000000
0.0068529998 0.0000000000 0.0822260007 1.0000000000
0.0068399999 0.0000000000 0.0822139978 1.0000000000
0.0068279998 0.0000000000 0.0822110027 1.0000000000
0.0068160002 0.0000000000 0.0822099969 1.0000000000
0.0068020001 0.0000000000 0.0821980014 1.0000000000
0.0067900000 0.0000000000 0.0821779966 1.0000000000
0.0067759999 0.0000000000 0.0821679980 1.0000000000
0.0067650001 0.0000000000 0.0821660012 1.0000000000
0.0067500002 0.0000000000 0.0821510032 1.0000000000
0.0067389999 0.0000000000 0.0821449980 1.0000000000
0.0067250002 0.0000000000 0.0821359977 1.0000000000
0.0067130001 0.0000000000 0.0821190029 1.0000000000
0.0066990000 0.0000000000 0.0821020007 1.0000000000
0.0066869999 0.0000000000 0.0820979998 1.0000000000
0.0066749998 0.0000000000 0.0820949972 1.0000000000
0.0066620000 0.0000000000 0.0820740014 1.0000000000
0.0066470001 0.0000000000 0.0820460021 1.0000000000
0.0066350000 0.0000000000 0.0820410028 1.0000000000
0.0066229999 0.0000000000 0.0820370018 1.0000000000
0.0066100000 0.0000000000 0.0820259973 1.0000000000
0.0065959999 0.0000000000 0.0820050016 1.0000000000
0.0065830001 0.0000000000 0.0819820017 1.0000000000
0.0065710000 0.0000000000 0.0819739997 1.0000000000
0.0065580001 0.0000000000 0.0819640011 1.0000000000
0.0065449998 0.0000000000 0.0819490030 1.0000000000
0.0065330002 0.0000000000 0.0819469988 1.0000000000
0.0065199998 0.0000000000 0.0819419995 1.0000000000
0.0065080002 0.0000000000 0.0819339976 1.0000000000
0.0064940001 0.0000000000 0.0819249973 1.0000000000
0.0064829998 0.0000000000 0.0819199979 1.0000000000
0.0064690001 0.0000000000 0.0819120035 1.0000000000
0.0064570000 0.0000000000 0.0818950012 1.0000000000
0.0064440002 0.0000000000 0.0818810016 1.0000000000
0.0064320001 0.0000000000 0.0818779990 1.0000000000
0.0064190002 0.0000000000 0.0818639994 1.0000000000
0.0064059999 0.0000000000 0.0818440020 1.0000000000
0.0063919998 0.0000000000 0.0818329975 1.0000000000
0.0063800002 0.0000000000 0.0818269998 1.0000000000
0.0063680001 0.0000000000 0.0818210021 1.0000000000
0.0063560000 0.0000000000 0.0818189979 1.0000000000
0.0063439999 0.0000000000 0.0818210021 1.0000000000
0.0063319998 0.0000000000 0.0818239972 1.0000000000
0.0063200002 0.0000000000 0.0818189979 1.0000000000
0.0063069998 0.0000000000 0.0818080008 1.0000000000
0.0062930002 0.0000000000 0.0817969963 1.0000000000
0.0062830001 0.0000000000 0.0817999989 1.0000000000
0.0062710000 0.0000000000 0.0818020031 1.0000000000
0.0062580002 0.0000000000 0.0817940012 1.0000000000
0.0062460001 0.0000000000 0.0817850009 1.0000000000
0.0062330002 0.0000000000 0.0817769989 1.0000000000
0.0062219999 0.0000000000 0.0817790031 1.0000000000
0.0062099998 0.0000000000 0.0817909986 1.0000000000
0.0061989999 0.0000000000 0.0817959979 1.0000000000
0.0061860001 0.0000000000 0.0817829967 1.0000000000
0.0061720000 0.0000000000 0.0817790031 1.0000000000
0.0061619999 0.0000000000 0.0817890018 1.0000000000
0.0061510000 0.0000000000 0.0817940012 1.0000000000
0.0061380002 0.0000000000 0.0817890018 1.0000000000
0.0061249998 0.0000000000 0.0817890018 1.0000000000
0.0061150002 0.0000000000 0.0817909986 1.0000000000
0.0061010001 0.0000000000 0.0817890018 1.0000000000
0.0060899998 0.0000000000 0.0817900002 1.0000000000
0.0060769999 0.0000000000 0.0817869976 1.0000000000
0.0060660001 0.0000000000 0.0817859992 1.0000000000
0.0060540000 0.0000000000 0.0817829967 1.0000000000
0.0060419999 0.0000000000 0.0817809999 1.0000000000
0.0060290000 0.0000000000 0.0817800015 1.0000000000
0.0060180002 0.0000000000 0.0817840025 1.0000000000
0.0060060001 0.0000000000 0.0817869976 1.0000000000
0.0059940000 0.0000000000 0.0817880034 1.0000000000
0.0059810001 0.0000000000 0.0817869976 1.0000000000
0.0059699998 0.0000000000 0.0817850009 1.0000000000
0.0059580002 0.0000000000 0.0817850009 1.0000000000
0.0059460001 0.0000000000 0.0817900002 1.0000000000
0.0059340000 0.0000000000 0.0817869976 1.0000000000
0.0059219999 0.0000000000 0.0817800015 1.0000000000
0.0059079998 0.0000000000 0.0817790031 1.0000000000
0.0058980002 0.0000000000 0.0817869976 1.0000000000
0.0058860001 0.0000000000 0.0817940012 1.0000000000
0.0058740000 0.0000000000 0.0817919970 1.0000000000
0.0058610002 0.0000000000 0.0817859992 1.0000000000
0.0058499998 0.0000000000 0.0817869976 1.0000000000
0.0058380002 0.0000000000 0.0817859992 1.0000000000
0.0058260001 0.0000000000 0.0817890018 1.0000000000
0.0058140000 0.0000000000 0.0817949995 1.0000000000
0.0058019999 0.0000000000 0.0817930028 1.0000000000
0.0057899999 0.0000000000 0.0817949995 1.0000000000
0.0057790000 0.0000000000 0.0817999989 1.0000000000
0.0057660001 0.0000000000 0.0818059966 1.0000000000
0.0057549998 0.0000000000 0.0818089992 1.0000000000
0.0057430002 0.0000000000 0.0818009973 1.0000000000
0.0057299999 0.0000000000 0.0817940012 1.0000000000
0.0057170000 0.0000000000 0.0817949995 1.0000000000
0.0057060001 0.0000000000 0.0817969963 1.0000000000
0.0056949998 0.0000000000 0.0817999989 1.0000000000
0.0056830002 0.0000000000 0.0817999989 1.0000000000
0.0056699999 0.0000000000 0.0817930028 1.0000000000
0.0056579998 0.0000000000 0.0817909986 1.0000000000
0.0056449999 0.0000000000 0.0817949995 1.0000000000
0.0056349998 0.0000000000 0.0818009973 1.0000000000
0.0056230002 0.0000000000 0.0818009973 1.0000000000
0.0056099999 0.0000000000 0.0817990005 1.0000000000
0.0055970000 0.0000000000 0.0817980021 1.0000000000
0.0055860002 0.0000000000 0.0817949995 1.0000000000
0.0055720001 0.0000000000 0.0817859992 1.0000000000
0.0055610002 0.0000000000 0.0817840025 1.0000000000
0.0055499999 0.0000000000 0.0817859992 1.0000000000
0.0055379998 0.0000000000 0.0817880034 1.0000000000
0.0055260002 0.0000000000 0.0817909986 1.0000000000
0.0055140001 0.0000000000 0.0817930028 1.0000000000
0.0055010002 0.0000000000 0.0817890018 1.0000000000
0.0054899999 0.0000000000 0.0817880034 1.0000000000
0.0054770000 0.0000000000 0.0817859992 1.0000000000
0.0054649999 0.0000000000 0.0817850009 1.0000000000
0.0054540001 0.0000000000 0.0817909986 1.0000000000
0.0054420000 0.0000000000 0.0817980021 1.0000000000
0.0054290001 0.0000000000 0.0817959979 1.0000000000
0.0054179998 0.0000000000 0.0817959979 1.0000000000
0.0054049999 0.0000000000 0.0817940012 1.0000000000
0.0053940001 0.0000000000 0.0817930028 1.0000000000
0.0053810002 0.0000000000 0.0817949995 1.0000000000
0.0053699999 0.0000000000 0.0818020031 1.0000000000
0.0053579998 0.0000000000 0.0817999989 1.0000000000
0.0053460002 0.0000000000 0.0818009973 1.0000000000
0.0053329999 0.0000000000 0.0818059966 1.0000000000
0.0053229998 0.0000000000 0.0818110034 1.0000000000
0.0053110002 0.0000000000 0.0818099976 1.0000000000
0.0052979998 0.0000000000 0.0817999989 1.0000000000
0.0052860002 0.0000000000 0.0817900002 1.0000000000
0.0052729999 0.0000000000 0.0817869976 1.0000000000
0.0052600000 0.0000000000 0.0817859992 1.0000000000
0.0052499999 0.0000000000 0.0817930028 1.0000000000
0.0052370001 0.0000000000 0.0817969963 1.0000000000
0.0052260002 0.0000000000 0.0817949995 1.0000000000
0.0052120001 0.0000000000 0.0817930028 1.0000000000
0.0052020000 0.0000000000 0.0817940012 1.0000000000
0.0051899999 0.0000000000 0.0817990005 1.0000000000
0.0051779998 0.0000000000 0.0818099976 1.0000000000
0.0051650000 0.0000000000 0.0818110034 1.0000000000
0.0051540001 0.0000000000 0.0818059966 1.0000000000
0.0051420000 0.0000000000 0.0817990005 1.0000000000
0.0051299999 0.0000000000 0.0817949995 1.0000000000
0.0051159998 0.0000000000 0.0817940012 1.0000000000
0.0051050000 0.0000000000 0.0817930028 1.0000000000
0.0050929999 0.0000000000 0.0817900002 1.0000000000
0.0050809998 0.0000000000 0.0817890018 1.0000000000
0.0050700000 0.0000000000 0.0817990005 1.0000000000
0.0050579999 0.0000000000 0.0818110034 1.0000000000
0.0050450000 0.0000000000 0.0818099976 1.0000000000
0.0050340001 0.0000000000 0.0818059966 1.0000000000
0.0050220001 0.0000000000 0.0818020031 1.0000000000
0.0050100000 0.0000000000 0.0817999989 1.0000000000
0.0049979999 0.0000000000 0.0818009973 1.0000000000
0.0049859998 0.0000000000 0.0817980021 1.0000000000
0.0049729999 0.0000000000 0.0817919970 1.0000000000
0.0049609998 0.0000000000 0.0817940012 1.0000000000
0.0049490002 0.0000000000 0.0818009973 1.0000000000
0.0049379999 0.0000000000 0.0818080008 1.0000000000
0.0049250000 0.0000000000 0.0818030015 1.0000000000
0.0049129999 0.0000000000 0.0817980021 1.0000000000
0.0049000001 0.0000000000 0.0817959979 1.0000000000
0.0048900000 0.0000000000 0.0817990005 1.0000000000
0.0048779999 0.0000000000 0.0817999989 1.0000000000
0.0048650000 0.0000000000 0.0817930028 1.0000000000
0.0048529999 0.0000000000 0.0817900002 1.0000000000
0.0048409998 0.0000000000 0.0817930028 1.0000000000
0.0048280000 0.0000000000 0.0817940012 1.0000000000
0.0048179999 0.0000000000 0.0818009973 1.0000000000
0.0048050000 0.0000000000 0.0818039998 1.0000000000
0.0047929999 0.0000000000 0.0817990005 1.0000000000
0.0047809999 0.0000000000 0.0817980021 1.0000000000
0.0047690002 0.0000000000 0.0818020031 1.0000000000
0.0047570001 0.0000000000 0.0817999989 1.0000000000
0.0047450000 0.0000000000 0.0817959979 1.0000000000
0.0047330000 0.0000000000 0.0817990005 1.0000000000
0.0047209999 0.0000000000 0.0818009973 1.0000000000
0.0047089998 0.0000000000 0.0817990005 1.0000000000
0.0046970001 0.0000000000 0.0818009973 1.0000000000
0.0046850001 0.0000000000 0.0818009973 1.0000000000
0.0046730000 0.0000000000 0.0817969963 1.0000000000
0.0046600001 0.0000000000 0.0817949995 1.0000000000
0.0046489998 0.0000000000 0.0817990005 1.0000000000
0.0046370002 0.0000000000 0.0818110034 1.0000000000
0.0046259998 0.0000000000 0.0818189979 1.0000000000
0.0046130000 0.0000000000 0.0818120018 1.0000000000
0.0046020001 0.0000000000 0.0818089992 1.0000000000
0.0045880000 0.0000000000 0.0818089992 1.0000000000
0.0045770002 0.0000000000 0.0818020031 1.0000000000
0.0045639998 0.0000000000 0.0817919970 1.0000000000
0.0045530000 0.0000000000 0.0817919970 1.0000000000
0.0045400001 0.0000000000 0.0817930028 1.0000000000
0.0045289998 0.0000000000 0.0817969963 1.0000000000
0.0045159999 0.0000000000 0.0818020031 1.0000000000
0.0045050001 0.0000000000 0.0818089992 1.0000000000
0.0044930000 0.0000000000 0.0818149969 1.0000000000
0.0044809999 0.0000000000 0.0818149969 1.0000000000
0.0044680000 0.0000000000 0.0818099976 1.0000000000
0.0044570002 0.0000000000 0.0818120018 1.0000000000
0.0044450001 0.0000000000 0.0818149969 1.0000000000
0.0044330000 0.0000000000 0.0818220004 1.0000000000
0.0044200001 0.0000000000 0.0818179995 1.0000000000
0.0044089998 0.0000000000 0.0818080008 1.0000000000
0.0043950002 0.0000000000 0.0818030015 1.0000000000
0.0043850001 0.0000000000 0.0818099976 1.0000000000
0.0043720002 0.0000000000 0.0818110034 1.0000000000
0.0043609999 0.0000000000 0.0818120018 1.0000000000
0.0043480000 0.0000000000 0.0818080008 1.0000000000
0.0043360000 0.0000000000 0.0818080008 1.0000000000
0.0043230001 0.0000000000 0.0818099976 1.0000000000
0.0043119998 0.0000000000 0.0818039998 1.0000000000
0.0043000001 0.0000000000 0.0817990005 1.0000000000
0.0042880001 0.0000000000 0.0817990005 1.0000000000
0.0042760000 0.0000000000 0.0817999989 1.0000000000
0.0042639999 0.0000000000 0.0818039998 1.0000000000
0.0042519998 0.0000000000 0.0818139985 1.0000000000
0.0042400002 0.0000000000 0.0818139985 1.0000000000
0.0042269998 0.0000000000 0.0818120018 1.0000000000
0.0042160000 0.0000000000 0.0818130001 1.0000000000
0.0042039999 0.0000000000 0.0818149969 1.0000000000
0.0041919998 0.0000000000 0.0818160027 1.0000000000
0.0041800002 0.0000000000 0.0818149969 1.0000000000
0.0041680001 0.0000000000 0.0818170011 1.0000000000
0.0041550002 0.0000000000 0.0818200037 1.0000000000
0.0041439999 0.0000000000 0.0818179995 1.0000000000
0.0041319998 0.0000000000 0.0818160027 1.0000000000
0.0041200002 0.0000000000 0.0818170011 1.0000000000
0.0041069998 0.0000000000 0.0818179995 1.0000000000
0.0040960000 0.0000000000 0.0818189979 1.0000000000
0.0040830001 0.0000000000 0.0818179995 1.0000000000
0.0040719998 0.0000000000 0.0818189979 1.0000000000
0.0040589999 0.0000000000 0.0818170011 1.0000000000
0.0040469998 0.0000000000 0.0818139985 1.0000000000
0.0040350002 0.0000000000 0.0818130001 1.0000000000
0.0040230001 0.0000000000 0.0818149969 1.0000000000
0.0040099998 0.0000000000 0.0818099976 1.0000000000
0.0039989999 0.0000000000 0.0818089992 1.0000000000
0.0039869999 0.0000000000 0.0818130001 1.0000000000
0.0039750002 0.0000000000 0.0818139985 1.0000000000
0.0039619999 0.0000000000 0.0818160027 1.0000000000
0.0039510000 0.0000000000 0.0818210021 1.0000000000
0.0039380002 0.0000000000 0.0818160027 1.0000000000
0.0039260001 0.0000000000 0.0818070024 1.0000000000
0.0039130002 0.0000000000 0.0818020031 1.0000000000
0.0039019999 0.0000000000 0.0818099976 1.0000000000
0.0038890000 0.0000000000 0.0818080008 1.0000000000
0.0038780000 0.0000000000 0.0818030015 1.0000000000
0.0038650001 0.0000000000 0.0818020031 1.0000000000
0.0038540000 0.0000000000 0.0818030015 1.0000000000
0.0038409999 0.0000000000 0.0818070024 1.0000000000
0.0038300001 0.0000000000 0.0818139985 1.0000000000
0.0038180000 0.0000000000 0.0818149969 1.0000000000
0.0038060001 0.0000000000 0.0818149969 1.0000000000
0.0037930000 0.0000000000 0.0818080008 1.0000000000
0.0037819999 0.0000000000 0.0818039998 1.0000000000
0.0037690001 0.0000000000 0.0818089992 1.0000000000
0.0037580000 0.0000000000 0.0818120018 1.0000000000
0.0037459999 0.0000000000 0.0818120018 1.0000000000
0.0037340000 0.0000000000 0.0818139985 1.0000000000
0.0037209999 0.0000000000 0.0818110034 1.0000000000
0.0037090001 0.0000000000 0.0818089992 1.0000000000
0.0036960000 0.0000000000 0.0818110034 1.0000000000
0.0036859999 0.0000000000 0.0818170011 1.0000000000
0.0036740000 0.0000000000 0.0818220004 1.0000000000
0.0036619999 0.0000000000 0.0818210021 1.0000000000
0.0036480001 0.0000000000 0.0818170011 1.0000000000
0.0036370000 0.0000000000 0.0818130001 1.0000000000
0.0036249999 0.0000000000 0.0818139985 1.0000000000
0.0036130000 0.0000000000 0.0818170011 1.0000000000
0.0035999999 0.0000000000 0.0818149969 1.0000000000
0.0035890001 0.0000000000 0.0818130001 1.0000000000
0.0035760000 0.0000000000 0.0818080008 1.0000000000
0.0035649999 0.0000000000 0.0818089992 1.0000000000
0.0035530000 0.0000000000 0.0818149969 1.0000000000
0.0035410000 0.0000000000 0.0818149969 1.0000000000
0.0035290001 0.0000000000 0.0818139985 1.0000000000
0.0035170000 0.0000000000 0.0818160027 1.0000000000
0.0035039999 0.0000000000 0.0818179995 1.0000000000
0.0034930001 0.0000000000 0.0818189979 1.0000000000
0.0034810000 0.0000000000 0.0818220004 1.0000000000
0.0034690001 0.0000000000 0.0818279982 1.0000000000
0.0034560000 0.0000000000 0.0818250030 1.0000000000
0.0034449999 0.0000000000 0.0818250030 1.0000000000
0.0034320001 0.0000000000 0.0818269998 1.0000000000
0.0034210000 0.0000000000 0.0818260014 1.0000000000
0.0034080001 0.0000000000 0.0818260014 1.0000000000
0.0033970000 0.0000000000 0.0818289965 1.0000000000
0.0033829999 0.0000000000 0.0818260014 1.0000000000
0.0033720001 0.0000000000 0.0818220004 1.0000000000
0.0033590000 0.0000000000 0.0818149969 1.0000000000
0.0033480001 0.0000000000 0.0818120018 1.0000000000
0.0033350000 0.0000000000 0.0818099976 1.0000000000
0.0033239999 0.0000000000 0.0818120018 1.0000000000
0.0033120001 0.0000000000 0.0818139985 1.0000000000
0.0033000000 0.0000000000 0.0818200037 1.0000000000
0.0032870001 0.0000000000 0.0818189979 1.0000000000
0.0032760000 0.0000000000 0.0818170011 1.0000000000
0.0032629999 0.0000000000 0.0818160027 1.0000000000
0.0032510001 0.0000000000 0.0818130001 1.0000000000
0.0032380000 0.0000000000 0.0818099976 1.0000000000
0.0032269999 0.0000000000 0.0818160027 1.0000000000
0.0032160000 0.0000000000 0.0818200037 1.0000000000
0.0032029999 0.0000000000 0.0818170011 1.0000000000
0.0031900001 0.0000000000 0.0818139985 1.0000000000
0.0031790000 0.0000000000 0.0818170011 1.0000000000
0.0031669999 0.0000000000 0.0818149969 1.0000000000
0.0031550000 0.0000000000 0.0818179995 1.0000000000
0.0031430000 0.0000000000 0.0818229988 1.0000000000
0.0031310001 0.0000000000 0.0818179995 1.0000000000
0.0031190000 0.0000000000 0.0818220004 1.0000000000
0.0031069999 0.0000000000 0.0818319991 1.0000000000
0.0030940000 0.0000000000 0.0818329975 1.0000000000
0.0030830000 0.0000000000 0.0818260014 1.0000000000
0.0030710001 0.0000000000 0.0818200037 1.0000000000
0.0030590000 0.0000000000 0.0818210021 1.0000000000
0.0030469999 0.0000000000 0.0818210021 1.0000000000
0.0030350001 0.0000000000 0.0818239972 1.0000000000
0.0030220000 0.0000000000 0.0818269998 1.0000000000
0.0030110001 0.0000000000 0.0818319991 1.0000000000
0.0029990000 0.0000000000 0.0818369985 1.0000000000
0.0029869999 0.0000000000 0.0818369985 1.0000000000
0.0029740001 0.0000000000 0.0818329975 1.0000000000
0.0029630000 0.0000000000 0.0818350017 1.0000000000
0.0029500001 0.0000000000 0.0818360001 1.0000000000
0.0029390000 0.0000000000 0.0818329975 1.0000000000
0.0029249999 0.0000000000 0.0818329975 1.0000000000
0.0029140001 0.0000000000 0.0818329975 1.0000000000
0.0029010000 0.0000000000 0.0818260014 1.0000000000
0.0028899999 0.0000000000 0.0818269998 1.0000000000
0.0028780000 0.0000000000 0.0818279982 1.0000000000
0.0028659999 0.0000000000 0.0818269998 1.0000000000
0.0028540001 0.0000000000 0.0818289965 1.0000000000
0.0028420000 0.0000000000 0.0818319991 1.0000000000
0.0028299999 0.0000000000 0.0818319991 1.0000000000
0.0028180000 0.0000000000 0.0818319991 1.0000000000
0.0028049999 0.0000000000 0.0818340033 1.0000000000
0.0027940001 0.0000000000 0.0818369985 1.0000000000
0.0027810000 0.0000000000 0.0818300024 1.0000000000
0.0027689999 0.0000000000 0.0818210021 1.0000000000
0.0027570000 0.0000000000 0.0818220004 1.0000000000
0.0027449999 0.0000000000 0.0818269998 1.0000000000
0.0027320001 0.0000000000 0.0818319991 1.0000000000
0.0027210000 0.0000000000 0.0818379968 1.0000000000
0.0027079999 0.0000000000 0.0818350017 1.0000000000
0.0026970000 0.0000000000 0.0818289965 1.0000000000
0.0026850000 0.0000000000 0.0818300024 1.0000000000
0.0026730001 0.0000000000 0.0818329975 1.0000000000
0.0026610000 0.0000000000 0.0818310007 1.0000000000
0.0026489999 0.0000000000 0.0818319991 1.0000000000
0.0026350000 0.0000000000 0.0818250030 1.0000000000
0.0026240000 0.0000000000 0.0818210021 1.0000000000
0.0026110001 0.0000000000 0.0818269998 1.0000000000
0.0026000000 0.0000000000 0.0818319991 1.0000000000
0.0025879999 0.0000000000 0.0818279982 1.0000000000
0.0025760001 0.0000000000 0.0818229988 1.0000000000
0.0025630000 0.0000000000 0.0818239972 1.0000000000
0.0025520001 0.0000000000 0.0818279982 1.0000000000
0.0025400000 0.0000000000 0.0818379968 1.0000000000
0.0025279999 0.0000000000 0.0818519965 1.0000000000
0.0025160001 0.0000000000 0.0818549991 1.0000000000
0.0025040000 0.0000000000 0.0818609968 1.0000000000
0.0024920001 0.0000000000 0.0818689987 1.0000000000
0.0024810000 0.0000000000 0.0818779990 1.0000000000
0.0024689999 0.0000000000 0.0818910003 1.0000000000
0.0024570001 0.0000000000 0.0819120035 1.0000000000
0.0024450000 0.0000000000 0.0819220021 1.0000000000
0.0024339999 0.0000000000 0.0819270015 1.0000000000
0.0024220000 0.0000000000 0.0819310024 1.0000000000
0.0024100000 0.0000000000 0.0819350034 1.0000000000
0.0023980001 0.0000000000 0.0819490030 1.0000000000
0.0023870000 0.0000000000 0.0819889978 1.0000000000
0.0023759999 0.0000000000 0.0820389986 1.0000000000
0.0023640001 0.0000000000 0.0820500031 1.0000000000
0.0023510000 0.0000000000 0.0820489973 1.0000000000
0.0023399999 0.0000000000 0.0820489973 1.0000000000
0.0023280000 0.0000000000 0.0820439979 1.0000000000
0.0023159999 0.0000000000 0.0820519999 1.0000000000
0.0023040001 0.0000000000 0.0820610002 1.0000000000
-0.0024949999 0.0000000000 0.0821029991 1.0000000000
-0.0025060000 0.0000000000 0.0821039975 1.0000000000
-0.0025190001 0.0000000000 0.0821010023 1.0000000000
-0.0025299999 0.0000000000 0.0820960030 1.0000000000
-0.0025420000 0.0000000000 0.0820880011 1.0000000000
-0.0025539999 0.0000000000 0.0820799991 1.0000000000
-0.0025670000 0.0000000000 0.0820700005 1.0000000000
-0.0025780001 0.0000000000 0.0820560008 1.0000000000
-0.0025899999 0.0000000000 0.0820429996 1.0000000000
-0.0026010000 0.0000000000 0.0820380002 1.0000000000
-0.0026130001 0.0000000000 0.0820280015 1.0000000000
-0.0026250000 0.0000000000 0.0820150003 1.0000000000
-0.0026380001 0.0000000000 0.0820000023 1.0000000000
-0.0026479999 0.0000000000 0.0819839984 1.0000000000
-0.0026610000 0.0000000000 0.0819640011 1.0000000000
-0.0026720001 0.0000000000 0.0819479972 1.0000000000
-0.0026839999 0.0000000000 0.0819379985 1.0000000000
-0.0026950000 0.0000000000 0.0819299966 1.0000000000
-0.0027079999 0.0000000000 0.0819220021 1.0000000000
-0.0027190000 0.0000000000 0.0819260031 1.0000000000
-0.0027320001 0.0000000000 0.0819230005 1.0000000000
-0.0027429999 0.0000000000 0.0819170028 1.0000000000
-0.0027550000 0.0000000000 0.0819109976 1.0000000000
-0.0027670001 0.0000000000 0.0819080025 1.0000000000
-0.0027800000 0.0000000000 0.0819030032 1.0000000000
-0.0027910001 0.0000000000 0.0818969980 1.0000000000
-0.0028039999 0.0000000000 0.0818959996 1.0000000000
-0.0028160000 0.0000000000 0.0819030032 1.0000000000
-0.0028280001 0.0000000000 0.0819009990 1.0000000000
-0.0028400000 0.0000000000 0.0818940029 1.0000000000
-0.0028530001 0.0000000000 0.0818959996 1.0000000000
-0.0028639999 0.0000000000 0.0819040015 1.0000000000
-0.0028760000 0.0000000000 0.0819080025 1.0000000000
-0.0028880001 0.0000000000 0.0819049999 1.0000000000
-0.0029010000 0.0000000000 0.0819040015 1.0000000000
-0.0029120001 0.0000000000 0.0819120035 1.0000000000
-0.0029249999 0.0000000000 0.0819189996 1.0000000000
-0.0029370000 0.0000000000 0.0819149986 1.0000000000
-0.0029490001 0.0000000000 0.0819090009 1.0000000000
-0.0029610000 0.0000000000 0.0819030032 1.0000000000
-0.0029730001 0.0000000000 0.0818959996 1.0000000000
-0.0029849999 0.0000000000 0.0819019973 1.0000000000
-0.0029970000 0.0000000000 0.0819109976 1.0000000000
-0.0030090001 0.0000000000 0.0819099993 1.0000000000
-0.0030210000 0.0000000000 0.0819080025 1.0000000000
-0.0030330000 0.0000000000 0.0819120035 1.0000000000
-0.0030459999 0.0000000000 0.0819159970 1.0000000000
-0.0030580000 0.0000000000 0.0819130018 1.0000000000
-0.0030700001 0.0000000000 0.0819059983 1.0000000000
-0.0030809999 0.0000000000 0.0819019973 1.0000000000
-0.0030940000 0.0000000000 0.0819030032 1.0000000000
-0.0031059999 0.0000000000 0.0819069967 1.0000000000
-0.0031190000 0.0000000000 0.0819109976 1.0000000000
-0.0031300001 0.0000000000 0.0819199979 1.0000000000
-0.0031430000 0.0000000000 0.0819199979 1.0000000000
-0.0031540000 0.0000000000 0.0819189996 1.0000000000
-0.0031669999 0.0000000000 0.0819279999 1.0000000000
-0.0031790000 0.0000000000 0.0819310024 1.0000000000
-0.0031920001 0.0000000000 0.0819230005 1.0000000000
-0.0032019999 0.0000000000 0.0819140002 1.0000000000
-0.0032150000 0.0000000000 0.0819109976 1.0000000000
-0.0032269999 0.0000000000 0.0819130018 1.0000000000
-0.0032390000 0.0000000000 0.0819120035 1.0000000000
-0.0032510001 0.0000000000 0.0819090009 1.0000000000
-0.0032629999 0.0000000000 0.0819080025 1.0000000000
-0.0032750000 0.0000000000 0.0819109976 1.0000000000
-0.0032879999 0.0000000000 0.0819149986 1.0000000000
-0.0032990000 0.0000000000 0.0819189996 1.0000000000
-0.0033110001 0.0000000000 0.0819189996 1.0000000000
-0.0033229999 0.0000000000 0.0819149986 1.0000000000
-0.0033350000 0.0000000000 0.0819099993 1.0000000000
-0.0033470001 0.0000000000 0.0819130018 1.0000000000
-0.0033590000 0.0000000000 0.0819170028 1.0000000000
-0.0033710001 0.0000000000 0.0819149986 1.0000000000
-0.0033829999 0.0000000000 0.0819120035 1.0000000000
-0.0033960000 0.0000000000 0.0819159970 1.0000000000
-0.0034080001 0.0000000000 0.0819189996 1.0000000000
-0.0034200000 0.0000000000 0.0819270015 1.0000000000
-0.0034330001 0.0000000000 0.0819289982 1.0000000000
-0.0034439999 0.0000000000 0.0819239989 1.0000000000
-0.0034570000 0.0000000000 0.0819209963 1.0000000000
-0.0034680001 0.0000000000 0.0819199979 1.0000000000
-0.0034800000 0.0000000000 0.0819209963 1.0000000000
-0.0034920000 0.0000000000 0.0819209963 1.0000000000
-0.0035049999 0.0000000000 0.0819130018 1.0000000000
-0.0035160000 0.0000000000 0.0819130018 1.0000000000
-0.0035280001 0.0000000000 0.0819209963 1.0000000000
-0.0035410000 0.0000000000 0.0819260031 1.0000000000
-0.0035530000 0.0000000000 0.0819209963 1.0000000000
-0.0035649999 0.0000000000 0.0819199979 1.0000000000
-0.0035770000 0.0000000000 0.0819189996 1.0000000000
-0.0035890001 0.0000000000 0.0819209963 1.0000000000
-0.0036009999 0.0000000000 0.0819209963 1.0000000000
-0.0036130000 0.0000000000 0.0819170028 1.0000000000
-0.0036259999 0.0000000000 0.0819149986 1.0000000000
-0.0036370000 0.0000000000 0.0819120035 1.0000000000
-0.0036490001 0.0000000000 0.0819040015 1.0000000000
-0.0036609999 0.0000000000 0.0819080025 1.0000000000
-0.0036740000 0.0000000000 0.0819159970 1.0000000000
-0.0036849999 0.0000000000 0.0819149986 1.0000000000
-0.0036970000 0.0000000000 0.0819099993 1.0000000000
-0.0037090001 0.0000000000 0.0819120035 1.0000000000
-0.0037209999 0.0000000000 0.0819189996 1.0000000000
-0.0037340000 0.0000000000 0.0819209963 1.0000000000
-0.0037459999 0.0000000000 0.0819159970 1.0000000000
-0.0037570000 0.0000000000 0.0819099993 1.0000000000
-0.0037690001 0.0000000000 0.0819099993 1.0000000000
-0.0037819999 0.0000000000 0.0819149986 1.0000000000
-0.0037950000 0.0000000000 0.0819170028 1.0000000000
-0.0038060001 0.0000000000 0.0819170028 1.0000000000
-0.0038180000 0.0000000000 0.0819099993 1.0000000000
-0.0038290001 0.0000000000 0.0819049999 1.0000000000
-0.0038419999 0.0000000000 0.0819109976 1.0000000000
-0.0038540000 0.0000000000 0.0819149986 1.0000000000
-0.0038670001 0.0000000000 0.0819149986 1.0000000000
-0.0038780000 0.0000000000 0.0819249973 1.0000000000
-0.0038910001 0.0000000000 0.0819279999 1.0000000000
-0.0039029999 0.0000000000 0.0819249973 1.0000000000
-0.0039140000 0.0000000000 0.0819199979 1.0000000000
-0.0039260001 0.0000000000 0.0819170028 1.0000000000
-0.0039390000 0.0000000000 0.0819130018 1.0000000000
-0.0039499998 0.0000000000 0.0819120035 1.0000000000
-0.0039630001 0.0000000000 0.0819080025 1.0000000000
-0.0039740000 0.0000000000 0.0819040015 1.0000000000
-0.0039860001 0.0000000000 0.0819030032 1.0000000000
-0.0039980002 0.0000000000 0.0819059983 1.0000000000
-0.0040110000 0.0000000000 0.0819080025 1.0000000000
-0.0040230001 0.0000000000 0.0819130018 1.0000000000
-0.0040350002 0.0000000000 0.0819209963 1.0000000000
-0.0040469998 0.0000000000 0.0819199979 1.0000000000
-0.0040600002 0.0000000000 0.0819149986 1.0000000000
-0.0040710000 0.0000000000 0.0819180012 1.0000000000
-0.0040830001 0.0000000000 0.0819209963 1.0000000000
-0.0040950002 0.0000000000 0.0819199979 1.0000000000
-0.0041089999 0.0000000000 0.0819220021 1.0000000000
-0.0041200002 0.0000000000 0.0819289982 1.0000000000
-0.0041330000 0.0000000000 0.0819220021 1.0000000000
-0.0041439999 0.0000000000 0.0819159970 1.0000000000
-0.0041560000 0.0000000000 0.0819140002 1.0000000000
-0.0041680001 0.0000000000 0.0819149986 1.0000000000
-0.0041809999 0.0000000000 0.0819220021 1.0000000000
-0.0041919998 0.0000000000 0.0819310024 1.0000000000
-0.0042039999 0.0000000000 0.0819279999 1.0000000000
-0.0042160000 0.0000000000 0.0819279999 1.0000000000
-0.0042289998 0.0000000000 0.0819260031 1.0000000000
-0.0042400002 0.0000000000 0.0819220021 1.0000000000
-0.0042519998 0.0000000000 0.0819230005 1.0000000000
-0.0042650001 0.0000000000 0.0819249973 1.0000000000
-0.0042760000 0.0000000000 0.0819220021 1.0000000000
-0.0042889998 0.0000000000 0.0819220021 1.0000000000
-0.0043020002 0.0000000000 0.0819220021 1.0000000000
-0.0043130000 0.0000000000 0.0819209963 1.0000000000
-0.0043250001 0.0000000000 0.0819230005 1.0000000000
-0.0043370002 0.0000000000 0.0819279999 1.0000000000
-0.0043489998 0.0000000000 0.0819289982 1.0000000000
-0.0043609999 0.0000000000 0.0819320008 1.0000000000
-0.0043739998 0.0000000000 0.0819320008 1.0000000000
-0.0043859999 0.0000000000 0.0819320008 1.0000000000
-0.0043980000 0.0000000000 0.0819320008 1.0000000000
-0.0044100001 0.0000000000 0.0819379985 1.0000000000
-0.0044220001 0.0000000000 0.0819370002 1.0000000000
-0.0044339998 0.0000000000 0.0819289982 1.0000000000
-0.0044459999 0.0000000000 0.0819299966 1.0000000000
-0.0044580000 0.0000000000 0.0819310024 1.0000000000
-0.0044700000 0.0000000000 0.0819220021 1.0000000000
-0.0044809999 0.0000000000 0.0819189996 1.0000000000
-0.0044950000 0.0000000000 0.0819239989 1.0000000000
-0.0045059999 0.0000000000 0.0819260031 1.0000000000
-0.0045190002 0.0000000000 0.0819249973 1.0000000000
-0.0045300000 0.0000000000 0.0819279999 1.0000000000
-0.0045420001 0.0000000000 0.0819299966 1.0000000000
-0.0045540002 0.0000000000 0.0819320008 1.0000000000
-0.0045670001 0.0000000000 0.0819310024 1.0000000000
-0.0045790002 0.0000000000 0.0819350034 1.0000000000
-0.0045920000 0.0000000000 0.0819339976 1.0000000000
-0.0046029999 0.0000000000 0.0819320008 1.0000000000
-0.0046160002 0.0000000000 0.0819339976 1.0000000000
-0.0046270001 0.0000000000 0.0819410011 1.0000000000
-0.0046399999 0.0000000000 0.0819400027 1.0000000000
-0.0046509998 0.0000000000 0.0819370002 1.0000000000
-0.0046640001 0.0000000000 0.0819339976 1.0000000000
-0.0046750000 0.0000000000 0.0819289982 1.0000000000
-0.0046870001 0.0000000000 0.0819209963 1.0000000000
-0.0046990002 0.0000000000 0.0819289982 1.0000000000
-0.0047120000 0.0000000000 0.0819360018 1.0000000000
-0.0047229999 0.0000000000 0.0819339976 1.0000000000
-0.0047350000 0.0000000000 0.0819310024 1.0000000000
-0.0047470001 0.0000000000 0.0819329992 1.0000000000
-0.0047590001 0.0000000000 0.0819289982 1.0000000000
-0.0047709998 0.0000000000 0.0819199979 1.0000000000
-0.0047840001 0.0000000000 0.0819180012 1.0000000000
-0.0047950000 0.0000000000 0.0819239989 1.0000000000
-0.0048079998 0.0000000000 0.0819260031 1.0000000000
-0.0048190001 0.0000000000 0.0819279999 1.0000000000
-0.0048320000 0.0000000000 0.0819249973 1.0000000000
-0.0048429999 0.0000000000 0.0819279999 1.0000000000
-0.0048570000 0.0000000000 0.0819339976 1.0000000000
-0.0048679998 0.0000000000 0.0819429979 1.0000000000
-0.0048810001 0.0000000000 0.0819429979 1.0000000000
-0.0048920000 0.0000000000 0.0819370002 1.0000000000
-0.0049049999 0.0000000000 0.0819350034 1.0000000000
-0.0049160002 0.0000000000 0.0819360018 1.0000000000
-0.0049279998 0.0000000000 0.0819400027 1.0000000000
-0.0049399999 0.0000000000 0.0819400027 1.0000000000
-0.0049530002 0.0000000000 0.0819350034 1.0000000000
-0.0049640001 0.0000000000 0.0819350034 1.0000000000
-0.0049769999 0.0000000000 0.0819360018 1.0000000000
-0.0049879998 0.0000000000 0.0819400027 1.0000000000
-0.0050010001 0.0000000000 0.0819410011 1.0000000000
-0.0050130002 0.0000000000 0.0819400027 1.0000000000
-0.0050240001 0.0000000000 0.0819389969 1.0000000000
-0.0050369999 0.0000000000 0.0819410011 1.0000000000
-0.0050490000 0.0000000000 0.0819469988 1.0000000000
-0.0050610001 0.0000000000 0.0819460005 1.0000000000
-0.0050730002 0.0000000000 0.0819379985 1.0000000000
-0.0050849998 0.0000000000 0.0819350034 1.0000000000
-0.0050969999 0.0000000000 0.0819360018 1.0000000000
-0.0051090000 0.0000000000 0.0819360018 1.0000000000
-0.0051199999 0.0000000000 0.0819299966 1.0000000000
-0.0051320000 0.0000000000 0.0819320008 1.0000000000
-0.0051449998 0.0000000000 0.0819339976 1.0000000000
-0.0051569999 0.0000000000 0.0819320008 1.0000000000
-0.0051699998 0.0000000000 0.0819339976 1.0000000000
-0.0051810001 0.0000000000 0.0819370002 1.0000000000
-0.0051930002 0.0000000000 0.0819320008 1.0000000000
-0.0052049998 0.0000000000 0.0819320008 1.0000000000
-0.0052169999 0.0000000000 0.0819400027 1.0000000000
-0.0052290000 0.0000000000 0.0819440037 1.0000000000
-0.0052419999 0.0000000000 0.0819440037 1.0000000000
-0.0052530002 0.0000000000 0.0819410011 1.0000000000
-0.0052660001 0.0000000000 0.0819339976 1.0000000000
-0.0052769999 0.0000000000 0.0819339976 1.0000000000
-0.0052890000 0.0000000000 0.0819410011 1.0000000000
-0.0053010001 0.0000000000 0.0819400027 1.0000000000
-0.0053140000 0.0000000000 0.0819339976 1.0000000000
-0.0053249998 0.0000000000 0.0819379985 1.0000000000
-0.0053380001 0.0000000000 0.0819379985 1.0000000000
-0.0053490000 0.0000000000 0.0819360018 1.0000000000
-0.0053619999 0.0000000000 0.0819379985 1.0000000000
-0.0053739999 0.0000000000 0.0819429979 1.0000000000
-0.0053869998 0.0000000000 0.0819429979 1.0000000000
-0.0053980001 0.0000000000 0.0819429979 1.0000000000
-0.0054100002 0.0000000000 0.0819400027 1.0000000000
-0.0054219998 0.0000000000 0.0819400027 1.0000000000
-0.0054339999 0.0000000000 0.0819410011 1.0000000000
-0.0054449998 0.0000000000 0.0819339976 1.0000000000
-0.0054569999 0.0000000000 0.0819310024 1.0000000000
-0.0054700002 0.0000000000 0.0819400027 1.0000000000
-0.0054830001 0.0000000000 0.0819440037 1.0000000000
-0.0054939999 0.0000000000 0.0819410011 1.0000000000
-0.0055069998 0.0000000000 0.0819350034 1.0000000000
-0.0055180001 0.0000000000 0.0819370002 1.0000000000
-0.0055300002 0.0000000000 0.0819410011 1.0000000000
-0.0055419998 0.0000000000 0.0819429979 1.0000000000
-0.0055550002 0.0000000000 0.0819370002 1.0000000000
-0.0055660000 0.0000000000 0.0819320008 1.0000000000
-0.0055789999 0.0000000000 0.0819350034 1.0000000000
-0.0055900002 0.0000000000 0.0819440037 1.0000000000
-0.0056039998 0.0000000000 0.0819469988 1.0000000000
-0.0056150001 0.0000000000 0.0819529966 1.0000000000
-0.0056280000 0.0000000000 0.0819550008 1.0000000000
-0.0056389999 0.0000000000 0.0819550008 1.0000000000
-0.0056510000 0.0000000000 0.0819509998 1.0000000000
-0.0056630000 0.0000000000 0.0819460005 1.0000000000
-0.0056759999 0.0000000000 0.0819450021 1.0000000000
-0.0056870002 0.0000000000 0.0819479972 1.0000000000
-0.0057000001 0.0000000000 0.0819450021 1.0000000000
-0.0057109999 0.0000000000 0.0819450021 1.0000000000
-0.0057239998 0.0000000000 0.0819450021 1.0000000000
-0.0057350001 0.0000000000 0.0819479972 1.0000000000
-0.0057470002 0.0000000000 0.0819529966 1.0000000000
-0.0057600001 0.0000000000 0.0819559991 1.0000000000
-0.0057720002 0.0000000000 0.0819529966 1.0000000000
-0.0057830000 0.0000000000 0.0819479972 1.0000000000
-0.0057950001 0.0000000000 0.0819440037 1.0000000000
-0.0058070002 0.0000000000 0.0819479972 1.0000000000
-0.0058200001 0.0000000000 0.0819519982 1.0000000000
-0.0058320002 0.0000000000 0.0819519982 1.0000000000
-0.0058439998 0.0000000000 0.0819479972 1.0000000000
-0.0058550001 0.0000000000 0.0819479972 1.0000000000
-0.0058680000 0.0000000000 0.0819469988 1.0000000000
-0.0058800001 0.0000000000 0.0819500014 1.0000000000
-0.0058920002 0.0000000000 0.0819469988 1.0000000000
-0.0059030000 0.0000000000 0.0819460005 1.0000000000
-0.0059159999 0.0000000000 0.0819460005 1.0000000000
-0.0059270002 0.0000000000 0.0819450021 1.0000000000
-0.0059409998 0.0000000000 0.0819469988 1.0000000000
-0.0059520002 0.0000000000 0.0819509998 1.0000000000
-0.0059639998 0.0000000000 0.0819500014 1.0000000000
-0.0059759999 0.0000000000 0.0819490030 1.0000000000
-0.0059890002 0.0000000000 0.0819469988 1.0000000000
-0.0060000001 0.0000000000 0.0819479972 1.0000000000
-0.0060129999 0.0000000000 0.0819440037 1.0000000000
-0.0060239998 0.0000000000 0.0819419995 1.0000000000
-0.0060359999 0.0000000000 0.0819419995 1.0000000000
-0.0060480000 0.0000000000 0.0819450021 1.0000000000
-0.0060609998 0.0000000000 0.0819450021 1.0000000000
-0.0060720001 0.0000000000 0.0819519982 1.0000000000
-0.0060859998 0.0000000000 0.0819569975 1.0000000000
-0.0060970001 0.0000000000 0.0819559991 1.0000000000
-0.0061090002 0.0000000000 0.0819529966 1.0000000000
-0.0061209998 0.0000000000 0.0819590017 1.0000000000
-0.0061329999 0.0000000000 0.0819590017 1.0000000000
-0.0061440002 0.0000000000 0.0819479972 1.0000000000
-0.0061559998 0.0000000000 0.0819410011 1.0000000000
-0.0061679999 0.0000000000 0.0819460005 1.0000000000
-0.0061809998 0.0000000000 0.0819490030 1.0000000000
-0.0061929999 0.0000000000 0.0819500014 1.0000000000
-0.0062050000 0.0000000000 0.0819509998 1.0000000000
-0.0062170001 0.0000000000 0.0819550008 1.0000000000
-0.0062290002 0.0000000000 0.0819540024 1.0000000000
-0.0062400000 0.0000000000 0.0819460005 1.0000000000
-0.0062520001 0.0000000000 0.0819440037 1.0000000000
-0.0062640002 0.0000000000 0.0819450021 1.0000000000
-0.0062779998 0.0000000000 0.0819540024 1.0000000000
-0.0062899999 0.0000000000 0.0819630027 1.0000000000
-0.0063020000 0.0000000000 0.0819559991 1.0000000000
-0.0063129999 0.0000000000 0.0819500014 1.0000000000
-0.0063250000 0.0000000000 0.0819460005 1.0000000000
-0.0063370001 0.0000000000 0.0819490030 1.0000000000
-0.0063490001 0.0000000000 0.0819529966 1.0000000000
-0.0063609998 0.0000000000 0.0819590017 1.0000000000
-0.0063740001 0.0000000000 0.0819619969 1.0000000000
-0.0063860002 0.0000000000 0.0819630027 1.0000000000
-0.0063979998 0.0000000000 0.0819609985 1.0000000000
-0.0064099999 0.0000000000 0.0819609985 1.0000000000
-0.0064220000 0.0000000000 0.0819630027 1.0000000000
-0.0064329999 0.0000000000 0.0819590017 1.0000000000
-0.0064449999 0.0000000000 0.0819600001 1.0000000000
-0.0064579998 0.0000000000 0.0819640011 1.0000000000
-0.0064710001 0.0000000000 0.0819640011 1.0000000000
-0.0064820000 0.0000000000 0.0819680020 1.0000000000
-0.0064949999 0.0000000000 0.0819670036 1.0000000000
-0.0065060002 0.0000000000 0.0819609985 1.0000000000
-0.0065179998 0.0000000000 0.0819580033 1.0000000000
-0.0065299999 0.0000000000 0.0819630027 1.0000000000
-0.0065449998 0.0000000000 0.0820060000 1.0000000000
-0.0065580001 0.0000000000 0.0820289999 1.0000000000
-0.0065720002 0.0000000000 0.0820410028 1.0000000000
-0.0065839998 0.0000000000 0.0820579976 1.0000000000
-0.0065970002 0.0000000000 0.0820740014 1.0000000000
-0.0066100000 0.0000000000 0.0820809975 1.0000000000
-0.0066229999 0.0000000000 0.0820899978 1.0000000000
-0.0066350000 0.0000000000 0.0821020007 1.0000000000
-0.0066490001 0.0000000000 0.0821179971 1.0000000000
-0.0066620000 0.0000000000 0.0821370035 1.0000000000
-0.0066740001 0.0000000000 0.0821439996 1.0000000000
-0.0066869999 0.0000000000 0.0821489990 1.0000000000
-0.0066999998 0.0000000000 0.0821539983 1.0000000000
-0.0067119999 0.0000000000 0.0821719989 1.0000000000
-0.0067270002 0.0000000000 0.0821999982 1.0000000000
-0.0067389999 0.0000000000 0.0822139978 1.0000000000
-0.0067520002 0.0000000000 0.0822170004 1.0000000000
-0.0067639998 0.0000000000 0.0822229981 1.0000000000
-0.0067770001 0.0000000000 0.0822310001 1.0000000000
-0.0067909998 0.0000000000 0.0822620019 1.0000000000
-0.0068049999 0.0000000000 0.0822850019 1.0000000000
-0.0068170000 0.0000000000 0.0822900012 1.0000000000
-0.0068299999 0.0000000000 0.0822950006 1.0000000000
-0.0068419999 0.0000000000 0.0822980031 1.0000000000
-0.0068540000 0.0000000000 0.0822959989 1.0000000000
-0.0068660001 0.0000000000 0.0822999999 1.0000000000
-0.0068819998 0.0000000000 0.0823459998 1.0000000000
-0.0068950001 0.0000000000 0.0823680013 1.0000000000
-0.0069070002 0.0000000000 0.0823699981 1.0000000000
-0.0069189998 0.0000000000 0.0823739991 1.0000000000
-0.0069320002 0.0000000000 0.0823879987 1.0000000000
-0.0069450000 0.0000000000 0.0824019983 1.0000000000
-0.0069579999 0.0000000000 0.0824149996 1.0000000000
-0.0069720000 0.0000000000 0.0824339986 1.0000000000
-0.0069840001 0.0000000000 0.0824389979 1.0000000000
-0.0069970000 0.0000000000 0.0824429989 1.0000000000
-0.0070099998 0.0000000000 0.0824519992 1.0000000000
-0.0070230002 0.0000000000 0.0824680030 1.0000000000
-0.0070360000 0.0000000000 0.0824809968 1.0000000000
-0.0070489999 0.0000000000 0.0824989974 1.0000000000
-0.0070630000 0.0000000000 0.0825140029 1.0000000000
-0.0070750001 0.0000000000 0.0825219974 1.0000000000
-0.0070880000 0.0000000000 0.0825340003 1.0000000000
-0.0071009998 0.0000000000 0.0825460032 1.0000000000
-0.0071149999 0.0000000000 0.0825579986 1.0000000000
-0.0071259998 0.0000000000 0.0825650021 1.0000000000
-0.0071399999 0.0000000000 0.0825729966 1.0000000000
-0.0071530002 0.0000000000 0.0825980008 1.0000000000
-0.0071660001 0.0000000000 0.0826150030 1.0000000000
-0.0071789999 0.0000000000 0.0826229975 1.0000000000
-0.0071919998 0.0000000000 0.0826260000 1.0000000000
-0.0072039999 0.0000000000 0.0826380029 1.0000000000
-0.0072169998 0.0000000000 0.0826499984 1.0000000000
-0.0072300001 0.0000000000 0.0826560035 1.0000000000
-0.0072430000 0.0000000000 0.0826610029 1.0000000000
-0.0072559998 0.0000000000 0.0826769993 1.0000000000
-0.0072699999 0.0000000000 0.0827009976 1.0000000000
-0.0072829998 0.0000000000 0.0827210024 1.0000000000
-0.0072960001 0.0000000000 0.0827310011 1.0000000000
-0.0073090000 0.0000000000 0.0827469975 1.0000000000
-0.0073230001 0.0000000000 0.0827639997 1.0000000000
-0.0073360000 0.0000000000 0.0827760026 1.0000000000
-0.0073480001 0.0000000000 0.0827789977 1.0000000000
-0.0073609999 0.0000000000 0.0827810019 1.0000000000
-0.0073730000 0.0000000000 0.0827919990 1.0000000000
-0.0073859999 0.0000000000 0.0828019977 1.0000000000
-0.0074000000 0.0000000000 0.0828170031 1.0000000000
-0.0074129999 0.0000000000 0.0828339979 1.0000000000
-0.0074260002 0.0000000000 0.0828419998 1.0000000000
-0.0074390001 0.0000000000 0.0828550011 1.0000000000
-0.0074530002 0.0000000000 0.0828759968 1.0000000000
-0.0074660000 0.0000000000 0.0828879997 1.0000000000
-0.0074789999 0.0000000000 0.0828970000 1.0000000000
-0.0074919998 0.0000000000 0.0829109997 1.0000000000
-0.0075050001 0.0000000000 0.0829230025 1.0000000000
-0.0075170002 0.0000000000 0.0829290003 1.0000000000
-0.0075309998 0.0000000000 0.0829339996 1.0000000000
-0.0075440002 0.0000000000 0.0829520002 1.0000000000
-0.0075579998 0.0000000000 0.0829709992 1.0000000000
-0.0075710001 0.0000000000 0.0829870030 1.0000000000
-0.0075840000 0.0000000000 0.0829999968 1.0000000000
-0.0075969999 0.0000000000 0.0830110013 1.0000000000
-0.0076100002 0.0000000000 0.0830200016 1.0000000000
-0.0076230001 0.0000000000 0.0830319971 1.0000000000
-0.0076359999 0.0000000000 0.0830459967 1.0000000000
-0.0076489998 0.0000000000 0.0830549970 1.0000000000
-0.0076620001 0.0000000000 0.0830629990 1.0000000000
-0.0076750000 0.0000000000 0.0830740035 1.0000000000
-0.0076879999 0.0000000000 0.0830829963 1.0000000000
-0.0077000000 0.0000000000 0.0830880031 1.0000000000
-0.0077129998 0.0000000000 0.0830949992 1.0000000000
-0.0077459998 0.0000000000 0.0833590031 1.0000000000
-0.0077570002 0.0000000000 0.0833479986 1.0000000000
-0.0077700000 0.0000000000 0.0833609998 1.0000000000
-0.0100889998 0.0000000000 0.0843070000 1.0000000000
-0.0101009998 0.0000000000 0.0843110010 1.0000000000
-0.0101140002 0.0000000000 0.0843140036 1.0000000000
-0.0101260003 0.0000000000 0.0843160003 1.0000000000
-0.0101370001 0.0000000000 0.0843110010 1.0000000000
-0.0100910002 0.0000000000 0.0837439969 1.0000000000
-0.0100830002 0.0000000000 0.0835430026 1.0000000000
-0.0100950003 0.0000000000 0.0835559964 1.0000000000
-0.0101089999 0.0000000000 0.0835620016 1.0000000000
-0.0101210000 0.0000000000 0.0835630000 1.0000000000
-0.0100889998 0.0000000000 0.0831409991 1.0000000000
-0.0101009998 0.0000000000 0.0831359997 1.0000000000
-0.0101119997 0.0000000000 0.0831310004 1.0000000000
-0.0101239998 0.0000000000 0.0831290036 1.0000000000
-0.0101370001 0.0000000000 0.0831300020 1.0000000000
-0.0101480000 0.0000000000 0.0831279978 1.0000000000
-0.0101589998 0.0000000000 0.0831139982 1.0000000000
-0.0101690004 0.0000000000 0.0830999985 1.0000000000
-0.0101810005 0.0000000000 0.0830919966 1.0000000000
-0.0101920003 0.0000000000 0.0830840021 1.0000000000
-0.0102030002 0.0000000000 0.0830729976 1.0000000000
-0.0102129998 0.0000000000 0.0830620006 1.0000000000
-0.0102249999 0.0000000000 0.0830470026 1.0000000000
-0.0102350004 0.0000000000 0.0830399990 1.0000000000
-0.0102469996 0.0000000000 0.0830330029 1.0000000000
-0.0102580003 0.0000000000 0.0830309987 1.0000000000
-0.0102709997 0.0000000000 0.0830300003 1.0000000000
-0.0102810003 0.0000000000 0.0830210000 1.0000000000
-0.0102920001 0.0000000000 0.0830039978 1.0000000000
-0.0103010004 0.0000000000 0.0829790011 1.0000000000
-0.0103110000 0.0000000000 0.0829510018 1.0000000000
-0.0103209997 0.0000000000 0.0829399973 1.0000000000
-0.0103329998 0.0000000000 0.0829370022 1.0000000000
-0.0103439996 0.0000000000 0.0829330012 1.0000000000
-0.0103550004 0.0000000000 0.0829230025 1.0000000000
-0.0103660002 0.0000000000 0.0829109997 1.0000000000
-0.0103780003 0.0000000000 0.0829019994 1.0000000000
-0.0103879999 0.0000000000 0.0828889981 1.0000000000
-0.0103989998 0.0000000000 0.0828720033 1.0000000000
-0.0104099996 0.0000000000 0.0828690007 1.0000000000
-0.0104219997 0.0000000000 0.0828649998 1.0000000000
-0.0104320003 0.0000000000 0.0828569978 1.0000000000
-0.0104430001 0.0000000000 0.0828450024 1.0000000000
-0.0104540000 0.0000000000 0.0828379989 1.0000000000
-0.0104649998 0.0000000000 0.0828270018 1.0000000000
-0.0104759997 0.0000000000 0.0828149989 1.0000000000
-0.0104890000 0.0000000000 0.0828149989 1.0000000000
-0.0104999999 0.0000000000 0.0828180015 1.0000000000
-0.0105119999 0.0000000000 0.0828050002 1.0000000000
-0.0105210003 0.0000000000 0.0827879980 1.0000000000
-0.0105320001 0.0000000000 0.0827710032 1.0000000000
-0.0105430000 0.0000000000 0.0827649981 1.0000000000
-0.0105550000 0.0000000000 0.0827620029 1.0000000000
-0.0105649997 0.0000000000 0.0827530026 1.0000000000
-0.0105760004 0.0000000000 0.0827400014 1.0000000000
-0.0105870003 0.0000000000 0.0827260017 1.0000000000
-0.0105980001 0.0000000000 0.0827110037 1.0000000000
-0.0106079997 0.0000000000 0.0826999992 1.0000000000
-0.0106189996 0.0000000000 0.0826900005 1.0000000000
-0.0106309997 0.0000000000 0.0826900005 1.0000000000
-0.0106429998 0.0000000000 0.0826850012 1.0000000000
-0.0106520001 0.0000000000 0.0826700032 1.0000000000
-0.0106650004 0.0000000000 0.0826660022 1.0000000000
-0.0106760003 0.0000000000 0.0826639980 1.0000000000
-0.0106859999 0.0000000000 0.0826449990 1.0000000000
-0.0106950002 0.0000000000 0.0826250017 1.0000000000
-0.0107070003 0.0000000000 0.0826179981 1.0000000000
-0.0107180001 0.0000000000 0.0826100037 1.0000000000
-0.0107290000 0.0000000000 0.0825949982 1.0000000000
-0.0107380003 0.0000000000 0.0825750008 1.0000000000
-0.0107500004 0.0000000000 0.0825690031 1.0000000000
-0.0107610002 0.0000000000 0.0825690031 1.0000000000
-0.0107730003 0.0000000000 0.0825600028 1.0000000000
-0.0107840002 0.0000000000 0.0825579986 1.0000000000
-0.0107960002 0.0000000000 0.0825529993 1.0000000000
-0.0108059999 0.0000000000 0.0825409964 1.0000000000
-0.0108169997 0.0000000000 0.0825250000 1.0000000000
-0.0108270003 0.0000000000 0.0825129971 1.0000000000
-0.0108380001 0.0000000000 0.0825020000 1.0000000000
-0.0108490000 0.0000000000 0.0824989974 1.0000000000
-0.0108610000 0.0000000000 0.0824970007 1.0000000000
-0.0108719999 0.0000000000 0.0824920014 1.0000000000
-0.0108829997 0.0000000000 0.0824809968 1.0000000000
-0.0108920000 0.0000000000 0.0824569985 1.0000000000
-0.0109029999 0.0000000000 0.0824420005 1.0000000000
-0.0109150000 0.0000000000 0.0824429989 1.0000000000
-0.0109270001 0.0000000000 0.0824399963 1.0000000000
-0.0109369997 0.0000000000 0.0824330002 1.0000000000
-0.0109479995 0.0000000000 0.0824199989 1.0000000000
-0.0109569998 0.0000000000 0.0824000016 1.0000000000
-0.0109670004 0.0000000000 0.0823770016 1.0000000000
-0.0109780002 0.0000000000 0.0823689997 1.0000000000
-0.0109900003 0.0000000000 0.0823620036 1.0000000000
-0.0110010002 0.0000000000 0.0823649988 1.0000000000
-0.0110139996 0.0000000000 0.0823699981 1.0000000000
-0.0110250004 0.0000000000 0.0823630020 1.0000000000
-0.0110350000 0.0000000000 0.0823440030 1.0000000000
-0.0110449996 0.0000000000 0.0823300034 1.0000000000
-0.0110550001 0.0000000000 0.0823180005 1.0000000000
-0.0110660000 0.0000000000 0.0823080018 1.0000000000
-0.0110780001 0.0000000000 0.0823059976 1.0000000000
-0.0110889999 0.0000000000 0.0823030025 1.0000000000
-0.0110999998 0.0000000000 0.0822919980 1.0000000000
-0.0111109996 0.0000000000 0.0822810009 1.0000000000
-0.0111220004 0.0000000000 0.0822739974 1.0000000000
-0.0111330003 0.0000000000 0.0822639987 1.0000000000
-0.0111440001 0.0000000000 0.0822509974 1.0000000000
-0.0111539997 0.0000000000 0.0822400004 1.0000000000
-0.0111649996 0.0000000000 0.0822250023 1.0000000000
-0.0111739999 0.0000000000 0.0822129995 1.0000000000
-0.0111860000 0.0000000000 0.0822009966 1.0000000000
-0.0111959996 0.0000000000 0.0821919963 1.0000000000
-0.0112060001 0.0000000000 0.0821800008 1.0000000000
-0.0112170000 0.0000000000 0.0821660012 1.0000000000
-0.0112269996 0.0000000000 0.0821520016 1.0000000000
-0.0112370001 0.0000000000 0.0821399987 1.0000000000
-0.0112490002 0.0000000000 0.0821319968 1.0000000000
-0.0112600001 0.0000000000 0.0821319968 1.0000000000
-0.0112730004 0.0000000000 0.0821309984 1.0000000000
-0.0112830000 0.0000000000 0.0821209997 1.0000000000
-0.0112920003 0.0000000000 0.0821020007 1.0000000000
-0.0113019999 0.0000000000 0.0820820034 1.0000000000
-0.0113110002 0.0000000000 0.0820579976 1.0000000000
-0.0113220001 0.0000000000 0.0820479989 1.0000000000
-0.0113329999 0.0000000000 0.0820410028 1.0000000000
-0.0113439998 0.0000000000 0.0820360035 1.0000000000
-0.0113570001 0.0000000000 0.0820389986 1.0000000000
-0.0113690002 0.0000000000 0.0820420012 1.0000000000
-0.0113800000 0.0000000000 0.0820349976 1.0000000000
-0.0113920001 0.0000000000 0.0820360035 1.0000000000
-0.0114040002 0.0000000000 0.0820380002 1.0000000000
-0.0114150001 0.0000000000 0.0820349976 1.0000000000
-0.0114270002 0.0000000000 0.0820320025 1.0000000000
-0.0114390003 0.0000000000 0.0820330009 1.0000000000
-0.0114510003 0.0000000000 0.0820280015 1.0000000000
-0.0114620002 0.0000000000 0.0820280015 1.0000000000
-0.0114749996 0.0000000000 0.0820360035 1.0000000000
-0.0114869997 0.0000000000 0.0820380002 1.0000000000
-0.0114989998 0.0000000000 0.0820360035 1.0000000000
-0.0115099996 0.0000000000 0.0820289999 1.0000000000
-0.0115210004 0.0000000000 0.0820219964 1.0000000000
-0.0115339998 0.0000000000 0.0820299983 1.0000000000
-0.0115470001 0.0000000000 0.0820370018 1.0000000000
-0.0115590002 0.0000000000 0.0820420012 1.0000000000
-0.0115700001 0.0000000000 0.0820370018 1.0000000000
-0.0115809999 0.0000000000 0.0820320025 1.0000000000
-0.0115940003 0.0000000000 0.0820289999 1.0000000000
-0.0116050001 0.0000000000 0.0820299983 1.0000000000
-0.0116180005 0.0000000000 0.0820360035 1.0000000000
-0.0116299996 0.0000000000 0.0820429996 1.0000000000
-0.0116410004 0.0000000000 0.0820370018 1.0000000000
-0.0116529996 0.0000000000 0.0820330009 1.0000000000
-0.0116649996 0.0000000000 0.0820299983 1.0000000000
-0.0116760004 0.0000000000 0.0820280015 1.0000000000
-0.0116889998 0.0000000000 0.0820309967 1.0000000000
-0.0117009999 0.0000000000 0.0820399970 1.0000000000
-0.0117149996 0.0000000000 0.0820460021 1.0000000000
-0.0117250001 0.0000000000 0.0820399970 1.0000000000
-0.0117360000 0.0000000000 0.0820289999 1.0000000000
-0.0117480000 0.0000000000 0.0820339993 1.0000000000
-0.0117610004 0.0000000000 0.0820389986 1.0000000000
-0.0117729995 0.0000000000 0.0820420012 1.0000000000
-0.0117840003 0.0000000000 0.0820349976 1.0000000000
-0.0117960004 0.0000000000 0.0820389986 1.0000000000
-0.0118100001 0.0000000000 0.0820460021 1.0000000000
-0.0118220001 0.0000000000 0.0820510015 1.0000000000
-0.0118340002 0.0000000000 0.0820470005 1.0000000000
-0.0118439998 0.0000000000 0.0820420012 1.0000000000
-0.0118549997 0.0000000000 0.0820349976 1.0000000000
-0.0118659995 0.0000000000 0.0820299983 1.0000000000
-0.0118779996 0.0000000000 0.0820289999 1.0000000000
-0.0118910000 0.0000000000 0.0820320025 1.0000000000
-0.0119040003 0.0000000000 0.0820389986 1.0000000000
-0.0119160004 0.0000000000 0.0820449963 1.0000000000
-0.0119279996 0.0000000000 0.0820410028 1.0000000000
-0.0119390003 0.0000000000 0.0820420012 1.0000000000
-0.0119519997 0.0000000000 0.0820420012 1.0000000000
-0.0119639998 0.0000000000 0.0820460021 1.0000000000
-0.0119759999 0.0000000000 0.0820460021 1.0000000000
-0.0119869998 0.0000000000 0.0820399970 1.0000000000
-0.0119970003 0.0000000000 0.0820240006 1.0000000000
-0.0120090004 0.0000000000 0.0820299983 1.0000000000
-0.0120219998 0.0000000000 0.0820349976 1.0000000000
-0.0120329997 0.0000000000 0.0820320025 1.0000000000
-0.0120460000 0.0000000000 0.0820309967 1.0000000000
-0.0120569998 0.0000000000 0.0820349976 1.0000000000
-0.0120689999 0.0000000000 0.0820360035 1.0000000000
-0.0120820003 0.0000000000 0.0820399970 1.0000000000
-0.0120949997 0.0000000000 0.0820470005 1.0000000000
-0.0121069998 0.0000000000 0.0820529982 1.0000000000
-0.0121200001 0.0000000000 0.0820500031 1.0000000000
-0.0121299997 0.0000000000 0.0820479989 1.0000000000
-0.0121430000 0.0000000000 0.0820500031 1.0000000000
-0.0121550001 0.0000000000 0.0820510015 1.0000000000
-0.0121670002 0.0000000000 0.0820500031 1.0000000000
-0.0121780001 0.0000000000 0.0820500031 1.0000000000
-0.0121910004 0.0000000000 0.0820510015 1.0000000000
-0.0122020002 0.0000000000 0.0820519999 1.0000000000
-0.0122119999 0.0000000000 0.0820389986 1.0000000000
-0.0122229997 0.0000000000 0.0820299983 1.0000000000
-0.0122349998 0.0000000000 0.0820320025 1.0000000000
-0.0122480001 0.0000000000 0.0820370018 1.0000000000
-0.0122610005 0.0000000000 0.0820399970 1.0000000000
-0.0122729996 0.0000000000 0.0820449963 1.0000000000
-0.0122849997 0.0000000000 0.0820489973 1.0000000000
-0.0122959996 0.0000000000 0.0820449963 1.0000000000
-0.0123070003 0.0000000000 0.0820370018 1.0000000000
