VERSION 0.7
FIELDS x y z intensity
SIZE 4 4 4 4
TYPE F F F F
COUNT 1 1 1 1
WIDTH 1348
HEIGHT 1
VIEWPOINT 0.0 0.0 0.0 1.0 0.0 0.0 0.0
POINTS 1348
DATA ascii
0.0121649997 0.0000000000 0.0816560015 1.0000000000
0.0121529996 0.0000000000 0.0816550031 1.0000000000
0.0121409995 0.0000000000 0.0816529989 1.0000000000
0.0121290004 0.0000000000 0.0816550031 1.0000000000
0.0121170003 0.0000000000 0.0816539973 1.0000000000
0.0121040000 0.0000000000 0.0816499963 1.0000000000
0.0120930001 0.0000000000 0.0816499963 1.0000000000
0.0120810000 0.0000000000 0.0816470012 1.0000000000
0.0120689999 0.0000000000 0.0816439986 1.0000000000
0.0120569998 0.0000000000 0.0816449970 1.0000000000
0.0120460000 0.0000000000 0.0816489980 1.0000000000
0.0120350001 0.0000000000 0.0816539973 1.0000000000
0.0120219998 0.0000000000 0.0816510022 1.0000000000
0.0120090004 0.0000000000 0.0816470012 1.0000000000
0.0119989999 0.0000000000 0.0816510022 1.0000000000
0.0119869998 0.0000000000 0.0816539973 1.0000000000
0.0119759999 0.0000000000 0.0816560015 1.0000000000
0.0119639998 0.0000000000 0.0816529989 1.0000000000
0.0119519997 0.0000000000 0.0816569999 1.0000000000
0.0119399996 0.0000000000 0.0816640034 1.0000000000
0.0119289998 0.0000000000 0.0816619992 1.0000000000
0.0119150002 0.0000000000 0.0816539973 1.0000000000
0.0119049996 0.0000000000 0.0816550031 1.0000000000
0.0118930005 0.0000000000 0.0816510022 1.0000000000
0.0118810004 0.0000000000 0.0816539973 1.0000000000
0.0118690003 0.0000000000 0.0816569999 1.0000000000
0.0118580004 0.0000000000 0.0816589966 1.0000000000
0.0118450001 0.0000000000 0.0816550031 1.0000000000
0.0118340002 0.0000000000 0.0816550031 1.0000000000
0.0118220001 0.0000000000 0.0816579983 1.0000000000
0.0118119996 0.0000000000 0.0816640034 1.0000000000
0.0117980000 0.0000000000 0.0816629976 1.0000000000
0.0117870001 0.0000000000 0.0816589966 1.0000000000
0.0117750000 0.0000000000 0.0816619992 1.0000000000
0.0117650004 0.0000000000 0.0816679969 1.0000000000
0.0117520001 0.0000000000 0.0816619992 1.0000000000
0.0117400000 0.0000000000 0.0816539973 1.0000000000
0.0117260003 0.0000000000 0.0816470012 1.0000000000
0.0117159998 0.0000000000 0.0816539973 1.0000000000
0.0117039997 0.0000000000 0.0816660002 1.0000000000
0.0116950003 0.0000000000 0.0816709995 1.0000000000
0.0116809998 0.0000000000 0.0816660002 1.0000000000
0.0116689997 0.0000000000 0.0816569999 1.0000000000
0.0116560003 0.0000000000 0.0816499963 1.0000000000
0.0116450004 0.0000000000 0.0816539973 1.0000000000
0.0116320001 0.0000000000 0.0816560015 1.0000000000
0.0116219996 0.0000000000 0.0816589966 1.0000000000
0.0116109997 0.0000000000 0.0816679969 1.0000000000
0.0115999999 0.0000000000 0.0816700011 1.0000000000
0.0115870005 0.0000000000 0.0816600025 1.0000000000
0.0115750004 0.0000000000 0.0816589966 1.0000000000
0.0115620000 0.0000000000 0.0816629976 1.0000000000
0.0115520004 0.0000000000 0.0816679969 1.0000000000
0.0115409996 0.0000000000 0.0816709995 1.0000000000
0.0115289995 0.0000000000 0.0816660002 1.0000000000
0.0115160001 0.0000000000 0.0816579983 1.0000000000
0.0115040001 0.0000000000 0.0816550031 1.0000000000
0.0114909997 0.0000000000 0.0816550031 1.0000000000
0.0114810001 0.0000000000 0.0816610008 1.0000000000
0.0114679998 0.0000000000 0.0816619992 1.0000000000
0.0114569999 0.0000000000 0.0816629976 1.0000000000
0.0114449998 0.0000000000 0.0816610008 1.0000000000
0.0114329997 0.0000000000 0.0816600025 1.0000000000
0.0114209997 0.0000000000 0.0816619992 1.0000000000
0.0114099998 0.0000000000 0.0816640034 1.0000000000
0.0113979997 0.0000000000 0.0816610008 1.0000000000
0.0113869999 0.0000000000 0.0816660002 1.0000000000
0.0113760000 0.0000000000 0.0816700011 1.0000000000
0.0113629997 0.0000000000 0.0816679969 1.0000000000
0.0113500003 0.0000000000 0.0816610008 1.0000000000
0.0113390004 0.0000000000 0.0816640034 1.0000000000
0.0113270003 0.0000000000 0.0816729963 1.0000000000
0.0113180000 0.0000000000 0.0816780031 1.0000000000
0.0113059999 0.0000000000 0.0816769972 1.0000000000
0.0112929996 0.0000000000 0.0816729963 1.0000000000
0.0112810005 0.0000000000 0.0816679969 1.0000000000
0.0112690004 0.0000000000 0.0816679969 1.0000000000
0.0112570003 0.0000000000 0.0816669986 1.0000000000
0.0112460004 0.0000000000 0.0816719979 1.0000000000
0.0112359999 0.0000000000 0.0816840008 1.0000000000
0.0112229995 0.0000000000 0.0816819966 1.0000000000
0.0112110004 0.0000000000 0.0816740021 1.0000000000
0.0111999996 0.0000000000 0.0816799998 1.0000000000
0.0111880004 0.0000000000 0.0816880018 1.0000000000
0.0111779999 0.0000000000 0.0816960037 1.0000000000
0.0111680003 0.0000000000 0.0817089975 1.0000000000
0.0111579997 0.0000000000 0.0817259997 1.0000000000
0.0111469999 0.0000000000 0.0817369968 1.0000000000
0.0111360000 0.0000000000 0.0817430019 1.0000000000
0.0111240000 0.0000000000 0.0817470029 1.0000000000
0.0111130001 0.0000000000 0.0817489997 1.0000000000
0.0111010000 0.0000000000 0.0817549974 1.0000000000
0.0110919997 0.0000000000 0.0817719996 1.0000000000
0.0110820001 0.0000000000 0.0817869976 1.0000000000
0.0110710002 0.0000000000 0.0817940012 1.0000000000
0.0110590002 0.0000000000 0.0817999989 1.0000000000
0.0110489996 0.0000000000 0.0818049982 1.0000000000
0.0110370005 0.0000000000 0.0818149969 1.0000000000
0.0110290004 0.0000000000 0.0818340033 1.0000000000
0.0110179996 0.0000000000 0.0818459988 1.0000000000
0.0110069998 0.0000000000 0.0818530023 1.0000000000
0.0109959999 0.0000000000 0.0818649977 1.0000000000
0.0109869996 0.0000000000 0.0818810016 1.0000000000
0.0109750004 0.0000000000 0.0818900019 1.0000000000
0.0109649999 0.0000000000 0.0818950012 1.0000000000
0.0109540001 0.0000000000 0.0818979964 1.0000000000
0.0109420000 0.0000000000 0.0819030032 1.0000000000
0.0109329997 0.0000000000 0.0819209963 1.0000000000
0.0109219998 0.0000000000 0.0819320008 1.0000000000
0.0109090004 0.0000000000 0.0819320008 1.0000000000
0.0108989999 0.0000000000 0.0819389969 1.0000000000
0.0108880000 0.0000000000 0.0819500014 1.0000000000
0.0108789997 0.0000000000 0.0819680020 1.0000000000
0.0108690001 0.0000000000 0.0819830000 1.0000000000
0.0108580003 0.0000000000 0.0819910020 1.0000000000
0.0108460002 0.0000000000 0.0820000023 1.0000000000
0.0108369999 0.0000000000 0.0820109993 1.0000000000
0.0108249998 0.0000000000 0.0820190012 1.0000000000
0.0108150002 0.0000000000 0.0820289999 1.0000000000
0.0108030001 0.0000000000 0.0820370018 1.0000000000
0.0107930005 0.0000000000 0.0820429996 1.0000000000
0.0107819997 0.0000000000 0.0820510015 1.0000000000
0.0107720001 0.0000000000 0.0820619985 1.0000000000
0.0107610002 0.0000000000 0.0820740014 1.0000000000
0.0107509997 0.0000000000 0.0820880011 1.0000000000
0.0107389996 0.0000000000 0.0820949972 1.0000000000
0.0107290000 0.0000000000 0.0821029991 1.0000000000
0.0107169999 0.0000000000 0.0821140036 1.0000000000
0.0107079996 0.0000000000 0.0821269974 1.0000000000
0.0106969997 0.0000000000 0.0821340010 1.0000000000
0.0106859999 0.0000000000 0.0821420029 1.0000000000
0.0106750000 0.0000000000 0.0821520016 1.0000000000
0.0106640002 0.0000000000 0.0821620002 1.0000000000
0.0106520001 0.0000000000 0.0821729973 1.0000000000
0.0106429998 0.0000000000 0.0821869969 1.0000000000
0.0106309997 0.0000000000 0.0821989998 1.0000000000
0.0106220003 0.0000000000 0.0822089985 1.0000000000
0.0106090000 0.0000000000 0.0822099969 1.0000000000
0.0105980001 0.0000000000 0.0822110027 1.0000000000
0.0105870003 0.0000000000 0.0822219998 1.0000000000
0.0105769997 0.0000000000 0.0822350010 1.0000000000
0.0105649997 0.0000000000 0.0822419971 1.0000000000
0.0105550000 0.0000000000 0.0822499990 1.0000000000
0.0105430000 0.0000000000 0.0822599977 1.0000000000
0.0105330003 0.0000000000 0.0822729990 1.0000000000
0.0105210003 0.0000000000 0.0822770000 1.0000000000
0.0105109997 0.0000000000 0.0822819993 1.0000000000
0.0104989996 0.0000000000 0.0822959989 1.0000000000
0.0104900002 0.0000000000 0.0823099986 1.0000000000
0.0104780002 0.0000000000 0.0823159963 1.0000000000
0.0104670003 0.0000000000 0.0823239982 1.0000000000
0.0104550002 0.0000000000 0.0823350027 1.0000000000
0.0104449997 0.0000000000 0.0823400021 1.0000000000
0.0104339998 0.0000000000 0.0823429972 1.0000000000
0.0104230000 0.0000000000 0.0823550001 1.0000000000
0.0104120001 0.0000000000 0.0823659971 1.0000000000
0.0104010003 0.0000000000 0.0823749974 1.0000000000
0.0103900004 0.0000000000 0.0823900029 1.0000000000
0.0103810001 0.0000000000 0.0824090019 1.0000000000
0.0103690000 0.0000000000 0.0824209973 1.0000000000
0.0103599997 0.0000000000 0.0824310035 1.0000000000
0.0103470003 0.0000000000 0.0824389979 1.0000000000
0.0103380000 0.0000000000 0.0824510008 1.0000000000
0.0103259999 0.0000000000 0.0824590027 1.0000000000
0.0103160003 0.0000000000 0.0824640021 1.0000000000
0.0103040002 0.0000000000 0.0824699998 1.0000000000
0.0102939997 0.0000000000 0.0824849978 1.0000000000
0.0102829998 0.0000000000 0.0824960023 1.0000000000
0.0102720000 0.0000000000 0.0825010017 1.0000000000
0.0102610001 0.0000000000 0.0825079978 1.0000000000
0.0102500003 0.0000000000 0.0825200006 1.0000000000
0.0102380002 0.0000000000 0.0825340003 1.0000000000
0.0102289999 0.0000000000 0.0825460032 1.0000000000
0.0102159996 0.0000000000 0.0825520009 1.0000000000
0.0102070002 0.0000000000 0.0825610012 1.0000000000
0.0101960003 0.0000000000 0.0825729966 1.0000000000
0.0101849996 0.0000000000 0.0825870037 1.0000000000
0.0101730004 0.0000000000 0.0825939998 1.0000000000
0.0101629999 0.0000000000 0.0825989991 1.0000000000
0.0101500005 0.0000000000 0.0826049969 1.0000000000
0.0101399999 0.0000000000 0.0826129988 1.0000000000
0.0101279998 0.0000000000 0.0826229975 1.0000000000
0.0101190004 0.0000000000 0.0826369971 1.0000000000
0.0101070004 0.0000000000 0.0826459974 1.0000000000
0.0100969998 0.0000000000 0.0826520026 1.0000000000
0.0100840004 0.0000000000 0.0826580003 1.0000000000
0.0100739999 0.0000000000 0.0826689973 1.0000000000
0.0100630000 0.0000000000 0.0826819986 1.0000000000
0.0100530004 0.0000000000 0.0826969966 1.0000000000
0.0100419996 0.0000000000 0.0827049986 1.0000000000
0.0100309998 0.0000000000 0.0827080011 1.0000000000
0.0100189997 0.0000000000 0.0827120021 1.0000000000
0.0100069996 0.0000000000 0.0827170014 1.0000000000
0.0099940002 0.0000000000 0.0827149972 1.0000000000
0.0099830003 0.0000000000 0.0827130005 1.0000000000
0.0099710003 0.0000000000 0.0827130005 1.0000000000
0.0100210002 0.0000000000 0.0833059996 1.0000000000
0.0100109996 0.0000000000 0.0833220035 1.0000000000
0.0099999998 0.0000000000 0.0833309963 1.0000000000
0.0099879997 0.0000000000 0.0833379999 1.0000000000
0.0099759996 0.0000000000 0.0833360031 1.0000000000
0.0099600004 0.0000000000 0.0833130032 1.0000000000
0.0079659997 0.0000000000 0.0827440023 1.0000000000
0.0079539996 0.0000000000 0.0827570036 1.0000000000
0.0079429997 0.0000000000 0.0827590004 1.0000000000
0.0079309996 0.0000000000 0.0827609971 1.0000000000
0.0079190005 0.0000000000 0.0827630013 1.0000000000
0.0079060001 0.0000000000 0.0827639997 1.0000000000
0.0078959996 0.0000000000 0.0827659965 1.0000000000
0.0078819999 0.0000000000 0.0827620029 1.0000000000
0.0078710001 0.0000000000 0.0827570036 1.0000000000
0.0078560002 0.0000000000 0.0827390030 1.0000000000
0.0078440001 0.0000000000 0.0827189982 1.0000000000
0.0078299996 0.0000000000 0.0827059969 1.0000000000
0.0078170002 0.0000000000 0.0826940015 1.0000000000
0.0078039998 0.0000000000 0.0826829970 1.0000000000
0.0077920002 0.0000000000 0.0826790035 1.0000000000
0.0077780001 0.0000000000 0.0826700032 1.0000000000
0.0077660000 0.0000000000 0.0826589987 1.0000000000
0.0077519999 0.0000000000 0.0826490000 1.0000000000
0.0077410000 0.0000000000 0.0826390013 1.0000000000
0.0077280002 0.0000000000 0.0826290026 1.0000000000
0.0077149998 0.0000000000 0.0826210007 1.0000000000
0.0077020000 0.0000000000 0.0826110020 1.0000000000
0.0076890001 0.0000000000 0.0825999975 1.0000000000
0.0076750000 0.0000000000 0.0825890005 1.0000000000
0.0076640001 0.0000000000 0.0825790018 1.0000000000
0.0076509998 0.0000000000 0.0825679973 1.0000000000
0.0076370002 0.0000000000 0.0825529993 1.0000000000
0.0076230001 0.0000000000 0.0825359970 1.0000000000
0.0076110000 0.0000000000 0.0825230032 1.0000000000
0.0075969999 0.0000000000 0.0825110003 1.0000000000
0.0075849998 0.0000000000 0.0825069994 1.0000000000
0.0075710001 0.0000000000 0.0824939981 1.0000000000
0.0075590000 0.0000000000 0.0824809968 1.0000000000
0.0075470000 0.0000000000 0.0824730024 1.0000000000
0.0075340001 0.0000000000 0.0824630037 1.0000000000
0.0075200000 0.0000000000 0.0824489966 1.0000000000
0.0075070001 0.0000000000 0.0824330002 1.0000000000
0.0074939998 0.0000000000 0.0824249983 1.0000000000
0.0074820002 0.0000000000 0.0824180022 1.0000000000
0.0074689998 0.0000000000 0.0824090019 1.0000000000
0.0074570002 0.0000000000 0.0824000016 1.0000000000
0.0074419999 0.0000000000 0.0823789984 1.0000000000
0.0074300002 0.0000000000 0.0823609978 1.0000000000
0.0074169999 0.0000000000 0.0823479965 1.0000000000
0.0074040000 0.0000000000 0.0823400021 1.0000000000
0.0073899999 0.0000000000 0.0823360011 1.0000000000
0.0073790001 0.0000000000 0.0823350027 1.0000000000
0.0073650000 0.0000000000 0.0823210031 1.0000000000
0.0073529999 0.0000000000 0.0823059976 1.0000000000
0.0073389998 0.0000000000 0.0822940022 1.0000000000
0.0073270001 0.0000000000 0.0822850019 1.0000000000
0.0073150001 0.0000000000 0.0822789967 1.0000000000
0.0073020002 0.0000000000 0.0822739974 1.0000000000
0.0072880001 0.0000000000 0.0822599977 1.0000000000
0.0072750002 0.0000000000 0.0822400004 1.0000000000
0.0072619999 0.0000000000 0.0822279975 1.0000000000
0.0072499998 0.0000000000 0.0822229981 1.0000000000
0.0072369999 0.0000000000 0.0822099969 1.0000000000
0.0072240001 0.0000000000 0.0821919963 1.0000000000
0.0072110002 0.0000000000 0.0821859986 1.0000000000
0.0071990001 0.0000000000 0.0821809992 1.0000000000
0.0071859998 0.0000000000 0.0821779966 1.0000000000
0.0071740001 0.0000000000 0.0821700022 1.0000000000
0.0071589998 0.0000000000 0.0821539983 1.0000000000
0.0071470002 0.0000000000 0.0821349993 1.0000000000
0.0071319998 0.0000000000 0.0821089968 1.0000000000
0.0071190000 0.0000000000 0.0820849985 1.0000000000
0.0071049999 0.0000000000 0.0820730031 1.0000000000
0.0070940000 0.0000000000 0.0820690021 1.0000000000
0.0070810001 0.0000000000 0.0820640028 1.0000000000
0.0070690000 0.0000000000 0.0820579976 1.0000000000
0.0070560002 0.0000000000 0.0820650011 1.0000000000
0.0070449999 0.0000000000 0.0820610002 1.0000000000
0.0070300000 0.0000000000 0.0820330009 1.0000000000
0.0070170001 0.0000000000 0.0820079967 1.0000000000
0.0070030000 0.0000000000 0.0819989964 1.0000000000
0.0069920002 0.0000000000 0.0819920003 1.0000000000
0.0069789998 0.0000000000 0.0819839984 1.0000000000
0.0069670002 0.0000000000 0.0819780007 1.0000000000
0.0069530001 0.0000000000 0.0819699988 1.0000000000
0.0069410000 0.0000000000 0.0819569975 1.0000000000
0.0069269999 0.0000000000 0.0819469988 1.0000000000
0.0069160000 0.0000000000 0.0819400027 1.0000000000
0.0069030002 0.0000000000 0.0819320008 1.0000000000
0.0068899998 0.0000000000 0.0819199979 1.0000000000
0.0068780002 0.0000000000 0.0819069967 1.0000000000
0.0068649999 0.0000000000 0.0819030032 1.0000000000
0.0068509998 0.0000000000 0.0818940029 1.0000000000
0.0068390002 0.0000000000 0.0818770006 1.0000000000
0.0068259998 0.0000000000 0.0818639994 1.0000000000
0.0068140002 0.0000000000 0.0818620026 1.0000000000
0.0068020001 0.0000000000 0.0818559974 1.0000000000
0.0067889998 0.0000000000 0.0818450004 1.0000000000
0.0067759999 0.0000000000 0.0818310007 1.0000000000
0.0067630000 0.0000000000 0.0818179995 1.0000000000
0.0067489999 0.0000000000 0.0818009973 1.0000000000
0.0067369998 0.0000000000 0.0817859992 1.0000000000
0.0067220000 0.0000000000 0.0817670003 1.0000000000
0.0067099999 0.0000000000 0.0817499980 1.0000000000
0.0066979998 0.0000000000 0.0817440003 1.0000000000
0.0066860002 0.0000000000 0.0817509964 1.0000000000
0.0066740001 0.0000000000 0.0817509964 1.0000000000
0.0066620000 0.0000000000 0.0817409977 1.0000000000
0.0066479999 0.0000000000 0.0817369968 1.0000000000
0.0066370000 0.0000000000 0.0817350000 1.0000000000
0.0066249999 0.0000000000 0.0817359984 1.0000000000
0.0066140001 0.0000000000 0.0817390010 1.0000000000
0.0066010002 0.0000000000 0.0817380026 1.0000000000
0.0065899999 0.0000000000 0.0817399994 1.0000000000
0.0065779998 0.0000000000 0.0817369968 1.0000000000
0.0065649999 0.0000000000 0.0817279965 1.0000000000
0.0065520001 0.0000000000 0.0817229971 1.0000000000
0.0065410002 0.0000000000 0.0817250013 1.0000000000
0.0065290001 0.0000000000 0.0817279965 1.0000000000
0.0065170000 0.0000000000 0.0817309991 1.0000000000
0.0065040002 0.0000000000 0.0817300007 1.0000000000
0.0064940001 0.0000000000 0.0817330033 1.0000000000
0.0064810002 0.0000000000 0.0817369968 1.0000000000
0.0064699999 0.0000000000 0.0817399994 1.0000000000
0.0064579998 0.0000000000 0.0817369968 1.0000000000
0.0064460002 0.0000000000 0.0817319974 1.0000000000
0.0064320001 0.0000000000 0.0817290023 1.0000000000
0.0064220000 0.0000000000 0.0817330033 1.0000000000
0.0064090001 0.0000000000 0.0817359984 1.0000000000
0.0063979998 0.0000000000 0.0817409977 1.0000000000
0.0063870000 0.0000000000 0.0817430019 1.0000000000
0.0063749999 0.0000000000 0.0817409977 1.0000000000
0.0063620000 0.0000000000 0.0817359984 1.0000000000
0.0063499999 0.0000000000 0.0817300007 1.0000000000
0.0063379998 0.0000000000 0.0817250013 1.0000000000
0.0063250000 0.0000000000 0.0817219988 1.0000000000
0.0063140001 0.0000000000 0.0817250013 1.0000000000
0.0063020000 0.0000000000 0.0817309991 1.0000000000
0.0062899999 0.0000000000 0.0817359984 1.0000000000
0.0062790001 0.0000000000 0.0817390010 1.0000000000
0.0062670000 0.0000000000 0.0817420036 1.0000000000
0.0062549999 0.0000000000 0.0817409977 1.0000000000
0.0062429998 0.0000000000 0.0817409977 1.0000000000
0.0062310002 0.0000000000 0.0817459971 1.0000000000
0.0062190001 0.0000000000 0.0817440003 1.0000000000
0.0062070000 0.0000000000 0.0817449987 1.0000000000
0.0061960001 0.0000000000 0.0817499980 1.0000000000
0.0061829998 0.0000000000 0.0817480013 1.0000000000
0.0061710002 0.0000000000 0.0817430019 1.0000000000
0.0061590001 0.0000000000 0.0817440003 1.0000000000
0.0061470000 0.0000000000 0.0817440003 1.0000000000
0.0061349999 0.0000000000 0.0817340016 1.0000000000
0.0061209998 0.0000000000 0.0817309991 1.0000000000
0.0061110002 0.0000000000 0.0817390010 1.0000000000
0.0060990001 0.0000000000 0.0817420036 1.0000000000
0.0060870000 0.0000000000 0.0817430019 1.0000000000
0.0060749999 0.0000000000 0.0817430019 1.0000000000
0.0060629998 0.0000000000 0.0817399994 1.0000000000
0.0060510002 0.0000000000 0.0817330033 1.0000000000
0.0060379999 0.0000000000 0.0817300007 1.0000000000
0.0060270000 0.0000000000 0.0817340016 1.0000000000
0.0060149999 0.0000000000 0.0817399994 1.0000000000
0.0060020001 0.0000000000 0.0817440003 1.0000000000
0.0059910002 0.0000000000 0.0817440003 1.0000000000
0.0059790001 0.0000000000 0.0817409977 1.0000000000
0.0059670000 0.0000000000 0.0817369968 1.0000000000
0.0059549999 0.0000000000 0.0817420036 1.0000000000
0.0059440001 0.0000000000 0.0817480013 1.0000000000
0.0059310002 0.0000000000 0.0817420036 1.0000000000
0.0059190001 0.0000000000 0.0817399994 1.0000000000
0.0059059998 0.0000000000 0.0817449987 1.0000000000
0.0058950000 0.0000000000 0.0817449987 1.0000000000
0.0058820001 0.0000000000 0.0817350000 1.0000000000
0.0058709998 0.0000000000 0.0817359984 1.0000000000
0.0058579999 0.0000000000 0.0817369968 1.0000000000
0.0058470001 0.0000000000 0.0817440003 1.0000000000
0.0058360002 0.0000000000 0.0817520022 1.0000000000
0.0058240001 0.0000000000 0.0817489997 1.0000000000
0.0058100000 0.0000000000 0.0817380026 1.0000000000
0.0057990002 0.0000000000 0.0817330033 1.0000000000
0.0057859998 0.0000000000 0.0817350000 1.0000000000
0.0057750000 0.0000000000 0.0817399994 1.0000000000
0.0057620001 0.0000000000 0.0817369968 1.0000000000
0.0057509998 0.0000000000 0.0817390010 1.0000000000
0.0057390002 0.0000000000 0.0817440003 1.0000000000
0.0057270001 0.0000000000 0.0817420036 1.0000000000
0.0057140002 0.0000000000 0.0817390010 1.0000000000
0.0057029999 0.0000000000 0.0817409977 1.0000000000
0.0056909998 0.0000000000 0.0817430019 1.0000000000
0.0056790002 0.0000000000 0.0817420036 1.0000000000
0.0056659998 0.0000000000 0.0817369968 1.0000000000
0.0056550000 0.0000000000 0.0817380026 1.0000000000
0.0056420001 0.0000000000 0.0817449987 1.0000000000
0.0056309998 0.0000000000 0.0817470029 1.0000000000
0.0056190002 0.0000000000 0.0817420036 1.0000000000
0.0056070001 0.0000000000 0.0817390010 1.0000000000
0.0055950000 0.0000000000 0.0817399994 1.0000000000
0.0055829999 0.0000000000 0.0817430019 1.0000000000
0.0055700000 0.0000000000 0.0817420036 1.0000000000
0.0055590002 0.0000000000 0.0817430019 1.0000000000
0.0055459999 0.0000000000 0.0817449987 1.0000000000
0.0055350000 0.0000000000 0.0817480013 1.0000000000
0.0055220001 0.0000000000 0.0817459971 1.0000000000
0.0055109998 0.0000000000 0.0817420036 1.0000000000
0.0054980000 0.0000000000 0.0817369968 1.0000000000
0.0054859999 0.0000000000 0.0817350000 1.0000000000
0.0054730000 0.0000000000 0.0817350000 1.0000000000
0.0054629999 0.0000000000 0.0817399994 1.0000000000
0.0054500001 0.0000000000 0.0817430019 1.0000000000
0.0054390002 0.0000000000 0.0817420036 1.0000000000
0.0054270001 0.0000000000 0.0817420036 1.0000000000
0.0054150000 0.0000000000 0.0817420036 1.0000000000
0.0054029999 0.0000000000 0.0817399994 1.0000000000
0.0053909998 0.0000000000 0.0817470029 1.0000000000
0.0053790002 0.0000000000 0.0817509964 1.0000000000
0.0053670001 0.0000000000 0.0817480013 1.0000000000
0.0053539998 0.0000000000 0.0817449987 1.0000000000
0.0053429999 0.0000000000 0.0817489997 1.0000000000
0.0053309998 0.0000000000 0.0817499980 1.0000000000
0.0053190002 0.0000000000 0.0817470029 1.0000000000
0.0053059999 0.0000000000 0.0817420036 1.0000000000
0.0052950000 0.0000000000 0.0817409977 1.0000000000
0.0052820002 0.0000000000 0.0817420036 1.0000000000
0.0052709999 0.0000000000 0.0817449987 1.0000000000
0.0052580000 0.0000000000 0.0817420036 1.0000000000
0.0052470001 0.0000000000 0.0817440003 1.0000000000
0.0052350000 0.0000000000 0.0817470029 1.0000000000
0.0052230000 0.0000000000 0.0817520022 1.0000000000
0.0052100001 0.0000000000 0.0817520022 1.0000000000
0.0052000000 0.0000000000 0.0817570016 1.0000000000
0.0051879999 0.0000000000 0.0817660019 1.0000000000
0.0051759998 0.0000000000 0.0817629993 1.0000000000
0.0051620002 0.0000000000 0.0817539990 1.0000000000
0.0051509999 0.0000000000 0.0817520022 1.0000000000
0.0051380000 0.0000000000 0.0817499980 1.0000000000
0.0051270002 0.0000000000 0.0817470029 1.0000000000
0.0051150001 0.0000000000 0.0817409977 1.0000000000
0.0051020002 0.0000000000 0.0817369968 1.0000000000
0.0050909999 0.0000000000 0.0817420036 1.0000000000
0.0050789998 0.0000000000 0.0817489997 1.0000000000
0.0050670002 0.0000000000 0.0817480013 1.0000000000
0.0050550001 0.0000000000 0.0817499980 1.0000000000
0.0050420002 0.0000000000 0.0817509964 1.0000000000
0.0050309999 0.0000000000 0.0817509964 1.0000000000
0.0050189998 0.0000000000 0.0817489997 1.0000000000
0.0050070002 0.0000000000 0.0817470029 1.0000000000
0.0049950001 0.0000000000 0.0817499980 1.0000000000
0.0049830000 0.0000000000 0.0817499980 1.0000000000
0.0049700001 0.0000000000 0.0817520022 1.0000000000
0.0049589998 0.0000000000 0.0817520022 1.0000000000
0.0049459999 0.0000000000 0.0817520022 1.0000000000
0.0049350001 0.0000000000 0.0817560032 1.0000000000
0.0049230000 0.0000000000 0.0817580000 1.0000000000
0.0049109999 0.0000000000 0.0817589983 1.0000000000
0.0048989998 0.0000000000 0.0817580000 1.0000000000
0.0048870002 0.0000000000 0.0817530006 1.0000000000
0.0048750001 0.0000000000 0.0817499980 1.0000000000
0.0048630000 0.0000000000 0.0817489997 1.0000000000
0.0048500001 0.0000000000 0.0817530006 1.0000000000
0.0048389998 0.0000000000 0.0817599967 1.0000000000
0.0048260000 0.0000000000 0.0817599967 1.0000000000
0.0048150001 0.0000000000 0.0817520022 1.0000000000
0.0048030000 0.0000000000 0.0817480013 1.0000000000
0.0047909999 0.0000000000 0.0817539990 1.0000000000
0.0047789998 0.0000000000 0.0817549974 1.0000000000
0.0047670002 0.0000000000 0.0817509964 1.0000000000
0.0047550001 0.0000000000 0.0817459971 1.0000000000
0.0047419998 0.0000000000 0.0817409977 1.0000000000
0.0047289999 0.0000000000 0.0817430019 1.0000000000
0.0047180001 0.0000000000 0.0817440003 1.0000000000
0.0047070002 0.0000000000 0.0817489997 1.0000000000
0.0046950001 0.0000000000 0.0817599967 1.0000000000
0.0046830000 0.0000000000 0.0817570016 1.0000000000
0.0046709999 0.0000000000 0.0817520022 1.0000000000
0.0046580001 0.0000000000 0.0817530006 1.0000000000
0.0046470002 0.0000000000 0.0817580000 1.0000000000
0.0046350001 0.0000000000 0.0817549974 1.0000000000
0.0046219998 0.0000000000 0.0817449987 1.0000000000
0.0046089999 0.0000000000 0.0817420036 1.0000000000
0.0045989999 0.0000000000 0.0817470029 1.0000000000
0.0045860000 0.0000000000 0.0817520022 1.0000000000
0.0045750001 0.0000000000 0.0817560032 1.0000000000
0.0045619998 0.0000000000 0.0817610025 1.0000000000
0.0045510000 0.0000000000 0.0817670003 1.0000000000
0.0045380001 0.0000000000 0.0817650035 1.0000000000
0.0045269998 0.0000000000 0.0817670003 1.0000000000
0.0045139999 0.0000000000 0.0817679986 1.0000000000
0.0045030001 0.0000000000 0.0817679986 1.0000000000
0.0044900002 0.0000000000 0.0817589983 1.0000000000
0.0044780001 0.0000000000 0.0817480013 1.0000000000
0.0044649998 0.0000000000 0.0817499980 1.0000000000
0.0044539999 0.0000000000 0.0817560032 1.0000000000
0.0044410001 0.0000000000 0.0817570016 1.0000000000
0.0044310000 0.0000000000 0.0817629993 1.0000000000
0.0044180001 0.0000000000 0.0817570016 1.0000000000
0.0044060000 0.0000000000 0.0817560032 1.0000000000
0.0043950002 0.0000000000 0.0817629993 1.0000000000
0.0043830001 0.0000000000 0.0817679986 1.0000000000
0.0043700002 0.0000000000 0.0817689970 1.0000000000
0.0043589999 0.0000000000 0.0817660019 1.0000000000
0.0043449998 0.0000000000 0.0817589983 1.0000000000
0.0043339999 0.0000000000 0.0817620009 1.0000000000
0.0043210001 0.0000000000 0.0817660019 1.0000000000
0.0043100002 0.0000000000 0.0817650035 1.0000000000
0.0042980001 0.0000000000 0.0817629993 1.0000000000
0.0042860000 0.0000000000 0.0817620009 1.0000000000
0.0042730002 0.0000000000 0.0817599967 1.0000000000
0.0042619999 0.0000000000 0.0817599967 1.0000000000
0.0042500002 0.0000000000 0.0817639977 1.0000000000
0.0042380001 0.0000000000 0.0817719996 1.0000000000
0.0042249998 0.0000000000 0.0817670003 1.0000000000
0.0042140000 0.0000000000 0.0817580000 1.0000000000
0.0041999999 0.0000000000 0.0817570016 1.0000000000
0.0041899998 0.0000000000 0.0817610025 1.0000000000
0.0041760001 0.0000000000 0.0817599967 1.0000000000
0.0041649998 0.0000000000 0.0817570016 1.0000000000
0.0041530002 0.0000000000 0.0817530006 1.0000000000
0.0041410001 0.0000000000 0.0817509964 1.0000000000
0.0041290000 0.0000000000 0.0817549974 1.0000000000
0.0041169999 0.0000000000 0.0817589983 1.0000000000
0.0041040001 0.0000000000 0.0817599967 1.0000000000
0.0040930002 0.0000000000 0.0817610025 1.0000000000
0.0040810001 0.0000000000 0.0817650035 1.0000000000
0.0040699998 0.0000000000 0.0817739964 1.0000000000
0.0040569999 0.0000000000 0.0817829967 1.0000000000
0.0040460001 0.0000000000 0.0817880034 1.0000000000
0.0040330002 0.0000000000 0.0817819983 1.0000000000
0.0040210001 0.0000000000 0.0817719996 1.0000000000
0.0040090000 0.0000000000 0.0817629993 1.0000000000
0.0039969999 0.0000000000 0.0817599967 1.0000000000
0.0039840001 0.0000000000 0.0817599967 1.0000000000
0.0039730002 0.0000000000 0.0817629993 1.0000000000
0.0039599999 0.0000000000 0.0817639977 1.0000000000
0.0039490000 0.0000000000 0.0817639977 1.0000000000
0.0039369999 0.0000000000 0.0817629993 1.0000000000
0.0039240001 0.0000000000 0.0817610025 1.0000000000
0.0039120000 0.0000000000 0.0817549974 1.0000000000
0.0038999999 0.0000000000 0.0817509964 1.0000000000
0.0038870000 0.0000000000 0.0817489997 1.0000000000
0.0038759999 0.0000000000 0.0817499980 1.0000000000
0.0038640001 0.0000000000 0.0817560032 1.0000000000
0.0038520000 0.0000000000 0.0817610025 1.0000000000
0.0038389999 0.0000000000 0.0817570016 1.0000000000
0.0038280000 0.0000000000 0.0817560032 1.0000000000
0.0038149999 0.0000000000 0.0817650035 1.0000000000
0.0038050001 0.0000000000 0.0817729980 1.0000000000
0.0037910000 0.0000000000 0.0817729980 1.0000000000
0.0037799999 0.0000000000 0.0817719996 1.0000000000
0.0037670000 0.0000000000 0.0817650035 1.0000000000
0.0037550000 0.0000000000 0.0817539990 1.0000000000
0.0037420001 0.0000000000 0.0817480013 1.0000000000
0.0037310000 0.0000000000 0.0817499980 1.0000000000
0.0037179999 0.0000000000 0.0817489997 1.0000000000
0.0037070001 0.0000000000 0.0817539990 1.0000000000
0.0036960000 0.0000000000 0.0817610025 1.0000000000
0.0036840001 0.0000000000 0.0817629993 1.0000000000
0.0036700000 0.0000000000 0.0817639977 1.0000000000
0.0036599999 0.0000000000 0.0817710012 1.0000000000
0.0036480001 0.0000000000 0.0817779973 1.0000000000
0.0036360000 0.0000000000 0.0817790031 1.0000000000
0.0036239999 0.0000000000 0.0817729980 1.0000000000
0.0036120000 0.0000000000 0.0817719996 1.0000000000
0.0035999999 0.0000000000 0.0817710012 1.0000000000
0.0035870001 0.0000000000 0.0817700028 1.0000000000
0.0035750000 0.0000000000 0.0817729980 1.0000000000
0.0035629999 0.0000000000 0.0817739964 1.0000000000
0.0035500000 0.0000000000 0.0817760006 1.0000000000
0.0035399999 0.0000000000 0.0817800015 1.0000000000
0.0035270001 0.0000000000 0.0817779973 1.0000000000
0.0035160000 0.0000000000 0.0817800015 1.0000000000
0.0035029999 0.0000000000 0.0817790031 1.0000000000
0.0034910000 0.0000000000 0.0817710012 1.0000000000
0.0034789999 0.0000000000 0.0817629993 1.0000000000
0.0034670001 0.0000000000 0.0817629993 1.0000000000
0.0034550000 0.0000000000 0.0817689970 1.0000000000
0.0034429999 0.0000000000 0.0817750022 1.0000000000
0.0034300000 0.0000000000 0.0817729980 1.0000000000
0.0034190000 0.0000000000 0.0817700028 1.0000000000
0.0034070001 0.0000000000 0.0817689970 1.0000000000
0.0033950000 0.0000000000 0.0817700028 1.0000000000
0.0033829999 0.0000000000 0.0817700028 1.0000000000
0.0033710001 0.0000000000 0.0817750022 1.0000000000
0.0033580000 0.0000000000 0.0817819983 1.0000000000
0.0033470001 0.0000000000 0.0817790031 1.0000000000
0.0033330000 0.0000000000 0.0817719996 1.0000000000
0.0033219999 0.0000000000 0.0817739964 1.0000000000
0.0033090001 0.0000000000 0.0817739964 1.0000000000
0.0032980000 0.0000000000 0.0817760006 1.0000000000
0.0032860001 0.0000000000 0.0817800015 1.0000000000
0.0032740000 0.0000000000 0.0817809999 1.0000000000
0.0032619999 0.0000000000 0.0817790031 1.0000000000
0.0032500001 0.0000000000 0.0817809999 1.0000000000
0.0032370000 0.0000000000 0.0817819983 1.0000000000
0.0032259999 0.0000000000 0.0817850009 1.0000000000
0.0032130000 0.0000000000 0.0817900002 1.0000000000
0.0032019999 0.0000000000 0.0817890018 1.0000000000
0.0031900001 0.0000000000 0.0817769989 1.0000000000
0.0031780000 0.0000000000 0.0817700028 1.0000000000
0.0031649999 0.0000000000 0.0817729980 1.0000000000
0.0031540000 0.0000000000 0.0817790031 1.0000000000
0.0031419999 0.0000000000 0.0817790031 1.0000000000
0.0031300001 0.0000000000 0.0817779973 1.0000000000
0.0031180000 0.0000000000 0.0817790031 1.0000000000
0.0031059999 0.0000000000 0.0817790031 1.0000000000
0.0030940000 0.0000000000 0.0817769989 1.0000000000
0.0030809999 0.0000000000 0.0817739964 1.0000000000
0.0030690001 0.0000000000 0.0817719996 1.0000000000
0.0030570000 0.0000000000 0.0817710012 1.0000000000
0.0030449999 0.0000000000 0.0817710012 1.0000000000
0.0030330000 0.0000000000 0.0817760006 1.0000000000
0.0030210000 0.0000000000 0.0817779973 1.0000000000
0.0030090001 0.0000000000 0.0817760006 1.0000000000
0.0029960000 0.0000000000 0.0817719996 1.0000000000
0.0029849999 0.0000000000 0.0817739964 1.0000000000
0.0029730001 0.0000000000 0.0817710012 1.0000000000
0.0029610000 0.0000000000 0.0817700028 1.0000000000
0.0029490001 0.0000000000 0.0817710012 1.0000000000
0.0029370000 0.0000000000 0.0817719996 1.0000000000
0.0029239999 0.0000000000 0.0817809999 1.0000000000
0.0029130001 0.0000000000 0.0817869976 1.0000000000
0.0029000000 0.0000000000 0.0817809999 1.0000000000
0.0028880001 0.0000000000 0.0817779973 1.0000000000
0.0028750000 0.0000000000 0.0817710012 1.0000000000
0.0028639999 0.0000000000 0.0817689970 1.0000000000
0.0028520001 0.0000000000 0.0817760006 1.0000000000
0.0028400000 0.0000000000 0.0817800015 1.0000000000
0.0028280001 0.0000000000 0.0817800015 1.0000000000
0.0028160000 0.0000000000 0.0817900002 1.0000000000
0.0028039999 0.0000000000 0.0817980021 1.0000000000
0.0027930001 0.0000000000 0.0818009973 1.0000000000
0.0027790000 0.0000000000 0.0817980021 1.0000000000
0.0027679999 0.0000000000 0.0817930028 1.0000000000
0.0027550000 0.0000000000 0.0817909986 1.0000000000
0.0027439999 0.0000000000 0.0817969963 1.0000000000
0.0027310001 0.0000000000 0.0817990005 1.0000000000
0.0027200000 0.0000000000 0.0817990005 1.0000000000
0.0027069999 0.0000000000 0.0817980021 1.0000000000
0.0026960000 0.0000000000 0.0818039998 1.0000000000
0.0026839999 0.0000000000 0.0818149969 1.0000000000
0.0026720001 0.0000000000 0.0818200037 1.0000000000
0.0026590000 0.0000000000 0.0818170011 1.0000000000
0.0026479999 0.0000000000 0.0818149969 1.0000000000
0.0026350000 0.0000000000 0.0818139985 1.0000000000
0.0026240000 0.0000000000 0.0818170011 1.0000000000
0.0026110001 0.0000000000 0.0818179995 1.0000000000
0.0026000000 0.0000000000 0.0818160027 1.0000000000
0.0025879999 0.0000000000 0.0818139985 1.0000000000
0.0025760001 0.0000000000 0.0818130001 1.0000000000
0.0025640000 0.0000000000 0.0818120018 1.0000000000
0.0025520001 0.0000000000 0.0818170011 1.0000000000
0.0025400000 0.0000000000 0.0818200037 1.0000000000
0.0025279999 0.0000000000 0.0818250030 1.0000000000
0.0025150001 0.0000000000 0.0818319991 1.0000000000
0.0025040000 0.0000000000 0.0818310007 1.0000000000
0.0024920001 0.0000000000 0.0818300024 1.0000000000
0.0024800000 0.0000000000 0.0818319991 1.0000000000
0.0024659999 0.0000000000 0.0818350017 1.0000000000
0.0024560001 0.0000000000 0.0818499997 1.0000000000
0.0024440000 0.0000000000 0.0818739980 1.0000000000
0.0024329999 0.0000000000 0.0818959996 1.0000000000
0.0024200000 0.0000000000 0.0819000006 1.0000000000
0.0024100000 0.0000000000 0.0819379985 1.0000000000
0.0023980001 0.0000000000 0.0819600001 1.0000000000
0.0023860000 0.0000000000 0.0819619969 1.0000000000
0.0023739999 0.0000000000 0.0819569975 1.0000000000
0.0023620001 0.0000000000 0.0819460005 1.0000000000
0.0023480000 0.0000000000 0.0819429979 1.0000000000
-0.0022209999 0.0000000000 0.0845780000 1.0000000000
-0.0022340000 0.0000000000 0.0845799968 1.0000000000
-0.0022440001 0.0000000000 0.0845049992 1.0000000000
-0.0022570000 0.0000000000 0.0845149979 1.0000000000
-0.0022700001 0.0000000000 0.0845159963 1.0000000000
-0.0022290000 0.0000000000 0.0821020007 1.0000000000
-0.0022400001 0.0000000000 0.0820989981 1.0000000000
-0.0022519999 0.0000000000 0.0820989981 1.0000000000
-0.0022640000 0.0000000000 0.0820949972 1.0000000000
-0.0022760001 0.0000000000 0.0820899978 1.0000000000
-0.0022880000 0.0000000000 0.0820920020 1.0000000000
-0.0023000001 0.0000000000 0.0820910037 1.0000000000
-0.0023119999 0.0000000000 0.0820749998 1.0000000000
-0.0023240000 0.0000000000 0.0820569992 1.0000000000
-0.0023350001 0.0000000000 0.0820479989 1.0000000000
-0.0023469999 0.0000000000 0.0820289999 1.0000000000
-0.0023590000 0.0000000000 0.0820150003 1.0000000000
-0.0023719999 0.0000000000 0.0820050016 1.0000000000
-0.0023830000 0.0000000000 0.0819939971 1.0000000000
-0.0023940001 0.0000000000 0.0819799975 1.0000000000
-0.0024059999 0.0000000000 0.0819709972 1.0000000000
-0.0024190000 0.0000000000 0.0819619969 1.0000000000
-0.0024300001 0.0000000000 0.0819490030 1.0000000000
-0.0024420000 0.0000000000 0.0819339976 1.0000000000
-0.0024530001 0.0000000000 0.0819109976 1.0000000000
-0.0024649999 0.0000000000 0.0818979964 1.0000000000
-0.0024770000 0.0000000000 0.0818900019 1.0000000000
-0.0024890001 0.0000000000 0.0818839967 1.0000000000
-0.0025010000 0.0000000000 0.0818850026 1.0000000000
-0.0025130000 0.0000000000 0.0818839967 1.0000000000
-0.0025249999 0.0000000000 0.0818829983 1.0000000000
-0.0025380000 0.0000000000 0.0818839967 1.0000000000
-0.0025490001 0.0000000000 0.0818829983 1.0000000000
-0.0025609999 0.0000000000 0.0818749964 1.0000000000
-0.0025730000 0.0000000000 0.0818729997 1.0000000000
-0.0025849999 0.0000000000 0.0818729997 1.0000000000
-0.0025970000 0.0000000000 0.0818720013 1.0000000000
-0.0026100001 0.0000000000 0.0818680003 1.0000000000
-0.0026209999 0.0000000000 0.0818649977 1.0000000000
-0.0026340000 0.0000000000 0.0818620026 1.0000000000
-0.0026449999 0.0000000000 0.0818649977 1.0000000000
-0.0026580000 0.0000000000 0.0818649977 1.0000000000
-0.0026700001 0.0000000000 0.0818639994 1.0000000000
-0.0026829999 0.0000000000 0.0818599984 1.0000000000
-0.0026940000 0.0000000000 0.0818599984 1.0000000000
-0.0027069999 0.0000000000 0.0818630010 1.0000000000
-0.0027180000 0.0000000000 0.0818680003 1.0000000000
-0.0027310001 0.0000000000 0.0818710029 1.0000000000
-0.0027419999 0.0000000000 0.0818770006 1.0000000000
-0.0027550000 0.0000000000 0.0818779990 1.0000000000
-0.0027670001 0.0000000000 0.0818739980 1.0000000000
-0.0027790000 0.0000000000 0.0818729997 1.0000000000
-0.0027910001 0.0000000000 0.0818729997 1.0000000000
-0.0028039999 0.0000000000 0.0818699971 1.0000000000
-0.0028150000 0.0000000000 0.0818680003 1.0000000000
-0.0028280001 0.0000000000 0.0818630010 1.0000000000
-0.0028390000 0.0000000000 0.0818580016 1.0000000000
-0.0028500000 0.0000000000 0.0818499997 1.0000000000
-0.0028629999 0.0000000000 0.0818559974 1.0000000000
-0.0028750000 0.0000000000 0.0818649977 1.0000000000
-0.0028870001 0.0000000000 0.0818609968 1.0000000000
-0.0028990000 0.0000000000 0.0818580016 1.0000000000
-0.0029110000 0.0000000000 0.0818609968 1.0000000000
-0.0029239999 0.0000000000 0.0818609968 1.0000000000
-0.0029350000 0.0000000000 0.0818590000 1.0000000000
-0.0029470001 0.0000000000 0.0818599984 1.0000000000
-0.0029589999 0.0000000000 0.0818599984 1.0000000000
-0.0029720000 0.0000000000 0.0818620026 1.0000000000
-0.0029839999 0.0000000000 0.0818599984 1.0000000000
-0.0029960000 0.0000000000 0.0818499997 1.0000000000
-0.0030080001 0.0000000000 0.0818540007 1.0000000000
-0.0030199999 0.0000000000 0.0818570033 1.0000000000
-0.0030320000 0.0000000000 0.0818590000 1.0000000000
-0.0030449999 0.0000000000 0.0818599984 1.0000000000
-0.0030560000 0.0000000000 0.0818580016 1.0000000000
-0.0030680001 0.0000000000 0.0818570033 1.0000000000
-0.0030799999 0.0000000000 0.0818609968 1.0000000000
-0.0030920000 0.0000000000 0.0818660036 1.0000000000
-0.0031039999 0.0000000000 0.0818630010 1.0000000000
-0.0031170000 0.0000000000 0.0818509981 1.0000000000
-0.0031280001 0.0000000000 0.0818509981 1.0000000000
-0.0031399999 0.0000000000 0.0818559974 1.0000000000
-0.0031530000 0.0000000000 0.0818599984 1.0000000000
-0.0031659999 0.0000000000 0.0818620026 1.0000000000
-0.0031770000 0.0000000000 0.0818660036 1.0000000000
-0.0031890001 0.0000000000 0.0818599984 1.0000000000
-0.0032009999 0.0000000000 0.0818540007 1.0000000000
-0.0032140000 0.0000000000 0.0818530023 1.0000000000
-0.0032250001 0.0000000000 0.0818549991 1.0000000000
-0.0032380000 0.0000000000 0.0818599984 1.0000000000
-0.0032490001 0.0000000000 0.0818699971 1.0000000000
-0.0032619999 0.0000000000 0.0818699971 1.0000000000
-0.0032730000 0.0000000000 0.0818649977 1.0000000000
-0.0032860001 0.0000000000 0.0818670020 1.0000000000
-0.0032980000 0.0000000000 0.0818710029 1.0000000000
-0.0033100001 0.0000000000 0.0818660036 1.0000000000
-0.0033219999 0.0000000000 0.0818620026 1.0000000000
-0.0033340000 0.0000000000 0.0818689987 1.0000000000
-0.0033460001 0.0000000000 0.0818720013 1.0000000000
-0.0033590000 0.0000000000 0.0818639994 1.0000000000
-0.0033700000 0.0000000000 0.0818609968 1.0000000000
-0.0033829999 0.0000000000 0.0818639994 1.0000000000
-0.0033940000 0.0000000000 0.0818630010 1.0000000000
-0.0034060001 0.0000000000 0.0818599984 1.0000000000
-0.0034179999 0.0000000000 0.0818620026 1.0000000000
-0.0034300000 0.0000000000 0.0818599984 1.0000000000
-0.0034419999 0.0000000000 0.0818620026 1.0000000000
-0.0034550000 0.0000000000 0.0818639994 1.0000000000
-0.0034660001 0.0000000000 0.0818609968 1.0000000000
-0.0034779999 0.0000000000 0.0818599984 1.0000000000
-0.0034900000 0.0000000000 0.0818620026 1.0000000000
-0.0035029999 0.0000000000 0.0818639994 1.0000000000
-0.0035140000 0.0000000000 0.0818639994 1.0000000000
-0.0035270001 0.0000000000 0.0818639994 1.0000000000
-0.0035389999 0.0000000000 0.0818649977 1.0000000000
-0.0035510000 0.0000000000 0.0818609968 1.0000000000
-0.0035629999 0.0000000000 0.0818630010 1.0000000000
-0.0035750000 0.0000000000 0.0818670020 1.0000000000
-0.0035870001 0.0000000000 0.0818720013 1.0000000000
-0.0035989999 0.0000000000 0.0818739980 1.0000000000
-0.0036110000 0.0000000000 0.0818789974 1.0000000000
-0.0036239999 0.0000000000 0.0818810016 1.0000000000
-0.0036360000 0.0000000000 0.0818770006 1.0000000000
-0.0036480001 0.0000000000 0.0818729997 1.0000000000
-0.0036599999 0.0000000000 0.0818739980 1.0000000000
-0.0036720000 0.0000000000 0.0818720013 1.0000000000
-0.0036840001 0.0000000000 0.0818699971 1.0000000000
-0.0036950000 0.0000000000 0.0818670020 1.0000000000
-0.0037080001 0.0000000000 0.0818680003 1.0000000000
-0.0037209999 0.0000000000 0.0818699971 1.0000000000
-0.0037320000 0.0000000000 0.0818689987 1.0000000000
-0.0037450001 0.0000000000 0.0818710029 1.0000000000
-0.0037560000 0.0000000000 0.0818749964 1.0000000000
-0.0037690001 0.0000000000 0.0818699971 1.0000000000
-0.0037799999 0.0000000000 0.0818680003 1.0000000000
-0.0037920000 0.0000000000 0.0818670020 1.0000000000
-0.0038040001 0.0000000000 0.0818660036 1.0000000000
-0.0038170000 0.0000000000 0.0818630010 1.0000000000
-0.0038280000 0.0000000000 0.0818620026 1.0000000000
-0.0038399999 0.0000000000 0.0818609968 1.0000000000
-0.0038520000 0.0000000000 0.0818670020 1.0000000000
-0.0038650001 0.0000000000 0.0818729997 1.0000000000
-0.0038770000 0.0000000000 0.0818749964 1.0000000000
-0.0038900001 0.0000000000 0.0818739980 1.0000000000
-0.0038999999 0.0000000000 0.0818680003 1.0000000000
-0.0039130002 0.0000000000 0.0818639994 1.0000000000
-0.0039249999 0.0000000000 0.0818680003 1.0000000000
-0.0039369999 0.0000000000 0.0818779990 1.0000000000
-0.0039490000 0.0000000000 0.0818860009 1.0000000000
-0.0039610001 0.0000000000 0.0818839967 1.0000000000
-0.0039730002 0.0000000000 0.0818749964 1.0000000000
-0.0039849998 0.0000000000 0.0818680003 1.0000000000
-0.0039969999 0.0000000000 0.0818699971 1.0000000000
-0.0040099998 0.0000000000 0.0818779990 1.0000000000
-0.0040219999 0.0000000000 0.0818860009 1.0000000000
-0.0040340000 0.0000000000 0.0818879977 1.0000000000
-0.0040460001 0.0000000000 0.0818879977 1.0000000000
-0.0040589999 0.0000000000 0.0818820000 1.0000000000
-0.0040699998 0.0000000000 0.0818800032 1.0000000000
-0.0040819999 0.0000000000 0.0818879977 1.0000000000
-0.0040940000 0.0000000000 0.0818869993 1.0000000000
-0.0041060001 0.0000000000 0.0818860009 1.0000000000
-0.0041180002 0.0000000000 0.0818869993 1.0000000000
-0.0041299998 0.0000000000 0.0818839967 1.0000000000
-0.0041419999 0.0000000000 0.0818829983 1.0000000000
-0.0041540000 0.0000000000 0.0818869993 1.0000000000
-0.0041660001 0.0000000000 0.0818850026 1.0000000000
-0.0041789999 0.0000000000 0.0818810016 1.0000000000
-0.0041899998 0.0000000000 0.0818820000 1.0000000000
-0.0042030001 0.0000000000 0.0818800032 1.0000000000
-0.0042140000 0.0000000000 0.0818760023 1.0000000000
-0.0042269998 0.0000000000 0.0818729997 1.0000000000
-0.0042380001 0.0000000000 0.0818760023 1.0000000000
-0.0042519998 0.0000000000 0.0818810016 1.0000000000
-0.0042630001 0.0000000000 0.0818800032 1.0000000000
-0.0042750002 0.0000000000 0.0818760023 1.0000000000
-0.0042869998 0.0000000000 0.0818779990 1.0000000000
-0.0043000001 0.0000000000 0.0818800032 1.0000000000
-0.0043110000 0.0000000000 0.0818839967 1.0000000000
-0.0043239999 0.0000000000 0.0818879977 1.0000000000
-0.0043350002 0.0000000000 0.0818910003 1.0000000000
-0.0043480000 0.0000000000 0.0818900019 1.0000000000
-0.0043589999 0.0000000000 0.0818860009 1.0000000000
-0.0043720002 0.0000000000 0.0818800032 1.0000000000
-0.0043839999 0.0000000000 0.0818879977 1.0000000000
-0.0043959999 0.0000000000 0.0818940029 1.0000000000
-0.0044080000 0.0000000000 0.0818900019 1.0000000000
-0.0044200001 0.0000000000 0.0818869993 1.0000000000
-0.0044320002 0.0000000000 0.0818890035 1.0000000000
-0.0044439998 0.0000000000 0.0818850026 1.0000000000
-0.0044559999 0.0000000000 0.0818810016 1.0000000000
-0.0044689998 0.0000000000 0.0818839967 1.0000000000
-0.0044800001 0.0000000000 0.0818869993 1.0000000000
-0.0044920002 0.0000000000 0.0818869993 1.0000000000
-0.0045039998 0.0000000000 0.0818890035 1.0000000000
-0.0045159999 0.0000000000 0.0818890035 1.0000000000
-0.0045280000 0.0000000000 0.0818829983 1.0000000000
-0.0045400001 0.0000000000 0.0818789974 1.0000000000
-0.0045520002 0.0000000000 0.0818779990 1.0000000000
-0.0045650001 0.0000000000 0.0818820000 1.0000000000
-0.0045759999 0.0000000000 0.0818850026 1.0000000000
-0.0045880000 0.0000000000 0.0818800032 1.0000000000
-0.0046000001 0.0000000000 0.0818789974 1.0000000000
-0.0046130000 0.0000000000 0.0818820000 1.0000000000
-0.0046250001 0.0000000000 0.0818829983 1.0000000000
-0.0046370002 0.0000000000 0.0818810016 1.0000000000
-0.0046489998 0.0000000000 0.0818810016 1.0000000000
-0.0046609999 0.0000000000 0.0818800032 1.0000000000
-0.0046730000 0.0000000000 0.0818829983 1.0000000000
-0.0046859998 0.0000000000 0.0818820000 1.0000000000
-0.0046970001 0.0000000000 0.0818800032 1.0000000000
-0.0047100000 0.0000000000 0.0818800032 1.0000000000
-0.0047209999 0.0000000000 0.0818789974 1.0000000000
-0.0047330000 0.0000000000 0.0818779990 1.0000000000
-0.0047450000 0.0000000000 0.0818850026 1.0000000000
-0.0047570001 0.0000000000 0.0818869993 1.0000000000
-0.0047690002 0.0000000000 0.0818829983 1.0000000000
-0.0047820001 0.0000000000 0.0818800032 1.0000000000
-0.0047929999 0.0000000000 0.0818810016 1.0000000000
-0.0048059998 0.0000000000 0.0818829983 1.0000000000
-0.0048170001 0.0000000000 0.0818820000 1.0000000000
-0.0048290002 0.0000000000 0.0818800032 1.0000000000
-0.0048409998 0.0000000000 0.0818810016 1.0000000000
-0.0048529999 0.0000000000 0.0818860009 1.0000000000
-0.0048659998 0.0000000000 0.0818950012 1.0000000000
-0.0048779999 0.0000000000 0.0818979964 1.0000000000
-0.0048900000 0.0000000000 0.0818919986 1.0000000000
-0.0049020001 0.0000000000 0.0818860009 1.0000000000
-0.0049140002 0.0000000000 0.0818850026 1.0000000000
-0.0049259998 0.0000000000 0.0818829983 1.0000000000
-0.0049379999 0.0000000000 0.0818860009 1.0000000000
-0.0049500000 0.0000000000 0.0818879977 1.0000000000
-0.0049620001 0.0000000000 0.0818850026 1.0000000000
-0.0049740002 0.0000000000 0.0818829983 1.0000000000
-0.0049859998 0.0000000000 0.0818879977 1.0000000000
-0.0049990001 0.0000000000 0.0818900019 1.0000000000
-0.0050100000 0.0000000000 0.0818950012 1.0000000000
-0.0050229998 0.0000000000 0.0819000006 1.0000000000
-0.0050349999 0.0000000000 0.0819040015 1.0000000000
-0.0050470000 0.0000000000 0.0818990022 1.0000000000
-0.0050590001 0.0000000000 0.0819000006 1.0000000000
-0.0050720000 0.0000000000 0.0819000006 1.0000000000
-0.0050820000 0.0000000000 0.0818950012 1.0000000000
-0.0050949999 0.0000000000 0.0818910003 1.0000000000
-0.0051070000 0.0000000000 0.0818979964 1.0000000000
-0.0051190001 0.0000000000 0.0819049999 1.0000000000
-0.0051310002 0.0000000000 0.0819099993 1.0000000000
-0.0051429998 0.0000000000 0.0819069967 1.0000000000
-0.0051549999 0.0000000000 0.0819030032 1.0000000000
-0.0051679998 0.0000000000 0.0818990022 1.0000000000
-0.0051790001 0.0000000000 0.0818940029 1.0000000000
-0.0051910002 0.0000000000 0.0818900019 1.0000000000
-0.0052029998 0.0000000000 0.0818979964 1.0000000000
-0.0052149999 0.0000000000 0.0819059983 1.0000000000
-0.0052270000 0.0000000000 0.0819049999 1.0000000000
-0.0052399999 0.0000000000 0.0818990022 1.0000000000
-0.0052510002 0.0000000000 0.0818959996 1.0000000000
-0.0052629998 0.0000000000 0.0818959996 1.0000000000
-0.0052749999 0.0000000000 0.0818969980 1.0000000000
-0.0052880002 0.0000000000 0.0818990022 1.0000000000
-0.0052990001 0.0000000000 0.0818990022 1.0000000000
-0.0053110002 0.0000000000 0.0818990022 1.0000000000
-0.0053229998 0.0000000000 0.0819019973 1.0000000000
-0.0053349999 0.0000000000 0.0818979964 1.0000000000
-0.0053470000 0.0000000000 0.0818950012 1.0000000000
-0.0053599998 0.0000000000 0.0818950012 1.0000000000
-0.0053710002 0.0000000000 0.0818990022 1.0000000000
-0.0053840000 0.0000000000 0.0818990022 1.0000000000
-0.0053960001 0.0000000000 0.0819009990 1.0000000000
-0.0054080002 0.0000000000 0.0818990022 1.0000000000
-0.0054190001 0.0000000000 0.0818959996 1.0000000000
-0.0054319999 0.0000000000 0.0818919986 1.0000000000
-0.0054429998 0.0000000000 0.0818910003 1.0000000000
-0.0054549999 0.0000000000 0.0818900019 1.0000000000
-0.0054670000 0.0000000000 0.0818890035 1.0000000000
-0.0054790000 0.0000000000 0.0818900019 1.0000000000
-0.0054910001 0.0000000000 0.0818959996 1.0000000000
-0.0055030002 0.0000000000 0.0818959996 1.0000000000
-0.0055149999 0.0000000000 0.0818919986 1.0000000000
-0.0055280002 0.0000000000 0.0818860009 1.0000000000
-0.0055390000 0.0000000000 0.0818879977 1.0000000000
-0.0055510001 0.0000000000 0.0818900019 1.0000000000
-0.0055630002 0.0000000000 0.0818919986 1.0000000000
-0.0055769999 0.0000000000 0.0819019973 1.0000000000
-0.0055889999 0.0000000000 0.0819140002 1.0000000000
-0.0056019998 0.0000000000 0.0819130018 1.0000000000
-0.0056130001 0.0000000000 0.0819109976 1.0000000000
-0.0056240000 0.0000000000 0.0819059983 1.0000000000
-0.0056360001 0.0000000000 0.0819000006 1.0000000000
-0.0056489999 0.0000000000 0.0818959996 1.0000000000
-0.0056599998 0.0000000000 0.0819009990 1.0000000000
-0.0056730001 0.0000000000 0.0819030032 1.0000000000
-0.0056840000 0.0000000000 0.0819009990 1.0000000000
-0.0056960001 0.0000000000 0.0818990022 1.0000000000
-0.0057080002 0.0000000000 0.0818990022 1.0000000000
-0.0057199998 0.0000000000 0.0819000006 1.0000000000
-0.0057319999 0.0000000000 0.0819019973 1.0000000000
-0.0057450002 0.0000000000 0.0819019973 1.0000000000
-0.0057560001 0.0000000000 0.0818990022 1.0000000000
-0.0057680001 0.0000000000 0.0818919986 1.0000000000
-0.0057799998 0.0000000000 0.0818929970 1.0000000000
-0.0057930001 0.0000000000 0.0818929970 1.0000000000
-0.0058040000 0.0000000000 0.0818900019 1.0000000000
-0.0058160000 0.0000000000 0.0818910003 1.0000000000
-0.0058289999 0.0000000000 0.0819009990 1.0000000000
-0.0058410000 0.0000000000 0.0819059983 1.0000000000
-0.0058530001 0.0000000000 0.0819030032 1.0000000000
-0.0058639999 0.0000000000 0.0818969980 1.0000000000
-0.0058760000 0.0000000000 0.0818940029 1.0000000000
-0.0058889999 0.0000000000 0.0818929970 1.0000000000
-0.0059000002 0.0000000000 0.0818950012 1.0000000000
-0.0059130001 0.0000000000 0.0818929970 1.0000000000
-0.0059250002 0.0000000000 0.0818990022 1.0000000000
-0.0059380000 0.0000000000 0.0819009990 1.0000000000
-0.0059489999 0.0000000000 0.0819000006 1.0000000000
-0.0059610000 0.0000000000 0.0819019973 1.0000000000
-0.0059730001 0.0000000000 0.0819059983 1.0000000000
-0.0059850002 0.0000000000 0.0819080025 1.0000000000
-0.0059969998 0.0000000000 0.0819069967 1.0000000000
-0.0060089999 0.0000000000 0.0819069967 1.0000000000
-0.0060210000 0.0000000000 0.0819059983 1.0000000000
-0.0060330001 0.0000000000 0.0819009990 1.0000000000
-0.0060450002 0.0000000000 0.0819030032 1.0000000000
-0.0060580000 0.0000000000 0.0819080025 1.0000000000
-0.0060689999 0.0000000000 0.0819040015 1.0000000000
-0.0060820002 0.0000000000 0.0818969980 1.0000000000
-0.0060930001 0.0000000000 0.0819030032 1.0000000000
-0.0061070002 0.0000000000 0.0819120035 1.0000000000
-0.0061180000 0.0000000000 0.0819109976 1.0000000000
-0.0061300001 0.0000000000 0.0819040015 1.0000000000
-0.0061420002 0.0000000000 0.0819059983 1.0000000000
-0.0061550001 0.0000000000 0.0819120035 1.0000000000
-0.0061659999 0.0000000000 0.0819120035 1.0000000000
-0.0061780000 0.0000000000 0.0819080025 1.0000000000
-0.0061900001 0.0000000000 0.0819040015 1.0000000000
-0.0062020002 0.0000000000 0.0819019973 1.0000000000
-0.0062139998 0.0000000000 0.0819069967 1.0000000000
-0.0062259999 0.0000000000 0.0819069967 1.0000000000
-0.0062380000 0.0000000000 0.0819080025 1.0000000000
-0.0062509999 0.0000000000 0.0819149986 1.0000000000
-0.0062630000 0.0000000000 0.0819199979 1.0000000000
-0.0062750001 0.0000000000 0.0819180012 1.0000000000
-0.0062859999 0.0000000000 0.0819080025 1.0000000000
-0.0062980000 0.0000000000 0.0819069967 1.0000000000
-0.0063109999 0.0000000000 0.0819159970 1.0000000000
-0.0063230000 0.0000000000 0.0819189996 1.0000000000
-0.0063350000 0.0000000000 0.0819170028 1.0000000000
-0.0063470001 0.0000000000 0.0819199979 1.0000000000
-0.0063590002 0.0000000000 0.0819199979 1.0000000000
-0.0063709999 0.0000000000 0.0819249973 1.0000000000
-0.0063840002 0.0000000000 0.0819429979 1.0000000000
-0.0063979998 0.0000000000 0.0819630027 1.0000000000
-0.0064110002 0.0000000000 0.0819820017 1.0000000000
-0.0064240000 0.0000000000 0.0819979981 1.0000000000
-0.0064369999 0.0000000000 0.0820090026 1.0000000000
-0.0064500002 0.0000000000 0.0820159987 1.0000000000
-0.0064619998 0.0000000000 0.0820270032 1.0000000000
-0.0064750002 0.0000000000 0.0820370018 1.0000000000
-0.0064869998 0.0000000000 0.0820449963 1.0000000000
-0.0065000001 0.0000000000 0.0820579976 1.0000000000
-0.0065139998 0.0000000000 0.0820799991 1.0000000000
-0.0065270001 0.0000000000 0.0820999965 1.0000000000
-0.0065400000 0.0000000000 0.0821100026 1.0000000000
-0.0065520001 0.0000000000 0.0821169987 1.0000000000
-0.0065649999 0.0000000000 0.0821280032 1.0000000000
-0.0065770000 0.0000000000 0.0821340010 1.0000000000
-0.0065899999 0.0000000000 0.0821409971 1.0000000000
-0.0066040000 0.0000000000 0.0821539983 1.0000000000
-0.0066160001 0.0000000000 0.0821669996 1.0000000000
-0.0066300002 0.0000000000 0.0821890011 1.0000000000
-0.0066419998 0.0000000000 0.0822049975 1.0000000000
-0.0066550002 0.0000000000 0.0822129995 1.0000000000
-0.0066669998 0.0000000000 0.0822189972 1.0000000000
-0.0066800001 0.0000000000 0.0822229981 1.0000000000
-0.0066920002 0.0000000000 0.0822279975 1.0000000000
-0.0067050001 0.0000000000 0.0822400004 1.0000000000
-0.0067190002 0.0000000000 0.0822610036 1.0000000000
-0.0067320000 0.0000000000 0.0822760016 1.0000000000
-0.0067440001 0.0000000000 0.0822789967 1.0000000000
-0.0067560002 0.0000000000 0.0822819993 1.0000000000
-0.0067690001 0.0000000000 0.0822950006 1.0000000000
-0.0067830002 0.0000000000 0.0823099986 1.0000000000
-0.0067949998 0.0000000000 0.0823239982 1.0000000000
-0.0068080002 0.0000000000 0.0823339969 1.0000000000
-0.0068210000 0.0000000000 0.0823450014 1.0000000000
-0.0068330001 0.0000000000 0.0823530033 1.0000000000
-0.0068460000 0.0000000000 0.0823670030 1.0000000000
-0.0068600001 0.0000000000 0.0823810026 1.0000000000
-0.0068720002 0.0000000000 0.0823939964 1.0000000000
-0.0068859998 0.0000000000 0.0824119970 1.0000000000
-0.0068990001 0.0000000000 0.0824220031 1.0000000000
-0.0069109998 0.0000000000 0.0824299976 1.0000000000
-0.0069240001 0.0000000000 0.0824429989 1.0000000000
-0.0069380002 0.0000000000 0.0824540034 1.0000000000
-0.0069499998 0.0000000000 0.0824659988 1.0000000000
-0.0069630002 0.0000000000 0.0824719965 1.0000000000
-0.0069760000 0.0000000000 0.0824870020 1.0000000000
-0.0069889999 0.0000000000 0.0825020000 1.0000000000
-0.0070020002 0.0000000000 0.0825129971 1.0000000000
-0.0070150001 0.0000000000 0.0825230032 1.0000000000
-0.0070280000 0.0000000000 0.0825370029 1.0000000000
-0.0070409998 0.0000000000 0.0825470015 1.0000000000
-0.0070529999 0.0000000000 0.0825570002 1.0000000000
-0.0070659998 0.0000000000 0.0825690031 1.0000000000
-0.0070790001 0.0000000000 0.0825780034 1.0000000000
-0.0070920000 0.0000000000 0.0825830027 1.0000000000
-0.0071040001 0.0000000000 0.0825939998 1.0000000000
-0.0071180002 0.0000000000 0.0826089978 1.0000000000
-0.0071310000 0.0000000000 0.0826260000 1.0000000000
-0.0071439999 0.0000000000 0.0826390013 1.0000000000
-0.0071569998 0.0000000000 0.0826499984 1.0000000000
-0.0071700001 0.0000000000 0.0826599970 1.0000000000
-0.0071820002 0.0000000000 0.0826679990 1.0000000000
-0.0071950001 0.0000000000 0.0826769993 1.0000000000
-0.0072079999 0.0000000000 0.0826840028 1.0000000000
-0.0072209998 0.0000000000 0.0826879963 1.0000000000
-0.0072340001 0.0000000000 0.0827040002 1.0000000000
-0.0072470000 0.0000000000 0.0827220008 1.0000000000
-0.0072599999 0.0000000000 0.0827289969 1.0000000000
-0.0072730002 0.0000000000 0.0827329978 1.0000000000
-0.0072849998 0.0000000000 0.0827480033 1.0000000000
-0.0072989999 0.0000000000 0.0827730000 1.0000000000
-0.0073130000 0.0000000000 0.0827919990 1.0000000000
-0.0073259999 0.0000000000 0.0827940032 1.0000000000
-0.0073380000 0.0000000000 0.0827990025 1.0000000000
-0.0073520001 0.0000000000 0.0828109980 1.0000000000
-0.0073640002 0.0000000000 0.0828220025 1.0000000000
-0.0073770001 0.0000000000 0.0828320011 1.0000000000
-0.0073899999 0.0000000000 0.0828500018 1.0000000000
-0.0074040000 0.0000000000 0.0828630030 1.0000000000
-0.0074160001 0.0000000000 0.0828709975 1.0000000000
-0.0074300002 0.0000000000 0.0828810036 1.0000000000
-0.0074419999 0.0000000000 0.0828950033 1.0000000000
-0.0074550002 0.0000000000 0.0829050019 1.0000000000
-0.0074680001 0.0000000000 0.0829190016 1.0000000000
-0.0074820002 0.0000000000 0.0829349980 1.0000000000
-0.0074950000 0.0000000000 0.0829489976 1.0000000000
-0.0075079999 0.0000000000 0.0829539970 1.0000000000
-0.0075200000 0.0000000000 0.0829600021 1.0000000000
-0.0075340001 0.0000000000 0.0829690024 1.0000000000
-0.0075460002 0.0000000000 0.0829799995 1.0000000000
-0.0075590000 0.0000000000 0.0829859972 1.0000000000
-0.0075710001 0.0000000000 0.0829949975 1.0000000000
-0.0075840000 0.0000000000 0.0829980001 1.0000000000
-0.0075949999 0.0000000000 0.0829909965 1.0000000000
-0.0076069999 0.0000000000 0.0829790011 1.0000000000
-0.0076179998 0.0000000000 0.0829709992 1.0000000000
-0.0097519998 0.0000000000 0.0846050009 1.0000000000
-0.0097620003 0.0000000000 0.0845960006 1.0000000000
-0.0097730001 0.0000000000 0.0845799968 1.0000000000
-0.0097850002 0.0000000000 0.0845749974 1.0000000000
-0.0097979996 0.0000000000 0.0845780000 1.0000000000
-0.0097820004 0.0000000000 0.0842970014 1.0000000000
-0.0097939996 0.0000000000 0.0842949972 1.0000000000
-0.0098059997 0.0000000000 0.0842930004 1.0000000000
-0.0097580003 0.0000000000 0.0836929977 1.0000000000
-0.0097040003 0.0000000000 0.0830399990 1.0000000000
-0.0097200004 0.0000000000 0.0830769986 1.0000000000
-0.0097329998 0.0000000000 0.0830819979 1.0000000000
-0.0097439997 0.0000000000 0.0830779970 1.0000000000
-0.0097559998 0.0000000000 0.0830719993 1.0000000000
-0.0097679999 0.0000000000 0.0830669999 1.0000000000
-0.0097789997 0.0000000000 0.0830610022 1.0000000000
-0.0097909998 0.0000000000 0.0830539986 1.0000000000
-0.0098019997 0.0000000000 0.0830489993 1.0000000000
-0.0098130004 0.0000000000 0.0830440000 1.0000000000
-0.0098249996 0.0000000000 0.0830349997 1.0000000000
-0.0098360004 0.0000000000 0.0830250010 1.0000000000
-0.0098470002 0.0000000000 0.0830160007 1.0000000000
-0.0098580001 0.0000000000 0.0830039978 1.0000000000
-0.0098689999 0.0000000000 0.0829949975 1.0000000000
-0.0098799998 0.0000000000 0.0829840004 1.0000000000
-0.0098909996 0.0000000000 0.0829740018 1.0000000000
-0.0099020004 0.0000000000 0.0829610005 1.0000000000
-0.0099120000 0.0000000000 0.0829510018 1.0000000000
-0.0099240001 0.0000000000 0.0829420015 1.0000000000
-0.0099350000 0.0000000000 0.0829389989 1.0000000000
-0.0099459998 0.0000000000 0.0829309970 1.0000000000
-0.0099569997 0.0000000000 0.0829159990 1.0000000000
-0.0099689998 0.0000000000 0.0829060003 1.0000000000
-0.0099790003 0.0000000000 0.0829010010 1.0000000000
-0.0099910004 0.0000000000 0.0828939974 1.0000000000
-0.0100020003 0.0000000000 0.0828879997 1.0000000000
-0.0100140003 0.0000000000 0.0828810036 1.0000000000
-0.0100240000 0.0000000000 0.0828690007 1.0000000000
-0.0100349998 0.0000000000 0.0828519985 1.0000000000
-0.0100450004 0.0000000000 0.0828379989 1.0000000000
-0.0100570004 0.0000000000 0.0828310028 1.0000000000
-0.0100680003 0.0000000000 0.0828289986 1.0000000000
-0.0100800004 0.0000000000 0.0828249976 1.0000000000
-0.0100910002 0.0000000000 0.0828180015 1.0000000000
-0.0101020001 0.0000000000 0.0828090012 1.0000000000
-0.0101129999 0.0000000000 0.0827969983 1.0000000000
-0.0101250000 0.0000000000 0.0827839971 1.0000000000
-0.0101349996 0.0000000000 0.0827770010 1.0000000000
-0.0101460004 0.0000000000 0.0827670023 1.0000000000
-0.0101570003 0.0000000000 0.0827590004 1.0000000000
-0.0101690004 0.0000000000 0.0827509984 1.0000000000
-0.0101790000 0.0000000000 0.0827409998 1.0000000000
-0.0101899998 0.0000000000 0.0827319995 1.0000000000
-0.0102019999 0.0000000000 0.0827239975 1.0000000000
-0.0102129998 0.0000000000 0.0827160031 1.0000000000
-0.0102239996 0.0000000000 0.0827070028 1.0000000000
-0.0102359997 0.0000000000 0.0826980025 1.0000000000
-0.0102469996 0.0000000000 0.0826980025 1.0000000000
-0.0102589997 0.0000000000 0.0826900005 1.0000000000
-0.0102690002 0.0000000000 0.0826760009 1.0000000000
-0.0102800000 0.0000000000 0.0826649964 1.0000000000
-0.0102909999 0.0000000000 0.0826580003 1.0000000000
-0.0103010004 0.0000000000 0.0826440006 1.0000000000
-0.0103120003 0.0000000000 0.0826300010 1.0000000000
-0.0103230001 0.0000000000 0.0826189965 1.0000000000
-0.0103329998 0.0000000000 0.0826089978 1.0000000000
-0.0103439996 0.0000000000 0.0825999975 1.0000000000
-0.0103550004 0.0000000000 0.0825909972 1.0000000000
-0.0103669995 0.0000000000 0.0825819969 1.0000000000
-0.0103770001 0.0000000000 0.0825700015 1.0000000000
-0.0103890002 0.0000000000 0.0825589970 1.0000000000
-0.0104000000 0.0000000000 0.0825600028 1.0000000000
-0.0104120001 0.0000000000 0.0825579986 1.0000000000
-0.0104219997 0.0000000000 0.0825430006 1.0000000000
-0.0104329996 0.0000000000 0.0825240016 1.0000000000
-0.0104430001 0.0000000000 0.0825140029 1.0000000000
-0.0104540000 0.0000000000 0.0825029984 1.0000000000
-0.0104639996 0.0000000000 0.0824899971 1.0000000000
-0.0104750004 0.0000000000 0.0824780017 1.0000000000
-0.0104860002 0.0000000000 0.0824719965 1.0000000000
-0.0104970001 0.0000000000 0.0824609995 1.0000000000
-0.0105079999 0.0000000000 0.0824519992 1.0000000000
-0.0105189998 0.0000000000 0.0824450031 1.0000000000
-0.0105299996 0.0000000000 0.0824330002 1.0000000000
-0.0105400002 0.0000000000 0.0824190006 1.0000000000
-0.0105499998 0.0000000000 0.0824000016 1.0000000000
-0.0105619999 0.0000000000 0.0823889971 1.0000000000
-0.0105729997 0.0000000000 0.0823860019 1.0000000000
-0.0105849998 0.0000000000 0.0823789984 1.0000000000
-0.0105950003 0.0000000000 0.0823699981 1.0000000000
-0.0106060002 0.0000000000 0.0823590010 1.0000000000
-0.0106170001 0.0000000000 0.0823509991 1.0000000000
-0.0106290001 0.0000000000 0.0823419988 1.0000000000
-0.0106389998 0.0000000000 0.0823360011 1.0000000000
-0.0106509998 0.0000000000 0.0823260024 1.0000000000
-0.0106610004 0.0000000000 0.0823199973 1.0000000000
-0.0106729995 0.0000000000 0.0823109969 1.0000000000
-0.0106819998 0.0000000000 0.0822959989 1.0000000000
-0.0106939999 0.0000000000 0.0822900012 1.0000000000
-0.0107060000 0.0000000000 0.0822940022 1.0000000000
-0.0107180001 0.0000000000 0.0822890028 1.0000000000
-0.0107279997 0.0000000000 0.0822720006 1.0000000000
-0.0107380003 0.0000000000 0.0822559968 1.0000000000
-0.0107490001 0.0000000000 0.0822469965 1.0000000000
-0.0107600000 0.0000000000 0.0822359994 1.0000000000
-0.0107699996 0.0000000000 0.0822200030 1.0000000000
-0.0107810004 0.0000000000 0.0822039992 1.0000000000
-0.0107910000 0.0000000000 0.0821970031 1.0000000000
-0.0108030001 0.0000000000 0.0821890011 1.0000000000
-0.0108129997 0.0000000000 0.0821800008 1.0000000000
-0.0108249998 0.0000000000 0.0821740031 1.0000000000
-0.0108359996 0.0000000000 0.0821679980 1.0000000000
-0.0108470004 0.0000000000 0.0821549967 1.0000000000
-0.0108570000 0.0000000000 0.0821489990 1.0000000000
-0.0108700003 0.0000000000 0.0821470022 1.0000000000
-0.0108810002 0.0000000000 0.0821439996 1.0000000000
-0.0108920000 0.0000000000 0.0821359977 1.0000000000
-0.0109019997 0.0000000000 0.0821229964 1.0000000000
-0.0109110000 0.0000000000 0.0820989981 1.0000000000
-0.0109219998 0.0000000000 0.0820859969 1.0000000000
-0.0109339999 0.0000000000 0.0820799991 1.0000000000
-0.0109430002 0.0000000000 0.0820669979 1.0000000000
-0.0109550003 0.0000000000 0.0820590034 1.0000000000
-0.0109660001 0.0000000000 0.0820539966 1.0000000000
-0.0109759998 0.0000000000 0.0820349976 1.0000000000
-0.0109860003 0.0000000000 0.0820230022 1.0000000000
-0.0109970002 0.0000000000 0.0820090026 1.0000000000
-0.0110060005 0.0000000000 0.0819939971 1.0000000000
-0.0110160001 0.0000000000 0.0819810033 1.0000000000
-0.0110280002 0.0000000000 0.0819759965 1.0000000000
-0.0110400002 0.0000000000 0.0819749981 1.0000000000
-0.0110520003 0.0000000000 0.0819770023 1.0000000000
-0.0110630002 0.0000000000 0.0819739997 1.0000000000
-0.0110750003 0.0000000000 0.0819739997 1.0000000000
-0.0110879997 0.0000000000 0.0819770023 1.0000000000
-0.0110999998 0.0000000000 0.0819839984 1.0000000000
-0.0111130001 0.0000000000 0.0819900036 1.0000000000
-0.0111240000 0.0000000000 0.0819830000 1.0000000000
-0.0111349998 0.0000000000 0.0819759965 1.0000000000
-0.0111469999 0.0000000000 0.0819759965 1.0000000000
-0.0111590000 0.0000000000 0.0819749981 1.0000000000
-0.0111710001 0.0000000000 0.0819780007 1.0000000000
-0.0111830002 0.0000000000 0.0819830000 1.0000000000
-0.0111950003 0.0000000000 0.0819830000 1.0000000000
-0.0112079997 0.0000000000 0.0819849968 1.0000000000
-0.0112190004 0.0000000000 0.0819839984 1.0000000000
-0.0112300003 0.0000000000 0.0819739997 1.0000000000
-0.0112420004 0.0000000000 0.0819759965 1.0000000000
-0.0112549998 0.0000000000 0.0819830000 1.0000000000
-0.0112659996 0.0000000000 0.0819839984 1.0000000000
-0.0112779997 0.0000000000 0.0819830000 1.0000000000
-0.0112899998 0.0000000000 0.0819839984 1.0000000000
-0.0113019999 0.0000000000 0.0819770023 1.0000000000
-0.0113129998 0.0000000000 0.0819749981 1.0000000000
-0.0113260001 0.0000000000 0.0819780007 1.0000000000
-0.0113369999 0.0000000000 0.0819810033 1.0000000000
-0.0113490000 0.0000000000 0.0819799975 1.0000000000
-0.0113610001 0.0000000000 0.0819799975 1.0000000000
-0.0113730002 0.0000000000 0.0819820017 1.0000000000
-0.0113850003 0.0000000000 0.0819830000 1.0000000000
-0.0113970004 0.0000000000 0.0819780007 1.0000000000
-0.0114080003 0.0000000000 0.0819780007 1.0000000000
-0.0114209997 0.0000000000 0.0819820017 1.0000000000
-0.0114329997 0.0000000000 0.0819839984 1.0000000000
-0.0114439996 0.0000000000 0.0819810033 1.0000000000
-0.0114550004 0.0000000000 0.0819739997 1.0000000000
-0.0114669995 0.0000000000 0.0819690004 1.0000000000
-0.0114789996 0.0000000000 0.0819720030 1.0000000000
-0.0114909997 0.0000000000 0.0819759965 1.0000000000
-0.0115029998 0.0000000000 0.0819749981 1.0000000000
-0.0115149999 0.0000000000 0.0819739997 1.0000000000
-0.0115270000 0.0000000000 0.0819789991 1.0000000000
-0.0115400003 0.0000000000 0.0819839984 1.0000000000
-0.0115520004 0.0000000000 0.0819879994 1.0000000000
-0.0115630003 0.0000000000 0.0819830000 1.0000000000
-0.0115750004 0.0000000000 0.0819789991 1.0000000000
-0.0115879998 0.0000000000 0.0819860026 1.0000000000
-0.0115999999 0.0000000000 0.0819910020 1.0000000000
-0.0116109997 0.0000000000 0.0819820017 1.0000000000
-0.0116219996 0.0000000000 0.0819770023 1.0000000000
-0.0116349999 0.0000000000 0.0819780007 1.0000000000
-0.0116470000 0.0000000000 0.0819889978 1.0000000000
-0.0116600003 0.0000000000 0.0819939971 1.0000000000
-0.0116710002 0.0000000000 0.0819920003 1.0000000000
-0.0116839996 0.0000000000 0.0819870010 1.0000000000
-0.0116959997 0.0000000000 0.0819969997 1.0000000000
-0.0117090000 0.0000000000 0.0820029974 1.0000000000
-0.0117210001 0.0000000000 0.0820040032 1.0000000000
-0.0117319999 0.0000000000 0.0819979981 1.0000000000
-0.0117419995 0.0000000000 0.0819889978 1.0000000000
-0.0117539996 0.0000000000 0.0819799975 1.0000000000
-0.0117650004 0.0000000000 0.0819820017 1.0000000000
-0.0117779998 0.0000000000 0.0819849968 1.0000000000
-0.0117889997 0.0000000000 0.0819820017 1.0000000000
-0.0118009998 0.0000000000 0.0819830000 1.0000000000
-0.0118129998 0.0000000000 0.0819839984 1.0000000000
-0.0118249999 0.0000000000 0.0819839984 1.0000000000
-0.0118370000 0.0000000000 0.0819879994 1.0000000000
-0.0118500004 0.0000000000 0.0819900036 1.0000000000
-0.0118620005 0.0000000000 0.0819969997 1.0000000000
-0.0118749999 0.0000000000 0.0820019990 1.0000000000
-0.0118859997 0.0000000000 0.0819979981 1.0000000000
-0.0118979998 0.0000000000 0.0819960013 1.0000000000
-0.0119089996 0.0000000000 0.0819920003 1.0000000000
-0.0119200004 0.0000000000 0.0819870010 1.0000000000
-0.0119319996 0.0000000000 0.0819839984 1.0000000000
-0.0119439997 0.0000000000 0.0819849968 1.0000000000
-0.0119559998 0.0000000000 0.0819870010 1.0000000000
-0.0119690001 0.0000000000 0.0819870010 1.0000000000
-0.0119800000 0.0000000000 0.0819900036 1.0000000000
-0.0119939996 0.0000000000 0.0820010006 1.0000000000
-0.0120059997 0.0000000000 0.0820019990 1.0000000000
-0.0120160002 0.0000000000 0.0819939971 1.0000000000
-0.0120289996 0.0000000000 0.0819969997 1.0000000000
-0.0120409997 0.0000000000 0.0820010006 1.0000000000
-0.0120519996 0.0000000000 0.0819960013 1.0000000000
-0.0120639997 0.0000000000 0.0819960013 1.0000000000
-0.0120759998 0.0000000000 0.0819979981 1.0000000000
-0.0120879998 0.0000000000 0.0819929987 1.0000000000
-0.0120989997 0.0000000000 0.0819860026 1.0000000000
-0.0121109998 0.0000000000 0.0819860026 1.0000000000
-0.0121229999 0.0000000000 0.0819900036 1.0000000000
-0.0121350000 0.0000000000 0.0819939971 1.0000000000
-0.0121470001 0.0000000000 0.0819950029 1.0000000000
-0.0121590002 0.0000000000 0.0819950029 1.0000000000
-0.0121710002 0.0000000000 0.0819939971 1.0000000000
-0.0121830003 0.0000000000 0.0819939971 1.0000000000
-0.0121950004 0.0000000000 0.0819960013 1.0000000000
-0.0122079998 0.0000000000 0.0819989964 1.0000000000
-0.0122199999 0.0000000000 0.0820060000 1.0000000000
-0.0122320000 0.0000000000 0.0820050016 1.0000000000
-0.0122429999 0.0000000000 0.0819979981 1.0000000000
-0.0122539997 0.0000000000 0.0819939971 1.0000000000
-0.0122659998 0.0000000000 0.0819950029 1.0000000000
-0.0122779999 0.0000000000 0.0819939971 1.0000000000
-0.0122900000 0.0000000000 0.0819920003 1.0000000000
-0.0123030003 0.0000000000 0.0819979981 1.0000000000
