VERSION 0.7
FIELDS x y z intensity
SIZE 4 4 4 4
TYPE F F F F
COUNT 1 1 1 1
WIDTH 1232
HEIGHT 1
VIEWPOINT 0.0 0.0 0.0 1.0 0.0 0.0 0.0
POINTS 1232
DATA ascii
0.0121820001 0.0000000000 0.0817940012 1.0000000000
0.0121689998 0.0000000000 0.0817919970 1.0000000000
0.0121590002 0.0000000000 0.0817930028 1.0000000000
0.0121459998 0.0000000000 0.0817949995 1.0000000000
0.0121350000 0.0000000000 0.0817940012 1.0000000000
0.0121229999 0.0000000000 0.0817919970 1.0000000000
0.0121120000 0.0000000000 0.0817949995 1.0000000000
0.0120989997 0.0000000000 0.0818009973 1.0000000000
0.0120890001 0.0000000000 0.0818049982 1.0000000000
0.0120770000 0.0000000000 0.0817990005 1.0000000000
0.0120639997 0.0000000000 0.0817919970 1.0000000000
0.0120510003 0.0000000000 0.0817909986 1.0000000000
0.0120409997 0.0000000000 0.0817980021 1.0000000000
0.0120289996 0.0000000000 0.0818020031 1.0000000000
0.0120190000 0.0000000000 0.0818070024 1.0000000000
0.0120050004 0.0000000000 0.0818030015 1.0000000000
0.0119939996 0.0000000000 0.0817990005 1.0000000000
0.0119810002 0.0000000000 0.0818020031 1.0000000000
0.0119709997 0.0000000000 0.0818049982 1.0000000000
0.0119580003 0.0000000000 0.0818009973 1.0000000000
0.0119470004 0.0000000000 0.0818009973 1.0000000000
0.0119359996 0.0000000000 0.0818049982 1.0000000000
0.0119240005 0.0000000000 0.0818030015 1.0000000000
0.0119110001 0.0000000000 0.0817990005 1.0000000000
0.0118990000 0.0000000000 0.0817980021 1.0000000000
0.0118880002 0.0000000000 0.0817990005 1.0000000000
0.0118760001 0.0000000000 0.0817990005 1.0000000000
0.0118629998 0.0000000000 0.0817990005 1.0000000000
0.0118519999 0.0000000000 0.0817980021 1.0000000000
0.0118380003 0.0000000000 0.0817930028 1.0000000000
0.0118279997 0.0000000000 0.0817940012 1.0000000000
0.0118150003 0.0000000000 0.0817930028 1.0000000000
0.0118039995 0.0000000000 0.0817909986 1.0000000000
0.0117899999 0.0000000000 0.0817859992 1.0000000000
0.0117800003 0.0000000000 0.0817869976 1.0000000000
0.0117670000 0.0000000000 0.0817930028 1.0000000000
0.0117570003 0.0000000000 0.0817959979 1.0000000000
0.0117450003 0.0000000000 0.0817969963 1.0000000000
0.0117330002 0.0000000000 0.0817949995 1.0000000000
0.0117210001 0.0000000000 0.0817869976 1.0000000000
0.0117090000 0.0000000000 0.0817880034 1.0000000000
0.0116980001 0.0000000000 0.0817990005 1.0000000000
0.0116870003 0.0000000000 0.0818020031 1.0000000000
0.0116740000 0.0000000000 0.0817949995 1.0000000000
0.0116619999 0.0000000000 0.0817930028 1.0000000000
0.0116510000 0.0000000000 0.0817969963 1.0000000000
0.0116400002 0.0000000000 0.0818009973 1.0000000000
0.0116259996 0.0000000000 0.0817999989 1.0000000000
0.0116160000 0.0000000000 0.0818009973 1.0000000000
0.0116050001 0.0000000000 0.0818039998 1.0000000000
0.0115930000 0.0000000000 0.0818049982 1.0000000000
0.0115780002 0.0000000000 0.0817930028 1.0000000000
0.0115670003 0.0000000000 0.0817890018 1.0000000000
0.0115550002 0.0000000000 0.0817930028 1.0000000000
0.0115449997 0.0000000000 0.0817980021 1.0000000000
0.0115320003 0.0000000000 0.0818009973 1.0000000000
0.0115219997 0.0000000000 0.0818020031 1.0000000000
0.0115080001 0.0000000000 0.0818009973 1.0000000000
0.0114979995 0.0000000000 0.0818039998 1.0000000000
0.0114860004 0.0000000000 0.0818049982 1.0000000000
0.0114749996 0.0000000000 0.0818059966 1.0000000000
0.0114630004 0.0000000000 0.0818059966 1.0000000000
0.0114500001 0.0000000000 0.0817990005 1.0000000000
0.0114359995 0.0000000000 0.0817890018 1.0000000000
0.0114259999 0.0000000000 0.0817909986 1.0000000000
0.0114129996 0.0000000000 0.0817980021 1.0000000000
0.0114030000 0.0000000000 0.0817990005 1.0000000000
0.0113899997 0.0000000000 0.0817940012 1.0000000000
0.0113789998 0.0000000000 0.0817940012 1.0000000000
0.0113660004 0.0000000000 0.0817969963 1.0000000000
0.0113559999 0.0000000000 0.0818039998 1.0000000000
0.0113439998 0.0000000000 0.0818099976 1.0000000000
0.0113329999 0.0000000000 0.0818110034 1.0000000000
0.0113209998 0.0000000000 0.0818049982 1.0000000000
0.0113089997 0.0000000000 0.0817999989 1.0000000000
0.0112950001 0.0000000000 0.0817990005 1.0000000000
0.0112840002 0.0000000000 0.0817940012 1.0000000000
0.0112720001 0.0000000000 0.0817869976 1.0000000000
0.0112600001 0.0000000000 0.0817890018 1.0000000000
0.0112480000 0.0000000000 0.0817999989 1.0000000000
0.0112380004 0.0000000000 0.0817999989 1.0000000000
0.0112250000 0.0000000000 0.0818009973 1.0000000000
0.0112150004 0.0000000000 0.0818059966 1.0000000000
0.0112030003 0.0000000000 0.0818120018 1.0000000000
0.0111929998 0.0000000000 0.0818220004 1.0000000000
0.0111809997 0.0000000000 0.0818319991 1.0000000000
0.0111699998 0.0000000000 0.0818310007 1.0000000000
0.0111570004 0.0000000000 0.0818250030 1.0000000000
0.0111459997 0.0000000000 0.0818279982 1.0000000000
0.0111349998 0.0000000000 0.0818300024 1.0000000000
0.0111229997 0.0000000000 0.0818340033 1.0000000000
0.0111130001 0.0000000000 0.0818450004 1.0000000000
0.0111020003 0.0000000000 0.0818499997 1.0000000000
0.0110879997 0.0000000000 0.0818480030 1.0000000000
0.0110780001 0.0000000000 0.0818490013 1.0000000000
0.0110680005 0.0000000000 0.0818620026 1.0000000000
0.0110579999 0.0000000000 0.0818839967 1.0000000000
0.0110480003 0.0000000000 0.0818990022 1.0000000000
0.0110370005 0.0000000000 0.0819059983 1.0000000000
0.0110250004 0.0000000000 0.0819099993 1.0000000000
0.0110149998 0.0000000000 0.0819159970 1.0000000000
0.0110040000 0.0000000000 0.0819209963 1.0000000000
0.0109930001 0.0000000000 0.0819339976 1.0000000000
0.0109820003 0.0000000000 0.0819450021 1.0000000000
0.0109719997 0.0000000000 0.0819519982 1.0000000000
0.0109609999 0.0000000000 0.0819699988 1.0000000000
0.0109519996 0.0000000000 0.0819879994 1.0000000000
0.0109400004 0.0000000000 0.0819939971 1.0000000000
0.0109299999 0.0000000000 0.0820010006 1.0000000000
0.0109179998 0.0000000000 0.0820050016 1.0000000000
0.0109080002 0.0000000000 0.0820130035 1.0000000000
0.0108979996 0.0000000000 0.0820259973 1.0000000000
0.0108880000 0.0000000000 0.0820410028 1.0000000000
0.0108780004 0.0000000000 0.0820600018 1.0000000000
0.0108679999 0.0000000000 0.0820730031 1.0000000000
0.0108549995 0.0000000000 0.0820780024 1.0000000000
0.0108449999 0.0000000000 0.0820840001 1.0000000000
0.0108350003 0.0000000000 0.0820930004 1.0000000000
0.0108240005 0.0000000000 0.0821039975 1.0000000000
0.0108129997 0.0000000000 0.0821119994 1.0000000000
0.0108019998 0.0000000000 0.0821200013 1.0000000000
0.0107910000 0.0000000000 0.0821269974 1.0000000000
0.0107800001 0.0000000000 0.0821319968 1.0000000000
0.0107690003 0.0000000000 0.0821439996 1.0000000000
0.0107610002 0.0000000000 0.0821750015 1.0000000000
0.0107490001 0.0000000000 0.0821819976 1.0000000000
0.0107399998 0.0000000000 0.0822030008 1.0000000000
0.0107300002 0.0000000000 0.0822210014 1.0000000000
0.0107190004 0.0000000000 0.0822290033 1.0000000000
0.0107079996 0.0000000000 0.0822380036 1.0000000000
0.0106969997 0.0000000000 0.0822459981 1.0000000000
0.0106859999 0.0000000000 0.0822549984 1.0000000000
0.0106750000 0.0000000000 0.0822610036 1.0000000000
0.0106640002 0.0000000000 0.0822649971 1.0000000000
0.0106530003 0.0000000000 0.0822789967 1.0000000000
0.0106410002 0.0000000000 0.0822850019 1.0000000000
0.0106300004 0.0000000000 0.0822879970 1.0000000000
0.0106199998 0.0000000000 0.0822969973 1.0000000000
0.0106090000 0.0000000000 0.0823099986 1.0000000000
0.0105969999 0.0000000000 0.0823189989 1.0000000000
0.0105879996 0.0000000000 0.0823310018 1.0000000000
0.0105769997 0.0000000000 0.0823419988 1.0000000000
0.0105659999 0.0000000000 0.0823490024 1.0000000000
0.0105550000 0.0000000000 0.0823599994 1.0000000000
0.0105450004 0.0000000000 0.0823749974 1.0000000000
0.0105339997 0.0000000000 0.0823870003 1.0000000000
0.0105229998 0.0000000000 0.0823979974 1.0000000000
0.0105109997 0.0000000000 0.0824059993 1.0000000000
0.0105010001 0.0000000000 0.0824119970 1.0000000000
0.0104900002 0.0000000000 0.0824190006 1.0000000000
0.0104790004 0.0000000000 0.0824320018 1.0000000000
0.0104689999 0.0000000000 0.0824450031 1.0000000000
0.0104580000 0.0000000000 0.0824550018 1.0000000000
0.0104459999 0.0000000000 0.0824640021 1.0000000000
0.0104360003 0.0000000000 0.0824749991 1.0000000000
0.0104240002 0.0000000000 0.0824839994 1.0000000000
0.0104149999 0.0000000000 0.0825010017 1.0000000000
0.0104050003 0.0000000000 0.0825169981 1.0000000000
0.0103940004 0.0000000000 0.0825269967 1.0000000000
0.0103829997 0.0000000000 0.0825309977 1.0000000000
0.0103719998 0.0000000000 0.0825420022 1.0000000000
0.0103599997 0.0000000000 0.0825550035 1.0000000000
0.0103510004 0.0000000000 0.0825650021 1.0000000000
0.0103380000 0.0000000000 0.0825709999 1.0000000000
0.0103280004 0.0000000000 0.0825790018 1.0000000000
0.0103160003 0.0000000000 0.0825880021 1.0000000000
0.0103070000 0.0000000000 0.0826060027 1.0000000000
0.0102970004 0.0000000000 0.0826200023 1.0000000000
0.0102859996 0.0000000000 0.0826279968 1.0000000000
0.0102730002 0.0000000000 0.0826380029 1.0000000000
0.0102650002 0.0000000000 0.0826549977 1.0000000000
0.0102540003 0.0000000000 0.0826639980 1.0000000000
0.0102420002 0.0000000000 0.0826689973 1.0000000000
0.0102310004 0.0000000000 0.0826779976 1.0000000000
0.0102199996 0.0000000000 0.0826890022 1.0000000000
0.0102080004 0.0000000000 0.0826940015 1.0000000000
0.0101979999 0.0000000000 0.0827040002 1.0000000000
0.0101870000 0.0000000000 0.0827149972 1.0000000000
0.0101770004 0.0000000000 0.0827279985 1.0000000000
0.0101640001 0.0000000000 0.0827340037 1.0000000000
0.0101539996 0.0000000000 0.0827429965 1.0000000000
0.0101420004 0.0000000000 0.0827540010 1.0000000000
0.0101330001 0.0000000000 0.0827689990 1.0000000000
0.0101220002 0.0000000000 0.0827820003 1.0000000000
0.0101110004 0.0000000000 0.0827929974 1.0000000000
0.0100990003 0.0000000000 0.0827969983 1.0000000000
0.0100889998 0.0000000000 0.0828050002 1.0000000000
0.0100779999 0.0000000000 0.0828199983 1.0000000000
0.0100680003 0.0000000000 0.0828360021 1.0000000000
0.0100579998 0.0000000000 0.0828529969 1.0000000000
0.0100469999 0.0000000000 0.0828649998 1.0000000000
0.0100349998 0.0000000000 0.0828730017 1.0000000000
0.0100250002 0.0000000000 0.0828860030 1.0000000000
0.0100130001 0.0000000000 0.0828939974 1.0000000000
0.0100029996 0.0000000000 0.0829050019 1.0000000000
0.0099910004 0.0000000000 0.0829100013 1.0000000000
0.0099799996 0.0000000000 0.0829109997 1.0000000000
0.0099689998 0.0000000000 0.0829169974 1.0000000000
0.0099569997 0.0000000000 0.0829219967 1.0000000000
0.0099409996 0.0000000000 0.0828910023 1.0000000000
0.0074740001 0.0000000000 0.0829309970 1.0000000000
0.0074609998 0.0000000000 0.0829330012 1.0000000000
0.0074499999 0.0000000000 0.0829320028 1.0000000000
0.0074370001 0.0000000000 0.0829270035 1.0000000000
0.0074250000 0.0000000000 0.0829230025 1.0000000000
0.0074109999 0.0000000000 0.0829150006 1.0000000000
0.0073990002 0.0000000000 0.0829069987 1.0000000000
0.0073850001 0.0000000000 0.0828950033 1.0000000000
0.0073730000 0.0000000000 0.0828749985 1.0000000000
0.0073580001 0.0000000000 0.0828609988 1.0000000000
0.0073460001 0.0000000000 0.0828500018 1.0000000000
0.0073330002 0.0000000000 0.0828379989 1.0000000000
0.0073210001 0.0000000000 0.0828299969 1.0000000000
0.0073060002 0.0000000000 0.0828170031 1.0000000000
0.0072940001 0.0000000000 0.0828030035 1.0000000000
0.0072809998 0.0000000000 0.0827869996 1.0000000000
0.0072679999 0.0000000000 0.0827760026 1.0000000000
0.0072550001 0.0000000000 0.0827620029 1.0000000000
0.0072420002 0.0000000000 0.0827490017 1.0000000000
0.0072289999 0.0000000000 0.0827400014 1.0000000000
0.0072160000 0.0000000000 0.0827279985 1.0000000000
0.0072030001 0.0000000000 0.0827149972 1.0000000000
0.0071899998 0.0000000000 0.0827030018 1.0000000000
0.0071760002 0.0000000000 0.0826859996 1.0000000000
0.0071640001 0.0000000000 0.0826739967 1.0000000000
0.0071510002 0.0000000000 0.0826700032 1.0000000000
0.0071390001 0.0000000000 0.0826620013 1.0000000000
0.0071250000 0.0000000000 0.0826449990 1.0000000000
0.0071120001 0.0000000000 0.0826290026 1.0000000000
0.0070989998 0.0000000000 0.0826210007 1.0000000000
0.0070859999 0.0000000000 0.0826110020 1.0000000000
0.0070719998 0.0000000000 0.0825970024 1.0000000000
0.0070610000 0.0000000000 0.0825859979 1.0000000000
0.0070480001 0.0000000000 0.0825769976 1.0000000000
0.0070349998 0.0000000000 0.0825700015 1.0000000000
0.0070219999 0.0000000000 0.0825570002 1.0000000000
0.0070090001 0.0000000000 0.0825399980 1.0000000000
0.0069949999 0.0000000000 0.0825250000 1.0000000000
0.0069829999 0.0000000000 0.0825209990 1.0000000000
0.0069700000 0.0000000000 0.0825060010 1.0000000000
0.0069570001 0.0000000000 0.0824870020 1.0000000000
0.0069439998 0.0000000000 0.0824730024 1.0000000000
0.0069300001 0.0000000000 0.0824569985 1.0000000000
0.0069180001 0.0000000000 0.0824460015 1.0000000000
0.0069050002 0.0000000000 0.0824349970 1.0000000000
0.0068910001 0.0000000000 0.0824220031 1.0000000000
0.0068790000 0.0000000000 0.0824130028 1.0000000000
0.0068669999 0.0000000000 0.0824080035 1.0000000000
0.0068540000 0.0000000000 0.0824000016 1.0000000000
0.0068410002 0.0000000000 0.0823919997 1.0000000000
0.0068290001 0.0000000000 0.0823820010 1.0000000000
0.0068150000 0.0000000000 0.0823689997 1.0000000000
0.0068020001 0.0000000000 0.0823450014 1.0000000000
0.0067870002 0.0000000000 0.0823239982 1.0000000000
0.0067759999 0.0000000000 0.0823210031 1.0000000000
0.0067630000 0.0000000000 0.0823149979 1.0000000000
0.0067509999 0.0000000000 0.0823040009 1.0000000000
0.0067369998 0.0000000000 0.0822919980 1.0000000000
0.0067250002 0.0000000000 0.0822800025 1.0000000000
0.0067110001 0.0000000000 0.0822720006 1.0000000000
0.0066999998 0.0000000000 0.0822670013 1.0000000000
0.0066860002 0.0000000000 0.0822559968 1.0000000000
0.0066740001 0.0000000000 0.0822419971 1.0000000000
0.0066590002 0.0000000000 0.0822189972 1.0000000000
0.0066470001 0.0000000000 0.0822049975 1.0000000000
0.0066340002 0.0000000000 0.0821930021 1.0000000000
0.0066220001 0.0000000000 0.0821840018 1.0000000000
0.0066089998 0.0000000000 0.0821759999 1.0000000000
0.0065959999 0.0000000000 0.0821620002 1.0000000000
0.0065830001 0.0000000000 0.0821470022 1.0000000000
0.0065700002 0.0000000000 0.0821380019 1.0000000000
0.0065569999 0.0000000000 0.0821330026 1.0000000000
0.0065460000 0.0000000000 0.0821290016 1.0000000000
0.0065330002 0.0000000000 0.0821200013 1.0000000000
0.0065190000 0.0000000000 0.0820999965 1.0000000000
0.0065049999 0.0000000000 0.0820830017 1.0000000000
0.0064929998 0.0000000000 0.0820700005 1.0000000000
0.0064800000 0.0000000000 0.0820519999 1.0000000000
0.0064670001 0.0000000000 0.0820449963 1.0000000000
0.0064539998 0.0000000000 0.0820399970 1.0000000000
0.0064420002 0.0000000000 0.0820299983 1.0000000000
0.0064280001 0.0000000000 0.0820130035 1.0000000000
0.0064160000 0.0000000000 0.0819989964 1.0000000000
0.0064019999 0.0000000000 0.0819889978 1.0000000000
0.0063910000 0.0000000000 0.0819759965 1.0000000000
0.0063769999 0.0000000000 0.0819609985 1.0000000000
0.0063649998 0.0000000000 0.0819500014 1.0000000000
0.0063510002 0.0000000000 0.0819360018 1.0000000000
0.0063390001 0.0000000000 0.0819279999 1.0000000000
0.0063260002 0.0000000000 0.0819170028 1.0000000000
0.0063140001 0.0000000000 0.0819049999 1.0000000000
0.0063009998 0.0000000000 0.0818990022 1.0000000000
0.0062890002 0.0000000000 0.0818940029 1.0000000000
0.0062770001 0.0000000000 0.0818900019 1.0000000000
0.0062650000 0.0000000000 0.0818900019 1.0000000000
0.0062529999 0.0000000000 0.0818900019 1.0000000000
0.0062409998 0.0000000000 0.0818850026 1.0000000000
0.0062279999 0.0000000000 0.0818810016 1.0000000000
0.0062170001 0.0000000000 0.0818839967 1.0000000000
0.0062040002 0.0000000000 0.0818800032 1.0000000000
0.0061920001 0.0000000000 0.0818729997 1.0000000000
0.0061780000 0.0000000000 0.0818680003 1.0000000000
0.0061679999 0.0000000000 0.0818710029 1.0000000000
0.0061550001 0.0000000000 0.0818729997 1.0000000000
0.0061440002 0.0000000000 0.0818710029 1.0000000000
0.0061300001 0.0000000000 0.0818670020 1.0000000000
0.0061200000 0.0000000000 0.0818699971 1.0000000000
0.0061070002 0.0000000000 0.0818760023 1.0000000000
0.0060970001 0.0000000000 0.0818839967 1.0000000000
0.0060830000 0.0000000000 0.0818839967 1.0000000000
0.0060720001 0.0000000000 0.0818810016 1.0000000000
0.0060589998 0.0000000000 0.0818760023 1.0000000000
0.0060480000 0.0000000000 0.0818789974 1.0000000000
0.0060350001 0.0000000000 0.0818839967 1.0000000000
0.0060250000 0.0000000000 0.0818860009 1.0000000000
0.0060120001 0.0000000000 0.0818800032 1.0000000000
0.0060000001 0.0000000000 0.0818779990 1.0000000000
0.0059880000 0.0000000000 0.0818789974 1.0000000000
0.0059759999 0.0000000000 0.0818789974 1.0000000000
0.0059639998 0.0000000000 0.0818789974 1.0000000000
0.0059520002 0.0000000000 0.0818820000 1.0000000000
0.0059389998 0.0000000000 0.0818850026 1.0000000000
0.0059280000 0.0000000000 0.0818850026 1.0000000000
0.0059150001 0.0000000000 0.0818839967 1.0000000000
0.0059039998 0.0000000000 0.0818869993 1.0000000000
0.0058920002 0.0000000000 0.0818869993 1.0000000000
0.0058800001 0.0000000000 0.0818789974 1.0000000000
0.0058670002 0.0000000000 0.0818699971 1.0000000000
0.0058550001 0.0000000000 0.0818760023 1.0000000000
0.0058430000 0.0000000000 0.0818810016 1.0000000000
0.0058320002 0.0000000000 0.0818820000 1.0000000000
0.0058200001 0.0000000000 0.0818810016 1.0000000000
0.0058070002 0.0000000000 0.0818770006 1.0000000000
0.0057959999 0.0000000000 0.0818800032 1.0000000000
0.0057839998 0.0000000000 0.0818860009 1.0000000000
0.0057709999 0.0000000000 0.0818810016 1.0000000000
0.0057589998 0.0000000000 0.0818760023 1.0000000000
0.0057460000 0.0000000000 0.0818739980 1.0000000000
0.0057359999 0.0000000000 0.0818810016 1.0000000000
0.0057219998 0.0000000000 0.0818800032 1.0000000000
0.0057120002 0.0000000000 0.0818810016 1.0000000000
0.0056989999 0.0000000000 0.0818839967 1.0000000000
0.0056880000 0.0000000000 0.0818850026 1.0000000000
0.0056739999 0.0000000000 0.0818829983 1.0000000000
0.0056639998 0.0000000000 0.0818869993 1.0000000000
0.0056510000 0.0000000000 0.0818890035 1.0000000000
0.0056400001 0.0000000000 0.0818900019 1.0000000000
0.0056280000 0.0000000000 0.0818879977 1.0000000000
0.0056159999 0.0000000000 0.0818890035 1.0000000000
0.0056030001 0.0000000000 0.0818910003 1.0000000000
0.0055920002 0.0000000000 0.0818910003 1.0000000000
0.0055800001 0.0000000000 0.0818890035 1.0000000000
0.0055680000 0.0000000000 0.0818890035 1.0000000000
0.0055539999 0.0000000000 0.0818879977 1.0000000000
0.0055430001 0.0000000000 0.0818839967 1.0000000000
0.0055300002 0.0000000000 0.0818820000 1.0000000000
0.0055189999 0.0000000000 0.0818850026 1.0000000000
0.0055060000 0.0000000000 0.0818800032 1.0000000000
0.0054950002 0.0000000000 0.0818800032 1.0000000000
0.0054819998 0.0000000000 0.0818800032 1.0000000000
0.0054710000 0.0000000000 0.0818820000 1.0000000000
0.0054580001 0.0000000000 0.0818829983 1.0000000000
0.0054469998 0.0000000000 0.0818820000 1.0000000000
0.0054330002 0.0000000000 0.0818710029 1.0000000000
0.0054219998 0.0000000000 0.0818660036 1.0000000000
0.0054100002 0.0000000000 0.0818710029 1.0000000000
0.0053989999 0.0000000000 0.0818770006 1.0000000000
0.0053860000 0.0000000000 0.0818810016 1.0000000000
0.0053750002 0.0000000000 0.0818850026 1.0000000000
0.0053630001 0.0000000000 0.0818860009 1.0000000000
0.0053510000 0.0000000000 0.0818860009 1.0000000000
0.0053389999 0.0000000000 0.0818869993 1.0000000000
0.0053269998 0.0000000000 0.0818929970 1.0000000000
0.0053140000 0.0000000000 0.0818979964 1.0000000000
0.0053030001 0.0000000000 0.0818910003 1.0000000000
0.0052910000 0.0000000000 0.0818850026 1.0000000000
0.0052789999 0.0000000000 0.0818869993 1.0000000000
0.0052660001 0.0000000000 0.0818829983 1.0000000000
0.0052550002 0.0000000000 0.0818829983 1.0000000000
0.0052430001 0.0000000000 0.0818850026 1.0000000000
0.0052310000 0.0000000000 0.0818850026 1.0000000000
0.0052169999 0.0000000000 0.0818820000 1.0000000000
0.0052069998 0.0000000000 0.0818839967 1.0000000000
0.0051950002 0.0000000000 0.0818879977 1.0000000000
0.0051830001 0.0000000000 0.0818910003 1.0000000000
0.0051699998 0.0000000000 0.0818879977 1.0000000000
0.0051580002 0.0000000000 0.0818839967 1.0000000000
0.0051449998 0.0000000000 0.0818829983 1.0000000000
0.0051350002 0.0000000000 0.0818890035 1.0000000000
0.0051230001 0.0000000000 0.0818950012 1.0000000000
0.0051110000 0.0000000000 0.0818919986 1.0000000000
0.0050969999 0.0000000000 0.0818820000 1.0000000000
0.0050860001 0.0000000000 0.0818839967 1.0000000000
0.0050730002 0.0000000000 0.0818879977 1.0000000000
0.0050619999 0.0000000000 0.0818879977 1.0000000000
0.0050490000 0.0000000000 0.0818820000 1.0000000000
0.0050380002 0.0000000000 0.0818850026 1.0000000000
0.0050249998 0.0000000000 0.0818890035 1.0000000000
0.0050140000 0.0000000000 0.0818890035 1.0000000000
0.0050010001 0.0000000000 0.0818900019 1.0000000000
0.0049899998 0.0000000000 0.0818919986 1.0000000000
0.0049769999 0.0000000000 0.0818879977 1.0000000000
0.0049660001 0.0000000000 0.0818860009 1.0000000000
0.0049530002 0.0000000000 0.0818890035 1.0000000000
0.0049419999 0.0000000000 0.0818950012 1.0000000000
0.0049299998 0.0000000000 0.0818929970 1.0000000000
0.0049180002 0.0000000000 0.0818910003 1.0000000000
0.0049060001 0.0000000000 0.0818919986 1.0000000000
0.0048940000 0.0000000000 0.0818910003 1.0000000000
0.0048810001 0.0000000000 0.0818910003 1.0000000000
0.0048699998 0.0000000000 0.0818969980 1.0000000000
0.0048590000 0.0000000000 0.0819030032 1.0000000000
0.0048469999 0.0000000000 0.0819030032 1.0000000000
0.0048349998 0.0000000000 0.0819049999 1.0000000000
0.0048230002 0.0000000000 0.0819149986 1.0000000000
0.0048110001 0.0000000000 0.0819099993 1.0000000000
0.0047980002 0.0000000000 0.0818929970 1.0000000000
0.0047860001 0.0000000000 0.0818860009 1.0000000000
0.0047740000 0.0000000000 0.0818839967 1.0000000000
0.0047599999 0.0000000000 0.0818820000 1.0000000000
0.0047499998 0.0000000000 0.0818910003 1.0000000000
0.0047380002 0.0000000000 0.0818940029 1.0000000000
0.0047260001 0.0000000000 0.0818900019 1.0000000000
0.0047120000 0.0000000000 0.0818879977 1.0000000000
0.0047019999 0.0000000000 0.0818900019 1.0000000000
0.0046899999 0.0000000000 0.0818940029 1.0000000000
0.0046780002 0.0000000000 0.0818959996 1.0000000000
0.0046660001 0.0000000000 0.0818929970 1.0000000000
0.0046540000 0.0000000000 0.0818919986 1.0000000000
0.0046420000 0.0000000000 0.0818919986 1.0000000000
0.0046299999 0.0000000000 0.0818950012 1.0000000000
0.0046170000 0.0000000000 0.0819030032 1.0000000000
0.0046060001 0.0000000000 0.0819099993 1.0000000000
0.0045929998 0.0000000000 0.0819040015 1.0000000000
0.0045820000 0.0000000000 0.0818979964 1.0000000000
0.0045690001 0.0000000000 0.0818929970 1.0000000000
0.0045570000 0.0000000000 0.0818940029 1.0000000000
0.0045440001 0.0000000000 0.0818969980 1.0000000000
0.0045329998 0.0000000000 0.0818969980 1.0000000000
0.0045200000 0.0000000000 0.0818950012 1.0000000000
0.0045090001 0.0000000000 0.0818990022 1.0000000000
0.0044959998 0.0000000000 0.0818969980 1.0000000000
0.0044849999 0.0000000000 0.0818940029 1.0000000000
0.0044729998 0.0000000000 0.0818940029 1.0000000000
0.0044610002 0.0000000000 0.0818929970 1.0000000000
0.0044490001 0.0000000000 0.0818910003 1.0000000000
0.0044370000 0.0000000000 0.0818910003 1.0000000000
0.0044249999 0.0000000000 0.0818910003 1.0000000000
0.0044120001 0.0000000000 0.0818900019 1.0000000000
0.0044010002 0.0000000000 0.0818929970 1.0000000000
0.0043890001 0.0000000000 0.0819040015 1.0000000000
0.0043770000 0.0000000000 0.0819099993 1.0000000000
0.0043649999 0.0000000000 0.0819090009 1.0000000000
0.0043529999 0.0000000000 0.0819040015 1.0000000000
0.0043410002 0.0000000000 0.0819040015 1.0000000000
0.0043279999 0.0000000000 0.0819130018 1.0000000000
0.0043170000 0.0000000000 0.0819149986 1.0000000000
0.0043050000 0.0000000000 0.0819109976 1.0000000000
0.0042929999 0.0000000000 0.0819120035 1.0000000000
0.0042809998 0.0000000000 0.0819120035 1.0000000000
0.0042679999 0.0000000000 0.0819069967 1.0000000000
0.0042559998 0.0000000000 0.0819030032 1.0000000000
0.0042440002 0.0000000000 0.0819009990 1.0000000000
0.0042320001 0.0000000000 0.0819000006 1.0000000000
0.0042200000 0.0000000000 0.0819000006 1.0000000000
0.0042079999 0.0000000000 0.0819030032 1.0000000000
0.0041959998 0.0000000000 0.0819030032 1.0000000000
0.0041840002 0.0000000000 0.0819000006 1.0000000000
0.0041720001 0.0000000000 0.0819019973 1.0000000000
0.0041589998 0.0000000000 0.0819040015 1.0000000000
0.0041479999 0.0000000000 0.0819080025 1.0000000000
0.0041359998 0.0000000000 0.0819109976 1.0000000000
0.0041240002 0.0000000000 0.0819120035 1.0000000000
0.0041120001 0.0000000000 0.0819109976 1.0000000000
0.0041000000 0.0000000000 0.0819140002 1.0000000000
0.0040870002 0.0000000000 0.0819140002 1.0000000000
0.0040759998 0.0000000000 0.0819159970 1.0000000000
0.0040630000 0.0000000000 0.0819140002 1.0000000000
0.0040509999 0.0000000000 0.0819080025 1.0000000000
0.0040389998 0.0000000000 0.0819019973 1.0000000000
0.0040270002 0.0000000000 0.0819000006 1.0000000000
0.0040150001 0.0000000000 0.0819009990 1.0000000000
0.0040030000 0.0000000000 0.0819019973 1.0000000000
0.0039900001 0.0000000000 0.0819030032 1.0000000000
0.0039789998 0.0000000000 0.0819040015 1.0000000000
0.0039650002 0.0000000000 0.0819019973 1.0000000000
0.0039539998 0.0000000000 0.0819009990 1.0000000000
0.0039410000 0.0000000000 0.0818969980 1.0000000000
0.0039300001 0.0000000000 0.0818979964 1.0000000000
0.0039169998 0.0000000000 0.0819049999 1.0000000000
0.0039070002 0.0000000000 0.0819130018 1.0000000000
0.0038940001 0.0000000000 0.0819149986 1.0000000000
0.0038830000 0.0000000000 0.0819149986 1.0000000000
0.0038689999 0.0000000000 0.0819140002 1.0000000000
0.0038580000 0.0000000000 0.0819120035 1.0000000000
0.0038449999 0.0000000000 0.0819049999 1.0000000000
0.0038340001 0.0000000000 0.0819059983 1.0000000000
0.0038220000 0.0000000000 0.0819069967 1.0000000000
0.0038099999 0.0000000000 0.0819080025 1.0000000000
0.0037970000 0.0000000000 0.0819030032 1.0000000000
0.0037849999 0.0000000000 0.0818990022 1.0000000000
0.0037730001 0.0000000000 0.0819000006 1.0000000000
0.0037610000 0.0000000000 0.0818990022 1.0000000000
0.0037479999 0.0000000000 0.0818959996 1.0000000000
0.0037370001 0.0000000000 0.0818990022 1.0000000000
0.0037250000 0.0000000000 0.0819009990 1.0000000000
0.0037130001 0.0000000000 0.0819040015 1.0000000000
0.0037010000 0.0000000000 0.0819099993 1.0000000000
0.0036889999 0.0000000000 0.0819140002 1.0000000000
0.0036760001 0.0000000000 0.0819130018 1.0000000000
0.0036650000 0.0000000000 0.0819120035 1.0000000000
0.0036520001 0.0000000000 0.0819049999 1.0000000000
0.0036410000 0.0000000000 0.0819009990 1.0000000000
0.0036289999 0.0000000000 0.0819000006 1.0000000000
0.0036170001 0.0000000000 0.0819009990 1.0000000000
0.0036030000 0.0000000000 0.0819030032 1.0000000000
0.0035920001 0.0000000000 0.0819019973 1.0000000000
0.0035790000 0.0000000000 0.0818969980 1.0000000000
0.0035679999 0.0000000000 0.0819000006 1.0000000000
0.0035550001 0.0000000000 0.0819059983 1.0000000000
0.0035440000 0.0000000000 0.0819069967 1.0000000000
0.0035310001 0.0000000000 0.0819019973 1.0000000000
0.0035200000 0.0000000000 0.0818990022 1.0000000000
0.0035069999 0.0000000000 0.0818969980 1.0000000000
0.0034960001 0.0000000000 0.0819019973 1.0000000000
0.0034840000 0.0000000000 0.0819069967 1.0000000000
0.0034719999 0.0000000000 0.0819109976 1.0000000000
0.0034600000 0.0000000000 0.0819099993 1.0000000000
0.0034479999 0.0000000000 0.0819080025 1.0000000000
0.0034350001 0.0000000000 0.0819099993 1.0000000000
0.0034240000 0.0000000000 0.0819170028 1.0000000000
0.0034119999 0.0000000000 0.0819189996 1.0000000000
0.0034000000 0.0000000000 0.0819170028 1.0000000000
0.0033880000 0.0000000000 0.0819180012 1.0000000000
0.0033760001 0.0000000000 0.0819220021 1.0000000000
0.0033630000 0.0000000000 0.0819180012 1.0000000000
0.0033519999 0.0000000000 0.0819140002 1.0000000000
0.0033380000 0.0000000000 0.0819130018 1.0000000000
0.0033270000 0.0000000000 0.0819170028 1.0000000000
0.0033160001 0.0000000000 0.0819189996 1.0000000000
0.0033030000 0.0000000000 0.0819199979 1.0000000000
0.0032899999 0.0000000000 0.0819209963 1.0000000000
0.0032790001 0.0000000000 0.0819220021 1.0000000000
0.0032660000 0.0000000000 0.0819180012 1.0000000000
0.0032550001 0.0000000000 0.0819199979 1.0000000000
0.0032430000 0.0000000000 0.0819260031 1.0000000000
0.0032309999 0.0000000000 0.0819279999 1.0000000000
0.0032190001 0.0000000000 0.0819249973 1.0000000000
0.0032070000 0.0000000000 0.0819199979 1.0000000000
0.0031950001 0.0000000000 0.0819159970 1.0000000000
0.0031830000 0.0000000000 0.0819159970 1.0000000000
0.0031709999 0.0000000000 0.0819180012 1.0000000000
0.0031590001 0.0000000000 0.0819159970 1.0000000000
0.0031460000 0.0000000000 0.0819170028 1.0000000000
0.0031340001 0.0000000000 0.0819170028 1.0000000000
0.0031210000 0.0000000000 0.0819120035 1.0000000000
0.0031099999 0.0000000000 0.0819140002 1.0000000000
0.0030970001 0.0000000000 0.0819180012 1.0000000000
0.0030860000 0.0000000000 0.0819209963 1.0000000000
0.0030730001 0.0000000000 0.0819180012 1.0000000000
0.0030620000 0.0000000000 0.0819159970 1.0000000000
0.0030499999 0.0000000000 0.0819170028 1.0000000000
0.0030380001 0.0000000000 0.0819180012 1.0000000000
0.0030250000 0.0000000000 0.0819090009 1.0000000000
0.0030129999 0.0000000000 0.0819059983 1.0000000000
0.0030000000 0.0000000000 0.0819120035 1.0000000000
0.0029899999 0.0000000000 0.0819180012 1.0000000000
0.0029770001 0.0000000000 0.0819170028 1.0000000000
0.0029650000 0.0000000000 0.0819140002 1.0000000000
0.0029519999 0.0000000000 0.0819109976 1.0000000000
0.0029410000 0.0000000000 0.0819170028 1.0000000000
0.0029290000 0.0000000000 0.0819239989 1.0000000000
0.0029170001 0.0000000000 0.0819209963 1.0000000000
0.0029040000 0.0000000000 0.0819199979 1.0000000000
0.0028929999 0.0000000000 0.0819249973 1.0000000000
0.0028800000 0.0000000000 0.0819180012 1.0000000000
0.0028680000 0.0000000000 0.0819080025 1.0000000000
0.0028550001 0.0000000000 0.0819090009 1.0000000000
0.0028450000 0.0000000000 0.0819220021 1.0000000000
0.0028329999 0.0000000000 0.0819230005 1.0000000000
0.0028200001 0.0000000000 0.0819249973 1.0000000000
0.0028070000 0.0000000000 0.0819289982 1.0000000000
0.0027960001 0.0000000000 0.0819239989 1.0000000000
0.0027840000 0.0000000000 0.0819159970 1.0000000000
0.0027719999 0.0000000000 0.0819180012 1.0000000000
0.0027600001 0.0000000000 0.0819230005 1.0000000000
0.0027480000 0.0000000000 0.0819230005 1.0000000000
0.0027350001 0.0000000000 0.0819220021 1.0000000000
0.0027240000 0.0000000000 0.0819220021 1.0000000000
0.0027099999 0.0000000000 0.0819170028 1.0000000000
0.0026990001 0.0000000000 0.0819209963 1.0000000000
0.0026870000 0.0000000000 0.0819230005 1.0000000000
0.0026750001 0.0000000000 0.0819220021 1.0000000000
0.0026630000 0.0000000000 0.0819249973 1.0000000000
0.0026509999 0.0000000000 0.0819329992 1.0000000000
0.0026390001 0.0000000000 0.0819310024 1.0000000000
0.0026270000 0.0000000000 0.0819260031 1.0000000000
0.0026140001 0.0000000000 0.0819199979 1.0000000000
0.0026030000 0.0000000000 0.0819189996 1.0000000000
0.0025909999 0.0000000000 0.0819230005 1.0000000000
0.0025790001 0.0000000000 0.0819270015 1.0000000000
0.0025660000 0.0000000000 0.0819279999 1.0000000000
0.0025549999 0.0000000000 0.0819329992 1.0000000000
0.0025420000 0.0000000000 0.0819360018 1.0000000000
0.0025309999 0.0000000000 0.0819410011 1.0000000000
0.0025190001 0.0000000000 0.0819609985 1.0000000000
0.0025080000 0.0000000000 0.0819960013 1.0000000000
0.0024949999 0.0000000000 0.0820140019 1.0000000000
0.0024850001 0.0000000000 0.0820299983 1.0000000000
0.0024720000 0.0000000000 0.0820389986 1.0000000000
0.0024610001 0.0000000000 0.0820449963 1.0000000000
0.0024490000 0.0000000000 0.0820550025 1.0000000000
0.0024379999 0.0000000000 0.0820790008 1.0000000000
0.0024260001 0.0000000000 0.0820889995 1.0000000000
0.0024140000 0.0000000000 0.0820880011 1.0000000000
0.0024009999 0.0000000000 0.0820920020 1.0000000000
0.0023900000 0.0000000000 0.0821160004 1.0000000000
-0.0025140001 0.0000000000 0.0814670026 1.0000000000
-0.0025279999 0.0000000000 0.0814739987 1.0000000000
-0.0025690000 0.0000000000 0.0821539983 1.0000000000
-0.0025800001 0.0000000000 0.0821529999 1.0000000000
-0.0025930000 0.0000000000 0.0821439996 1.0000000000
-0.0026040000 0.0000000000 0.0821380019 1.0000000000
-0.0026169999 0.0000000000 0.0821300000 1.0000000000
-0.0026280000 0.0000000000 0.0821219981 1.0000000000
-0.0026400001 0.0000000000 0.0821160004 1.0000000000
-0.0026519999 0.0000000000 0.0821190029 1.0000000000
-0.0026640000 0.0000000000 0.0821179971 1.0000000000
-0.0026750001 0.0000000000 0.0820889995 1.0000000000
-0.0026870000 0.0000000000 0.0820569992 1.0000000000
-0.0026980001 0.0000000000 0.0820519999 1.0000000000
-0.0027109999 0.0000000000 0.0820519999 1.0000000000
-0.0027220000 0.0000000000 0.0820439979 1.0000000000
-0.0027350001 0.0000000000 0.0820309967 1.0000000000
-0.0027460000 0.0000000000 0.0820249990 1.0000000000
-0.0027580000 0.0000000000 0.0820199996 1.0000000000
-0.0027699999 0.0000000000 0.0820150003 1.0000000000
-0.0027830000 0.0000000000 0.0820079967 1.0000000000
-0.0027940001 0.0000000000 0.0820019990 1.0000000000
-0.0028059999 0.0000000000 0.0819960013 1.0000000000
-0.0028180000 0.0000000000 0.0819889978 1.0000000000
-0.0028299999 0.0000000000 0.0819789991 1.0000000000
-0.0028420000 0.0000000000 0.0819789991 1.0000000000
-0.0028550001 0.0000000000 0.0819889978 1.0000000000
-0.0028659999 0.0000000000 0.0819960013 1.0000000000
-0.0028790000 0.0000000000 0.0819929987 1.0000000000
-0.0028899999 0.0000000000 0.0819920003 1.0000000000
-0.0029030000 0.0000000000 0.0819879994 1.0000000000
-0.0029150001 0.0000000000 0.0819900036 1.0000000000
-0.0029269999 0.0000000000 0.0819969997 1.0000000000
-0.0029390000 0.0000000000 0.0820019990 1.0000000000
-0.0029519999 0.0000000000 0.0819989964 1.0000000000
-0.0029630000 0.0000000000 0.0819979981 1.0000000000
-0.0029760001 0.0000000000 0.0820000023 1.0000000000
-0.0029869999 0.0000000000 0.0819969997 1.0000000000
-0.0030000000 0.0000000000 0.0819900036 1.0000000000
-0.0030110001 0.0000000000 0.0819870010 1.0000000000
-0.0030230000 0.0000000000 0.0819860026 1.0000000000
-0.0030360001 0.0000000000 0.0819920003 1.0000000000
-0.0030489999 0.0000000000 0.0819979981 1.0000000000
-0.0030600000 0.0000000000 0.0820019990 1.0000000000
-0.0030730001 0.0000000000 0.0819989964 1.0000000000
-0.0030840000 0.0000000000 0.0819960013 1.0000000000
-0.0030970001 0.0000000000 0.0819929987 1.0000000000
-0.0031079999 0.0000000000 0.0819929987 1.0000000000
-0.0031200000 0.0000000000 0.0819960013 1.0000000000
-0.0031330001 0.0000000000 0.0819989964 1.0000000000
-0.0031450000 0.0000000000 0.0820040032 1.0000000000
-0.0031570001 0.0000000000 0.0820090026 1.0000000000
-0.0031699999 0.0000000000 0.0820100009 1.0000000000
-0.0031810000 0.0000000000 0.0820109993 1.0000000000
-0.0031940001 0.0000000000 0.0820079967 1.0000000000
-0.0032050000 0.0000000000 0.0820029974 1.0000000000
-0.0032180001 0.0000000000 0.0819979981 1.0000000000
-0.0032289999 0.0000000000 0.0820029974 1.0000000000
-0.0032420000 0.0000000000 0.0820100009 1.0000000000
-0.0032540001 0.0000000000 0.0820100009 1.0000000000
-0.0032660000 0.0000000000 0.0819979981 1.0000000000
-0.0032770000 0.0000000000 0.0819900036 1.0000000000
-0.0032889999 0.0000000000 0.0819969997 1.0000000000
-0.0033020000 0.0000000000 0.0820019990 1.0000000000
-0.0033140001 0.0000000000 0.0820029974 1.0000000000
-0.0033259999 0.0000000000 0.0819979981 1.0000000000
-0.0033380000 0.0000000000 0.0819960013 1.0000000000
-0.0033499999 0.0000000000 0.0820000023 1.0000000000
-0.0033620000 0.0000000000 0.0819979981 1.0000000000
-0.0033740001 0.0000000000 0.0819950029 1.0000000000
-0.0033869999 0.0000000000 0.0819929987 1.0000000000
-0.0033980000 0.0000000000 0.0819920003 1.0000000000
-0.0034109999 0.0000000000 0.0819929987 1.0000000000
-0.0034220000 0.0000000000 0.0820019990 1.0000000000
-0.0034350001 0.0000000000 0.0820050016 1.0000000000
-0.0034469999 0.0000000000 0.0820029974 1.0000000000
-0.0034590000 0.0000000000 0.0820050016 1.0000000000
-0.0034709999 0.0000000000 0.0820060000 1.0000000000
-0.0034840000 0.0000000000 0.0820019990 1.0000000000
-0.0034950001 0.0000000000 0.0820000023 1.0000000000
-0.0035069999 0.0000000000 0.0819960013 1.0000000000
-0.0035190000 0.0000000000 0.0819929987 1.0000000000
-0.0035319999 0.0000000000 0.0819939971 1.0000000000
-0.0035430000 0.0000000000 0.0820040032 1.0000000000
-0.0035560001 0.0000000000 0.0820140019 1.0000000000
-0.0035679999 0.0000000000 0.0820119977 1.0000000000
-0.0035800000 0.0000000000 0.0820079967 1.0000000000
-0.0035920001 0.0000000000 0.0820060000 1.0000000000
-0.0036050000 0.0000000000 0.0820079967 1.0000000000
-0.0036160001 0.0000000000 0.0820109993 1.0000000000
-0.0036279999 0.0000000000 0.0820069984 1.0000000000
-0.0036400000 0.0000000000 0.0819989964 1.0000000000
-0.0036530001 0.0000000000 0.0819939971 1.0000000000
-0.0036640000 0.0000000000 0.0819950029 1.0000000000
-0.0036760001 0.0000000000 0.0819960013 1.0000000000
-0.0036879999 0.0000000000 0.0819960013 1.0000000000
-0.0037010000 0.0000000000 0.0820010006 1.0000000000
-0.0037120001 0.0000000000 0.0820060000 1.0000000000
-0.0037250000 0.0000000000 0.0820029974 1.0000000000
-0.0037360000 0.0000000000 0.0820000023 1.0000000000
-0.0037489999 0.0000000000 0.0820019990 1.0000000000
-0.0037610000 0.0000000000 0.0820029974 1.0000000000
-0.0037740001 0.0000000000 0.0820010006 1.0000000000
-0.0037849999 0.0000000000 0.0820029974 1.0000000000
-0.0037980000 0.0000000000 0.0820019990 1.0000000000
-0.0038089999 0.0000000000 0.0820040032 1.0000000000
-0.0038220000 0.0000000000 0.0820090026 1.0000000000
-0.0038330001 0.0000000000 0.0820140019 1.0000000000
-0.0038459999 0.0000000000 0.0820109993 1.0000000000
-0.0038570000 0.0000000000 0.0820079967 1.0000000000
-0.0038699999 0.0000000000 0.0820079967 1.0000000000
-0.0038820000 0.0000000000 0.0820130035 1.0000000000
-0.0038940001 0.0000000000 0.0820159987 1.0000000000
-0.0039059999 0.0000000000 0.0820100009 1.0000000000
-0.0039180000 0.0000000000 0.0820000023 1.0000000000
-0.0039300001 0.0000000000 0.0820040032 1.0000000000
-0.0039420002 0.0000000000 0.0820069984 1.0000000000
-0.0039539998 0.0000000000 0.0820069984 1.0000000000
-0.0039659999 0.0000000000 0.0820150003 1.0000000000
-0.0039789998 0.0000000000 0.0820209980 1.0000000000
-0.0039909999 0.0000000000 0.0820150003 1.0000000000
-0.0040020002 0.0000000000 0.0820079967 1.0000000000
-0.0040139998 0.0000000000 0.0820060000 1.0000000000
-0.0040259999 0.0000000000 0.0820019990 1.0000000000
-0.0040389998 0.0000000000 0.0820000023 1.0000000000
-0.0040509999 0.0000000000 0.0820069984 1.0000000000
-0.0040640002 0.0000000000 0.0820090026 1.0000000000
-0.0040750001 0.0000000000 0.0820119977 1.0000000000
-0.0040870002 0.0000000000 0.0820159987 1.0000000000
-0.0040989998 0.0000000000 0.0820169970 1.0000000000
-0.0041120001 0.0000000000 0.0820119977 1.0000000000
-0.0041230000 0.0000000000 0.0820090026 1.0000000000
-0.0041359998 0.0000000000 0.0820100009 1.0000000000
-0.0041470001 0.0000000000 0.0820130035 1.0000000000
-0.0041600000 0.0000000000 0.0820119977 1.0000000000
-0.0041720001 0.0000000000 0.0820100009 1.0000000000
-0.0041830000 0.0000000000 0.0820060000 1.0000000000
-0.0041959998 0.0000000000 0.0820090026 1.0000000000
-0.0042090002 0.0000000000 0.0820100009 1.0000000000
-0.0042200000 0.0000000000 0.0820079967 1.0000000000
-0.0042329999 0.0000000000 0.0820109993 1.0000000000
-0.0042440002 0.0000000000 0.0820219964 1.0000000000
-0.0042570001 0.0000000000 0.0820259973 1.0000000000
-0.0042690001 0.0000000000 0.0820309967 1.0000000000
-0.0042820000 0.0000000000 0.0820289999 1.0000000000
-0.0042929999 0.0000000000 0.0820230022 1.0000000000
-0.0043050000 0.0000000000 0.0820230022 1.0000000000
-0.0043170000 0.0000000000 0.0820270032 1.0000000000
-0.0043290001 0.0000000000 0.0820240006 1.0000000000
-0.0043410002 0.0000000000 0.0820180029 1.0000000000
-0.0043529999 0.0000000000 0.0820169970 1.0000000000
-0.0043649999 0.0000000000 0.0820150003 1.0000000000
-0.0043779998 0.0000000000 0.0820090026 1.0000000000
-0.0043890001 0.0000000000 0.0820140019 1.0000000000
-0.0044010002 0.0000000000 0.0820180029 1.0000000000
-0.0044129998 0.0000000000 0.0820169970 1.0000000000
-0.0044249999 0.0000000000 0.0820159987 1.0000000000
-0.0044370000 0.0000000000 0.0820159987 1.0000000000
-0.0044499999 0.0000000000 0.0820169970 1.0000000000
-0.0044620000 0.0000000000 0.0820209980 1.0000000000
-0.0044740001 0.0000000000 0.0820259973 1.0000000000
-0.0044860002 0.0000000000 0.0820240006 1.0000000000
-0.0044990000 0.0000000000 0.0820190012 1.0000000000
-0.0045099999 0.0000000000 0.0820190012 1.0000000000
-0.0045230002 0.0000000000 0.0820180029 1.0000000000
-0.0045340001 0.0000000000 0.0820219964 1.0000000000
-0.0045469999 0.0000000000 0.0820249990 1.0000000000
-0.0045590000 0.0000000000 0.0820249990 1.0000000000
-0.0045710001 0.0000000000 0.0820209980 1.0000000000
-0.0045830002 0.0000000000 0.0820190012 1.0000000000
-0.0045949998 0.0000000000 0.0820190012 1.0000000000
-0.0046060001 0.0000000000 0.0820140019 1.0000000000
-0.0046190000 0.0000000000 0.0820119977 1.0000000000
-0.0046310001 0.0000000000 0.0820180029 1.0000000000
-0.0046430002 0.0000000000 0.0820169970 1.0000000000
-0.0046549998 0.0000000000 0.0820169970 1.0000000000
-0.0046680002 0.0000000000 0.0820199996 1.0000000000
-0.0046790000 0.0000000000 0.0820209980 1.0000000000
-0.0046919999 0.0000000000 0.0820219964 1.0000000000
-0.0047040000 0.0000000000 0.0820280015 1.0000000000
-0.0047169998 0.0000000000 0.0820289999 1.0000000000
-0.0047280001 0.0000000000 0.0820240006 1.0000000000
-0.0047390000 0.0000000000 0.0820180029 1.0000000000
-0.0047510001 0.0000000000 0.0820190012 1.0000000000
-0.0047640000 0.0000000000 0.0820180029 1.0000000000
-0.0047760000 0.0000000000 0.0820169970 1.0000000000
-0.0047889999 0.0000000000 0.0820230022 1.0000000000
-0.0048000002 0.0000000000 0.0820240006 1.0000000000
-0.0048130001 0.0000000000 0.0820190012 1.0000000000
-0.0048239999 0.0000000000 0.0820249990 1.0000000000
-0.0048369998 0.0000000000 0.0820209980 1.0000000000
-0.0048480001 0.0000000000 0.0820159987 1.0000000000
-0.0048610000 0.0000000000 0.0820140019 1.0000000000
-0.0048719998 0.0000000000 0.0820190012 1.0000000000
-0.0048850002 0.0000000000 0.0820190012 1.0000000000
-0.0048969998 0.0000000000 0.0820289999 1.0000000000
-0.0049100001 0.0000000000 0.0820449963 1.0000000000
-0.0049210000 0.0000000000 0.0820439979 1.0000000000
-0.0049330001 0.0000000000 0.0820339993 1.0000000000
-0.0049450002 0.0000000000 0.0820280015 1.0000000000
-0.0049569998 0.0000000000 0.0820230022 1.0000000000
-0.0049689999 0.0000000000 0.0820249990 1.0000000000
-0.0049810000 0.0000000000 0.0820270032 1.0000000000
-0.0049930001 0.0000000000 0.0820270032 1.0000000000
-0.0050050002 0.0000000000 0.0820270032 1.0000000000
-0.0050169998 0.0000000000 0.0820259973 1.0000000000
-0.0050289999 0.0000000000 0.0820259973 1.0000000000
-0.0050410000 0.0000000000 0.0820289999 1.0000000000
-0.0050539998 0.0000000000 0.0820360035 1.0000000000
-0.0050659999 0.0000000000 0.0820420012 1.0000000000
-0.0050780000 0.0000000000 0.0820370018 1.0000000000
-0.0050889999 0.0000000000 0.0820249990 1.0000000000
-0.0051020002 0.0000000000 0.0820199996 1.0000000000
-0.0051130001 0.0000000000 0.0820249990 1.0000000000
-0.0051259999 0.0000000000 0.0820289999 1.0000000000
-0.0051380000 0.0000000000 0.0820349976 1.0000000000
-0.0051500001 0.0000000000 0.0820370018 1.0000000000
-0.0051620002 0.0000000000 0.0820330009 1.0000000000
-0.0051750001 0.0000000000 0.0820289999 1.0000000000
-0.0051859999 0.0000000000 0.0820299983 1.0000000000
-0.0051989998 0.0000000000 0.0820320025 1.0000000000
-0.0052100001 0.0000000000 0.0820399970 1.0000000000
-0.0052230000 0.0000000000 0.0820410028 1.0000000000
-0.0052339998 0.0000000000 0.0820380002 1.0000000000
-0.0052459999 0.0000000000 0.0820360035 1.0000000000
-0.0052590002 0.0000000000 0.0820399970 1.0000000000
-0.0052709999 0.0000000000 0.0820380002 1.0000000000
-0.0052820002 0.0000000000 0.0820360035 1.0000000000
-0.0052950000 0.0000000000 0.0820320025 1.0000000000
-0.0053059999 0.0000000000 0.0820320025 1.0000000000
-0.0053190002 0.0000000000 0.0820360035 1.0000000000
-0.0053309998 0.0000000000 0.0820370018 1.0000000000
-0.0053429999 0.0000000000 0.0820339993 1.0000000000
-0.0053539998 0.0000000000 0.0820309967 1.0000000000
-0.0053659999 0.0000000000 0.0820270032 1.0000000000
-0.0053780000 0.0000000000 0.0820270032 1.0000000000
-0.0053909998 0.0000000000 0.0820289999 1.0000000000
-0.0054029999 0.0000000000 0.0820320025 1.0000000000
-0.0054150000 0.0000000000 0.0820289999 1.0000000000
-0.0054270001 0.0000000000 0.0820309967 1.0000000000
-0.0054400000 0.0000000000 0.0820309967 1.0000000000
-0.0054509998 0.0000000000 0.0820299983 1.0000000000
-0.0054629999 0.0000000000 0.0820370018 1.0000000000
-0.0054759998 0.0000000000 0.0820429996 1.0000000000
-0.0054879999 0.0000000000 0.0820380002 1.0000000000
-0.0054990002 0.0000000000 0.0820370018 1.0000000000
-0.0055120001 0.0000000000 0.0820380002 1.0000000000
-0.0055240002 0.0000000000 0.0820389986 1.0000000000
-0.0055370000 0.0000000000 0.0820399970 1.0000000000
-0.0055479999 0.0000000000 0.0820460021 1.0000000000
-0.0055600000 0.0000000000 0.0820470005 1.0000000000
-0.0055720001 0.0000000000 0.0820429996 1.0000000000
-0.0055840001 0.0000000000 0.0820349976 1.0000000000
-0.0055950000 0.0000000000 0.0820309967 1.0000000000
-0.0056079999 0.0000000000 0.0820289999 1.0000000000
-0.0056190002 0.0000000000 0.0820280015 1.0000000000
-0.0056309998 0.0000000000 0.0820280015 1.0000000000
-0.0056429999 0.0000000000 0.0820280015 1.0000000000
-0.0056560002 0.0000000000 0.0820299983 1.0000000000
-0.0056679999 0.0000000000 0.0820299983 1.0000000000
-0.0056810002 0.0000000000 0.0820299983 1.0000000000
-0.0056920000 0.0000000000 0.0820339993 1.0000000000
-0.0057049999 0.0000000000 0.0820330009 1.0000000000
-0.0057160002 0.0000000000 0.0820360035 1.0000000000
-0.0057279998 0.0000000000 0.0820380002 1.0000000000
-0.0057399999 0.0000000000 0.0820380002 1.0000000000
-0.0057520000 0.0000000000 0.0820370018 1.0000000000
-0.0057640001 0.0000000000 0.0820370018 1.0000000000
-0.0057770000 0.0000000000 0.0820330009 1.0000000000
-0.0057879998 0.0000000000 0.0820339993 1.0000000000
-0.0058019999 0.0000000000 0.0820389986 1.0000000000
-0.0058129998 0.0000000000 0.0820399970 1.0000000000
-0.0058249999 0.0000000000 0.0820370018 1.0000000000
-0.0058370000 0.0000000000 0.0820349976 1.0000000000
-0.0058499998 0.0000000000 0.0820339993 1.0000000000
-0.0058610002 0.0000000000 0.0820360035 1.0000000000
-0.0058729998 0.0000000000 0.0820380002 1.0000000000
-0.0058849999 0.0000000000 0.0820399970 1.0000000000
-0.0058980002 0.0000000000 0.0820420012 1.0000000000
-0.0059099998 0.0000000000 0.0820470005 1.0000000000
-0.0059219999 0.0000000000 0.0820460021 1.0000000000
-0.0059340000 0.0000000000 0.0820460021 1.0000000000
-0.0059460001 0.0000000000 0.0820429996 1.0000000000
-0.0059570000 0.0000000000 0.0820399970 1.0000000000
-0.0059690000 0.0000000000 0.0820380002 1.0000000000
-0.0059810001 0.0000000000 0.0820370018 1.0000000000
-0.0059940000 0.0000000000 0.0820389986 1.0000000000
-0.0060060001 0.0000000000 0.0820439979 1.0000000000
-0.0060190000 0.0000000000 0.0820399970 1.0000000000
-0.0060290000 0.0000000000 0.0820360035 1.0000000000
-0.0060419999 0.0000000000 0.0820320025 1.0000000000
-0.0060530002 0.0000000000 0.0820330009 1.0000000000
-0.0060660001 0.0000000000 0.0820309967 1.0000000000
-0.0060769999 0.0000000000 0.0820309967 1.0000000000
-0.0060899998 0.0000000000 0.0820339993 1.0000000000
-0.0061019999 0.0000000000 0.0820410028 1.0000000000
-0.0061150002 0.0000000000 0.0820420012 1.0000000000
-0.0061260001 0.0000000000 0.0820449963 1.0000000000
-0.0061389999 0.0000000000 0.0820489973 1.0000000000
-0.0061510000 0.0000000000 0.0820519999 1.0000000000
-0.0061639999 0.0000000000 0.0820489973 1.0000000000
-0.0061750002 0.0000000000 0.0820500031 1.0000000000
-0.0061880001 0.0000000000 0.0820500031 1.0000000000
-0.0061989999 0.0000000000 0.0820439979 1.0000000000
-0.0062099998 0.0000000000 0.0820380002 1.0000000000
-0.0062230001 0.0000000000 0.0820410028 1.0000000000
-0.0062360000 0.0000000000 0.0820429996 1.0000000000
-0.0062469998 0.0000000000 0.0820429996 1.0000000000
-0.0062600002 0.0000000000 0.0820429996 1.0000000000
-0.0062710000 0.0000000000 0.0820420012 1.0000000000
-0.0062830001 0.0000000000 0.0820339993 1.0000000000
-0.0062940000 0.0000000000 0.0820330009 1.0000000000
-0.0063060001 0.0000000000 0.0820309967 1.0000000000
-0.0063180001 0.0000000000 0.0820299983 1.0000000000
-0.0063319998 0.0000000000 0.0820399970 1.0000000000
-0.0063430001 0.0000000000 0.0820460021 1.0000000000
-0.0063550002 0.0000000000 0.0820470005 1.0000000000
-0.0063669998 0.0000000000 0.0820510015 1.0000000000
-0.0063789999 0.0000000000 0.0820470005 1.0000000000
-0.0063910000 0.0000000000 0.0820410028 1.0000000000
-0.0064030001 0.0000000000 0.0820389986 1.0000000000
-0.0064150002 0.0000000000 0.0820399970 1.0000000000
-0.0064280001 0.0000000000 0.0820420012 1.0000000000
-0.0064389999 0.0000000000 0.0820449963 1.0000000000
-0.0064519998 0.0000000000 0.0820410028 1.0000000000
-0.0064630001 0.0000000000 0.0820489973 1.0000000000
-0.0064770002 0.0000000000 0.0820510015 1.0000000000
-0.0064869998 0.0000000000 0.0820470005 1.0000000000
-0.0064989999 0.0000000000 0.0820479989 1.0000000000
-0.0065120002 0.0000000000 0.0820569992 1.0000000000
-0.0065259999 0.0000000000 0.0820709988 1.0000000000
-0.0065380000 0.0000000000 0.0820889995 1.0000000000
-0.0065549999 0.0000000000 0.0821399987 1.0000000000
-0.0065669999 0.0000000000 0.0821539983 1.0000000000
-0.0065799998 0.0000000000 0.0821769983 1.0000000000
-0.0065930001 0.0000000000 0.0821819976 1.0000000000
-0.0066049998 0.0000000000 0.0821890011 1.0000000000
-0.0066180001 0.0000000000 0.0822030008 1.0000000000
-0.0066330000 0.0000000000 0.0822350010 1.0000000000
-0.0066459998 0.0000000000 0.0822499990 1.0000000000
-0.0066579999 0.0000000000 0.0822509974 1.0000000000
-0.0066700000 0.0000000000 0.0822499990 1.0000000000
-0.0066809999 0.0000000000 0.0822469965 1.0000000000
-0.0066940002 0.0000000000 0.0822520033 1.0000000000
-0.0067090001 0.0000000000 0.0822829977 1.0000000000
-0.0067230002 0.0000000000 0.0823249966 1.0000000000
-0.0067360001 0.0000000000 0.0823339969 1.0000000000
-0.0067469999 0.0000000000 0.0823279992 1.0000000000
-0.0067599998 0.0000000000 0.0823270008 1.0000000000
-0.0067730001 0.0000000000 0.0823500007 1.0000000000
-0.0067880000 0.0000000000 0.0823820010 1.0000000000
-0.0068000001 0.0000000000 0.0823919997 1.0000000000
-0.0068120002 0.0000000000 0.0823929980 1.0000000000
-0.0068250000 0.0000000000 0.0824010000 1.0000000000
-0.0068379999 0.0000000000 0.0824109986 1.0000000000
-0.0068500000 0.0000000000 0.0824209973 1.0000000000
-0.0068640001 0.0000000000 0.0824259967 1.0000000000
-0.0068760002 0.0000000000 0.0824379995 1.0000000000
-0.0068890001 0.0000000000 0.0824500024 1.0000000000
-0.0069010002 0.0000000000 0.0824590027 1.0000000000
-0.0069140000 0.0000000000 0.0824749991 1.0000000000
-0.0069269999 0.0000000000 0.0824820027 1.0000000000
-0.0069410000 0.0000000000 0.0824939981 1.0000000000
-0.0069539999 0.0000000000 0.0825140029 1.0000000000
-0.0069660000 0.0000000000 0.0825129971 1.0000000000
-0.0069789998 0.0000000000 0.0825299993 1.0000000000
-0.0069940002 0.0000000000 0.0825579986 1.0000000000
-0.0070059998 0.0000000000 0.0825769976 1.0000000000
-0.0070190001 0.0000000000 0.0825800002 1.0000000000
-0.0070310002 0.0000000000 0.0825840011 1.0000000000
-0.0070449999 0.0000000000 0.0825920030 1.0000000000
-0.0070570000 0.0000000000 0.0826120004 1.0000000000
-0.0070710001 0.0000000000 0.0826269984 1.0000000000
-0.0070839999 0.0000000000 0.0826409981 1.0000000000
-0.0070960000 0.0000000000 0.0826490000 1.0000000000
-0.0071089999 0.0000000000 0.0826570019 1.0000000000
-0.0071230000 0.0000000000 0.0826719999 1.0000000000
-0.0071359999 0.0000000000 0.0826890022 1.0000000000
-0.0071490002 0.0000000000 0.0826969966 1.0000000000
-0.0071609998 0.0000000000 0.0827030018 1.0000000000
-0.0071749999 0.0000000000 0.0827229992 1.0000000000
-0.0071879998 0.0000000000 0.0827459991 1.0000000000
-0.0072019999 0.0000000000 0.0827519968 1.0000000000
-0.0072130002 0.0000000000 0.0827559978 1.0000000000
-0.0072269998 0.0000000000 0.0827599987 1.0000000000
-0.0072389999 0.0000000000 0.0827739984 1.0000000000
-0.0072519998 0.0000000000 0.0827879980 1.0000000000
-0.0072650001 0.0000000000 0.0827959999 1.0000000000
-0.0072780000 0.0000000000 0.0828080028 1.0000000000
-0.0072920001 0.0000000000 0.0828360021 1.0000000000
-0.0073050000 0.0000000000 0.0828519985 1.0000000000
-0.0073179998 0.0000000000 0.0828609988 1.0000000000
-0.0073320000 0.0000000000 0.0828759968 1.0000000000
-0.0073449998 0.0000000000 0.0828879997 1.0000000000
-0.0073569999 0.0000000000 0.0828960016 1.0000000000
-0.0073699998 0.0000000000 0.0828979984 1.0000000000
-0.0073819999 0.0000000000 0.0829060003 1.0000000000
-0.0073970002 0.0000000000 0.0829330012 1.0000000000
-0.0074100001 0.0000000000 0.0829550028 1.0000000000
-0.0074229999 0.0000000000 0.0829629973 1.0000000000
-0.0074370001 0.0000000000 0.0829719976 1.0000000000
-0.0074490001 0.0000000000 0.0829899982 1.0000000000
-0.0074629998 0.0000000000 0.0830029994 1.0000000000
-0.0074760001 0.0000000000 0.0830150023 1.0000000000
-0.0074890000 0.0000000000 0.0830269977 1.0000000000
-0.0075019998 0.0000000000 0.0830390006 1.0000000000
-0.0075160000 0.0000000000 0.0830510035 1.0000000000
-0.0075280000 0.0000000000 0.0830660015 1.0000000000
-0.0075420002 0.0000000000 0.0830750018 1.0000000000
-0.0075539998 0.0000000000 0.0830819979 1.0000000000
-0.0075670001 0.0000000000 0.0830909982 1.0000000000
-0.0075800000 0.0000000000 0.0831049979 1.0000000000
-0.0075929998 0.0000000000 0.0831170008 1.0000000000
-0.0076060002 0.0000000000 0.0831310004 1.0000000000
-0.0076190000 0.0000000000 0.0831440017 1.0000000000
-0.0076330001 0.0000000000 0.0831580013 1.0000000000
-0.0076460000 0.0000000000 0.0831710026 1.0000000000
-0.0076580001 0.0000000000 0.0831779987 1.0000000000
-0.0076720002 0.0000000000 0.0831839964 1.0000000000
-0.0076839998 0.0000000000 0.0831940025 1.0000000000
-0.0079809995 0.0000000000 0.0816539973 1.0000000000
-0.0079889996 0.0000000000 0.0816200003 1.0000000000
-0.0101450002 0.0000000000 0.0832109973 1.0000000000
-0.0101579996 0.0000000000 0.0832270011 1.0000000000
-0.0101690004 0.0000000000 0.0832059979 1.0000000000
-0.0101800002 0.0000000000 0.0832030028 1.0000000000
-0.0101929996 0.0000000000 0.0832009986 1.0000000000
-0.0102040004 0.0000000000 0.0831969976 1.0000000000
-0.0102159996 0.0000000000 0.0831909999 1.0000000000
-0.0102260001 0.0000000000 0.0831779987 1.0000000000
-0.0102359997 0.0000000000 0.0831599981 1.0000000000
-0.0102469996 0.0000000000 0.0831549987 1.0000000000
-0.0102589997 0.0000000000 0.0831499994 1.0000000000
-0.0102700004 0.0000000000 0.0831400007 1.0000000000
-0.0102819996 0.0000000000 0.0831300020 1.0000000000
-0.0102920001 0.0000000000 0.0831220001 1.0000000000
-0.0103040002 0.0000000000 0.0831099972 1.0000000000
-0.0103139998 0.0000000000 0.0830999985 1.0000000000
-0.0103259999 0.0000000000 0.0830930024 1.0000000000
-0.0103359995 0.0000000000 0.0830850005 1.0000000000
-0.0103470003 0.0000000000 0.0830729976 1.0000000000
-0.0103590004 0.0000000000 0.0830669999 1.0000000000
-0.0103700003 0.0000000000 0.0830629990 1.0000000000
-0.0103810001 0.0000000000 0.0830459967 1.0000000000
-0.0103909997 0.0000000000 0.0830240026 1.0000000000
-0.0104010003 0.0000000000 0.0830139965 1.0000000000
-0.0104130004 0.0000000000 0.0830110013 1.0000000000
-0.0104240002 0.0000000000 0.0829989985 1.0000000000
-0.0104339998 0.0000000000 0.0829859972 1.0000000000
-0.0104449997 0.0000000000 0.0829740018 1.0000000000
-0.0104560005 0.0000000000 0.0829659998 1.0000000000
-0.0104670003 0.0000000000 0.0829560012 1.0000000000
-0.0104790004 0.0000000000 0.0829489976 1.0000000000
-0.0104900002 0.0000000000 0.0829460025 1.0000000000
-0.0105020003 0.0000000000 0.0829359964 1.0000000000
-0.0105119999 0.0000000000 0.0829230025 1.0000000000
-0.0105229998 0.0000000000 0.0829090029 1.0000000000
-0.0105339997 0.0000000000 0.0829019994 1.0000000000
-0.0105459997 0.0000000000 0.0828939974 1.0000000000
-0.0105560003 0.0000000000 0.0828899965 1.0000000000
-0.0105670001 0.0000000000 0.0828789994 1.0000000000
-0.0105780000 0.0000000000 0.0828640014 1.0000000000
-0.0105900001 0.0000000000 0.0828559995 1.0000000000
-0.0105999997 0.0000000000 0.0828490034 1.0000000000
-0.0106119998 0.0000000000 0.0828410015 1.0000000000
-0.0106229996 0.0000000000 0.0828360021 1.0000000000
-0.0106340004 0.0000000000 0.0828270018 1.0000000000
-0.0106440000 0.0000000000 0.0828149989 1.0000000000
-0.0106549999 0.0000000000 0.0828019977 1.0000000000
-0.0106650004 0.0000000000 0.0827879980 1.0000000000
-0.0106760003 0.0000000000 0.0827749968 1.0000000000
-0.0106870001 0.0000000000 0.0827670023 1.0000000000
-0.0106980000 0.0000000000 0.0827580020 1.0000000000
-0.0107089998 0.0000000000 0.0827490017 1.0000000000
-0.0107209999 0.0000000000 0.0827419981 1.0000000000
-0.0107319998 0.0000000000 0.0827329978 1.0000000000
-0.0107420003 0.0000000000 0.0827220008 1.0000000000
-0.0107530002 0.0000000000 0.0827089995 1.0000000000
-0.0107640000 0.0000000000 0.0826990008 1.0000000000
-0.0107749999 0.0000000000 0.0826900005 1.0000000000
-0.0107869999 0.0000000000 0.0826819986 1.0000000000
-0.0107969996 0.0000000000 0.0826769993 1.0000000000
-0.0108089997 0.0000000000 0.0826639980 1.0000000000
-0.0108180000 0.0000000000 0.0826509967 1.0000000000
-0.0108300000 0.0000000000 0.0826390013 1.0000000000
-0.0108399997 0.0000000000 0.0826300010 1.0000000000
-0.0108510004 0.0000000000 0.0826160014 1.0000000000
-0.0108620003 0.0000000000 0.0826100037 1.0000000000
-0.0108730001 0.0000000000 0.0826030001 1.0000000000
-0.0108840000 0.0000000000 0.0825930014 1.0000000000
-0.0108949998 0.0000000000 0.0825830027 1.0000000000
-0.0109059997 0.0000000000 0.0825729966 1.0000000000
-0.0109169995 0.0000000000 0.0825629979 1.0000000000
-0.0109280003 0.0000000000 0.0825589970 1.0000000000
-0.0109400004 0.0000000000 0.0825529993 1.0000000000
-0.0109500000 0.0000000000 0.0825420022 1.0000000000
-0.0109609999 0.0000000000 0.0825259984 1.0000000000
-0.0109710004 0.0000000000 0.0825219974 1.0000000000
-0.0109839998 0.0000000000 0.0825209990 1.0000000000
-0.0109940004 0.0000000000 0.0825069994 1.0000000000
-0.0110040000 0.0000000000 0.0824860036 1.0000000000
-0.0110139996 0.0000000000 0.0824770033 1.0000000000
-0.0110259997 0.0000000000 0.0824740008 1.0000000000
-0.0110379998 0.0000000000 0.0824749991 1.0000000000
-0.0110499999 0.0000000000 0.0824740008 1.0000000000
-0.0110600004 0.0000000000 0.0824640021 1.0000000000
-0.0110700000 0.0000000000 0.0824479982 1.0000000000
-0.0110799996 0.0000000000 0.0824299976 1.0000000000
-0.0110900002 0.0000000000 0.0824050009 1.0000000000
-0.0111010000 0.0000000000 0.0824010000 1.0000000000
-0.0111130001 0.0000000000 0.0823990032 1.0000000000
-0.0111229997 0.0000000000 0.0823910013 1.0000000000
-0.0111349998 0.0000000000 0.0823789984 1.0000000000
-0.0111450003 0.0000000000 0.0823709965 1.0000000000
-0.0111570004 0.0000000000 0.0823630020 1.0000000000
-0.0111670000 0.0000000000 0.0823580027 1.0000000000
-0.0111790001 0.0000000000 0.0823469982 1.0000000000
-0.0111880004 0.0000000000 0.0823289976 1.0000000000
-0.0111990003 0.0000000000 0.0823189989 1.0000000000
-0.0112110004 0.0000000000 0.0823180005 1.0000000000
-0.0112229995 0.0000000000 0.0823130012 1.0000000000
-0.0112330001 0.0000000000 0.0823040009 1.0000000000
-0.0112429997 0.0000000000 0.0822929963 1.0000000000
-0.0112539995 0.0000000000 0.0822789967 1.0000000000
-0.0112640001 0.0000000000 0.0822660029 1.0000000000
-0.0112749999 0.0000000000 0.0822580010 1.0000000000
-0.0112859998 0.0000000000 0.0822490007 1.0000000000
-0.0112960003 0.0000000000 0.0822380036 1.0000000000
-0.0113080004 0.0000000000 0.0822239965 1.0000000000
-0.0113169998 0.0000000000 0.0822080001 1.0000000000
-0.0113279996 0.0000000000 0.0821919963 1.0000000000
-0.0113369999 0.0000000000 0.0821769983 1.0000000000
-0.0113479998 0.0000000000 0.0821650028 1.0000000000
-0.0113580003 0.0000000000 0.0821510032 1.0000000000
-0.0113679999 0.0000000000 0.0821330026 1.0000000000
-0.0113789998 0.0000000000 0.0821309984 1.0000000000
-0.0113920001 0.0000000000 0.0821319968 1.0000000000
-0.0114019997 0.0000000000 0.0821259990 1.0000000000
-0.0114139998 0.0000000000 0.0821209997 1.0000000000
-0.0114249997 0.0000000000 0.0821179971 1.0000000000
-0.0114359995 0.0000000000 0.0821119994 1.0000000000
-0.0114479996 0.0000000000 0.0821119994 1.0000000000
-0.0114599997 0.0000000000 0.0821129978 1.0000000000
-0.0114719998 0.0000000000 0.0821140036 1.0000000000
-0.0114850001 0.0000000000 0.0821169987 1.0000000000
-0.0114970002 0.0000000000 0.0821219981 1.0000000000
-0.0115090003 0.0000000000 0.0821209997 1.0000000000
-0.0115210004 0.0000000000 0.0821209997 1.0000000000
-0.0115339998 0.0000000000 0.0821280032 1.0000000000
-0.0115459999 0.0000000000 0.0821300000 1.0000000000
-0.0115569998 0.0000000000 0.0821269974 1.0000000000
-0.0115689998 0.0000000000 0.0821269974 1.0000000000
-0.0115799997 0.0000000000 0.0821219981 1.0000000000
-0.0115909996 0.0000000000 0.0821119994 1.0000000000
-0.0116029996 0.0000000000 0.0821119994 1.0000000000
-0.0116149997 0.0000000000 0.0821140036 1.0000000000
-0.0116269998 0.0000000000 0.0821140036 1.0000000000
-0.0116389999 0.0000000000 0.0821179971 1.0000000000
-0.0116520002 0.0000000000 0.0821160004 1.0000000000
-0.0116630001 0.0000000000 0.0821119994 1.0000000000
-0.0116760004 0.0000000000 0.0821150020 1.0000000000
-0.0116870003 0.0000000000 0.0821200013 1.0000000000
-0.0116990004 0.0000000000 0.0821190029 1.0000000000
-0.0117110005 0.0000000000 0.0821209997 1.0000000000
-0.0117229996 0.0000000000 0.0821219981 1.0000000000
-0.0117360000 0.0000000000 0.0821250007 1.0000000000
-0.0117480000 0.0000000000 0.0821319968 1.0000000000
-0.0117600001 0.0000000000 0.0821280032 1.0000000000
-0.0117710000 0.0000000000 0.0821229964 1.0000000000
-0.0117830001 0.0000000000 0.0821229964 1.0000000000
-0.0117960004 0.0000000000 0.0821250007 1.0000000000
-0.0118070003 0.0000000000 0.0821240023 1.0000000000
-0.0118190004 0.0000000000 0.0821229964 1.0000000000
-0.0118300002 0.0000000000 0.0821190029 1.0000000000
-0.0118420003 0.0000000000 0.0821150020 1.0000000000
-0.0118540004 0.0000000000 0.0821209997 1.0000000000
-0.0118659995 0.0000000000 0.0821219981 1.0000000000
-0.0118779996 0.0000000000 0.0821200013 1.0000000000
-0.0118910000 0.0000000000 0.0821240023 1.0000000000
-0.0119030001 0.0000000000 0.0821319968 1.0000000000
-0.0119160004 0.0000000000 0.0821330026 1.0000000000
-0.0119270002 0.0000000000 0.0821319968 1.0000000000
-0.0119390003 0.0000000000 0.0821280032 1.0000000000
-0.0119510004 0.0000000000 0.0821330026 1.0000000000
-0.0119629996 0.0000000000 0.0821309984 1.0000000000
-0.0119740004 0.0000000000 0.0821269974 1.0000000000
-0.0119869998 0.0000000000 0.0821280032 1.0000000000
-0.0119979996 0.0000000000 0.0821290016 1.0000000000
-0.0120090004 0.0000000000 0.0821229964 1.0000000000
-0.0120209996 0.0000000000 0.0821219981 1.0000000000
-0.0120339999 0.0000000000 0.0821300000 1.0000000000
-0.0120470002 0.0000000000 0.0821409971 1.0000000000
-0.0120590003 0.0000000000 0.0821399987 1.0000000000
-0.0120700002 0.0000000000 0.0821319968 1.0000000000
-0.0120820003 0.0000000000 0.0821280032 1.0000000000
-0.0120930001 0.0000000000 0.0821300000 1.0000000000
-0.0121050002 0.0000000000 0.0821309984 1.0000000000
-0.0121179996 0.0000000000 0.0821349993 1.0000000000
-0.0121309999 0.0000000000 0.0821430013 1.0000000000
-0.0121430000 0.0000000000 0.0821449980 1.0000000000
-0.0121539999 0.0000000000 0.0821390003 1.0000000000
-0.0121649997 0.0000000000 0.0821330026 1.0000000000
-0.0121769998 0.0000000000 0.0821319968 1.0000000000
-0.0121889999 0.0000000000 0.0821330026 1.0000000000
-0.0122010000 0.0000000000 0.0821319968 1.0000000000
-0.0122119999 0.0000000000 0.0821300000 1.0000000000
-0.0122250002 0.0000000000 0.0821340010 1.0000000000
-0.0122370003 0.0000000000 0.0821340010 1.0000000000
-0.0122480001 0.0000000000 0.0821330026 1.0000000000
-0.0122610005 0.0000000000 0.0821340010 1.0000000000
-0.0122720003 0.0000000000 0.0821330026 1.0000000000
-0.0122840004 0.0000000000 0.0821300000 1.0000000000
-0.0122959996 0.0000000000 0.0821340010 1.0000000000
-0.0123079997 0.0000000000 0.0821370035 1.0000000000
-0.0123210000 0.0000000000 0.0821349993 1.0000000000
