VERSION 0.7
FIELDS x y z intensity
SIZE 4 4 4 4
TYPE F F F F
COUNT 1 1 1 1
WIDTH 1321
HEIGHT 1
VIEWPOINT 0.0 0.0 0.0 1.0 0.0 0.0 0.0
POINTS 1321
DATA ascii
0.0121600004 0.0000000000 0.0816169977 1.0000000000
0.0121470001 0.0000000000 0.0816169977 1.0000000000
0.0121379998 0.0000000000 0.0816280022 1.0000000000
0.0121250004 0.0000000000 0.0816299990 1.0000000000
0.0121139996 0.0000000000 0.0816249996 1.0000000000
0.0121010002 0.0000000000 0.0816209987 1.0000000000
0.0120900003 0.0000000000 0.0816230029 1.0000000000
0.0120759998 0.0000000000 0.0816209987 1.0000000000
0.0120660001 0.0000000000 0.0816230029 1.0000000000
0.0120529998 0.0000000000 0.0816219971 1.0000000000
0.0120420000 0.0000000000 0.0816209987 1.0000000000
0.0120320003 0.0000000000 0.0816299990 1.0000000000
0.0120209996 0.0000000000 0.0816399977 1.0000000000
0.0120090004 0.0000000000 0.0816380009 1.0000000000
0.0119970003 0.0000000000 0.0816359967 1.0000000000
0.0119850002 0.0000000000 0.0816380009 1.0000000000
0.0119740004 0.0000000000 0.0816410035 1.0000000000
0.0119620003 0.0000000000 0.0816380009 1.0000000000
0.0119489999 0.0000000000 0.0816309974 1.0000000000
0.0119359996 0.0000000000 0.0816309974 1.0000000000
0.0119260000 0.0000000000 0.0816320032 1.0000000000
0.0119129997 0.0000000000 0.0816280022 1.0000000000
0.0119019998 0.0000000000 0.0816299990 1.0000000000
0.0118910000 0.0000000000 0.0816349983 1.0000000000
0.0118789999 0.0000000000 0.0816349983 1.0000000000
0.0118669998 0.0000000000 0.0816359967 1.0000000000
0.0118549997 0.0000000000 0.0816339999 1.0000000000
0.0118429996 0.0000000000 0.0816290006 1.0000000000
0.0118310004 0.0000000000 0.0816309974 1.0000000000
0.0118190004 0.0000000000 0.0816380009 1.0000000000
0.0118089998 0.0000000000 0.0816449970 1.0000000000
0.0117969997 0.0000000000 0.0816430002 1.0000000000
0.0117849996 0.0000000000 0.0816389993 1.0000000000
0.0117729995 0.0000000000 0.0816370025 1.0000000000
0.0117610004 0.0000000000 0.0816339999 1.0000000000
0.0117469998 0.0000000000 0.0816280022 1.0000000000
0.0117370002 0.0000000000 0.0816299990 1.0000000000
0.0117229996 0.0000000000 0.0816290006 1.0000000000
0.0117130000 0.0000000000 0.0816259980 1.0000000000
0.0117009999 0.0000000000 0.0816290006 1.0000000000
0.0116900001 0.0000000000 0.0816370025 1.0000000000
0.0116790002 0.0000000000 0.0816420019 1.0000000000
0.0116670001 0.0000000000 0.0816359967 1.0000000000
0.0116529996 0.0000000000 0.0816290006 1.0000000000
0.0116429999 0.0000000000 0.0816349983 1.0000000000
0.0116299996 0.0000000000 0.0816380009 1.0000000000
0.0116200000 0.0000000000 0.0816410035 1.0000000000
0.0116079999 0.0000000000 0.0816420019 1.0000000000
0.0115959998 0.0000000000 0.0816410035 1.0000000000
0.0115830004 0.0000000000 0.0816380009 1.0000000000
0.0115719996 0.0000000000 0.0816339999 1.0000000000
0.0115599995 0.0000000000 0.0816339999 1.0000000000
0.0115489997 0.0000000000 0.0816380009 1.0000000000
0.0115360003 0.0000000000 0.0816359967 1.0000000000
0.0115240002 0.0000000000 0.0816320032 1.0000000000
0.0115120001 0.0000000000 0.0816269964 1.0000000000
0.0115000000 0.0000000000 0.0816290006 1.0000000000
0.0114890002 0.0000000000 0.0816330016 1.0000000000
0.0114770001 0.0000000000 0.0816320032 1.0000000000
0.0114639997 0.0000000000 0.0816309974 1.0000000000
0.0114540001 0.0000000000 0.0816320032 1.0000000000
0.0114399996 0.0000000000 0.0816299990 1.0000000000
0.0114300000 0.0000000000 0.0816320032 1.0000000000
0.0114190001 0.0000000000 0.0816359967 1.0000000000
0.0114080003 0.0000000000 0.0816410035 1.0000000000
0.0113949999 0.0000000000 0.0816439986 1.0000000000
0.0113840001 0.0000000000 0.0816439986 1.0000000000
0.0113720000 0.0000000000 0.0816439986 1.0000000000
0.0113599999 0.0000000000 0.0816430002 1.0000000000
0.0113469996 0.0000000000 0.0816370025 1.0000000000
0.0113369999 0.0000000000 0.0816399977 1.0000000000
0.0113260001 0.0000000000 0.0816499963 1.0000000000
0.0113159996 0.0000000000 0.0816610008 1.0000000000
0.0113040004 0.0000000000 0.0816679969 1.0000000000
0.0112929996 0.0000000000 0.0816719979 1.0000000000
0.0112810005 0.0000000000 0.0816780031 1.0000000000
0.0112720001 0.0000000000 0.0816899985 1.0000000000
0.0112610003 0.0000000000 0.0817020014 1.0000000000
0.0112520000 0.0000000000 0.0817190036 1.0000000000
0.0112420004 0.0000000000 0.0817359984 1.0000000000
0.0112309996 0.0000000000 0.0817449987 1.0000000000
0.0112180002 0.0000000000 0.0817470029 1.0000000000
0.0112079997 0.0000000000 0.0817509964 1.0000000000
0.0111969998 0.0000000000 0.0817539990 1.0000000000
0.0111849997 0.0000000000 0.0817549974 1.0000000000
0.0111729996 0.0000000000 0.0817660019 1.0000000000
0.0111649996 0.0000000000 0.0817869976 1.0000000000
0.0111539997 0.0000000000 0.0817969963 1.0000000000
0.0111429999 0.0000000000 0.0818030015 1.0000000000
0.0111320000 0.0000000000 0.0818170011 1.0000000000
0.0111240000 0.0000000000 0.0818350017 1.0000000000
0.0111130001 0.0000000000 0.0818459988 1.0000000000
0.0111029996 0.0000000000 0.0818590000 1.0000000000
0.0110919997 0.0000000000 0.0818720013 1.0000000000
0.0110820001 0.0000000000 0.0818800032 1.0000000000
0.0110700000 0.0000000000 0.0818900019 1.0000000000
0.0110609997 0.0000000000 0.0819040015 1.0000000000
0.0110499999 0.0000000000 0.0819149986 1.0000000000
0.0110400002 0.0000000000 0.0819249973 1.0000000000
0.0110280002 0.0000000000 0.0819339976 1.0000000000
0.0110179996 0.0000000000 0.0819450021 1.0000000000
0.0110069998 0.0000000000 0.0819490030 1.0000000000
0.0109959999 0.0000000000 0.0819519982 1.0000000000
0.0109850001 0.0000000000 0.0819630027 1.0000000000
0.0109750004 0.0000000000 0.0819789991 1.0000000000
0.0109639997 0.0000000000 0.0819839984 1.0000000000
0.0109519996 0.0000000000 0.0819879994 1.0000000000
0.0109400004 0.0000000000 0.0819950029 1.0000000000
0.0109310001 0.0000000000 0.0820050016 1.0000000000
0.0109190000 0.0000000000 0.0820199996 1.0000000000
0.0109110000 0.0000000000 0.0820380002 1.0000000000
0.0109010004 0.0000000000 0.0820510015 1.0000000000
0.0108899996 0.0000000000 0.0820610002 1.0000000000
0.0108789997 0.0000000000 0.0820680037 1.0000000000
0.0108679999 0.0000000000 0.0820769966 1.0000000000
0.0108559998 0.0000000000 0.0820859969 1.0000000000
0.0108470004 0.0000000000 0.0820970014 1.0000000000
0.0108359996 0.0000000000 0.0821029991 1.0000000000
0.0108249998 0.0000000000 0.0821129978 1.0000000000
0.0108129997 0.0000000000 0.0821209997 1.0000000000
0.0108030001 0.0000000000 0.0821300000 1.0000000000
0.0107910000 0.0000000000 0.0821420029 1.0000000000
0.0107819997 0.0000000000 0.0821560025 1.0000000000
0.0107699996 0.0000000000 0.0821639970 1.0000000000
0.0107610002 0.0000000000 0.0821779966 1.0000000000
0.0107500004 0.0000000000 0.0821909979 1.0000000000
0.0107399998 0.0000000000 0.0821970031 1.0000000000
0.0107290000 0.0000000000 0.0822070017 1.0000000000
0.0107190004 0.0000000000 0.0822219998 1.0000000000
0.0107070003 0.0000000000 0.0822290033 1.0000000000
0.0106969997 0.0000000000 0.0822409987 1.0000000000
0.0106849996 0.0000000000 0.0822509974 1.0000000000
0.0106739998 0.0000000000 0.0822480023 1.0000000000
0.0106619997 0.0000000000 0.0822490007 1.0000000000
0.0106509998 0.0000000000 0.0822620019 1.0000000000
0.0106389998 0.0000000000 0.0822679996 1.0000000000
0.0106300004 0.0000000000 0.0822819993 1.0000000000
0.0106199998 0.0000000000 0.0822980031 1.0000000000
0.0106090000 0.0000000000 0.0823059976 1.0000000000
0.0105980001 0.0000000000 0.0823149979 1.0000000000
0.0105870003 0.0000000000 0.0823260024 1.0000000000
0.0105769997 0.0000000000 0.0823419988 1.0000000000
0.0105659999 0.0000000000 0.0823540017 1.0000000000
0.0105529996 0.0000000000 0.0823550001 1.0000000000
0.0105430000 0.0000000000 0.0823559985 1.0000000000
0.0105299996 0.0000000000 0.0823620036 1.0000000000
0.0105200000 0.0000000000 0.0823709965 1.0000000000
0.0105090002 0.0000000000 0.0823780000 1.0000000000
0.0104989996 0.0000000000 0.0823929980 1.0000000000
0.0104890000 0.0000000000 0.0824109986 1.0000000000
0.0104780002 0.0000000000 0.0824220031 1.0000000000
0.0104670003 0.0000000000 0.0824289992 1.0000000000
0.0104569998 0.0000000000 0.0824420005 1.0000000000
0.0104459999 0.0000000000 0.0824529976 1.0000000000
0.0104339998 0.0000000000 0.0824569985 1.0000000000
0.0104219997 0.0000000000 0.0824680030 1.0000000000
0.0104130004 0.0000000000 0.0824790001 1.0000000000
0.0104000000 0.0000000000 0.0824849978 1.0000000000
0.0103909997 0.0000000000 0.0824979991 1.0000000000
0.0103789996 0.0000000000 0.0825090036 1.0000000000
0.0103690000 0.0000000000 0.0825159997 1.0000000000
0.0103580002 0.0000000000 0.0825230032 1.0000000000
0.0103470003 0.0000000000 0.0825340003 1.0000000000
0.0103359995 0.0000000000 0.0825430006 1.0000000000
0.0103259999 0.0000000000 0.0825619996 1.0000000000
0.0103160003 0.0000000000 0.0825780034 1.0000000000
0.0103049995 0.0000000000 0.0825830027 1.0000000000
0.0102920001 0.0000000000 0.0825859979 1.0000000000
0.0102819996 0.0000000000 0.0825920030 1.0000000000
0.0102709997 0.0000000000 0.0826010033 1.0000000000
0.0102599999 0.0000000000 0.0826089978 1.0000000000
0.0102479998 0.0000000000 0.0826200023 1.0000000000
0.0102390004 0.0000000000 0.0826440006 1.0000000000
0.0102270003 0.0000000000 0.0826549977 1.0000000000
0.0102169998 0.0000000000 0.0826620013 1.0000000000
0.0102049997 0.0000000000 0.0826729983 1.0000000000
0.0101960003 0.0000000000 0.0826829970 1.0000000000
0.0101840002 0.0000000000 0.0826869980 1.0000000000
0.0101720002 0.0000000000 0.0826859996 1.0000000000
0.0101600001 0.0000000000 0.0826890022 1.0000000000
0.0101520000 0.0000000000 0.0827210024 1.0000000000
0.0101399999 0.0000000000 0.0827250034 1.0000000000
0.0079210000 0.0000000000 0.0827789977 1.0000000000
0.0079070004 0.0000000000 0.0827670023 1.0000000000
0.0078950003 0.0000000000 0.0827530026 1.0000000000
0.0078819999 0.0000000000 0.0827440023 1.0000000000
0.0078699999 0.0000000000 0.0827419981 1.0000000000
0.0078560002 0.0000000000 0.0827360004 1.0000000000
0.0078450004 0.0000000000 0.0827310011 1.0000000000
0.0078320000 0.0000000000 0.0827250034 1.0000000000
0.0078189997 0.0000000000 0.0827120021 1.0000000000
0.0078050001 0.0000000000 0.0826919973 1.0000000000
0.0077920002 0.0000000000 0.0826790035 1.0000000000
0.0077780001 0.0000000000 0.0826670006 1.0000000000
0.0077660000 0.0000000000 0.0826599970 1.0000000000
0.0077530001 0.0000000000 0.0826520026 1.0000000000
0.0077410000 0.0000000000 0.0826419964 1.0000000000
0.0077269999 0.0000000000 0.0826210007 1.0000000000
0.0077140001 0.0000000000 0.0826039985 1.0000000000
0.0077010002 0.0000000000 0.0826010033 1.0000000000
0.0076890001 0.0000000000 0.0825920030 1.0000000000
0.0076740002 0.0000000000 0.0825780034 1.0000000000
0.0076629999 0.0000000000 0.0825750008 1.0000000000
0.0076489998 0.0000000000 0.0825650021 1.0000000000
0.0076370002 0.0000000000 0.0825520009 1.0000000000
0.0076239998 0.0000000000 0.0825349987 1.0000000000
0.0076110000 0.0000000000 0.0825209990 1.0000000000
0.0075969999 0.0000000000 0.0825110003 1.0000000000
0.0075849998 0.0000000000 0.0825039968 1.0000000000
0.0075710001 0.0000000000 0.0824920014 1.0000000000
0.0075599998 0.0000000000 0.0824839994 1.0000000000
0.0075460002 0.0000000000 0.0824780017 1.0000000000
0.0075340001 0.0000000000 0.0824650005 1.0000000000
0.0075200000 0.0000000000 0.0824460015 1.0000000000
0.0075079999 0.0000000000 0.0824360028 1.0000000000
0.0074939998 0.0000000000 0.0824239999 1.0000000000
0.0074809999 0.0000000000 0.0824080035 1.0000000000
0.0074689998 0.0000000000 0.0824029967 1.0000000000
0.0074560000 0.0000000000 0.0823969990 1.0000000000
0.0074430001 0.0000000000 0.0823889971 1.0000000000
0.0074310000 0.0000000000 0.0823839977 1.0000000000
0.0074180001 0.0000000000 0.0823670030 1.0000000000
0.0074049998 0.0000000000 0.0823490024 1.0000000000
0.0073899999 0.0000000000 0.0823369995 1.0000000000
0.0073790001 0.0000000000 0.0823350027 1.0000000000
0.0073670000 0.0000000000 0.0823310018 1.0000000000
0.0073549999 0.0000000000 0.0823260024 1.0000000000
0.0073409998 0.0000000000 0.0823180005 1.0000000000
0.0073290002 0.0000000000 0.0823109969 1.0000000000
0.0073150001 0.0000000000 0.0822999999 1.0000000000
0.0073030000 0.0000000000 0.0822869986 1.0000000000
0.0072889999 0.0000000000 0.0822689980 1.0000000000
0.0072770002 0.0000000000 0.0822580010 1.0000000000
0.0072639999 0.0000000000 0.0822440013 1.0000000000
0.0072499998 0.0000000000 0.0822260007 1.0000000000
0.0072360002 0.0000000000 0.0822060034 1.0000000000
0.0072240001 0.0000000000 0.0821919963 1.0000000000
0.0072100000 0.0000000000 0.0821800008 1.0000000000
0.0071979999 0.0000000000 0.0821750015 1.0000000000
0.0071859998 0.0000000000 0.0821669996 1.0000000000
0.0071720001 0.0000000000 0.0821510032 1.0000000000
0.0071589998 0.0000000000 0.0821399987 1.0000000000
0.0071470002 0.0000000000 0.0821370035 1.0000000000
0.0071339998 0.0000000000 0.0821259990 1.0000000000
0.0071210000 0.0000000000 0.0821119994 1.0000000000
0.0071080001 0.0000000000 0.0821079984 1.0000000000
0.0070969998 0.0000000000 0.0821119994 1.0000000000
0.0070839999 0.0000000000 0.0820989981 1.0000000000
0.0070699998 0.0000000000 0.0820790008 1.0000000000
0.0070570000 0.0000000000 0.0820619985 1.0000000000
0.0070440001 0.0000000000 0.0820500031 1.0000000000
0.0070310002 0.0000000000 0.0820420012 1.0000000000
0.0070190001 0.0000000000 0.0820370018 1.0000000000
0.0070070000 0.0000000000 0.0820289999 1.0000000000
0.0069940002 0.0000000000 0.0820150003 1.0000000000
0.0069789998 0.0000000000 0.0820000023 1.0000000000
0.0069680000 0.0000000000 0.0819900036 1.0000000000
0.0069550001 0.0000000000 0.0819759965 1.0000000000
0.0069419998 0.0000000000 0.0819640011 1.0000000000
0.0069280001 0.0000000000 0.0819550008 1.0000000000
0.0069160000 0.0000000000 0.0819440037 1.0000000000
0.0069030002 0.0000000000 0.0819270015 1.0000000000
0.0068899998 0.0000000000 0.0819149986 1.0000000000
0.0068770000 0.0000000000 0.0819069967 1.0000000000
0.0068649999 0.0000000000 0.0818969980 1.0000000000
0.0068520000 0.0000000000 0.0818900019 1.0000000000
0.0068399999 0.0000000000 0.0818839967 1.0000000000
0.0068259998 0.0000000000 0.0818760023 1.0000000000
0.0068150000 0.0000000000 0.0818689987 1.0000000000
0.0068020001 0.0000000000 0.0818559974 1.0000000000
0.0067889998 0.0000000000 0.0818409994 1.0000000000
0.0067759999 0.0000000000 0.0818289965 1.0000000000
0.0067630000 0.0000000000 0.0818200037 1.0000000000
0.0067500002 0.0000000000 0.0818059966 1.0000000000
0.0067369998 0.0000000000 0.0817940012 1.0000000000
0.0067230002 0.0000000000 0.0817819983 1.0000000000
0.0067119999 0.0000000000 0.0817679986 1.0000000000
0.0066990000 0.0000000000 0.0817589983 1.0000000000
0.0066860002 0.0000000000 0.0817489997 1.0000000000
0.0066740001 0.0000000000 0.0817420036 1.0000000000
0.0066620000 0.0000000000 0.0817440003 1.0000000000
0.0066490001 0.0000000000 0.0817369968 1.0000000000
0.0066370000 0.0000000000 0.0817250013 1.0000000000
0.0066229999 0.0000000000 0.0817240030 1.0000000000
0.0066129998 0.0000000000 0.0817279965 1.0000000000
0.0066000000 0.0000000000 0.0817240030 1.0000000000
0.0065879999 0.0000000000 0.0817179978 1.0000000000
0.0065750000 0.0000000000 0.0817139968 1.0000000000
0.0065640002 0.0000000000 0.0817139968 1.0000000000
0.0065529998 0.0000000000 0.0817200020 1.0000000000
0.0065410002 0.0000000000 0.0817240030 1.0000000000
0.0065290001 0.0000000000 0.0817250013 1.0000000000
0.0065170000 0.0000000000 0.0817279965 1.0000000000
0.0065049999 0.0000000000 0.0817259997 1.0000000000
0.0064929998 0.0000000000 0.0817259997 1.0000000000
0.0064800000 0.0000000000 0.0817279965 1.0000000000
0.0064690001 0.0000000000 0.0817269981 1.0000000000
0.0064570000 0.0000000000 0.0817200020 1.0000000000
0.0064449999 0.0000000000 0.0817179978 1.0000000000
0.0064320001 0.0000000000 0.0817200020 1.0000000000
0.0064210002 0.0000000000 0.0817240030 1.0000000000
0.0064079999 0.0000000000 0.0817229971 1.0000000000
0.0063970000 0.0000000000 0.0817179978 1.0000000000
0.0063829999 0.0000000000 0.0817139968 1.0000000000
0.0063729999 0.0000000000 0.0817169994 1.0000000000
0.0063600000 0.0000000000 0.0817219988 1.0000000000
0.0063490001 0.0000000000 0.0817210004 1.0000000000
0.0063359998 0.0000000000 0.0817139968 1.0000000000
0.0063250000 0.0000000000 0.0817120001 1.0000000000
0.0063129999 0.0000000000 0.0817089975 1.0000000000
0.0063009998 0.0000000000 0.0817120001 1.0000000000
0.0062879999 0.0000000000 0.0817129984 1.0000000000
0.0062770001 0.0000000000 0.0817139968 1.0000000000
0.0062650000 0.0000000000 0.0817190036 1.0000000000
0.0062540001 0.0000000000 0.0817219988 1.0000000000
0.0062400000 0.0000000000 0.0817219988 1.0000000000
0.0062299999 0.0000000000 0.0817240030 1.0000000000
0.0062159998 0.0000000000 0.0817210004 1.0000000000
0.0062050000 0.0000000000 0.0817169994 1.0000000000
0.0061920001 0.0000000000 0.0817179978 1.0000000000
0.0061820000 0.0000000000 0.0817250013 1.0000000000
0.0061690002 0.0000000000 0.0817279965 1.0000000000
0.0061579999 0.0000000000 0.0817309991 1.0000000000
0.0061450000 0.0000000000 0.0817279965 1.0000000000
0.0061340001 0.0000000000 0.0817250013 1.0000000000
0.0061209998 0.0000000000 0.0817219988 1.0000000000
0.0061100000 0.0000000000 0.0817210004 1.0000000000
0.0060970001 0.0000000000 0.0817210004 1.0000000000
0.0060859998 0.0000000000 0.0817250013 1.0000000000
0.0060729999 0.0000000000 0.0817279965 1.0000000000
0.0060629998 0.0000000000 0.0817319974 1.0000000000
0.0060490002 0.0000000000 0.0817279965 1.0000000000
0.0060379999 0.0000000000 0.0817300007 1.0000000000
0.0060259998 0.0000000000 0.0817390010 1.0000000000
0.0060149999 0.0000000000 0.0817359984 1.0000000000
0.0060009998 0.0000000000 0.0817279965 1.0000000000
0.0059910002 0.0000000000 0.0817309991 1.0000000000
0.0059770001 0.0000000000 0.0817290023 1.0000000000
0.0059659998 0.0000000000 0.0817300007 1.0000000000
0.0059549999 0.0000000000 0.0817330033 1.0000000000
0.0059429999 0.0000000000 0.0817319974 1.0000000000
0.0059290002 0.0000000000 0.0817269981 1.0000000000
0.0059179999 0.0000000000 0.0817279965 1.0000000000
0.0059050000 0.0000000000 0.0817279965 1.0000000000
0.0058940002 0.0000000000 0.0817259997 1.0000000000
0.0058820001 0.0000000000 0.0817250013 1.0000000000
0.0058700000 0.0000000000 0.0817240030 1.0000000000
0.0058570001 0.0000000000 0.0817219988 1.0000000000
0.0058459998 0.0000000000 0.0817210004 1.0000000000
0.0058340002 0.0000000000 0.0817229971 1.0000000000
0.0058220001 0.0000000000 0.0817279965 1.0000000000
0.0058090002 0.0000000000 0.0817279965 1.0000000000
0.0057979999 0.0000000000 0.0817250013 1.0000000000
0.0057850000 0.0000000000 0.0817219988 1.0000000000
0.0057730000 0.0000000000 0.0817150027 1.0000000000
0.0057600001 0.0000000000 0.0817120001 1.0000000000
0.0057500000 0.0000000000 0.0817179978 1.0000000000
0.0057379999 0.0000000000 0.0817229971 1.0000000000
0.0057259998 0.0000000000 0.0817190036 1.0000000000
0.0057120002 0.0000000000 0.0817029998 1.0000000000
0.0057000001 0.0000000000 0.0816949978 1.0000000000
0.0056880000 0.0000000000 0.0816989988 1.0000000000
0.0056770002 0.0000000000 0.0817029998 1.0000000000
0.0056650001 0.0000000000 0.0817070007 1.0000000000
0.0056530000 0.0000000000 0.0817079991 1.0000000000
0.0056389999 0.0000000000 0.0816999972 1.0000000000
0.0056280000 0.0000000000 0.0816939995 1.0000000000
0.0056159999 0.0000000000 0.0816890001 1.0000000000
0.0056039998 0.0000000000 0.0816920027 1.0000000000
0.0055920002 0.0000000000 0.0816999972 1.0000000000
0.0055809999 0.0000000000 0.0817070007 1.0000000000
0.0055689998 0.0000000000 0.0817070007 1.0000000000
0.0055559999 0.0000000000 0.0817020014 1.0000000000
0.0055430001 0.0000000000 0.0816999972 1.0000000000
0.0055340002 0.0000000000 0.0817190036 1.0000000000
0.0055209999 0.0000000000 0.0817259997 1.0000000000
0.0055100000 0.0000000000 0.0817259997 1.0000000000
0.0054970002 0.0000000000 0.0817269981 1.0000000000
0.0054859999 0.0000000000 0.0817210004 1.0000000000
0.0054720002 0.0000000000 0.0817200020 1.0000000000
0.0054620001 0.0000000000 0.0817300007 1.0000000000
0.0054489998 0.0000000000 0.0817340016 1.0000000000
0.0054380000 0.0000000000 0.0817340016 1.0000000000
0.0054259999 0.0000000000 0.0817330033 1.0000000000
0.0054139998 0.0000000000 0.0817309991 1.0000000000
0.0054020002 0.0000000000 0.0817309991 1.0000000000
0.0053900001 0.0000000000 0.0817350000 1.0000000000
0.0053790002 0.0000000000 0.0817409977 1.0000000000
0.0053670001 0.0000000000 0.0817430019 1.0000000000
0.0053539998 0.0000000000 0.0817420036 1.0000000000
0.0053429999 0.0000000000 0.0817409977 1.0000000000
0.0053309998 0.0000000000 0.0817399994 1.0000000000
0.0053190002 0.0000000000 0.0817420036 1.0000000000
0.0053059999 0.0000000000 0.0817430019 1.0000000000
0.0052950000 0.0000000000 0.0817440003 1.0000000000
0.0052820002 0.0000000000 0.0817449987 1.0000000000
0.0052709999 0.0000000000 0.0817480013 1.0000000000
0.0052590002 0.0000000000 0.0817509964 1.0000000000
0.0052470001 0.0000000000 0.0817539990 1.0000000000
0.0052339998 0.0000000000 0.0817499980 1.0000000000
0.0052230000 0.0000000000 0.0817509964 1.0000000000
0.0052100001 0.0000000000 0.0817530006 1.0000000000
0.0051989998 0.0000000000 0.0817499980 1.0000000000
0.0051870001 0.0000000000 0.0817499980 1.0000000000
0.0051750001 0.0000000000 0.0817560032 1.0000000000
0.0051620002 0.0000000000 0.0817509964 1.0000000000
0.0051509999 0.0000000000 0.0817489997 1.0000000000
0.0051389998 0.0000000000 0.0817489997 1.0000000000
0.0051270002 0.0000000000 0.0817449987 1.0000000000
0.0051150001 0.0000000000 0.0817470029 1.0000000000
0.0051030000 0.0000000000 0.0817489997 1.0000000000
0.0050909999 0.0000000000 0.0817470029 1.0000000000
0.0050789998 0.0000000000 0.0817499980 1.0000000000
0.0050670002 0.0000000000 0.0817499980 1.0000000000
0.0050550001 0.0000000000 0.0817430019 1.0000000000
0.0050420002 0.0000000000 0.0817409977 1.0000000000
0.0050309999 0.0000000000 0.0817459971 1.0000000000
0.0050180000 0.0000000000 0.0817499980 1.0000000000
0.0050070002 0.0000000000 0.0817539990 1.0000000000
0.0049939998 0.0000000000 0.0817509964 1.0000000000
0.0049830000 0.0000000000 0.0817420036 1.0000000000
0.0049689999 0.0000000000 0.0817319974 1.0000000000
0.0049580000 0.0000000000 0.0817350000 1.0000000000
0.0049459999 0.0000000000 0.0817380026 1.0000000000
0.0049350001 0.0000000000 0.0817449987 1.0000000000
0.0049220002 0.0000000000 0.0817489997 1.0000000000
0.0049109999 0.0000000000 0.0817470029 1.0000000000
0.0048969998 0.0000000000 0.0817420036 1.0000000000
0.0048860000 0.0000000000 0.0817399994 1.0000000000
0.0048739999 0.0000000000 0.0817380026 1.0000000000
0.0048619998 0.0000000000 0.0817409977 1.0000000000
0.0048489999 0.0000000000 0.0817430019 1.0000000000
0.0048389998 0.0000000000 0.0817449987 1.0000000000
0.0048270002 0.0000000000 0.0817459971 1.0000000000
0.0048150001 0.0000000000 0.0817449987 1.0000000000
0.0048030000 0.0000000000 0.0817489997 1.0000000000
0.0047909999 0.0000000000 0.0817560032 1.0000000000
0.0047780001 0.0000000000 0.0817530006 1.0000000000
0.0047670002 0.0000000000 0.0817459971 1.0000000000
0.0047530001 0.0000000000 0.0817440003 1.0000000000
0.0047430000 0.0000000000 0.0817470029 1.0000000000
0.0047309999 0.0000000000 0.0817459971 1.0000000000
0.0047189998 0.0000000000 0.0817459971 1.0000000000
0.0047070002 0.0000000000 0.0817470029 1.0000000000
0.0046950001 0.0000000000 0.0817459971 1.0000000000
0.0046830000 0.0000000000 0.0817470029 1.0000000000
0.0046700002 0.0000000000 0.0817459971 1.0000000000
0.0046589999 0.0000000000 0.0817480013 1.0000000000
0.0046470002 0.0000000000 0.0817560032 1.0000000000
0.0046339999 0.0000000000 0.0817599967 1.0000000000
0.0046230000 0.0000000000 0.0817589983 1.0000000000
0.0046110000 0.0000000000 0.0817560032 1.0000000000
0.0045989999 0.0000000000 0.0817560032 1.0000000000
0.0045869998 0.0000000000 0.0817539990 1.0000000000
0.0045750001 0.0000000000 0.0817509964 1.0000000000
0.0045630001 0.0000000000 0.0817489997 1.0000000000
0.0045510000 0.0000000000 0.0817489997 1.0000000000
0.0045369999 0.0000000000 0.0817509964 1.0000000000
0.0045269998 0.0000000000 0.0817509964 1.0000000000
0.0045130001 0.0000000000 0.0817509964 1.0000000000
0.0045019998 0.0000000000 0.0817520022 1.0000000000
0.0044900002 0.0000000000 0.0817539990 1.0000000000
0.0044780001 0.0000000000 0.0817520022 1.0000000000
0.0044649998 0.0000000000 0.0817489997 1.0000000000
0.0044539999 0.0000000000 0.0817539990 1.0000000000
0.0044410001 0.0000000000 0.0817509964 1.0000000000
0.0044300002 0.0000000000 0.0817480013 1.0000000000
0.0044180001 0.0000000000 0.0817449987 1.0000000000
0.0044060000 0.0000000000 0.0817489997 1.0000000000
0.0043930002 0.0000000000 0.0817570016 1.0000000000
0.0043819998 0.0000000000 0.0817570016 1.0000000000
0.0043690000 0.0000000000 0.0817509964 1.0000000000
0.0043580001 0.0000000000 0.0817489997 1.0000000000
0.0043449998 0.0000000000 0.0817499980 1.0000000000
0.0043339999 0.0000000000 0.0817560032 1.0000000000
0.0043219998 0.0000000000 0.0817570016 1.0000000000
0.0043100002 0.0000000000 0.0817530006 1.0000000000
0.0042969999 0.0000000000 0.0817520022 1.0000000000
0.0042860000 0.0000000000 0.0817539990 1.0000000000
0.0042739999 0.0000000000 0.0817560032 1.0000000000
0.0042619999 0.0000000000 0.0817589983 1.0000000000
0.0042490000 0.0000000000 0.0817570016 1.0000000000
0.0042380001 0.0000000000 0.0817560032 1.0000000000
0.0042240000 0.0000000000 0.0817570016 1.0000000000
0.0042140000 0.0000000000 0.0817570016 1.0000000000
0.0042010001 0.0000000000 0.0817560032 1.0000000000
0.0041890000 0.0000000000 0.0817560032 1.0000000000
0.0041769999 0.0000000000 0.0817530006 1.0000000000
0.0041649998 0.0000000000 0.0817539990 1.0000000000
0.0041540000 0.0000000000 0.0817639977 1.0000000000
0.0041419999 0.0000000000 0.0817719996 1.0000000000
0.0041279998 0.0000000000 0.0817660019 1.0000000000
0.0041169999 0.0000000000 0.0817570016 1.0000000000
0.0041040001 0.0000000000 0.0817580000 1.0000000000
0.0040930002 0.0000000000 0.0817620009 1.0000000000
0.0040799999 0.0000000000 0.0817650035 1.0000000000
0.0040690000 0.0000000000 0.0817639977 1.0000000000
0.0040560002 0.0000000000 0.0817570016 1.0000000000
0.0040449998 0.0000000000 0.0817570016 1.0000000000
0.0040320000 0.0000000000 0.0817580000 1.0000000000
0.0040210001 0.0000000000 0.0817570016 1.0000000000
0.0040070000 0.0000000000 0.0817509964 1.0000000000
0.0039969999 0.0000000000 0.0817539990 1.0000000000
0.0039849998 0.0000000000 0.0817620009 1.0000000000
0.0039730002 0.0000000000 0.0817639977 1.0000000000
0.0039610001 0.0000000000 0.0817610025 1.0000000000
0.0039490000 0.0000000000 0.0817620009 1.0000000000
0.0039369999 0.0000000000 0.0817610025 1.0000000000
0.0039240001 0.0000000000 0.0817570016 1.0000000000
0.0039110002 0.0000000000 0.0817570016 1.0000000000
0.0038999999 0.0000000000 0.0817620009 1.0000000000
0.0038870000 0.0000000000 0.0817650035 1.0000000000
0.0038770000 0.0000000000 0.0817719996 1.0000000000
0.0038640001 0.0000000000 0.0817750022 1.0000000000
0.0038530000 0.0000000000 0.0817760006 1.0000000000
0.0038409999 0.0000000000 0.0817710012 1.0000000000
0.0038280000 0.0000000000 0.0817670003 1.0000000000
0.0038160000 0.0000000000 0.0817639977 1.0000000000
0.0038040001 0.0000000000 0.0817599967 1.0000000000
0.0037910000 0.0000000000 0.0817599967 1.0000000000
0.0037799999 0.0000000000 0.0817620009 1.0000000000
0.0037670000 0.0000000000 0.0817670003 1.0000000000
0.0037560000 0.0000000000 0.0817700028 1.0000000000
0.0037430001 0.0000000000 0.0817660019 1.0000000000
0.0037320000 0.0000000000 0.0817589983 1.0000000000
0.0037189999 0.0000000000 0.0817549974 1.0000000000
0.0037070001 0.0000000000 0.0817539990 1.0000000000
0.0036950000 0.0000000000 0.0817539990 1.0000000000
0.0036830001 0.0000000000 0.0817570016 1.0000000000
0.0036700000 0.0000000000 0.0817570016 1.0000000000
0.0036589999 0.0000000000 0.0817599967 1.0000000000
0.0036470001 0.0000000000 0.0817629993 1.0000000000
0.0036350000 0.0000000000 0.0817639977 1.0000000000
0.0036230001 0.0000000000 0.0817629993 1.0000000000
0.0036110000 0.0000000000 0.0817679986 1.0000000000
0.0035989999 0.0000000000 0.0817689970 1.0000000000
0.0035870001 0.0000000000 0.0817679986 1.0000000000
0.0035750000 0.0000000000 0.0817689970 1.0000000000
0.0035629999 0.0000000000 0.0817689970 1.0000000000
0.0035500000 0.0000000000 0.0817660019 1.0000000000
0.0035389999 0.0000000000 0.0817689970 1.0000000000
0.0035270001 0.0000000000 0.0817689970 1.0000000000
0.0035150000 0.0000000000 0.0817710012 1.0000000000
0.0035019999 0.0000000000 0.0817729980 1.0000000000
0.0034910000 0.0000000000 0.0817750022 1.0000000000
0.0034779999 0.0000000000 0.0817750022 1.0000000000
0.0034670001 0.0000000000 0.0817660019 1.0000000000
0.0034530000 0.0000000000 0.0817549974 1.0000000000
0.0034419999 0.0000000000 0.0817610025 1.0000000000
0.0034290000 0.0000000000 0.0817650035 1.0000000000
0.0034190000 0.0000000000 0.0817700028 1.0000000000
0.0034060001 0.0000000000 0.0817760006 1.0000000000
0.0033950000 0.0000000000 0.0817809999 1.0000000000
0.0033829999 0.0000000000 0.0817779973 1.0000000000
0.0033700000 0.0000000000 0.0817689970 1.0000000000
0.0033570000 0.0000000000 0.0817660019 1.0000000000
0.0033460001 0.0000000000 0.0817700028 1.0000000000
0.0033340000 0.0000000000 0.0817710012 1.0000000000
0.0033219999 0.0000000000 0.0817750022 1.0000000000
0.0033090001 0.0000000000 0.0817750022 1.0000000000
0.0032980000 0.0000000000 0.0817750022 1.0000000000
0.0032850001 0.0000000000 0.0817739964 1.0000000000
0.0032740000 0.0000000000 0.0817750022 1.0000000000
0.0032609999 0.0000000000 0.0817750022 1.0000000000
0.0032500001 0.0000000000 0.0817779973 1.0000000000
0.0032380000 0.0000000000 0.0817790031 1.0000000000
0.0032259999 0.0000000000 0.0817750022 1.0000000000
0.0032140000 0.0000000000 0.0817689970 1.0000000000
0.0032019999 0.0000000000 0.0817679986 1.0000000000
0.0031890001 0.0000000000 0.0817729980 1.0000000000
0.0031780000 0.0000000000 0.0817819983 1.0000000000
0.0031659999 0.0000000000 0.0817859992 1.0000000000
0.0031540000 0.0000000000 0.0817790031 1.0000000000
0.0031409999 0.0000000000 0.0817719996 1.0000000000
0.0031300001 0.0000000000 0.0817739964 1.0000000000
0.0031180000 0.0000000000 0.0817779973 1.0000000000
0.0031059999 0.0000000000 0.0817760006 1.0000000000
0.0030930000 0.0000000000 0.0817700028 1.0000000000
0.0030809999 0.0000000000 0.0817650035 1.0000000000
0.0030680001 0.0000000000 0.0817639977 1.0000000000
0.0030570000 0.0000000000 0.0817750022 1.0000000000
0.0030439999 0.0000000000 0.0817750022 1.0000000000
0.0030330000 0.0000000000 0.0817719996 1.0000000000
0.0030210000 0.0000000000 0.0817800015 1.0000000000
0.0030090001 0.0000000000 0.0817850009 1.0000000000
0.0029970000 0.0000000000 0.0817859992 1.0000000000
0.0029849999 0.0000000000 0.0817859992 1.0000000000
0.0029720000 0.0000000000 0.0817819983 1.0000000000
0.0029610000 0.0000000000 0.0817809999 1.0000000000
0.0029490001 0.0000000000 0.0817760006 1.0000000000
0.0029370000 0.0000000000 0.0817739964 1.0000000000
0.0029239999 0.0000000000 0.0817739964 1.0000000000
0.0029130001 0.0000000000 0.0817850009 1.0000000000
0.0029000000 0.0000000000 0.0817919970 1.0000000000
0.0028890001 0.0000000000 0.0817919970 1.0000000000
0.0028770000 0.0000000000 0.0817940012 1.0000000000
0.0028649999 0.0000000000 0.0817990005 1.0000000000
0.0028520001 0.0000000000 0.0818009973 1.0000000000
0.0028410000 0.0000000000 0.0818020031 1.0000000000
0.0028289999 0.0000000000 0.0818049982 1.0000000000
0.0028170000 0.0000000000 0.0818059966 1.0000000000
0.0028049999 0.0000000000 0.0817969963 1.0000000000
0.0027920001 0.0000000000 0.0817809999 1.0000000000
0.0027800000 0.0000000000 0.0817790031 1.0000000000
0.0027679999 0.0000000000 0.0817850009 1.0000000000
0.0027550000 0.0000000000 0.0817909986 1.0000000000
0.0027439999 0.0000000000 0.0817969963 1.0000000000
0.0027320001 0.0000000000 0.0817959979 1.0000000000
0.0027200000 0.0000000000 0.0817890018 1.0000000000
0.0027069999 0.0000000000 0.0817829967 1.0000000000
0.0026960000 0.0000000000 0.0817859992 1.0000000000
0.0026819999 0.0000000000 0.0817819983 1.0000000000
0.0026710001 0.0000000000 0.0817769989 1.0000000000
0.0026580000 0.0000000000 0.0817790031 1.0000000000
0.0026469999 0.0000000000 0.0817829967 1.0000000000
0.0026350000 0.0000000000 0.0817779973 1.0000000000
0.0026229999 0.0000000000 0.0817809999 1.0000000000
0.0026100001 0.0000000000 0.0817829967 1.0000000000
0.0025990000 0.0000000000 0.0817800015 1.0000000000
0.0025869999 0.0000000000 0.0817769989 1.0000000000
0.0025750000 0.0000000000 0.0817809999 1.0000000000
0.0025620000 0.0000000000 0.0817880034 1.0000000000
0.0025510001 0.0000000000 0.0817930028 1.0000000000
0.0025390000 0.0000000000 0.0817949995 1.0000000000
0.0025269999 0.0000000000 0.0818009973 1.0000000000
0.0025140001 0.0000000000 0.0818149969 1.0000000000
0.0025040000 0.0000000000 0.0818379968 1.0000000000
0.0024910001 0.0000000000 0.0818570033 1.0000000000
0.0024810000 0.0000000000 0.0818720013 1.0000000000
0.0024689999 0.0000000000 0.0818829983 1.0000000000
0.0024570001 0.0000000000 0.0818929970 1.0000000000
0.0024440000 0.0000000000 0.0819109976 1.0000000000
0.0024339999 0.0000000000 0.0819329992 1.0000000000
0.0024210000 0.0000000000 0.0819389969 1.0000000000
0.0024100000 0.0000000000 0.0819389969 1.0000000000
0.0023980001 0.0000000000 0.0819320008 1.0000000000
0.0023850000 0.0000000000 0.0819329992 1.0000000000
-0.0023500000 0.0000000000 0.0821529999 1.0000000000
-0.0023620001 0.0000000000 0.0821579993 1.0000000000
-0.0023749999 0.0000000000 0.0821560025 1.0000000000
-0.0023860000 0.0000000000 0.0821539983 1.0000000000
-0.0023980001 0.0000000000 0.0821489990 1.0000000000
-0.0024100000 0.0000000000 0.0821430013 1.0000000000
-0.0024230001 0.0000000000 0.0821359977 1.0000000000
-0.0024339999 0.0000000000 0.0821240023 1.0000000000
-0.0024460000 0.0000000000 0.0821010023 1.0000000000
-0.0024570001 0.0000000000 0.0820939988 1.0000000000
-0.0024699999 0.0000000000 0.0820970014 1.0000000000
-0.0024820000 0.0000000000 0.0820899978 1.0000000000
-0.0024939999 0.0000000000 0.0820780024 1.0000000000
-0.0025050000 0.0000000000 0.0820629969 1.0000000000
-0.0025180001 0.0000000000 0.0820510015 1.0000000000
-0.0025289999 0.0000000000 0.0820449963 1.0000000000
-0.0025410000 0.0000000000 0.0820309967 1.0000000000
-0.0025520001 0.0000000000 0.0820180029 1.0000000000
-0.0025640000 0.0000000000 0.0820140019 1.0000000000
-0.0025760001 0.0000000000 0.0820109993 1.0000000000
-0.0025879999 0.0000000000 0.0820040032 1.0000000000
-0.0026000000 0.0000000000 0.0819929987 1.0000000000
-0.0026120001 0.0000000000 0.0819770023 1.0000000000
-0.0026240000 0.0000000000 0.0819630027 1.0000000000
-0.0026360000 0.0000000000 0.0819479972 1.0000000000
-0.0026469999 0.0000000000 0.0819329992 1.0000000000
-0.0026590000 0.0000000000 0.0819159970 1.0000000000
-0.0026710001 0.0000000000 0.0819059983 1.0000000000
-0.0026829999 0.0000000000 0.0819009990 1.0000000000
-0.0026940000 0.0000000000 0.0818919986 1.0000000000
-0.0027060001 0.0000000000 0.0818810016 1.0000000000
-0.0027180000 0.0000000000 0.0818850026 1.0000000000
-0.0027310001 0.0000000000 0.0818919986 1.0000000000
-0.0027429999 0.0000000000 0.0818879977 1.0000000000
-0.0027560000 0.0000000000 0.0818800032 1.0000000000
-0.0027670001 0.0000000000 0.0818789974 1.0000000000
-0.0027790000 0.0000000000 0.0818760023 1.0000000000
-0.0027910001 0.0000000000 0.0818689987 1.0000000000
-0.0028029999 0.0000000000 0.0818649977 1.0000000000
-0.0028150000 0.0000000000 0.0818710029 1.0000000000
-0.0028280001 0.0000000000 0.0818779990 1.0000000000
-0.0028390000 0.0000000000 0.0818770006 1.0000000000
-0.0028520001 0.0000000000 0.0818710029 1.0000000000
-0.0028629999 0.0000000000 0.0818720013 1.0000000000
-0.0028760000 0.0000000000 0.0818710029 1.0000000000
-0.0028870001 0.0000000000 0.0818710029 1.0000000000
-0.0028990000 0.0000000000 0.0818739980 1.0000000000
-0.0029120001 0.0000000000 0.0818810016 1.0000000000
-0.0029239999 0.0000000000 0.0818829983 1.0000000000
-0.0029360000 0.0000000000 0.0818789974 1.0000000000
-0.0029490001 0.0000000000 0.0818760023 1.0000000000
-0.0029600000 0.0000000000 0.0818770006 1.0000000000
-0.0029730001 0.0000000000 0.0818760023 1.0000000000
-0.0029839999 0.0000000000 0.0818789974 1.0000000000
-0.0029970000 0.0000000000 0.0818800032 1.0000000000
-0.0030090001 0.0000000000 0.0818900019 1.0000000000
-0.0030210000 0.0000000000 0.0818929970 1.0000000000
-0.0030330000 0.0000000000 0.0818829983 1.0000000000
-0.0030439999 0.0000000000 0.0818739980 1.0000000000
-0.0030560000 0.0000000000 0.0818720013 1.0000000000
-0.0030690001 0.0000000000 0.0818760023 1.0000000000
-0.0030809999 0.0000000000 0.0818770006 1.0000000000
-0.0030940000 0.0000000000 0.0818710029 1.0000000000
-0.0031049999 0.0000000000 0.0818710029 1.0000000000
-0.0031170000 0.0000000000 0.0818739980 1.0000000000
-0.0031290001 0.0000000000 0.0818779990 1.0000000000
-0.0031419999 0.0000000000 0.0818800032 1.0000000000
-0.0031530000 0.0000000000 0.0818779990 1.0000000000
-0.0031649999 0.0000000000 0.0818739980 1.0000000000
-0.0031770000 0.0000000000 0.0818729997 1.0000000000
-0.0031900001 0.0000000000 0.0818689987 1.0000000000
-0.0032009999 0.0000000000 0.0818729997 1.0000000000
-0.0032140000 0.0000000000 0.0818779990 1.0000000000
-0.0032259999 0.0000000000 0.0818820000 1.0000000000
-0.0032390000 0.0000000000 0.0818789974 1.0000000000
-0.0032500001 0.0000000000 0.0818770006 1.0000000000
-0.0032629999 0.0000000000 0.0818770006 1.0000000000
-0.0032740000 0.0000000000 0.0818820000 1.0000000000
-0.0032860001 0.0000000000 0.0818850026 1.0000000000
-0.0032980000 0.0000000000 0.0818869993 1.0000000000
-0.0033110001 0.0000000000 0.0818879977 1.0000000000
-0.0033219999 0.0000000000 0.0818900019 1.0000000000
-0.0033350000 0.0000000000 0.0818879977 1.0000000000
-0.0033460001 0.0000000000 0.0818900019 1.0000000000
-0.0033590000 0.0000000000 0.0818869993 1.0000000000
-0.0033700000 0.0000000000 0.0818850026 1.0000000000
-0.0033829999 0.0000000000 0.0818810016 1.0000000000
-0.0033940000 0.0000000000 0.0818800032 1.0000000000
-0.0034070001 0.0000000000 0.0818800032 1.0000000000
-0.0034190000 0.0000000000 0.0818810016 1.0000000000
-0.0034320001 0.0000000000 0.0818869993 1.0000000000
-0.0034429999 0.0000000000 0.0818959996 1.0000000000
-0.0034550000 0.0000000000 0.0818919986 1.0000000000
-0.0034670001 0.0000000000 0.0818900019 1.0000000000
-0.0034789999 0.0000000000 0.0818940029 1.0000000000
-0.0034910000 0.0000000000 0.0818940029 1.0000000000
-0.0035029999 0.0000000000 0.0818940029 1.0000000000
-0.0035160000 0.0000000000 0.0818950012 1.0000000000
-0.0035280001 0.0000000000 0.0818940029 1.0000000000
-0.0035399999 0.0000000000 0.0818910003 1.0000000000
-0.0035520000 0.0000000000 0.0818860009 1.0000000000
-0.0035629999 0.0000000000 0.0818860009 1.0000000000
-0.0035760000 0.0000000000 0.0818929970 1.0000000000
-0.0035880001 0.0000000000 0.0818990022 1.0000000000
-0.0036009999 0.0000000000 0.0818950012 1.0000000000
-0.0036120000 0.0000000000 0.0818900019 1.0000000000
-0.0036249999 0.0000000000 0.0818890035 1.0000000000
-0.0036360000 0.0000000000 0.0818890035 1.0000000000
-0.0036480001 0.0000000000 0.0818869993 1.0000000000
-0.0036599999 0.0000000000 0.0818919986 1.0000000000
-0.0036720000 0.0000000000 0.0818959996 1.0000000000
-0.0036840001 0.0000000000 0.0818969980 1.0000000000
-0.0036970000 0.0000000000 0.0818979964 1.0000000000
-0.0037090001 0.0000000000 0.0818959996 1.0000000000
-0.0037209999 0.0000000000 0.0818940029 1.0000000000
-0.0037330000 0.0000000000 0.0818940029 1.0000000000
-0.0037450001 0.0000000000 0.0818940029 1.0000000000
-0.0037570000 0.0000000000 0.0818919986 1.0000000000
-0.0037690001 0.0000000000 0.0818869993 1.0000000000
-0.0037809999 0.0000000000 0.0818869993 1.0000000000
-0.0037940000 0.0000000000 0.0818879977 1.0000000000
-0.0038050001 0.0000000000 0.0818950012 1.0000000000
-0.0038180000 0.0000000000 0.0819000006 1.0000000000
-0.0038290001 0.0000000000 0.0818990022 1.0000000000
-0.0038409999 0.0000000000 0.0818929970 1.0000000000
-0.0038530000 0.0000000000 0.0818910003 1.0000000000
-0.0038660001 0.0000000000 0.0818959996 1.0000000000
-0.0038780000 0.0000000000 0.0819009990 1.0000000000
-0.0038900001 0.0000000000 0.0818979964 1.0000000000
-0.0039019999 0.0000000000 0.0819000006 1.0000000000
-0.0039149998 0.0000000000 0.0818990022 1.0000000000
-0.0039260001 0.0000000000 0.0818959996 1.0000000000
-0.0039380002 0.0000000000 0.0818950012 1.0000000000
-0.0039499998 0.0000000000 0.0818969980 1.0000000000
-0.0039630001 0.0000000000 0.0818979964 1.0000000000
-0.0039740000 0.0000000000 0.0819019973 1.0000000000
-0.0039860001 0.0000000000 0.0819049999 1.0000000000
-0.0039980002 0.0000000000 0.0819030032 1.0000000000
-0.0040110000 0.0000000000 0.0818979964 1.0000000000
-0.0040219999 0.0000000000 0.0818990022 1.0000000000
-0.0040350002 0.0000000000 0.0818990022 1.0000000000
-0.0040469998 0.0000000000 0.0819040015 1.0000000000
-0.0040600002 0.0000000000 0.0819049999 1.0000000000
-0.0040710000 0.0000000000 0.0819049999 1.0000000000
-0.0040830001 0.0000000000 0.0819019973 1.0000000000
-0.0040950002 0.0000000000 0.0819019973 1.0000000000
-0.0041069998 0.0000000000 0.0819040015 1.0000000000
-0.0041189999 0.0000000000 0.0819040015 1.0000000000
-0.0041310000 0.0000000000 0.0819049999 1.0000000000
-0.0041430001 0.0000000000 0.0819049999 1.0000000000
-0.0041550002 0.0000000000 0.0819030032 1.0000000000
-0.0041669998 0.0000000000 0.0819069967 1.0000000000
-0.0041800002 0.0000000000 0.0819080025 1.0000000000
-0.0041910000 0.0000000000 0.0819059983 1.0000000000
-0.0042039999 0.0000000000 0.0819049999 1.0000000000
-0.0042160000 0.0000000000 0.0819059983 1.0000000000
-0.0042280001 0.0000000000 0.0818979964 1.0000000000
-0.0042389999 0.0000000000 0.0818990022 1.0000000000
-0.0042519998 0.0000000000 0.0819030032 1.0000000000
-0.0042639999 0.0000000000 0.0819009990 1.0000000000
-0.0042760000 0.0000000000 0.0818969980 1.0000000000
-0.0042880001 0.0000000000 0.0819049999 1.0000000000
-0.0043009999 0.0000000000 0.0819090009 1.0000000000
-0.0043119998 0.0000000000 0.0819130018 1.0000000000
-0.0043250001 0.0000000000 0.0819149986 1.0000000000
-0.0043370002 0.0000000000 0.0819159970 1.0000000000
-0.0043500001 0.0000000000 0.0819149986 1.0000000000
-0.0043609999 0.0000000000 0.0819120035 1.0000000000
-0.0043720002 0.0000000000 0.0819059983 1.0000000000
-0.0043839999 0.0000000000 0.0819019973 1.0000000000
-0.0043970002 0.0000000000 0.0818990022 1.0000000000
-0.0044080000 0.0000000000 0.0819000006 1.0000000000
-0.0044209999 0.0000000000 0.0818979964 1.0000000000
-0.0044320002 0.0000000000 0.0818969980 1.0000000000
-0.0044450001 0.0000000000 0.0818969980 1.0000000000
-0.0044570002 0.0000000000 0.0819000006 1.0000000000
-0.0044700000 0.0000000000 0.0819009990 1.0000000000
-0.0044809999 0.0000000000 0.0819069967 1.0000000000
-0.0044940002 0.0000000000 0.0819090009 1.0000000000
-0.0045050001 0.0000000000 0.0819080025 1.0000000000
-0.0045170002 0.0000000000 0.0819040015 1.0000000000
-0.0045289998 0.0000000000 0.0819030032 1.0000000000
-0.0045420001 0.0000000000 0.0819049999 1.0000000000
-0.0045530000 0.0000000000 0.0819059983 1.0000000000
-0.0045650001 0.0000000000 0.0819030032 1.0000000000
-0.0045770002 0.0000000000 0.0819019973 1.0000000000
-0.0045889998 0.0000000000 0.0819059983 1.0000000000
-0.0046020001 0.0000000000 0.0819109976 1.0000000000
-0.0046140002 0.0000000000 0.0819109976 1.0000000000
-0.0046259998 0.0000000000 0.0819099993 1.0000000000
-0.0046379999 0.0000000000 0.0819059983 1.0000000000
-0.0046500000 0.0000000000 0.0819040015 1.0000000000
-0.0046620001 0.0000000000 0.0819059983 1.0000000000
-0.0046740002 0.0000000000 0.0819120035 1.0000000000
-0.0046859998 0.0000000000 0.0819130018 1.0000000000
-0.0046979999 0.0000000000 0.0819140002 1.0000000000
-0.0047109998 0.0000000000 0.0819149986 1.0000000000
-0.0047220001 0.0000000000 0.0819059983 1.0000000000
-0.0047340002 0.0000000000 0.0819030032 1.0000000000
-0.0047459998 0.0000000000 0.0819069967 1.0000000000
-0.0047590001 0.0000000000 0.0819090009 1.0000000000
-0.0047700000 0.0000000000 0.0819120035 1.0000000000
-0.0047829999 0.0000000000 0.0819059983 1.0000000000
-0.0047940002 0.0000000000 0.0819019973 1.0000000000
-0.0048070000 0.0000000000 0.0819009990 1.0000000000
-0.0048179999 0.0000000000 0.0819069967 1.0000000000
-0.0048310002 0.0000000000 0.0819140002 1.0000000000
-0.0048429999 0.0000000000 0.0819159970 1.0000000000
-0.0048549999 0.0000000000 0.0819130018 1.0000000000
-0.0048670000 0.0000000000 0.0819159970 1.0000000000
-0.0048799999 0.0000000000 0.0819189996 1.0000000000
-0.0048910002 0.0000000000 0.0819180012 1.0000000000
-0.0049029998 0.0000000000 0.0819149986 1.0000000000
-0.0049149999 0.0000000000 0.0819159970 1.0000000000
-0.0049279998 0.0000000000 0.0819159970 1.0000000000
-0.0049390001 0.0000000000 0.0819180012 1.0000000000
-0.0049520000 0.0000000000 0.0819189996 1.0000000000
-0.0049629998 0.0000000000 0.0819199979 1.0000000000
-0.0049749999 0.0000000000 0.0819149986 1.0000000000
-0.0049870000 0.0000000000 0.0819099993 1.0000000000
-0.0049999999 0.0000000000 0.0819090009 1.0000000000
-0.0050110002 0.0000000000 0.0819109976 1.0000000000
-0.0050240001 0.0000000000 0.0819099993 1.0000000000
-0.0050349999 0.0000000000 0.0819109976 1.0000000000
-0.0050470000 0.0000000000 0.0819140002 1.0000000000
-0.0050590001 0.0000000000 0.0819159970 1.0000000000
-0.0050720000 0.0000000000 0.0819180012 1.0000000000
-0.0050840001 0.0000000000 0.0819209963 1.0000000000
-0.0050969999 0.0000000000 0.0819189996 1.0000000000
-0.0051070000 0.0000000000 0.0819149986 1.0000000000
-0.0051199999 0.0000000000 0.0819140002 1.0000000000
-0.0051320000 0.0000000000 0.0819149986 1.0000000000
-0.0051440001 0.0000000000 0.0819140002 1.0000000000
-0.0051560001 0.0000000000 0.0819120035 1.0000000000
-0.0051679998 0.0000000000 0.0819159970 1.0000000000
-0.0051799999 0.0000000000 0.0819249973 1.0000000000
-0.0051930002 0.0000000000 0.0819339976 1.0000000000
-0.0052049998 0.0000000000 0.0819329992 1.0000000000
-0.0052160001 0.0000000000 0.0819249973 1.0000000000
-0.0052280002 0.0000000000 0.0819189996 1.0000000000
-0.0052410001 0.0000000000 0.0819170028 1.0000000000
-0.0052519999 0.0000000000 0.0819220021 1.0000000000
-0.0052640000 0.0000000000 0.0819249973 1.0000000000
-0.0052760001 0.0000000000 0.0819230005 1.0000000000
-0.0052880002 0.0000000000 0.0819220021 1.0000000000
-0.0053010001 0.0000000000 0.0819260031 1.0000000000
-0.0053130002 0.0000000000 0.0819249973 1.0000000000
-0.0053240000 0.0000000000 0.0819199979 1.0000000000
-0.0053369999 0.0000000000 0.0819170028 1.0000000000
-0.0053480002 0.0000000000 0.0819209963 1.0000000000
-0.0053610001 0.0000000000 0.0819230005 1.0000000000
-0.0053730002 0.0000000000 0.0819220021 1.0000000000
-0.0053849998 0.0000000000 0.0819249973 1.0000000000
-0.0053969999 0.0000000000 0.0819260031 1.0000000000
-0.0054090000 0.0000000000 0.0819230005 1.0000000000
-0.0054210001 0.0000000000 0.0819270015 1.0000000000
-0.0054330002 0.0000000000 0.0819339976 1.0000000000
-0.0054460000 0.0000000000 0.0819389969 1.0000000000
-0.0054589999 0.0000000000 0.0819429979 1.0000000000
-0.0054700002 0.0000000000 0.0819370002 1.0000000000
-0.0054819998 0.0000000000 0.0819249973 1.0000000000
-0.0054930001 0.0000000000 0.0819220021 1.0000000000
-0.0055060000 0.0000000000 0.0819170028 1.0000000000
-0.0055169999 0.0000000000 0.0819189996 1.0000000000
-0.0055300002 0.0000000000 0.0819170028 1.0000000000
-0.0055410000 0.0000000000 0.0819180012 1.0000000000
-0.0055530001 0.0000000000 0.0819260031 1.0000000000
-0.0055660000 0.0000000000 0.0819299966 1.0000000000
-0.0055769999 0.0000000000 0.0819249973 1.0000000000
-0.0055889999 0.0000000000 0.0819189996 1.0000000000
-0.0056019998 0.0000000000 0.0819180012 1.0000000000
-0.0056130001 0.0000000000 0.0819180012 1.0000000000
-0.0056260000 0.0000000000 0.0819180012 1.0000000000
-0.0056369998 0.0000000000 0.0819230005 1.0000000000
-0.0056489999 0.0000000000 0.0819239989 1.0000000000
-0.0056619998 0.0000000000 0.0819289982 1.0000000000
-0.0056750001 0.0000000000 0.0819289982 1.0000000000
-0.0056860000 0.0000000000 0.0819239989 1.0000000000
-0.0056980001 0.0000000000 0.0819230005 1.0000000000
-0.0057100002 0.0000000000 0.0819260031 1.0000000000
-0.0057230000 0.0000000000 0.0819260031 1.0000000000
-0.0057339999 0.0000000000 0.0819299966 1.0000000000
-0.0057460000 0.0000000000 0.0819329992 1.0000000000
-0.0057580001 0.0000000000 0.0819360018 1.0000000000
-0.0057709999 0.0000000000 0.0819410011 1.0000000000
-0.0057830000 0.0000000000 0.0819440037 1.0000000000
-0.0057950001 0.0000000000 0.0819440037 1.0000000000
-0.0058070002 0.0000000000 0.0819469988 1.0000000000
-0.0058189998 0.0000000000 0.0819429979 1.0000000000
-0.0058300002 0.0000000000 0.0819329992 1.0000000000
-0.0058430000 0.0000000000 0.0819279999 1.0000000000
-0.0058539999 0.0000000000 0.0819279999 1.0000000000
-0.0058670002 0.0000000000 0.0819270015 1.0000000000
-0.0058789998 0.0000000000 0.0819320008 1.0000000000
-0.0058920002 0.0000000000 0.0819379985 1.0000000000
-0.0059030000 0.0000000000 0.0819360018 1.0000000000
-0.0059150001 0.0000000000 0.0819279999 1.0000000000
-0.0059270002 0.0000000000 0.0819329992 1.0000000000
-0.0059400001 0.0000000000 0.0819360018 1.0000000000
-0.0059509999 0.0000000000 0.0819379985 1.0000000000
-0.0059630000 0.0000000000 0.0819410011 1.0000000000
-0.0059750001 0.0000000000 0.0819400027 1.0000000000
-0.0059880000 0.0000000000 0.0819310024 1.0000000000
-0.0059989998 0.0000000000 0.0819329992 1.0000000000
-0.0060109999 0.0000000000 0.0819410011 1.0000000000
-0.0060239998 0.0000000000 0.0819419995 1.0000000000
-0.0060359999 0.0000000000 0.0819360018 1.0000000000
-0.0060470002 0.0000000000 0.0819370002 1.0000000000
-0.0060600000 0.0000000000 0.0819360018 1.0000000000
-0.0060709999 0.0000000000 0.0819350034 1.0000000000
-0.0060840002 0.0000000000 0.0819379985 1.0000000000
-0.0060959999 0.0000000000 0.0819479972 1.0000000000
-0.0061090002 0.0000000000 0.0819440037 1.0000000000
-0.0061200000 0.0000000000 0.0819440037 1.0000000000
-0.0061329999 0.0000000000 0.0819450021 1.0000000000
-0.0061440002 0.0000000000 0.0819419995 1.0000000000
-0.0061550001 0.0000000000 0.0819339976 1.0000000000
-0.0061679999 0.0000000000 0.0819360018 1.0000000000
-0.0061800000 0.0000000000 0.0819419995 1.0000000000
-0.0061920001 0.0000000000 0.0819429979 1.0000000000
-0.0062050000 0.0000000000 0.0819379985 1.0000000000
-0.0062159998 0.0000000000 0.0819389969 1.0000000000
-0.0062279999 0.0000000000 0.0819429979 1.0000000000
-0.0062400000 0.0000000000 0.0819410011 1.0000000000
-0.0062529999 0.0000000000 0.0819400027 1.0000000000
-0.0062640002 0.0000000000 0.0819429979 1.0000000000
-0.0062770001 0.0000000000 0.0819460005 1.0000000000
-0.0062879999 0.0000000000 0.0819419995 1.0000000000
-0.0063009998 0.0000000000 0.0819360018 1.0000000000
-0.0063120001 0.0000000000 0.0819450021 1.0000000000
-0.0063250000 0.0000000000 0.0819519982 1.0000000000
-0.0063370001 0.0000000000 0.0819540024 1.0000000000
-0.0063499999 0.0000000000 0.0819550008 1.0000000000
-0.0063609998 0.0000000000 0.0819569975 1.0000000000
-0.0063740001 0.0000000000 0.0819609985 1.0000000000
-0.0063870000 0.0000000000 0.0819789991 1.0000000000
-0.0063999998 0.0000000000 0.0819969997 1.0000000000
-0.0064130002 0.0000000000 0.0820100009 1.0000000000
-0.0064269998 0.0000000000 0.0820249990 1.0000000000
-0.0064389999 0.0000000000 0.0820410028 1.0000000000
-0.0064519998 0.0000000000 0.0820550025 1.0000000000
-0.0064639999 0.0000000000 0.0820590034 1.0000000000
-0.0064770002 0.0000000000 0.0820640028 1.0000000000
-0.0064889998 0.0000000000 0.0820709988 1.0000000000
-0.0065020001 0.0000000000 0.0820759982 1.0000000000
-0.0065139998 0.0000000000 0.0820889995 1.0000000000
-0.0065279999 0.0000000000 0.0821029991 1.0000000000
-0.0065400000 0.0000000000 0.0821129978 1.0000000000
-0.0065520001 0.0000000000 0.0821190029 1.0000000000
-0.0065649999 0.0000000000 0.0821290016 1.0000000000
-0.0065790000 0.0000000000 0.0821449980 1.0000000000
-0.0065910001 0.0000000000 0.0821589977 1.0000000000
-0.0066040000 0.0000000000 0.0821700022 1.0000000000
-0.0066169999 0.0000000000 0.0821800008 1.0000000000
-0.0066300002 0.0000000000 0.0821880028 1.0000000000
-0.0066419998 0.0000000000 0.0821980014 1.0000000000
-0.0066550002 0.0000000000 0.0822060034 1.0000000000
-0.0066669998 0.0000000000 0.0822170004 1.0000000000
-0.0066809999 0.0000000000 0.0822329968 1.0000000000
-0.0066930000 0.0000000000 0.0822449997 1.0000000000
-0.0067070001 0.0000000000 0.0822499990 1.0000000000
-0.0067190002 0.0000000000 0.0822630003 1.0000000000
-0.0067320000 0.0000000000 0.0822760016 1.0000000000
-0.0067449999 0.0000000000 0.0822909996 1.0000000000
-0.0067579998 0.0000000000 0.0823040009 1.0000000000
-0.0067699999 0.0000000000 0.0823130012 1.0000000000
-0.0067840000 0.0000000000 0.0823220015 1.0000000000
-0.0067960001 0.0000000000 0.0823310018 1.0000000000
-0.0068080002 0.0000000000 0.0823360011 1.0000000000
-0.0068199998 0.0000000000 0.0823400021 1.0000000000
-0.0068350001 0.0000000000 0.0823620036 1.0000000000
-0.0068470002 0.0000000000 0.0823780000 1.0000000000
-0.0068600001 0.0000000000 0.0823860019 1.0000000000
-0.0068720002 0.0000000000 0.0823919997 1.0000000000
-0.0068859998 0.0000000000 0.0824000016 1.0000000000
-0.0068970001 0.0000000000 0.0824019983 1.0000000000
-0.0069100000 0.0000000000 0.0824059993 1.0000000000
-0.0069229999 0.0000000000 0.0824280009 1.0000000000
-0.0069370000 0.0000000000 0.0824439973 1.0000000000
-0.0069490001 0.0000000000 0.0824500024 1.0000000000
-0.0069630002 0.0000000000 0.0824600011 1.0000000000
-0.0069749998 0.0000000000 0.0824719965 1.0000000000
-0.0069880001 0.0000000000 0.0824849978 1.0000000000
-0.0070000002 0.0000000000 0.0824949965 1.0000000000
-0.0070130001 0.0000000000 0.0825020000 1.0000000000
-0.0070259999 0.0000000000 0.0825100020 1.0000000000
-0.0070380000 0.0000000000 0.0825179964 1.0000000000
-0.0070520001 0.0000000000 0.0825409964 1.0000000000
-0.0070659998 0.0000000000 0.0825570002 1.0000000000
-0.0070779999 0.0000000000 0.0825669989 1.0000000000
-0.0070930002 0.0000000000 0.0825899988 1.0000000000
-0.0071049999 0.0000000000 0.0825999975 1.0000000000
-0.0071180002 0.0000000000 0.0826079994 1.0000000000
-0.0071299998 0.0000000000 0.0826160014 1.0000000000
-0.0071430001 0.0000000000 0.0826229975 1.0000000000
-0.0071560000 0.0000000000 0.0826330036 1.0000000000
-0.0071689999 0.0000000000 0.0826380029 1.0000000000
-0.0071810000 0.0000000000 0.0826499984 1.0000000000
-0.0071950001 0.0000000000 0.0826620013 1.0000000000
-0.0072059999 0.0000000000 0.0826629996 1.0000000000
-0.0072180000 0.0000000000 0.0826580003 1.0000000000
-0.0072309999 0.0000000000 0.0826719999 1.0000000000
-0.0072450000 0.0000000000 0.0826879963 1.0000000000
-0.0072579999 0.0000000000 0.0827040002 1.0000000000
-0.0072720000 0.0000000000 0.0827139989 1.0000000000
-0.0072840001 0.0000000000 0.0827319995 1.0000000000
-0.0072980002 0.0000000000 0.0827390030 1.0000000000
-0.0073090000 0.0000000000 0.0827469975 1.0000000000
-0.0073230001 0.0000000000 0.0827590004 1.0000000000
-0.0073360000 0.0000000000 0.0827749968 1.0000000000
-0.0073500001 0.0000000000 0.0827850029 1.0000000000
-0.0073609999 0.0000000000 0.0827929974 1.0000000000
-0.0073739998 0.0000000000 0.0827919990 1.0000000000
-0.0073870001 0.0000000000 0.0828119963 1.0000000000
-0.0074020000 0.0000000000 0.0828299969 1.0000000000
-0.0074129999 0.0000000000 0.0828379989 1.0000000000
-0.0074260002 0.0000000000 0.0828410015 1.0000000000
-0.0074379998 0.0000000000 0.0828460008 1.0000000000
-0.0074530002 0.0000000000 0.0828659981 1.0000000000
-0.0074660000 0.0000000000 0.0828879997 1.0000000000
-0.0074780001 0.0000000000 0.0828839988 1.0000000000
-0.0074910000 0.0000000000 0.0828939974 1.0000000000
-0.0075039999 0.0000000000 0.0829129964 1.0000000000
-0.0075170002 0.0000000000 0.0829190016 1.0000000000
-0.0075300001 0.0000000000 0.0829240009 1.0000000000
-0.0075420002 0.0000000000 0.0829299986 1.0000000000
-0.0075539998 0.0000000000 0.0829299986 1.0000000000
-0.0075659999 0.0000000000 0.0829339996 1.0000000000
-0.0075810002 0.0000000000 0.0829500034 1.0000000000
-0.0075929998 0.0000000000 0.0829659998 1.0000000000
-0.0076060002 0.0000000000 0.0829740018 1.0000000000
-0.0076179998 0.0000000000 0.0829769969 1.0000000000
-0.0076310001 0.0000000000 0.0829840004 1.0000000000
-0.0076449998 0.0000000000 0.0830039978 1.0000000000
-0.0076580001 0.0000000000 0.0830129981 1.0000000000
-0.0076690000 0.0000000000 0.0830089971 1.0000000000
-0.0076819998 0.0000000000 0.0830169991 1.0000000000
-0.0076970002 0.0000000000 0.0830530003 1.0000000000
-0.0094910003 0.0000000000 0.0830779970 1.0000000000
-0.0095020002 0.0000000000 0.0830689967 1.0000000000
-0.0095140003 0.0000000000 0.0830679983 1.0000000000
-0.0095260004 0.0000000000 0.0830669999 1.0000000000
-0.0095380004 0.0000000000 0.0830660015 1.0000000000
-0.0095490003 0.0000000000 0.0830499977 1.0000000000
-0.0095579997 0.0000000000 0.0830269977 1.0000000000
-0.0095710000 0.0000000000 0.0830269977 1.0000000000
-0.0095830001 0.0000000000 0.0830280036 1.0000000000
-0.0095939999 0.0000000000 0.0830190033 1.0000000000
-0.0096049998 0.0000000000 0.0830119997 1.0000000000
-0.0096169999 0.0000000000 0.0830079988 1.0000000000
-0.0096270004 0.0000000000 0.0829949975 1.0000000000
-0.0096380003 0.0000000000 0.0829809979 1.0000000000
-0.0096500004 0.0000000000 0.0829840004 1.0000000000
-0.0096629998 0.0000000000 0.0829889998 1.0000000000
-0.0096739996 0.0000000000 0.0829759985 1.0000000000
-0.0096850004 0.0000000000 0.0829600021 1.0000000000
-0.0096960003 0.0000000000 0.0829569995 1.0000000000
-0.0097070001 0.0000000000 0.0829460025 1.0000000000
-0.0097180000 0.0000000000 0.0829320028 1.0000000000
-0.0097289998 0.0000000000 0.0829280019 1.0000000000
-0.0097409999 0.0000000000 0.0829249993 1.0000000000
-0.0097519998 0.0000000000 0.0829200000 1.0000000000
-0.0097639998 0.0000000000 0.0829119980 1.0000000000
-0.0097749997 0.0000000000 0.0829000026 1.0000000000
-0.0097859995 0.0000000000 0.0828939974 1.0000000000
-0.0097970003 0.0000000000 0.0828860030 1.0000000000
-0.0098080002 0.0000000000 0.0828730017 1.0000000000
-0.0098190000 0.0000000000 0.0828609988 1.0000000000
-0.0098299999 0.0000000000 0.0828550011 1.0000000000
-0.0098420000 0.0000000000 0.0828469992 1.0000000000
-0.0098529998 0.0000000000 0.0828389972 1.0000000000
-0.0098630004 0.0000000000 0.0828270018 1.0000000000
-0.0098740002 0.0000000000 0.0828149989 1.0000000000
-0.0098860003 0.0000000000 0.0828080028 1.0000000000
-0.0098970002 0.0000000000 0.0828040019 1.0000000000
-0.0099090002 0.0000000000 0.0828009993 1.0000000000
-0.0099200001 0.0000000000 0.0827929974 1.0000000000
-0.0099320002 0.0000000000 0.0827829987 1.0000000000
-0.0099430000 0.0000000000 0.0827779993 1.0000000000
-0.0099539999 0.0000000000 0.0827659965 1.0000000000
-0.0099649997 0.0000000000 0.0827590004 1.0000000000
-0.0099759996 0.0000000000 0.0827559978 1.0000000000
-0.0099879997 0.0000000000 0.0827519968 1.0000000000
-0.0099999998 0.0000000000 0.0827390030 1.0000000000
-0.0100100003 0.0000000000 0.0827270001 1.0000000000
-0.0100210002 0.0000000000 0.0827199966 1.0000000000
-0.0100330003 0.0000000000 0.0827199966 1.0000000000
-0.0100450004 0.0000000000 0.0827189982 1.0000000000
-0.0100539997 0.0000000000 0.0826969966 1.0000000000
-0.0100640003 0.0000000000 0.0826769993 1.0000000000
-0.0100760004 0.0000000000 0.0826760009 1.0000000000
-0.0100889998 0.0000000000 0.0826790035 1.0000000000
-0.0100999996 0.0000000000 0.0826769993 1.0000000000
-0.0101119997 0.0000000000 0.0826620013 1.0000000000
-0.0101210000 0.0000000000 0.0826480016 1.0000000000
-0.0101330001 0.0000000000 0.0826359987 1.0000000000
-0.0101429997 0.0000000000 0.0826290026 1.0000000000
-0.0101549998 0.0000000000 0.0826200023 1.0000000000
-0.0101659996 0.0000000000 0.0826139972 1.0000000000
-0.0101770004 0.0000000000 0.0826070011 1.0000000000
-0.0101880003 0.0000000000 0.0825920030 1.0000000000
-0.0101979999 0.0000000000 0.0825809985 1.0000000000
-0.0102100000 0.0000000000 0.0825759992 1.0000000000
-0.0102209998 0.0000000000 0.0825719982 1.0000000000
-0.0102329999 0.0000000000 0.0825709999 1.0000000000
-0.0102460003 0.0000000000 0.0825690031 1.0000000000
-0.0102570001 0.0000000000 0.0825639963 1.0000000000
-0.0102669997 0.0000000000 0.0825479999 1.0000000000
-0.0102770003 0.0000000000 0.0825280026 1.0000000000
-0.0102880001 0.0000000000 0.0825140029 1.0000000000
-0.0102979997 0.0000000000 0.0825050026 1.0000000000
-0.0103089996 0.0000000000 0.0824970007 1.0000000000
-0.0103209997 0.0000000000 0.0824899971 1.0000000000
-0.0103320004 0.0000000000 0.0824809968 1.0000000000
-0.0103430003 0.0000000000 0.0824749991 1.0000000000
-0.0103529999 0.0000000000 0.0824540034 1.0000000000
-0.0103630004 0.0000000000 0.0824399963 1.0000000000
-0.0103759998 0.0000000000 0.0824399963 1.0000000000
-0.0103879999 0.0000000000 0.0824479982 1.0000000000
-0.0104000000 0.0000000000 0.0824389979 1.0000000000
-0.0104090003 0.0000000000 0.0824249983 1.0000000000
-0.0104210004 0.0000000000 0.0824180022 1.0000000000
-0.0104329996 0.0000000000 0.0824209973 1.0000000000
-0.0104459999 0.0000000000 0.0824230015 1.0000000000
-0.0104550002 0.0000000000 0.0824000016 1.0000000000
-0.0104639996 0.0000000000 0.0823680013 1.0000000000
-0.0104740001 0.0000000000 0.0823609978 1.0000000000
-0.0104870005 0.0000000000 0.0823590010 1.0000000000
-0.0104980003 0.0000000000 0.0823599994 1.0000000000
-0.0105100004 0.0000000000 0.0823530033 1.0000000000
-0.0105200000 0.0000000000 0.0823429972 1.0000000000
-0.0105320001 0.0000000000 0.0823360011 1.0000000000
-0.0105419997 0.0000000000 0.0823260024 1.0000000000
-0.0105520003 0.0000000000 0.0823049992 1.0000000000
-0.0105630001 0.0000000000 0.0822929963 1.0000000000
-0.0105750002 0.0000000000 0.0822890028 1.0000000000
-0.0105870003 0.0000000000 0.0822940022 1.0000000000
-0.0105990004 0.0000000000 0.0822909996 1.0000000000
-0.0106090000 0.0000000000 0.0822819993 1.0000000000
-0.0106199998 0.0000000000 0.0822660029 1.0000000000
-0.0106300004 0.0000000000 0.0822570026 1.0000000000
-0.0106419995 0.0000000000 0.0822530016 1.0000000000
-0.0106520001 0.0000000000 0.0822400004 1.0000000000
-0.0106629999 0.0000000000 0.0822229981 1.0000000000
-0.0106739998 0.0000000000 0.0822179988 1.0000000000
-0.0106849996 0.0000000000 0.0822129995 1.0000000000
-0.0106969997 0.0000000000 0.0822070017 1.0000000000
-0.0107079996 0.0000000000 0.0822039992 1.0000000000
-0.0107190004 0.0000000000 0.0821980014 1.0000000000
-0.0107300002 0.0000000000 0.0821869969 1.0000000000
-0.0107410001 0.0000000000 0.0821740031 1.0000000000
-0.0107509997 0.0000000000 0.0821610019 1.0000000000
-0.0107620005 0.0000000000 0.0821529999 1.0000000000
-0.0107739996 0.0000000000 0.0821470022 1.0000000000
-0.0107850004 0.0000000000 0.0821420029 1.0000000000
-0.0107960002 0.0000000000 0.0821300000 1.0000000000
-0.0108059999 0.0000000000 0.0821169987 1.0000000000
-0.0108169997 0.0000000000 0.0821089968 1.0000000000
-0.0108289998 0.0000000000 0.0821050033 1.0000000000
-0.0108399997 0.0000000000 0.0820949972 1.0000000000
-0.0108490000 0.0000000000 0.0820780024 1.0000000000
-0.0108599998 0.0000000000 0.0820669979 1.0000000000
-0.0108719999 0.0000000000 0.0820680037 1.0000000000
-0.0108840000 0.0000000000 0.0820650011 1.0000000000
-0.0108939996 0.0000000000 0.0820510015 1.0000000000
-0.0109050004 0.0000000000 0.0820349976 1.0000000000
-0.0109150000 0.0000000000 0.0820330009 1.0000000000
-0.0109280003 0.0000000000 0.0820389986 1.0000000000
-0.0109400004 0.0000000000 0.0820370018 1.0000000000
-0.0109510003 0.0000000000 0.0820259973 1.0000000000
-0.0109620001 0.0000000000 0.0820219964 1.0000000000
-0.0109740002 0.0000000000 0.0820240006 1.0000000000
-0.0109850001 0.0000000000 0.0820209980 1.0000000000
-0.0109970002 0.0000000000 0.0820140019 1.0000000000
-0.0110090002 0.0000000000 0.0820169970 1.0000000000
-0.0110210003 0.0000000000 0.0820169970 1.0000000000
-0.0110330004 0.0000000000 0.0820169970 1.0000000000
-0.0110449996 0.0000000000 0.0820190012 1.0000000000
-0.0110569997 0.0000000000 0.0820190012 1.0000000000
-0.0110689998 0.0000000000 0.0820169970 1.0000000000
-0.0110809999 0.0000000000 0.0820199996 1.0000000000
-0.0110930000 0.0000000000 0.0820240006 1.0000000000
-0.0111050000 0.0000000000 0.0820230022 1.0000000000
-0.0111159999 0.0000000000 0.0820169970 1.0000000000
-0.0111269997 0.0000000000 0.0820130035 1.0000000000
-0.0111400001 0.0000000000 0.0820180029 1.0000000000
-0.0111520002 0.0000000000 0.0820230022 1.0000000000
-0.0111640003 0.0000000000 0.0820259973 1.0000000000
-0.0111760003 0.0000000000 0.0820259973 1.0000000000
-0.0111880004 0.0000000000 0.0820219964 1.0000000000
-0.0111990003 0.0000000000 0.0820209980 1.0000000000
-0.0112119997 0.0000000000 0.0820219964 1.0000000000
-0.0112239998 0.0000000000 0.0820259973 1.0000000000
-0.0112370001 0.0000000000 0.0820339993 1.0000000000
-0.0112490002 0.0000000000 0.0820410028 1.0000000000
-0.0112610003 0.0000000000 0.0820399970 1.0000000000
-0.0112720001 0.0000000000 0.0820289999 1.0000000000
-0.0112830000 0.0000000000 0.0820180029 1.0000000000
-0.0112939999 0.0000000000 0.0820190012 1.0000000000
-0.0113070002 0.0000000000 0.0820180029 1.0000000000
-0.0113180000 0.0000000000 0.0820209980 1.0000000000
-0.0113310004 0.0000000000 0.0820249990 1.0000000000
-0.0113430005 0.0000000000 0.0820299983 1.0000000000
-0.0113559999 0.0000000000 0.0820339993 1.0000000000
-0.0113679999 0.0000000000 0.0820339993 1.0000000000
-0.0113800000 0.0000000000 0.0820309967 1.0000000000
-0.0113909999 0.0000000000 0.0820309967 1.0000000000
-0.0114030000 0.0000000000 0.0820349976 1.0000000000
-0.0114160003 0.0000000000 0.0820420012 1.0000000000
-0.0114280004 0.0000000000 0.0820370018 1.0000000000
-0.0114390003 0.0000000000 0.0820309967 1.0000000000
-0.0114510003 0.0000000000 0.0820270032 1.0000000000
-0.0114620002 0.0000000000 0.0820289999 1.0000000000
-0.0114749996 0.0000000000 0.0820360035 1.0000000000
-0.0114869997 0.0000000000 0.0820399970 1.0000000000
-0.0114989998 0.0000000000 0.0820360035 1.0000000000
-0.0115099996 0.0000000000 0.0820320025 1.0000000000
-0.0115219997 0.0000000000 0.0820289999 1.0000000000
-0.0115329996 0.0000000000 0.0820289999 1.0000000000
-0.0115449997 0.0000000000 0.0820270032 1.0000000000
-0.0115569998 0.0000000000 0.0820249990 1.0000000000
-0.0115700001 0.0000000000 0.0820289999 1.0000000000
-0.0115820002 0.0000000000 0.0820389986 1.0000000000
-0.0115949996 0.0000000000 0.0820380002 1.0000000000
-0.0116050001 0.0000000000 0.0820280015 1.0000000000
-0.0116149997 0.0000000000 0.0820190012 1.0000000000
-0.0116280001 0.0000000000 0.0820230022 1.0000000000
-0.0116410004 0.0000000000 0.0820339993 1.0000000000
-0.0116539998 0.0000000000 0.0820420012 1.0000000000
-0.0116649996 0.0000000000 0.0820370018 1.0000000000
-0.0116760004 0.0000000000 0.0820289999 1.0000000000
-0.0116889998 0.0000000000 0.0820309967 1.0000000000
-0.0117009999 0.0000000000 0.0820370018 1.0000000000
-0.0117140003 0.0000000000 0.0820370018 1.0000000000
-0.0117239999 0.0000000000 0.0820349976 1.0000000000
-0.0117360000 0.0000000000 0.0820339993 1.0000000000
-0.0117480000 0.0000000000 0.0820320025 1.0000000000
-0.0117610004 0.0000000000 0.0820330009 1.0000000000
-0.0117729995 0.0000000000 0.0820410028 1.0000000000
-0.0117849996 0.0000000000 0.0820449963 1.0000000000
-0.0117980000 0.0000000000 0.0820500031 1.0000000000
-0.0118100001 0.0000000000 0.0820470005 1.0000000000
-0.0118199997 0.0000000000 0.0820389986 1.0000000000
-0.0118319998 0.0000000000 0.0820320025 1.0000000000
-0.0118429996 0.0000000000 0.0820299983 1.0000000000
-0.0118540004 0.0000000000 0.0820289999 1.0000000000
-0.0118659995 0.0000000000 0.0820289999 1.0000000000
-0.0118789999 0.0000000000 0.0820289999 1.0000000000
-0.0118899997 0.0000000000 0.0820309967 1.0000000000
-0.0119030001 0.0000000000 0.0820349976 1.0000000000
-0.0119160004 0.0000000000 0.0820410028 1.0000000000
-0.0119279996 0.0000000000 0.0820470005 1.0000000000
-0.0119399996 0.0000000000 0.0820470005 1.0000000000
-0.0119519997 0.0000000000 0.0820389986 1.0000000000
-0.0119620003 0.0000000000 0.0820349976 1.0000000000
-0.0119740004 0.0000000000 0.0820309967 1.0000000000
-0.0119860005 0.0000000000 0.0820309967 1.0000000000
-0.0119979996 0.0000000000 0.0820370018 1.0000000000
-0.0120110000 0.0000000000 0.0820449963 1.0000000000
-0.0120230000 0.0000000000 0.0820449963 1.0000000000
-0.0120350001 0.0000000000 0.0820429996 1.0000000000
-0.0120470002 0.0000000000 0.0820389986 1.0000000000
-0.0120569998 0.0000000000 0.0820349976 1.0000000000
-0.0120700002 0.0000000000 0.0820320025 1.0000000000
-0.0120810000 0.0000000000 0.0820370018 1.0000000000
-0.0120930001 0.0000000000 0.0820380002 1.0000000000
-0.0121050002 0.0000000000 0.0820349976 1.0000000000
-0.0121170003 0.0000000000 0.0820360035 1.0000000000
-0.0121290004 0.0000000000 0.0820389986 1.0000000000
-0.0121419998 0.0000000000 0.0820420012 1.0000000000
-0.0121539999 0.0000000000 0.0820479989 1.0000000000
-0.0121660000 0.0000000000 0.0820479989 1.0000000000
-0.0121769998 0.0000000000 0.0820429996 1.0000000000
-0.0121889999 0.0000000000 0.0820389986 1.0000000000
-0.0122010000 0.0000000000 0.0820389986 1.0000000000
-0.0122130001 0.0000000000 0.0820410028 1.0000000000
-0.0122250002 0.0000000000 0.0820420012 1.0000000000
-0.0122360000 0.0000000000 0.0820399970 1.0000000000
-0.0122480001 0.0000000000 0.0820410028 1.0000000000
-0.0122600002 0.0000000000 0.0820380002 1.0000000000
-0.0122710001 0.0000000000 0.0820339993 1.0000000000
-0.0122840004 0.0000000000 0.0820339993 1.0000000000
-0.0122950003 0.0000000000 0.0820370018 1.0000000000
-0.0123079997 0.0000000000 0.0820389986 1.0000000000
