VERSION 0.7
FIELDS x y z intensity
SIZE 4 4 4 4
TYPE F F F F
COUNT 1 1 1 1
WIDTH 1226
HEIGHT 1
VIEWPOINT 0.0 0.0 0.0 1.0 0.0 0.0 0.0
POINTS 1226
DATA ascii
0.0121769998 0.0000000000 0.0817539990 1.0000000000
0.0121670002 0.0000000000 0.0817650035 1.0000000000
0.0121550001 0.0000000000 0.0817650035 1.0000000000
0.0121419998 0.0000000000 0.0817580000 1.0000000000
0.0121299997 0.0000000000 0.0817570016 1.0000000000
0.0121179996 0.0000000000 0.0817589983 1.0000000000
0.0121069998 0.0000000000 0.0817580000 1.0000000000
0.0120949997 0.0000000000 0.0817549974 1.0000000000
0.0120839998 0.0000000000 0.0817599967 1.0000000000
0.0120730000 0.0000000000 0.0817660019 1.0000000000
0.0120599996 0.0000000000 0.0817629993 1.0000000000
0.0120470002 0.0000000000 0.0817539990 1.0000000000
0.0120350001 0.0000000000 0.0817530006 1.0000000000
0.0120240003 0.0000000000 0.0817570016 1.0000000000
0.0120130004 0.0000000000 0.0817599967 1.0000000000
0.0119989999 0.0000000000 0.0817570016 1.0000000000
0.0119890003 0.0000000000 0.0817599967 1.0000000000
0.0119780004 0.0000000000 0.0817639977 1.0000000000
0.0119660003 0.0000000000 0.0817610025 1.0000000000
0.0119540002 0.0000000000 0.0817629993 1.0000000000
0.0119430004 0.0000000000 0.0817670003 1.0000000000
0.0119300000 0.0000000000 0.0817639977 1.0000000000
0.0119190002 0.0000000000 0.0817629993 1.0000000000
0.0119059999 0.0000000000 0.0817689970 1.0000000000
0.0118969996 0.0000000000 0.0817779973 1.0000000000
0.0118850004 0.0000000000 0.0817809999 1.0000000000
0.0118730003 0.0000000000 0.0817750022 1.0000000000
0.0118589997 0.0000000000 0.0817679986 1.0000000000
0.0118479999 0.0000000000 0.0817679986 1.0000000000
0.0118370000 0.0000000000 0.0817710012 1.0000000000
0.0118249999 0.0000000000 0.0817729980 1.0000000000
0.0118129998 0.0000000000 0.0817719996 1.0000000000
0.0118009998 0.0000000000 0.0817710012 1.0000000000
0.0117880004 0.0000000000 0.0817639977 1.0000000000
0.0117760003 0.0000000000 0.0817580000 1.0000000000
0.0117640002 0.0000000000 0.0817560032 1.0000000000
0.0117520001 0.0000000000 0.0817580000 1.0000000000
0.0117410002 0.0000000000 0.0817629993 1.0000000000
0.0117300004 0.0000000000 0.0817679986 1.0000000000
0.0117180003 0.0000000000 0.0817639977 1.0000000000
0.0117050000 0.0000000000 0.0817589983 1.0000000000
0.0116929999 0.0000000000 0.0817539990 1.0000000000
0.0116809998 0.0000000000 0.0817549974 1.0000000000
0.0116689997 0.0000000000 0.0817560032 1.0000000000
0.0116579998 0.0000000000 0.0817599967 1.0000000000
0.0116459997 0.0000000000 0.0817639977 1.0000000000
0.0116360001 0.0000000000 0.0817679986 1.0000000000
0.0116240000 0.0000000000 0.0817689970 1.0000000000
0.0116119999 0.0000000000 0.0817660019 1.0000000000
0.0115999999 0.0000000000 0.0817639977 1.0000000000
0.0115870005 0.0000000000 0.0817570016 1.0000000000
0.0115750004 0.0000000000 0.0817549974 1.0000000000
0.0115630003 0.0000000000 0.0817580000 1.0000000000
0.0115499999 0.0000000000 0.0817560032 1.0000000000
0.0115409996 0.0000000000 0.0817670003 1.0000000000
0.0115289995 0.0000000000 0.0817689970 1.0000000000
0.0115160001 0.0000000000 0.0817599967 1.0000000000
0.0115040001 0.0000000000 0.0817520022 1.0000000000
0.0114920000 0.0000000000 0.0817499980 1.0000000000
0.0114789996 0.0000000000 0.0817549974 1.0000000000
0.0114690000 0.0000000000 0.0817629993 1.0000000000
0.0114580002 0.0000000000 0.0817639977 1.0000000000
0.0114460001 0.0000000000 0.0817679986 1.0000000000
0.0114350002 0.0000000000 0.0817719996 1.0000000000
0.0114230001 0.0000000000 0.0817679986 1.0000000000
0.0114089996 0.0000000000 0.0817629993 1.0000000000
0.0114000002 0.0000000000 0.0817710012 1.0000000000
0.0113869999 0.0000000000 0.0817729980 1.0000000000
0.0113749998 0.0000000000 0.0817639977 1.0000000000
0.0113610001 0.0000000000 0.0817570016 1.0000000000
0.0113509996 0.0000000000 0.0817589983 1.0000000000
0.0113390004 0.0000000000 0.0817660019 1.0000000000
0.0113279996 0.0000000000 0.0817670003 1.0000000000
0.0113150002 0.0000000000 0.0817660019 1.0000000000
0.0113059999 0.0000000000 0.0817760006 1.0000000000
0.0112929996 0.0000000000 0.0817819983 1.0000000000
0.0112819998 0.0000000000 0.0817719996 1.0000000000
0.0112680001 0.0000000000 0.0817660019 1.0000000000
0.0112579996 0.0000000000 0.0817750022 1.0000000000
0.0112450002 0.0000000000 0.0817729980 1.0000000000
0.0112340003 0.0000000000 0.0817700028 1.0000000000
0.0112220002 0.0000000000 0.0817700028 1.0000000000
0.0112110004 0.0000000000 0.0817760006 1.0000000000
0.0111999996 0.0000000000 0.0817859992 1.0000000000
0.0111889997 0.0000000000 0.0817900002 1.0000000000
0.0111750001 0.0000000000 0.0817809999 1.0000000000
0.0111640003 0.0000000000 0.0817779973 1.0000000000
0.0111520002 0.0000000000 0.0817790031 1.0000000000
0.0111410003 0.0000000000 0.0817790031 1.0000000000
0.0111280000 0.0000000000 0.0817800015 1.0000000000
0.0111189997 0.0000000000 0.0817940012 1.0000000000
0.0111069996 0.0000000000 0.0818049982 1.0000000000
0.0110970000 0.0000000000 0.0818120018 1.0000000000
0.0110849999 0.0000000000 0.0818160027 1.0000000000
0.0110740000 0.0000000000 0.0818200037 1.0000000000
0.0110619999 0.0000000000 0.0818229988 1.0000000000
0.0110520003 0.0000000000 0.0818300024 1.0000000000
0.0110390000 0.0000000000 0.0818319991 1.0000000000
0.0110290004 0.0000000000 0.0818390027 1.0000000000
0.0110189999 0.0000000000 0.0818540007 1.0000000000
0.0110090002 0.0000000000 0.0818630010 1.0000000000
0.0109980004 0.0000000000 0.0818720013 1.0000000000
0.0109879998 0.0000000000 0.0818869993 1.0000000000
0.0109770000 0.0000000000 0.0819059983 1.0000000000
0.0109679997 0.0000000000 0.0819199979 1.0000000000
0.0109559996 0.0000000000 0.0819279999 1.0000000000
0.0109460000 0.0000000000 0.0819370002 1.0000000000
0.0109339999 0.0000000000 0.0819419995 1.0000000000
0.0109240003 0.0000000000 0.0819440037 1.0000000000
0.0109130004 0.0000000000 0.0819540024 1.0000000000
0.0109029999 0.0000000000 0.0819730014 1.0000000000
0.0108920000 0.0000000000 0.0819799975 1.0000000000
0.0108810002 0.0000000000 0.0819879994 1.0000000000
0.0108709997 0.0000000000 0.0820010006 1.0000000000
0.0108610000 0.0000000000 0.0820150003 1.0000000000
0.0108510004 0.0000000000 0.0820320025 1.0000000000
0.0108399997 0.0000000000 0.0820380002 1.0000000000
0.0108270003 0.0000000000 0.0820429996 1.0000000000
0.0108190002 0.0000000000 0.0820569992 1.0000000000
0.0108070001 0.0000000000 0.0820700005 1.0000000000
0.0107969996 0.0000000000 0.0820790008 1.0000000000
0.0107859997 0.0000000000 0.0820849985 1.0000000000
0.0107749999 0.0000000000 0.0820949972 1.0000000000
0.0107640000 0.0000000000 0.0821129978 1.0000000000
0.0107549997 0.0000000000 0.0821259990 1.0000000000
0.0107420003 0.0000000000 0.0821219981 1.0000000000
0.0107310005 0.0000000000 0.0821219981 1.0000000000
0.0107190004 0.0000000000 0.0821290016 1.0000000000
0.0107089998 0.0000000000 0.0821340010 1.0000000000
0.0106980000 0.0000000000 0.0821430013 1.0000000000
0.0106880004 0.0000000000 0.0821660012 1.0000000000
0.0106769996 0.0000000000 0.0821830034 1.0000000000
0.0106680002 0.0000000000 0.0821959972 1.0000000000
0.0106570004 0.0000000000 0.0822049975 1.0000000000
0.0106450003 0.0000000000 0.0822080001 1.0000000000
0.0106330002 0.0000000000 0.0822150037 1.0000000000
0.0106239999 0.0000000000 0.0822319984 1.0000000000
0.0106159998 0.0000000000 0.0822630003 1.0000000000
0.0106060002 0.0000000000 0.0822789967 1.0000000000
0.0105929999 0.0000000000 0.0822860003 1.0000000000
0.0105830003 0.0000000000 0.0822919980 1.0000000000
0.0105699999 0.0000000000 0.0822940022 1.0000000000
0.0105600003 0.0000000000 0.0823019966 1.0000000000
0.0105499998 0.0000000000 0.0823149979 1.0000000000
0.0105400002 0.0000000000 0.0823339969 1.0000000000
0.0105280001 0.0000000000 0.0823440030 1.0000000000
0.0105180005 0.0000000000 0.0823530033 1.0000000000
0.0105069997 0.0000000000 0.0823569968 1.0000000000
0.0104949996 0.0000000000 0.0823620036 1.0000000000
0.0104839997 0.0000000000 0.0823780000 1.0000000000
0.0104750004 0.0000000000 0.0823919997 1.0000000000
0.0104630003 0.0000000000 0.0823939964 1.0000000000
0.0104529997 0.0000000000 0.0824059993 1.0000000000
0.0104409996 0.0000000000 0.0824220031 1.0000000000
0.0104310000 0.0000000000 0.0824299976 1.0000000000
0.0104189999 0.0000000000 0.0824339986 1.0000000000
0.0104090003 0.0000000000 0.0824439973 1.0000000000
0.0103960000 0.0000000000 0.0824469998 1.0000000000
0.0103860004 0.0000000000 0.0824550018 1.0000000000
0.0103740003 0.0000000000 0.0824650005 1.0000000000
0.0103650000 0.0000000000 0.0824830011 1.0000000000
0.0103540001 0.0000000000 0.0824989974 1.0000000000
0.0103449998 0.0000000000 0.0825129971 1.0000000000
0.0103329998 0.0000000000 0.0825269967 1.0000000000
0.0103240004 0.0000000000 0.0825409964 1.0000000000
0.0103129996 0.0000000000 0.0825479999 1.0000000000
0.0103019997 0.0000000000 0.0825560018 1.0000000000
0.0102899997 0.0000000000 0.0825690031 1.0000000000
0.0102800000 0.0000000000 0.0825790018 1.0000000000
0.0102680000 0.0000000000 0.0825890005 1.0000000000
0.0102589997 0.0000000000 0.0826010033 1.0000000000
0.0102460003 0.0000000000 0.0826060027 1.0000000000
0.0102359997 0.0000000000 0.0826100037 1.0000000000
0.0102249999 0.0000000000 0.0826200023 1.0000000000
0.0102140000 0.0000000000 0.0826340020 1.0000000000
0.0102030002 0.0000000000 0.0826499984 1.0000000000
0.0101939999 0.0000000000 0.0826660022 1.0000000000
0.0101819998 0.0000000000 0.0826689973 1.0000000000
0.0101709999 0.0000000000 0.0826779976 1.0000000000
0.0101600001 0.0000000000 0.0826900005 1.0000000000
0.0101500005 0.0000000000 0.0827020034 1.0000000000
0.0101389997 0.0000000000 0.0827130005 1.0000000000
0.0101279998 0.0000000000 0.0827189982 1.0000000000
0.0101150004 0.0000000000 0.0827270001 1.0000000000
0.0101060001 0.0000000000 0.0827419981 1.0000000000
0.0100959996 0.0000000000 0.0827580020 1.0000000000
0.0100860000 0.0000000000 0.0827770010 1.0000000000
0.0100750001 0.0000000000 0.0827979967 1.0000000000
0.0100649996 0.0000000000 0.0828059986 1.0000000000
0.0100530004 0.0000000000 0.0828080028 1.0000000000
0.0100419996 0.0000000000 0.0828140005 1.0000000000
0.0100299995 0.0000000000 0.0828249976 1.0000000000
0.0100210002 0.0000000000 0.0828410015 1.0000000000
0.0100090001 0.0000000000 0.0828569978 1.0000000000
0.0099999998 0.0000000000 0.0828720033 1.0000000000
0.0099889999 0.0000000000 0.0828799978 1.0000000000
0.0099769998 0.0000000000 0.0828830004 1.0000000000
0.0099630002 0.0000000000 0.0828720033 1.0000000000
0.0099499999 0.0000000000 0.0828540027 1.0000000000
0.0099370005 0.0000000000 0.0828450024 1.0000000000
0.0099750003 0.0000000000 0.0833240002 1.0000000000
0.0099569997 0.0000000000 0.0832820013 1.0000000000
0.0099459998 0.0000000000 0.0832810029 1.0000000000
0.0074620000 0.0000000000 0.0829270035 1.0000000000
0.0074490001 0.0000000000 0.0829280019 1.0000000000
0.0074359998 0.0000000000 0.0829200000 1.0000000000
0.0074240002 0.0000000000 0.0829119980 1.0000000000
0.0074109999 0.0000000000 0.0829000026 1.0000000000
0.0073980000 0.0000000000 0.0828899965 1.0000000000
0.0073850001 0.0000000000 0.0828830004 1.0000000000
0.0073730000 0.0000000000 0.0828740001 1.0000000000
0.0073600002 0.0000000000 0.0828669965 1.0000000000
0.0073469998 0.0000000000 0.0828569978 1.0000000000
0.0073340000 0.0000000000 0.0828460008 1.0000000000
0.0073210001 0.0000000000 0.0828310028 1.0000000000
0.0073070000 0.0000000000 0.0828059986 1.0000000000
0.0072940001 0.0000000000 0.0827929974 1.0000000000
0.0072809998 0.0000000000 0.0827850029 1.0000000000
0.0072679999 0.0000000000 0.0827710032 1.0000000000
0.0072530000 0.0000000000 0.0827570036 1.0000000000
0.0072420002 0.0000000000 0.0827469975 1.0000000000
0.0072280001 0.0000000000 0.0827369988 1.0000000000
0.0072160000 0.0000000000 0.0827220008 1.0000000000
0.0072010001 0.0000000000 0.0827020034 1.0000000000
0.0071890000 0.0000000000 0.0826909989 1.0000000000
0.0071749999 0.0000000000 0.0826819986 1.0000000000
0.0071640001 0.0000000000 0.0826719999 1.0000000000
0.0071490002 0.0000000000 0.0826589987 1.0000000000
0.0071379999 0.0000000000 0.0826499984 1.0000000000
0.0071240002 0.0000000000 0.0826409981 1.0000000000
0.0071120001 0.0000000000 0.0826340020 1.0000000000
0.0070980000 0.0000000000 0.0826210007 1.0000000000
0.0070859999 0.0000000000 0.0826079994 1.0000000000
0.0070719998 0.0000000000 0.0825870037 1.0000000000
0.0070590000 0.0000000000 0.0825690031 1.0000000000
0.0070469999 0.0000000000 0.0825600028 1.0000000000
0.0070340000 0.0000000000 0.0825499967 1.0000000000
0.0070199999 0.0000000000 0.0825320035 1.0000000000
0.0070079998 0.0000000000 0.0825219974 1.0000000000
0.0069949999 0.0000000000 0.0825150013 1.0000000000
0.0069820001 0.0000000000 0.0824960023 1.0000000000
0.0069670002 0.0000000000 0.0824839994 1.0000000000
0.0069550001 0.0000000000 0.0824680030 1.0000000000
0.0069419998 0.0000000000 0.0824529976 1.0000000000
0.0069300001 0.0000000000 0.0824510008 1.0000000000
0.0069169998 0.0000000000 0.0824339986 1.0000000000
0.0069030002 0.0000000000 0.0824149996 1.0000000000
0.0068890001 0.0000000000 0.0824040025 1.0000000000
0.0068780002 0.0000000000 0.0824019983 1.0000000000
0.0068649999 0.0000000000 0.0823900029 1.0000000000
0.0068520000 0.0000000000 0.0823730007 1.0000000000
0.0068379999 0.0000000000 0.0823599994 1.0000000000
0.0068270001 0.0000000000 0.0823540017 1.0000000000
0.0068140002 0.0000000000 0.0823479965 1.0000000000
0.0068009999 0.0000000000 0.0823369995 1.0000000000
0.0067870002 0.0000000000 0.0823199973 1.0000000000
0.0067750001 0.0000000000 0.0823080018 1.0000000000
0.0067619998 0.0000000000 0.0822950006 1.0000000000
0.0067500002 0.0000000000 0.0822919980 1.0000000000
0.0067369998 0.0000000000 0.0822789967 1.0000000000
0.0067240000 0.0000000000 0.0822660029 1.0000000000
0.0067099999 0.0000000000 0.0822549984 1.0000000000
0.0066990000 0.0000000000 0.0822509974 1.0000000000
0.0066849999 0.0000000000 0.0822409987 1.0000000000
0.0066729998 0.0000000000 0.0822279975 1.0000000000
0.0066590002 0.0000000000 0.0822110027 1.0000000000
0.0066470001 0.0000000000 0.0822009966 1.0000000000
0.0066340002 0.0000000000 0.0821830034 1.0000000000
0.0066200001 0.0000000000 0.0821650028 1.0000000000
0.0066080000 0.0000000000 0.0821549967 1.0000000000
0.0065959999 0.0000000000 0.0821589977 1.0000000000
0.0065830001 0.0000000000 0.0821589977 1.0000000000
0.0065700002 0.0000000000 0.0821370035 1.0000000000
0.0065549999 0.0000000000 0.0821100026 1.0000000000
0.0065430002 0.0000000000 0.0820960030 1.0000000000
0.0065299999 0.0000000000 0.0820979998 1.0000000000
0.0065190000 0.0000000000 0.0820939988 1.0000000000
0.0065049999 0.0000000000 0.0820610002 1.0000000000
0.0064909998 0.0000000000 0.0820339993 1.0000000000
0.0064780000 0.0000000000 0.0820270032 1.0000000000
0.0064650001 0.0000000000 0.0820100009 1.0000000000
0.0064510000 0.0000000000 0.0819969997 1.0000000000
0.0064400001 0.0000000000 0.0819969997 1.0000000000
0.0064269998 0.0000000000 0.0819979981 1.0000000000
0.0064160000 0.0000000000 0.0819979981 1.0000000000
0.0064019999 0.0000000000 0.0819879994 1.0000000000
0.0063910000 0.0000000000 0.0819770023 1.0000000000
0.0063780001 0.0000000000 0.0819670036 1.0000000000
0.0063649998 0.0000000000 0.0819509998 1.0000000000
0.0063499999 0.0000000000 0.0819249973 1.0000000000
0.0063379998 0.0000000000 0.0819130018 1.0000000000
0.0063240002 0.0000000000 0.0819019973 1.0000000000
0.0063129999 0.0000000000 0.0818929970 1.0000000000
0.0062989998 0.0000000000 0.0818820000 1.0000000000
0.0062879999 0.0000000000 0.0818739980 1.0000000000
0.0062739998 0.0000000000 0.0818670020 1.0000000000
0.0062630000 0.0000000000 0.0818680003 1.0000000000
0.0062500001 0.0000000000 0.0818680003 1.0000000000
0.0062389998 0.0000000000 0.0818609968 1.0000000000
0.0062259999 0.0000000000 0.0818440020 1.0000000000
0.0062130000 0.0000000000 0.0818340033 1.0000000000
0.0062010000 0.0000000000 0.0818269998 1.0000000000
0.0061889999 0.0000000000 0.0818269998 1.0000000000
0.0061760000 0.0000000000 0.0818300024 1.0000000000
0.0061659999 0.0000000000 0.0818379968 1.0000000000
0.0061530001 0.0000000000 0.0818419978 1.0000000000
0.0061420002 0.0000000000 0.0818390027 1.0000000000
0.0061280001 0.0000000000 0.0818319991 1.0000000000
0.0061169998 0.0000000000 0.0818340033 1.0000000000
0.0061059999 0.0000000000 0.0818379968 1.0000000000
0.0060939998 0.0000000000 0.0818469971 1.0000000000
0.0060810000 0.0000000000 0.0818509981 1.0000000000
0.0060700001 0.0000000000 0.0818450004 1.0000000000
0.0060569998 0.0000000000 0.0818360001 1.0000000000
0.0060450002 0.0000000000 0.0818340033 1.0000000000
0.0060339998 0.0000000000 0.0818390027 1.0000000000
0.0060220002 0.0000000000 0.0818430036 1.0000000000
0.0060100001 0.0000000000 0.0818440020 1.0000000000
0.0059980000 0.0000000000 0.0818400010 1.0000000000
0.0059850002 0.0000000000 0.0818379968 1.0000000000
0.0059739999 0.0000000000 0.0818450004 1.0000000000
0.0059620002 0.0000000000 0.0818519965 1.0000000000
0.0059500001 0.0000000000 0.0818530023 1.0000000000
0.0059380000 0.0000000000 0.0818549991 1.0000000000
0.0059260000 0.0000000000 0.0818519965 1.0000000000
0.0059130001 0.0000000000 0.0818469971 1.0000000000
0.0059019998 0.0000000000 0.0818480030 1.0000000000
0.0058889999 0.0000000000 0.0818469971 1.0000000000
0.0058780001 0.0000000000 0.0818499997 1.0000000000
0.0058650002 0.0000000000 0.0818480030 1.0000000000
0.0058530001 0.0000000000 0.0818430036 1.0000000000
0.0058410000 0.0000000000 0.0818459988 1.0000000000
0.0058300002 0.0000000000 0.0818519965 1.0000000000
0.0058169998 0.0000000000 0.0818480030 1.0000000000
0.0058050002 0.0000000000 0.0818430036 1.0000000000
0.0057919999 0.0000000000 0.0818400010 1.0000000000
0.0057810000 0.0000000000 0.0818400010 1.0000000000
0.0057680001 0.0000000000 0.0818319991 1.0000000000
0.0057569998 0.0000000000 0.0818310007 1.0000000000
0.0057440000 0.0000000000 0.0818390027 1.0000000000
0.0057330001 0.0000000000 0.0818459988 1.0000000000
0.0057210000 0.0000000000 0.0818450004 1.0000000000
0.0057089999 0.0000000000 0.0818440020 1.0000000000
0.0056960001 0.0000000000 0.0818480030 1.0000000000
0.0056860000 0.0000000000 0.0818490013 1.0000000000
0.0056730001 0.0000000000 0.0818440020 1.0000000000
0.0056610000 0.0000000000 0.0818430036 1.0000000000
0.0056489999 0.0000000000 0.0818430036 1.0000000000
0.0056369998 0.0000000000 0.0818409994 1.0000000000
0.0056250002 0.0000000000 0.0818379968 1.0000000000
0.0056130001 0.0000000000 0.0818419978 1.0000000000
0.0055999998 0.0000000000 0.0818480030 1.0000000000
0.0055889999 0.0000000000 0.0818490013 1.0000000000
0.0055760001 0.0000000000 0.0818490013 1.0000000000
0.0055650002 0.0000000000 0.0818480030 1.0000000000
0.0055530001 0.0000000000 0.0818430036 1.0000000000
0.0055410000 0.0000000000 0.0818430036 1.0000000000
0.0055290000 0.0000000000 0.0818519965 1.0000000000
0.0055180001 0.0000000000 0.0818580016 1.0000000000
0.0055049998 0.0000000000 0.0818530023 1.0000000000
0.0054930001 0.0000000000 0.0818450004 1.0000000000
0.0054810001 0.0000000000 0.0818440020 1.0000000000
0.0054690000 0.0000000000 0.0818499997 1.0000000000
0.0054560001 0.0000000000 0.0818469971 1.0000000000
0.0054449998 0.0000000000 0.0818419978 1.0000000000
0.0054310001 0.0000000000 0.0818400010 1.0000000000
0.0054210001 0.0000000000 0.0818409994 1.0000000000
0.0054070000 0.0000000000 0.0818409994 1.0000000000
0.0053969999 0.0000000000 0.0818419978 1.0000000000
0.0053829998 0.0000000000 0.0818390027 1.0000000000
0.0053730002 0.0000000000 0.0818430036 1.0000000000
0.0053610001 0.0000000000 0.0818419978 1.0000000000
0.0053480002 0.0000000000 0.0818369985 1.0000000000
0.0053349999 0.0000000000 0.0818390027 1.0000000000
0.0053249998 0.0000000000 0.0818499997 1.0000000000
0.0053130002 0.0000000000 0.0818530023 1.0000000000
0.0053010001 0.0000000000 0.0818459988 1.0000000000
0.0052870000 0.0000000000 0.0818400010 1.0000000000
0.0052769999 0.0000000000 0.0818459988 1.0000000000
0.0052640000 0.0000000000 0.0818469971 1.0000000000
0.0052530002 0.0000000000 0.0818450004 1.0000000000
0.0052399999 0.0000000000 0.0818450004 1.0000000000
0.0052280002 0.0000000000 0.0818450004 1.0000000000
0.0052160001 0.0000000000 0.0818409994 1.0000000000
0.0052040000 0.0000000000 0.0818450004 1.0000000000
0.0051910002 0.0000000000 0.0818469971 1.0000000000
0.0051810001 0.0000000000 0.0818480030 1.0000000000
0.0051670000 0.0000000000 0.0818480030 1.0000000000
0.0051569999 0.0000000000 0.0818530023 1.0000000000
0.0051440001 0.0000000000 0.0818549991 1.0000000000
0.0051330002 0.0000000000 0.0818540007 1.0000000000
0.0051210001 0.0000000000 0.0818519965 1.0000000000
0.0051090000 0.0000000000 0.0818499997 1.0000000000
0.0050960002 0.0000000000 0.0818499997 1.0000000000
0.0050849998 0.0000000000 0.0818559974 1.0000000000
0.0050730002 0.0000000000 0.0818609968 1.0000000000
0.0050610001 0.0000000000 0.0818620026 1.0000000000
0.0050490000 0.0000000000 0.0818609968 1.0000000000
0.0050369999 0.0000000000 0.0818549991 1.0000000000
0.0050240001 0.0000000000 0.0818509981 1.0000000000
0.0050120000 0.0000000000 0.0818480030 1.0000000000
0.0049990001 0.0000000000 0.0818440020 1.0000000000
0.0049879998 0.0000000000 0.0818459988 1.0000000000
0.0049749999 0.0000000000 0.0818469971 1.0000000000
0.0049640001 0.0000000000 0.0818490013 1.0000000000
0.0049520000 0.0000000000 0.0818499997 1.0000000000
0.0049410001 0.0000000000 0.0818590000 1.0000000000
0.0049290000 0.0000000000 0.0818599984 1.0000000000
0.0049160002 0.0000000000 0.0818559974 1.0000000000
0.0049029998 0.0000000000 0.0818530023 1.0000000000
0.0048920000 0.0000000000 0.0818499997 1.0000000000
0.0048799999 0.0000000000 0.0818440020 1.0000000000
0.0048679998 0.0000000000 0.0818419978 1.0000000000
0.0048549999 0.0000000000 0.0818440020 1.0000000000
0.0048440001 0.0000000000 0.0818480030 1.0000000000
0.0048320000 0.0000000000 0.0818509981 1.0000000000
0.0048199999 0.0000000000 0.0818540007 1.0000000000
0.0048070000 0.0000000000 0.0818549991 1.0000000000
0.0047960002 0.0000000000 0.0818590000 1.0000000000
0.0047840001 0.0000000000 0.0818580016 1.0000000000
0.0047720000 0.0000000000 0.0818590000 1.0000000000
0.0047590001 0.0000000000 0.0818620026 1.0000000000
0.0047479998 0.0000000000 0.0818620026 1.0000000000
0.0047360002 0.0000000000 0.0818590000 1.0000000000
0.0047240001 0.0000000000 0.0818580016 1.0000000000
0.0047120000 0.0000000000 0.0818590000 1.0000000000
0.0046999999 0.0000000000 0.0818580016 1.0000000000
0.0046879998 0.0000000000 0.0818580016 1.0000000000
0.0046760002 0.0000000000 0.0818580016 1.0000000000
0.0046629999 0.0000000000 0.0818559974 1.0000000000
0.0046520000 0.0000000000 0.0818540007 1.0000000000
0.0046399999 0.0000000000 0.0818509981 1.0000000000
0.0046279998 0.0000000000 0.0818509981 1.0000000000
0.0046150000 0.0000000000 0.0818519965 1.0000000000
0.0046040001 0.0000000000 0.0818509981 1.0000000000
0.0045920000 0.0000000000 0.0818499997 1.0000000000
0.0045799999 0.0000000000 0.0818509981 1.0000000000
0.0045659998 0.0000000000 0.0818519965 1.0000000000
0.0045560002 0.0000000000 0.0818559974 1.0000000000
0.0045429999 0.0000000000 0.0818609968 1.0000000000
0.0045320000 0.0000000000 0.0818670020 1.0000000000
0.0045200000 0.0000000000 0.0818660036 1.0000000000
0.0045079999 0.0000000000 0.0818660036 1.0000000000
0.0044959998 0.0000000000 0.0818660036 1.0000000000
0.0044840002 0.0000000000 0.0818649977 1.0000000000
0.0044709998 0.0000000000 0.0818639994 1.0000000000
0.0044600000 0.0000000000 0.0818670020 1.0000000000
0.0044479999 0.0000000000 0.0818670020 1.0000000000
0.0044350000 0.0000000000 0.0818649977 1.0000000000
0.0044220001 0.0000000000 0.0818609968 1.0000000000
0.0044109998 0.0000000000 0.0818609968 1.0000000000
0.0043990002 0.0000000000 0.0818590000 1.0000000000
0.0043870001 0.0000000000 0.0818609968 1.0000000000
0.0043739998 0.0000000000 0.0818639994 1.0000000000
0.0043629999 0.0000000000 0.0818649977 1.0000000000
0.0043500001 0.0000000000 0.0818609968 1.0000000000
0.0043390002 0.0000000000 0.0818570033 1.0000000000
0.0043250001 0.0000000000 0.0818549991 1.0000000000
0.0043150000 0.0000000000 0.0818599984 1.0000000000
0.0043020002 0.0000000000 0.0818609968 1.0000000000
0.0042909998 0.0000000000 0.0818620026 1.0000000000
0.0042770002 0.0000000000 0.0818620026 1.0000000000
0.0042670001 0.0000000000 0.0818660036 1.0000000000
0.0042539998 0.0000000000 0.0818689987 1.0000000000
0.0042429999 0.0000000000 0.0818720013 1.0000000000
0.0042309999 0.0000000000 0.0818680003 1.0000000000
0.0042180000 0.0000000000 0.0818649977 1.0000000000
0.0042050001 0.0000000000 0.0818630010 1.0000000000
0.0041939998 0.0000000000 0.0818609968 1.0000000000
0.0041820002 0.0000000000 0.0818570033 1.0000000000
0.0041700001 0.0000000000 0.0818549991 1.0000000000
0.0041580000 0.0000000000 0.0818580016 1.0000000000
0.0041459999 0.0000000000 0.0818609968 1.0000000000
0.0041330000 0.0000000000 0.0818599984 1.0000000000
0.0041220002 0.0000000000 0.0818620026 1.0000000000
0.0041089999 0.0000000000 0.0818630010 1.0000000000
0.0040980000 0.0000000000 0.0818649977 1.0000000000
0.0040839999 0.0000000000 0.0818609968 1.0000000000
0.0040730000 0.0000000000 0.0818590000 1.0000000000
0.0040610000 0.0000000000 0.0818599984 1.0000000000
0.0040489999 0.0000000000 0.0818660036 1.0000000000
0.0040360000 0.0000000000 0.0818680003 1.0000000000
0.0040250001 0.0000000000 0.0818670020 1.0000000000
0.0040119998 0.0000000000 0.0818609968 1.0000000000
0.0040010000 0.0000000000 0.0818590000 1.0000000000
0.0039889999 0.0000000000 0.0818599984 1.0000000000
0.0039769998 0.0000000000 0.0818649977 1.0000000000
0.0039639999 0.0000000000 0.0818699971 1.0000000000
0.0039530001 0.0000000000 0.0818760023 1.0000000000
0.0039410000 0.0000000000 0.0818739980 1.0000000000
0.0039289999 0.0000000000 0.0818749964 1.0000000000
0.0039160000 0.0000000000 0.0818789974 1.0000000000
0.0039049999 0.0000000000 0.0818800032 1.0000000000
0.0038920001 0.0000000000 0.0818720013 1.0000000000
0.0038810000 0.0000000000 0.0818680003 1.0000000000
0.0038680001 0.0000000000 0.0818689987 1.0000000000
0.0038570000 0.0000000000 0.0818699971 1.0000000000
0.0038449999 0.0000000000 0.0818680003 1.0000000000
0.0038320001 0.0000000000 0.0818680003 1.0000000000
0.0038200000 0.0000000000 0.0818660036 1.0000000000
0.0038079999 0.0000000000 0.0818630010 1.0000000000
0.0037950000 0.0000000000 0.0818670020 1.0000000000
0.0037839999 0.0000000000 0.0818729997 1.0000000000
0.0037720001 0.0000000000 0.0818660036 1.0000000000
0.0037600000 0.0000000000 0.0818630010 1.0000000000
0.0037469999 0.0000000000 0.0818699971 1.0000000000
0.0037360000 0.0000000000 0.0818800032 1.0000000000
0.0037240000 0.0000000000 0.0818749964 1.0000000000
0.0037120001 0.0000000000 0.0818689987 1.0000000000
0.0036990000 0.0000000000 0.0818710029 1.0000000000
0.0036879999 0.0000000000 0.0818739980 1.0000000000
0.0036760001 0.0000000000 0.0818749964 1.0000000000
0.0036640000 0.0000000000 0.0818760023 1.0000000000
0.0036500001 0.0000000000 0.0818699971 1.0000000000
0.0036390000 0.0000000000 0.0818660036 1.0000000000
0.0036269999 0.0000000000 0.0818639994 1.0000000000
0.0036150001 0.0000000000 0.0818639994 1.0000000000
0.0036030000 0.0000000000 0.0818670020 1.0000000000
0.0035910001 0.0000000000 0.0818729997 1.0000000000
0.0035790000 0.0000000000 0.0818729997 1.0000000000
0.0035669999 0.0000000000 0.0818720013 1.0000000000
0.0035550001 0.0000000000 0.0818760023 1.0000000000
0.0035430000 0.0000000000 0.0818760023 1.0000000000
0.0035310001 0.0000000000 0.0818739980 1.0000000000
0.0035190000 0.0000000000 0.0818800032 1.0000000000
0.0035069999 0.0000000000 0.0818850026 1.0000000000
0.0034950001 0.0000000000 0.0818829983 1.0000000000
0.0034830000 0.0000000000 0.0818729997 1.0000000000
0.0034700001 0.0000000000 0.0818670020 1.0000000000
0.0034590000 0.0000000000 0.0818749964 1.0000000000
0.0034469999 0.0000000000 0.0818820000 1.0000000000
0.0034350001 0.0000000000 0.0818749964 1.0000000000
0.0034220000 0.0000000000 0.0818699971 1.0000000000
0.0034090001 0.0000000000 0.0818689987 1.0000000000
0.0033980000 0.0000000000 0.0818689987 1.0000000000
0.0033849999 0.0000000000 0.0818680003 1.0000000000
0.0033740001 0.0000000000 0.0818699971 1.0000000000
0.0033620000 0.0000000000 0.0818720013 1.0000000000
0.0033499999 0.0000000000 0.0818760023 1.0000000000
0.0033370000 0.0000000000 0.0818760023 1.0000000000
0.0033259999 0.0000000000 0.0818739980 1.0000000000
0.0033140001 0.0000000000 0.0818739980 1.0000000000
0.0033020000 0.0000000000 0.0818800032 1.0000000000
0.0032889999 0.0000000000 0.0818770006 1.0000000000
0.0032780000 0.0000000000 0.0818729997 1.0000000000
0.0032660000 0.0000000000 0.0818739980 1.0000000000
0.0032540001 0.0000000000 0.0818760023 1.0000000000
0.0032420000 0.0000000000 0.0818749964 1.0000000000
0.0032289999 0.0000000000 0.0818739980 1.0000000000
0.0032160000 0.0000000000 0.0818710029 1.0000000000
0.0032050000 0.0000000000 0.0818699971 1.0000000000
0.0031920001 0.0000000000 0.0818749964 1.0000000000
0.0031810000 0.0000000000 0.0818820000 1.0000000000
0.0031689999 0.0000000000 0.0818820000 1.0000000000
0.0031570001 0.0000000000 0.0818850026 1.0000000000
0.0031460000 0.0000000000 0.0818900019 1.0000000000
0.0031340001 0.0000000000 0.0818919986 1.0000000000
0.0031210000 0.0000000000 0.0818890035 1.0000000000
0.0031089999 0.0000000000 0.0818820000 1.0000000000
0.0030960001 0.0000000000 0.0818779990 1.0000000000
0.0030850000 0.0000000000 0.0818800032 1.0000000000
0.0030720001 0.0000000000 0.0818860009 1.0000000000
0.0030610000 0.0000000000 0.0818919986 1.0000000000
0.0030489999 0.0000000000 0.0818919986 1.0000000000
0.0030370001 0.0000000000 0.0818900019 1.0000000000
0.0030240000 0.0000000000 0.0818860009 1.0000000000
0.0030129999 0.0000000000 0.0818850026 1.0000000000
0.0029990000 0.0000000000 0.0818839967 1.0000000000
0.0029879999 0.0000000000 0.0818789974 1.0000000000
0.0029750001 0.0000000000 0.0818749964 1.0000000000
0.0029640000 0.0000000000 0.0818800032 1.0000000000
0.0029509999 0.0000000000 0.0818850026 1.0000000000
0.0029400000 0.0000000000 0.0818850026 1.0000000000
0.0029269999 0.0000000000 0.0818860009 1.0000000000
0.0029160001 0.0000000000 0.0818929970 1.0000000000
0.0029030000 0.0000000000 0.0818919986 1.0000000000
0.0028919999 0.0000000000 0.0818879977 1.0000000000
0.0028790000 0.0000000000 0.0818869993 1.0000000000
0.0028680000 0.0000000000 0.0818860009 1.0000000000
0.0028540001 0.0000000000 0.0818770006 1.0000000000
0.0028430000 0.0000000000 0.0818760023 1.0000000000
0.0028309999 0.0000000000 0.0818810016 1.0000000000
0.0028190000 0.0000000000 0.0818789974 1.0000000000
0.0028059999 0.0000000000 0.0818770006 1.0000000000
0.0027950001 0.0000000000 0.0818879977 1.0000000000
0.0027820000 0.0000000000 0.0818940029 1.0000000000
0.0027709999 0.0000000000 0.0818910003 1.0000000000
0.0027580000 0.0000000000 0.0818829983 1.0000000000
0.0027470000 0.0000000000 0.0818829983 1.0000000000
0.0027350001 0.0000000000 0.0818829983 1.0000000000
0.0027220000 0.0000000000 0.0818800032 1.0000000000
0.0027099999 0.0000000000 0.0818749964 1.0000000000
0.0026980001 0.0000000000 0.0818749964 1.0000000000
0.0026860000 0.0000000000 0.0818800032 1.0000000000
0.0026740001 0.0000000000 0.0818839967 1.0000000000
0.0026620000 0.0000000000 0.0818890035 1.0000000000
0.0026499999 0.0000000000 0.0818919986 1.0000000000
0.0026380001 0.0000000000 0.0818969980 1.0000000000
0.0026260000 0.0000000000 0.0819009990 1.0000000000
0.0026130001 0.0000000000 0.0818959996 1.0000000000
0.0026020000 0.0000000000 0.0819000006 1.0000000000
0.0025899999 0.0000000000 0.0819080025 1.0000000000
0.0025780001 0.0000000000 0.0819140002 1.0000000000
0.0025660000 0.0000000000 0.0819180012 1.0000000000
0.0025539999 0.0000000000 0.0819130018 1.0000000000
0.0025410000 0.0000000000 0.0819040015 1.0000000000
0.0025299999 0.0000000000 0.0819069967 1.0000000000
0.0025180001 0.0000000000 0.0819149986 1.0000000000
0.0025060000 0.0000000000 0.0819239989 1.0000000000
0.0024939999 0.0000000000 0.0819410011 1.0000000000
0.0024840001 0.0000000000 0.0819989964 1.0000000000
0.0024710000 0.0000000000 0.0820040032 1.0000000000
0.0024600001 0.0000000000 0.0819950029 1.0000000000
0.0024460000 0.0000000000 0.0819870010 1.0000000000
0.0024349999 0.0000000000 0.0819879994 1.0000000000
0.0024230001 0.0000000000 0.0819950029 1.0000000000
0.0024120000 0.0000000000 0.0820130035 1.0000000000
0.0024000001 0.0000000000 0.0820280015 1.0000000000
0.0023880000 0.0000000000 0.0820429996 1.0000000000
-0.0025919999 0.0000000000 0.0821089968 1.0000000000
-0.0026030000 0.0000000000 0.0821160004 1.0000000000
-0.0026159999 0.0000000000 0.0821119994 1.0000000000
-0.0026270000 0.0000000000 0.0821100026 1.0000000000
-0.0026400001 0.0000000000 0.0821129978 1.0000000000
-0.0026519999 0.0000000000 0.0821119994 1.0000000000
-0.0026630000 0.0000000000 0.0820989981 1.0000000000
-0.0026750001 0.0000000000 0.0820799991 1.0000000000
-0.0026860000 0.0000000000 0.0820569992 1.0000000000
-0.0026980001 0.0000000000 0.0820429996 1.0000000000
-0.0027099999 0.0000000000 0.0820460021 1.0000000000
-0.0027220000 0.0000000000 0.0820389986 1.0000000000
-0.0027340001 0.0000000000 0.0820140019 1.0000000000
-0.0027460000 0.0000000000 0.0820050016 1.0000000000
-0.0027580000 0.0000000000 0.0819969997 1.0000000000
-0.0027689999 0.0000000000 0.0819860026 1.0000000000
-0.0027820000 0.0000000000 0.0819749981 1.0000000000
-0.0027930001 0.0000000000 0.0819659978 1.0000000000
-0.0028059999 0.0000000000 0.0819659978 1.0000000000
-0.0028170000 0.0000000000 0.0819709972 1.0000000000
-0.0028289999 0.0000000000 0.0819680020 1.0000000000
-0.0028410000 0.0000000000 0.0819649994 1.0000000000
-0.0028540001 0.0000000000 0.0819630027 1.0000000000
-0.0028649999 0.0000000000 0.0819600001 1.0000000000
-0.0028780000 0.0000000000 0.0819580033 1.0000000000
-0.0028899999 0.0000000000 0.0819600001 1.0000000000
-0.0029020000 0.0000000000 0.0819630027 1.0000000000
-0.0029140001 0.0000000000 0.0819699988 1.0000000000
-0.0029259999 0.0000000000 0.0819699988 1.0000000000
-0.0029380000 0.0000000000 0.0819649994 1.0000000000
-0.0029509999 0.0000000000 0.0819649994 1.0000000000
-0.0029620000 0.0000000000 0.0819720030 1.0000000000
-0.0029750001 0.0000000000 0.0819659978 1.0000000000
-0.0029859999 0.0000000000 0.0819600001 1.0000000000
-0.0029980000 0.0000000000 0.0819590017 1.0000000000
-0.0030110001 0.0000000000 0.0819630027 1.0000000000
-0.0030240000 0.0000000000 0.0819630027 1.0000000000
-0.0030350001 0.0000000000 0.0819559991 1.0000000000
-0.0030469999 0.0000000000 0.0819590017 1.0000000000
-0.0030590000 0.0000000000 0.0819720030 1.0000000000
-0.0030710001 0.0000000000 0.0819699988 1.0000000000
-0.0030830000 0.0000000000 0.0819709972 1.0000000000
-0.0030960001 0.0000000000 0.0819749981 1.0000000000
-0.0031079999 0.0000000000 0.0819749981 1.0000000000
-0.0031200000 0.0000000000 0.0819709972 1.0000000000
-0.0031320001 0.0000000000 0.0819690004 1.0000000000
-0.0031450000 0.0000000000 0.0819720030 1.0000000000
-0.0031560000 0.0000000000 0.0819849968 1.0000000000
-0.0031689999 0.0000000000 0.0819910020 1.0000000000
-0.0031810000 0.0000000000 0.0819910020 1.0000000000
-0.0031920001 0.0000000000 0.0819810033 1.0000000000
-0.0032039999 0.0000000000 0.0819749981 1.0000000000
-0.0032160000 0.0000000000 0.0819690004 1.0000000000
-0.0032279999 0.0000000000 0.0819680020 1.0000000000
-0.0032410000 0.0000000000 0.0819670036 1.0000000000
-0.0032520001 0.0000000000 0.0819680020 1.0000000000
-0.0032639999 0.0000000000 0.0819699988 1.0000000000
-0.0032760000 0.0000000000 0.0819640011 1.0000000000
-0.0032889999 0.0000000000 0.0819630027 1.0000000000
-0.0033010000 0.0000000000 0.0819730014 1.0000000000
-0.0033140001 0.0000000000 0.0819720030 1.0000000000
-0.0033249999 0.0000000000 0.0819680020 1.0000000000
-0.0033380000 0.0000000000 0.0819649994 1.0000000000
-0.0033489999 0.0000000000 0.0819640011 1.0000000000
-0.0033620000 0.0000000000 0.0819630027 1.0000000000
-0.0033730001 0.0000000000 0.0819730014 1.0000000000
-0.0033859999 0.0000000000 0.0819739997 1.0000000000
-0.0033970000 0.0000000000 0.0819730014 1.0000000000
-0.0034090001 0.0000000000 0.0819690004 1.0000000000
-0.0034210000 0.0000000000 0.0819619969 1.0000000000
-0.0034340001 0.0000000000 0.0819569975 1.0000000000
-0.0034449999 0.0000000000 0.0819649994 1.0000000000
-0.0034580000 0.0000000000 0.0819670036 1.0000000000
-0.0034700001 0.0000000000 0.0819659978 1.0000000000
-0.0034830000 0.0000000000 0.0819640011 1.0000000000
-0.0034940001 0.0000000000 0.0819659978 1.0000000000
-0.0035069999 0.0000000000 0.0819670036 1.0000000000
-0.0035180000 0.0000000000 0.0819659978 1.0000000000
-0.0035300001 0.0000000000 0.0819640011 1.0000000000
-0.0035420000 0.0000000000 0.0819670036 1.0000000000
-0.0035540001 0.0000000000 0.0819699988 1.0000000000
-0.0035659999 0.0000000000 0.0819699988 1.0000000000
-0.0035780000 0.0000000000 0.0819720030 1.0000000000
-0.0035910001 0.0000000000 0.0819780007 1.0000000000
-0.0036030000 0.0000000000 0.0819780007 1.0000000000
-0.0036150001 0.0000000000 0.0819770023 1.0000000000
-0.0036279999 0.0000000000 0.0819749981 1.0000000000
-0.0036390000 0.0000000000 0.0819699988 1.0000000000
-0.0036510001 0.0000000000 0.0819630027 1.0000000000
-0.0036630000 0.0000000000 0.0819640011 1.0000000000
-0.0036760001 0.0000000000 0.0819640011 1.0000000000
-0.0036869999 0.0000000000 0.0819640011 1.0000000000
-0.0036990000 0.0000000000 0.0819699988 1.0000000000
-0.0037110001 0.0000000000 0.0819730014 1.0000000000
-0.0037240000 0.0000000000 0.0819659978 1.0000000000
-0.0037350000 0.0000000000 0.0819640011 1.0000000000
-0.0037479999 0.0000000000 0.0819649994 1.0000000000
-0.0037590000 0.0000000000 0.0819649994 1.0000000000
-0.0037720001 0.0000000000 0.0819590017 1.0000000000
-0.0037829999 0.0000000000 0.0819609985 1.0000000000
-0.0037960000 0.0000000000 0.0819659978 1.0000000000
-0.0038079999 0.0000000000 0.0819709972 1.0000000000
-0.0038200000 0.0000000000 0.0819739997 1.0000000000
-0.0038320001 0.0000000000 0.0819730014 1.0000000000
-0.0038449999 0.0000000000 0.0819770023 1.0000000000
-0.0038570000 0.0000000000 0.0819830000 1.0000000000
-0.0038689999 0.0000000000 0.0819770023 1.0000000000
-0.0038800000 0.0000000000 0.0819640011 1.0000000000
-0.0038930001 0.0000000000 0.0819590017 1.0000000000
-0.0039039999 0.0000000000 0.0819609985 1.0000000000
-0.0039160000 0.0000000000 0.0819640011 1.0000000000
-0.0039280001 0.0000000000 0.0819670036 1.0000000000
-0.0039410000 0.0000000000 0.0819720030 1.0000000000
-0.0039530001 0.0000000000 0.0819799975 1.0000000000
-0.0039659999 0.0000000000 0.0819820017 1.0000000000
-0.0039769998 0.0000000000 0.0819789991 1.0000000000
-0.0039889999 0.0000000000 0.0819720030 1.0000000000
-0.0040010000 0.0000000000 0.0819649994 1.0000000000
-0.0040130001 0.0000000000 0.0819649994 1.0000000000
-0.0040250001 0.0000000000 0.0819680020 1.0000000000
-0.0040380000 0.0000000000 0.0819659978 1.0000000000
-0.0040489999 0.0000000000 0.0819680020 1.0000000000
-0.0040620002 0.0000000000 0.0819739997 1.0000000000
-0.0040739998 0.0000000000 0.0819830000 1.0000000000
-0.0040870002 0.0000000000 0.0819770023 1.0000000000
-0.0040980000 0.0000000000 0.0819789991 1.0000000000
-0.0041109999 0.0000000000 0.0819870010 1.0000000000
-0.0041220002 0.0000000000 0.0819820017 1.0000000000
-0.0041350001 0.0000000000 0.0819739997 1.0000000000
-0.0041459999 0.0000000000 0.0819770023 1.0000000000
-0.0041580000 0.0000000000 0.0819810033 1.0000000000
-0.0041700001 0.0000000000 0.0819820017 1.0000000000
-0.0041820002 0.0000000000 0.0819799975 1.0000000000
-0.0041939998 0.0000000000 0.0819770023 1.0000000000
-0.0042059999 0.0000000000 0.0819749981 1.0000000000
-0.0042180000 0.0000000000 0.0819690004 1.0000000000
-0.0042309999 0.0000000000 0.0819699988 1.0000000000
-0.0042429999 0.0000000000 0.0819770023 1.0000000000
-0.0042559998 0.0000000000 0.0819749981 1.0000000000
-0.0042670001 0.0000000000 0.0819739997 1.0000000000
-0.0042790002 0.0000000000 0.0819799975 1.0000000000
-0.0042909998 0.0000000000 0.0819879994 1.0000000000
-0.0043029999 0.0000000000 0.0819879994 1.0000000000
-0.0043150000 0.0000000000 0.0819799975 1.0000000000
-0.0043279999 0.0000000000 0.0819749981 1.0000000000
-0.0043390002 0.0000000000 0.0819780007 1.0000000000
-0.0043520001 0.0000000000 0.0819739997 1.0000000000
-0.0043629999 0.0000000000 0.0819720030 1.0000000000
-0.0043750000 0.0000000000 0.0819739997 1.0000000000
-0.0043879999 0.0000000000 0.0819810033 1.0000000000
-0.0044000000 0.0000000000 0.0819839984 1.0000000000
-0.0044120001 0.0000000000 0.0819799975 1.0000000000
-0.0044249999 0.0000000000 0.0819749981 1.0000000000
-0.0044359998 0.0000000000 0.0819799975 1.0000000000
-0.0044490001 0.0000000000 0.0819839984 1.0000000000
-0.0044600000 0.0000000000 0.0819879994 1.0000000000
-0.0044729998 0.0000000000 0.0819910020 1.0000000000
-0.0044849999 0.0000000000 0.0819969997 1.0000000000
-0.0044970000 0.0000000000 0.0820000023 1.0000000000
-0.0045090001 0.0000000000 0.0819939971 1.0000000000
-0.0045220000 0.0000000000 0.0819870010 1.0000000000
-0.0045329998 0.0000000000 0.0819889978 1.0000000000
-0.0045460002 0.0000000000 0.0819929987 1.0000000000
-0.0045570000 0.0000000000 0.0819960013 1.0000000000
-0.0045699999 0.0000000000 0.0819939971 1.0000000000
-0.0045810002 0.0000000000 0.0819889978 1.0000000000
-0.0045929998 0.0000000000 0.0819910020 1.0000000000
-0.0046060001 0.0000000000 0.0819939971 1.0000000000
-0.0046179998 0.0000000000 0.0819879994 1.0000000000
-0.0046290001 0.0000000000 0.0819879994 1.0000000000
-0.0046420000 0.0000000000 0.0819870010 1.0000000000
-0.0046529998 0.0000000000 0.0819799975 1.0000000000
-0.0046660001 0.0000000000 0.0819770023 1.0000000000
-0.0046770000 0.0000000000 0.0819820017 1.0000000000
-0.0046899999 0.0000000000 0.0819820017 1.0000000000
-0.0047019999 0.0000000000 0.0819810033 1.0000000000
-0.0047140000 0.0000000000 0.0819810033 1.0000000000
-0.0047260001 0.0000000000 0.0819810033 1.0000000000
-0.0047380002 0.0000000000 0.0819810033 1.0000000000
-0.0047499998 0.0000000000 0.0819820017 1.0000000000
-0.0047619999 0.0000000000 0.0819810033 1.0000000000
-0.0047740000 0.0000000000 0.0819770023 1.0000000000
-0.0047849999 0.0000000000 0.0819730014 1.0000000000
-0.0047970000 0.0000000000 0.0819730014 1.0000000000
-0.0048110001 0.0000000000 0.0819789991 1.0000000000
-0.0048219999 0.0000000000 0.0819920003 1.0000000000
-0.0048349998 0.0000000000 0.0819879994 1.0000000000
-0.0048460001 0.0000000000 0.0819830000 1.0000000000
-0.0048590000 0.0000000000 0.0819910020 1.0000000000
-0.0048710001 0.0000000000 0.0820019990 1.0000000000
-0.0048830002 0.0000000000 0.0820019990 1.0000000000
-0.0048949998 0.0000000000 0.0819950029 1.0000000000
-0.0049069999 0.0000000000 0.0819870010 1.0000000000
-0.0049180002 0.0000000000 0.0819849968 1.0000000000
-0.0049299998 0.0000000000 0.0819820017 1.0000000000
-0.0049419999 0.0000000000 0.0819810033 1.0000000000
-0.0049549998 0.0000000000 0.0819839984 1.0000000000
-0.0049669999 0.0000000000 0.0819860026 1.0000000000
-0.0049800002 0.0000000000 0.0819860026 1.0000000000
-0.0049910001 0.0000000000 0.0819920003 1.0000000000
-0.0050039999 0.0000000000 0.0819950029 1.0000000000
-0.0050149998 0.0000000000 0.0819929987 1.0000000000
-0.0050269999 0.0000000000 0.0819920003 1.0000000000
-0.0050390000 0.0000000000 0.0819920003 1.0000000000
-0.0050519998 0.0000000000 0.0819860026 1.0000000000
-0.0050630001 0.0000000000 0.0819839984 1.0000000000
-0.0050750002 0.0000000000 0.0819820017 1.0000000000
-0.0050869999 0.0000000000 0.0819839984 1.0000000000
-0.0050989999 0.0000000000 0.0819910020 1.0000000000
-0.0051119998 0.0000000000 0.0819969997 1.0000000000
-0.0051250001 0.0000000000 0.0819960013 1.0000000000
-0.0051360000 0.0000000000 0.0820010006 1.0000000000
-0.0051489999 0.0000000000 0.0820029974 1.0000000000
-0.0051600002 0.0000000000 0.0819989964 1.0000000000
-0.0051730000 0.0000000000 0.0819939971 1.0000000000
-0.0051839999 0.0000000000 0.0819939971 1.0000000000
-0.0051960000 0.0000000000 0.0819920003 1.0000000000
-0.0052080001 0.0000000000 0.0819960013 1.0000000000
-0.0052200002 0.0000000000 0.0820010006 1.0000000000
-0.0052319998 0.0000000000 0.0819989964 1.0000000000
-0.0052439999 0.0000000000 0.0819929987 1.0000000000
-0.0052560000 0.0000000000 0.0819900036 1.0000000000
-0.0052680001 0.0000000000 0.0819910020 1.0000000000
-0.0052800002 0.0000000000 0.0819900036 1.0000000000
-0.0052919998 0.0000000000 0.0819920003 1.0000000000
-0.0053050001 0.0000000000 0.0820040032 1.0000000000
-0.0053170002 0.0000000000 0.0820119977 1.0000000000
-0.0053289998 0.0000000000 0.0820029974 1.0000000000
-0.0053409999 0.0000000000 0.0819900036 1.0000000000
-0.0053519998 0.0000000000 0.0819939971 1.0000000000
-0.0053659999 0.0000000000 0.0820029974 1.0000000000
-0.0053770002 0.0000000000 0.0820109993 1.0000000000
-0.0053889998 0.0000000000 0.0820090026 1.0000000000
-0.0054009999 0.0000000000 0.0820079967 1.0000000000
-0.0054139998 0.0000000000 0.0820069984 1.0000000000
-0.0054250001 0.0000000000 0.0820010006 1.0000000000
-0.0054380000 0.0000000000 0.0819979981 1.0000000000
-0.0054489998 0.0000000000 0.0820019990 1.0000000000
-0.0054620001 0.0000000000 0.0820040032 1.0000000000
-0.0054730000 0.0000000000 0.0820000023 1.0000000000
-0.0054850001 0.0000000000 0.0819920003 1.0000000000
-0.0054970002 0.0000000000 0.0820019990 1.0000000000
-0.0055109998 0.0000000000 0.0820079967 1.0000000000
-0.0055220001 0.0000000000 0.0820060000 1.0000000000
-0.0055340002 0.0000000000 0.0820040032 1.0000000000
-0.0055459999 0.0000000000 0.0820060000 1.0000000000
-0.0055590002 0.0000000000 0.0820079967 1.0000000000
-0.0055700000 0.0000000000 0.0820060000 1.0000000000
-0.0055820001 0.0000000000 0.0819969997 1.0000000000
-0.0055930000 0.0000000000 0.0819900036 1.0000000000
-0.0056059998 0.0000000000 0.0819900036 1.0000000000
-0.0056170002 0.0000000000 0.0819910020 1.0000000000
-0.0056289998 0.0000000000 0.0819870010 1.0000000000
-0.0056420001 0.0000000000 0.0819950029 1.0000000000
-0.0056540002 0.0000000000 0.0820019990 1.0000000000
-0.0056659998 0.0000000000 0.0820060000 1.0000000000
-0.0056790002 0.0000000000 0.0820069984 1.0000000000
-0.0056900000 0.0000000000 0.0820079967 1.0000000000
-0.0057029999 0.0000000000 0.0819989964 1.0000000000
-0.0057140002 0.0000000000 0.0819979981 1.0000000000
-0.0057259998 0.0000000000 0.0820019990 1.0000000000
-0.0057379999 0.0000000000 0.0819979981 1.0000000000
-0.0057500000 0.0000000000 0.0819900036 1.0000000000
-0.0057609999 0.0000000000 0.0819860026 1.0000000000
-0.0057750000 0.0000000000 0.0819889978 1.0000000000
-0.0057859998 0.0000000000 0.0819960013 1.0000000000
-0.0057990002 0.0000000000 0.0819979981 1.0000000000
-0.0058100000 0.0000000000 0.0820000023 1.0000000000
-0.0058229999 0.0000000000 0.0819989964 1.0000000000
-0.0058350000 0.0000000000 0.0820000023 1.0000000000
-0.0058470001 0.0000000000 0.0820029974 1.0000000000
-0.0058590001 0.0000000000 0.0820040032 1.0000000000
-0.0058720000 0.0000000000 0.0820000023 1.0000000000
-0.0058829999 0.0000000000 0.0820010006 1.0000000000
-0.0058950000 0.0000000000 0.0819969997 1.0000000000
-0.0059059998 0.0000000000 0.0819939971 1.0000000000
-0.0059190001 0.0000000000 0.0819950029 1.0000000000
-0.0059310002 0.0000000000 0.0819979981 1.0000000000
-0.0059440001 0.0000000000 0.0819989964 1.0000000000
-0.0059549999 0.0000000000 0.0820029974 1.0000000000
-0.0059670000 0.0000000000 0.0820050016 1.0000000000
-0.0059790001 0.0000000000 0.0820010006 1.0000000000
-0.0059910002 0.0000000000 0.0820010006 1.0000000000
-0.0060040001 0.0000000000 0.0820090026 1.0000000000
-0.0060160002 0.0000000000 0.0820109993 1.0000000000
-0.0060279998 0.0000000000 0.0820090026 1.0000000000
-0.0060399999 0.0000000000 0.0820109993 1.0000000000
-0.0060520000 0.0000000000 0.0820140019 1.0000000000
-0.0060640001 0.0000000000 0.0820130035 1.0000000000
-0.0060760002 0.0000000000 0.0820100009 1.0000000000
-0.0060890000 0.0000000000 0.0820090026 1.0000000000
-0.0060999999 0.0000000000 0.0820119977 1.0000000000
-0.0061120000 0.0000000000 0.0820140019 1.0000000000
-0.0061240001 0.0000000000 0.0820130035 1.0000000000
-0.0061369999 0.0000000000 0.0820050016 1.0000000000
-0.0061479998 0.0000000000 0.0820029974 1.0000000000
-0.0061610001 0.0000000000 0.0820069984 1.0000000000
-0.0061720000 0.0000000000 0.0820090026 1.0000000000
-0.0061849998 0.0000000000 0.0820050016 1.0000000000
-0.0061960001 0.0000000000 0.0820079967 1.0000000000
-0.0062090000 0.0000000000 0.0820060000 1.0000000000
-0.0062199999 0.0000000000 0.0820069984 1.0000000000
-0.0062330002 0.0000000000 0.0820090026 1.0000000000
-0.0062449998 0.0000000000 0.0820130035 1.0000000000
-0.0062580002 0.0000000000 0.0820140019 1.0000000000
-0.0062690000 0.0000000000 0.0820180029 1.0000000000
-0.0062810001 0.0000000000 0.0820209980 1.0000000000
-0.0062930002 0.0000000000 0.0820209980 1.0000000000
-0.0063049998 0.0000000000 0.0820199996 1.0000000000
-0.0063169999 0.0000000000 0.0820169970 1.0000000000
-0.0063299998 0.0000000000 0.0820169970 1.0000000000
-0.0063410001 0.0000000000 0.0820180029 1.0000000000
-0.0063540000 0.0000000000 0.0820150003 1.0000000000
-0.0063649998 0.0000000000 0.0820159987 1.0000000000
-0.0063769999 0.0000000000 0.0820150003 1.0000000000
-0.0063890000 0.0000000000 0.0820140019 1.0000000000
-0.0064010001 0.0000000000 0.0820109993 1.0000000000
-0.0064130002 0.0000000000 0.0820079967 1.0000000000
-0.0064260000 0.0000000000 0.0820079967 1.0000000000
-0.0064369999 0.0000000000 0.0820109993 1.0000000000
-0.0064490000 0.0000000000 0.0820109993 1.0000000000
-0.0064610001 0.0000000000 0.0820150003 1.0000000000
-0.0064730002 0.0000000000 0.0820140019 1.0000000000
-0.0064849998 0.0000000000 0.0820069984 1.0000000000
-0.0064969999 0.0000000000 0.0820060000 1.0000000000
-0.0065090000 0.0000000000 0.0820090026 1.0000000000
-0.0065210001 0.0000000000 0.0820130035 1.0000000000
-0.0065350002 0.0000000000 0.0820410028 1.0000000000
-0.0065500000 0.0000000000 0.0820809975 1.0000000000
-0.0065629999 0.0000000000 0.0820960030 1.0000000000
-0.0065759998 0.0000000000 0.0821100026 1.0000000000
-0.0065879999 0.0000000000 0.0821119994 1.0000000000
-0.0066010002 0.0000000000 0.0821259990 1.0000000000
-0.0066160001 0.0000000000 0.0821740031 1.0000000000
-0.0066280002 0.0000000000 0.0821769983 1.0000000000
-0.0066419998 0.0000000000 0.0821970031 1.0000000000
-0.0066550002 0.0000000000 0.0822139978 1.0000000000
-0.0066669998 0.0000000000 0.0822139978 1.0000000000
-0.0066800001 0.0000000000 0.0822139978 1.0000000000
-0.0066920002 0.0000000000 0.0822310001 1.0000000000
-0.0067059998 0.0000000000 0.0822419971 1.0000000000
-0.0067170002 0.0000000000 0.0822449997 1.0000000000
-0.0067320000 0.0000000000 0.0822670013 1.0000000000
-0.0067440001 0.0000000000 0.0822840035 1.0000000000
-0.0067570000 0.0000000000 0.0822999999 1.0000000000
-0.0067699999 0.0000000000 0.0823139995 1.0000000000
-0.0067830002 0.0000000000 0.0823239982 1.0000000000
-0.0067960001 0.0000000000 0.0823419988 1.0000000000
-0.0068100002 0.0000000000 0.0823559985 1.0000000000
-0.0068219998 0.0000000000 0.0823630020 1.0000000000
-0.0068350001 0.0000000000 0.0823630020 1.0000000000
-0.0068460000 0.0000000000 0.0823630020 1.0000000000
-0.0068600001 0.0000000000 0.0823709965 1.0000000000
-0.0068720002 0.0000000000 0.0823929980 1.0000000000
-0.0068859998 0.0000000000 0.0824069977 1.0000000000
-0.0068979999 0.0000000000 0.0824169964 1.0000000000
-0.0069109998 0.0000000000 0.0824299976 1.0000000000
-0.0069249999 0.0000000000 0.0824469998 1.0000000000
-0.0069380002 0.0000000000 0.0824730024 1.0000000000
-0.0069510001 0.0000000000 0.0824780017 1.0000000000
-0.0069630002 0.0000000000 0.0824809968 1.0000000000
-0.0069760000 0.0000000000 0.0824870020 1.0000000000
-0.0069900001 0.0000000000 0.0825020000 1.0000000000
-0.0070030000 0.0000000000 0.0825269967 1.0000000000
-0.0070150001 0.0000000000 0.0825359970 1.0000000000
-0.0070290002 0.0000000000 0.0825600028 1.0000000000
-0.0070429998 0.0000000000 0.0825729966 1.0000000000
-0.0070549999 0.0000000000 0.0825840011 1.0000000000
-0.0070690000 0.0000000000 0.0825899988 1.0000000000
-0.0070810001 0.0000000000 0.0825999975 1.0000000000
-0.0070940000 0.0000000000 0.0826079994 1.0000000000
-0.0071069999 0.0000000000 0.0826240033 1.0000000000
-0.0071200002 0.0000000000 0.0826399997 1.0000000000
-0.0071330001 0.0000000000 0.0826509967 1.0000000000
-0.0071459999 0.0000000000 0.0826549977 1.0000000000
-0.0071580000 0.0000000000 0.0826580003 1.0000000000
-0.0071709999 0.0000000000 0.0826710016 1.0000000000
-0.0071840002 0.0000000000 0.0826940015 1.0000000000
-0.0071990001 0.0000000000 0.0827149972 1.0000000000
-0.0072110002 0.0000000000 0.0827250034 1.0000000000
-0.0072240001 0.0000000000 0.0827310011 1.0000000000
-0.0072360002 0.0000000000 0.0827409998 1.0000000000
-0.0072499998 0.0000000000 0.0827480033 1.0000000000
-0.0072619999 0.0000000000 0.0827639997 1.0000000000
-0.0072760000 0.0000000000 0.0827810019 1.0000000000
-0.0072880001 0.0000000000 0.0827879980 1.0000000000
-0.0073020002 0.0000000000 0.0827950016 1.0000000000
-0.0073139998 0.0000000000 0.0828090012 1.0000000000
-0.0073290002 0.0000000000 0.0828280002 1.0000000000
-0.0073409998 0.0000000000 0.0828419998 1.0000000000
-0.0073540001 0.0000000000 0.0828479975 1.0000000000
-0.0073660002 0.0000000000 0.0828550011 1.0000000000
-0.0073799998 0.0000000000 0.0828640014 1.0000000000
-0.0073919999 0.0000000000 0.0828749985 1.0000000000
-0.0074060000 0.0000000000 0.0828899965 1.0000000000
-0.0074189999 0.0000000000 0.0829109997 1.0000000000
-0.0074319998 0.0000000000 0.0829230025 1.0000000000
-0.0074450001 0.0000000000 0.0829330012 1.0000000000
-0.0074600000 0.0000000000 0.0829589963 1.0000000000
-0.0074740001 0.0000000000 0.0829899982 1.0000000000
-0.0074870000 0.0000000000 0.0830089971 1.0000000000
-0.0074999998 0.0000000000 0.0830200016 1.0000000000
-0.0075139999 0.0000000000 0.0830330029 1.0000000000
-0.0075269998 0.0000000000 0.0830449983 1.0000000000
-0.0075400001 0.0000000000 0.0830489993 1.0000000000
-0.0075520002 0.0000000000 0.0830599964 1.0000000000
-0.0075650001 0.0000000000 0.0830719993 1.0000000000
-0.0075780000 0.0000000000 0.0830829963 1.0000000000
-0.0075909998 0.0000000000 0.0830880031 1.0000000000
-0.0076020001 0.0000000000 0.0830840021 1.0000000000
-0.0076139998 0.0000000000 0.0830740035 1.0000000000
-0.0076250001 0.0000000000 0.0830629990 1.0000000000
-0.0076380000 0.0000000000 0.0830560029 1.0000000000
-0.0076489998 0.0000000000 0.0830579996 1.0000000000
-0.0076629999 0.0000000000 0.0830679983 1.0000000000
-0.0076779998 0.0000000000 0.0831179991 1.0000000000
-0.0076930001 0.0000000000 0.0831459984 1.0000000000
-0.0077080000 0.0000000000 0.0831860006 1.0000000000
-0.0101910001 0.0000000000 0.0831929967 1.0000000000
-0.0102019999 0.0000000000 0.0831839964 1.0000000000
-0.0102140000 0.0000000000 0.0831760019 1.0000000000
-0.0102249999 0.0000000000 0.0831720009 1.0000000000
-0.0102370000 0.0000000000 0.0831670016 1.0000000000
-0.0102479998 0.0000000000 0.0831570029 1.0000000000
-0.0102589997 0.0000000000 0.0831469968 1.0000000000
-0.0102700004 0.0000000000 0.0831419975 1.0000000000
-0.0102819996 0.0000000000 0.0831350014 1.0000000000
-0.0102930004 0.0000000000 0.0831290036 1.0000000000
-0.0103049995 0.0000000000 0.0831200033 1.0000000000
-0.0103150001 0.0000000000 0.0831070021 1.0000000000
-0.0103249997 0.0000000000 0.0830919966 1.0000000000
-0.0103359995 0.0000000000 0.0830760002 1.0000000000
-0.0103460001 0.0000000000 0.0830629990 1.0000000000
-0.0103580002 0.0000000000 0.0830560029 1.0000000000
-0.0103690000 0.0000000000 0.0830459967 1.0000000000
-0.0103799999 0.0000000000 0.0830369964 1.0000000000
-0.0103909997 0.0000000000 0.0830219984 1.0000000000
-0.0104010003 0.0000000000 0.0830110013 1.0000000000
-0.0104130004 0.0000000000 0.0830039978 1.0000000000
-0.0104230000 0.0000000000 0.0829960033 1.0000000000
-0.0104339998 0.0000000000 0.0829830021 1.0000000000
-0.0104449997 0.0000000000 0.0829690024 1.0000000000
-0.0104560005 0.0000000000 0.0829589963 1.0000000000
-0.0104670003 0.0000000000 0.0829489976 1.0000000000
-0.0104790004 0.0000000000 0.0829420015 1.0000000000
-0.0104900002 0.0000000000 0.0829410031 1.0000000000
-0.0105010001 0.0000000000 0.0829309970 1.0000000000
-0.0105109997 0.0000000000 0.0829169974 1.0000000000
-0.0105229998 0.0000000000 0.0829079971 1.0000000000
-0.0105339997 0.0000000000 0.0829010010 1.0000000000
-0.0105440002 0.0000000000 0.0828879997 1.0000000000
-0.0105539998 0.0000000000 0.0828709975 1.0000000000
-0.0105659999 0.0000000000 0.0828580037 1.0000000000
-0.0105760004 0.0000000000 0.0828519985 1.0000000000
-0.0105879996 0.0000000000 0.0828460008 1.0000000000
-0.0105980001 0.0000000000 0.0828349963 1.0000000000
-0.0106090000 0.0000000000 0.0828140005 1.0000000000
-0.0106189996 0.0000000000 0.0828000009 1.0000000000
-0.0106300004 0.0000000000 0.0827900022 1.0000000000
-0.0106410002 0.0000000000 0.0827850029 1.0000000000
-0.0106530003 0.0000000000 0.0827800035 1.0000000000
-0.0106640002 0.0000000000 0.0827760026 1.0000000000
-0.0106750000 0.0000000000 0.0827689990 1.0000000000
-0.0106859999 0.0000000000 0.0827580020 1.0000000000
-0.0106980000 0.0000000000 0.0827450007 1.0000000000
-0.0107079996 0.0000000000 0.0827400014 1.0000000000
-0.0107199997 0.0000000000 0.0827289969 1.0000000000
-0.0107300002 0.0000000000 0.0827179998 1.0000000000
-0.0107420003 0.0000000000 0.0827110037 1.0000000000
-0.0107519999 0.0000000000 0.0827040002 1.0000000000
-0.0107629998 0.0000000000 0.0826909989 1.0000000000
-0.0107739996 0.0000000000 0.0826819986 1.0000000000
-0.0107859997 0.0000000000 0.0826739967 1.0000000000
-0.0107960002 0.0000000000 0.0826620013 1.0000000000
-0.0108059999 0.0000000000 0.0826470032 1.0000000000
-0.0108169997 0.0000000000 0.0826390013 1.0000000000
-0.0108289998 0.0000000000 0.0826359987 1.0000000000
-0.0108409999 0.0000000000 0.0826340020 1.0000000000
-0.0108519997 0.0000000000 0.0826279968 1.0000000000
-0.0108620003 0.0000000000 0.0826139972 1.0000000000
-0.0108719999 0.0000000000 0.0825949982 1.0000000000
-0.0108820004 0.0000000000 0.0825800002 1.0000000000
-0.0108939996 0.0000000000 0.0825709999 1.0000000000
-0.0109050004 0.0000000000 0.0825650021 1.0000000000
-0.0109160002 0.0000000000 0.0825539976 1.0000000000
-0.0109259998 0.0000000000 0.0825430006 1.0000000000
-0.0109369997 0.0000000000 0.0825309977 1.0000000000
-0.0109479995 0.0000000000 0.0825240016 1.0000000000
-0.0109599996 0.0000000000 0.0825200006 1.0000000000
-0.0109700002 0.0000000000 0.0825119987 1.0000000000
-0.0109820003 0.0000000000 0.0825020000 1.0000000000
-0.0109919999 0.0000000000 0.0824910030 1.0000000000
-0.0110029997 0.0000000000 0.0824820027 1.0000000000
-0.0110139996 0.0000000000 0.0824730024 1.0000000000
-0.0110250004 0.0000000000 0.0824650005 1.0000000000
-0.0110360002 0.0000000000 0.0824619979 1.0000000000
-0.0110470001 0.0000000000 0.0824550018 1.0000000000
-0.0110579999 0.0000000000 0.0824399963 1.0000000000
-0.0110680005 0.0000000000 0.0824230015 1.0000000000
-0.0110780001 0.0000000000 0.0824119970 1.0000000000
-0.0110900002 0.0000000000 0.0824069977 1.0000000000
-0.0111010000 0.0000000000 0.0824059993 1.0000000000
-0.0111130001 0.0000000000 0.0823979974 1.0000000000
-0.0111229997 0.0000000000 0.0823839977 1.0000000000
-0.0111339996 0.0000000000 0.0823720023 1.0000000000
-0.0111450003 0.0000000000 0.0823709965 1.0000000000
-0.0111570004 0.0000000000 0.0823630020 1.0000000000
-0.0111659998 0.0000000000 0.0823469982 1.0000000000
-0.0111760003 0.0000000000 0.0823270008 1.0000000000
-0.0111870002 0.0000000000 0.0823239982 1.0000000000
-0.0111990003 0.0000000000 0.0823189989 1.0000000000
-0.0112089999 0.0000000000 0.0823080018 1.0000000000
-0.0112210000 0.0000000000 0.0822969973 1.0000000000
-0.0112319998 0.0000000000 0.0822969973 1.0000000000
-0.0112429997 0.0000000000 0.0822890028 1.0000000000
-0.0112530002 0.0000000000 0.0822729990 1.0000000000
-0.0112619996 0.0000000000 0.0822490007 1.0000000000
-0.0112730004 0.0000000000 0.0822419971 1.0000000000
-0.0112840002 0.0000000000 0.0822329968 1.0000000000
-0.0112950001 0.0000000000 0.0822219998 1.0000000000
-0.0113070002 0.0000000000 0.0822170004 1.0000000000
-0.0113180000 0.0000000000 0.0822160020 1.0000000000
-0.0113300001 0.0000000000 0.0822110027 1.0000000000
-0.0113380002 0.0000000000 0.0821850002 1.0000000000
-0.0113469996 0.0000000000 0.0821610019 1.0000000000
-0.0113570001 0.0000000000 0.0821480006 1.0000000000
-0.0113679999 0.0000000000 0.0821340010 1.0000000000
-0.0113770002 0.0000000000 0.0821129978 1.0000000000
-0.0113880001 0.0000000000 0.0820979998 1.0000000000
-0.0113979997 0.0000000000 0.0820920020 1.0000000000
-0.0114099998 0.0000000000 0.0820870027 1.0000000000
-0.0114209997 0.0000000000 0.0820840001 1.0000000000
-0.0114329997 0.0000000000 0.0820859969 1.0000000000
-0.0114460001 0.0000000000 0.0820899978 1.0000000000
-0.0114580002 0.0000000000 0.0820899978 1.0000000000
-0.0114700003 0.0000000000 0.0820920020 1.0000000000
-0.0114820004 0.0000000000 0.0820899978 1.0000000000
-0.0114930002 0.0000000000 0.0820840001 1.0000000000
-0.0115050003 0.0000000000 0.0820820034 1.0000000000
-0.0115170004 0.0000000000 0.0820859969 1.0000000000
-0.0115280002 0.0000000000 0.0820849985 1.0000000000
-0.0115400003 0.0000000000 0.0820840001 1.0000000000
-0.0115520004 0.0000000000 0.0820859969 1.0000000000
-0.0115649998 0.0000000000 0.0820889995 1.0000000000
-0.0115769999 0.0000000000 0.0820930004 1.0000000000
-0.0115890000 0.0000000000 0.0820949972 1.0000000000
-0.0116010001 0.0000000000 0.0820939988 1.0000000000
-0.0116119999 0.0000000000 0.0820859969 1.0000000000
-0.0116229998 0.0000000000 0.0820790008 1.0000000000
-0.0116349999 0.0000000000 0.0820780024 1.0000000000
-0.0116459997 0.0000000000 0.0820759982 1.0000000000
-0.0116579998 0.0000000000 0.0820769966 1.0000000000
-0.0116710002 0.0000000000 0.0820790008 1.0000000000
-0.0116830003 0.0000000000 0.0820830017 1.0000000000
-0.0116950003 0.0000000000 0.0820849985 1.0000000000
-0.0117070004 0.0000000000 0.0820899978 1.0000000000
-0.0117189996 0.0000000000 0.0820859969 1.0000000000
-0.0117309997 0.0000000000 0.0820840001 1.0000000000
-0.0117429998 0.0000000000 0.0820859969 1.0000000000
-0.0117539996 0.0000000000 0.0820780024 1.0000000000
-0.0117659997 0.0000000000 0.0820730031 1.0000000000
-0.0117769996 0.0000000000 0.0820740014 1.0000000000
-0.0117899999 0.0000000000 0.0820799991 1.0000000000
-0.0118030002 0.0000000000 0.0820889995 1.0000000000
-0.0118159996 0.0000000000 0.0821050033 1.0000000000
-0.0118290000 0.0000000000 0.0821140036 1.0000000000
-0.0118410001 0.0000000000 0.0821070001 1.0000000000
-0.0118519999 0.0000000000 0.0821039975 1.0000000000
-0.0118629998 0.0000000000 0.0820979998 1.0000000000
-0.0118749999 0.0000000000 0.0820939988 1.0000000000
-0.0118880002 0.0000000000 0.0820979998 1.0000000000
-0.0118990000 0.0000000000 0.0821020007 1.0000000000
-0.0119120004 0.0000000000 0.0820979998 1.0000000000
-0.0119220000 0.0000000000 0.0820939988 1.0000000000
-0.0119350003 0.0000000000 0.0820920020 1.0000000000
-0.0119460002 0.0000000000 0.0820970014 1.0000000000
-0.0119589996 0.0000000000 0.0820989981 1.0000000000
-0.0119700003 0.0000000000 0.0820979998 1.0000000000
-0.0119820004 0.0000000000 0.0820960030 1.0000000000
-0.0119939996 0.0000000000 0.0820999965 1.0000000000
-0.0120069999 0.0000000000 0.0821070001 1.0000000000
-0.0120190000 0.0000000000 0.0821070001 1.0000000000
-0.0120310001 0.0000000000 0.0821010023 1.0000000000
-0.0120420000 0.0000000000 0.0821050033 1.0000000000
-0.0120550003 0.0000000000 0.0821060017 1.0000000000
-0.0120660001 0.0000000000 0.0821010023 1.0000000000
-0.0120770000 0.0000000000 0.0820970014 1.0000000000
-0.0120900003 0.0000000000 0.0821029991 1.0000000000
-0.0121020004 0.0000000000 0.0821039975 1.0000000000
-0.0121130003 0.0000000000 0.0820989981 1.0000000000
-0.0121250004 0.0000000000 0.0820939988 1.0000000000
-0.0121360002 0.0000000000 0.0820949972 1.0000000000
-0.0121480003 0.0000000000 0.0820960030 1.0000000000
-0.0121609997 0.0000000000 0.0820999965 1.0000000000
-0.0121729998 0.0000000000 0.0820989981 1.0000000000
-0.0121839996 0.0000000000 0.0820960030 1.0000000000
-0.0121959997 0.0000000000 0.0820989981 1.0000000000
-0.0122090001 0.0000000000 0.0821050033 1.0000000000
-0.0122210002 0.0000000000 0.0820989981 1.0000000000
-0.0122320000 0.0000000000 0.0820949972 1.0000000000
-0.0122440001 0.0000000000 0.0820989981 1.0000000000
-0.0122560002 0.0000000000 0.0820979998 1.0000000000
-0.0122680003 0.0000000000 0.0820910037 1.0000000000
-0.0122790001 0.0000000000 0.0820960030 1.0000000000
-0.0122920005 0.0000000000 0.0821050033 1.0000000000
-0.0123039996 0.0000000000 0.0821060017 1.0000000000
-0.0123159997 0.0000000000 0.0821060017 1.0000000000
