VERSION 0.7
FIELDS x y z intensity
SIZE 4 4 4 4
TYPE F F F F
COUNT 1 1 1 1
WIDTH 1242
HEIGHT 1
VIEWPOINT 0.0 0.0 0.0 1.0 0.0 0.0 0.0
POINTS 1242
DATA ascii
0.0121689998 0.0000000000 0.0816909969 1.0000000000
0.0121560004 0.0000000000 0.0816930011 1.0000000000
0.0121459998 0.0000000000 0.0816920027 1.0000000000
0.0121339997 0.0000000000 0.0816880018 1.0000000000
0.0121210003 0.0000000000 0.0816849992 1.0000000000
0.0121090002 0.0000000000 0.0816899985 1.0000000000
0.0120999999 0.0000000000 0.0816999972 1.0000000000
0.0120860003 0.0000000000 0.0816980004 1.0000000000
0.0120750004 0.0000000000 0.0816949978 1.0000000000
0.0120620001 0.0000000000 0.0816899985 1.0000000000
0.0120510003 0.0000000000 0.0816920027 1.0000000000
0.0120400004 0.0000000000 0.0816960037 1.0000000000
0.0120280003 0.0000000000 0.0816939995 1.0000000000
0.0120150000 0.0000000000 0.0816930011 1.0000000000
0.0120050004 0.0000000000 0.0816980004 1.0000000000
0.0119920000 0.0000000000 0.0816980004 1.0000000000
0.0119810002 0.0000000000 0.0816949978 1.0000000000
0.0119679999 0.0000000000 0.0816930011 1.0000000000
0.0119580003 0.0000000000 0.0816970021 1.0000000000
0.0119470004 0.0000000000 0.0817039981 1.0000000000
0.0119340001 0.0000000000 0.0816989988 1.0000000000
0.0119209997 0.0000000000 0.0816890001 1.0000000000
0.0119089996 0.0000000000 0.0816890001 1.0000000000
0.0118960002 0.0000000000 0.0816909969 1.0000000000
0.0118850004 0.0000000000 0.0816870034 1.0000000000
0.0118720001 0.0000000000 0.0816809982 1.0000000000
0.0118620005 0.0000000000 0.0816859975 1.0000000000
0.0118490001 0.0000000000 0.0816909969 1.0000000000
0.0118389996 0.0000000000 0.0816930011 1.0000000000
0.0118249999 0.0000000000 0.0816899985 1.0000000000
0.0118140001 0.0000000000 0.0816859975 1.0000000000
0.0118030002 0.0000000000 0.0816880018 1.0000000000
0.0117920004 0.0000000000 0.0816939995 1.0000000000
0.0117790001 0.0000000000 0.0816970021 1.0000000000
0.0117690004 0.0000000000 0.0816999972 1.0000000000
0.0117560001 0.0000000000 0.0816989988 1.0000000000
0.0117450003 0.0000000000 0.0817010030 1.0000000000
0.0117349997 0.0000000000 0.0817100033 1.0000000000
0.0117229996 0.0000000000 0.0817129984 1.0000000000
0.0117100002 0.0000000000 0.0817039981 1.0000000000
0.0116980001 0.0000000000 0.0816999972 1.0000000000
0.0116860000 0.0000000000 0.0817060024 1.0000000000
0.0116750002 0.0000000000 0.0817060024 1.0000000000
0.0116619999 0.0000000000 0.0816949978 1.0000000000
0.0116499998 0.0000000000 0.0816960037 1.0000000000
0.0116389999 0.0000000000 0.0817020014 1.0000000000
0.0116269998 0.0000000000 0.0817010030 1.0000000000
0.0116140004 0.0000000000 0.0816999972 1.0000000000
0.0116039999 0.0000000000 0.0817039981 1.0000000000
0.0115909996 0.0000000000 0.0817060024 1.0000000000
0.0115809999 0.0000000000 0.0817070007 1.0000000000
0.0115689998 0.0000000000 0.0817029998 1.0000000000
0.0115550002 0.0000000000 0.0816920027 1.0000000000
0.0115440004 0.0000000000 0.0816930011 1.0000000000
0.0115329996 0.0000000000 0.0816989988 1.0000000000
0.0115200002 0.0000000000 0.0816960037 1.0000000000
0.0115080001 0.0000000000 0.0816939995 1.0000000000
0.0114960000 0.0000000000 0.0816960037 1.0000000000
0.0114860004 0.0000000000 0.0817020014 1.0000000000
0.0114740003 0.0000000000 0.0817010030 1.0000000000
0.0114630004 0.0000000000 0.0817070007 1.0000000000
0.0114510003 0.0000000000 0.0817110017 1.0000000000
0.0114390003 0.0000000000 0.0817039981 1.0000000000
0.0114259999 0.0000000000 0.0816960037 1.0000000000
0.0114139998 0.0000000000 0.0816989988 1.0000000000
0.0114040002 0.0000000000 0.0817120001 1.0000000000
0.0113930004 0.0000000000 0.0817179978 1.0000000000
0.0113810003 0.0000000000 0.0817190036 1.0000000000
0.0113690002 0.0000000000 0.0817150027 1.0000000000
0.0113570001 0.0000000000 0.0817100033 1.0000000000
0.0113460002 0.0000000000 0.0817160010 1.0000000000
0.0113319997 0.0000000000 0.0817120001 1.0000000000
0.0113199996 0.0000000000 0.0817020014 1.0000000000
0.0113089997 0.0000000000 0.0817010030 1.0000000000
0.0112979999 0.0000000000 0.0817110017 1.0000000000
0.0112859998 0.0000000000 0.0817200020 1.0000000000
0.0112760002 0.0000000000 0.0817240030 1.0000000000
0.0112619996 0.0000000000 0.0817160010 1.0000000000
0.0112509998 0.0000000000 0.0817120001 1.0000000000
0.0112389997 0.0000000000 0.0817169994 1.0000000000
0.0112290001 0.0000000000 0.0817259997 1.0000000000
0.0112159997 0.0000000000 0.0817309991 1.0000000000
0.0112070004 0.0000000000 0.0817380026 1.0000000000
0.0111959996 0.0000000000 0.0817449987 1.0000000000
0.0111840004 0.0000000000 0.0817430019 1.0000000000
0.0111720003 0.0000000000 0.0817420036 1.0000000000
0.0111609995 0.0000000000 0.0817499980 1.0000000000
0.0111490004 0.0000000000 0.0817620009 1.0000000000
0.0111400001 0.0000000000 0.0817710012 1.0000000000
0.0111260004 0.0000000000 0.0817530006 1.0000000000
0.0111170001 0.0000000000 0.0817779973 1.0000000000
0.0111060003 0.0000000000 0.0817959979 1.0000000000
0.0110990005 0.0000000000 0.0818269998 1.0000000000
0.0110870004 0.0000000000 0.0818400010 1.0000000000
0.0110780001 0.0000000000 0.0818469971 1.0000000000
0.0110660000 0.0000000000 0.0818559974 1.0000000000
0.0110569997 0.0000000000 0.0818720013 1.0000000000
0.0110459998 0.0000000000 0.0818820000 1.0000000000
0.0110339997 0.0000000000 0.0818810016 1.0000000000
0.0110219996 0.0000000000 0.0818850026 1.0000000000
0.0110130003 0.0000000000 0.0818990022 1.0000000000
0.0110029997 0.0000000000 0.0819149986 1.0000000000
0.0109919999 0.0000000000 0.0819260031 1.0000000000
0.0109810000 0.0000000000 0.0819410011 1.0000000000
0.0109730000 0.0000000000 0.0819569975 1.0000000000
0.0109609999 0.0000000000 0.0819640011 1.0000000000
0.0109500000 0.0000000000 0.0819670036 1.0000000000
0.0109390002 0.0000000000 0.0819720030 1.0000000000
0.0109289996 0.0000000000 0.0819870010 1.0000000000
0.0109160002 0.0000000000 0.0819939971 1.0000000000
0.0109059997 0.0000000000 0.0819989964 1.0000000000
0.0108949998 0.0000000000 0.0820119977 1.0000000000
0.0108859995 0.0000000000 0.0820270032 1.0000000000
0.0108749997 0.0000000000 0.0820349976 1.0000000000
0.0108650001 0.0000000000 0.0820460021 1.0000000000
0.0108530000 0.0000000000 0.0820600018 1.0000000000
0.0108439997 0.0000000000 0.0820719972 1.0000000000
0.0108350003 0.0000000000 0.0820930004 1.0000000000
0.0108249998 0.0000000000 0.0821110010 1.0000000000
0.0108120004 0.0000000000 0.0821119994 1.0000000000
0.0108009996 0.0000000000 0.0821129978 1.0000000000
0.0107880002 0.0000000000 0.0821150020 1.0000000000
0.0107789999 0.0000000000 0.0821229964 1.0000000000
0.0107680000 0.0000000000 0.0821359977 1.0000000000
0.0107580004 0.0000000000 0.0821470022 1.0000000000
0.0107450001 0.0000000000 0.0821539983 1.0000000000
0.0107359998 0.0000000000 0.0821679980 1.0000000000
0.0107260002 0.0000000000 0.0821800008 1.0000000000
0.0107150003 0.0000000000 0.0821899995 1.0000000000
0.0107030002 0.0000000000 0.0821989998 1.0000000000
0.0106939999 0.0000000000 0.0822189972 1.0000000000
0.0106830001 0.0000000000 0.0822329968 1.0000000000
0.0106729995 0.0000000000 0.0822369978 1.0000000000
0.0106600001 0.0000000000 0.0822409987 1.0000000000
0.0106499996 0.0000000000 0.0822520033 1.0000000000
0.0106380004 0.0000000000 0.0822589993 1.0000000000
0.0106290001 0.0000000000 0.0822720006 1.0000000000
0.0106170001 0.0000000000 0.0822850019 1.0000000000
0.0106070004 0.0000000000 0.0822959989 1.0000000000
0.0105969999 0.0000000000 0.0823099986 1.0000000000
0.0105860000 0.0000000000 0.0823210031 1.0000000000
0.0105740000 0.0000000000 0.0823289976 1.0000000000
0.0105649997 0.0000000000 0.0823410004 1.0000000000
0.0105529996 0.0000000000 0.0823540017 1.0000000000
0.0105430000 0.0000000000 0.0823649988 1.0000000000
0.0105309999 0.0000000000 0.0823720023 1.0000000000
0.0105219996 0.0000000000 0.0823860019 1.0000000000
0.0105100004 0.0000000000 0.0823969990 1.0000000000
0.0104999999 0.0000000000 0.0824050009 1.0000000000
0.0104879998 0.0000000000 0.0824140012 1.0000000000
0.0104790004 0.0000000000 0.0824259967 1.0000000000
0.0104670003 0.0000000000 0.0824410021 1.0000000000
0.0104580000 0.0000000000 0.0824540034 1.0000000000
0.0104459999 0.0000000000 0.0824550018 1.0000000000
0.0104350001 0.0000000000 0.0824630037 1.0000000000
0.0104250005 0.0000000000 0.0824799985 1.0000000000
0.0104149999 0.0000000000 0.0824939981 1.0000000000
0.0104019996 0.0000000000 0.0825000033 1.0000000000
0.0103920000 0.0000000000 0.0825090036 1.0000000000
0.0103799999 0.0000000000 0.0825209990 1.0000000000
0.0103709996 0.0000000000 0.0825340003 1.0000000000
0.0103610000 0.0000000000 0.0825479999 1.0000000000
0.0103500001 0.0000000000 0.0825610012 1.0000000000
0.0103380000 0.0000000000 0.0825719982 1.0000000000
0.0103289997 0.0000000000 0.0825870037 1.0000000000
0.0103169996 0.0000000000 0.0825949982 1.0000000000
0.0103070000 0.0000000000 0.0826010033 1.0000000000
0.0102960002 0.0000000000 0.0826089978 1.0000000000
0.0102859996 0.0000000000 0.0826269984 1.0000000000
0.0102760000 0.0000000000 0.0826470032 1.0000000000
0.0102650002 0.0000000000 0.0826560035 1.0000000000
0.0102519998 0.0000000000 0.0826580003 1.0000000000
0.0102420002 0.0000000000 0.0826710016 1.0000000000
0.0102319997 0.0000000000 0.0826909989 1.0000000000
0.0102220001 0.0000000000 0.0827049986 1.0000000000
0.0102110002 0.0000000000 0.0827130005 1.0000000000
0.0102000004 0.0000000000 0.0827199966 1.0000000000
0.0101870000 0.0000000000 0.0827270001 1.0000000000
0.0101779997 0.0000000000 0.0827390030 1.0000000000
0.0101659996 0.0000000000 0.0827519968 1.0000000000
0.0101570003 0.0000000000 0.0827680007 1.0000000000
0.0101450002 0.0000000000 0.0827800035 1.0000000000
0.0101349996 0.0000000000 0.0827850029 1.0000000000
0.0101220002 0.0000000000 0.0827749968 1.0000000000
0.0101079997 0.0000000000 0.0827649981 1.0000000000
0.0100969998 0.0000000000 0.0827789977 1.0000000000
0.0100880004 0.0000000000 0.0827940032 1.0000000000
0.0101129999 0.0000000000 0.0831580013 1.0000000000
0.0101020001 0.0000000000 0.0831570029 1.0000000000
0.0101319999 0.0000000000 0.0835610032 1.0000000000
0.0101210000 0.0000000000 0.0835660025 1.0000000000
0.0076339999 0.0000000000 0.0828109980 1.0000000000
0.0076210001 0.0000000000 0.0828040019 1.0000000000
0.0076080002 0.0000000000 0.0827950016 1.0000000000
0.0075949999 0.0000000000 0.0827900022 1.0000000000
0.0075840000 0.0000000000 0.0827910006 1.0000000000
0.0075719999 0.0000000000 0.0827889964 1.0000000000
0.0075590000 0.0000000000 0.0827800035 1.0000000000
0.0075460002 0.0000000000 0.0827670023 1.0000000000
0.0075329999 0.0000000000 0.0827549994 1.0000000000
0.0075190002 0.0000000000 0.0827459991 1.0000000000
0.0075070001 0.0000000000 0.0827369988 1.0000000000
0.0074939998 0.0000000000 0.0827270001 1.0000000000
0.0074809999 0.0000000000 0.0827189982 1.0000000000
0.0074680001 0.0000000000 0.0826969966 1.0000000000
0.0074539999 0.0000000000 0.0826779976 1.0000000000
0.0074410001 0.0000000000 0.0826639980 1.0000000000
0.0074270000 0.0000000000 0.0826480016 1.0000000000
0.0074140001 0.0000000000 0.0826359987 1.0000000000
0.0074020000 0.0000000000 0.0826300010 1.0000000000
0.0073879999 0.0000000000 0.0826160014 1.0000000000
0.0073750000 0.0000000000 0.0825970024 1.0000000000
0.0073620002 0.0000000000 0.0825849995 1.0000000000
0.0073500001 0.0000000000 0.0825780034 1.0000000000
0.0073370002 0.0000000000 0.0825660005 1.0000000000
0.0073239999 0.0000000000 0.0825539976 1.0000000000
0.0073099998 0.0000000000 0.0825449973 1.0000000000
0.0072980002 0.0000000000 0.0825290009 1.0000000000
0.0072849998 0.0000000000 0.0825150013 1.0000000000
0.0072720000 0.0000000000 0.0825050026 1.0000000000
0.0072570001 0.0000000000 0.0824910030 1.0000000000
0.0072460002 0.0000000000 0.0824809968 1.0000000000
0.0072329999 0.0000000000 0.0824709982 1.0000000000
0.0072209998 0.0000000000 0.0824659988 1.0000000000
0.0072059999 0.0000000000 0.0824489966 1.0000000000
0.0071939998 0.0000000000 0.0824330002 1.0000000000
0.0071800002 0.0000000000 0.0824220031 1.0000000000
0.0071689999 0.0000000000 0.0824149996 1.0000000000
0.0071560000 0.0000000000 0.0824119970 1.0000000000
0.0071439999 0.0000000000 0.0824029967 1.0000000000
0.0071299998 0.0000000000 0.0823860019 1.0000000000
0.0071169999 0.0000000000 0.0823649988 1.0000000000
0.0071020001 0.0000000000 0.0823509991 1.0000000000
0.0070910002 0.0000000000 0.0823479965 1.0000000000
0.0070770001 0.0000000000 0.0823239982 1.0000000000
0.0070639998 0.0000000000 0.0823070034 1.0000000000
0.0070509999 0.0000000000 0.0823030025 1.0000000000
0.0070389998 0.0000000000 0.0822980031 1.0000000000
0.0070250002 0.0000000000 0.0822829977 1.0000000000
0.0070130001 0.0000000000 0.0822699964 1.0000000000
0.0069980002 0.0000000000 0.0822499990 1.0000000000
0.0069860001 0.0000000000 0.0822329968 1.0000000000
0.0069729998 0.0000000000 0.0822310001 1.0000000000
0.0069619999 0.0000000000 0.0822329968 1.0000000000
0.0069499998 0.0000000000 0.0822269991 1.0000000000
0.0069360002 0.0000000000 0.0822080001 1.0000000000
0.0069220001 0.0000000000 0.0821890011 1.0000000000
0.0069100000 0.0000000000 0.0821790025 1.0000000000
0.0068979999 0.0000000000 0.0821750015 1.0000000000
0.0068850000 0.0000000000 0.0821710005 1.0000000000
0.0068720002 0.0000000000 0.0821579993 1.0000000000
0.0068589998 0.0000000000 0.0821430013 1.0000000000
0.0068450002 0.0000000000 0.0821330026 1.0000000000
0.0068339999 0.0000000000 0.0821229964 1.0000000000
0.0068199998 0.0000000000 0.0821060017 1.0000000000
0.0068069999 0.0000000000 0.0820930004 1.0000000000
0.0067940000 0.0000000000 0.0820809975 1.0000000000
0.0067810002 0.0000000000 0.0820650011 1.0000000000
0.0067679998 0.0000000000 0.0820539966 1.0000000000
0.0067550000 0.0000000000 0.0820380002 1.0000000000
0.0067409999 0.0000000000 0.0820240006 1.0000000000
0.0067300000 0.0000000000 0.0820159987 1.0000000000
0.0067170002 0.0000000000 0.0820029974 1.0000000000
0.0067039998 0.0000000000 0.0819900036 1.0000000000
0.0066910000 0.0000000000 0.0819759965 1.0000000000
0.0066780001 0.0000000000 0.0819659978 1.0000000000
0.0066640000 0.0000000000 0.0819619969 1.0000000000
0.0066530001 0.0000000000 0.0819569975 1.0000000000
0.0066410000 0.0000000000 0.0819490030 1.0000000000
0.0066280002 0.0000000000 0.0819440037 1.0000000000
0.0066140001 0.0000000000 0.0819299966 1.0000000000
0.0066020000 0.0000000000 0.0819069967 1.0000000000
0.0065870001 0.0000000000 0.0818869993 1.0000000000
0.0065750000 0.0000000000 0.0818729997 1.0000000000
0.0065629999 0.0000000000 0.0818729997 1.0000000000
0.0065520001 0.0000000000 0.0818749964 1.0000000000
0.0065380000 0.0000000000 0.0818540007 1.0000000000
0.0065239999 0.0000000000 0.0818269998 1.0000000000
0.0065100002 0.0000000000 0.0818149969 1.0000000000
0.0064980001 0.0000000000 0.0818009973 1.0000000000
0.0064849998 0.0000000000 0.0817999989 1.0000000000
0.0064739999 0.0000000000 0.0817930028 1.0000000000
0.0064610001 0.0000000000 0.0817779973 1.0000000000
0.0064490000 0.0000000000 0.0817760006 1.0000000000
0.0064369999 0.0000000000 0.0817859992 1.0000000000
0.0064260000 0.0000000000 0.0817880034 1.0000000000
0.0064139999 0.0000000000 0.0817850009 1.0000000000
0.0064010001 0.0000000000 0.0817779973 1.0000000000
0.0063890000 0.0000000000 0.0817700028 1.0000000000
0.0063760001 0.0000000000 0.0817679986 1.0000000000
0.0063649998 0.0000000000 0.0817689970 1.0000000000
0.0063530002 0.0000000000 0.0817710012 1.0000000000
0.0063399998 0.0000000000 0.0817729980 1.0000000000
0.0063299998 0.0000000000 0.0817829967 1.0000000000
0.0063169999 0.0000000000 0.0817890018 1.0000000000
0.0063060001 0.0000000000 0.0817869976 1.0000000000
0.0062919999 0.0000000000 0.0817790031 1.0000000000
0.0062819999 0.0000000000 0.0817809999 1.0000000000
0.0062680002 0.0000000000 0.0817809999 1.0000000000
0.0062580002 0.0000000000 0.0817819983 1.0000000000
0.0062440000 0.0000000000 0.0817819983 1.0000000000
0.0062330002 0.0000000000 0.0817750022 1.0000000000
0.0062190001 0.0000000000 0.0817639977 1.0000000000
0.0062090000 0.0000000000 0.0817660019 1.0000000000
0.0061960001 0.0000000000 0.0817729980 1.0000000000
0.0061860001 0.0000000000 0.0817809999 1.0000000000
0.0061730002 0.0000000000 0.0817800015 1.0000000000
0.0061619999 0.0000000000 0.0817779973 1.0000000000
0.0061499998 0.0000000000 0.0817769989 1.0000000000
0.0061380002 0.0000000000 0.0817779973 1.0000000000
0.0061260001 0.0000000000 0.0817779973 1.0000000000
0.0061130002 0.0000000000 0.0817750022 1.0000000000
0.0060999999 0.0000000000 0.0817719996 1.0000000000
0.0060899998 0.0000000000 0.0817800015 1.0000000000
0.0060769999 0.0000000000 0.0817900002 1.0000000000
0.0060669999 0.0000000000 0.0817919970 1.0000000000
0.0060530002 0.0000000000 0.0817880034 1.0000000000
0.0060419999 0.0000000000 0.0817829967 1.0000000000
0.0060290000 0.0000000000 0.0817819983 1.0000000000
0.0060180002 0.0000000000 0.0817819983 1.0000000000
0.0060060001 0.0000000000 0.0817779973 1.0000000000
0.0059940000 0.0000000000 0.0817840025 1.0000000000
0.0059819999 0.0000000000 0.0817840025 1.0000000000
0.0059699998 0.0000000000 0.0817829967 1.0000000000
0.0059570000 0.0000000000 0.0817890018 1.0000000000
0.0059469999 0.0000000000 0.0817990005 1.0000000000
0.0059349998 0.0000000000 0.0817949995 1.0000000000
0.0059219999 0.0000000000 0.0817880034 1.0000000000
0.0059090001 0.0000000000 0.0817890018 1.0000000000
0.0058990000 0.0000000000 0.0817949995 1.0000000000
0.0058849999 0.0000000000 0.0817959979 1.0000000000
0.0058749998 0.0000000000 0.0817959979 1.0000000000
0.0058610002 0.0000000000 0.0817959979 1.0000000000
0.0058499998 0.0000000000 0.0817940012 1.0000000000
0.0058370000 0.0000000000 0.0817880034 1.0000000000
0.0058260001 0.0000000000 0.0817869976 1.0000000000
0.0058140000 0.0000000000 0.0817859992 1.0000000000
0.0058019999 0.0000000000 0.0817840025 1.0000000000
0.0057899999 0.0000000000 0.0817859992 1.0000000000
0.0057780002 0.0000000000 0.0817880034 1.0000000000
0.0057649999 0.0000000000 0.0817859992 1.0000000000
0.0057540000 0.0000000000 0.0817859992 1.0000000000
0.0057410002 0.0000000000 0.0817869976 1.0000000000
0.0057299999 0.0000000000 0.0817890018 1.0000000000
0.0057179998 0.0000000000 0.0817840025 1.0000000000
0.0057049999 0.0000000000 0.0817800015 1.0000000000
0.0056929998 0.0000000000 0.0817880034 1.0000000000
0.0056820000 0.0000000000 0.0817930028 1.0000000000
0.0056699999 0.0000000000 0.0817840025 1.0000000000
0.0056570000 0.0000000000 0.0817800015 1.0000000000
0.0056440001 0.0000000000 0.0817790031 1.0000000000
0.0056329998 0.0000000000 0.0817800015 1.0000000000
0.0056220000 0.0000000000 0.0817840025 1.0000000000
0.0056099999 0.0000000000 0.0817890018 1.0000000000
0.0055970000 0.0000000000 0.0817940012 1.0000000000
0.0055860002 0.0000000000 0.0817959979 1.0000000000
0.0055729998 0.0000000000 0.0817869976 1.0000000000
0.0055620000 0.0000000000 0.0817850009 1.0000000000
0.0055499999 0.0000000000 0.0817850009 1.0000000000
0.0055370000 0.0000000000 0.0817800015 1.0000000000
0.0055240002 0.0000000000 0.0817779973 1.0000000000
0.0055129998 0.0000000000 0.0817829967 1.0000000000
0.0055010002 0.0000000000 0.0817850009 1.0000000000
0.0054899999 0.0000000000 0.0817880034 1.0000000000
0.0054770000 0.0000000000 0.0817880034 1.0000000000
0.0054660002 0.0000000000 0.0817859992 1.0000000000
0.0054529998 0.0000000000 0.0817819983 1.0000000000
0.0054410002 0.0000000000 0.0817790031 1.0000000000
0.0054290001 0.0000000000 0.0817840025 1.0000000000
0.0054179998 0.0000000000 0.0817890018 1.0000000000
0.0054040002 0.0000000000 0.0817869976 1.0000000000
0.0053929999 0.0000000000 0.0817840025 1.0000000000
0.0053800000 0.0000000000 0.0817769989 1.0000000000
0.0053690001 0.0000000000 0.0817769989 1.0000000000
0.0053559998 0.0000000000 0.0817800015 1.0000000000
0.0053450000 0.0000000000 0.0817819983 1.0000000000
0.0053320001 0.0000000000 0.0817880034 1.0000000000
0.0053220000 0.0000000000 0.0817969963 1.0000000000
0.0053099999 0.0000000000 0.0817909986 1.0000000000
0.0052970001 0.0000000000 0.0817859992 1.0000000000
0.0052840002 0.0000000000 0.0817850009 1.0000000000
0.0052729999 0.0000000000 0.0817809999 1.0000000000
0.0052600000 0.0000000000 0.0817850009 1.0000000000
0.0052490002 0.0000000000 0.0817890018 1.0000000000
0.0052359998 0.0000000000 0.0817859992 1.0000000000
0.0052250000 0.0000000000 0.0817800015 1.0000000000
0.0052120001 0.0000000000 0.0817760006 1.0000000000
0.0052009998 0.0000000000 0.0817869976 1.0000000000
0.0051879999 0.0000000000 0.0817930028 1.0000000000
0.0051779998 0.0000000000 0.0817949995 1.0000000000
0.0051650000 0.0000000000 0.0817919970 1.0000000000
0.0051529999 0.0000000000 0.0817900002 1.0000000000
0.0051400000 0.0000000000 0.0817859992 1.0000000000
0.0051290002 0.0000000000 0.0817850009 1.0000000000
0.0051170001 0.0000000000 0.0817900002 1.0000000000
0.0051050000 0.0000000000 0.0817900002 1.0000000000
0.0050929999 0.0000000000 0.0817829967 1.0000000000
0.0050809998 0.0000000000 0.0817840025 1.0000000000
0.0050679999 0.0000000000 0.0817940012 1.0000000000
0.0050579999 0.0000000000 0.0817969963 1.0000000000
0.0050450000 0.0000000000 0.0817909986 1.0000000000
0.0050329999 0.0000000000 0.0817890018 1.0000000000
0.0050200000 0.0000000000 0.0817930028 1.0000000000
0.0050100000 0.0000000000 0.0818030015 1.0000000000
0.0049970001 0.0000000000 0.0818099976 1.0000000000
0.0049859998 0.0000000000 0.0818120018 1.0000000000
0.0049729999 0.0000000000 0.0818009973 1.0000000000
0.0049609998 0.0000000000 0.0817949995 1.0000000000
0.0049480000 0.0000000000 0.0817940012 1.0000000000
0.0049370001 0.0000000000 0.0817930028 1.0000000000
0.0049250000 0.0000000000 0.0817930028 1.0000000000
0.0049129999 0.0000000000 0.0817930028 1.0000000000
0.0049000001 0.0000000000 0.0817930028 1.0000000000
0.0048890002 0.0000000000 0.0817940012 1.0000000000
0.0048759999 0.0000000000 0.0817930028 1.0000000000
0.0048650000 0.0000000000 0.0817930028 1.0000000000
0.0048520002 0.0000000000 0.0817940012 1.0000000000
0.0048409998 0.0000000000 0.0817990005 1.0000000000
0.0048280000 0.0000000000 0.0817949995 1.0000000000
0.0048170001 0.0000000000 0.0817880034 1.0000000000
0.0048039998 0.0000000000 0.0817840025 1.0000000000
0.0047929999 0.0000000000 0.0817859992 1.0000000000
0.0047800001 0.0000000000 0.0817869976 1.0000000000
0.0047690002 0.0000000000 0.0817890018 1.0000000000
0.0047559999 0.0000000000 0.0817930028 1.0000000000
0.0047450000 0.0000000000 0.0817949995 1.0000000000
0.0047330000 0.0000000000 0.0817909986 1.0000000000
0.0047209999 0.0000000000 0.0817859992 1.0000000000
0.0047070002 0.0000000000 0.0817850009 1.0000000000
0.0046970001 0.0000000000 0.0817880034 1.0000000000
0.0046839998 0.0000000000 0.0817930028 1.0000000000
0.0046730000 0.0000000000 0.0818030015 1.0000000000
0.0046600001 0.0000000000 0.0818020031 1.0000000000
0.0046489998 0.0000000000 0.0817959979 1.0000000000
0.0046370002 0.0000000000 0.0817880034 1.0000000000
0.0046239998 0.0000000000 0.0817850009 1.0000000000
0.0046130000 0.0000000000 0.0817900002 1.0000000000
0.0046009999 0.0000000000 0.0817969963 1.0000000000
0.0045880000 0.0000000000 0.0817949995 1.0000000000
0.0045770002 0.0000000000 0.0818020031 1.0000000000
0.0045639998 0.0000000000 0.0818039998 1.0000000000
0.0045530000 0.0000000000 0.0817940012 1.0000000000
0.0045400001 0.0000000000 0.0817919970 1.0000000000
0.0045289998 0.0000000000 0.0818030015 1.0000000000
0.0045170002 0.0000000000 0.0818080008 1.0000000000
0.0045050001 0.0000000000 0.0818070024 1.0000000000
0.0044920002 0.0000000000 0.0818039998 1.0000000000
0.0044809999 0.0000000000 0.0818080008 1.0000000000
0.0044680000 0.0000000000 0.0818099976 1.0000000000
0.0044570002 0.0000000000 0.0818080008 1.0000000000
0.0044439998 0.0000000000 0.0817980021 1.0000000000
0.0044320002 0.0000000000 0.0817959979 1.0000000000
0.0044200001 0.0000000000 0.0817990005 1.0000000000
0.0044080000 0.0000000000 0.0817969963 1.0000000000
0.0043959999 0.0000000000 0.0817890018 1.0000000000
0.0043839999 0.0000000000 0.0817890018 1.0000000000
0.0043710000 0.0000000000 0.0818009973 1.0000000000
0.0043600001 0.0000000000 0.0818070024 1.0000000000
0.0043469998 0.0000000000 0.0817990005 1.0000000000
0.0043360000 0.0000000000 0.0817959979 1.0000000000
0.0043239999 0.0000000000 0.0817990005 1.0000000000
0.0043119998 0.0000000000 0.0817940012 1.0000000000
0.0042980001 0.0000000000 0.0817859992 1.0000000000
0.0042869998 0.0000000000 0.0817919970 1.0000000000
0.0042739999 0.0000000000 0.0817919970 1.0000000000
0.0042630001 0.0000000000 0.0817930028 1.0000000000
0.0042519998 0.0000000000 0.0817969963 1.0000000000
0.0042400002 0.0000000000 0.0817999989 1.0000000000
0.0042260000 0.0000000000 0.0818009973 1.0000000000
0.0042160000 0.0000000000 0.0818009973 1.0000000000
0.0042030001 0.0000000000 0.0817980021 1.0000000000
0.0041910000 0.0000000000 0.0817999989 1.0000000000
0.0041800002 0.0000000000 0.0818049982 1.0000000000
0.0041680001 0.0000000000 0.0818059966 1.0000000000
0.0041540000 0.0000000000 0.0818030015 1.0000000000
0.0041430001 0.0000000000 0.0818030015 1.0000000000
0.0041310000 0.0000000000 0.0817959979 1.0000000000
0.0041189999 0.0000000000 0.0817930028 1.0000000000
0.0041060001 0.0000000000 0.0817999989 1.0000000000
0.0040950002 0.0000000000 0.0818039998 1.0000000000
0.0040830001 0.0000000000 0.0817990005 1.0000000000
0.0040710000 0.0000000000 0.0817999989 1.0000000000
0.0040589999 0.0000000000 0.0818049982 1.0000000000
0.0040469998 0.0000000000 0.0818059966 1.0000000000
0.0040350002 0.0000000000 0.0818070024 1.0000000000
0.0040230001 0.0000000000 0.0818080008 1.0000000000
0.0040099998 0.0000000000 0.0818080008 1.0000000000
0.0039989999 0.0000000000 0.0818080008 1.0000000000
0.0039849998 0.0000000000 0.0818020031 1.0000000000
0.0039740000 0.0000000000 0.0817999989 1.0000000000
0.0039630001 0.0000000000 0.0818049982 1.0000000000
0.0039510000 0.0000000000 0.0818070024 1.0000000000
0.0039369999 0.0000000000 0.0817999989 1.0000000000
0.0039260001 0.0000000000 0.0817909986 1.0000000000
0.0039140000 0.0000000000 0.0817869976 1.0000000000
0.0039019999 0.0000000000 0.0817940012 1.0000000000
0.0038890000 0.0000000000 0.0817999989 1.0000000000
0.0038780000 0.0000000000 0.0817949995 1.0000000000
0.0038660001 0.0000000000 0.0817959979 1.0000000000
0.0038540000 0.0000000000 0.0818059966 1.0000000000
0.0038409999 0.0000000000 0.0818089992 1.0000000000
0.0038300001 0.0000000000 0.0818080008 1.0000000000
0.0038180000 0.0000000000 0.0818070024 1.0000000000
0.0038060001 0.0000000000 0.0817999989 1.0000000000
0.0037920000 0.0000000000 0.0817940012 1.0000000000
0.0037819999 0.0000000000 0.0818039998 1.0000000000
0.0037690001 0.0000000000 0.0818099976 1.0000000000
0.0037580000 0.0000000000 0.0818070024 1.0000000000
0.0037450001 0.0000000000 0.0818099976 1.0000000000
0.0037340000 0.0000000000 0.0818110034 1.0000000000
0.0037209999 0.0000000000 0.0818059966 1.0000000000
0.0037090001 0.0000000000 0.0818039998 1.0000000000
0.0036970000 0.0000000000 0.0818049982 1.0000000000
0.0036849999 0.0000000000 0.0818039998 1.0000000000
0.0036730000 0.0000000000 0.0817969963 1.0000000000
0.0036609999 0.0000000000 0.0817959979 1.0000000000
0.0036480001 0.0000000000 0.0817999989 1.0000000000
0.0036370000 0.0000000000 0.0818080008 1.0000000000
0.0036249999 0.0000000000 0.0818149969 1.0000000000
0.0036130000 0.0000000000 0.0818210021 1.0000000000
0.0035999999 0.0000000000 0.0818170011 1.0000000000
0.0035890001 0.0000000000 0.0818110034 1.0000000000
0.0035770000 0.0000000000 0.0818160027 1.0000000000
0.0035649999 0.0000000000 0.0818189979 1.0000000000
0.0035530000 0.0000000000 0.0818130001 1.0000000000
0.0035410000 0.0000000000 0.0818070024 1.0000000000
0.0035280001 0.0000000000 0.0818039998 1.0000000000
0.0035160000 0.0000000000 0.0818030015 1.0000000000
0.0035039999 0.0000000000 0.0818070024 1.0000000000
0.0034920000 0.0000000000 0.0818009973 1.0000000000
0.0034789999 0.0000000000 0.0817980021 1.0000000000
0.0034680001 0.0000000000 0.0817999989 1.0000000000
0.0034550000 0.0000000000 0.0817999989 1.0000000000
0.0034439999 0.0000000000 0.0818049982 1.0000000000
0.0034320001 0.0000000000 0.0818039998 1.0000000000
0.0034200000 0.0000000000 0.0817990005 1.0000000000
0.0034070001 0.0000000000 0.0818020031 1.0000000000
0.0033960000 0.0000000000 0.0818110034 1.0000000000
0.0033829999 0.0000000000 0.0818189979 1.0000000000
0.0033720001 0.0000000000 0.0818160027 1.0000000000
0.0033600000 0.0000000000 0.0818039998 1.0000000000
0.0033470001 0.0000000000 0.0817980021 1.0000000000
0.0033360000 0.0000000000 0.0818030015 1.0000000000
0.0033239999 0.0000000000 0.0818059966 1.0000000000
0.0033110001 0.0000000000 0.0818099976 1.0000000000
0.0033000000 0.0000000000 0.0818200037 1.0000000000
0.0032870001 0.0000000000 0.0818239972 1.0000000000
0.0032760000 0.0000000000 0.0818269998 1.0000000000
0.0032629999 0.0000000000 0.0818229988 1.0000000000
0.0032520001 0.0000000000 0.0818170011 1.0000000000
0.0032390000 0.0000000000 0.0818149969 1.0000000000
0.0032269999 0.0000000000 0.0818120018 1.0000000000
0.0032140000 0.0000000000 0.0818099976 1.0000000000
0.0032029999 0.0000000000 0.0818139985 1.0000000000
0.0031900001 0.0000000000 0.0818160027 1.0000000000
0.0031790000 0.0000000000 0.0818130001 1.0000000000
0.0031669999 0.0000000000 0.0818139985 1.0000000000
0.0031550000 0.0000000000 0.0818229988 1.0000000000
0.0031440000 0.0000000000 0.0818300024 1.0000000000
0.0031310001 0.0000000000 0.0818279982 1.0000000000
0.0031180000 0.0000000000 0.0818179995 1.0000000000
0.0031069999 0.0000000000 0.0818120018 1.0000000000
0.0030930000 0.0000000000 0.0818059966 1.0000000000
0.0030820000 0.0000000000 0.0818020031 1.0000000000
0.0030690001 0.0000000000 0.0817980021 1.0000000000
0.0030580000 0.0000000000 0.0818080008 1.0000000000
0.0030449999 0.0000000000 0.0818149969 1.0000000000
0.0030350001 0.0000000000 0.0818149969 1.0000000000
0.0030210000 0.0000000000 0.0818080008 1.0000000000
0.0030100001 0.0000000000 0.0818089992 1.0000000000
0.0029970000 0.0000000000 0.0818080008 1.0000000000
0.0029859999 0.0000000000 0.0818089992 1.0000000000
0.0029730001 0.0000000000 0.0818170011 1.0000000000
0.0029620000 0.0000000000 0.0818229988 1.0000000000
0.0029490001 0.0000000000 0.0818089992 1.0000000000
0.0029380000 0.0000000000 0.0818099976 1.0000000000
0.0029249999 0.0000000000 0.0818170011 1.0000000000
0.0029140001 0.0000000000 0.0818139985 1.0000000000
0.0029000000 0.0000000000 0.0818059966 1.0000000000
0.0028890001 0.0000000000 0.0818039998 1.0000000000
0.0028760000 0.0000000000 0.0817990005 1.0000000000
0.0028649999 0.0000000000 0.0818020031 1.0000000000
0.0028530001 0.0000000000 0.0818120018 1.0000000000
0.0028420000 0.0000000000 0.0818229988 1.0000000000
0.0028280001 0.0000000000 0.0818179995 1.0000000000
0.0028170000 0.0000000000 0.0818139985 1.0000000000
0.0028049999 0.0000000000 0.0818200037 1.0000000000
0.0027930001 0.0000000000 0.0818289965 1.0000000000
0.0027800000 0.0000000000 0.0818239972 1.0000000000
0.0027689999 0.0000000000 0.0818250030 1.0000000000
0.0027560000 0.0000000000 0.0818260014 1.0000000000
0.0027449999 0.0000000000 0.0818250030 1.0000000000
0.0027330001 0.0000000000 0.0818289965 1.0000000000
0.0027210000 0.0000000000 0.0818329975 1.0000000000
0.0027079999 0.0000000000 0.0818319991 1.0000000000
0.0026970000 0.0000000000 0.0818419978 1.0000000000
0.0026839999 0.0000000000 0.0818499997 1.0000000000
0.0026730001 0.0000000000 0.0818469971 1.0000000000
0.0026610000 0.0000000000 0.0818400010 1.0000000000
0.0026489999 0.0000000000 0.0818390027 1.0000000000
0.0026360000 0.0000000000 0.0818430036 1.0000000000
0.0026250000 0.0000000000 0.0818469971 1.0000000000
0.0026130001 0.0000000000 0.0818469971 1.0000000000
0.0026010000 0.0000000000 0.0818490013 1.0000000000
0.0025889999 0.0000000000 0.0818490013 1.0000000000
0.0025770001 0.0000000000 0.0818530023 1.0000000000
0.0025640000 0.0000000000 0.0818570033 1.0000000000
0.0025530001 0.0000000000 0.0818590000 1.0000000000
0.0025400000 0.0000000000 0.0818570033 1.0000000000
0.0025289999 0.0000000000 0.0818620026 1.0000000000
0.0025160001 0.0000000000 0.0818760023 1.0000000000
0.0025050000 0.0000000000 0.0818979964 1.0000000000
0.0024929999 0.0000000000 0.0819109976 1.0000000000
0.0024820000 0.0000000000 0.0819310024 1.0000000000
0.0024689999 0.0000000000 0.0819429979 1.0000000000
0.0024580001 0.0000000000 0.0819460005 1.0000000000
0.0024450000 0.0000000000 0.0819460005 1.0000000000
0.0024339999 0.0000000000 0.0819469988 1.0000000000
0.0024210000 0.0000000000 0.0819519982 1.0000000000
0.0024100000 0.0000000000 0.0819670036 1.0000000000
-0.0024600001 0.0000000000 0.0821999982 1.0000000000
-0.0024720000 0.0000000000 0.0821959972 1.0000000000
-0.0024830000 0.0000000000 0.0821520016 1.0000000000
-0.0024949999 0.0000000000 0.0821510032 1.0000000000
-0.0025070000 0.0000000000 0.0821520016 1.0000000000
-0.0025190001 0.0000000000 0.0821489990 1.0000000000
-0.0025309999 0.0000000000 0.0821470022 1.0000000000
-0.0025430000 0.0000000000 0.0821420029 1.0000000000
-0.0025549999 0.0000000000 0.0821330026 1.0000000000
-0.0025670000 0.0000000000 0.0821259990 1.0000000000
-0.0025790001 0.0000000000 0.0821150020 1.0000000000
-0.0025919999 0.0000000000 0.0820960030 1.0000000000
-0.0026020000 0.0000000000 0.0820730031 1.0000000000
-0.0026149999 0.0000000000 0.0820519999 1.0000000000
-0.0026250000 0.0000000000 0.0820309967 1.0000000000
-0.0026370001 0.0000000000 0.0820219964 1.0000000000
-0.0026489999 0.0000000000 0.0820069984 1.0000000000
-0.0026610000 0.0000000000 0.0819969997 1.0000000000
-0.0026730001 0.0000000000 0.0819950029 1.0000000000
-0.0026850000 0.0000000000 0.0819939971 1.0000000000
-0.0026970000 0.0000000000 0.0819839984 1.0000000000
-0.0027089999 0.0000000000 0.0819569975 1.0000000000
-0.0027200000 0.0000000000 0.0819450021 1.0000000000
-0.0027320001 0.0000000000 0.0819360018 1.0000000000
-0.0027439999 0.0000000000 0.0819239989 1.0000000000
-0.0027560000 0.0000000000 0.0819140002 1.0000000000
-0.0027670001 0.0000000000 0.0819130018 1.0000000000
-0.0027810000 0.0000000000 0.0819130018 1.0000000000
-0.0027920001 0.0000000000 0.0819109976 1.0000000000
-0.0028039999 0.0000000000 0.0819040015 1.0000000000
-0.0028160000 0.0000000000 0.0819009990 1.0000000000
-0.0028280001 0.0000000000 0.0819009990 1.0000000000
-0.0028400000 0.0000000000 0.0819030032 1.0000000000
-0.0028520001 0.0000000000 0.0818990022 1.0000000000
-0.0028639999 0.0000000000 0.0818959996 1.0000000000
-0.0028760000 0.0000000000 0.0819019973 1.0000000000
-0.0028880001 0.0000000000 0.0819059983 1.0000000000
-0.0029000000 0.0000000000 0.0819000006 1.0000000000
-0.0029120001 0.0000000000 0.0818919986 1.0000000000
-0.0029239999 0.0000000000 0.0818929970 1.0000000000
-0.0029360000 0.0000000000 0.0818979964 1.0000000000
-0.0029480001 0.0000000000 0.0818990022 1.0000000000
-0.0029610000 0.0000000000 0.0819009990 1.0000000000
-0.0029730001 0.0000000000 0.0819000006 1.0000000000
-0.0029849999 0.0000000000 0.0818969980 1.0000000000
-0.0029970000 0.0000000000 0.0819000006 1.0000000000
-0.0030090001 0.0000000000 0.0819019973 1.0000000000
-0.0030210000 0.0000000000 0.0819000006 1.0000000000
-0.0030330000 0.0000000000 0.0818950012 1.0000000000
-0.0030459999 0.0000000000 0.0818890035 1.0000000000
-0.0030570000 0.0000000000 0.0818910003 1.0000000000
-0.0030690001 0.0000000000 0.0818940029 1.0000000000
-0.0030809999 0.0000000000 0.0818950012 1.0000000000
-0.0030930000 0.0000000000 0.0818919986 1.0000000000
-0.0031049999 0.0000000000 0.0818910003 1.0000000000
-0.0031180000 0.0000000000 0.0818940029 1.0000000000
-0.0031290001 0.0000000000 0.0818929970 1.0000000000
-0.0031419999 0.0000000000 0.0818879977 1.0000000000
-0.0031540000 0.0000000000 0.0818900019 1.0000000000
-0.0031669999 0.0000000000 0.0818940029 1.0000000000
-0.0031780000 0.0000000000 0.0819000006 1.0000000000
-0.0031910001 0.0000000000 0.0819049999 1.0000000000
-0.0032019999 0.0000000000 0.0819099993 1.0000000000
-0.0032140000 0.0000000000 0.0819099993 1.0000000000
-0.0032259999 0.0000000000 0.0819049999 1.0000000000
-0.0032380000 0.0000000000 0.0819030032 1.0000000000
-0.0032500001 0.0000000000 0.0819049999 1.0000000000
-0.0032629999 0.0000000000 0.0819080025 1.0000000000
-0.0032750000 0.0000000000 0.0819109976 1.0000000000
-0.0032870001 0.0000000000 0.0819120035 1.0000000000
-0.0032990000 0.0000000000 0.0819130018 1.0000000000
-0.0033110001 0.0000000000 0.0819109976 1.0000000000
-0.0033229999 0.0000000000 0.0819040015 1.0000000000
-0.0033360000 0.0000000000 0.0818969980 1.0000000000
-0.0033470001 0.0000000000 0.0818959996 1.0000000000
-0.0033600000 0.0000000000 0.0818969980 1.0000000000
-0.0033710001 0.0000000000 0.0819030032 1.0000000000
-0.0033829999 0.0000000000 0.0819080025 1.0000000000
-0.0033950000 0.0000000000 0.0819090009 1.0000000000
-0.0034080001 0.0000000000 0.0819030032 1.0000000000
-0.0034190000 0.0000000000 0.0819040015 1.0000000000
-0.0034320001 0.0000000000 0.0819059983 1.0000000000
-0.0034439999 0.0000000000 0.0819080025 1.0000000000
-0.0034560000 0.0000000000 0.0819040015 1.0000000000
-0.0034680001 0.0000000000 0.0819019973 1.0000000000
-0.0034810000 0.0000000000 0.0819049999 1.0000000000
-0.0034920000 0.0000000000 0.0819080025 1.0000000000
-0.0035049999 0.0000000000 0.0819069967 1.0000000000
-0.0035160000 0.0000000000 0.0819030032 1.0000000000
-0.0035280001 0.0000000000 0.0818950012 1.0000000000
-0.0035399999 0.0000000000 0.0818950012 1.0000000000
-0.0035530000 0.0000000000 0.0819059983 1.0000000000
-0.0035639999 0.0000000000 0.0819159970 1.0000000000
-0.0035760000 0.0000000000 0.0819109976 1.0000000000
-0.0035880001 0.0000000000 0.0819049999 1.0000000000
-0.0036009999 0.0000000000 0.0819059983 1.0000000000
-0.0036120000 0.0000000000 0.0819040015 1.0000000000
-0.0036249999 0.0000000000 0.0819030032 1.0000000000
-0.0036370000 0.0000000000 0.0819080025 1.0000000000
-0.0036500001 0.0000000000 0.0819069967 1.0000000000
-0.0036609999 0.0000000000 0.0819049999 1.0000000000
-0.0036730000 0.0000000000 0.0819040015 1.0000000000
-0.0036849999 0.0000000000 0.0819069967 1.0000000000
-0.0036980000 0.0000000000 0.0819049999 1.0000000000
-0.0037090001 0.0000000000 0.0819059983 1.0000000000
-0.0037209999 0.0000000000 0.0819099993 1.0000000000
-0.0037330000 0.0000000000 0.0819080025 1.0000000000
-0.0037459999 0.0000000000 0.0819080025 1.0000000000
-0.0037570000 0.0000000000 0.0819109976 1.0000000000
-0.0037690001 0.0000000000 0.0819120035 1.0000000000
-0.0037809999 0.0000000000 0.0819090009 1.0000000000
-0.0037940000 0.0000000000 0.0819109976 1.0000000000
-0.0038060001 0.0000000000 0.0819180012 1.0000000000
-0.0038190000 0.0000000000 0.0819140002 1.0000000000
-0.0038300001 0.0000000000 0.0819130018 1.0000000000
-0.0038419999 0.0000000000 0.0819209963 1.0000000000
-0.0038540000 0.0000000000 0.0819230005 1.0000000000
-0.0038670001 0.0000000000 0.0819149986 1.0000000000
-0.0038780000 0.0000000000 0.0819109976 1.0000000000
-0.0038910001 0.0000000000 0.0819149986 1.0000000000
-0.0039029999 0.0000000000 0.0819230005 1.0000000000
-0.0039149998 0.0000000000 0.0819220021 1.0000000000
-0.0039260001 0.0000000000 0.0819149986 1.0000000000
-0.0039390000 0.0000000000 0.0819059983 1.0000000000
-0.0039499998 0.0000000000 0.0819019973 1.0000000000
-0.0039619999 0.0000000000 0.0819040015 1.0000000000
-0.0039740000 0.0000000000 0.0819099993 1.0000000000
-0.0039869999 0.0000000000 0.0819130018 1.0000000000
-0.0039989999 0.0000000000 0.0819170028 1.0000000000
-0.0040110000 0.0000000000 0.0819220021 1.0000000000
-0.0040230001 0.0000000000 0.0819239989 1.0000000000
-0.0040360000 0.0000000000 0.0819149986 1.0000000000
-0.0040469998 0.0000000000 0.0819090009 1.0000000000
-0.0040600002 0.0000000000 0.0819069967 1.0000000000
-0.0040710000 0.0000000000 0.0819099993 1.0000000000
-0.0040839999 0.0000000000 0.0819140002 1.0000000000
-0.0040950002 0.0000000000 0.0819199979 1.0000000000
-0.0041080001 0.0000000000 0.0819159970 1.0000000000
-0.0041189999 0.0000000000 0.0819120035 1.0000000000
-0.0041310000 0.0000000000 0.0819130018 1.0000000000
-0.0041439999 0.0000000000 0.0819189996 1.0000000000
-0.0041560000 0.0000000000 0.0819230005 1.0000000000
-0.0041680001 0.0000000000 0.0819220021 1.0000000000
-0.0041809999 0.0000000000 0.0819249973 1.0000000000
-0.0041919998 0.0000000000 0.0819249973 1.0000000000
-0.0042039999 0.0000000000 0.0819230005 1.0000000000
-0.0042160000 0.0000000000 0.0819279999 1.0000000000
-0.0042300001 0.0000000000 0.0819310024 1.0000000000
-0.0042409999 0.0000000000 0.0819279999 1.0000000000
-0.0042530000 0.0000000000 0.0819239989 1.0000000000
-0.0042650001 0.0000000000 0.0819249973 1.0000000000
-0.0042770002 0.0000000000 0.0819230005 1.0000000000
-0.0042889998 0.0000000000 0.0819209963 1.0000000000
-0.0043009999 0.0000000000 0.0819199979 1.0000000000
-0.0043130000 0.0000000000 0.0819209963 1.0000000000
-0.0043259999 0.0000000000 0.0819220021 1.0000000000
-0.0043370002 0.0000000000 0.0819220021 1.0000000000
-0.0043489998 0.0000000000 0.0819209963 1.0000000000
-0.0043609999 0.0000000000 0.0819180012 1.0000000000
-0.0043730000 0.0000000000 0.0819120035 1.0000000000
-0.0043839999 0.0000000000 0.0819080025 1.0000000000
-0.0043970002 0.0000000000 0.0819069967 1.0000000000
-0.0044080000 0.0000000000 0.0819049999 1.0000000000
-0.0044220001 0.0000000000 0.0819069967 1.0000000000
-0.0044330000 0.0000000000 0.0819099993 1.0000000000
-0.0044459999 0.0000000000 0.0819159970 1.0000000000
-0.0044570002 0.0000000000 0.0819220021 1.0000000000
-0.0044689998 0.0000000000 0.0819199979 1.0000000000
-0.0044809999 0.0000000000 0.0819189996 1.0000000000
-0.0044940002 0.0000000000 0.0819230005 1.0000000000
-0.0045059999 0.0000000000 0.0819260031 1.0000000000
-0.0045179999 0.0000000000 0.0819209963 1.0000000000
-0.0045300000 0.0000000000 0.0819149986 1.0000000000
-0.0045420001 0.0000000000 0.0819140002 1.0000000000
-0.0045540002 0.0000000000 0.0819170028 1.0000000000
-0.0045670001 0.0000000000 0.0819180012 1.0000000000
-0.0045779999 0.0000000000 0.0819239989 1.0000000000
-0.0045909998 0.0000000000 0.0819299966 1.0000000000
-0.0046020001 0.0000000000 0.0819270015 1.0000000000
-0.0046140002 0.0000000000 0.0819209963 1.0000000000
-0.0046270001 0.0000000000 0.0819249973 1.0000000000
-0.0046390002 0.0000000000 0.0819310024 1.0000000000
-0.0046509998 0.0000000000 0.0819299966 1.0000000000
-0.0046629999 0.0000000000 0.0819230005 1.0000000000
-0.0046750000 0.0000000000 0.0819220021 1.0000000000
-0.0046879998 0.0000000000 0.0819239989 1.0000000000
-0.0046990002 0.0000000000 0.0819220021 1.0000000000
-0.0047100000 0.0000000000 0.0819149986 1.0000000000
-0.0047229999 0.0000000000 0.0819149986 1.0000000000
-0.0047350000 0.0000000000 0.0819230005 1.0000000000
-0.0047470001 0.0000000000 0.0819249973 1.0000000000
-0.0047590001 0.0000000000 0.0819220021 1.0000000000
-0.0047709998 0.0000000000 0.0819189996 1.0000000000
-0.0047840001 0.0000000000 0.0819170028 1.0000000000
-0.0047950000 0.0000000000 0.0819249973 1.0000000000
-0.0048070000 0.0000000000 0.0819310024 1.0000000000
-0.0048190001 0.0000000000 0.0819279999 1.0000000000
-0.0048320000 0.0000000000 0.0819239989 1.0000000000
-0.0048429999 0.0000000000 0.0819209963 1.0000000000
-0.0048560002 0.0000000000 0.0819170028 1.0000000000
-0.0048670000 0.0000000000 0.0819199979 1.0000000000
-0.0048799999 0.0000000000 0.0819189996 1.0000000000
-0.0048910002 0.0000000000 0.0819199979 1.0000000000
-0.0049040001 0.0000000000 0.0819239989 1.0000000000
-0.0049160002 0.0000000000 0.0819260031 1.0000000000
-0.0049270000 0.0000000000 0.0819220021 1.0000000000
-0.0049390001 0.0000000000 0.0819209963 1.0000000000
-0.0049520000 0.0000000000 0.0819239989 1.0000000000
-0.0049640001 0.0000000000 0.0819320008 1.0000000000
-0.0049769999 0.0000000000 0.0819339976 1.0000000000
-0.0049879998 0.0000000000 0.0819310024 1.0000000000
-0.0050010001 0.0000000000 0.0819270015 1.0000000000
-0.0050120000 0.0000000000 0.0819289982 1.0000000000
-0.0050249998 0.0000000000 0.0819279999 1.0000000000
-0.0050360002 0.0000000000 0.0819350034 1.0000000000
-0.0050490000 0.0000000000 0.0819389969 1.0000000000
-0.0050599999 0.0000000000 0.0819360018 1.0000000000
-0.0050720000 0.0000000000 0.0819299966 1.0000000000
-0.0050840001 0.0000000000 0.0819239989 1.0000000000
-0.0050969999 0.0000000000 0.0819249973 1.0000000000
-0.0051079998 0.0000000000 0.0819279999 1.0000000000
-0.0051199999 0.0000000000 0.0819239989 1.0000000000
-0.0051320000 0.0000000000 0.0819260031 1.0000000000
-0.0051460001 0.0000000000 0.0819360018 1.0000000000
-0.0051569999 0.0000000000 0.0819360018 1.0000000000
-0.0051690000 0.0000000000 0.0819260031 1.0000000000
-0.0051799999 0.0000000000 0.0819260031 1.0000000000
-0.0051930002 0.0000000000 0.0819329992 1.0000000000
-0.0052049998 0.0000000000 0.0819370002 1.0000000000
-0.0052169999 0.0000000000 0.0819329992 1.0000000000
-0.0052280002 0.0000000000 0.0819270015 1.0000000000
-0.0052410001 0.0000000000 0.0819249973 1.0000000000
-0.0052530002 0.0000000000 0.0819389969 1.0000000000
-0.0052649998 0.0000000000 0.0819419995 1.0000000000
-0.0052769999 0.0000000000 0.0819310024 1.0000000000
-0.0052890000 0.0000000000 0.0819249973 1.0000000000
-0.0053010001 0.0000000000 0.0819310024 1.0000000000
-0.0053130002 0.0000000000 0.0819249973 1.0000000000
-0.0053240000 0.0000000000 0.0819220021 1.0000000000
-0.0053369999 0.0000000000 0.0819249973 1.0000000000
-0.0053490000 0.0000000000 0.0819289982 1.0000000000
-0.0053619999 0.0000000000 0.0819289982 1.0000000000
-0.0053730002 0.0000000000 0.0819350034 1.0000000000
-0.0053849998 0.0000000000 0.0819310024 1.0000000000
-0.0053969999 0.0000000000 0.0819220021 1.0000000000
-0.0054100002 0.0000000000 0.0819249973 1.0000000000
-0.0054210001 0.0000000000 0.0819299966 1.0000000000
-0.0054339999 0.0000000000 0.0819289982 1.0000000000
-0.0054449998 0.0000000000 0.0819350034 1.0000000000
-0.0054589999 0.0000000000 0.0819370002 1.0000000000
-0.0054700002 0.0000000000 0.0819400027 1.0000000000
-0.0054830001 0.0000000000 0.0819379985 1.0000000000
-0.0054930001 0.0000000000 0.0819310024 1.0000000000
-0.0055060000 0.0000000000 0.0819260031 1.0000000000
-0.0055180001 0.0000000000 0.0819320008 1.0000000000
-0.0055300002 0.0000000000 0.0819410011 1.0000000000
-0.0055419998 0.0000000000 0.0819429979 1.0000000000
-0.0055550002 0.0000000000 0.0819360018 1.0000000000
-0.0055650002 0.0000000000 0.0819279999 1.0000000000
-0.0055769999 0.0000000000 0.0819239989 1.0000000000
-0.0055889999 0.0000000000 0.0819270015 1.0000000000
-0.0056019998 0.0000000000 0.0819329992 1.0000000000
-0.0056139999 0.0000000000 0.0819360018 1.0000000000
-0.0056269998 0.0000000000 0.0819360018 1.0000000000
-0.0056380001 0.0000000000 0.0819350034 1.0000000000
-0.0056510000 0.0000000000 0.0819379985 1.0000000000
-0.0056630000 0.0000000000 0.0819429979 1.0000000000
-0.0056750001 0.0000000000 0.0819379985 1.0000000000
-0.0056860000 0.0000000000 0.0819370002 1.0000000000
-0.0057000001 0.0000000000 0.0819429979 1.0000000000
-0.0057109999 0.0000000000 0.0819519982 1.0000000000
-0.0057239998 0.0000000000 0.0819450021 1.0000000000
-0.0057350001 0.0000000000 0.0819419995 1.0000000000
-0.0057480000 0.0000000000 0.0819429979 1.0000000000
-0.0057589998 0.0000000000 0.0819429979 1.0000000000
-0.0057700002 0.0000000000 0.0819360018 1.0000000000
-0.0057819998 0.0000000000 0.0819329992 1.0000000000
-0.0057950001 0.0000000000 0.0819400027 1.0000000000
-0.0058070002 0.0000000000 0.0819410011 1.0000000000
-0.0058189998 0.0000000000 0.0819350034 1.0000000000
-0.0058309999 0.0000000000 0.0819389969 1.0000000000
-0.0058439998 0.0000000000 0.0819440037 1.0000000000
-0.0058559999 0.0000000000 0.0819509998 1.0000000000
-0.0058680000 0.0000000000 0.0819460005 1.0000000000
-0.0058789998 0.0000000000 0.0819429979 1.0000000000
-0.0058920002 0.0000000000 0.0819450021 1.0000000000
-0.0059039998 0.0000000000 0.0819490030 1.0000000000
-0.0059150001 0.0000000000 0.0819419995 1.0000000000
-0.0059270002 0.0000000000 0.0819410011 1.0000000000
-0.0059389998 0.0000000000 0.0819429979 1.0000000000
-0.0059520002 0.0000000000 0.0819460005 1.0000000000
-0.0059639998 0.0000000000 0.0819440037 1.0000000000
-0.0059750001 0.0000000000 0.0819410011 1.0000000000
-0.0059880000 0.0000000000 0.0819370002 1.0000000000
-0.0059989998 0.0000000000 0.0819350034 1.0000000000
-0.0060109999 0.0000000000 0.0819320008 1.0000000000
-0.0060230000 0.0000000000 0.0819320008 1.0000000000
-0.0060359999 0.0000000000 0.0819370002 1.0000000000
-0.0060480000 0.0000000000 0.0819440037 1.0000000000
-0.0060600000 0.0000000000 0.0819440037 1.0000000000
-0.0060720001 0.0000000000 0.0819410011 1.0000000000
-0.0060840002 0.0000000000 0.0819360018 1.0000000000
-0.0060959999 0.0000000000 0.0819410011 1.0000000000
-0.0061079999 0.0000000000 0.0819440037 1.0000000000
-0.0061200000 0.0000000000 0.0819400027 1.0000000000
-0.0061309999 0.0000000000 0.0819329992 1.0000000000
-0.0061430000 0.0000000000 0.0819310024 1.0000000000
-0.0061550001 0.0000000000 0.0819350034 1.0000000000
-0.0061679999 0.0000000000 0.0819370002 1.0000000000
-0.0061809998 0.0000000000 0.0819360018 1.0000000000
-0.0061920001 0.0000000000 0.0819410011 1.0000000000
-0.0062050000 0.0000000000 0.0819389969 1.0000000000
-0.0062159998 0.0000000000 0.0819379985 1.0000000000
-0.0062279999 0.0000000000 0.0819419995 1.0000000000
-0.0062400000 0.0000000000 0.0819450021 1.0000000000
-0.0062520001 0.0000000000 0.0819460005 1.0000000000
-0.0062640002 0.0000000000 0.0819460005 1.0000000000
-0.0062770001 0.0000000000 0.0819460005 1.0000000000
-0.0062890002 0.0000000000 0.0819519982 1.0000000000
-0.0063009998 0.0000000000 0.0819529966 1.0000000000
-0.0063129999 0.0000000000 0.0819479972 1.0000000000
-0.0063250000 0.0000000000 0.0819410011 1.0000000000
-0.0063359998 0.0000000000 0.0819440037 1.0000000000
-0.0063499999 0.0000000000 0.0819490030 1.0000000000
-0.0063609998 0.0000000000 0.0819540024 1.0000000000
-0.0063749999 0.0000000000 0.0819670036 1.0000000000
-0.0063880002 0.0000000000 0.0820050016 1.0000000000
-0.0064030001 0.0000000000 0.0820249990 1.0000000000
-0.0064150002 0.0000000000 0.0820349976 1.0000000000
-0.0064280001 0.0000000000 0.0820410028 1.0000000000
-0.0064389999 0.0000000000 0.0820460021 1.0000000000
-0.0064519998 0.0000000000 0.0820550025 1.0000000000
-0.0064639999 0.0000000000 0.0820629969 1.0000000000
-0.0064780000 0.0000000000 0.0820780024 1.0000000000
-0.0064909998 0.0000000000 0.0821020007 1.0000000000
-0.0065040002 0.0000000000 0.0821079984 1.0000000000
-0.0065159998 0.0000000000 0.0821169987 1.0000000000
-0.0065290001 0.0000000000 0.0821269974 1.0000000000
-0.0065410002 0.0000000000 0.0821340010 1.0000000000
-0.0065549999 0.0000000000 0.0821439996 1.0000000000
-0.0065669999 0.0000000000 0.0821589977 1.0000000000
-0.0065810001 0.0000000000 0.0821800008 1.0000000000
-0.0065939999 0.0000000000 0.0821970031 1.0000000000
-0.0066060000 0.0000000000 0.0822060034 1.0000000000
-0.0066189999 0.0000000000 0.0822170004 1.0000000000
-0.0066330000 0.0000000000 0.0822250023 1.0000000000
-0.0066439998 0.0000000000 0.0822300017 1.0000000000
-0.0066570002 0.0000000000 0.0822459981 1.0000000000
-0.0066700000 0.0000000000 0.0822630003 1.0000000000
-0.0066829999 0.0000000000 0.0822750032 1.0000000000
-0.0066960002 0.0000000000 0.0822840035 1.0000000000
-0.0067099999 0.0000000000 0.0822940022 1.0000000000
-0.0067220000 0.0000000000 0.0823099986 1.0000000000
-0.0067349998 0.0000000000 0.0823189989 1.0000000000
-0.0067480002 0.0000000000 0.0823360011 1.0000000000
-0.0067619998 0.0000000000 0.0823620036 1.0000000000
-0.0067739999 0.0000000000 0.0823640004 1.0000000000
-0.0067870002 0.0000000000 0.0823659971 1.0000000000
-0.0067989998 0.0000000000 0.0823839977 1.0000000000
-0.0068130000 0.0000000000 0.0824029967 1.0000000000
-0.0068250000 0.0000000000 0.0824100003 1.0000000000
-0.0068379999 0.0000000000 0.0824090019 1.0000000000
-0.0068500000 0.0000000000 0.0824199989 1.0000000000
-0.0068649999 0.0000000000 0.0824439973 1.0000000000
-0.0068770000 0.0000000000 0.0824569985 1.0000000000
-0.0068899998 0.0000000000 0.0824579969 1.0000000000
-0.0069019999 0.0000000000 0.0824680030 1.0000000000
-0.0069160000 0.0000000000 0.0824899971 1.0000000000
-0.0069289999 0.0000000000 0.0825029984 1.0000000000
-0.0069410000 0.0000000000 0.0825090036 1.0000000000
-0.0069539999 0.0000000000 0.0825219974 1.0000000000
-0.0069670002 0.0000000000 0.0825370029 1.0000000000
-0.0069800001 0.0000000000 0.0825449973 1.0000000000
-0.0069940002 0.0000000000 0.0825560018 1.0000000000
-0.0070059998 0.0000000000 0.0825709999 1.0000000000
-0.0070190001 0.0000000000 0.0825800002 1.0000000000
-0.0070320000 0.0000000000 0.0825920030 1.0000000000
-0.0070449999 0.0000000000 0.0826060027 1.0000000000
-0.0070580002 0.0000000000 0.0826210007 1.0000000000
-0.0070719998 0.0000000000 0.0826350003 1.0000000000
-0.0070839999 0.0000000000 0.0826509967 1.0000000000
-0.0070980000 0.0000000000 0.0826649964 1.0000000000
-0.0071100001 0.0000000000 0.0826739967 1.0000000000
-0.0071230000 0.0000000000 0.0826850012 1.0000000000
-0.0071370001 0.0000000000 0.0827009976 1.0000000000
-0.0071510002 0.0000000000 0.0827149972 1.0000000000
-0.0071629998 0.0000000000 0.0827260017 1.0000000000
-0.0071760002 0.0000000000 0.0827369988 1.0000000000
-0.0071890000 0.0000000000 0.0827500001 1.0000000000
-0.0072019999 0.0000000000 0.0827639997 1.0000000000
-0.0072150002 0.0000000000 0.0827749968 1.0000000000
-0.0072289999 0.0000000000 0.0827860013 1.0000000000
-0.0072410000 0.0000000000 0.0827979967 1.0000000000
-0.0072539998 0.0000000000 0.0828040019 1.0000000000
-0.0072659999 0.0000000000 0.0828140005 1.0000000000
-0.0072789998 0.0000000000 0.0828270018 1.0000000000
-0.0072929999 0.0000000000 0.0828479975 1.0000000000
-0.0073070000 0.0000000000 0.0828699991 1.0000000000
-0.0073190001 0.0000000000 0.0828759968 1.0000000000
-0.0073330002 0.0000000000 0.0828820020 1.0000000000
-0.0073449998 0.0000000000 0.0828939974 1.0000000000
-0.0073580001 0.0000000000 0.0829060003 1.0000000000
-0.0073719998 0.0000000000 0.0829259977 1.0000000000
-0.0073859999 0.0000000000 0.0829439983 1.0000000000
-0.0073990002 0.0000000000 0.0829600021 1.0000000000
-0.0074120001 0.0000000000 0.0829690024 1.0000000000
-0.0074240002 0.0000000000 0.0829809979 1.0000000000
-0.0074370001 0.0000000000 0.0829899982 1.0000000000
-0.0074499999 0.0000000000 0.0830010027 1.0000000000
-0.0074629998 0.0000000000 0.0830119997 1.0000000000
-0.0074760001 0.0000000000 0.0830219984 1.0000000000
-0.0074890000 0.0000000000 0.0830300003 1.0000000000
-0.0075010001 0.0000000000 0.0830340013 1.0000000000
-0.0075139999 0.0000000000 0.0830440000 1.0000000000
-0.0100220004 0.0000000000 0.0837830007 1.0000000000
-0.0100250002 0.0000000000 0.0836850032 1.0000000000
-0.0100339996 0.0000000000 0.0836630017 1.0000000000
-0.0100469999 0.0000000000 0.0836609975 1.0000000000
-0.0100459997 0.0000000000 0.0835490003 1.0000000000
-0.0100170001 0.0000000000 0.0831430033 1.0000000000
-0.0100280000 0.0000000000 0.0831390023 1.0000000000
-0.0100400001 0.0000000000 0.0831300020 1.0000000000
-0.0100509999 0.0000000000 0.0831229985 1.0000000000
-0.0100619998 0.0000000000 0.0831149966 1.0000000000
-0.0100729996 0.0000000000 0.0831020027 1.0000000000
-0.0100830002 0.0000000000 0.0830880031 1.0000000000
-0.0100940000 0.0000000000 0.0830760002 1.0000000000
-0.0101060001 0.0000000000 0.0830660015 1.0000000000
-0.0101159997 0.0000000000 0.0830570012 1.0000000000
-0.0101279998 0.0000000000 0.0830420032 1.0000000000
-0.0101370001 0.0000000000 0.0830250010 1.0000000000
-0.0101490002 0.0000000000 0.0830139965 1.0000000000
-0.0101600001 0.0000000000 0.0830100030 1.0000000000
-0.0101720002 0.0000000000 0.0830039978 1.0000000000
-0.0101819998 0.0000000000 0.0829980001 1.0000000000
-0.0101939999 0.0000000000 0.0829870030 1.0000000000
-0.0102040004 0.0000000000 0.0829759985 1.0000000000
-0.0102150002 0.0000000000 0.0829610005 1.0000000000
-0.0102249999 0.0000000000 0.0829479992 1.0000000000
-0.0102359997 0.0000000000 0.0829330012 1.0000000000
-0.0102460003 0.0000000000 0.0829190016 1.0000000000
-0.0102570001 0.0000000000 0.0829050019 1.0000000000
-0.0102680000 0.0000000000 0.0828939974 1.0000000000
-0.0102789998 0.0000000000 0.0828889981 1.0000000000
-0.0102899997 0.0000000000 0.0828810036 1.0000000000
-0.0103010004 0.0000000000 0.0828709975 1.0000000000
-0.0103129996 0.0000000000 0.0828649998 1.0000000000
-0.0103249997 0.0000000000 0.0828619972 1.0000000000
-0.0103350002 0.0000000000 0.0828490034 1.0000000000
-0.0103460001 0.0000000000 0.0828299969 1.0000000000
-0.0103559997 0.0000000000 0.0828180015 1.0000000000
-0.0103669995 0.0000000000 0.0828090012 1.0000000000
-0.0103780003 0.0000000000 0.0827950016 1.0000000000
-0.0103890002 0.0000000000 0.0827850029 1.0000000000
-0.0104000000 0.0000000000 0.0827839971 1.0000000000
-0.0104130004 0.0000000000 0.0827800035 1.0000000000
-0.0104230000 0.0000000000 0.0827689990 1.0000000000
-0.0104329996 0.0000000000 0.0827480033 1.0000000000
-0.0104430001 0.0000000000 0.0827319995 1.0000000000
-0.0104550002 0.0000000000 0.0827250034 1.0000000000
-0.0104649998 0.0000000000 0.0827160031 1.0000000000
-0.0104759997 0.0000000000 0.0827049986 1.0000000000
-0.0104870005 0.0000000000 0.0826959983 1.0000000000
-0.0104980003 0.0000000000 0.0826829970 1.0000000000
-0.0105090002 0.0000000000 0.0826779976 1.0000000000
-0.0105210003 0.0000000000 0.0826729983 1.0000000000
-0.0105320001 0.0000000000 0.0826639980 1.0000000000
-0.0105419997 0.0000000000 0.0826520026 1.0000000000
-0.0105539998 0.0000000000 0.0826459974 1.0000000000
-0.0105649997 0.0000000000 0.0826380029 1.0000000000
-0.0105750002 0.0000000000 0.0826219991 1.0000000000
-0.0105860000 0.0000000000 0.0826089978 1.0000000000
-0.0105969999 0.0000000000 0.0825999975 1.0000000000
-0.0106079997 0.0000000000 0.0825880021 1.0000000000
-0.0106170001 0.0000000000 0.0825709999 1.0000000000
-0.0106290001 0.0000000000 0.0825660005 1.0000000000
-0.0106400000 0.0000000000 0.0825610012 1.0000000000
-0.0106520001 0.0000000000 0.0825529993 1.0000000000
-0.0106619997 0.0000000000 0.0825449973 1.0000000000
-0.0106739998 0.0000000000 0.0825330019 1.0000000000
-0.0106840003 0.0000000000 0.0825200006 1.0000000000
-0.0106929997 0.0000000000 0.0824989974 1.0000000000
-0.0107039995 0.0000000000 0.0824870020 1.0000000000
-0.0107159996 0.0000000000 0.0824839994 1.0000000000
-0.0107270004 0.0000000000 0.0824820027 1.0000000000
-0.0107389996 0.0000000000 0.0824759975 1.0000000000
-0.0107500004 0.0000000000 0.0824690014 1.0000000000
-0.0107610002 0.0000000000 0.0824550018 1.0000000000
-0.0107699996 0.0000000000 0.0824399963 1.0000000000
-0.0107810004 0.0000000000 0.0824280009 1.0000000000
-0.0107920002 0.0000000000 0.0824199989 1.0000000000
-0.0108030001 0.0000000000 0.0824109986 1.0000000000
-0.0108150002 0.0000000000 0.0824080035 1.0000000000
-0.0108260000 0.0000000000 0.0824000016 1.0000000000
-0.0108359996 0.0000000000 0.0823820010 1.0000000000
-0.0108470004 0.0000000000 0.0823699981 1.0000000000
-0.0108580003 0.0000000000 0.0823640004 1.0000000000
-0.0108690001 0.0000000000 0.0823559985 1.0000000000
-0.0108800000 0.0000000000 0.0823479965 1.0000000000
-0.0108909998 0.0000000000 0.0823410004 1.0000000000
-0.0109029999 0.0000000000 0.0823400021 1.0000000000
-0.0109139998 0.0000000000 0.0823339969 1.0000000000
-0.0109249996 0.0000000000 0.0823220015 1.0000000000
-0.0109360004 0.0000000000 0.0823139995 1.0000000000
-0.0109460000 0.0000000000 0.0823009983 1.0000000000
-0.0109569998 0.0000000000 0.0822879970 1.0000000000
-0.0109670004 0.0000000000 0.0822779983 1.0000000000
-0.0109780002 0.0000000000 0.0822649971 1.0000000000
-0.0109879998 0.0000000000 0.0822499990 1.0000000000
-0.0109999999 0.0000000000 0.0822400004 1.0000000000
-0.0110099996 0.0000000000 0.0822340026 1.0000000000
-0.0110210003 0.0000000000 0.0822229981 1.0000000000
-0.0110309999 0.0000000000 0.0822129995 1.0000000000
-0.0110430000 0.0000000000 0.0821989998 1.0000000000
-0.0110529996 0.0000000000 0.0821890011 1.0000000000
-0.0110640004 0.0000000000 0.0821809992 1.0000000000
-0.0110740000 0.0000000000 0.0821679980 1.0000000000
-0.0110849999 0.0000000000 0.0821549967 1.0000000000
-0.0110959997 0.0000000000 0.0821510032 1.0000000000
-0.0111069996 0.0000000000 0.0821430013 1.0000000000
-0.0111180004 0.0000000000 0.0821349993 1.0000000000
-0.0111290002 0.0000000000 0.0821290016 1.0000000000
-0.0111389998 0.0000000000 0.0821169987 1.0000000000
-0.0111509999 0.0000000000 0.0821050033 1.0000000000
-0.0111609995 0.0000000000 0.0821010023 1.0000000000
-0.0111720003 0.0000000000 0.0820920020 1.0000000000
-0.0111819999 0.0000000000 0.0820769966 1.0000000000
-0.0111929998 0.0000000000 0.0820690021 1.0000000000
-0.0112049999 0.0000000000 0.0820640028 1.0000000000
-0.0112150004 0.0000000000 0.0820519999 1.0000000000
-0.0112239998 0.0000000000 0.0820289999 1.0000000000
-0.0112340003 0.0000000000 0.0820150003 1.0000000000
-0.0112460004 0.0000000000 0.0820130035 1.0000000000
-0.0112579996 0.0000000000 0.0820150003 1.0000000000
-0.0112699997 0.0000000000 0.0820119977 1.0000000000
-0.0112819998 0.0000000000 0.0820100009 1.0000000000
-0.0112939999 0.0000000000 0.0820159987 1.0000000000
-0.0113070002 0.0000000000 0.0820230022 1.0000000000
-0.0113190003 0.0000000000 0.0820270032 1.0000000000
-0.0113310004 0.0000000000 0.0820270032 1.0000000000
-0.0113420002 0.0000000000 0.0820199996 1.0000000000
-0.0113530001 0.0000000000 0.0820150003 1.0000000000
-0.0113650002 0.0000000000 0.0820150003 1.0000000000
-0.0113779996 0.0000000000 0.0820230022 1.0000000000
-0.0113899997 0.0000000000 0.0820259973 1.0000000000
-0.0114019997 0.0000000000 0.0820259973 1.0000000000
-0.0114139998 0.0000000000 0.0820270032 1.0000000000
-0.0114270002 0.0000000000 0.0820289999 1.0000000000
-0.0114390003 0.0000000000 0.0820320025 1.0000000000
-0.0114510003 0.0000000000 0.0820289999 1.0000000000
-0.0114620002 0.0000000000 0.0820249990 1.0000000000
-0.0114730000 0.0000000000 0.0820190012 1.0000000000
-0.0114850001 0.0000000000 0.0820230022 1.0000000000
-0.0114979995 0.0000000000 0.0820280015 1.0000000000
-0.0115090003 0.0000000000 0.0820270032 1.0000000000
-0.0115210004 0.0000000000 0.0820280015 1.0000000000
-0.0115329996 0.0000000000 0.0820270032 1.0000000000
-0.0115459999 0.0000000000 0.0820270032 1.0000000000
-0.0115569998 0.0000000000 0.0820270032 1.0000000000
-0.0115689998 0.0000000000 0.0820219964 1.0000000000
-0.0115799997 0.0000000000 0.0820240006 1.0000000000
-0.0115930000 0.0000000000 0.0820280015 1.0000000000
-0.0116050001 0.0000000000 0.0820320025 1.0000000000
-0.0116180005 0.0000000000 0.0820309967 1.0000000000
-0.0116290003 0.0000000000 0.0820309967 1.0000000000
-0.0116410004 0.0000000000 0.0820299983 1.0000000000
-0.0116529996 0.0000000000 0.0820370018 1.0000000000
-0.0116649996 0.0000000000 0.0820370018 1.0000000000
-0.0116760004 0.0000000000 0.0820299983 1.0000000000
-0.0116879996 0.0000000000 0.0820209980 1.0000000000
-0.0116990004 0.0000000000 0.0820209980 1.0000000000
-0.0117110005 0.0000000000 0.0820199996 1.0000000000
-0.0117229996 0.0000000000 0.0820199996 1.0000000000
-0.0117340004 0.0000000000 0.0820199996 1.0000000000
-0.0117459996 0.0000000000 0.0820209980 1.0000000000
-0.0117589999 0.0000000000 0.0820230022 1.0000000000
-0.0117710000 0.0000000000 0.0820280015 1.0000000000
-0.0117840003 0.0000000000 0.0820320025 1.0000000000
-0.0117960004 0.0000000000 0.0820330009 1.0000000000
-0.0118079996 0.0000000000 0.0820299983 1.0000000000
-0.0118190004 0.0000000000 0.0820330009 1.0000000000
-0.0118310004 0.0000000000 0.0820289999 1.0000000000
-0.0118420003 0.0000000000 0.0820219964 1.0000000000
-0.0118530001 0.0000000000 0.0820190012 1.0000000000
-0.0118659995 0.0000000000 0.0820259973 1.0000000000
-0.0118800001 0.0000000000 0.0820330009 1.0000000000
-0.0118899997 0.0000000000 0.0820299983 1.0000000000
-0.0119019998 0.0000000000 0.0820270032 1.0000000000
-0.0119139999 0.0000000000 0.0820270032 1.0000000000
-0.0119260000 0.0000000000 0.0820289999 1.0000000000
-0.0119380001 0.0000000000 0.0820320025 1.0000000000
-0.0119510004 0.0000000000 0.0820330009 1.0000000000
-0.0119620003 0.0000000000 0.0820370018 1.0000000000
-0.0119749997 0.0000000000 0.0820380002 1.0000000000
-0.0119869998 0.0000000000 0.0820389986 1.0000000000
-0.0119979996 0.0000000000 0.0820370018 1.0000000000
-0.0120099997 0.0000000000 0.0820370018 1.0000000000
-0.0120230000 0.0000000000 0.0820449963 1.0000000000
-0.0120350001 0.0000000000 0.0820470005 1.0000000000
-0.0120470002 0.0000000000 0.0820410028 1.0000000000
-0.0120580001 0.0000000000 0.0820380002 1.0000000000
-0.0120700002 0.0000000000 0.0820339993 1.0000000000
-0.0120810000 0.0000000000 0.0820360035 1.0000000000
-0.0120930001 0.0000000000 0.0820370018 1.0000000000
-0.0121050002 0.0000000000 0.0820370018 1.0000000000
-0.0121170003 0.0000000000 0.0820339993 1.0000000000
-0.0121290004 0.0000000000 0.0820349976 1.0000000000
-0.0121409995 0.0000000000 0.0820399970 1.0000000000
-0.0121529996 0.0000000000 0.0820420012 1.0000000000
-0.0121649997 0.0000000000 0.0820370018 1.0000000000
-0.0121759996 0.0000000000 0.0820360035 1.0000000000
-0.0121889999 0.0000000000 0.0820380002 1.0000000000
-0.0121999998 0.0000000000 0.0820360035 1.0000000000
-0.0122119999 0.0000000000 0.0820360035 1.0000000000
-0.0122239999 0.0000000000 0.0820360035 1.0000000000
-0.0122360000 0.0000000000 0.0820389986 1.0000000000
-0.0122490004 0.0000000000 0.0820429996 1.0000000000
-0.0122600002 0.0000000000 0.0820370018 1.0000000000
-0.0122710001 0.0000000000 0.0820339993 1.0000000000
-0.0122840004 0.0000000000 0.0820380002 1.0000000000
-0.0122959996 0.0000000000 0.0820420012 1.0000000000
-0.0123089999 0.0000000000 0.0820429996 1.0000000000
