VERSION 0.7
FIELDS x y z intensity
SIZE 4 4 4 4
TYPE F F F F
COUNT 1 1 1 1
WIDTH 1257
HEIGHT 1
VIEWPOINT 0.0 0.0 0.0 1.0 0.0 0.0 0.0
POINTS 1257
DATA ascii
0.0121750003 0.0000000000 0.0817330033 1.0000000000
0.0121609997 0.0000000000 0.0817279965 1.0000000000
0.0121510001 0.0000000000 0.0817330033 1.0000000000
0.0121400002 0.0000000000 0.0817390010 1.0000000000
0.0121280001 0.0000000000 0.0817350000 1.0000000000
0.0121139996 0.0000000000 0.0817279965 1.0000000000
0.0121029997 0.0000000000 0.0817259997 1.0000000000
0.0120919999 0.0000000000 0.0817319974 1.0000000000
0.0120799998 0.0000000000 0.0817279965 1.0000000000
0.0120670004 0.0000000000 0.0817229971 1.0000000000
0.0120559996 0.0000000000 0.0817269981 1.0000000000
0.0120449997 0.0000000000 0.0817319974 1.0000000000
0.0120329997 0.0000000000 0.0817330033 1.0000000000
0.0120209996 0.0000000000 0.0817300007 1.0000000000
0.0120090004 0.0000000000 0.0817269981 1.0000000000
0.0119949998 0.0000000000 0.0817269981 1.0000000000
0.0119850002 0.0000000000 0.0817269981 1.0000000000
0.0119709997 0.0000000000 0.0817240030 1.0000000000
0.0119610000 0.0000000000 0.0817259997 1.0000000000
0.0119500002 0.0000000000 0.0817319974 1.0000000000
0.0119380001 0.0000000000 0.0817309991 1.0000000000
0.0119240005 0.0000000000 0.0817229971 1.0000000000
0.0119139999 0.0000000000 0.0817269981 1.0000000000
0.0119030001 0.0000000000 0.0817290023 1.0000000000
0.0118890004 0.0000000000 0.0817200020 1.0000000000
0.0118770003 0.0000000000 0.0817120001 1.0000000000
0.0118640000 0.0000000000 0.0817079991 1.0000000000
0.0118519999 0.0000000000 0.0817089975 1.0000000000
0.0118429996 0.0000000000 0.0817250013 1.0000000000
0.0118310004 0.0000000000 0.0817330033 1.0000000000
0.0118199997 0.0000000000 0.0817279965 1.0000000000
0.0118079996 0.0000000000 0.0817290023 1.0000000000
0.0117969997 0.0000000000 0.0817319974 1.0000000000
0.0117830001 0.0000000000 0.0817300007 1.0000000000
0.0117720002 0.0000000000 0.0817290023 1.0000000000
0.0117610004 0.0000000000 0.0817309991 1.0000000000
0.0117499996 0.0000000000 0.0817350000 1.0000000000
0.0117380004 0.0000000000 0.0817380026 1.0000000000
0.0117260003 0.0000000000 0.0817380026 1.0000000000
0.0117130000 0.0000000000 0.0817319974 1.0000000000
0.0117020002 0.0000000000 0.0817279965 1.0000000000
0.0116900001 0.0000000000 0.0817309991 1.0000000000
0.0116790002 0.0000000000 0.0817350000 1.0000000000
0.0116659999 0.0000000000 0.0817340016 1.0000000000
0.0116550000 0.0000000000 0.0817319974 1.0000000000
0.0116419997 0.0000000000 0.0817330033 1.0000000000
0.0116309999 0.0000000000 0.0817340016 1.0000000000
0.0116200000 0.0000000000 0.0817350000 1.0000000000
0.0116079999 0.0000000000 0.0817380026 1.0000000000
0.0115970001 0.0000000000 0.0817390010 1.0000000000
0.0115839997 0.0000000000 0.0817359984 1.0000000000
0.0115729999 0.0000000000 0.0817359984 1.0000000000
0.0115620000 0.0000000000 0.0817430019 1.0000000000
0.0115499999 0.0000000000 0.0817470029 1.0000000000
0.0115369996 0.0000000000 0.0817390010 1.0000000000
0.0115250004 0.0000000000 0.0817300007 1.0000000000
0.0115120001 0.0000000000 0.0817279965 1.0000000000
0.0115010003 0.0000000000 0.0817290023 1.0000000000
0.0114900004 0.0000000000 0.0817369968 1.0000000000
0.0114770001 0.0000000000 0.0817380026 1.0000000000
0.0114669995 0.0000000000 0.0817399994 1.0000000000
0.0114540001 0.0000000000 0.0817409977 1.0000000000
0.0114430003 0.0000000000 0.0817399994 1.0000000000
0.0114310002 0.0000000000 0.0817359984 1.0000000000
0.0114190001 0.0000000000 0.0817340016 1.0000000000
0.0114070000 0.0000000000 0.0817359984 1.0000000000
0.0113960002 0.0000000000 0.0817449987 1.0000000000
0.0113840001 0.0000000000 0.0817480013 1.0000000000
0.0113730002 0.0000000000 0.0817480013 1.0000000000
0.0113589996 0.0000000000 0.0817409977 1.0000000000
0.0113479998 0.0000000000 0.0817390010 1.0000000000
0.0113350004 0.0000000000 0.0817390010 1.0000000000
0.0113249999 0.0000000000 0.0817420036 1.0000000000
0.0113120005 0.0000000000 0.0817399994 1.0000000000
0.0113009997 0.0000000000 0.0817409977 1.0000000000
0.0112880003 0.0000000000 0.0817409977 1.0000000000
0.0112790000 0.0000000000 0.0817489997 1.0000000000
0.0112669999 0.0000000000 0.0817629993 1.0000000000
0.0112579996 0.0000000000 0.0817689970 1.0000000000
0.0112460004 0.0000000000 0.0817700028 1.0000000000
0.0112349996 0.0000000000 0.0817760006 1.0000000000
0.0112239998 0.0000000000 0.0817880034 1.0000000000
0.0112129999 0.0000000000 0.0817949995 1.0000000000
0.0112009998 0.0000000000 0.0817990005 1.0000000000
0.0111910002 0.0000000000 0.0818049982 1.0000000000
0.0111800004 0.0000000000 0.0818130001 1.0000000000
0.0111699998 0.0000000000 0.0818300024 1.0000000000
0.0111600002 0.0000000000 0.0818459988 1.0000000000
0.0111499997 0.0000000000 0.0818580016 1.0000000000
0.0111400001 0.0000000000 0.0818699971 1.0000000000
0.0111280000 0.0000000000 0.0818760023 1.0000000000
0.0111170001 0.0000000000 0.0818789974 1.0000000000
0.0111060003 0.0000000000 0.0818860009 1.0000000000
0.0110930000 0.0000000000 0.0818910003 1.0000000000
0.0110830003 0.0000000000 0.0818940029 1.0000000000
0.0110729998 0.0000000000 0.0819059983 1.0000000000
0.0110640004 0.0000000000 0.0819279999 1.0000000000
0.0110539999 0.0000000000 0.0819479972 1.0000000000
0.0110430000 0.0000000000 0.0819519982 1.0000000000
0.0110320002 0.0000000000 0.0819580033 1.0000000000
0.0110219996 0.0000000000 0.0819749981 1.0000000000
0.0110130003 0.0000000000 0.0819979981 1.0000000000
0.0110020004 0.0000000000 0.0820100009 1.0000000000
0.0109909996 0.0000000000 0.0820159987 1.0000000000
0.0109799998 0.0000000000 0.0820180029 1.0000000000
0.0109670004 0.0000000000 0.0820199996 1.0000000000
0.0109569998 0.0000000000 0.0820289999 1.0000000000
0.0109470002 0.0000000000 0.0820439979 1.0000000000
0.0109369997 0.0000000000 0.0820529982 1.0000000000
0.0109249996 0.0000000000 0.0820579976 1.0000000000
0.0109150000 0.0000000000 0.0820740014 1.0000000000
0.0109059997 0.0000000000 0.0820930004 1.0000000000
0.0108949998 0.0000000000 0.0820999965 1.0000000000
0.0108820004 0.0000000000 0.0821070001 1.0000000000
0.0108730001 0.0000000000 0.0821169987 1.0000000000
0.0108599998 0.0000000000 0.0821229964 1.0000000000
0.0108510004 0.0000000000 0.0821349993 1.0000000000
0.0108390003 0.0000000000 0.0821420029 1.0000000000
0.0108289998 0.0000000000 0.0821489990 1.0000000000
0.0108180000 0.0000000000 0.0821529999 1.0000000000
0.0108059999 0.0000000000 0.0821579993 1.0000000000
0.0107950000 0.0000000000 0.0821719989 1.0000000000
0.0107869999 0.0000000000 0.0821930021 1.0000000000
0.0107760001 0.0000000000 0.0822030008 1.0000000000
0.0107659996 0.0000000000 0.0822179988 1.0000000000
0.0107540004 0.0000000000 0.0822269991 1.0000000000
0.0107429996 0.0000000000 0.0822310001 1.0000000000
0.0107319998 0.0000000000 0.0822400004 1.0000000000
0.0107220002 0.0000000000 0.0822490007 1.0000000000
0.0107089998 0.0000000000 0.0822580010 1.0000000000
0.0107009998 0.0000000000 0.0822760016 1.0000000000
0.0106899999 0.0000000000 0.0822890028 1.0000000000
0.0106790001 0.0000000000 0.0822929963 1.0000000000
0.0106670000 0.0000000000 0.0823009983 1.0000000000
0.0106570004 0.0000000000 0.0823139995 1.0000000000
0.0106469998 0.0000000000 0.0823249966 1.0000000000
0.0106360000 0.0000000000 0.0823400021 1.0000000000
0.0106250001 0.0000000000 0.0823500007 1.0000000000
0.0106140003 0.0000000000 0.0823540017 1.0000000000
0.0106020002 0.0000000000 0.0823620036 1.0000000000
0.0105919996 0.0000000000 0.0823730007 1.0000000000
0.0105809998 0.0000000000 0.0823770016 1.0000000000
0.0105699999 0.0000000000 0.0823839977 1.0000000000
0.0105579998 0.0000000000 0.0823960006 1.0000000000
0.0105490005 0.0000000000 0.0824100003 1.0000000000
0.0105379997 0.0000000000 0.0824180022 1.0000000000
0.0105280001 0.0000000000 0.0824370012 1.0000000000
0.0105160000 0.0000000000 0.0824469998 1.0000000000
0.0105050001 0.0000000000 0.0824489966 1.0000000000
0.0104930000 0.0000000000 0.0824600011 1.0000000000
0.0104850000 0.0000000000 0.0824849978 1.0000000000
0.0104750004 0.0000000000 0.0824960023 1.0000000000
0.0104630003 0.0000000000 0.0825010017 1.0000000000
0.0104520004 0.0000000000 0.0825069994 1.0000000000
0.0104409996 0.0000000000 0.0825169981 1.0000000000
0.0104310000 0.0000000000 0.0825330019 1.0000000000
0.0104200002 0.0000000000 0.0825479999 1.0000000000
0.0104099996 0.0000000000 0.0825600028 1.0000000000
0.0103989998 0.0000000000 0.0825690031 1.0000000000
0.0103879999 0.0000000000 0.0825750008 1.0000000000
0.0103759998 0.0000000000 0.0825790018 1.0000000000
0.0103630004 0.0000000000 0.0825809985 1.0000000000
0.0103529999 0.0000000000 0.0825909972 1.0000000000
0.0103420001 0.0000000000 0.0826060027 1.0000000000
0.0103329998 0.0000000000 0.0826219991 1.0000000000
0.0103219999 0.0000000000 0.0826300010 1.0000000000
0.0103099998 0.0000000000 0.0826330036 1.0000000000
0.0102979997 0.0000000000 0.0826390013 1.0000000000
0.0102890003 0.0000000000 0.0826560035 1.0000000000
0.0102770003 0.0000000000 0.0826729983 1.0000000000
0.0102680000 0.0000000000 0.0826869980 1.0000000000
0.0102570001 0.0000000000 0.0826980025 1.0000000000
0.0102460003 0.0000000000 0.0827070028 1.0000000000
0.0102350004 0.0000000000 0.0827130005 1.0000000000
0.0102239996 0.0000000000 0.0827220008 1.0000000000
0.0102129998 0.0000000000 0.0827319995 1.0000000000
0.0102019999 0.0000000000 0.0827440023 1.0000000000
0.0101899998 0.0000000000 0.0827530026 1.0000000000
0.0101800002 0.0000000000 0.0827649981 1.0000000000
0.0101690004 0.0000000000 0.0827789977 1.0000000000
0.0101589998 0.0000000000 0.0827929974 1.0000000000
0.0101469997 0.0000000000 0.0827979967 1.0000000000
0.0101359999 0.0000000000 0.0827990025 1.0000000000
0.0101229995 0.0000000000 0.0827990025 1.0000000000
0.0101140002 0.0000000000 0.0828199983 1.0000000000
0.0101009998 0.0000000000 0.0828230008 1.0000000000
0.0077700000 0.0000000000 0.0828699991 1.0000000000
0.0077590002 0.0000000000 0.0828680024 1.0000000000
0.0077450001 0.0000000000 0.0828590021 1.0000000000
0.0077340002 0.0000000000 0.0828490034 1.0000000000
0.0077200001 0.0000000000 0.0828439966 1.0000000000
0.0077089998 0.0000000000 0.0828419998 1.0000000000
0.0076950002 0.0000000000 0.0828339979 1.0000000000
0.0076830001 0.0000000000 0.0828230008 1.0000000000
0.0076690000 0.0000000000 0.0828090012 1.0000000000
0.0076569999 0.0000000000 0.0828019977 1.0000000000
0.0076449998 0.0000000000 0.0827979967 1.0000000000
0.0076319999 0.0000000000 0.0827889964 1.0000000000
0.0076190000 0.0000000000 0.0827779993 1.0000000000
0.0076060002 0.0000000000 0.0827630013 1.0000000000
0.0075929998 0.0000000000 0.0827509984 1.0000000000
0.0075800000 0.0000000000 0.0827419981 1.0000000000
0.0075670001 0.0000000000 0.0827260017 1.0000000000
0.0075530000 0.0000000000 0.0827099979 1.0000000000
0.0075389999 0.0000000000 0.0826919973 1.0000000000
0.0075260000 0.0000000000 0.0826719999 1.0000000000
0.0075130002 0.0000000000 0.0826570019 1.0000000000
0.0074999998 0.0000000000 0.0826499984 1.0000000000
0.0074870000 0.0000000000 0.0826490000 1.0000000000
0.0074749999 0.0000000000 0.0826430023 1.0000000000
0.0074620000 0.0000000000 0.0826210007 1.0000000000
0.0074479999 0.0000000000 0.0825970024 1.0000000000
0.0074350000 0.0000000000 0.0825830027 1.0000000000
0.0074220002 0.0000000000 0.0825780034 1.0000000000
0.0074080001 0.0000000000 0.0825729966 1.0000000000
0.0073970002 0.0000000000 0.0825639963 1.0000000000
0.0073819999 0.0000000000 0.0825449973 1.0000000000
0.0073710000 0.0000000000 0.0825399980 1.0000000000
0.0073589999 0.0000000000 0.0825409964 1.0000000000
0.0073449998 0.0000000000 0.0825200006 1.0000000000
0.0073299999 0.0000000000 0.0824939981 1.0000000000
0.0073190001 0.0000000000 0.0824929997 1.0000000000
0.0073070000 0.0000000000 0.0824899971 1.0000000000
0.0072929999 0.0000000000 0.0824699998 1.0000000000
0.0072800000 0.0000000000 0.0824560001 1.0000000000
0.0072670002 0.0000000000 0.0824460015 1.0000000000
0.0072519998 0.0000000000 0.0824239999 1.0000000000
0.0072410000 0.0000000000 0.0824130028 1.0000000000
0.0072269998 0.0000000000 0.0824069977 1.0000000000
0.0072150002 0.0000000000 0.0823910013 1.0000000000
0.0072019999 0.0000000000 0.0823739991 1.0000000000
0.0071890000 0.0000000000 0.0823689997 1.0000000000
0.0071769999 0.0000000000 0.0823659971 1.0000000000
0.0071640001 0.0000000000 0.0823580027 1.0000000000
0.0071500000 0.0000000000 0.0823450014 1.0000000000
0.0071379999 0.0000000000 0.0823270008 1.0000000000
0.0071240002 0.0000000000 0.0823180005 1.0000000000
0.0071129999 0.0000000000 0.0823180005 1.0000000000
0.0071000000 0.0000000000 0.0823059976 1.0000000000
0.0070870002 0.0000000000 0.0822869986 1.0000000000
0.0070730001 0.0000000000 0.0822710022 1.0000000000
0.0070600002 0.0000000000 0.0822480023 1.0000000000
0.0070469999 0.0000000000 0.0822390020 1.0000000000
0.0070349998 0.0000000000 0.0822359994 1.0000000000
0.0070219999 0.0000000000 0.0822279975 1.0000000000
0.0070090001 0.0000000000 0.0822189972 1.0000000000
0.0069960002 0.0000000000 0.0822160020 1.0000000000
0.0069840001 0.0000000000 0.0822049975 1.0000000000
0.0069700000 0.0000000000 0.0821850002 1.0000000000
0.0069579999 0.0000000000 0.0821729973 1.0000000000
0.0069439998 0.0000000000 0.0821620002 1.0000000000
0.0069320002 0.0000000000 0.0821489990 1.0000000000
0.0069189998 0.0000000000 0.0821420029 1.0000000000
0.0069070002 0.0000000000 0.0821340010 1.0000000000
0.0068939999 0.0000000000 0.0821319968 1.0000000000
0.0068819998 0.0000000000 0.0821219981 1.0000000000
0.0068680001 0.0000000000 0.0821070001 1.0000000000
0.0068529998 0.0000000000 0.0820629969 1.0000000000
0.0068399999 0.0000000000 0.0820539966 1.0000000000
0.0068279998 0.0000000000 0.0820449963 1.0000000000
0.0068150000 0.0000000000 0.0820370018 1.0000000000
0.0068020001 0.0000000000 0.0820270032 1.0000000000
0.0067880000 0.0000000000 0.0820130035 1.0000000000
0.0067770001 0.0000000000 0.0820040032 1.0000000000
0.0067630000 0.0000000000 0.0819989964 1.0000000000
0.0067520002 0.0000000000 0.0819979981 1.0000000000
0.0067389999 0.0000000000 0.0819979981 1.0000000000
0.0067280000 0.0000000000 0.0819960013 1.0000000000
0.0067150001 0.0000000000 0.0819860026 1.0000000000
0.0067019998 0.0000000000 0.0819670036 1.0000000000
0.0066869999 0.0000000000 0.0819469988 1.0000000000
0.0066760001 0.0000000000 0.0819379985 1.0000000000
0.0066630002 0.0000000000 0.0819320008 1.0000000000
0.0066510001 0.0000000000 0.0819220021 1.0000000000
0.0066359998 0.0000000000 0.0819040015 1.0000000000
0.0066240001 0.0000000000 0.0818890035 1.0000000000
0.0066100000 0.0000000000 0.0818770006 1.0000000000
0.0065990002 0.0000000000 0.0818639994 1.0000000000
0.0065859999 0.0000000000 0.0818540007 1.0000000000
0.0065730000 0.0000000000 0.0818440020 1.0000000000
0.0065609999 0.0000000000 0.0818369985 1.0000000000
0.0065489998 0.0000000000 0.0818360001 1.0000000000
0.0065359999 0.0000000000 0.0818400010 1.0000000000
0.0065250001 0.0000000000 0.0818350017 1.0000000000
0.0065110000 0.0000000000 0.0818220004 1.0000000000
0.0065000001 0.0000000000 0.0818189979 1.0000000000
0.0064860000 0.0000000000 0.0818130001 1.0000000000
0.0064750002 0.0000000000 0.0818120018 1.0000000000
0.0064619998 0.0000000000 0.0818070024 1.0000000000
0.0064510000 0.0000000000 0.0818030015 1.0000000000
0.0064389999 0.0000000000 0.0818030015 1.0000000000
0.0064269998 0.0000000000 0.0818039998 1.0000000000
0.0064150002 0.0000000000 0.0818030015 1.0000000000
0.0064030001 0.0000000000 0.0818039998 1.0000000000
0.0063910000 0.0000000000 0.0818039998 1.0000000000
0.0063789999 0.0000000000 0.0818070024 1.0000000000
0.0063660000 0.0000000000 0.0818080008 1.0000000000
0.0063550002 0.0000000000 0.0818110034 1.0000000000
0.0063430001 0.0000000000 0.0818149969 1.0000000000
0.0063319998 0.0000000000 0.0818160027 1.0000000000
0.0063200002 0.0000000000 0.0818130001 1.0000000000
0.0063069998 0.0000000000 0.0818070024 1.0000000000
0.0062940000 0.0000000000 0.0817999989 1.0000000000
0.0062830001 0.0000000000 0.0818049982 1.0000000000
0.0062719998 0.0000000000 0.0818110034 1.0000000000
0.0062600002 0.0000000000 0.0818170011 1.0000000000
0.0062469998 0.0000000000 0.0818220004 1.0000000000
0.0062360000 0.0000000000 0.0818189979 1.0000000000
0.0062239999 0.0000000000 0.0818130001 1.0000000000
0.0062119998 0.0000000000 0.0818200037 1.0000000000
0.0061989999 0.0000000000 0.0818239972 1.0000000000
0.0061889999 0.0000000000 0.0818250030 1.0000000000
0.0061760000 0.0000000000 0.0818250030 1.0000000000
0.0061650001 0.0000000000 0.0818250030 1.0000000000
0.0061519998 0.0000000000 0.0818189979 1.0000000000
0.0061400002 0.0000000000 0.0818099976 1.0000000000
0.0061260001 0.0000000000 0.0818080008 1.0000000000
0.0061160000 0.0000000000 0.0818130001 1.0000000000
0.0061039999 0.0000000000 0.0818189979 1.0000000000
0.0060919998 0.0000000000 0.0818210021 1.0000000000
0.0060790000 0.0000000000 0.0818139985 1.0000000000
0.0060680001 0.0000000000 0.0818130001 1.0000000000
0.0060560000 0.0000000000 0.0818120018 1.0000000000
0.0060439999 0.0000000000 0.0818099976 1.0000000000
0.0060299998 0.0000000000 0.0818070024 1.0000000000
0.0060190000 0.0000000000 0.0818059966 1.0000000000
0.0060060001 0.0000000000 0.0818080008 1.0000000000
0.0059960000 0.0000000000 0.0818149969 1.0000000000
0.0059830002 0.0000000000 0.0818130001 1.0000000000
0.0059719998 0.0000000000 0.0818099976 1.0000000000
0.0059590000 0.0000000000 0.0818139985 1.0000000000
0.0059480001 0.0000000000 0.0818220004 1.0000000000
0.0059369998 0.0000000000 0.0818279982 1.0000000000
0.0059250002 0.0000000000 0.0818310007 1.0000000000
0.0059119998 0.0000000000 0.0818329975 1.0000000000
0.0059010000 0.0000000000 0.0818310007 1.0000000000
0.0058869999 0.0000000000 0.0818229988 1.0000000000
0.0058760000 0.0000000000 0.0818220004 1.0000000000
0.0058630002 0.0000000000 0.0818239972 1.0000000000
0.0058519999 0.0000000000 0.0818250030 1.0000000000
0.0058400002 0.0000000000 0.0818260014 1.0000000000
0.0058289999 0.0000000000 0.0818319991 1.0000000000
0.0058169998 0.0000000000 0.0818289965 1.0000000000
0.0058040000 0.0000000000 0.0818160027 1.0000000000
0.0057919999 0.0000000000 0.0818179995 1.0000000000
0.0057799998 0.0000000000 0.0818269998 1.0000000000
0.0057680001 0.0000000000 0.0818289965 1.0000000000
0.0057560001 0.0000000000 0.0818239972 1.0000000000
0.0057440000 0.0000000000 0.0818210021 1.0000000000
0.0057319999 0.0000000000 0.0818170011 1.0000000000
0.0057199998 0.0000000000 0.0818170011 1.0000000000
0.0057080002 0.0000000000 0.0818250030 1.0000000000
0.0056949998 0.0000000000 0.0818229988 1.0000000000
0.0056840000 0.0000000000 0.0818210021 1.0000000000
0.0056710001 0.0000000000 0.0818200037 1.0000000000
0.0056599998 0.0000000000 0.0818179995 1.0000000000
0.0056480002 0.0000000000 0.0818170011 1.0000000000
0.0056360001 0.0000000000 0.0818239972 1.0000000000
0.0056240000 0.0000000000 0.0818289965 1.0000000000
0.0056119999 0.0000000000 0.0818229988 1.0000000000
0.0055979998 0.0000000000 0.0818139985 1.0000000000
0.0055869999 0.0000000000 0.0818139985 1.0000000000
0.0055749998 0.0000000000 0.0818170011 1.0000000000
0.0055630002 0.0000000000 0.0818179995 1.0000000000
0.0055499999 0.0000000000 0.0818149969 1.0000000000
0.0055390000 0.0000000000 0.0818099976 1.0000000000
0.0055260002 0.0000000000 0.0818110034 1.0000000000
0.0055160001 0.0000000000 0.0818229988 1.0000000000
0.0055040000 0.0000000000 0.0818269998 1.0000000000
0.0054919999 0.0000000000 0.0818210021 1.0000000000
0.0054790000 0.0000000000 0.0818189979 1.0000000000
0.0054670000 0.0000000000 0.0818189979 1.0000000000
0.0054549999 0.0000000000 0.0818189979 1.0000000000
0.0054429998 0.0000000000 0.0818200037 1.0000000000
0.0054310001 0.0000000000 0.0818189979 1.0000000000
0.0054190001 0.0000000000 0.0818130001 1.0000000000
0.0054060002 0.0000000000 0.0818110034 1.0000000000
0.0053949999 0.0000000000 0.0818200037 1.0000000000
0.0053829998 0.0000000000 0.0818279982 1.0000000000
0.0053719999 0.0000000000 0.0818300024 1.0000000000
0.0053590001 0.0000000000 0.0818289965 1.0000000000
0.0053480002 0.0000000000 0.0818300024 1.0000000000
0.0053360001 0.0000000000 0.0818279982 1.0000000000
0.0053240000 0.0000000000 0.0818269998 1.0000000000
0.0053119999 0.0000000000 0.0818269998 1.0000000000
0.0052999998 0.0000000000 0.0818300024 1.0000000000
0.0052880002 0.0000000000 0.0818269998 1.0000000000
0.0052760001 0.0000000000 0.0818279982 1.0000000000
0.0052640000 0.0000000000 0.0818360001 1.0000000000
0.0052519999 0.0000000000 0.0818379968 1.0000000000
0.0052399999 0.0000000000 0.0818360001 1.0000000000
0.0052280002 0.0000000000 0.0818400010 1.0000000000
0.0052149999 0.0000000000 0.0818379968 1.0000000000
0.0052040000 0.0000000000 0.0818289965 1.0000000000
0.0051899999 0.0000000000 0.0818289965 1.0000000000
0.0051799999 0.0000000000 0.0818350017 1.0000000000
0.0051660002 0.0000000000 0.0818310007 1.0000000000
0.0051549999 0.0000000000 0.0818260014 1.0000000000
0.0051429998 0.0000000000 0.0818260014 1.0000000000
0.0051310002 0.0000000000 0.0818269998 1.0000000000
0.0051190001 0.0000000000 0.0818269998 1.0000000000
0.0051070000 0.0000000000 0.0818289965 1.0000000000
0.0050960002 0.0000000000 0.0818329975 1.0000000000
0.0050840001 0.0000000000 0.0818340033 1.0000000000
0.0050700000 0.0000000000 0.0818310007 1.0000000000
0.0050590001 0.0000000000 0.0818289965 1.0000000000
0.0050459998 0.0000000000 0.0818289965 1.0000000000
0.0050349999 0.0000000000 0.0818289965 1.0000000000
0.0050220001 0.0000000000 0.0818300024 1.0000000000
0.0050110002 0.0000000000 0.0818329975 1.0000000000
0.0049990001 0.0000000000 0.0818329975 1.0000000000
0.0049879998 0.0000000000 0.0818369985 1.0000000000
0.0049760002 0.0000000000 0.0818409994 1.0000000000
0.0049629998 0.0000000000 0.0818350017 1.0000000000
0.0049510002 0.0000000000 0.0818250030 1.0000000000
0.0049390001 0.0000000000 0.0818260014 1.0000000000
0.0049259998 0.0000000000 0.0818300024 1.0000000000
0.0049149999 0.0000000000 0.0818340033 1.0000000000
0.0049020001 0.0000000000 0.0818300024 1.0000000000
0.0048910002 0.0000000000 0.0818350017 1.0000000000
0.0048779999 0.0000000000 0.0818369985 1.0000000000
0.0048670000 0.0000000000 0.0818319991 1.0000000000
0.0048549999 0.0000000000 0.0818239972 1.0000000000
0.0048429999 0.0000000000 0.0818260014 1.0000000000
0.0048300000 0.0000000000 0.0818289965 1.0000000000
0.0048190001 0.0000000000 0.0818300024 1.0000000000
0.0048059998 0.0000000000 0.0818300024 1.0000000000
0.0047950000 0.0000000000 0.0818319991 1.0000000000
0.0047829999 0.0000000000 0.0818340033 1.0000000000
0.0047709998 0.0000000000 0.0818310007 1.0000000000
0.0047579999 0.0000000000 0.0818269998 1.0000000000
0.0047470001 0.0000000000 0.0818279982 1.0000000000
0.0047340002 0.0000000000 0.0818289965 1.0000000000
0.0047229999 0.0000000000 0.0818300024 1.0000000000
0.0047100000 0.0000000000 0.0818269998 1.0000000000
0.0046990002 0.0000000000 0.0818289965 1.0000000000
0.0046859998 0.0000000000 0.0818350017 1.0000000000
0.0046750000 0.0000000000 0.0818430036 1.0000000000
0.0046629999 0.0000000000 0.0818440020 1.0000000000
0.0046509998 0.0000000000 0.0818350017 1.0000000000
0.0046370002 0.0000000000 0.0818279982 1.0000000000
0.0046270001 0.0000000000 0.0818269998 1.0000000000
0.0046140002 0.0000000000 0.0818250030 1.0000000000
0.0046020001 0.0000000000 0.0818220004 1.0000000000
0.0045900000 0.0000000000 0.0818229988 1.0000000000
0.0045779999 0.0000000000 0.0818250030 1.0000000000
0.0045659998 0.0000000000 0.0818170011 1.0000000000
0.0045530000 0.0000000000 0.0818089992 1.0000000000
0.0045400001 0.0000000000 0.0818110034 1.0000000000
0.0045300000 0.0000000000 0.0818179995 1.0000000000
0.0045179999 0.0000000000 0.0818260014 1.0000000000
0.0045059999 0.0000000000 0.0818350017 1.0000000000
0.0044940002 0.0000000000 0.0818340033 1.0000000000
0.0044820001 0.0000000000 0.0818300024 1.0000000000
0.0044700000 0.0000000000 0.0818260014 1.0000000000
0.0044580000 0.0000000000 0.0818229988 1.0000000000
0.0044459999 0.0000000000 0.0818260014 1.0000000000
0.0044339998 0.0000000000 0.0818300024 1.0000000000
0.0044209999 0.0000000000 0.0818269998 1.0000000000
0.0044100001 0.0000000000 0.0818289965 1.0000000000
0.0043980000 0.0000000000 0.0818350017 1.0000000000
0.0043859999 0.0000000000 0.0818409994 1.0000000000
0.0043739998 0.0000000000 0.0818409994 1.0000000000
0.0043620002 0.0000000000 0.0818350017 1.0000000000
0.0043500001 0.0000000000 0.0818329975 1.0000000000
0.0043380000 0.0000000000 0.0818400010 1.0000000000
0.0043259999 0.0000000000 0.0818409994 1.0000000000
0.0043139998 0.0000000000 0.0818369985 1.0000000000
0.0043000001 0.0000000000 0.0818379968 1.0000000000
0.0042889998 0.0000000000 0.0818369985 1.0000000000
0.0042770002 0.0000000000 0.0818340033 1.0000000000
0.0042650001 0.0000000000 0.0818400010 1.0000000000
0.0042519998 0.0000000000 0.0818430036 1.0000000000
0.0042409999 0.0000000000 0.0818409994 1.0000000000
0.0042280001 0.0000000000 0.0818350017 1.0000000000
0.0042170002 0.0000000000 0.0818310007 1.0000000000
0.0042050001 0.0000000000 0.0818329975 1.0000000000
0.0041930000 0.0000000000 0.0818430036 1.0000000000
0.0041800002 0.0000000000 0.0818419978 1.0000000000
0.0041689998 0.0000000000 0.0818369985 1.0000000000
0.0041570002 0.0000000000 0.0818419978 1.0000000000
0.0041450001 0.0000000000 0.0818459988 1.0000000000
0.0041330000 0.0000000000 0.0818409994 1.0000000000
0.0041200002 0.0000000000 0.0818329975 1.0000000000
0.0041069998 0.0000000000 0.0818340033 1.0000000000
0.0040960000 0.0000000000 0.0818350017 1.0000000000
0.0040839999 0.0000000000 0.0818310007 1.0000000000
0.0040719998 0.0000000000 0.0818379968 1.0000000000
0.0040610000 0.0000000000 0.0818430036 1.0000000000
0.0040480001 0.0000000000 0.0818390027 1.0000000000
0.0040360000 0.0000000000 0.0818329975 1.0000000000
0.0040239999 0.0000000000 0.0818340033 1.0000000000
0.0040119998 0.0000000000 0.0818409994 1.0000000000
0.0040000002 0.0000000000 0.0818430036 1.0000000000
0.0039880001 0.0000000000 0.0818409994 1.0000000000
0.0039760000 0.0000000000 0.0818440020 1.0000000000
0.0039630001 0.0000000000 0.0818430036 1.0000000000
0.0039519998 0.0000000000 0.0818409994 1.0000000000
0.0039390000 0.0000000000 0.0818350017 1.0000000000
0.0039280001 0.0000000000 0.0818329975 1.0000000000
0.0039149998 0.0000000000 0.0818369985 1.0000000000
0.0039039999 0.0000000000 0.0818440020 1.0000000000
0.0038920001 0.0000000000 0.0818480030 1.0000000000
0.0038800000 0.0000000000 0.0818450004 1.0000000000
0.0038680001 0.0000000000 0.0818409994 1.0000000000
0.0038560000 0.0000000000 0.0818450004 1.0000000000
0.0038439999 0.0000000000 0.0818480030 1.0000000000
0.0038320001 0.0000000000 0.0818459988 1.0000000000
0.0038180000 0.0000000000 0.0818419978 1.0000000000
0.0038079999 0.0000000000 0.0818490013 1.0000000000
0.0037950000 0.0000000000 0.0818540007 1.0000000000
0.0037839999 0.0000000000 0.0818559974 1.0000000000
0.0037700001 0.0000000000 0.0818530023 1.0000000000
0.0037590000 0.0000000000 0.0818499997 1.0000000000
0.0037459999 0.0000000000 0.0818419978 1.0000000000
0.0037350000 0.0000000000 0.0818419978 1.0000000000
0.0037229999 0.0000000000 0.0818480030 1.0000000000
0.0037110001 0.0000000000 0.0818519965 1.0000000000
0.0036990000 0.0000000000 0.0818549991 1.0000000000
0.0036869999 0.0000000000 0.0818580016 1.0000000000
0.0036750000 0.0000000000 0.0818559974 1.0000000000
0.0036630000 0.0000000000 0.0818499997 1.0000000000
0.0036500001 0.0000000000 0.0818450004 1.0000000000
0.0036390000 0.0000000000 0.0818499997 1.0000000000
0.0036259999 0.0000000000 0.0818499997 1.0000000000
0.0036150001 0.0000000000 0.0818490013 1.0000000000
0.0036020000 0.0000000000 0.0818469971 1.0000000000
0.0035900001 0.0000000000 0.0818499997 1.0000000000
0.0035790000 0.0000000000 0.0818549991 1.0000000000
0.0035659999 0.0000000000 0.0818509981 1.0000000000
0.0035530000 0.0000000000 0.0818450004 1.0000000000
0.0035420000 0.0000000000 0.0818490013 1.0000000000
0.0035300001 0.0000000000 0.0818480030 1.0000000000
0.0035180000 0.0000000000 0.0818419978 1.0000000000
0.0035059999 0.0000000000 0.0818400010 1.0000000000
0.0034940001 0.0000000000 0.0818430036 1.0000000000
0.0034820000 0.0000000000 0.0818469971 1.0000000000
0.0034700001 0.0000000000 0.0818540007 1.0000000000
0.0034580000 0.0000000000 0.0818559974 1.0000000000
0.0034459999 0.0000000000 0.0818519965 1.0000000000
0.0034340001 0.0000000000 0.0818480030 1.0000000000
0.0034210000 0.0000000000 0.0818440020 1.0000000000
0.0034090001 0.0000000000 0.0818390027 1.0000000000
0.0033970000 0.0000000000 0.0818360001 1.0000000000
0.0033849999 0.0000000000 0.0818379968 1.0000000000
0.0033730001 0.0000000000 0.0818390027 1.0000000000
0.0033610000 0.0000000000 0.0818390027 1.0000000000
0.0033489999 0.0000000000 0.0818469971 1.0000000000
0.0033360000 0.0000000000 0.0818490013 1.0000000000
0.0033249999 0.0000000000 0.0818459988 1.0000000000
0.0033120001 0.0000000000 0.0818409994 1.0000000000
0.0033010000 0.0000000000 0.0818459988 1.0000000000
0.0032879999 0.0000000000 0.0818509981 1.0000000000
0.0032770000 0.0000000000 0.0818540007 1.0000000000
0.0032639999 0.0000000000 0.0818580016 1.0000000000
0.0032530001 0.0000000000 0.0818639994 1.0000000000
0.0032410000 0.0000000000 0.0818559974 1.0000000000
0.0032279999 0.0000000000 0.0818419978 1.0000000000
0.0032160000 0.0000000000 0.0818469971 1.0000000000
0.0032050000 0.0000000000 0.0818580016 1.0000000000
0.0031920001 0.0000000000 0.0818599984 1.0000000000
0.0031800000 0.0000000000 0.0818469971 1.0000000000
0.0031679999 0.0000000000 0.0818379968 1.0000000000
0.0031560000 0.0000000000 0.0818419978 1.0000000000
0.0031430000 0.0000000000 0.0818430036 1.0000000000
0.0031320001 0.0000000000 0.0818459988 1.0000000000
0.0031190000 0.0000000000 0.0818490013 1.0000000000
0.0031079999 0.0000000000 0.0818509981 1.0000000000
0.0030960001 0.0000000000 0.0818480030 1.0000000000
0.0030840000 0.0000000000 0.0818499997 1.0000000000
0.0030720001 0.0000000000 0.0818559974 1.0000000000
0.0030600000 0.0000000000 0.0818630010 1.0000000000
0.0030469999 0.0000000000 0.0818609968 1.0000000000
0.0030360001 0.0000000000 0.0818580016 1.0000000000
0.0030240000 0.0000000000 0.0818630010 1.0000000000
0.0030119999 0.0000000000 0.0818660036 1.0000000000
0.0030000000 0.0000000000 0.0818559974 1.0000000000
0.0029869999 0.0000000000 0.0818450004 1.0000000000
0.0029750001 0.0000000000 0.0818469971 1.0000000000
0.0029630000 0.0000000000 0.0818490013 1.0000000000
0.0029509999 0.0000000000 0.0818480030 1.0000000000
0.0029390000 0.0000000000 0.0818530023 1.0000000000
0.0029269999 0.0000000000 0.0818580016 1.0000000000
0.0029150001 0.0000000000 0.0818590000 1.0000000000
0.0029030000 0.0000000000 0.0818570033 1.0000000000
0.0028909999 0.0000000000 0.0818559974 1.0000000000
0.0028790000 0.0000000000 0.0818559974 1.0000000000
0.0028669999 0.0000000000 0.0818540007 1.0000000000
0.0028530001 0.0000000000 0.0818509981 1.0000000000
0.0028420000 0.0000000000 0.0818499997 1.0000000000
0.0028289999 0.0000000000 0.0818519965 1.0000000000
0.0028180000 0.0000000000 0.0818570033 1.0000000000
0.0028049999 0.0000000000 0.0818599984 1.0000000000
0.0027940001 0.0000000000 0.0818580016 1.0000000000
0.0027810000 0.0000000000 0.0818499997 1.0000000000
0.0027699999 0.0000000000 0.0818490013 1.0000000000
0.0027570000 0.0000000000 0.0818530023 1.0000000000
0.0027460000 0.0000000000 0.0818549991 1.0000000000
0.0027330001 0.0000000000 0.0818480030 1.0000000000
0.0027210000 0.0000000000 0.0818450004 1.0000000000
0.0027089999 0.0000000000 0.0818480030 1.0000000000
0.0026980001 0.0000000000 0.0818540007 1.0000000000
0.0026860000 0.0000000000 0.0818639994 1.0000000000
0.0026740001 0.0000000000 0.0818729997 1.0000000000
0.0026620000 0.0000000000 0.0818729997 1.0000000000
0.0026499999 0.0000000000 0.0818710029 1.0000000000
0.0026370001 0.0000000000 0.0818699971 1.0000000000
0.0026260000 0.0000000000 0.0818710029 1.0000000000
0.0026140001 0.0000000000 0.0818729997 1.0000000000
0.0026020000 0.0000000000 0.0818820000 1.0000000000
0.0025899999 0.0000000000 0.0818990022 1.0000000000
0.0025790001 0.0000000000 0.0819320008 1.0000000000
0.0025670000 0.0000000000 0.0819310024 1.0000000000
0.0025549999 0.0000000000 0.0819299966 1.0000000000
0.0025420000 0.0000000000 0.0819379985 1.0000000000
0.0025309999 0.0000000000 0.0819600001 1.0000000000
0.0025190001 0.0000000000 0.0819810033 1.0000000000
0.0025070000 0.0000000000 0.0819590017 1.0000000000
0.0024949999 0.0000000000 0.0819670036 1.0000000000
-0.0024359999 0.0000000000 0.0822279975 1.0000000000
-0.0024480000 0.0000000000 0.0822189972 1.0000000000
-0.0024600001 0.0000000000 0.0822039992 1.0000000000
-0.0024730000 0.0000000000 0.0821909979 1.0000000000
-0.0024840001 0.0000000000 0.0821750015 1.0000000000
-0.0024949999 0.0000000000 0.0821589977 1.0000000000
-0.0025070000 0.0000000000 0.0821470022 1.0000000000
-0.0025200001 0.0000000000 0.0821390003 1.0000000000
-0.0025309999 0.0000000000 0.0821259990 1.0000000000
-0.0025440000 0.0000000000 0.0821110010 1.0000000000
-0.0025549999 0.0000000000 0.0821079984 1.0000000000
-0.0025680000 0.0000000000 0.0821010023 1.0000000000
-0.0025780001 0.0000000000 0.0820910037 1.0000000000
-0.0025899999 0.0000000000 0.0820799991 1.0000000000
-0.0026020000 0.0000000000 0.0820719972 1.0000000000
-0.0026140001 0.0000000000 0.0820650011 1.0000000000
-0.0026260000 0.0000000000 0.0820550025 1.0000000000
-0.0026380001 0.0000000000 0.0820380002 1.0000000000
-0.0026489999 0.0000000000 0.0820240006 1.0000000000
-0.0026610000 0.0000000000 0.0820109993 1.0000000000
-0.0026730001 0.0000000000 0.0819920003 1.0000000000
-0.0026839999 0.0000000000 0.0819780007 1.0000000000
-0.0026960000 0.0000000000 0.0819699988 1.0000000000
-0.0027079999 0.0000000000 0.0819699988 1.0000000000
-0.0027210000 0.0000000000 0.0819739997 1.0000000000
-0.0027340001 0.0000000000 0.0819730014 1.0000000000
-0.0027449999 0.0000000000 0.0819699988 1.0000000000
-0.0027580000 0.0000000000 0.0819659978 1.0000000000
-0.0027689999 0.0000000000 0.0819649994 1.0000000000
-0.0027810000 0.0000000000 0.0819600001 1.0000000000
-0.0027930001 0.0000000000 0.0819559991 1.0000000000
-0.0028049999 0.0000000000 0.0819600001 1.0000000000
-0.0028170000 0.0000000000 0.0819590017 1.0000000000
-0.0028289999 0.0000000000 0.0819609985 1.0000000000
-0.0028410000 0.0000000000 0.0819659978 1.0000000000
-0.0028530001 0.0000000000 0.0819609985 1.0000000000
-0.0028649999 0.0000000000 0.0819569975 1.0000000000
-0.0028780000 0.0000000000 0.0819619969 1.0000000000
-0.0028899999 0.0000000000 0.0819630027 1.0000000000
-0.0029030000 0.0000000000 0.0819640011 1.0000000000
-0.0029140001 0.0000000000 0.0819659978 1.0000000000
-0.0029259999 0.0000000000 0.0819630027 1.0000000000
-0.0029380000 0.0000000000 0.0819609985 1.0000000000
-0.0029500001 0.0000000000 0.0819619969 1.0000000000
-0.0029620000 0.0000000000 0.0819619969 1.0000000000
-0.0029740001 0.0000000000 0.0819619969 1.0000000000
-0.0029859999 0.0000000000 0.0819619969 1.0000000000
-0.0029980000 0.0000000000 0.0819619969 1.0000000000
-0.0030110001 0.0000000000 0.0819630027 1.0000000000
-0.0030240000 0.0000000000 0.0819659978 1.0000000000
-0.0030350001 0.0000000000 0.0819640011 1.0000000000
-0.0030479999 0.0000000000 0.0819580033 1.0000000000
-0.0030590000 0.0000000000 0.0819619969 1.0000000000
-0.0030710001 0.0000000000 0.0819609985 1.0000000000
-0.0030830000 0.0000000000 0.0819590017 1.0000000000
-0.0030950001 0.0000000000 0.0819619969 1.0000000000
-0.0031069999 0.0000000000 0.0819640011 1.0000000000
-0.0031200000 0.0000000000 0.0819640011 1.0000000000
-0.0031320001 0.0000000000 0.0819690004 1.0000000000
-0.0031450000 0.0000000000 0.0819720030 1.0000000000
-0.0031560000 0.0000000000 0.0819730014 1.0000000000
-0.0031679999 0.0000000000 0.0819709972 1.0000000000
-0.0031800000 0.0000000000 0.0819659978 1.0000000000
-0.0031920001 0.0000000000 0.0819609985 1.0000000000
-0.0032039999 0.0000000000 0.0819569975 1.0000000000
-0.0032170000 0.0000000000 0.0819559991 1.0000000000
-0.0032279999 0.0000000000 0.0819580033 1.0000000000
-0.0032410000 0.0000000000 0.0819500014 1.0000000000
-0.0032520001 0.0000000000 0.0819460005 1.0000000000
-0.0032639999 0.0000000000 0.0819509998 1.0000000000
-0.0032760000 0.0000000000 0.0819529966 1.0000000000
-0.0032879999 0.0000000000 0.0819460005 1.0000000000
-0.0033000000 0.0000000000 0.0819429979 1.0000000000
-0.0033120001 0.0000000000 0.0819440037 1.0000000000
-0.0033239999 0.0000000000 0.0819419995 1.0000000000
-0.0033370000 0.0000000000 0.0819379985 1.0000000000
-0.0033480001 0.0000000000 0.0819370002 1.0000000000
-0.0033610000 0.0000000000 0.0819389969 1.0000000000
-0.0033720001 0.0000000000 0.0819460005 1.0000000000
-0.0033849999 0.0000000000 0.0819500014 1.0000000000
-0.0033970000 0.0000000000 0.0819490030 1.0000000000
-0.0034090001 0.0000000000 0.0819450021 1.0000000000
-0.0034210000 0.0000000000 0.0819469988 1.0000000000
-0.0034330001 0.0000000000 0.0819540024 1.0000000000
-0.0034449999 0.0000000000 0.0819500014 1.0000000000
-0.0034580000 0.0000000000 0.0819469988 1.0000000000
-0.0034690001 0.0000000000 0.0819500014 1.0000000000
-0.0034820000 0.0000000000 0.0819500014 1.0000000000
-0.0034930001 0.0000000000 0.0819479972 1.0000000000
-0.0035059999 0.0000000000 0.0819410011 1.0000000000
-0.0035170000 0.0000000000 0.0819410011 1.0000000000
-0.0035300001 0.0000000000 0.0819389969 1.0000000000
-0.0035410000 0.0000000000 0.0819379985 1.0000000000
-0.0035540001 0.0000000000 0.0819379985 1.0000000000
-0.0035659999 0.0000000000 0.0819469988 1.0000000000
-0.0035790000 0.0000000000 0.0819490030 1.0000000000
-0.0035900001 0.0000000000 0.0819440037 1.0000000000
-0.0036009999 0.0000000000 0.0819379985 1.0000000000
-0.0036140000 0.0000000000 0.0819389969 1.0000000000
-0.0036269999 0.0000000000 0.0819389969 1.0000000000
-0.0036380000 0.0000000000 0.0819389969 1.0000000000
-0.0036500001 0.0000000000 0.0819450021 1.0000000000
-0.0036619999 0.0000000000 0.0819509998 1.0000000000
-0.0036750000 0.0000000000 0.0819490030 1.0000000000
-0.0036859999 0.0000000000 0.0819479972 1.0000000000
-0.0036980000 0.0000000000 0.0819469988 1.0000000000
-0.0037100001 0.0000000000 0.0819450021 1.0000000000
-0.0037219999 0.0000000000 0.0819460005 1.0000000000
-0.0037350000 0.0000000000 0.0819500014 1.0000000000
-0.0037469999 0.0000000000 0.0819550008 1.0000000000
-0.0037590000 0.0000000000 0.0819559991 1.0000000000
-0.0037710001 0.0000000000 0.0819540024 1.0000000000
-0.0037829999 0.0000000000 0.0819540024 1.0000000000
-0.0037960000 0.0000000000 0.0819509998 1.0000000000
-0.0038069999 0.0000000000 0.0819509998 1.0000000000
-0.0038190000 0.0000000000 0.0819550008 1.0000000000
-0.0038310001 0.0000000000 0.0819559991 1.0000000000
-0.0038429999 0.0000000000 0.0819540024 1.0000000000
-0.0038550000 0.0000000000 0.0819519982 1.0000000000
-0.0038680001 0.0000000000 0.0819500014 1.0000000000
-0.0038790000 0.0000000000 0.0819500014 1.0000000000
-0.0038920001 0.0000000000 0.0819519982 1.0000000000
-0.0039039999 0.0000000000 0.0819519982 1.0000000000
-0.0039160000 0.0000000000 0.0819490030 1.0000000000
-0.0039280001 0.0000000000 0.0819490030 1.0000000000
-0.0039400002 0.0000000000 0.0819479972 1.0000000000
-0.0039519998 0.0000000000 0.0819460005 1.0000000000
-0.0039639999 0.0000000000 0.0819460005 1.0000000000
-0.0039760000 0.0000000000 0.0819479972 1.0000000000
-0.0039889999 0.0000000000 0.0819469988 1.0000000000
-0.0040000002 0.0000000000 0.0819529966 1.0000000000
-0.0040119998 0.0000000000 0.0819550008 1.0000000000
-0.0040239999 0.0000000000 0.0819509998 1.0000000000
-0.0040369998 0.0000000000 0.0819519982 1.0000000000
-0.0040480001 0.0000000000 0.0819519982 1.0000000000
-0.0040610000 0.0000000000 0.0819479972 1.0000000000
-0.0040730000 0.0000000000 0.0819519982 1.0000000000
-0.0040850001 0.0000000000 0.0819550008 1.0000000000
-0.0040970002 0.0000000000 0.0819550008 1.0000000000
-0.0041100001 0.0000000000 0.0819569975 1.0000000000
-0.0041209999 0.0000000000 0.0819619969 1.0000000000
-0.0041339998 0.0000000000 0.0819590017 1.0000000000
-0.0041450001 0.0000000000 0.0819559991 1.0000000000
-0.0041570002 0.0000000000 0.0819540024 1.0000000000
-0.0041689998 0.0000000000 0.0819529966 1.0000000000
-0.0041809999 0.0000000000 0.0819529966 1.0000000000
-0.0041930000 0.0000000000 0.0819569975 1.0000000000
-0.0042070001 0.0000000000 0.0819580033 1.0000000000
-0.0042180000 0.0000000000 0.0819580033 1.0000000000
-0.0042300001 0.0000000000 0.0819559991 1.0000000000
-0.0042420002 0.0000000000 0.0819550008 1.0000000000
-0.0042539998 0.0000000000 0.0819540024 1.0000000000
-0.0042659999 0.0000000000 0.0819550008 1.0000000000
-0.0042780000 0.0000000000 0.0819569975 1.0000000000
-0.0042900001 0.0000000000 0.0819509998 1.0000000000
-0.0043029999 0.0000000000 0.0819500014 1.0000000000
-0.0043139998 0.0000000000 0.0819550008 1.0000000000
-0.0043270001 0.0000000000 0.0819509998 1.0000000000
-0.0043380000 0.0000000000 0.0819479972 1.0000000000
-0.0043500001 0.0000000000 0.0819479972 1.0000000000
-0.0043620002 0.0000000000 0.0819500014 1.0000000000
-0.0043739998 0.0000000000 0.0819540024 1.0000000000
-0.0043870001 0.0000000000 0.0819550008 1.0000000000
-0.0043990002 0.0000000000 0.0819550008 1.0000000000
-0.0044109998 0.0000000000 0.0819590017 1.0000000000
-0.0044229999 0.0000000000 0.0819630027 1.0000000000
-0.0044350000 0.0000000000 0.0819670036 1.0000000000
-0.0044479999 0.0000000000 0.0819659978 1.0000000000
-0.0044590002 0.0000000000 0.0819630027 1.0000000000
-0.0044709998 0.0000000000 0.0819640011 1.0000000000
-0.0044829999 0.0000000000 0.0819609985 1.0000000000
-0.0044959998 0.0000000000 0.0819509998 1.0000000000
-0.0045070001 0.0000000000 0.0819490030 1.0000000000
-0.0045200000 0.0000000000 0.0819509998 1.0000000000
-0.0045309998 0.0000000000 0.0819550008 1.0000000000
-0.0045429999 0.0000000000 0.0819540024 1.0000000000
-0.0045550000 0.0000000000 0.0819540024 1.0000000000
-0.0045679999 0.0000000000 0.0819529966 1.0000000000
-0.0045790002 0.0000000000 0.0819509998 1.0000000000
-0.0045920000 0.0000000000 0.0819550008 1.0000000000
-0.0046040001 0.0000000000 0.0819630027 1.0000000000
-0.0046160002 0.0000000000 0.0819659978 1.0000000000
-0.0046279998 0.0000000000 0.0819659978 1.0000000000
-0.0046410002 0.0000000000 0.0819670036 1.0000000000
-0.0046529998 0.0000000000 0.0819670036 1.0000000000
-0.0046660001 0.0000000000 0.0819699988 1.0000000000
-0.0046770000 0.0000000000 0.0819720030 1.0000000000
-0.0046890001 0.0000000000 0.0819649994 1.0000000000
-0.0046999999 0.0000000000 0.0819590017 1.0000000000
-0.0047129998 0.0000000000 0.0819600001 1.0000000000
-0.0047249999 0.0000000000 0.0819619969 1.0000000000
-0.0047370000 0.0000000000 0.0819580033 1.0000000000
-0.0047490001 0.0000000000 0.0819580033 1.0000000000
-0.0047610002 0.0000000000 0.0819590017 1.0000000000
-0.0047729998 0.0000000000 0.0819559991 1.0000000000
-0.0047849999 0.0000000000 0.0819519982 1.0000000000
-0.0047970000 0.0000000000 0.0819540024 1.0000000000
-0.0048090001 0.0000000000 0.0819529966 1.0000000000
-0.0048210002 0.0000000000 0.0819519982 1.0000000000
-0.0048340000 0.0000000000 0.0819540024 1.0000000000
-0.0048449999 0.0000000000 0.0819590017 1.0000000000
-0.0048580002 0.0000000000 0.0819630027 1.0000000000
-0.0048690001 0.0000000000 0.0819630027 1.0000000000
-0.0048819999 0.0000000000 0.0819590017 1.0000000000
-0.0048929998 0.0000000000 0.0819600001 1.0000000000
-0.0049049999 0.0000000000 0.0819590017 1.0000000000
-0.0049170000 0.0000000000 0.0819630027 1.0000000000
-0.0049299998 0.0000000000 0.0819670036 1.0000000000
-0.0049410001 0.0000000000 0.0819619969 1.0000000000
-0.0049530002 0.0000000000 0.0819569975 1.0000000000
-0.0049660001 0.0000000000 0.0819670036 1.0000000000
-0.0049780002 0.0000000000 0.0819730014 1.0000000000
-0.0049899998 0.0000000000 0.0819680020 1.0000000000
-0.0050019999 0.0000000000 0.0819659978 1.0000000000
-0.0050140000 0.0000000000 0.0819680020 1.0000000000
-0.0050260001 0.0000000000 0.0819659978 1.0000000000
-0.0050380002 0.0000000000 0.0819649994 1.0000000000
-0.0050510000 0.0000000000 0.0819699988 1.0000000000
-0.0050619999 0.0000000000 0.0819739997 1.0000000000
-0.0050750002 0.0000000000 0.0819690004 1.0000000000
-0.0050860001 0.0000000000 0.0819680020 1.0000000000
-0.0050989999 0.0000000000 0.0819709972 1.0000000000
-0.0051110000 0.0000000000 0.0819780007 1.0000000000
-0.0051230001 0.0000000000 0.0819759965 1.0000000000
-0.0051340000 0.0000000000 0.0819670036 1.0000000000
-0.0051460001 0.0000000000 0.0819680020 1.0000000000
-0.0051589999 0.0000000000 0.0819749981 1.0000000000
-0.0051719998 0.0000000000 0.0819799975 1.0000000000
-0.0051830001 0.0000000000 0.0819839984 1.0000000000
-0.0051960000 0.0000000000 0.0819799975 1.0000000000
-0.0052069998 0.0000000000 0.0819810033 1.0000000000
-0.0052189999 0.0000000000 0.0819820017 1.0000000000
-0.0052310000 0.0000000000 0.0819780007 1.0000000000
-0.0052430001 0.0000000000 0.0819770023 1.0000000000
-0.0052550002 0.0000000000 0.0819789991 1.0000000000
-0.0052669998 0.0000000000 0.0819759965 1.0000000000
-0.0052789999 0.0000000000 0.0819709972 1.0000000000
-0.0052919998 0.0000000000 0.0819789991 1.0000000000
-0.0053039999 0.0000000000 0.0819810033 1.0000000000
-0.0053160000 0.0000000000 0.0819720030 1.0000000000
-0.0053269998 0.0000000000 0.0819699988 1.0000000000
-0.0053389999 0.0000000000 0.0819749981 1.0000000000
-0.0053510000 0.0000000000 0.0819749981 1.0000000000
-0.0053639999 0.0000000000 0.0819720030 1.0000000000
-0.0053750002 0.0000000000 0.0819730014 1.0000000000
-0.0053880000 0.0000000000 0.0819749981 1.0000000000
-0.0054000001 0.0000000000 0.0819810033 1.0000000000
-0.0054130000 0.0000000000 0.0819860026 1.0000000000
-0.0054239999 0.0000000000 0.0819860026 1.0000000000
-0.0054370002 0.0000000000 0.0819799975 1.0000000000
-0.0054480000 0.0000000000 0.0819789991 1.0000000000
-0.0054600001 0.0000000000 0.0819770023 1.0000000000
-0.0054720002 0.0000000000 0.0819780007 1.0000000000
-0.0054839998 0.0000000000 0.0819830000 1.0000000000
-0.0054959999 0.0000000000 0.0819830000 1.0000000000
-0.0055089998 0.0000000000 0.0819789991 1.0000000000
-0.0055200001 0.0000000000 0.0819799975 1.0000000000
-0.0055330000 0.0000000000 0.0819780007 1.0000000000
-0.0055439998 0.0000000000 0.0819780007 1.0000000000
-0.0055570002 0.0000000000 0.0819770023 1.0000000000
-0.0055680000 0.0000000000 0.0819780007 1.0000000000
-0.0055809999 0.0000000000 0.0819789991 1.0000000000
-0.0055930000 0.0000000000 0.0819839984 1.0000000000
-0.0056050001 0.0000000000 0.0819849968 1.0000000000
-0.0056170002 0.0000000000 0.0819820017 1.0000000000
-0.0056300000 0.0000000000 0.0819799975 1.0000000000
-0.0056409999 0.0000000000 0.0819780007 1.0000000000
-0.0056530000 0.0000000000 0.0819709972 1.0000000000
-0.0056639998 0.0000000000 0.0819730014 1.0000000000
-0.0056770002 0.0000000000 0.0819770023 1.0000000000
-0.0056889998 0.0000000000 0.0819810033 1.0000000000
-0.0057009999 0.0000000000 0.0819770023 1.0000000000
-0.0057120002 0.0000000000 0.0819670036 1.0000000000
-0.0057239998 0.0000000000 0.0819690004 1.0000000000
-0.0057370001 0.0000000000 0.0819759965 1.0000000000
-0.0057489998 0.0000000000 0.0819770023 1.0000000000
-0.0057609999 0.0000000000 0.0819780007 1.0000000000
-0.0057730000 0.0000000000 0.0819849968 1.0000000000
-0.0057859998 0.0000000000 0.0819910020 1.0000000000
-0.0057979999 0.0000000000 0.0819870010 1.0000000000
-0.0058090002 0.0000000000 0.0819830000 1.0000000000
-0.0058209999 0.0000000000 0.0819839984 1.0000000000
-0.0058329999 0.0000000000 0.0819830000 1.0000000000
-0.0058459998 0.0000000000 0.0819820017 1.0000000000
-0.0058579999 0.0000000000 0.0819839984 1.0000000000
-0.0058709998 0.0000000000 0.0819900036 1.0000000000
-0.0058829999 0.0000000000 0.0819969997 1.0000000000
-0.0058940002 0.0000000000 0.0819939971 1.0000000000
-0.0059059998 0.0000000000 0.0819830000 1.0000000000
-0.0059170001 0.0000000000 0.0819759965 1.0000000000
-0.0059290002 0.0000000000 0.0819770023 1.0000000000
-0.0059409998 0.0000000000 0.0819759965 1.0000000000
-0.0059540002 0.0000000000 0.0819780007 1.0000000000
-0.0059659998 0.0000000000 0.0819849968 1.0000000000
-0.0059779999 0.0000000000 0.0819879994 1.0000000000
-0.0059910002 0.0000000000 0.0819810033 1.0000000000
-0.0060009998 0.0000000000 0.0819720030 1.0000000000
-0.0060129999 0.0000000000 0.0819699988 1.0000000000
-0.0060259998 0.0000000000 0.0819770023 1.0000000000
-0.0060390001 0.0000000000 0.0819820017 1.0000000000
-0.0060500000 0.0000000000 0.0819820017 1.0000000000
-0.0060620001 0.0000000000 0.0819799975 1.0000000000
-0.0060740001 0.0000000000 0.0819799975 1.0000000000
-0.0060859998 0.0000000000 0.0819799975 1.0000000000
-0.0060979999 0.0000000000 0.0819780007 1.0000000000
-0.0061110002 0.0000000000 0.0819739997 1.0000000000
-0.0061220000 0.0000000000 0.0819759965 1.0000000000
-0.0061340001 0.0000000000 0.0819789991 1.0000000000
-0.0061460002 0.0000000000 0.0819739997 1.0000000000
-0.0061590001 0.0000000000 0.0819739997 1.0000000000
-0.0061699999 0.0000000000 0.0819780007 1.0000000000
-0.0061820000 0.0000000000 0.0819759965 1.0000000000
-0.0061940001 0.0000000000 0.0819770023 1.0000000000
-0.0062079998 0.0000000000 0.0819839984 1.0000000000
-0.0062190001 0.0000000000 0.0819910020 1.0000000000
-0.0062320000 0.0000000000 0.0819960013 1.0000000000
-0.0062440000 0.0000000000 0.0819969997 1.0000000000
-0.0062560001 0.0000000000 0.0819910020 1.0000000000
-0.0062670000 0.0000000000 0.0819870010 1.0000000000
-0.0062799999 0.0000000000 0.0819830000 1.0000000000
-0.0062910002 0.0000000000 0.0819860026 1.0000000000
-0.0063040000 0.0000000000 0.0819900036 1.0000000000
-0.0063160001 0.0000000000 0.0819929987 1.0000000000
-0.0063280002 0.0000000000 0.0819900036 1.0000000000
-0.0063390001 0.0000000000 0.0819870010 1.0000000000
-0.0063519999 0.0000000000 0.0819979981 1.0000000000
-0.0063649998 0.0000000000 0.0820209980 1.0000000000
-0.0063780001 0.0000000000 0.0820320025 1.0000000000
-0.0063910000 0.0000000000 0.0820429996 1.0000000000
-0.0064039999 0.0000000000 0.0820579976 1.0000000000
-0.0064170002 0.0000000000 0.0820730031 1.0000000000
-0.0064309998 0.0000000000 0.0820870027 1.0000000000
-0.0064429999 0.0000000000 0.0820989981 1.0000000000
-0.0064559998 0.0000000000 0.0821039975 1.0000000000
-0.0064679999 0.0000000000 0.0821150020 1.0000000000
-0.0064800000 0.0000000000 0.0821179971 1.0000000000
-0.0064929998 0.0000000000 0.0821300000 1.0000000000
-0.0065080002 0.0000000000 0.0821650028 1.0000000000
-0.0065199998 0.0000000000 0.0821740031 1.0000000000
-0.0065330002 0.0000000000 0.0821750015 1.0000000000
-0.0065449998 0.0000000000 0.0821949989 1.0000000000
-0.0065589999 0.0000000000 0.0822120011 1.0000000000
-0.0065710000 0.0000000000 0.0822200030 1.0000000000
-0.0065839998 0.0000000000 0.0822239965 1.0000000000
-0.0065959999 0.0000000000 0.0822340026 1.0000000000
-0.0066100000 0.0000000000 0.0822490007 1.0000000000
-0.0066220001 0.0000000000 0.0822509974 1.0000000000
-0.0066350000 0.0000000000 0.0822620019 1.0000000000
-0.0066479999 0.0000000000 0.0822890028 1.0000000000
-0.0066620000 0.0000000000 0.0822950006 1.0000000000
-0.0066729998 0.0000000000 0.0822959989 1.0000000000
-0.0066869999 0.0000000000 0.0823090002 1.0000000000
-0.0066990000 0.0000000000 0.0823329985 1.0000000000
-0.0067119999 0.0000000000 0.0823410004 1.0000000000
-0.0067250002 0.0000000000 0.0823500007 1.0000000000
-0.0067380001 0.0000000000 0.0823670030 1.0000000000
-0.0067509999 0.0000000000 0.0823870003 1.0000000000
-0.0067650001 0.0000000000 0.0823919997 1.0000000000
-0.0067759999 0.0000000000 0.0823960006 1.0000000000
-0.0067900000 0.0000000000 0.0824069977 1.0000000000
-0.0068029999 0.0000000000 0.0824289992 1.0000000000
-0.0068160002 0.0000000000 0.0824479982 1.0000000000
-0.0068290001 0.0000000000 0.0824569985 1.0000000000
-0.0068419999 0.0000000000 0.0824600011 1.0000000000
-0.0068540000 0.0000000000 0.0824730024 1.0000000000
-0.0068680001 0.0000000000 0.0824929997 1.0000000000
-0.0068810000 0.0000000000 0.0825069994 1.0000000000
-0.0068939999 0.0000000000 0.0825100020 1.0000000000
-0.0069060000 0.0000000000 0.0825219974 1.0000000000
-0.0069189998 0.0000000000 0.0825320035 1.0000000000
-0.0069320002 0.0000000000 0.0825499967 1.0000000000
-0.0069450000 0.0000000000 0.0825690031 1.0000000000
-0.0069579999 0.0000000000 0.0825790018 1.0000000000
-0.0069720000 0.0000000000 0.0825840011 1.0000000000
-0.0069840001 0.0000000000 0.0825980008 1.0000000000
-0.0069980002 0.0000000000 0.0826100037 1.0000000000
-0.0070090001 0.0000000000 0.0826139972 1.0000000000
-0.0070230002 0.0000000000 0.0826269984 1.0000000000
-0.0070360000 0.0000000000 0.0826470032 1.0000000000
-0.0070489999 0.0000000000 0.0826649964 1.0000000000
-0.0070630000 0.0000000000 0.0826819986 1.0000000000
-0.0070759999 0.0000000000 0.0826940015 1.0000000000
-0.0070890002 0.0000000000 0.0827080011 1.0000000000
-0.0071020001 0.0000000000 0.0827189982 1.0000000000
-0.0071140002 0.0000000000 0.0827189982 1.0000000000
-0.0071259998 0.0000000000 0.0827270001 1.0000000000
-0.0071399999 0.0000000000 0.0827480033 1.0000000000
-0.0071540000 0.0000000000 0.0827599987 1.0000000000
-0.0071660001 0.0000000000 0.0827689990 1.0000000000
-0.0071789999 0.0000000000 0.0827770010 1.0000000000
-0.0071919998 0.0000000000 0.0827910006 1.0000000000
-0.0072050001 0.0000000000 0.0828069970 1.0000000000
-0.0072180000 0.0000000000 0.0828189999 1.0000000000
-0.0072309999 0.0000000000 0.0828270018 1.0000000000
-0.0072440002 0.0000000000 0.0828349963 1.0000000000
-0.0072570001 0.0000000000 0.0828469992 1.0000000000
-0.0072699999 0.0000000000 0.0828580037 1.0000000000
-0.0072829998 0.0000000000 0.0828659981 1.0000000000
-0.0072949999 0.0000000000 0.0828699991 1.0000000000
-0.0073090000 0.0000000000 0.0829040036 1.0000000000
-0.0073230001 0.0000000000 0.0829230025 1.0000000000
-0.0073370002 0.0000000000 0.0829320028 1.0000000000
-0.0073489998 0.0000000000 0.0829439983 1.0000000000
-0.0073620002 0.0000000000 0.0829579979 1.0000000000
-0.0073750000 0.0000000000 0.0829640031 1.0000000000
-0.0073879999 0.0000000000 0.0829690024 1.0000000000
-0.0074000000 0.0000000000 0.0829840004 1.0000000000
-0.0074140001 0.0000000000 0.0829939991 1.0000000000
-0.0074260002 0.0000000000 0.0830029994 1.0000000000
-0.0074399998 0.0000000000 0.0830119997 1.0000000000
-0.0074530002 0.0000000000 0.0830340013 1.0000000000
-0.0074669998 0.0000000000 0.0830470026 1.0000000000
-0.0074789999 0.0000000000 0.0830530003 1.0000000000
-0.0074919998 0.0000000000 0.0830639973 1.0000000000
-0.0075050001 0.0000000000 0.0830850005 1.0000000000
-0.0075190002 0.0000000000 0.0830990002 1.0000000000
-0.0075309998 0.0000000000 0.0830999985 1.0000000000
-0.0075440002 0.0000000000 0.0831020027 1.0000000000
-0.0075559998 0.0000000000 0.0831110030 1.0000000000
-0.0097430004 0.0000000000 0.0834240019 1.0000000000
-0.0097549995 0.0000000000 0.0834169984 1.0000000000
-0.0097660003 0.0000000000 0.0834169984 1.0000000000
-0.0098609999 0.0000000000 0.0831549987 1.0000000000
-0.0098719997 0.0000000000 0.0831490010 1.0000000000
-0.0098839998 0.0000000000 0.0831430033 1.0000000000
-0.0098959999 0.0000000000 0.0831359997 1.0000000000
-0.0099069998 0.0000000000 0.0831319988 1.0000000000
-0.0099179996 0.0000000000 0.0831170008 1.0000000000
-0.0099280002 0.0000000000 0.0831030011 1.0000000000
-0.0099400003 0.0000000000 0.0830899999 1.0000000000
-0.0099499999 0.0000000000 0.0830809996 1.0000000000
-0.0099609997 0.0000000000 0.0830669999 1.0000000000
-0.0099710003 0.0000000000 0.0830539986 1.0000000000
-0.0099830003 0.0000000000 0.0830480009 1.0000000000
-0.0099940002 0.0000000000 0.0830440000 1.0000000000
-0.0100060003 0.0000000000 0.0830319971 1.0000000000
-0.0100170001 0.0000000000 0.0830269977 1.0000000000
-0.0100280000 0.0000000000 0.0830190033 1.0000000000
-0.0100379996 0.0000000000 0.0830039978 1.0000000000
-0.0100499997 0.0000000000 0.0829939991 1.0000000000
-0.0100609995 0.0000000000 0.0829930007 1.0000000000
-0.0100729996 0.0000000000 0.0829849988 1.0000000000
-0.0100830002 0.0000000000 0.0829730034 1.0000000000
-0.0100950003 0.0000000000 0.0829610005 1.0000000000
-0.0101049999 0.0000000000 0.0829500034 1.0000000000
-0.0101159997 0.0000000000 0.0829410031 1.0000000000
-0.0101269996 0.0000000000 0.0829330012 1.0000000000
-0.0101389997 0.0000000000 0.0829299986 1.0000000000
-0.0101500005 0.0000000000 0.0829230025 1.0000000000
-0.0101610003 0.0000000000 0.0829129964 1.0000000000
-0.0101720002 0.0000000000 0.0829019994 1.0000000000
-0.0101840002 0.0000000000 0.0828899965 1.0000000000
-0.0101939999 0.0000000000 0.0828830004 1.0000000000
-0.0102059999 0.0000000000 0.0828770027 1.0000000000
-0.0102169998 0.0000000000 0.0828690007 1.0000000000
-0.0102279996 0.0000000000 0.0828609988 1.0000000000
-0.0102390004 0.0000000000 0.0828490034 1.0000000000
-0.0102490000 0.0000000000 0.0828349963 1.0000000000
-0.0102610001 0.0000000000 0.0828260034 1.0000000000
-0.0102720000 0.0000000000 0.0828170031 1.0000000000
-0.0102819996 0.0000000000 0.0828050002 1.0000000000
-0.0102939997 0.0000000000 0.0827950016 1.0000000000
-0.0103049995 0.0000000000 0.0827919990 1.0000000000
-0.0103160003 0.0000000000 0.0827829987 1.0000000000
-0.0103270002 0.0000000000 0.0827720016 1.0000000000
-0.0103390003 0.0000000000 0.0827609971 1.0000000000
-0.0103489999 0.0000000000 0.0827519968 1.0000000000
-0.0103590004 0.0000000000 0.0827379972 1.0000000000
-0.0103700003 0.0000000000 0.0827289969 1.0000000000
-0.0103820004 0.0000000000 0.0827210024 1.0000000000
-0.0103920000 0.0000000000 0.0827070028 1.0000000000
-0.0104029998 0.0000000000 0.0826919973 1.0000000000
-0.0104139997 0.0000000000 0.0826900005 1.0000000000
-0.0104259998 0.0000000000 0.0826840028 1.0000000000
-0.0104360003 0.0000000000 0.0826700032 1.0000000000
-0.0104470002 0.0000000000 0.0826539993 1.0000000000
-0.0104569998 0.0000000000 0.0826430023 1.0000000000
-0.0104689999 0.0000000000 0.0826319978 1.0000000000
-0.0104799997 0.0000000000 0.0826290026 1.0000000000
-0.0104919998 0.0000000000 0.0826200023 1.0000000000
-0.0105020003 0.0000000000 0.0826150030 1.0000000000
-0.0105140004 0.0000000000 0.0826110020 1.0000000000
-0.0105250003 0.0000000000 0.0826030001 1.0000000000
-0.0105349999 0.0000000000 0.0825899988 1.0000000000
-0.0105459997 0.0000000000 0.0825800002 1.0000000000
-0.0105579998 0.0000000000 0.0825740024 1.0000000000
-0.0105689997 0.0000000000 0.0825639963 1.0000000000
-0.0105799995 0.0000000000 0.0825499967 1.0000000000
-0.0105900001 0.0000000000 0.0825430006 1.0000000000
-0.0106030004 0.0000000000 0.0825439990 1.0000000000
-0.0106140003 0.0000000000 0.0825389996 1.0000000000
-0.0106239999 0.0000000000 0.0825240016 1.0000000000
-0.0106340004 0.0000000000 0.0825090036 1.0000000000
-0.0106450003 0.0000000000 0.0824960023 1.0000000000
-0.0106560001 0.0000000000 0.0824839994 1.0000000000
-0.0106659997 0.0000000000 0.0824719965 1.0000000000
-0.0106769996 0.0000000000 0.0824630037 1.0000000000
-0.0106889997 0.0000000000 0.0824579969 1.0000000000
-0.0107000005 0.0000000000 0.0824489966 1.0000000000
-0.0107100001 0.0000000000 0.0824349970 1.0000000000
-0.0107209999 0.0000000000 0.0824220031 1.0000000000
-0.0107310005 0.0000000000 0.0824090019 1.0000000000
-0.0107420003 0.0000000000 0.0824010000 1.0000000000
-0.0107540004 0.0000000000 0.0824029967 1.0000000000
-0.0107659996 0.0000000000 0.0824029967 1.0000000000
-0.0107779996 0.0000000000 0.0823939964 1.0000000000
-0.0107890004 0.0000000000 0.0823900029 1.0000000000
-0.0108000003 0.0000000000 0.0823810026 1.0000000000
-0.0108099999 0.0000000000 0.0823709965 1.0000000000
-0.0108220000 0.0000000000 0.0823599994 1.0000000000
-0.0108310003 0.0000000000 0.0823429972 1.0000000000
-0.0108420001 0.0000000000 0.0823270008 1.0000000000
-0.0108530000 0.0000000000 0.0823249966 1.0000000000
-0.0108650001 0.0000000000 0.0823170021 1.0000000000
-0.0108749997 0.0000000000 0.0823099986 1.0000000000
-0.0108859995 0.0000000000 0.0822990015 1.0000000000
-0.0108960001 0.0000000000 0.0822850019 1.0000000000
-0.0109080002 0.0000000000 0.0822739974 1.0000000000
-0.0109190000 0.0000000000 0.0822720006 1.0000000000
-0.0109299999 0.0000000000 0.0822660029 1.0000000000
-0.0109409997 0.0000000000 0.0822599977 1.0000000000
-0.0109519996 0.0000000000 0.0822459981 1.0000000000
-0.0109620001 0.0000000000 0.0822329968 1.0000000000
-0.0109740002 0.0000000000 0.0822279975 1.0000000000
-0.0109850001 0.0000000000 0.0822219998 1.0000000000
-0.0109959999 0.0000000000 0.0822120011 1.0000000000
-0.0110060005 0.0000000000 0.0822030008 1.0000000000
-0.0110179996 0.0000000000 0.0821959972 1.0000000000
-0.0110290004 0.0000000000 0.0821909979 1.0000000000
-0.0110400002 0.0000000000 0.0821809992 1.0000000000
-0.0110510001 0.0000000000 0.0821719989 1.0000000000
-0.0110619999 0.0000000000 0.0821620002 1.0000000000
-0.0110719996 0.0000000000 0.0821470022 1.0000000000
-0.0110820001 0.0000000000 0.0821330026 1.0000000000
-0.0110930000 0.0000000000 0.0821280032 1.0000000000
-0.0111050000 0.0000000000 0.0821190029 1.0000000000
-0.0111149997 0.0000000000 0.0821070001 1.0000000000
-0.0111240000 0.0000000000 0.0820859969 1.0000000000
-0.0111339996 0.0000000000 0.0820700005 1.0000000000
-0.0111450003 0.0000000000 0.0820590034 1.0000000000
-0.0111560002 0.0000000000 0.0820529982 1.0000000000
-0.0111680003 0.0000000000 0.0820529982 1.0000000000
-0.0111800004 0.0000000000 0.0820550025 1.0000000000
-0.0111919995 0.0000000000 0.0820539966 1.0000000000
-0.0112039996 0.0000000000 0.0820569992 1.0000000000
-0.0112159997 0.0000000000 0.0820550025 1.0000000000
-0.0112269996 0.0000000000 0.0820489973 1.0000000000
-0.0112389997 0.0000000000 0.0820449963 1.0000000000
-0.0112500004 0.0000000000 0.0820489973 1.0000000000
-0.0112640001 0.0000000000 0.0820550025 1.0000000000
-0.0112760002 0.0000000000 0.0820610002 1.0000000000
-0.0112880003 0.0000000000 0.0820610002 1.0000000000
-0.0112990001 0.0000000000 0.0820610002 1.0000000000
-0.0113120005 0.0000000000 0.0820600018 1.0000000000
-0.0113230003 0.0000000000 0.0820590034 1.0000000000
-0.0113350004 0.0000000000 0.0820519999 1.0000000000
-0.0113460002 0.0000000000 0.0820569992 1.0000000000
-0.0113589996 0.0000000000 0.0820600018 1.0000000000
-0.0113700004 0.0000000000 0.0820560008 1.0000000000
-0.0113829998 0.0000000000 0.0820560008 1.0000000000
-0.0113949999 0.0000000000 0.0820610002 1.0000000000
-0.0114080003 0.0000000000 0.0820650011 1.0000000000
-0.0114190001 0.0000000000 0.0820690021 1.0000000000
-0.0114310002 0.0000000000 0.0820610002 1.0000000000
-0.0114420000 0.0000000000 0.0820600018 1.0000000000
-0.0114550004 0.0000000000 0.0820629969 1.0000000000
-0.0114660002 0.0000000000 0.0820629969 1.0000000000
-0.0114780003 0.0000000000 0.0820600018 1.0000000000
-0.0114900004 0.0000000000 0.0820650011 1.0000000000
-0.0115029998 0.0000000000 0.0820690021 1.0000000000
-0.0115139997 0.0000000000 0.0820640028 1.0000000000
-0.0115259998 0.0000000000 0.0820619985 1.0000000000
-0.0115379998 0.0000000000 0.0820640028 1.0000000000
-0.0115489997 0.0000000000 0.0820600018 1.0000000000
-0.0115599995 0.0000000000 0.0820550025 1.0000000000
-0.0115729999 0.0000000000 0.0820569992 1.0000000000
-0.0115850000 0.0000000000 0.0820629969 1.0000000000
-0.0115980003 0.0000000000 0.0820629969 1.0000000000
-0.0116090002 0.0000000000 0.0820629969 1.0000000000
-0.0116210002 0.0000000000 0.0820619985 1.0000000000
-0.0116320001 0.0000000000 0.0820590034 1.0000000000
-0.0116450004 0.0000000000 0.0820629969 1.0000000000
-0.0116579998 0.0000000000 0.0820730031 1.0000000000
-0.0116699999 0.0000000000 0.0820790008 1.0000000000
-0.0116820000 0.0000000000 0.0820730031 1.0000000000
-0.0116929999 0.0000000000 0.0820680037 1.0000000000
-0.0117039997 0.0000000000 0.0820650011 1.0000000000
-0.0117170000 0.0000000000 0.0820629969 1.0000000000
-0.0117290001 0.0000000000 0.0820690021 1.0000000000
-0.0117410002 0.0000000000 0.0820719972 1.0000000000
-0.0117520001 0.0000000000 0.0820650011 1.0000000000
-0.0117640002 0.0000000000 0.0820629969 1.0000000000
-0.0117760003 0.0000000000 0.0820659995 1.0000000000
-0.0117889997 0.0000000000 0.0820659995 1.0000000000
-0.0118000004 0.0000000000 0.0820680037 1.0000000000
-0.0118119996 0.0000000000 0.0820700005 1.0000000000
-0.0118239997 0.0000000000 0.0820690021 1.0000000000
-0.0118349995 0.0000000000 0.0820640028 1.0000000000
-0.0118469996 0.0000000000 0.0820619985 1.0000000000
-0.0118600000 0.0000000000 0.0820659995 1.0000000000
-0.0118709998 0.0000000000 0.0820690021 1.0000000000
-0.0118840002 0.0000000000 0.0820650011 1.0000000000
-0.0118950000 0.0000000000 0.0820640028 1.0000000000
-0.0119080003 0.0000000000 0.0820680037 1.0000000000
-0.0119190002 0.0000000000 0.0820690021 1.0000000000
-0.0119300000 0.0000000000 0.0820629969 1.0000000000
-0.0119420001 0.0000000000 0.0820629969 1.0000000000
-0.0119540002 0.0000000000 0.0820640028 1.0000000000
-0.0119660003 0.0000000000 0.0820629969 1.0000000000
-0.0119780004 0.0000000000 0.0820619985 1.0000000000
-0.0119899996 0.0000000000 0.0820650011 1.0000000000
-0.0120019997 0.0000000000 0.0820709988 1.0000000000
-0.0120150000 0.0000000000 0.0820740014 1.0000000000
-0.0120270001 0.0000000000 0.0820730031 1.0000000000
-0.0120390002 0.0000000000 0.0820769966 1.0000000000
-0.0120519996 0.0000000000 0.0820769966 1.0000000000
-0.0120620001 0.0000000000 0.0820749998 1.0000000000
-0.0120740002 0.0000000000 0.0820700005 1.0000000000
-0.0120850001 0.0000000000 0.0820659995 1.0000000000
-0.0120980004 0.0000000000 0.0820650011 1.0000000000
-0.0121090002 0.0000000000 0.0820700005 1.0000000000
-0.0121219996 0.0000000000 0.0820709988 1.0000000000
-0.0121330004 0.0000000000 0.0820690021 1.0000000000
-0.0121449996 0.0000000000 0.0820709988 1.0000000000
-0.0121569997 0.0000000000 0.0820719972 1.0000000000
-0.0121700000 0.0000000000 0.0820740014 1.0000000000
-0.0121820001 0.0000000000 0.0820799991 1.0000000000
-0.0121940002 0.0000000000 0.0820809975 1.0000000000
-0.0122050000 0.0000000000 0.0820769966 1.0000000000
-0.0122170001 0.0000000000 0.0820650011 1.0000000000
-0.0122269997 0.0000000000 0.0820600018 1.0000000000
-0.0122400001 0.0000000000 0.0820659995 1.0000000000
-0.0122530004 0.0000000000 0.0820790008 1.0000000000
-0.0122649996 0.0000000000 0.0820799991 1.0000000000
-0.0122760003 0.0000000000 0.0820709988 1.0000000000
-0.0122880004 0.0000000000 0.0820669979 1.0000000000
-0.0122990003 0.0000000000 0.0820659995 1.0000000000
-0.0123110004 0.0000000000 0.0820600018 1.0000000000
