VERSION 0.7
FIELDS x y z intensity
SIZE 4 4 4 4
TYPE F F F F
COUNT 1 1 1 1
WIDTH 1231
HEIGHT 1
VIEWPOINT 0.0 0.0 0.0 1.0 0.0 0.0 0.0
POINTS 1231
DATA ascii
0.0121480003 0.0000000000 0.0815270022 1.0000000000
0.0121360002 0.0000000000 0.0815310031 1.0000000000
0.0121259997 0.0000000000 0.0815349966 1.0000000000
0.0121130003 0.0000000000 0.0815360025 1.0000000000
0.0121029997 0.0000000000 0.0815420002 1.0000000000
0.0120919999 0.0000000000 0.0815450028 1.0000000000
0.0120799998 0.0000000000 0.0815429986 1.0000000000
0.0120670004 0.0000000000 0.0815360025 1.0000000000
0.0120550003 0.0000000000 0.0815320015 1.0000000000
0.0120420000 0.0000000000 0.0815379992 1.0000000000
0.0120329997 0.0000000000 0.0815510005 1.0000000000
0.0120209996 0.0000000000 0.0815500021 1.0000000000
0.0120090004 0.0000000000 0.0815420002 1.0000000000
0.0119970003 0.0000000000 0.0815410018 1.0000000000
0.0119860005 0.0000000000 0.0815500021 1.0000000000
0.0119740004 0.0000000000 0.0815559998 1.0000000000
0.0119629996 0.0000000000 0.0815510005 1.0000000000
0.0119479997 0.0000000000 0.0815379992 1.0000000000
0.0119369999 0.0000000000 0.0815360025 1.0000000000
0.0119249998 0.0000000000 0.0815400034 1.0000000000
0.0119139999 0.0000000000 0.0815420002 1.0000000000
0.0119019998 0.0000000000 0.0815410018 1.0000000000
0.0118910000 0.0000000000 0.0815429986 1.0000000000
0.0118779996 0.0000000000 0.0815460011 1.0000000000
0.0118680000 0.0000000000 0.0815479979 1.0000000000
0.0118549997 0.0000000000 0.0815469995 1.0000000000
0.0118439998 0.0000000000 0.0815490037 1.0000000000
0.0118319998 0.0000000000 0.0815420002 1.0000000000
0.0118190004 0.0000000000 0.0815320015 1.0000000000
0.0118070003 0.0000000000 0.0815320015 1.0000000000
0.0117969997 0.0000000000 0.0815439969 1.0000000000
0.0117849996 0.0000000000 0.0815439969 1.0000000000
0.0117729995 0.0000000000 0.0815389976 1.0000000000
0.0117610004 0.0000000000 0.0815410018 1.0000000000
0.0117490003 0.0000000000 0.0815429986 1.0000000000
0.0117380004 0.0000000000 0.0815439969 1.0000000000
0.0117250001 0.0000000000 0.0815410018 1.0000000000
0.0117119998 0.0000000000 0.0815370008 1.0000000000
0.0117020002 0.0000000000 0.0815389976 1.0000000000
0.0116889998 0.0000000000 0.0815379992 1.0000000000
0.0116780000 0.0000000000 0.0815389976 1.0000000000
0.0116649996 0.0000000000 0.0815379992 1.0000000000
0.0116550000 0.0000000000 0.0815400034 1.0000000000
0.0116429999 0.0000000000 0.0815429986 1.0000000000
0.0116320001 0.0000000000 0.0815500021 1.0000000000
0.0116200000 0.0000000000 0.0815540031 1.0000000000
0.0116100004 0.0000000000 0.0815559998 1.0000000000
0.0115959998 0.0000000000 0.0815519989 1.0000000000
0.0115850000 0.0000000000 0.0815479979 1.0000000000
0.0115710003 0.0000000000 0.0815450028 1.0000000000
0.0115609998 0.0000000000 0.0815469995 1.0000000000
0.0115480004 0.0000000000 0.0815460011 1.0000000000
0.0115379998 0.0000000000 0.0815479979 1.0000000000
0.0115259998 0.0000000000 0.0815500021 1.0000000000
0.0115149999 0.0000000000 0.0815559998 1.0000000000
0.0115029998 0.0000000000 0.0815609992 1.0000000000
0.0114930002 0.0000000000 0.0815680027 1.0000000000
0.0114799999 0.0000000000 0.0815709978 1.0000000000
0.0114700003 0.0000000000 0.0815690011 1.0000000000
0.0114569999 0.0000000000 0.0815650001 1.0000000000
0.0114460001 0.0000000000 0.0815730020 1.0000000000
0.0114359995 0.0000000000 0.0815929994 1.0000000000
0.0114270002 0.0000000000 0.0816069990 1.0000000000
0.0114169996 0.0000000000 0.0816240013 1.0000000000
0.0114070000 0.0000000000 0.0816389993 1.0000000000
0.0113949999 0.0000000000 0.0816479996 1.0000000000
0.0113869999 0.0000000000 0.0816650018 1.0000000000
0.0113749998 0.0000000000 0.0816690028 1.0000000000
0.0113639999 0.0000000000 0.0816700011 1.0000000000
0.0113530001 0.0000000000 0.0816759989 1.0000000000
0.0113420002 0.0000000000 0.0816830024 1.0000000000
0.0113319997 0.0000000000 0.0817010030 1.0000000000
0.0113230003 0.0000000000 0.0817210004 1.0000000000
0.0113100000 0.0000000000 0.0817240030 1.0000000000
0.0113000004 0.0000000000 0.0817290023 1.0000000000
0.0112889996 0.0000000000 0.0817340016 1.0000000000
0.0112770004 0.0000000000 0.0817380026 1.0000000000
0.0112680001 0.0000000000 0.0817539990 1.0000000000
0.0112589998 0.0000000000 0.0817790031 1.0000000000
0.0112469997 0.0000000000 0.0817890018 1.0000000000
0.0112370001 0.0000000000 0.0817930028 1.0000000000
0.0112250000 0.0000000000 0.0817930028 1.0000000000
0.0112140002 0.0000000000 0.0817969963 1.0000000000
0.0112020001 0.0000000000 0.0818059966 1.0000000000
0.0111929998 0.0000000000 0.0818210021 1.0000000000
0.0111809997 0.0000000000 0.0818329975 1.0000000000
0.0111720003 0.0000000000 0.0818469971 1.0000000000
0.0111600002 0.0000000000 0.0818559974 1.0000000000
0.0111520002 0.0000000000 0.0818720013 1.0000000000
0.0111419996 0.0000000000 0.0818879977 1.0000000000
0.0111309998 0.0000000000 0.0818959996 1.0000000000
0.0111180004 0.0000000000 0.0819000006 1.0000000000
0.0111100003 0.0000000000 0.0819189996 1.0000000000
0.0110990005 0.0000000000 0.0819360018 1.0000000000
0.0110889999 0.0000000000 0.0819450021 1.0000000000
0.0110769998 0.0000000000 0.0819509998 1.0000000000
0.0110670002 0.0000000000 0.0819550008 1.0000000000
0.0110560004 0.0000000000 0.0819649994 1.0000000000
0.0110459998 0.0000000000 0.0819749981 1.0000000000
0.0110330004 0.0000000000 0.0819770023 1.0000000000
0.0110240001 0.0000000000 0.0819929987 1.0000000000
0.0110120000 0.0000000000 0.0820050016 1.0000000000
0.0110029997 0.0000000000 0.0820169970 1.0000000000
0.0109930001 0.0000000000 0.0820330009 1.0000000000
0.0109829996 0.0000000000 0.0820439979 1.0000000000
0.0109719997 0.0000000000 0.0820510015 1.0000000000
0.0109609999 0.0000000000 0.0820590034 1.0000000000
0.0109489998 0.0000000000 0.0820730031 1.0000000000
0.0109409997 0.0000000000 0.0820899978 1.0000000000
0.0109289996 0.0000000000 0.0820930004 1.0000000000
0.0109190000 0.0000000000 0.0821029991 1.0000000000
0.0109080002 0.0000000000 0.0821219981 1.0000000000
0.0108989999 0.0000000000 0.0821370035 1.0000000000
0.0108869998 0.0000000000 0.0821470022 1.0000000000
0.0108770002 0.0000000000 0.0821539983 1.0000000000
0.0108660003 0.0000000000 0.0821639970 1.0000000000
0.0108559998 0.0000000000 0.0821750015 1.0000000000
0.0108439997 0.0000000000 0.0821840018 1.0000000000
0.0108350003 0.0000000000 0.0821970031 1.0000000000
0.0108220000 0.0000000000 0.0822009966 1.0000000000
0.0108120004 0.0000000000 0.0822070017 1.0000000000
0.0108009996 0.0000000000 0.0822239965 1.0000000000
0.0107920002 0.0000000000 0.0822390020 1.0000000000
0.0107810004 0.0000000000 0.0822469965 1.0000000000
0.0107699996 0.0000000000 0.0822540000 1.0000000000
0.0107570002 0.0000000000 0.0822620019 1.0000000000
0.0107479999 0.0000000000 0.0822720006 1.0000000000
0.0107370000 0.0000000000 0.0822840035 1.0000000000
0.0107270004 0.0000000000 0.0822969973 1.0000000000
0.0107159996 0.0000000000 0.0823130012 1.0000000000
0.0107060000 0.0000000000 0.0823260024 1.0000000000
0.0106950002 0.0000000000 0.0823329985 1.0000000000
0.0106849996 0.0000000000 0.0823450014 1.0000000000
0.0106739998 0.0000000000 0.0823609978 1.0000000000
0.0106640002 0.0000000000 0.0823730007 1.0000000000
0.0106530003 0.0000000000 0.0823780000 1.0000000000
0.0106410002 0.0000000000 0.0823839977 1.0000000000
0.0106309997 0.0000000000 0.0823960006 1.0000000000
0.0106199998 0.0000000000 0.0824100003 1.0000000000
0.0106100002 0.0000000000 0.0824270025 1.0000000000
0.0106009999 0.0000000000 0.0824500024 1.0000000000
0.0105879996 0.0000000000 0.0824560001 1.0000000000
0.0105780000 0.0000000000 0.0824609995 1.0000000000
0.0105670001 0.0000000000 0.0824709982 1.0000000000
0.0105560003 0.0000000000 0.0824790001 1.0000000000
0.0105440002 0.0000000000 0.0824860036 1.0000000000
0.0105349999 0.0000000000 0.0824970007 1.0000000000
0.0105229998 0.0000000000 0.0825079978 1.0000000000
0.0105140004 0.0000000000 0.0825250000 1.0000000000
0.0105020003 0.0000000000 0.0825370029 1.0000000000
0.0104909996 0.0000000000 0.0825399980 1.0000000000
0.0104799997 0.0000000000 0.0825529993 1.0000000000
0.0104710003 0.0000000000 0.0825709999 1.0000000000
0.0104599996 0.0000000000 0.0825780034 1.0000000000
0.0104489997 0.0000000000 0.0825849995 1.0000000000
0.0104379999 0.0000000000 0.0825939998 1.0000000000
0.0104270000 0.0000000000 0.0826039985 1.0000000000
0.0104149999 0.0000000000 0.0826150030 1.0000000000
0.0104040001 0.0000000000 0.0826200023 1.0000000000
0.0103900004 0.0000000000 0.0826120004 1.0000000000
0.0103789996 0.0000000000 0.0826020017 1.0000000000
0.0078889998 0.0000000000 0.0826890022 1.0000000000
0.0078760004 0.0000000000 0.0826850012 1.0000000000
0.0078649996 0.0000000000 0.0826850012 1.0000000000
0.0078520002 0.0000000000 0.0826869980 1.0000000000
0.0078410003 0.0000000000 0.0826840028 1.0000000000
0.0078280000 0.0000000000 0.0826729983 1.0000000000
0.0078149997 0.0000000000 0.0826639980 1.0000000000
0.0078019998 0.0000000000 0.0826560035 1.0000000000
0.0077889999 0.0000000000 0.0826399997 1.0000000000
0.0077749998 0.0000000000 0.0826219991 1.0000000000
0.0077630002 0.0000000000 0.0826129988 1.0000000000
0.0077499999 0.0000000000 0.0826020017 1.0000000000
0.0077370000 0.0000000000 0.0825890005 1.0000000000
0.0077240001 0.0000000000 0.0825780034 1.0000000000
0.0077109998 0.0000000000 0.0825639963 1.0000000000
0.0076979999 0.0000000000 0.0825520009 1.0000000000
0.0076850001 0.0000000000 0.0825449973 1.0000000000
0.0076710000 0.0000000000 0.0825380012 1.0000000000
0.0076600001 0.0000000000 0.0825299993 1.0000000000
0.0076469998 0.0000000000 0.0825159997 1.0000000000
0.0076330001 0.0000000000 0.0825010017 1.0000000000
0.0076190000 0.0000000000 0.0824860036 1.0000000000
0.0076069999 0.0000000000 0.0824709982 1.0000000000
0.0075929998 0.0000000000 0.0824600011 1.0000000000
0.0075810002 0.0000000000 0.0824479982 1.0000000000
0.0075659999 0.0000000000 0.0824299976 1.0000000000
0.0075550000 0.0000000000 0.0824239999 1.0000000000
0.0075420002 0.0000000000 0.0824100003 1.0000000000
0.0075289998 0.0000000000 0.0823950022 1.0000000000
0.0075139999 0.0000000000 0.0823820010 1.0000000000
0.0075030001 0.0000000000 0.0823699981 1.0000000000
0.0074890000 0.0000000000 0.0823569968 1.0000000000
0.0074760001 0.0000000000 0.0823400021 1.0000000000
0.0074609998 0.0000000000 0.0823189989 1.0000000000
0.0074490001 0.0000000000 0.0823070034 1.0000000000
0.0074359998 0.0000000000 0.0823009983 1.0000000000
0.0074240002 0.0000000000 0.0822919980 1.0000000000
0.0074109999 0.0000000000 0.0822800025 1.0000000000
0.0073980000 0.0000000000 0.0822689980 1.0000000000
0.0073839999 0.0000000000 0.0822570026 1.0000000000
0.0073719998 0.0000000000 0.0822480023 1.0000000000
0.0073600002 0.0000000000 0.0822390020 1.0000000000
0.0073469998 0.0000000000 0.0822310001 1.0000000000
0.0073330002 0.0000000000 0.0822210014 1.0000000000
0.0073210001 0.0000000000 0.0822120011 1.0000000000
0.0073079998 0.0000000000 0.0822009966 1.0000000000
0.0072949999 0.0000000000 0.0821850002 1.0000000000
0.0072800000 0.0000000000 0.0821639970 1.0000000000
0.0072679999 0.0000000000 0.0821480006 1.0000000000
0.0072539998 0.0000000000 0.0821390003 1.0000000000
0.0072420002 0.0000000000 0.0821259990 1.0000000000
0.0072289999 0.0000000000 0.0821079984 1.0000000000
0.0072150002 0.0000000000 0.0820870027 1.0000000000
0.0072010001 0.0000000000 0.0820740014 1.0000000000
0.0071899998 0.0000000000 0.0820690021 1.0000000000
0.0071769999 0.0000000000 0.0820629969 1.0000000000
0.0071640001 0.0000000000 0.0820470005 1.0000000000
0.0071500000 0.0000000000 0.0820309967 1.0000000000
0.0071379999 0.0000000000 0.0820219964 1.0000000000
0.0071250000 0.0000000000 0.0820159987 1.0000000000
0.0071140002 0.0000000000 0.0820159987 1.0000000000
0.0071009998 0.0000000000 0.0820019990 1.0000000000
0.0070859999 0.0000000000 0.0819640011 1.0000000000
0.0070730001 0.0000000000 0.0819600001 1.0000000000
0.0070620002 0.0000000000 0.0819619969 1.0000000000
0.0070489999 0.0000000000 0.0819509998 1.0000000000
0.0070349998 0.0000000000 0.0819270015 1.0000000000
0.0070219999 0.0000000000 0.0819149986 1.0000000000
0.0070090001 0.0000000000 0.0819069967 1.0000000000
0.0069970000 0.0000000000 0.0819019973 1.0000000000
0.0069840001 0.0000000000 0.0818900019 1.0000000000
0.0069710002 0.0000000000 0.0818720013 1.0000000000
0.0069579999 0.0000000000 0.0818630010 1.0000000000
0.0069450000 0.0000000000 0.0818609968 1.0000000000
0.0069329999 0.0000000000 0.0818499997 1.0000000000
0.0069189998 0.0000000000 0.0818319991 1.0000000000
0.0069070002 0.0000000000 0.0818220004 1.0000000000
0.0068939999 0.0000000000 0.0818120018 1.0000000000
0.0068810000 0.0000000000 0.0817869976 1.0000000000
0.0068680001 0.0000000000 0.0817719996 1.0000000000
0.0068549998 0.0000000000 0.0817599967 1.0000000000
0.0068410002 0.0000000000 0.0817570016 1.0000000000
0.0068299999 0.0000000000 0.0817560032 1.0000000000
0.0068170000 0.0000000000 0.0817470029 1.0000000000
0.0068049999 0.0000000000 0.0817380026 1.0000000000
0.0067920000 0.0000000000 0.0817179978 1.0000000000
0.0067790002 0.0000000000 0.0817060024 1.0000000000
0.0067670001 0.0000000000 0.0817020014 1.0000000000
0.0067540002 0.0000000000 0.0816970021 1.0000000000
0.0067409999 0.0000000000 0.0816840008 1.0000000000
0.0067270002 0.0000000000 0.0816489980 1.0000000000
0.0067130001 0.0000000000 0.0816449970 1.0000000000
0.0067019998 0.0000000000 0.0816410035 1.0000000000
0.0066889999 0.0000000000 0.0816359967 1.0000000000
0.0066780001 0.0000000000 0.0816359967 1.0000000000
0.0066650002 0.0000000000 0.0816359967 1.0000000000
0.0066539999 0.0000000000 0.0816349983 1.0000000000
0.0066410000 0.0000000000 0.0816349983 1.0000000000
0.0066310000 0.0000000000 0.0816420019 1.0000000000
0.0066180001 0.0000000000 0.0816439986 1.0000000000
0.0066069998 0.0000000000 0.0816470012 1.0000000000
0.0065939999 0.0000000000 0.0816449970 1.0000000000
0.0065830001 0.0000000000 0.0816410035 1.0000000000
0.0065710000 0.0000000000 0.0816399977 1.0000000000
0.0065589999 0.0000000000 0.0816380009 1.0000000000
0.0065460000 0.0000000000 0.0816320032 1.0000000000
0.0065339999 0.0000000000 0.0816330016 1.0000000000
0.0065210001 0.0000000000 0.0816339999 1.0000000000
0.0065110000 0.0000000000 0.0816339999 1.0000000000
0.0064980001 0.0000000000 0.0816420019 1.0000000000
0.0064880000 0.0000000000 0.0816460028 1.0000000000
0.0064739999 0.0000000000 0.0816380009 1.0000000000
0.0064630001 0.0000000000 0.0816380009 1.0000000000
0.0064500002 0.0000000000 0.0816439986 1.0000000000
0.0064400001 0.0000000000 0.0816539973 1.0000000000
0.0064280001 0.0000000000 0.0816560015 1.0000000000
0.0064160000 0.0000000000 0.0816470012 1.0000000000
0.0064039999 0.0000000000 0.0816499963 1.0000000000
0.0063930000 0.0000000000 0.0816600025 1.0000000000
0.0063789999 0.0000000000 0.0816539973 1.0000000000
0.0063680001 0.0000000000 0.0816439986 1.0000000000
0.0063560000 0.0000000000 0.0816399977 1.0000000000
0.0063439999 0.0000000000 0.0816389993 1.0000000000
0.0063299998 0.0000000000 0.0816359967 1.0000000000
0.0063200002 0.0000000000 0.0816380009 1.0000000000
0.0063060001 0.0000000000 0.0816359967 1.0000000000
0.0062960000 0.0000000000 0.0816410035 1.0000000000
0.0062830001 0.0000000000 0.0816430002 1.0000000000
0.0062719998 0.0000000000 0.0816430002 1.0000000000
0.0062600002 0.0000000000 0.0816420019 1.0000000000
0.0062480001 0.0000000000 0.0816460028 1.0000000000
0.0062350002 0.0000000000 0.0816449970 1.0000000000
0.0062239999 0.0000000000 0.0816370025 1.0000000000
0.0062110000 0.0000000000 0.0816349983 1.0000000000
0.0062010000 0.0000000000 0.0816470012 1.0000000000
0.0061880001 0.0000000000 0.0816460028 1.0000000000
0.0061760000 0.0000000000 0.0816410035 1.0000000000
0.0061630001 0.0000000000 0.0816410035 1.0000000000
0.0061530001 0.0000000000 0.0816460028 1.0000000000
0.0061400002 0.0000000000 0.0816449970 1.0000000000
0.0061289999 0.0000000000 0.0816479996 1.0000000000
0.0061160000 0.0000000000 0.0816510022 1.0000000000
0.0061050002 0.0000000000 0.0816470012 1.0000000000
0.0060930001 0.0000000000 0.0816399977 1.0000000000
0.0060800002 0.0000000000 0.0816339999 1.0000000000
0.0060669999 0.0000000000 0.0816320032 1.0000000000
0.0060569998 0.0000000000 0.0816380009 1.0000000000
0.0060450002 0.0000000000 0.0816470012 1.0000000000
0.0060339998 0.0000000000 0.0816579983 1.0000000000
0.0060220002 0.0000000000 0.0816589966 1.0000000000
0.0060100001 0.0000000000 0.0816539973 1.0000000000
0.0059960000 0.0000000000 0.0816499963 1.0000000000
0.0059850002 0.0000000000 0.0816489980 1.0000000000
0.0059730001 0.0000000000 0.0816460028 1.0000000000
0.0059610000 0.0000000000 0.0816529989 1.0000000000
0.0059500001 0.0000000000 0.0816629976 1.0000000000
0.0059380000 0.0000000000 0.0816619992 1.0000000000
0.0059260000 0.0000000000 0.0816560015 1.0000000000
0.0059130001 0.0000000000 0.0816460028 1.0000000000
0.0059000002 0.0000000000 0.0816439986 1.0000000000
0.0058889999 0.0000000000 0.0816499963 1.0000000000
0.0058760000 0.0000000000 0.0816489980 1.0000000000
0.0058650002 0.0000000000 0.0816520005 1.0000000000
0.0058530001 0.0000000000 0.0816489980 1.0000000000
0.0058410000 0.0000000000 0.0816389993 1.0000000000
0.0058289999 0.0000000000 0.0816399977 1.0000000000
0.0058169998 0.0000000000 0.0816460028 1.0000000000
0.0058040000 0.0000000000 0.0816410035 1.0000000000
0.0057930001 0.0000000000 0.0816380009 1.0000000000
0.0057810000 0.0000000000 0.0816399977 1.0000000000
0.0057689999 0.0000000000 0.0816410035 1.0000000000
0.0057569998 0.0000000000 0.0816380009 1.0000000000
0.0057450002 0.0000000000 0.0816389993 1.0000000000
0.0057319999 0.0000000000 0.0816430002 1.0000000000
0.0057210000 0.0000000000 0.0816510022 1.0000000000
0.0057080002 0.0000000000 0.0816489980 1.0000000000
0.0056969998 0.0000000000 0.0816449970 1.0000000000
0.0056840000 0.0000000000 0.0816430002 1.0000000000
0.0056730001 0.0000000000 0.0816460028 1.0000000000
0.0056599998 0.0000000000 0.0816499963 1.0000000000
0.0056500002 0.0000000000 0.0816589966 1.0000000000
0.0056380001 0.0000000000 0.0816640034 1.0000000000
0.0056260000 0.0000000000 0.0816600025 1.0000000000
0.0056139999 0.0000000000 0.0816569999 1.0000000000
0.0056019998 0.0000000000 0.0816550031 1.0000000000
0.0055880002 0.0000000000 0.0816529989 1.0000000000
0.0055769999 0.0000000000 0.0816510022 1.0000000000
0.0055660000 0.0000000000 0.0816539973 1.0000000000
0.0055539999 0.0000000000 0.0816589966 1.0000000000
0.0055419998 0.0000000000 0.0816619992 1.0000000000
0.0055300002 0.0000000000 0.0816619992 1.0000000000
0.0055169999 0.0000000000 0.0816610008 1.0000000000
0.0055060000 0.0000000000 0.0816610008 1.0000000000
0.0054939999 0.0000000000 0.0816569999 1.0000000000
0.0054819998 0.0000000000 0.0816550031 1.0000000000
0.0054690000 0.0000000000 0.0816579983 1.0000000000
0.0054580001 0.0000000000 0.0816619992 1.0000000000
0.0054449998 0.0000000000 0.0816579983 1.0000000000
0.0054339999 0.0000000000 0.0816650018 1.0000000000
0.0054230001 0.0000000000 0.0816709995 1.0000000000
0.0054100002 0.0000000000 0.0816629976 1.0000000000
0.0053980001 0.0000000000 0.0816569999 1.0000000000
0.0053860000 0.0000000000 0.0816569999 1.0000000000
0.0053730002 0.0000000000 0.0816650018 1.0000000000
0.0053619999 0.0000000000 0.0816660002 1.0000000000
0.0053500002 0.0000000000 0.0816539973 1.0000000000
0.0053369999 0.0000000000 0.0816510022 1.0000000000
0.0053260000 0.0000000000 0.0816560015 1.0000000000
0.0053140000 0.0000000000 0.0816640034 1.0000000000
0.0053010001 0.0000000000 0.0816660002 1.0000000000
0.0052899998 0.0000000000 0.0816600025 1.0000000000
0.0052780001 0.0000000000 0.0816619992 1.0000000000
0.0052660001 0.0000000000 0.0816619992 1.0000000000
0.0052540000 0.0000000000 0.0816529989 1.0000000000
0.0052410001 0.0000000000 0.0816499963 1.0000000000
0.0052290000 0.0000000000 0.0816589966 1.0000000000
0.0052180002 0.0000000000 0.0816650018 1.0000000000
0.0052060001 0.0000000000 0.0816650018 1.0000000000
0.0051940000 0.0000000000 0.0816669986 1.0000000000
0.0051810001 0.0000000000 0.0816669986 1.0000000000
0.0051699998 0.0000000000 0.0816640034 1.0000000000
0.0051580002 0.0000000000 0.0816629976 1.0000000000
0.0051460001 0.0000000000 0.0816629976 1.0000000000
0.0051340000 0.0000000000 0.0816629976 1.0000000000
0.0051219999 0.0000000000 0.0816579983 1.0000000000
0.0051079998 0.0000000000 0.0816510022 1.0000000000
0.0050980002 0.0000000000 0.0816560015 1.0000000000
0.0050860001 0.0000000000 0.0816619992 1.0000000000
0.0050740000 0.0000000000 0.0816610008 1.0000000000
0.0050610001 0.0000000000 0.0816650018 1.0000000000
0.0050510000 0.0000000000 0.0816729963 1.0000000000
0.0050390000 0.0000000000 0.0816709995 1.0000000000
0.0050260001 0.0000000000 0.0816660002 1.0000000000
0.0050140000 0.0000000000 0.0816640034 1.0000000000
0.0050019999 0.0000000000 0.0816619992 1.0000000000
0.0049899998 0.0000000000 0.0816610008 1.0000000000
0.0049780002 0.0000000000 0.0816569999 1.0000000000
0.0049660001 0.0000000000 0.0816539973 1.0000000000
0.0049540000 0.0000000000 0.0816569999 1.0000000000
0.0049410001 0.0000000000 0.0816550031 1.0000000000
0.0049299998 0.0000000000 0.0816539973 1.0000000000
0.0049180002 0.0000000000 0.0816610008 1.0000000000
0.0049069999 0.0000000000 0.0816690028 1.0000000000
0.0048929998 0.0000000000 0.0816589966 1.0000000000
0.0048819999 0.0000000000 0.0816560015 1.0000000000
0.0048690001 0.0000000000 0.0816569999 1.0000000000
0.0048580002 0.0000000000 0.0816539973 1.0000000000
0.0048449999 0.0000000000 0.0816439986 1.0000000000
0.0048329998 0.0000000000 0.0816439986 1.0000000000
0.0048210002 0.0000000000 0.0816550031 1.0000000000
0.0048099998 0.0000000000 0.0816619992 1.0000000000
0.0047980002 0.0000000000 0.0816619992 1.0000000000
0.0047860001 0.0000000000 0.0816619992 1.0000000000
0.0047729998 0.0000000000 0.0816629976 1.0000000000
0.0047619999 0.0000000000 0.0816660002 1.0000000000
0.0047499998 0.0000000000 0.0816640034 1.0000000000
0.0047380002 0.0000000000 0.0816619992 1.0000000000
0.0047260001 0.0000000000 0.0816640034 1.0000000000
0.0047140000 0.0000000000 0.0816610008 1.0000000000
0.0047010002 0.0000000000 0.0816569999 1.0000000000
0.0046899999 0.0000000000 0.0816550031 1.0000000000
0.0046770000 0.0000000000 0.0816569999 1.0000000000
0.0046660001 0.0000000000 0.0816529989 1.0000000000
0.0046540000 0.0000000000 0.0816550031 1.0000000000
0.0046420000 0.0000000000 0.0816669986 1.0000000000
0.0046299999 0.0000000000 0.0816719979 1.0000000000
0.0046179998 0.0000000000 0.0816610008 1.0000000000
0.0046049999 0.0000000000 0.0816579983 1.0000000000
0.0045940001 0.0000000000 0.0816629976 1.0000000000
0.0045810002 0.0000000000 0.0816669986 1.0000000000
0.0045699999 0.0000000000 0.0816690028 1.0000000000
0.0045570000 0.0000000000 0.0816650018 1.0000000000
0.0045460002 0.0000000000 0.0816679969 1.0000000000
0.0045329998 0.0000000000 0.0816709995 1.0000000000
0.0045220000 0.0000000000 0.0816719979 1.0000000000
0.0045099999 0.0000000000 0.0816700011 1.0000000000
0.0044979998 0.0000000000 0.0816709995 1.0000000000
0.0044849999 0.0000000000 0.0816740021 1.0000000000
0.0044740001 0.0000000000 0.0816700011 1.0000000000
0.0044610002 0.0000000000 0.0816629976 1.0000000000
0.0044499999 0.0000000000 0.0816660002 1.0000000000
0.0044370000 0.0000000000 0.0816719979 1.0000000000
0.0044260002 0.0000000000 0.0816729963 1.0000000000
0.0044140001 0.0000000000 0.0816679969 1.0000000000
0.0044020000 0.0000000000 0.0816669986 1.0000000000
0.0043899999 0.0000000000 0.0816690028 1.0000000000
0.0043779998 0.0000000000 0.0816740021 1.0000000000
0.0043660002 0.0000000000 0.0816690028 1.0000000000
0.0043540001 0.0000000000 0.0816690028 1.0000000000
0.0043410002 0.0000000000 0.0816790015 1.0000000000
0.0043310001 0.0000000000 0.0816859975 1.0000000000
0.0043170000 0.0000000000 0.0816830024 1.0000000000
0.0043060002 0.0000000000 0.0816729963 1.0000000000
0.0042920001 0.0000000000 0.0816640034 1.0000000000
0.0042820000 0.0000000000 0.0816669986 1.0000000000
0.0042690001 0.0000000000 0.0816709995 1.0000000000
0.0042579998 0.0000000000 0.0816729963 1.0000000000
0.0042460002 0.0000000000 0.0816769972 1.0000000000
0.0042340001 0.0000000000 0.0816840008 1.0000000000
0.0042220000 0.0000000000 0.0816849992 1.0000000000
0.0042099999 0.0000000000 0.0816870034 1.0000000000
0.0041970001 0.0000000000 0.0816799998 1.0000000000
0.0041850000 0.0000000000 0.0816629976 1.0000000000
0.0041729999 0.0000000000 0.0816629976 1.0000000000
0.0041609998 0.0000000000 0.0816740021 1.0000000000
0.0041490002 0.0000000000 0.0816819966 1.0000000000
0.0041379998 0.0000000000 0.0816859975 1.0000000000
0.0041250000 0.0000000000 0.0816819966 1.0000000000
0.0041129999 0.0000000000 0.0816769972 1.0000000000
0.0041000000 0.0000000000 0.0816700011 1.0000000000
0.0040890002 0.0000000000 0.0816650018 1.0000000000
0.0040759998 0.0000000000 0.0816619992 1.0000000000
0.0040650000 0.0000000000 0.0816719979 1.0000000000
0.0040529999 0.0000000000 0.0816759989 1.0000000000
0.0040409998 0.0000000000 0.0816759989 1.0000000000
0.0040290002 0.0000000000 0.0816769972 1.0000000000
0.0040170001 0.0000000000 0.0816729963 1.0000000000
0.0040050000 0.0000000000 0.0816700011 1.0000000000
0.0039929999 0.0000000000 0.0816719979 1.0000000000
0.0039809998 0.0000000000 0.0816790015 1.0000000000
0.0039690002 0.0000000000 0.0816840008 1.0000000000
0.0039570001 0.0000000000 0.0816769972 1.0000000000
0.0039450000 0.0000000000 0.0816769972 1.0000000000
0.0039320001 0.0000000000 0.0816870034 1.0000000000
0.0039209998 0.0000000000 0.0816920027 1.0000000000
0.0039080000 0.0000000000 0.0816819966 1.0000000000
0.0038970001 0.0000000000 0.0816799998 1.0000000000
0.0038840000 0.0000000000 0.0816809982 1.0000000000
0.0038729999 0.0000000000 0.0816819966 1.0000000000
0.0038600001 0.0000000000 0.0816790015 1.0000000000
0.0038490000 0.0000000000 0.0816819966 1.0000000000
0.0038360001 0.0000000000 0.0816819966 1.0000000000
0.0038250000 0.0000000000 0.0816769972 1.0000000000
0.0038129999 0.0000000000 0.0816769972 1.0000000000
0.0038010001 0.0000000000 0.0816799998 1.0000000000
0.0037870000 0.0000000000 0.0816780031 1.0000000000
0.0037760001 0.0000000000 0.0816790015 1.0000000000
0.0037650000 0.0000000000 0.0816849992 1.0000000000
0.0037529999 0.0000000000 0.0816880018 1.0000000000
0.0037390001 0.0000000000 0.0816819966 1.0000000000
0.0037280000 0.0000000000 0.0816769972 1.0000000000
0.0037150001 0.0000000000 0.0816740021 1.0000000000
0.0037040000 0.0000000000 0.0816780031 1.0000000000
0.0036909999 0.0000000000 0.0816819966 1.0000000000
0.0036800001 0.0000000000 0.0816830024 1.0000000000
0.0036680000 0.0000000000 0.0816870034 1.0000000000
0.0036569999 0.0000000000 0.0816920027 1.0000000000
0.0036450000 0.0000000000 0.0816920027 1.0000000000
0.0036330000 0.0000000000 0.0816909969 1.0000000000
0.0036190001 0.0000000000 0.0816880018 1.0000000000
0.0036080000 0.0000000000 0.0816809982 1.0000000000
0.0035949999 0.0000000000 0.0816729963 1.0000000000
0.0035840000 0.0000000000 0.0816719979 1.0000000000
0.0035699999 0.0000000000 0.0816709995 1.0000000000
0.0035590001 0.0000000000 0.0816709995 1.0000000000
0.0035460000 0.0000000000 0.0816700011 1.0000000000
0.0035359999 0.0000000000 0.0816740021 1.0000000000
0.0035240001 0.0000000000 0.0816840008 1.0000000000
0.0035120000 0.0000000000 0.0816960037 1.0000000000
0.0035000001 0.0000000000 0.0816960037 1.0000000000
0.0034880000 0.0000000000 0.0816920027 1.0000000000
0.0034749999 0.0000000000 0.0816859975 1.0000000000
0.0034630001 0.0000000000 0.0816780031 1.0000000000
0.0034510000 0.0000000000 0.0816769972 1.0000000000
0.0034399999 0.0000000000 0.0816840008 1.0000000000
0.0034270000 0.0000000000 0.0816970021 1.0000000000
0.0034159999 0.0000000000 0.0817070007 1.0000000000
0.0034030001 0.0000000000 0.0817029998 1.0000000000
0.0033920000 0.0000000000 0.0816949978 1.0000000000
0.0033789999 0.0000000000 0.0816960037 1.0000000000
0.0033680000 0.0000000000 0.0817020014 1.0000000000
0.0033559999 0.0000000000 0.0817010030 1.0000000000
0.0033440001 0.0000000000 0.0817010030 1.0000000000
0.0033320000 0.0000000000 0.0817020014 1.0000000000
0.0033199999 0.0000000000 0.0816960037 1.0000000000
0.0033080000 0.0000000000 0.0816949978 1.0000000000
0.0032960000 0.0000000000 0.0817020014 1.0000000000
0.0032840001 0.0000000000 0.0817029998 1.0000000000
0.0032720000 0.0000000000 0.0817029998 1.0000000000
0.0032589999 0.0000000000 0.0817070007 1.0000000000
0.0032480001 0.0000000000 0.0817110017 1.0000000000
0.0032360000 0.0000000000 0.0817089975 1.0000000000
0.0032240001 0.0000000000 0.0817049965 1.0000000000
0.0032100000 0.0000000000 0.0816989988 1.0000000000
0.0031989999 0.0000000000 0.0816920027 1.0000000000
0.0031870001 0.0000000000 0.0816939995 1.0000000000
0.0031750000 0.0000000000 0.0817039981 1.0000000000
0.0031620001 0.0000000000 0.0817070007 1.0000000000
0.0031510000 0.0000000000 0.0817039981 1.0000000000
0.0031379999 0.0000000000 0.0816960037 1.0000000000
0.0031270001 0.0000000000 0.0816939995 1.0000000000
0.0031140000 0.0000000000 0.0816949978 1.0000000000
0.0031030001 0.0000000000 0.0816989988 1.0000000000
0.0030900000 0.0000000000 0.0817039981 1.0000000000
0.0030789999 0.0000000000 0.0817089975 1.0000000000
0.0030670001 0.0000000000 0.0817029998 1.0000000000
0.0030550000 0.0000000000 0.0816949978 1.0000000000
0.0030429999 0.0000000000 0.0816939995 1.0000000000
0.0030310000 0.0000000000 0.0817010030 1.0000000000
0.0030179999 0.0000000000 0.0817039981 1.0000000000
0.0030070001 0.0000000000 0.0817029998 1.0000000000
0.0029940000 0.0000000000 0.0817029998 1.0000000000
0.0029829999 0.0000000000 0.0817049965 1.0000000000
0.0029690000 0.0000000000 0.0817029998 1.0000000000
0.0029579999 0.0000000000 0.0817029998 1.0000000000
0.0029460001 0.0000000000 0.0816999972 1.0000000000
0.0029340000 0.0000000000 0.0816939995 1.0000000000
0.0029219999 0.0000000000 0.0816939995 1.0000000000
0.0029100000 0.0000000000 0.0816899985 1.0000000000
0.0028969999 0.0000000000 0.0816870034 1.0000000000
0.0028860001 0.0000000000 0.0816920027 1.0000000000
0.0028730000 0.0000000000 0.0816939995 1.0000000000
0.0028619999 0.0000000000 0.0816949978 1.0000000000
0.0028480000 0.0000000000 0.0816849992 1.0000000000
0.0028369999 0.0000000000 0.0816849992 1.0000000000
0.0028250001 0.0000000000 0.0816920027 1.0000000000
0.0028140000 0.0000000000 0.0816949978 1.0000000000
0.0027999999 0.0000000000 0.0816949978 1.0000000000
0.0027890000 0.0000000000 0.0816970021 1.0000000000
0.0027780000 0.0000000000 0.0817010030 1.0000000000
0.0027660001 0.0000000000 0.0817020014 1.0000000000
0.0027530000 0.0000000000 0.0817010030 1.0000000000
0.0027419999 0.0000000000 0.0817070007 1.0000000000
0.0027300001 0.0000000000 0.0817089975 1.0000000000
0.0027170000 0.0000000000 0.0817060024 1.0000000000
0.0026950000 0.0000000000 0.0817670003 1.0000000000
0.0026819999 0.0000000000 0.0817660019 1.0000000000
0.0026710001 0.0000000000 0.0817800015 1.0000000000
0.0026590000 0.0000000000 0.0817850009 1.0000000000
0.0026610000 0.0000000000 0.0822490007 1.0000000000
0.0026479999 0.0000000000 0.0822369978 1.0000000000
0.0026360000 0.0000000000 0.0822239965 1.0000000000
0.0026240000 0.0000000000 0.0822200030 1.0000000000
0.0026020000 0.0000000000 0.0818850026 1.0000000000
0.0025970000 0.0000000000 0.0821489990 1.0000000000
0.0025849999 0.0000000000 0.0821439996 1.0000000000
-0.0023360001 0.0000000000 0.0820840001 1.0000000000
-0.0023490000 0.0000000000 0.0820930004 1.0000000000
-0.0023610000 0.0000000000 0.0821010023 1.0000000000
-0.0023729999 0.0000000000 0.0820979998 1.0000000000
-0.0023850000 0.0000000000 0.0820920020 1.0000000000
-0.0023980001 0.0000000000 0.0820849985 1.0000000000
-0.0024089999 0.0000000000 0.0820740014 1.0000000000
-0.0024210000 0.0000000000 0.0820569992 1.0000000000
-0.0024319999 0.0000000000 0.0820479989 1.0000000000
-0.0024440000 0.0000000000 0.0820389986 1.0000000000
-0.0024560001 0.0000000000 0.0820309967 1.0000000000
-0.0024679999 0.0000000000 0.0820199996 1.0000000000
-0.0024790000 0.0000000000 0.0820019990 1.0000000000
-0.0024920001 0.0000000000 0.0819879994 1.0000000000
-0.0025030000 0.0000000000 0.0819770023 1.0000000000
-0.0025150001 0.0000000000 0.0819690004 1.0000000000
-0.0025269999 0.0000000000 0.0819609985 1.0000000000
-0.0025400000 0.0000000000 0.0819569975 1.0000000000
-0.0025510001 0.0000000000 0.0819509998 1.0000000000
-0.0025630000 0.0000000000 0.0819320008 1.0000000000
-0.0025740000 0.0000000000 0.0819180012 1.0000000000
-0.0025869999 0.0000000000 0.0819109976 1.0000000000
-0.0025980000 0.0000000000 0.0819030032 1.0000000000
-0.0026100001 0.0000000000 0.0818829983 1.0000000000
-0.0026219999 0.0000000000 0.0818720013 1.0000000000
-0.0026330000 0.0000000000 0.0818660036 1.0000000000
-0.0026449999 0.0000000000 0.0818549991 1.0000000000
-0.0026580000 0.0000000000 0.0818459988 1.0000000000
-0.0026690001 0.0000000000 0.0818239972 1.0000000000
-0.0026799999 0.0000000000 0.0818039998 1.0000000000
-0.0026920000 0.0000000000 0.0817959979 1.0000000000
-0.0027040001 0.0000000000 0.0817969963 1.0000000000
-0.0027160000 0.0000000000 0.0817990005 1.0000000000
-0.0027280001 0.0000000000 0.0817890018 1.0000000000
-0.0027399999 0.0000000000 0.0817840025 1.0000000000
-0.0027520000 0.0000000000 0.0817900002 1.0000000000
-0.0027640001 0.0000000000 0.0817900002 1.0000000000
-0.0027770000 0.0000000000 0.0817840025 1.0000000000
-0.0027880000 0.0000000000 0.0817869976 1.0000000000
-0.0028019999 0.0000000000 0.0817919970 1.0000000000
-0.0028130000 0.0000000000 0.0818009973 1.0000000000
-0.0028260001 0.0000000000 0.0817990005 1.0000000000
-0.0028369999 0.0000000000 0.0817949995 1.0000000000
-0.0028500000 0.0000000000 0.0817930028 1.0000000000
-0.0028609999 0.0000000000 0.0817930028 1.0000000000
-0.0028740000 0.0000000000 0.0817919970 1.0000000000
-0.0028850001 0.0000000000 0.0817919970 1.0000000000
-0.0028979999 0.0000000000 0.0817930028 1.0000000000
-0.0029090000 0.0000000000 0.0817949995 1.0000000000
-0.0029219999 0.0000000000 0.0817940012 1.0000000000
-0.0029330000 0.0000000000 0.0817930028 1.0000000000
-0.0029470001 0.0000000000 0.0817999989 1.0000000000
-0.0029579999 0.0000000000 0.0818160027 1.0000000000
-0.0029700000 0.0000000000 0.0818130001 1.0000000000
-0.0029819999 0.0000000000 0.0817959979 1.0000000000
-0.0029950000 0.0000000000 0.0817909986 1.0000000000
-0.0030060001 0.0000000000 0.0817909986 1.0000000000
-0.0030179999 0.0000000000 0.0817890018 1.0000000000
-0.0030300000 0.0000000000 0.0817959979 1.0000000000
-0.0030429999 0.0000000000 0.0818030015 1.0000000000
-0.0030540000 0.0000000000 0.0817999989 1.0000000000
-0.0030660001 0.0000000000 0.0817959979 1.0000000000
-0.0030779999 0.0000000000 0.0817990005 1.0000000000
-0.0030910000 0.0000000000 0.0817990005 1.0000000000
-0.0031030001 0.0000000000 0.0817980021 1.0000000000
-0.0031160000 0.0000000000 0.0817990005 1.0000000000
-0.0031270001 0.0000000000 0.0818020031 1.0000000000
-0.0031399999 0.0000000000 0.0818020031 1.0000000000
-0.0031510000 0.0000000000 0.0818009973 1.0000000000
-0.0031640001 0.0000000000 0.0817990005 1.0000000000
-0.0031750000 0.0000000000 0.0818009973 1.0000000000
-0.0031880001 0.0000000000 0.0818020031 1.0000000000
-0.0031989999 0.0000000000 0.0818070024 1.0000000000
-0.0032120000 0.0000000000 0.0818020031 1.0000000000
-0.0032230001 0.0000000000 0.0817999989 1.0000000000
-0.0032360000 0.0000000000 0.0818080008 1.0000000000
-0.0032480001 0.0000000000 0.0818120018 1.0000000000
-0.0032599999 0.0000000000 0.0818030015 1.0000000000
-0.0032710000 0.0000000000 0.0818009973 1.0000000000
-0.0032840001 0.0000000000 0.0818020031 1.0000000000
-0.0032960000 0.0000000000 0.0818049982 1.0000000000
-0.0033080000 0.0000000000 0.0818049982 1.0000000000
-0.0033199999 0.0000000000 0.0818130001 1.0000000000
-0.0033330000 0.0000000000 0.0818120018 1.0000000000
-0.0033440001 0.0000000000 0.0818110034 1.0000000000
-0.0033559999 0.0000000000 0.0818149969 1.0000000000
-0.0033680000 0.0000000000 0.0818099976 1.0000000000
-0.0033799999 0.0000000000 0.0818059966 1.0000000000
-0.0033920000 0.0000000000 0.0818080008 1.0000000000
-0.0034050001 0.0000000000 0.0818089992 1.0000000000
-0.0034159999 0.0000000000 0.0818149969 1.0000000000
-0.0034290000 0.0000000000 0.0818160027 1.0000000000
-0.0034399999 0.0000000000 0.0818110034 1.0000000000
-0.0034520000 0.0000000000 0.0818070024 1.0000000000
-0.0034640001 0.0000000000 0.0818070024 1.0000000000
-0.0034759999 0.0000000000 0.0818059966 1.0000000000
-0.0034890000 0.0000000000 0.0818080008 1.0000000000
-0.0035010001 0.0000000000 0.0818170011 1.0000000000
-0.0035130000 0.0000000000 0.0818229988 1.0000000000
-0.0035260001 0.0000000000 0.0818179995 1.0000000000
-0.0035369999 0.0000000000 0.0818080008 1.0000000000
-0.0035490000 0.0000000000 0.0818020031 1.0000000000
-0.0035610001 0.0000000000 0.0818059966 1.0000000000
-0.0035740000 0.0000000000 0.0818089992 1.0000000000
-0.0035850001 0.0000000000 0.0818149969 1.0000000000
-0.0035979999 0.0000000000 0.0818130001 1.0000000000
-0.0036090000 0.0000000000 0.0818070024 1.0000000000
-0.0036220001 0.0000000000 0.0818030015 1.0000000000
-0.0036330000 0.0000000000 0.0818020031 1.0000000000
-0.0036450000 0.0000000000 0.0818070024 1.0000000000
-0.0036569999 0.0000000000 0.0818080008 1.0000000000
-0.0036700000 0.0000000000 0.0818099976 1.0000000000
-0.0036820001 0.0000000000 0.0818149969 1.0000000000
-0.0036940000 0.0000000000 0.0818179995 1.0000000000
-0.0037060000 0.0000000000 0.0818210021 1.0000000000
-0.0037189999 0.0000000000 0.0818200037 1.0000000000
-0.0037300000 0.0000000000 0.0818179995 1.0000000000
-0.0037420001 0.0000000000 0.0818139985 1.0000000000
-0.0037539999 0.0000000000 0.0818110034 1.0000000000
-0.0037660000 0.0000000000 0.0818089992 1.0000000000
-0.0037779999 0.0000000000 0.0818099976 1.0000000000
-0.0037900000 0.0000000000 0.0818059966 1.0000000000
-0.0038020001 0.0000000000 0.0818039998 1.0000000000
-0.0038139999 0.0000000000 0.0818059966 1.0000000000
-0.0038260000 0.0000000000 0.0818089992 1.0000000000
-0.0038389999 0.0000000000 0.0818120018 1.0000000000
-0.0038500000 0.0000000000 0.0818120018 1.0000000000
-0.0038630001 0.0000000000 0.0818020031 1.0000000000
-0.0038739999 0.0000000000 0.0817980021 1.0000000000
-0.0038860000 0.0000000000 0.0817999989 1.0000000000
-0.0038980001 0.0000000000 0.0818099976 1.0000000000
-0.0039120000 0.0000000000 0.0818189979 1.0000000000
-0.0039229998 0.0000000000 0.0818220004 1.0000000000
-0.0039349999 0.0000000000 0.0818239972 1.0000000000
-0.0039470000 0.0000000000 0.0818260014 1.0000000000
-0.0039590001 0.0000000000 0.0818250030 1.0000000000
-0.0039710002 0.0000000000 0.0818179995 1.0000000000
-0.0039829998 0.0000000000 0.0818089992 1.0000000000
-0.0039949999 0.0000000000 0.0818110034 1.0000000000
-0.0040079998 0.0000000000 0.0818189979 1.0000000000
-0.0040190001 0.0000000000 0.0818260014 1.0000000000
-0.0040310002 0.0000000000 0.0818250030 1.0000000000
-0.0040429998 0.0000000000 0.0818229988 1.0000000000
-0.0040560002 0.0000000000 0.0818200037 1.0000000000
-0.0040670000 0.0000000000 0.0818229988 1.0000000000
-0.0040799999 0.0000000000 0.0818269998 1.0000000000
-0.0040920000 0.0000000000 0.0818289965 1.0000000000
-0.0041040001 0.0000000000 0.0818319991 1.0000000000
-0.0041160001 0.0000000000 0.0818300024 1.0000000000
-0.0041279998 0.0000000000 0.0818250030 1.0000000000
-0.0041399999 0.0000000000 0.0818250030 1.0000000000
-0.0041530002 0.0000000000 0.0818210021 1.0000000000
-0.0041640000 0.0000000000 0.0818229988 1.0000000000
-0.0041769999 0.0000000000 0.0818300024 1.0000000000
-0.0041880002 0.0000000000 0.0818269998 1.0000000000
-0.0042010001 0.0000000000 0.0818139985 1.0000000000
-0.0042110002 0.0000000000 0.0818080008 1.0000000000
-0.0042229998 0.0000000000 0.0818070024 1.0000000000
-0.0042360001 0.0000000000 0.0818089992 1.0000000000
-0.0042480002 0.0000000000 0.0818070024 1.0000000000
-0.0042599998 0.0000000000 0.0818099976 1.0000000000
-0.0042719999 0.0000000000 0.0818160027 1.0000000000
-0.0042840000 0.0000000000 0.0818149969 1.0000000000
-0.0042960001 0.0000000000 0.0818179995 1.0000000000
-0.0043080002 0.0000000000 0.0818220004 1.0000000000
-0.0043210001 0.0000000000 0.0818210021 1.0000000000
-0.0043319999 0.0000000000 0.0818160027 1.0000000000
-0.0043449998 0.0000000000 0.0818130001 1.0000000000
-0.0043560001 0.0000000000 0.0818179995 1.0000000000
-0.0043700002 0.0000000000 0.0818200037 1.0000000000
-0.0043810001 0.0000000000 0.0818200037 1.0000000000
-0.0043930002 0.0000000000 0.0818239972 1.0000000000
-0.0044049998 0.0000000000 0.0818289965 1.0000000000
-0.0044169999 0.0000000000 0.0818269998 1.0000000000
-0.0044290000 0.0000000000 0.0818269998 1.0000000000
-0.0044419998 0.0000000000 0.0818369985 1.0000000000
-0.0044539999 0.0000000000 0.0818409994 1.0000000000
-0.0044660000 0.0000000000 0.0818310007 1.0000000000
-0.0044769999 0.0000000000 0.0818269998 1.0000000000
-0.0044910000 0.0000000000 0.0818310007 1.0000000000
-0.0045019998 0.0000000000 0.0818350017 1.0000000000
-0.0045150002 0.0000000000 0.0818300024 1.0000000000
-0.0045260000 0.0000000000 0.0818279982 1.0000000000
-0.0045389999 0.0000000000 0.0818300024 1.0000000000
-0.0045500002 0.0000000000 0.0818340033 1.0000000000
-0.0045619998 0.0000000000 0.0818360001 1.0000000000
-0.0045739999 0.0000000000 0.0818310007 1.0000000000
-0.0045850002 0.0000000000 0.0818179995 1.0000000000
-0.0045969998 0.0000000000 0.0818179995 1.0000000000
-0.0046110000 0.0000000000 0.0818310007 1.0000000000
-0.0046219998 0.0000000000 0.0818329975 1.0000000000
-0.0046350001 0.0000000000 0.0818229988 1.0000000000
-0.0046460000 0.0000000000 0.0818179995 1.0000000000
-0.0046580001 0.0000000000 0.0818269998 1.0000000000
-0.0046700002 0.0000000000 0.0818329975 1.0000000000
-0.0046830000 0.0000000000 0.0818210021 1.0000000000
-0.0046939999 0.0000000000 0.0818179995 1.0000000000
-0.0047070002 0.0000000000 0.0818200037 1.0000000000
-0.0047180001 0.0000000000 0.0818279982 1.0000000000
-0.0047300002 0.0000000000 0.0818279982 1.0000000000
-0.0047419998 0.0000000000 0.0818220004 1.0000000000
-0.0047550001 0.0000000000 0.0818210021 1.0000000000
-0.0047660000 0.0000000000 0.0818260014 1.0000000000
-0.0047800001 0.0000000000 0.0818310007 1.0000000000
-0.0047909999 0.0000000000 0.0818350017 1.0000000000
-0.0048030000 0.0000000000 0.0818340033 1.0000000000
-0.0048150001 0.0000000000 0.0818319991 1.0000000000
-0.0048280000 0.0000000000 0.0818310007 1.0000000000
-0.0048389998 0.0000000000 0.0818350017 1.0000000000
-0.0048509999 0.0000000000 0.0818340033 1.0000000000
-0.0048630000 0.0000000000 0.0818340033 1.0000000000
-0.0048750001 0.0000000000 0.0818350017 1.0000000000
-0.0048870002 0.0000000000 0.0818340033 1.0000000000
-0.0048989998 0.0000000000 0.0818340033 1.0000000000
-0.0049109999 0.0000000000 0.0818350017 1.0000000000
-0.0049239998 0.0000000000 0.0818390027 1.0000000000
-0.0049359999 0.0000000000 0.0818469971 1.0000000000
-0.0049480000 0.0000000000 0.0818409994 1.0000000000
-0.0049589998 0.0000000000 0.0818360001 1.0000000000
-0.0049709999 0.0000000000 0.0818350017 1.0000000000
-0.0049830000 0.0000000000 0.0818379968 1.0000000000
-0.0049959999 0.0000000000 0.0818369985 1.0000000000
-0.0050070002 0.0000000000 0.0818369985 1.0000000000
-0.0050189998 0.0000000000 0.0818350017 1.0000000000
-0.0050309999 0.0000000000 0.0818390027 1.0000000000
-0.0050440002 0.0000000000 0.0818440020 1.0000000000
-0.0050559998 0.0000000000 0.0818459988 1.0000000000
-0.0050679999 0.0000000000 0.0818430036 1.0000000000
-0.0050789998 0.0000000000 0.0818379968 1.0000000000
-0.0050909999 0.0000000000 0.0818350017 1.0000000000
-0.0051030000 0.0000000000 0.0818350017 1.0000000000
-0.0051159998 0.0000000000 0.0818329975 1.0000000000
-0.0051270002 0.0000000000 0.0818360001 1.0000000000
-0.0051409998 0.0000000000 0.0818409994 1.0000000000
-0.0051520001 0.0000000000 0.0818459988 1.0000000000
-0.0051650000 0.0000000000 0.0818469971 1.0000000000
-0.0051759998 0.0000000000 0.0818450004 1.0000000000
-0.0051879999 0.0000000000 0.0818459988 1.0000000000
-0.0052000000 0.0000000000 0.0818469971 1.0000000000
-0.0052129999 0.0000000000 0.0818419978 1.0000000000
-0.0052240002 0.0000000000 0.0818430036 1.0000000000
-0.0052370001 0.0000000000 0.0818430036 1.0000000000
-0.0052479999 0.0000000000 0.0818440020 1.0000000000
-0.0052609998 0.0000000000 0.0818480030 1.0000000000
-0.0052720001 0.0000000000 0.0818499997 1.0000000000
-0.0052850000 0.0000000000 0.0818499997 1.0000000000
-0.0052970001 0.0000000000 0.0818509981 1.0000000000
-0.0053090001 0.0000000000 0.0818469971 1.0000000000
-0.0053200000 0.0000000000 0.0818480030 1.0000000000
-0.0053329999 0.0000000000 0.0818480030 1.0000000000
-0.0053440002 0.0000000000 0.0818430036 1.0000000000
-0.0053570000 0.0000000000 0.0818390027 1.0000000000
-0.0053679999 0.0000000000 0.0818419978 1.0000000000
-0.0053810002 0.0000000000 0.0818419978 1.0000000000
-0.0053920001 0.0000000000 0.0818400010 1.0000000000
-0.0054049999 0.0000000000 0.0818400010 1.0000000000
-0.0054159998 0.0000000000 0.0818440020 1.0000000000
-0.0054290001 0.0000000000 0.0818430036 1.0000000000
-0.0054400000 0.0000000000 0.0818409994 1.0000000000
-0.0054529998 0.0000000000 0.0818419978 1.0000000000
-0.0054649999 0.0000000000 0.0818480030 1.0000000000
-0.0054770000 0.0000000000 0.0818469971 1.0000000000
-0.0054879999 0.0000000000 0.0818419978 1.0000000000
-0.0055000000 0.0000000000 0.0818379968 1.0000000000
-0.0055120001 0.0000000000 0.0818369985 1.0000000000
-0.0055249999 0.0000000000 0.0818390027 1.0000000000
-0.0055370000 0.0000000000 0.0818430036 1.0000000000
-0.0055490001 0.0000000000 0.0818450004 1.0000000000
-0.0055610002 0.0000000000 0.0818509981 1.0000000000
-0.0055729998 0.0000000000 0.0818570033 1.0000000000
-0.0055849999 0.0000000000 0.0818559974 1.0000000000
-0.0055979998 0.0000000000 0.0818509981 1.0000000000
-0.0056090001 0.0000000000 0.0818469971 1.0000000000
-0.0056220000 0.0000000000 0.0818430036 1.0000000000
-0.0056329998 0.0000000000 0.0818419978 1.0000000000
-0.0056449999 0.0000000000 0.0818480030 1.0000000000
-0.0056570000 0.0000000000 0.0818540007 1.0000000000
-0.0056699999 0.0000000000 0.0818580016 1.0000000000
-0.0056820000 0.0000000000 0.0818559974 1.0000000000
-0.0056929998 0.0000000000 0.0818540007 1.0000000000
-0.0057049999 0.0000000000 0.0818509981 1.0000000000
-0.0057170000 0.0000000000 0.0818469971 1.0000000000
-0.0057290001 0.0000000000 0.0818459988 1.0000000000
-0.0057420000 0.0000000000 0.0818440020 1.0000000000
-0.0057529998 0.0000000000 0.0818450004 1.0000000000
-0.0057660001 0.0000000000 0.0818490013 1.0000000000
-0.0057780002 0.0000000000 0.0818519965 1.0000000000
-0.0057890001 0.0000000000 0.0818490013 1.0000000000
-0.0058010002 0.0000000000 0.0818440020 1.0000000000
-0.0058129998 0.0000000000 0.0818459988 1.0000000000
-0.0058249999 0.0000000000 0.0818480030 1.0000000000
-0.0058370000 0.0000000000 0.0818480030 1.0000000000
-0.0058490001 0.0000000000 0.0818480030 1.0000000000
-0.0058610002 0.0000000000 0.0818480030 1.0000000000
-0.0058740000 0.0000000000 0.0818519965 1.0000000000
-0.0058869999 0.0000000000 0.0818509981 1.0000000000
-0.0058970000 0.0000000000 0.0818469971 1.0000000000
-0.0059110001 0.0000000000 0.0818509981 1.0000000000
-0.0059219999 0.0000000000 0.0818580016 1.0000000000
-0.0059349998 0.0000000000 0.0818499997 1.0000000000
-0.0059460001 0.0000000000 0.0818509981 1.0000000000
-0.0059580002 0.0000000000 0.0818559974 1.0000000000
-0.0059699998 0.0000000000 0.0818540007 1.0000000000
-0.0059830002 0.0000000000 0.0818490013 1.0000000000
-0.0059940000 0.0000000000 0.0818519965 1.0000000000
-0.0060069999 0.0000000000 0.0818540007 1.0000000000
-0.0060180002 0.0000000000 0.0818559974 1.0000000000
-0.0060299998 0.0000000000 0.0818580016 1.0000000000
-0.0060419999 0.0000000000 0.0818570033 1.0000000000
-0.0060540000 0.0000000000 0.0818559974 1.0000000000
-0.0060660001 0.0000000000 0.0818580016 1.0000000000
-0.0060790000 0.0000000000 0.0818580016 1.0000000000
-0.0060899998 0.0000000000 0.0818570033 1.0000000000
-0.0061039999 0.0000000000 0.0818599984 1.0000000000
-0.0061150002 0.0000000000 0.0818729997 1.0000000000
-0.0061280001 0.0000000000 0.0818829983 1.0000000000
-0.0061410000 0.0000000000 0.0818979964 1.0000000000
-0.0061550001 0.0000000000 0.0819120035 1.0000000000
-0.0061659999 0.0000000000 0.0819180012 1.0000000000
-0.0061789998 0.0000000000 0.0819279999 1.0000000000
-0.0061920001 0.0000000000 0.0819389969 1.0000000000
-0.0062050000 0.0000000000 0.0819450021 1.0000000000
-0.0062170001 0.0000000000 0.0819550008 1.0000000000
-0.0062310002 0.0000000000 0.0819929987 1.0000000000
-0.0062449998 0.0000000000 0.0820090026 1.0000000000
-0.0062569999 0.0000000000 0.0820150003 1.0000000000
-0.0062699998 0.0000000000 0.0820330009 1.0000000000
-0.0062830001 0.0000000000 0.0820470005 1.0000000000
-0.0062950002 0.0000000000 0.0820510015 1.0000000000
-0.0063080001 0.0000000000 0.0820489973 1.0000000000
-0.0063200002 0.0000000000 0.0820539966 1.0000000000
-0.0063319998 0.0000000000 0.0820669979 1.0000000000
-0.0063459999 0.0000000000 0.0820849985 1.0000000000
-0.0063600000 0.0000000000 0.0821010023 1.0000000000
-0.0063709999 0.0000000000 0.0821100026 1.0000000000
-0.0063840002 0.0000000000 0.0821179971 1.0000000000
-0.0063970000 0.0000000000 0.0821300000 1.0000000000
-0.0064099999 0.0000000000 0.0821370035 1.0000000000
-0.0064220000 0.0000000000 0.0821439996 1.0000000000
-0.0064349999 0.0000000000 0.0821539983 1.0000000000
-0.0064480002 0.0000000000 0.0821819976 1.0000000000
-0.0064619998 0.0000000000 0.0821999982 1.0000000000
-0.0064739999 0.0000000000 0.0822129995 1.0000000000
-0.0064880000 0.0000000000 0.0822290033 1.0000000000
-0.0065009999 0.0000000000 0.0822520033 1.0000000000
-0.0065139998 0.0000000000 0.0822520033 1.0000000000
-0.0065250001 0.0000000000 0.0822540000 1.0000000000
-0.0065390002 0.0000000000 0.0822729990 1.0000000000
-0.0065509998 0.0000000000 0.0822810009 1.0000000000
-0.0065649999 0.0000000000 0.0822990015 1.0000000000
-0.0065779998 0.0000000000 0.0823229998 1.0000000000
-0.0065910001 0.0000000000 0.0823350027 1.0000000000
-0.0066040000 0.0000000000 0.0823429972 1.0000000000
-0.0066160001 0.0000000000 0.0823530033 1.0000000000
-0.0066290000 0.0000000000 0.0823630020 1.0000000000
-0.0066419998 0.0000000000 0.0823689997 1.0000000000
-0.0066539999 0.0000000000 0.0823689997 1.0000000000
-0.0066660000 0.0000000000 0.0823789984 1.0000000000
-0.0066800001 0.0000000000 0.0824000016 1.0000000000
-0.0066930000 0.0000000000 0.0824050009 1.0000000000
-0.0067050001 0.0000000000 0.0824169964 1.0000000000
-0.0067179999 0.0000000000 0.0824280009 1.0000000000
-0.0067320000 0.0000000000 0.0824510008 1.0000000000
-0.0067460001 0.0000000000 0.0824799985 1.0000000000
-0.0067579998 0.0000000000 0.0824830011 1.0000000000
-0.0067710001 0.0000000000 0.0824759975 1.0000000000
-0.0067820000 0.0000000000 0.0824849978 1.0000000000
-0.0067960001 0.0000000000 0.0825069994 1.0000000000
-0.0068089999 0.0000000000 0.0825209990 1.0000000000
-0.0068219998 0.0000000000 0.0825280026 1.0000000000
-0.0068350001 0.0000000000 0.0825430006 1.0000000000
-0.0068480000 0.0000000000 0.0825600028 1.0000000000
-0.0068609999 0.0000000000 0.0825740024 1.0000000000
-0.0068740002 0.0000000000 0.0825880021 1.0000000000
-0.0068870001 0.0000000000 0.0825999975 1.0000000000
-0.0068999999 0.0000000000 0.0826070011 1.0000000000
-0.0069120000 0.0000000000 0.0826139972 1.0000000000
-0.0069260001 0.0000000000 0.0826300010 1.0000000000
-0.0069390000 0.0000000000 0.0826480016 1.0000000000
-0.0069519999 0.0000000000 0.0826570019 1.0000000000
-0.0069650002 0.0000000000 0.0826679990 1.0000000000
-0.0069780000 0.0000000000 0.0826769993 1.0000000000
-0.0069900001 0.0000000000 0.0826850012 1.0000000000
-0.0070039998 0.0000000000 0.0826969966 1.0000000000
-0.0070159999 0.0000000000 0.0827120021 1.0000000000
-0.0070290002 0.0000000000 0.0827189982 1.0000000000
-0.0070420001 0.0000000000 0.0827300027 1.0000000000
-0.0070549999 0.0000000000 0.0827369988 1.0000000000
-0.0070670000 0.0000000000 0.0827429965 1.0000000000
-0.0070810001 0.0000000000 0.0827730000 1.0000000000
-0.0070949998 0.0000000000 0.0827940032 1.0000000000
-0.0071080001 0.0000000000 0.0827979967 1.0000000000
-0.0071200002 0.0000000000 0.0828090012 1.0000000000
-0.0071350001 0.0000000000 0.0828299969 1.0000000000
-0.0071479999 0.0000000000 0.0828469992 1.0000000000
-0.0071609998 0.0000000000 0.0828550011 1.0000000000
-0.0071729999 0.0000000000 0.0828619972 1.0000000000
-0.0071870000 0.0000000000 0.0828720033 1.0000000000
-0.0071990001 0.0000000000 0.0828879997 1.0000000000
-0.0072130002 0.0000000000 0.0829010010 1.0000000000
-0.0072260001 0.0000000000 0.0829159990 1.0000000000
-0.0072389999 0.0000000000 0.0829259977 1.0000000000
-0.0072510000 0.0000000000 0.0829299986 1.0000000000
-0.0072639999 0.0000000000 0.0829320028 1.0000000000
-0.0072760000 0.0000000000 0.0829470009 1.0000000000
-0.0072889999 0.0000000000 0.0829420015 1.0000000000
-0.0097030001 0.0000000000 0.0830229968 1.0000000000
-0.0097150002 0.0000000000 0.0830200016 1.0000000000
-0.0097260000 0.0000000000 0.0830129981 1.0000000000
-0.0097369999 0.0000000000 0.0830079988 1.0000000000
-0.0097479997 0.0000000000 0.0829989985 1.0000000000
-0.0097589996 0.0000000000 0.0829840004 1.0000000000
-0.0097700004 0.0000000000 0.0829759985 1.0000000000
-0.0097820004 0.0000000000 0.0829679966 1.0000000000
-0.0097920001 0.0000000000 0.0829579979 1.0000000000
-0.0098040001 0.0000000000 0.0829489976 1.0000000000
-0.0098150000 0.0000000000 0.0829389989 1.0000000000
-0.0098259998 0.0000000000 0.0829259977 1.0000000000
-0.0098360004 0.0000000000 0.0829119980 1.0000000000
-0.0098470002 0.0000000000 0.0828989968 1.0000000000
-0.0098580001 0.0000000000 0.0828920007 1.0000000000
-0.0098689999 0.0000000000 0.0828860030 1.0000000000
-0.0098810000 0.0000000000 0.0828759968 1.0000000000
-0.0098909996 0.0000000000 0.0828619972 1.0000000000
-0.0099020004 0.0000000000 0.0828510001 1.0000000000
-0.0099130003 0.0000000000 0.0828439966 1.0000000000
-0.0099240001 0.0000000000 0.0828329995 1.0000000000
-0.0099360002 0.0000000000 0.0828209966 1.0000000000
-0.0099449996 0.0000000000 0.0828050002 1.0000000000
-0.0099569997 0.0000000000 0.0827940032 1.0000000000
-0.0099680005 0.0000000000 0.0827889964 1.0000000000
-0.0099790003 0.0000000000 0.0827810019 1.0000000000
-0.0099900002 0.0000000000 0.0827699974 1.0000000000
-0.0100010000 0.0000000000 0.0827620029 1.0000000000
-0.0100119999 0.0000000000 0.0827549994 1.0000000000
-0.0100240000 0.0000000000 0.0827469975 1.0000000000
-0.0100349998 0.0000000000 0.0827379972 1.0000000000
-0.0100459997 0.0000000000 0.0827250034 1.0000000000
-0.0100560002 0.0000000000 0.0827110037 1.0000000000
-0.0100680003 0.0000000000 0.0826999992 1.0000000000
-0.0100790001 0.0000000000 0.0826969966 1.0000000000
-0.0100900000 0.0000000000 0.0826940015 1.0000000000
-0.0101009998 0.0000000000 0.0826869980 1.0000000000
-0.0101129999 0.0000000000 0.0826790035 1.0000000000
-0.0101239998 0.0000000000 0.0826729983 1.0000000000
-0.0101359999 0.0000000000 0.0826620013 1.0000000000
-0.0101450002 0.0000000000 0.0826449990 1.0000000000
-0.0101560000 0.0000000000 0.0826269984 1.0000000000
-0.0101669999 0.0000000000 0.0826240033 1.0000000000
-0.0101790000 0.0000000000 0.0826179981 1.0000000000
-0.0101889996 0.0000000000 0.0826079994 1.0000000000
-0.0102009997 0.0000000000 0.0825949982 1.0000000000
-0.0102110002 0.0000000000 0.0825849995 1.0000000000
-0.0102230003 0.0000000000 0.0825780034 1.0000000000
-0.0102319997 0.0000000000 0.0825629979 1.0000000000
-0.0102430005 0.0000000000 0.0825409964 1.0000000000
-0.0102530001 0.0000000000 0.0825340003 1.0000000000
-0.0102650002 0.0000000000 0.0825259984 1.0000000000
-0.0102760000 0.0000000000 0.0825190023 1.0000000000
-0.0102869999 0.0000000000 0.0825110003 1.0000000000
-0.0102990000 0.0000000000 0.0825110003 1.0000000000
-0.0103110000 0.0000000000 0.0825079978 1.0000000000
-0.0103219999 0.0000000000 0.0825020000 1.0000000000
-0.0103340000 0.0000000000 0.0824920014 1.0000000000
-0.0103439996 0.0000000000 0.0824849978 1.0000000000
-0.0103550004 0.0000000000 0.0824730024 1.0000000000
-0.0103650000 0.0000000000 0.0824560001 1.0000000000
-0.0103759998 0.0000000000 0.0824389979 1.0000000000
-0.0103860004 0.0000000000 0.0824310035 1.0000000000
-0.0103979995 0.0000000000 0.0824220031 1.0000000000
-0.0104080001 0.0000000000 0.0824149996 1.0000000000
-0.0104189999 0.0000000000 0.0824069977 1.0000000000
-0.0104299998 0.0000000000 0.0823979974 1.0000000000
-0.0104419999 0.0000000000 0.0823860019 1.0000000000
-0.0104520004 0.0000000000 0.0823760033 1.0000000000
-0.0104639996 0.0000000000 0.0823739991 1.0000000000
-0.0104750004 0.0000000000 0.0823699981 1.0000000000
-0.0104850000 0.0000000000 0.0823490024 1.0000000000
-0.0104949996 0.0000000000 0.0823329985 1.0000000000
-0.0105069997 0.0000000000 0.0823249966 1.0000000000
-0.0105170002 0.0000000000 0.0823109969 1.0000000000
-0.0105280001 0.0000000000 0.0823009983 1.0000000000
-0.0105389999 0.0000000000 0.0823009983 1.0000000000
-0.0105520003 0.0000000000 0.0823009983 1.0000000000
-0.0105630001 0.0000000000 0.0822999999 1.0000000000
-0.0105740000 0.0000000000 0.0822900012 1.0000000000
-0.0105839996 0.0000000000 0.0822739974 1.0000000000
-0.0105950003 0.0000000000 0.0822549984 1.0000000000
-0.0106050000 0.0000000000 0.0822459981 1.0000000000
-0.0106170001 0.0000000000 0.0822409987 1.0000000000
-0.0106269997 0.0000000000 0.0822290033 1.0000000000
-0.0106380004 0.0000000000 0.0822150037 1.0000000000
-0.0106499996 0.0000000000 0.0822139978 1.0000000000
-0.0106610004 0.0000000000 0.0822099969 1.0000000000
-0.0106710000 0.0000000000 0.0821959972 1.0000000000
-0.0106819998 0.0000000000 0.0821840018 1.0000000000
-0.0106939999 0.0000000000 0.0821819976 1.0000000000
-0.0107049998 0.0000000000 0.0821719989 1.0000000000
-0.0107150003 0.0000000000 0.0821570009 1.0000000000
-0.0107249999 0.0000000000 0.0821420029 1.0000000000
-0.0107359998 0.0000000000 0.0821340010 1.0000000000
-0.0107479999 0.0000000000 0.0821280032 1.0000000000
-0.0107589997 0.0000000000 0.0821219981 1.0000000000
-0.0107699996 0.0000000000 0.0821119994 1.0000000000
-0.0107810004 0.0000000000 0.0821029991 1.0000000000
-0.0107930005 0.0000000000 0.0820960030 1.0000000000
-0.0108019998 0.0000000000 0.0820849985 1.0000000000
-0.0108129997 0.0000000000 0.0820680037 1.0000000000
-0.0108240005 0.0000000000 0.0820640028 1.0000000000
-0.0108359996 0.0000000000 0.0820659995 1.0000000000
-0.0108470004 0.0000000000 0.0820579976 1.0000000000
-0.0108570000 0.0000000000 0.0820389986 1.0000000000
-0.0108669996 0.0000000000 0.0820240006 1.0000000000
-0.0108789997 0.0000000000 0.0820169970 1.0000000000
-0.0108899996 0.0000000000 0.0820150003 1.0000000000
-0.0109000001 0.0000000000 0.0820040032 1.0000000000
-0.0109099997 0.0000000000 0.0819870010 1.0000000000
-0.0109209996 0.0000000000 0.0819720030 1.0000000000
-0.0109310001 0.0000000000 0.0819590017 1.0000000000
-0.0109420000 0.0000000000 0.0819519982 1.0000000000
-0.0109529998 0.0000000000 0.0819479972 1.0000000000
-0.0109649999 0.0000000000 0.0819460005 1.0000000000
-0.0109759998 0.0000000000 0.0819450021 1.0000000000
-0.0109890001 0.0000000000 0.0819419995 1.0000000000
-0.0109999999 0.0000000000 0.0819429979 1.0000000000
-0.0110130003 0.0000000000 0.0819429979 1.0000000000
-0.0110240001 0.0000000000 0.0819419995 1.0000000000
-0.0110350000 0.0000000000 0.0819389969 1.0000000000
-0.0110470001 0.0000000000 0.0819350034 1.0000000000
-0.0110590002 0.0000000000 0.0819329992 1.0000000000
-0.0110710002 0.0000000000 0.0819419995 1.0000000000
-0.0110839996 0.0000000000 0.0819460005 1.0000000000
-0.0110950004 0.0000000000 0.0819440037 1.0000000000
-0.0111069996 0.0000000000 0.0819400027 1.0000000000
-0.0111180004 0.0000000000 0.0819370002 1.0000000000
-0.0111300005 0.0000000000 0.0819400027 1.0000000000
-0.0111429999 0.0000000000 0.0819469988 1.0000000000
-0.0111560002 0.0000000000 0.0819479972 1.0000000000
-0.0111670000 0.0000000000 0.0819490030 1.0000000000
-0.0111790001 0.0000000000 0.0819490030 1.0000000000
-0.0111910002 0.0000000000 0.0819490030 1.0000000000
-0.0112039996 0.0000000000 0.0819519982 1.0000000000
-0.0112150004 0.0000000000 0.0819500014 1.0000000000
-0.0112260003 0.0000000000 0.0819460005 1.0000000000
-0.0112380004 0.0000000000 0.0819440037 1.0000000000
-0.0112500004 0.0000000000 0.0819400027 1.0000000000
-0.0112610003 0.0000000000 0.0819419995 1.0000000000
-0.0112749999 0.0000000000 0.0819490030 1.0000000000
-0.0112870000 0.0000000000 0.0819540024 1.0000000000
-0.0112990001 0.0000000000 0.0819529966 1.0000000000
-0.0113110002 0.0000000000 0.0819600001 1.0000000000
-0.0113230003 0.0000000000 0.0819590017 1.0000000000
-0.0113340002 0.0000000000 0.0819509998 1.0000000000
-0.0113469996 0.0000000000 0.0819529966 1.0000000000
-0.0113580003 0.0000000000 0.0819580033 1.0000000000
-0.0113700004 0.0000000000 0.0819559991 1.0000000000
-0.0113819996 0.0000000000 0.0819540024 1.0000000000
-0.0113939997 0.0000000000 0.0819529966 1.0000000000
-0.0114050005 0.0000000000 0.0819529966 1.0000000000
-0.0114179999 0.0000000000 0.0819519982 1.0000000000
-0.0114289997 0.0000000000 0.0819529966 1.0000000000
-0.0114420000 0.0000000000 0.0819519982 1.0000000000
-0.0114529999 0.0000000000 0.0819580033 1.0000000000
-0.0114650000 0.0000000000 0.0819559991 1.0000000000
-0.0114759998 0.0000000000 0.0819500014 1.0000000000
-0.0114890002 0.0000000000 0.0819500014 1.0000000000
-0.0115010003 0.0000000000 0.0819590017 1.0000000000
-0.0115139997 0.0000000000 0.0819590017 1.0000000000
-0.0115240002 0.0000000000 0.0819540024 1.0000000000
-0.0115350001 0.0000000000 0.0819479972 1.0000000000
-0.0115470001 0.0000000000 0.0819469988 1.0000000000
-0.0115599995 0.0000000000 0.0819460005 1.0000000000
-0.0115710003 0.0000000000 0.0819469988 1.0000000000
-0.0115839997 0.0000000000 0.0819519982 1.0000000000
-0.0115959998 0.0000000000 0.0819569975 1.0000000000
-0.0116079999 0.0000000000 0.0819509998 1.0000000000
-0.0116180005 0.0000000000 0.0819469988 1.0000000000
-0.0116309999 0.0000000000 0.0819450021 1.0000000000
-0.0116429999 0.0000000000 0.0819500014 1.0000000000
-0.0116550000 0.0000000000 0.0819509998 1.0000000000
-0.0116659999 0.0000000000 0.0819500014 1.0000000000
-0.0116780000 0.0000000000 0.0819479972 1.0000000000
-0.0116900001 0.0000000000 0.0819479972 1.0000000000
-0.0117020002 0.0000000000 0.0819519982 1.0000000000
-0.0117140003 0.0000000000 0.0819500014 1.0000000000
-0.0117260003 0.0000000000 0.0819440037 1.0000000000
-0.0117370002 0.0000000000 0.0819490030 1.0000000000
-0.0117499996 0.0000000000 0.0819519982 1.0000000000
-0.0117610004 0.0000000000 0.0819509998 1.0000000000
-0.0117729995 0.0000000000 0.0819429979 1.0000000000
-0.0117840003 0.0000000000 0.0819450021 1.0000000000
-0.0117969997 0.0000000000 0.0819490030 1.0000000000
-0.0118089998 0.0000000000 0.0819529966 1.0000000000
-0.0118220001 0.0000000000 0.0819569975 1.0000000000
-0.0118330000 0.0000000000 0.0819540024 1.0000000000
-0.0118439998 0.0000000000 0.0819490030 1.0000000000
-0.0118570002 0.0000000000 0.0819509998 1.0000000000
-0.0118690003 0.0000000000 0.0819540024 1.0000000000
-0.0118810004 0.0000000000 0.0819540024 1.0000000000
-0.0118930005 0.0000000000 0.0819529966 1.0000000000
-0.0119049996 0.0000000000 0.0819559991 1.0000000000
-0.0119160004 0.0000000000 0.0819490030 1.0000000000
-0.0119270002 0.0000000000 0.0819410011 1.0000000000
-0.0119380001 0.0000000000 0.0819419995 1.0000000000
-0.0119510004 0.0000000000 0.0819460005 1.0000000000
-0.0119639998 0.0000000000 0.0819479972 1.0000000000
-0.0119749997 0.0000000000 0.0819490030 1.0000000000
-0.0119869998 0.0000000000 0.0819500014 1.0000000000
-0.0119989999 0.0000000000 0.0819500014 1.0000000000
-0.0120110000 0.0000000000 0.0819469988 1.0000000000
-0.0120230000 0.0000000000 0.0819490030 1.0000000000
-0.0120350001 0.0000000000 0.0819450021 1.0000000000
-0.0120460000 0.0000000000 0.0819429979 1.0000000000
-0.0120590003 0.0000000000 0.0819469988 1.0000000000
-0.0120700002 0.0000000000 0.0819479972 1.0000000000
-0.0120810000 0.0000000000 0.0819429979 1.0000000000
-0.0120930001 0.0000000000 0.0819440037 1.0000000000
-0.0121060004 0.0000000000 0.0819529966 1.0000000000
-0.0121179996 0.0000000000 0.0819550008 1.0000000000
-0.0121299997 0.0000000000 0.0819509998 1.0000000000
-0.0121419998 0.0000000000 0.0819529966 1.0000000000
-0.0121550001 0.0000000000 0.0819630027 1.0000000000
-0.0121670002 0.0000000000 0.0819600001 1.0000000000
-0.0121780001 0.0000000000 0.0819490030 1.0000000000
-0.0121889999 0.0000000000 0.0819479972 1.0000000000
-0.0122020002 0.0000000000 0.0819540024 1.0000000000
-0.0122149996 0.0000000000 0.0819640011 1.0000000000
-0.0122269997 0.0000000000 0.0819619969 1.0000000000
-0.0122379996 0.0000000000 0.0819590017 1.0000000000
-0.0122499997 0.0000000000 0.0819569975 1.0000000000
-0.0122610005 0.0000000000 0.0819519982 1.0000000000
-0.0122720003 0.0000000000 0.0819509998 1.0000000000
-0.0122849997 0.0000000000 0.0819550008 1.0000000000
-0.0122980000 0.0000000000 0.0819559991 1.0000000000
